M48
;GenerationSoftware,Autodesk,EAGLE,9.1.2*%
;CreationDate,2018-08-03T21:34:08Z*%
FMAT,2
ICI,OFF
METRIC,TZ,000.000
T3C0.305
T2C0.350
T1C0.381
%
G90
M71
T1
X61023Y34430
X62154Y126949
X3429Y62103
X3429Y61544
X3429Y60960
X-1918Y62179
X-1918Y61620
X-1918Y61036
X34417Y62179
X34417Y61620
X34417Y61036
X39332Y62166
X39332Y61608
X39332Y61023
X47117Y62166
X47117Y61608
X47117Y61023
X76035Y62179
X76035Y61620
X76035Y61036
X83845Y62179
X83845Y61620
X83845Y61036
X88748Y62179
X88748Y61620
X88748Y61036
X119647Y62166
X119647Y61608
X119647Y61023
X125209Y62205
X125209Y61646
X125209Y61062
X126924Y62179
X126924Y61620
X126924Y61036
X61023Y47142
X61582Y47142
X62166Y47142
X61011Y39345
X61570Y39345
X62154Y39345
X61582Y34430
X62166Y34430
X60998Y3531
X61557Y3531
X62141Y3531
X61023Y-2019
X61582Y-2019
X62166Y-2019
X61023Y-3683
X61582Y-3683
X62166Y-3683
X-3721Y62154
X-3721Y61595
X-3721Y61011
X61011Y76060
X61570Y76060
X62154Y76060
X61023Y83845
X61582Y83845
X62166Y83845
X61023Y88773
X61582Y88773
X62166Y88773
X61023Y119647
X61582Y119647
X62166Y119647
X61023Y125209
X61582Y125209
X62166Y125209
X61011Y126949
X61570Y126949
T2
X120586Y56070
T3
X85598Y59880
X84836Y60452
X86932Y59563
X84709Y58737
X123634Y67501
X122745Y55753
X123985Y61609
X123794Y63550
X124057Y65610
X123059Y71330
X122326Y75170
X121354Y78957
X120146Y82675
X118707Y86310
X117042Y89847
X115159Y93273
X113064Y96573
X110766Y99736
X108274Y102748
X105598Y105598
X102748Y108274
X99736Y110766
X96573Y113064
X93273Y115159
X89847Y117042
X86310Y118707
X82675Y120146
X78957Y121354
X75170Y122326
X71330Y123059
X67451Y123549
X63550Y123794
X59640Y123794
X55739Y123549
X51860Y123059
X48020Y122326
X44233Y121354
X40515Y120146
X36880Y118707
X33343Y117042
X29917Y115159
X26617Y113064
X23454Y110766
X20442Y108274
X17592Y105598
X14916Y102748
X12424Y99736
X10126Y96573
X8031Y93273
X6148Y89847
X4483Y86310
X3044Y82675
X1836Y78957
X864Y75170
X131Y71330
X87380Y63612
X-604Y63550
X-604Y59640
X-359Y55739
X131Y51860
X864Y48020
X1836Y44233
X3044Y40515
X4483Y36880
X6148Y33343
X8031Y29917
X10126Y26617
X12424Y23454
X14916Y20442
X17592Y17592
X20442Y14916
X23454Y12424
X26617Y10126
X29917Y8031
X33343Y6148
X36880Y4483
X40515Y3044
X44233Y1836
X48020Y864
X51860Y131
X55739Y-359
X59640Y-604
X63550Y-604
X67451Y-359
X71330Y131
X75170Y864
X78957Y1836
X82675Y3044
X86310Y4483
X89847Y6148
X93273Y8031
X96573Y10126
X99736Y12424
X102748Y14916
X105598Y17592
X108274Y20442
X110766Y23454
X113064Y26617
X115159Y29917
X117042Y33343
X118707Y36880
X120146Y40515
X122326Y48020
X121354Y44233
X123503Y53765
X123866Y57644
X122898Y51703
X122809Y59690
X120777Y60325
X120713Y58674
X121920Y59690
X71120Y66421
X69152Y54102
X71374Y52070
X74804Y63715
X74860Y59473
X70594Y52404
X63398Y48767
X59346Y48838
X55513Y50157
X52277Y52596
X49952Y55916
X48767Y59792
X48838Y63844
X50157Y67677
X52596Y70913
X55916Y73238
X59792Y74423
X63844Y74352
X67677Y73033
X70913Y70594
X73047Y67591
X67208Y50037
X73515Y55515
X74041Y59626
X72200Y60134
X73089Y59753
X71882Y59309
X83122Y52578
X84963Y51752
X87186Y67691
X84709Y48831
X81534Y49466
X87796Y59514
X86287Y67573
X85370Y71375
X83593Y74997
X81268Y78222
X78403Y81122
X75146Y83562
X-359Y67451
X71526Y85418
X67772Y86696
X63676Y87351
X59616Y87367
X55604Y86680
X51726Y85560
X48206Y83720
X44891Y81268
X42042Y78314
X39691Y75019
X37899Y71526
X36621Y67645
X35839Y63676
X35886Y59642
X36510Y55668
X37820Y51790
X39597Y48143
X41986Y44891
X44876Y42182
X48044Y39704
X51664Y37708
X55481Y36557
X59450Y35775
X63536Y35632
X67522Y36256
X71464Y37503
X75047Y39661
X78426Y41922
X81326Y44609
X83613Y47905
X85736Y51410
X86887Y55418
M30