G75*
%MOIN*%
%OFA0B0*%
%FSLAX25Y25*%
%IPPOS*%
%LPD*%
%AMOC8*
5,1,8,0,0,1.08239X$1,22.5*
%
%ADD10C,0.02800*%
%ADD11R,0.02375X0.03556*%
%ADD12R,0.03556X0.02375*%
%ADD13C,0.25800*%
%ADD14C,0.03300*%
D10*
X0163333Y0264400D03*
X0168333Y0264400D03*
X0173333Y0264400D03*
X0178333Y0264400D03*
X0183333Y0264400D03*
X0188333Y0264400D03*
X0273545Y0275940D03*
X0277080Y0279475D03*
X0280616Y0283011D03*
X0284151Y0286546D03*
X0287687Y0290082D03*
X0291222Y0293618D03*
X0303833Y0378900D03*
X0303833Y0383900D03*
X0303833Y0388900D03*
X0303833Y0393900D03*
X0303833Y0398900D03*
X0303833Y0403900D03*
X0291293Y0489111D03*
X0287758Y0492647D03*
X0284222Y0496182D03*
X0280687Y0499718D03*
X0277151Y0503254D03*
X0273616Y0506789D03*
X0188333Y0519400D03*
X0183333Y0519400D03*
X0178333Y0519400D03*
X0173333Y0519400D03*
X0168333Y0519400D03*
X0163333Y0519400D03*
X0078122Y0506860D03*
X0074586Y0503325D03*
X0071051Y0499789D03*
X0067515Y0496254D03*
X0063980Y0492718D03*
X0060444Y0489182D03*
X0047833Y0403900D03*
X0047833Y0398900D03*
X0047833Y0393900D03*
X0047833Y0388900D03*
X0047833Y0383900D03*
X0047833Y0378900D03*
X0060373Y0293689D03*
X0063909Y0290153D03*
X0067444Y0286618D03*
X0070980Y0283082D03*
X0074515Y0279546D03*
X0078051Y0276011D03*
D11*
X0039473Y0388054D03*
X0036323Y0388054D03*
X0033174Y0388054D03*
X0033174Y0394746D03*
X0036323Y0394746D03*
X0039473Y0394746D03*
X0312184Y0394746D03*
X0315333Y0394746D03*
X0318483Y0394746D03*
X0318483Y0388054D03*
X0315333Y0388054D03*
X0312184Y0388054D03*
D12*
G36*
X0147960Y0252713D02*
X0151437Y0251974D01*
X0150944Y0249653D01*
X0147467Y0250392D01*
X0147960Y0252713D01*
G37*
G36*
X0148615Y0255794D02*
X0152092Y0255055D01*
X0151599Y0252734D01*
X0148122Y0253473D01*
X0148615Y0255794D01*
G37*
G36*
X0149269Y0258875D02*
X0152746Y0258136D01*
X0152253Y0255815D01*
X0148776Y0256554D01*
X0149269Y0258875D01*
G37*
G36*
X0142723Y0260267D02*
X0146200Y0259528D01*
X0145707Y0257207D01*
X0142230Y0257946D01*
X0142723Y0260267D01*
G37*
G36*
X0142068Y0257186D02*
X0145545Y0256447D01*
X0145052Y0254126D01*
X0141575Y0254865D01*
X0142068Y0257186D01*
G37*
G36*
X0141413Y0254105D02*
X0144890Y0253366D01*
X0144397Y0251045D01*
X0140920Y0251784D01*
X0141413Y0254105D01*
G37*
G36*
X0134602Y0259384D02*
X0137983Y0258285D01*
X0137250Y0256028D01*
X0133869Y0257127D01*
X0134602Y0259384D01*
G37*
G36*
X0135575Y0262379D02*
X0138956Y0261280D01*
X0138223Y0259023D01*
X0134842Y0260122D01*
X0135575Y0262379D01*
G37*
G36*
X0129210Y0264448D02*
X0132591Y0263349D01*
X0131858Y0261092D01*
X0128477Y0262191D01*
X0129210Y0264448D01*
G37*
G36*
X0128237Y0261452D02*
X0131618Y0260353D01*
X0130885Y0258096D01*
X0127504Y0259195D01*
X0128237Y0261452D01*
G37*
G36*
X0127263Y0258457D02*
X0130644Y0257358D01*
X0129911Y0255101D01*
X0126530Y0256200D01*
X0127263Y0258457D01*
G37*
G36*
X0119728Y0261529D02*
X0122976Y0260083D01*
X0122010Y0257915D01*
X0118762Y0259361D01*
X0119728Y0261529D01*
G37*
G36*
X0121009Y0264406D02*
X0124257Y0262960D01*
X0123291Y0260792D01*
X0120043Y0262238D01*
X0121009Y0264406D01*
G37*
G36*
X0122291Y0267283D02*
X0125539Y0265837D01*
X0124573Y0263669D01*
X0121325Y0265115D01*
X0122291Y0267283D01*
G37*
G36*
X0116176Y0270005D02*
X0119424Y0268559D01*
X0118458Y0266391D01*
X0115210Y0267837D01*
X0116176Y0270005D01*
G37*
G36*
X0114895Y0267128D02*
X0118143Y0265682D01*
X0117177Y0263514D01*
X0113929Y0264960D01*
X0114895Y0267128D01*
G37*
G36*
X0113614Y0264251D02*
X0116862Y0262805D01*
X0115896Y0260637D01*
X0112648Y0262083D01*
X0113614Y0264251D01*
G37*
G36*
X0106451Y0268095D02*
X0109530Y0266317D01*
X0108343Y0264263D01*
X0105264Y0266041D01*
X0106451Y0268095D01*
G37*
G36*
X0108025Y0270823D02*
X0111104Y0269045D01*
X0109917Y0266991D01*
X0106838Y0268769D01*
X0108025Y0270823D01*
G37*
G36*
X0109600Y0273550D02*
X0112679Y0271772D01*
X0111492Y0269718D01*
X0108413Y0271496D01*
X0109600Y0273550D01*
G37*
G36*
X0103804Y0276897D02*
X0106883Y0275119D01*
X0105696Y0273065D01*
X0102617Y0274843D01*
X0103804Y0276897D01*
G37*
G36*
X0102229Y0274169D02*
X0105308Y0272391D01*
X0104121Y0270337D01*
X0101042Y0272115D01*
X0102229Y0274169D01*
G37*
G36*
X0100654Y0271442D02*
X0103733Y0269664D01*
X0102546Y0267610D01*
X0099467Y0269388D01*
X0100654Y0271442D01*
G37*
G36*
X0093949Y0276030D02*
X0096825Y0273941D01*
X0095429Y0272020D01*
X0092553Y0274109D01*
X0093949Y0276030D01*
G37*
G36*
X0095801Y0278578D02*
X0098677Y0276489D01*
X0097281Y0274568D01*
X0094405Y0276657D01*
X0095801Y0278578D01*
G37*
G36*
X0097652Y0281126D02*
X0100528Y0279037D01*
X0099132Y0277116D01*
X0096256Y0279205D01*
X0097652Y0281126D01*
G37*
G36*
X0092237Y0285060D02*
X0095113Y0282971D01*
X0093717Y0281050D01*
X0090841Y0283139D01*
X0092237Y0285060D01*
G37*
G36*
X0090386Y0282512D02*
X0093262Y0280423D01*
X0091866Y0278502D01*
X0088990Y0280591D01*
X0090386Y0282512D01*
G37*
G36*
X0088535Y0279964D02*
X0091411Y0277875D01*
X0090015Y0275954D01*
X0087139Y0278043D01*
X0088535Y0279964D01*
G37*
G36*
X0082316Y0285251D02*
X0084958Y0282873D01*
X0083370Y0281109D01*
X0080728Y0283487D01*
X0082316Y0285251D01*
G37*
G36*
X0084423Y0287592D02*
X0087065Y0285214D01*
X0085477Y0283450D01*
X0082835Y0285828D01*
X0084423Y0287592D01*
G37*
G36*
X0086531Y0289932D02*
X0089173Y0287554D01*
X0087585Y0285790D01*
X0084943Y0288168D01*
X0086531Y0289932D01*
G37*
G36*
X0081557Y0294411D02*
X0084199Y0292033D01*
X0082611Y0290269D01*
X0079969Y0292647D01*
X0081557Y0294411D01*
G37*
G36*
X0079449Y0292070D02*
X0082091Y0289692D01*
X0080503Y0287928D01*
X0077861Y0290306D01*
X0079449Y0292070D01*
G37*
G36*
X0077342Y0289730D02*
X0079984Y0287352D01*
X0078396Y0285588D01*
X0075754Y0287966D01*
X0077342Y0289730D01*
G37*
G36*
X0074106Y0297698D02*
X0076484Y0295056D01*
X0074720Y0293468D01*
X0072342Y0296110D01*
X0074106Y0297698D01*
G37*
G36*
X0076446Y0299806D02*
X0078824Y0297164D01*
X0077060Y0295576D01*
X0074682Y0298218D01*
X0076446Y0299806D01*
G37*
G36*
X0071968Y0304779D02*
X0074346Y0302137D01*
X0072582Y0300549D01*
X0070204Y0303191D01*
X0071968Y0304779D01*
G37*
G36*
X0069627Y0302672D02*
X0072005Y0300030D01*
X0070241Y0298442D01*
X0067863Y0301084D01*
X0069627Y0302672D01*
G37*
G36*
X0067286Y0300564D02*
X0069664Y0297922D01*
X0067900Y0296334D01*
X0065522Y0298976D01*
X0067286Y0300564D01*
G37*
G36*
X0062328Y0306977D02*
X0064417Y0304101D01*
X0062496Y0302705D01*
X0060407Y0305581D01*
X0062328Y0306977D01*
G37*
G36*
X0064876Y0308829D02*
X0066965Y0305953D01*
X0065044Y0304557D01*
X0062955Y0307433D01*
X0064876Y0308829D01*
G37*
G36*
X0067424Y0310680D02*
X0069513Y0307804D01*
X0067592Y0306408D01*
X0065503Y0309284D01*
X0067424Y0310680D01*
G37*
G36*
X0063490Y0316095D02*
X0065579Y0313219D01*
X0063658Y0311823D01*
X0061569Y0314699D01*
X0063490Y0316095D01*
G37*
G36*
X0060942Y0314243D02*
X0063031Y0311367D01*
X0061110Y0309971D01*
X0059021Y0312847D01*
X0060942Y0314243D01*
G37*
G36*
X0058394Y0312392D02*
X0060483Y0309516D01*
X0058562Y0308120D01*
X0056473Y0310996D01*
X0058394Y0312392D01*
G37*
G36*
X0054137Y0319320D02*
X0055915Y0316241D01*
X0053861Y0315054D01*
X0052083Y0318133D01*
X0054137Y0319320D01*
G37*
G36*
X0056865Y0320895D02*
X0058643Y0317816D01*
X0056589Y0316629D01*
X0054811Y0319708D01*
X0056865Y0320895D01*
G37*
G36*
X0059592Y0322470D02*
X0061370Y0319391D01*
X0059316Y0318204D01*
X0057538Y0321283D01*
X0059592Y0322470D01*
G37*
G36*
X0056246Y0328266D02*
X0058024Y0325187D01*
X0055970Y0324000D01*
X0054192Y0327079D01*
X0056246Y0328266D01*
G37*
G36*
X0053518Y0326691D02*
X0055296Y0323612D01*
X0053242Y0322425D01*
X0051464Y0325504D01*
X0053518Y0326691D01*
G37*
G36*
X0050790Y0325116D02*
X0052568Y0322037D01*
X0050514Y0320850D01*
X0048736Y0323929D01*
X0050790Y0325116D01*
G37*
G36*
X0047218Y0332409D02*
X0048664Y0329161D01*
X0046496Y0328195D01*
X0045050Y0331443D01*
X0047218Y0332409D01*
G37*
G36*
X0050095Y0333690D02*
X0051541Y0330442D01*
X0049373Y0329476D01*
X0047927Y0332724D01*
X0050095Y0333690D01*
G37*
G36*
X0052973Y0334971D02*
X0054419Y0331723D01*
X0052251Y0330757D01*
X0050805Y0334005D01*
X0052973Y0334971D01*
G37*
G36*
X0050251Y0341085D02*
X0051697Y0337837D01*
X0049529Y0336871D01*
X0048083Y0340119D01*
X0050251Y0341085D01*
G37*
G36*
X0047373Y0339804D02*
X0048819Y0336556D01*
X0046651Y0335590D01*
X0045205Y0338838D01*
X0047373Y0339804D01*
G37*
G36*
X0044496Y0338523D02*
X0045942Y0335275D01*
X0043774Y0334309D01*
X0042328Y0337557D01*
X0044496Y0338523D01*
G37*
G36*
X0041811Y0346191D02*
X0042910Y0342810D01*
X0040653Y0342077D01*
X0039554Y0345458D01*
X0041811Y0346191D01*
G37*
G36*
X0044806Y0347164D02*
X0045905Y0343783D01*
X0043648Y0343050D01*
X0042549Y0346431D01*
X0044806Y0347164D01*
G37*
G36*
X0047802Y0348138D02*
X0048901Y0344757D01*
X0046644Y0344024D01*
X0045545Y0347405D01*
X0047802Y0348138D01*
G37*
G36*
X0045734Y0354503D02*
X0046833Y0351122D01*
X0044576Y0350389D01*
X0043477Y0353770D01*
X0045734Y0354503D01*
G37*
G36*
X0042738Y0353530D02*
X0043837Y0350149D01*
X0041580Y0349416D01*
X0040481Y0352797D01*
X0042738Y0353530D01*
G37*
G36*
X0039743Y0352556D02*
X0040842Y0349175D01*
X0038585Y0348442D01*
X0037486Y0351823D01*
X0039743Y0352556D01*
G37*
G36*
X0037779Y0360457D02*
X0038518Y0356980D01*
X0036197Y0356487D01*
X0035458Y0359964D01*
X0037779Y0360457D01*
G37*
G36*
X0040860Y0361112D02*
X0041599Y0357635D01*
X0039278Y0357142D01*
X0038539Y0360619D01*
X0040860Y0361112D01*
G37*
G36*
X0043941Y0361767D02*
X0044680Y0358290D01*
X0042359Y0357797D01*
X0041620Y0361274D01*
X0043941Y0361767D01*
G37*
G36*
X0042549Y0368313D02*
X0043288Y0364836D01*
X0040967Y0364343D01*
X0040228Y0367820D01*
X0042549Y0368313D01*
G37*
G36*
X0039469Y0367658D02*
X0040208Y0364181D01*
X0037887Y0363688D01*
X0037148Y0367165D01*
X0039469Y0367658D01*
G37*
G36*
X0036388Y0367003D02*
X0037127Y0363526D01*
X0034806Y0363033D01*
X0034067Y0366510D01*
X0036388Y0367003D01*
G37*
G36*
X0035315Y0375055D02*
X0035687Y0371519D01*
X0033327Y0371271D01*
X0032955Y0374807D01*
X0035315Y0375055D01*
G37*
G36*
X0038447Y0375384D02*
X0038819Y0371848D01*
X0036459Y0371600D01*
X0036087Y0375136D01*
X0038447Y0375384D01*
G37*
G36*
X0041579Y0375713D02*
X0041951Y0372177D01*
X0039591Y0371929D01*
X0039219Y0375465D01*
X0041579Y0375713D01*
G37*
G36*
X0040880Y0382369D02*
X0041252Y0378833D01*
X0038892Y0378585D01*
X0038520Y0382121D01*
X0040880Y0382369D01*
G37*
G36*
X0037748Y0382040D02*
X0038120Y0378504D01*
X0035760Y0378256D01*
X0035388Y0381792D01*
X0037748Y0382040D01*
G37*
G36*
X0034615Y0381711D02*
X0034987Y0378175D01*
X0032627Y0377927D01*
X0032255Y0381463D01*
X0034615Y0381711D01*
G37*
G36*
X0038110Y0404306D02*
X0037738Y0400770D01*
X0035378Y0401018D01*
X0035750Y0404554D01*
X0038110Y0404306D01*
G37*
G36*
X0041242Y0403977D02*
X0040870Y0400441D01*
X0038510Y0400689D01*
X0038882Y0404225D01*
X0041242Y0403977D01*
G37*
G36*
X0041941Y0410633D02*
X0041569Y0407097D01*
X0039209Y0407345D01*
X0039581Y0410881D01*
X0041941Y0410633D01*
G37*
G36*
X0038809Y0410962D02*
X0038437Y0407426D01*
X0036077Y0407674D01*
X0036449Y0411210D01*
X0038809Y0410962D01*
G37*
G36*
X0035677Y0411291D02*
X0035305Y0407755D01*
X0032945Y0408003D01*
X0033317Y0411539D01*
X0035677Y0411291D01*
G37*
G36*
X0037157Y0419294D02*
X0036418Y0415817D01*
X0034097Y0416310D01*
X0034836Y0419787D01*
X0037157Y0419294D01*
G37*
G36*
X0040238Y0418639D02*
X0039499Y0415162D01*
X0037178Y0415655D01*
X0037917Y0419132D01*
X0040238Y0418639D01*
G37*
G36*
X0043318Y0417984D02*
X0042579Y0414507D01*
X0040258Y0415000D01*
X0040997Y0418477D01*
X0043318Y0417984D01*
G37*
G36*
X0044710Y0424530D02*
X0043971Y0421053D01*
X0041650Y0421546D01*
X0042389Y0425023D01*
X0044710Y0424530D01*
G37*
G36*
X0041629Y0425185D02*
X0040890Y0421708D01*
X0038569Y0422201D01*
X0039308Y0425678D01*
X0041629Y0425185D01*
G37*
G36*
X0038548Y0425840D02*
X0037809Y0422363D01*
X0035488Y0422856D01*
X0036227Y0426333D01*
X0038548Y0425840D01*
G37*
G36*
X0040832Y0433635D02*
X0039733Y0430254D01*
X0037476Y0430987D01*
X0038575Y0434368D01*
X0040832Y0433635D01*
G37*
G36*
X0043827Y0432661D02*
X0042728Y0429280D01*
X0040471Y0430013D01*
X0041570Y0433394D01*
X0043827Y0432661D01*
G37*
G36*
X0046823Y0431688D02*
X0045724Y0428307D01*
X0043467Y0429040D01*
X0044566Y0432421D01*
X0046823Y0431688D01*
G37*
G36*
X0048891Y0438053D02*
X0047792Y0434672D01*
X0045535Y0435405D01*
X0046634Y0438786D01*
X0048891Y0438053D01*
G37*
G36*
X0045895Y0439027D02*
X0044796Y0435646D01*
X0042539Y0436379D01*
X0043638Y0439760D01*
X0045895Y0439027D01*
G37*
G36*
X0042900Y0440000D02*
X0041801Y0436619D01*
X0039544Y0437352D01*
X0040643Y0440733D01*
X0042900Y0440000D01*
G37*
G36*
X0045942Y0447495D02*
X0044496Y0444247D01*
X0042328Y0445213D01*
X0043774Y0448461D01*
X0045942Y0447495D01*
G37*
G36*
X0048819Y0446214D02*
X0047373Y0442966D01*
X0045205Y0443932D01*
X0046651Y0447180D01*
X0048819Y0446214D01*
G37*
G36*
X0051697Y0444933D02*
X0050251Y0441685D01*
X0048083Y0442651D01*
X0049529Y0445899D01*
X0051697Y0444933D01*
G37*
G36*
X0054419Y0451047D02*
X0052973Y0447799D01*
X0050805Y0448765D01*
X0052251Y0452013D01*
X0054419Y0451047D01*
G37*
G36*
X0051541Y0452328D02*
X0050095Y0449080D01*
X0047927Y0450046D01*
X0049373Y0453294D01*
X0051541Y0452328D01*
G37*
G36*
X0048664Y0453609D02*
X0047218Y0450361D01*
X0045050Y0451327D01*
X0046496Y0454575D01*
X0048664Y0453609D01*
G37*
G36*
X0052548Y0460773D02*
X0050770Y0457694D01*
X0048716Y0458881D01*
X0050494Y0461960D01*
X0052548Y0460773D01*
G37*
G36*
X0055276Y0459198D02*
X0053498Y0456119D01*
X0051444Y0457306D01*
X0053222Y0460385D01*
X0055276Y0459198D01*
G37*
G36*
X0058004Y0457623D02*
X0056226Y0454544D01*
X0054172Y0455731D01*
X0055950Y0458810D01*
X0058004Y0457623D01*
G37*
G36*
X0061350Y0463419D02*
X0059572Y0460340D01*
X0057518Y0461527D01*
X0059296Y0464606D01*
X0061350Y0463419D01*
G37*
G36*
X0058623Y0464994D02*
X0056845Y0461915D01*
X0054791Y0463102D01*
X0056569Y0466181D01*
X0058623Y0464994D01*
G37*
G36*
X0055895Y0466569D02*
X0054117Y0463490D01*
X0052063Y0464677D01*
X0053841Y0467756D01*
X0055895Y0466569D01*
G37*
G36*
X0060483Y0473264D02*
X0058394Y0470388D01*
X0056473Y0471784D01*
X0058562Y0474660D01*
X0060483Y0473264D01*
G37*
G36*
X0063031Y0471413D02*
X0060942Y0468537D01*
X0059021Y0469933D01*
X0061110Y0472809D01*
X0063031Y0471413D01*
G37*
G36*
X0065579Y0469561D02*
X0063490Y0466685D01*
X0061569Y0468081D01*
X0063658Y0470957D01*
X0065579Y0469561D01*
G37*
G36*
X0069513Y0474976D02*
X0067424Y0472100D01*
X0065503Y0473496D01*
X0067592Y0476372D01*
X0069513Y0474976D01*
G37*
G36*
X0066965Y0476827D02*
X0064876Y0473951D01*
X0062955Y0475347D01*
X0065044Y0478223D01*
X0066965Y0476827D01*
G37*
G36*
X0064417Y0478679D02*
X0062328Y0475803D01*
X0060407Y0477199D01*
X0062496Y0480075D01*
X0064417Y0478679D01*
G37*
G36*
X0069674Y0484918D02*
X0067296Y0482276D01*
X0065532Y0483864D01*
X0067910Y0486506D01*
X0069674Y0484918D01*
G37*
G36*
X0072015Y0482810D02*
X0069637Y0480168D01*
X0067873Y0481756D01*
X0070251Y0484398D01*
X0072015Y0482810D01*
G37*
G36*
X0074356Y0480703D02*
X0071978Y0478061D01*
X0070214Y0479649D01*
X0072592Y0482291D01*
X0074356Y0480703D01*
G37*
G36*
X0078834Y0485676D02*
X0076456Y0483034D01*
X0074692Y0484622D01*
X0077070Y0487264D01*
X0078834Y0485676D01*
G37*
G36*
X0076494Y0487784D02*
X0074116Y0485142D01*
X0072352Y0486730D01*
X0074730Y0489372D01*
X0076494Y0487784D01*
G37*
G36*
X0074153Y0489891D02*
X0071775Y0487249D01*
X0070011Y0488837D01*
X0072389Y0491479D01*
X0074153Y0489891D01*
G37*
G36*
X0079984Y0495478D02*
X0077342Y0493100D01*
X0075754Y0494864D01*
X0078396Y0497242D01*
X0079984Y0495478D01*
G37*
G36*
X0082091Y0493138D02*
X0079449Y0490760D01*
X0077861Y0492524D01*
X0080503Y0494902D01*
X0082091Y0493138D01*
G37*
G36*
X0084199Y0490797D02*
X0081557Y0488419D01*
X0079969Y0490183D01*
X0082611Y0492561D01*
X0084199Y0490797D01*
G37*
G36*
X0089173Y0495276D02*
X0086531Y0492898D01*
X0084943Y0494662D01*
X0087585Y0497040D01*
X0089173Y0495276D01*
G37*
G36*
X0087065Y0497616D02*
X0084423Y0495238D01*
X0082835Y0497002D01*
X0085477Y0499380D01*
X0087065Y0497616D01*
G37*
G36*
X0084958Y0499957D02*
X0082316Y0497579D01*
X0080728Y0499343D01*
X0083370Y0501721D01*
X0084958Y0499957D01*
G37*
G36*
X0091401Y0504905D02*
X0088525Y0502816D01*
X0087129Y0504737D01*
X0090005Y0506826D01*
X0091401Y0504905D01*
G37*
G36*
X0093252Y0502357D02*
X0090376Y0500268D01*
X0088980Y0502189D01*
X0091856Y0504278D01*
X0093252Y0502357D01*
G37*
G36*
X0095103Y0499809D02*
X0092227Y0497720D01*
X0090831Y0499641D01*
X0093707Y0501730D01*
X0095103Y0499809D01*
G37*
G36*
X0100518Y0503743D02*
X0097642Y0501654D01*
X0096246Y0503575D01*
X0099122Y0505664D01*
X0100518Y0503743D01*
G37*
G36*
X0098667Y0506291D02*
X0095791Y0504202D01*
X0094395Y0506123D01*
X0097271Y0508212D01*
X0098667Y0506291D01*
G37*
G36*
X0096815Y0508839D02*
X0093939Y0506750D01*
X0092543Y0508671D01*
X0095419Y0510760D01*
X0096815Y0508839D01*
G37*
G36*
X0103753Y0513116D02*
X0100674Y0511338D01*
X0099487Y0513392D01*
X0102566Y0515170D01*
X0103753Y0513116D01*
G37*
G36*
X0105328Y0510389D02*
X0102249Y0508611D01*
X0101062Y0510665D01*
X0104141Y0512443D01*
X0105328Y0510389D01*
G37*
G36*
X0106903Y0507661D02*
X0103824Y0505883D01*
X0102637Y0507937D01*
X0105716Y0509715D01*
X0106903Y0507661D01*
G37*
G36*
X0112699Y0511008D02*
X0109620Y0509230D01*
X0108433Y0511284D01*
X0111512Y0513062D01*
X0112699Y0511008D01*
G37*
G36*
X0111124Y0513735D02*
X0108045Y0511957D01*
X0106858Y0514011D01*
X0109937Y0515789D01*
X0111124Y0513735D01*
G37*
G36*
X0109550Y0516463D02*
X0106471Y0514685D01*
X0105284Y0516739D01*
X0108363Y0518517D01*
X0109550Y0516463D01*
G37*
G36*
X0116832Y0520025D02*
X0113584Y0518579D01*
X0112618Y0520747D01*
X0115866Y0522193D01*
X0116832Y0520025D01*
G37*
G36*
X0118113Y0517148D02*
X0114865Y0515702D01*
X0113899Y0517870D01*
X0117147Y0519316D01*
X0118113Y0517148D01*
G37*
G36*
X0119394Y0514271D02*
X0116146Y0512825D01*
X0115180Y0514993D01*
X0118428Y0516439D01*
X0119394Y0514271D01*
G37*
G36*
X0125509Y0516993D02*
X0122261Y0515547D01*
X0121295Y0517715D01*
X0124543Y0519161D01*
X0125509Y0516993D01*
G37*
G36*
X0124227Y0519870D02*
X0120979Y0518424D01*
X0120013Y0520592D01*
X0123261Y0522038D01*
X0124227Y0519870D01*
G37*
G36*
X0122946Y0522747D02*
X0119698Y0521301D01*
X0118732Y0523469D01*
X0121980Y0524915D01*
X0122946Y0522747D01*
G37*
G36*
X0130644Y0525432D02*
X0127263Y0524333D01*
X0126530Y0526590D01*
X0129911Y0527689D01*
X0130644Y0525432D01*
G37*
G36*
X0131618Y0522437D02*
X0128237Y0521338D01*
X0127504Y0523595D01*
X0130885Y0524694D01*
X0131618Y0522437D01*
G37*
G36*
X0132591Y0519441D02*
X0129210Y0518342D01*
X0128477Y0520599D01*
X0131858Y0521698D01*
X0132591Y0519441D01*
G37*
G36*
X0138956Y0521510D02*
X0135575Y0520411D01*
X0134842Y0522668D01*
X0138223Y0523767D01*
X0138956Y0521510D01*
G37*
G36*
X0137983Y0524505D02*
X0134602Y0523406D01*
X0133869Y0525663D01*
X0137250Y0526762D01*
X0137983Y0524505D01*
G37*
G36*
X0137010Y0527501D02*
X0133629Y0526402D01*
X0132896Y0528659D01*
X0136277Y0529758D01*
X0137010Y0527501D01*
G37*
G36*
X0144880Y0529434D02*
X0141403Y0528695D01*
X0140910Y0531016D01*
X0144387Y0531755D01*
X0144880Y0529434D01*
G37*
G36*
X0145535Y0526353D02*
X0142058Y0525614D01*
X0141565Y0527935D01*
X0145042Y0528674D01*
X0145535Y0526353D01*
G37*
G36*
X0146190Y0523272D02*
X0142713Y0522533D01*
X0142220Y0524854D01*
X0145697Y0525593D01*
X0146190Y0523272D01*
G37*
G36*
X0152736Y0524664D02*
X0149259Y0523925D01*
X0148766Y0526246D01*
X0152243Y0526985D01*
X0152736Y0524664D01*
G37*
G36*
X0152082Y0527745D02*
X0148605Y0527006D01*
X0148112Y0529327D01*
X0151589Y0530066D01*
X0152082Y0527745D01*
G37*
G36*
X0151427Y0530826D02*
X0147950Y0530087D01*
X0147457Y0532408D01*
X0150934Y0533147D01*
X0151427Y0530826D01*
G37*
G36*
X0159478Y0531929D02*
X0155942Y0531557D01*
X0155694Y0533917D01*
X0159230Y0534289D01*
X0159478Y0531929D01*
G37*
G36*
X0159807Y0528796D02*
X0156271Y0528424D01*
X0156023Y0530784D01*
X0159559Y0531156D01*
X0159807Y0528796D01*
G37*
G36*
X0160136Y0525664D02*
X0156600Y0525292D01*
X0156352Y0527652D01*
X0159888Y0528024D01*
X0160136Y0525664D01*
G37*
G36*
X0166793Y0526363D02*
X0163257Y0525991D01*
X0163009Y0528351D01*
X0166545Y0528723D01*
X0166793Y0526363D01*
G37*
G36*
X0166463Y0529496D02*
X0162927Y0529124D01*
X0162679Y0531484D01*
X0166215Y0531856D01*
X0166463Y0529496D01*
G37*
G36*
X0166134Y0532628D02*
X0162598Y0532256D01*
X0162350Y0534616D01*
X0165886Y0534988D01*
X0166134Y0532628D01*
G37*
X0172467Y0534060D03*
X0172467Y0530910D03*
X0172467Y0527760D03*
X0179160Y0527760D03*
X0179160Y0530910D03*
X0179160Y0534060D03*
G36*
X0189068Y0532266D02*
X0185532Y0532638D01*
X0185780Y0534998D01*
X0189316Y0534626D01*
X0189068Y0532266D01*
G37*
G36*
X0188739Y0529134D02*
X0185203Y0529506D01*
X0185451Y0531866D01*
X0188987Y0531494D01*
X0188739Y0529134D01*
G37*
G36*
X0188410Y0526001D02*
X0184874Y0526373D01*
X0185122Y0528733D01*
X0188658Y0528361D01*
X0188410Y0526001D01*
G37*
G36*
X0195066Y0525302D02*
X0191530Y0525674D01*
X0191778Y0528034D01*
X0195314Y0527662D01*
X0195066Y0525302D01*
G37*
G36*
X0195395Y0528434D02*
X0191859Y0528806D01*
X0192107Y0531166D01*
X0195643Y0530794D01*
X0195395Y0528434D01*
G37*
G36*
X0195725Y0531567D02*
X0192189Y0531939D01*
X0192437Y0534299D01*
X0195973Y0533927D01*
X0195725Y0531567D01*
G37*
G36*
X0203717Y0530117D02*
X0200240Y0530856D01*
X0200733Y0533177D01*
X0204210Y0532438D01*
X0203717Y0530117D01*
G37*
G36*
X0203062Y0527036D02*
X0199585Y0527775D01*
X0200078Y0530096D01*
X0203555Y0529357D01*
X0203062Y0527036D01*
G37*
G36*
X0202407Y0523955D02*
X0198930Y0524694D01*
X0199423Y0527015D01*
X0202900Y0526276D01*
X0202407Y0523955D01*
G37*
G36*
X0208954Y0522563D02*
X0205477Y0523302D01*
X0205970Y0525623D01*
X0209447Y0524884D01*
X0208954Y0522563D01*
G37*
G36*
X0209609Y0525644D02*
X0206132Y0526383D01*
X0206625Y0528704D01*
X0210102Y0527965D01*
X0209609Y0525644D01*
G37*
G36*
X0210263Y0528725D02*
X0206786Y0529464D01*
X0207279Y0531785D01*
X0210756Y0531046D01*
X0210263Y0528725D01*
G37*
G36*
X0218068Y0526412D02*
X0214687Y0527511D01*
X0215420Y0529768D01*
X0218801Y0528669D01*
X0218068Y0526412D01*
G37*
G36*
X0217095Y0523416D02*
X0213714Y0524515D01*
X0214447Y0526772D01*
X0217828Y0525673D01*
X0217095Y0523416D01*
G37*
G36*
X0216121Y0520421D02*
X0212740Y0521520D01*
X0213473Y0523777D01*
X0216854Y0522678D01*
X0216121Y0520421D01*
G37*
G36*
X0222487Y0518352D02*
X0219106Y0519451D01*
X0219839Y0521708D01*
X0223220Y0520609D01*
X0222487Y0518352D01*
G37*
G36*
X0223460Y0521348D02*
X0220079Y0522447D01*
X0220812Y0524704D01*
X0224193Y0523605D01*
X0223460Y0521348D01*
G37*
G36*
X0224433Y0524343D02*
X0221052Y0525442D01*
X0221785Y0527699D01*
X0225166Y0526600D01*
X0224433Y0524343D01*
G37*
G36*
X0231948Y0521271D02*
X0228700Y0522717D01*
X0229666Y0524885D01*
X0232914Y0523439D01*
X0231948Y0521271D01*
G37*
G36*
X0230667Y0518394D02*
X0227419Y0519840D01*
X0228385Y0522008D01*
X0231633Y0520562D01*
X0230667Y0518394D01*
G37*
G36*
X0229386Y0515517D02*
X0226138Y0516963D01*
X0227104Y0519131D01*
X0230352Y0517685D01*
X0229386Y0515517D01*
G37*
G36*
X0235500Y0512795D02*
X0232252Y0514241D01*
X0233218Y0516409D01*
X0236466Y0514963D01*
X0235500Y0512795D01*
G37*
G36*
X0236781Y0515672D02*
X0233533Y0517118D01*
X0234499Y0519286D01*
X0237747Y0517840D01*
X0236781Y0515672D01*
G37*
G36*
X0238063Y0518549D02*
X0234815Y0519995D01*
X0235781Y0522163D01*
X0239029Y0520717D01*
X0238063Y0518549D01*
G37*
G36*
X0245216Y0514665D02*
X0242137Y0516443D01*
X0243324Y0518497D01*
X0246403Y0516719D01*
X0245216Y0514665D01*
G37*
G36*
X0243641Y0511937D02*
X0240562Y0513715D01*
X0241749Y0515769D01*
X0244828Y0513991D01*
X0243641Y0511937D01*
G37*
G36*
X0242066Y0509210D02*
X0238987Y0510988D01*
X0240174Y0513042D01*
X0243253Y0511264D01*
X0242066Y0509210D01*
G37*
G36*
X0247863Y0505863D02*
X0244784Y0507641D01*
X0245971Y0509695D01*
X0249050Y0507917D01*
X0247863Y0505863D01*
G37*
G36*
X0249437Y0508591D02*
X0246358Y0510369D01*
X0247545Y0512423D01*
X0250624Y0510645D01*
X0249437Y0508591D01*
G37*
G36*
X0251012Y0511318D02*
X0247933Y0513096D01*
X0249120Y0515150D01*
X0252199Y0513372D01*
X0251012Y0511318D01*
G37*
G36*
X0257707Y0506770D02*
X0254831Y0508859D01*
X0256227Y0510780D01*
X0259103Y0508691D01*
X0257707Y0506770D01*
G37*
G36*
X0255856Y0504222D02*
X0252980Y0506311D01*
X0254376Y0508232D01*
X0257252Y0506143D01*
X0255856Y0504222D01*
G37*
G36*
X0254005Y0501674D02*
X0251129Y0503763D01*
X0252525Y0505684D01*
X0255401Y0503595D01*
X0254005Y0501674D01*
G37*
G36*
X0259419Y0497740D02*
X0256543Y0499829D01*
X0257939Y0501750D01*
X0260815Y0499661D01*
X0259419Y0497740D01*
G37*
G36*
X0261271Y0500288D02*
X0258395Y0502377D01*
X0259791Y0504298D01*
X0262667Y0502209D01*
X0261271Y0500288D01*
G37*
G36*
X0263122Y0502836D02*
X0260246Y0504925D01*
X0261642Y0506846D01*
X0264518Y0504757D01*
X0263122Y0502836D01*
G37*
G36*
X0269321Y0497549D02*
X0266679Y0499927D01*
X0268267Y0501691D01*
X0270909Y0499313D01*
X0269321Y0497549D01*
G37*
G36*
X0267213Y0495208D02*
X0264571Y0497586D01*
X0266159Y0499350D01*
X0268801Y0496972D01*
X0267213Y0495208D01*
G37*
G36*
X0265106Y0492868D02*
X0262464Y0495246D01*
X0264052Y0497010D01*
X0266694Y0494632D01*
X0265106Y0492868D01*
G37*
G36*
X0270080Y0488389D02*
X0267438Y0490767D01*
X0269026Y0492531D01*
X0271668Y0490153D01*
X0270080Y0488389D01*
G37*
G36*
X0272187Y0490730D02*
X0269545Y0493108D01*
X0271133Y0494872D01*
X0273775Y0492494D01*
X0272187Y0490730D01*
G37*
G36*
X0274295Y0493070D02*
X0271653Y0495448D01*
X0273241Y0497212D01*
X0275883Y0494834D01*
X0274295Y0493070D01*
G37*
G36*
X0279892Y0487239D02*
X0277514Y0489881D01*
X0279278Y0491469D01*
X0281656Y0488827D01*
X0279892Y0487239D01*
G37*
G36*
X0277551Y0485132D02*
X0275173Y0487774D01*
X0276937Y0489362D01*
X0279315Y0486720D01*
X0277551Y0485132D01*
G37*
G36*
X0275210Y0483024D02*
X0272832Y0485666D01*
X0274596Y0487254D01*
X0276974Y0484612D01*
X0275210Y0483024D01*
G37*
G36*
X0279689Y0478051D02*
X0277311Y0480693D01*
X0279075Y0482281D01*
X0281453Y0479639D01*
X0279689Y0478051D01*
G37*
G36*
X0282030Y0480158D02*
X0279652Y0482800D01*
X0281416Y0484388D01*
X0283794Y0481746D01*
X0282030Y0480158D01*
G37*
G36*
X0284370Y0482266D02*
X0281992Y0484908D01*
X0283756Y0486496D01*
X0286134Y0483854D01*
X0284370Y0482266D01*
G37*
G36*
X0289368Y0475803D02*
X0287279Y0478679D01*
X0289200Y0480075D01*
X0291289Y0477199D01*
X0289368Y0475803D01*
G37*
G36*
X0286820Y0473951D02*
X0284731Y0476827D01*
X0286652Y0478223D01*
X0288741Y0475347D01*
X0286820Y0473951D01*
G37*
G36*
X0284272Y0472100D02*
X0282183Y0474976D01*
X0284104Y0476372D01*
X0286193Y0473496D01*
X0284272Y0472100D01*
G37*
G36*
X0288206Y0466685D02*
X0286117Y0469561D01*
X0288038Y0470957D01*
X0290127Y0468081D01*
X0288206Y0466685D01*
G37*
G36*
X0290754Y0468537D02*
X0288665Y0471413D01*
X0290586Y0472809D01*
X0292675Y0469933D01*
X0290754Y0468537D01*
G37*
G36*
X0293302Y0470388D02*
X0291213Y0473264D01*
X0293134Y0474660D01*
X0295223Y0471784D01*
X0293302Y0470388D01*
G37*
G36*
X0297550Y0463500D02*
X0295772Y0466579D01*
X0297826Y0467766D01*
X0299604Y0464687D01*
X0297550Y0463500D01*
G37*
G36*
X0294822Y0461925D02*
X0293044Y0465004D01*
X0295098Y0466191D01*
X0296876Y0463112D01*
X0294822Y0461925D01*
G37*
G36*
X0292094Y0460350D02*
X0290316Y0463429D01*
X0292370Y0464616D01*
X0294148Y0461537D01*
X0292094Y0460350D01*
G37*
G36*
X0295441Y0454554D02*
X0293663Y0457633D01*
X0295717Y0458820D01*
X0297495Y0455741D01*
X0295441Y0454554D01*
G37*
G36*
X0298169Y0456129D02*
X0296391Y0459208D01*
X0298445Y0460395D01*
X0300223Y0457316D01*
X0298169Y0456129D01*
G37*
G36*
X0300896Y0457704D02*
X0299118Y0460783D01*
X0301172Y0461970D01*
X0302950Y0458891D01*
X0300896Y0457704D01*
G37*
G36*
X0304429Y0450371D02*
X0302983Y0453619D01*
X0305151Y0454585D01*
X0306597Y0451337D01*
X0304429Y0450371D01*
G37*
G36*
X0301551Y0449090D02*
X0300105Y0452338D01*
X0302273Y0453304D01*
X0303719Y0450056D01*
X0301551Y0449090D01*
G37*
G36*
X0298674Y0447809D02*
X0297228Y0451057D01*
X0299396Y0452023D01*
X0300842Y0448775D01*
X0298674Y0447809D01*
G37*
G36*
X0301396Y0441695D02*
X0299950Y0444943D01*
X0302118Y0445909D01*
X0303564Y0442661D01*
X0301396Y0441695D01*
G37*
G36*
X0304273Y0442976D02*
X0302827Y0446224D01*
X0304995Y0447190D01*
X0306441Y0443942D01*
X0304273Y0442976D01*
G37*
G36*
X0307151Y0444257D02*
X0305705Y0447505D01*
X0307873Y0448471D01*
X0309319Y0445223D01*
X0307151Y0444257D01*
G37*
G36*
X0309886Y0436579D02*
X0308787Y0439960D01*
X0311044Y0440693D01*
X0312143Y0437312D01*
X0309886Y0436579D01*
G37*
G36*
X0306890Y0435606D02*
X0305791Y0438987D01*
X0308048Y0439720D01*
X0309147Y0436339D01*
X0306890Y0435606D01*
G37*
G36*
X0303895Y0434632D02*
X0302796Y0438013D01*
X0305053Y0438746D01*
X0306152Y0435365D01*
X0303895Y0434632D01*
G37*
G36*
X0305963Y0428267D02*
X0304864Y0431648D01*
X0307121Y0432381D01*
X0308220Y0429000D01*
X0305963Y0428267D01*
G37*
G36*
X0308958Y0429240D02*
X0307859Y0432621D01*
X0310116Y0433354D01*
X0311215Y0429973D01*
X0308958Y0429240D01*
G37*
G36*
X0311954Y0430214D02*
X0310855Y0433595D01*
X0313112Y0434328D01*
X0314211Y0430947D01*
X0311954Y0430214D01*
G37*
G36*
X0313897Y0422343D02*
X0313158Y0425820D01*
X0315479Y0426313D01*
X0316218Y0422836D01*
X0313897Y0422343D01*
G37*
G36*
X0310817Y0421688D02*
X0310078Y0425165D01*
X0312399Y0425658D01*
X0313138Y0422181D01*
X0310817Y0421688D01*
G37*
G36*
X0307736Y0421033D02*
X0306997Y0424510D01*
X0309318Y0425003D01*
X0310057Y0421526D01*
X0307736Y0421033D01*
G37*
G36*
X0309127Y0414487D02*
X0308388Y0417964D01*
X0310709Y0418457D01*
X0311448Y0414980D01*
X0309127Y0414487D01*
G37*
G36*
X0312208Y0415142D02*
X0311469Y0418619D01*
X0313790Y0419112D01*
X0314529Y0415635D01*
X0312208Y0415142D01*
G37*
G36*
X0315289Y0415797D02*
X0314550Y0419274D01*
X0316871Y0419767D01*
X0317610Y0416290D01*
X0315289Y0415797D01*
G37*
G36*
X0316352Y0407775D02*
X0315980Y0411311D01*
X0318340Y0411559D01*
X0318712Y0408023D01*
X0316352Y0407775D01*
G37*
G36*
X0313220Y0407446D02*
X0312848Y0410982D01*
X0315208Y0411230D01*
X0315580Y0407694D01*
X0313220Y0407446D01*
G37*
G36*
X0310087Y0407117D02*
X0309715Y0410653D01*
X0312075Y0410901D01*
X0312447Y0407365D01*
X0310087Y0407117D01*
G37*
G36*
X0310787Y0400461D02*
X0310415Y0403997D01*
X0312775Y0404245D01*
X0313147Y0400709D01*
X0310787Y0400461D01*
G37*
G36*
X0313919Y0400790D02*
X0313547Y0404326D01*
X0315907Y0404574D01*
X0316279Y0401038D01*
X0313919Y0400790D01*
G37*
G36*
X0317051Y0401119D02*
X0316679Y0404655D01*
X0319039Y0404903D01*
X0319411Y0401367D01*
X0317051Y0401119D01*
G37*
G36*
X0313577Y0378474D02*
X0313949Y0382010D01*
X0316309Y0381762D01*
X0315937Y0378226D01*
X0313577Y0378474D01*
G37*
G36*
X0310445Y0378803D02*
X0310817Y0382339D01*
X0313177Y0382091D01*
X0312805Y0378555D01*
X0310445Y0378803D01*
G37*
G36*
X0309745Y0372147D02*
X0310117Y0375683D01*
X0312477Y0375435D01*
X0312105Y0371899D01*
X0309745Y0372147D01*
G37*
G36*
X0312878Y0371818D02*
X0313250Y0375354D01*
X0315610Y0375106D01*
X0315238Y0371570D01*
X0312878Y0371818D01*
G37*
G36*
X0316010Y0371489D02*
X0316382Y0375025D01*
X0318742Y0374777D01*
X0318370Y0371241D01*
X0316010Y0371489D01*
G37*
G36*
X0314540Y0363536D02*
X0315279Y0367013D01*
X0317600Y0366520D01*
X0316861Y0363043D01*
X0314540Y0363536D01*
G37*
G36*
X0311459Y0364191D02*
X0312198Y0367668D01*
X0314519Y0367175D01*
X0313780Y0363698D01*
X0311459Y0364191D01*
G37*
G36*
X0308378Y0364846D02*
X0309117Y0368323D01*
X0311438Y0367830D01*
X0310699Y0364353D01*
X0308378Y0364846D01*
G37*
G36*
X0306987Y0358300D02*
X0307726Y0361777D01*
X0310047Y0361284D01*
X0309308Y0357807D01*
X0306987Y0358300D01*
G37*
G36*
X0310068Y0357645D02*
X0310807Y0361122D01*
X0313128Y0360629D01*
X0312389Y0357152D01*
X0310068Y0357645D01*
G37*
G36*
X0313148Y0356990D02*
X0313887Y0360467D01*
X0316208Y0359974D01*
X0315469Y0356497D01*
X0313148Y0356990D01*
G37*
G36*
X0310835Y0349175D02*
X0311934Y0352556D01*
X0314191Y0351823D01*
X0313092Y0348442D01*
X0310835Y0349175D01*
G37*
G36*
X0307839Y0350149D02*
X0308938Y0353530D01*
X0311195Y0352797D01*
X0310096Y0349416D01*
X0307839Y0350149D01*
G37*
G36*
X0304844Y0351122D02*
X0305943Y0354503D01*
X0308200Y0353770D01*
X0307101Y0350389D01*
X0304844Y0351122D01*
G37*
G36*
X0302776Y0344757D02*
X0303875Y0348138D01*
X0306132Y0347405D01*
X0305033Y0344024D01*
X0302776Y0344757D01*
G37*
G36*
X0305771Y0343783D02*
X0306870Y0347164D01*
X0309127Y0346431D01*
X0308028Y0343050D01*
X0305771Y0343783D01*
G37*
G36*
X0308767Y0342810D02*
X0309866Y0346191D01*
X0312123Y0345458D01*
X0311024Y0342077D01*
X0308767Y0342810D01*
G37*
G36*
X0305695Y0335305D02*
X0307141Y0338553D01*
X0309309Y0337587D01*
X0307863Y0334339D01*
X0305695Y0335305D01*
G37*
G36*
X0302817Y0336586D02*
X0304263Y0339834D01*
X0306431Y0338868D01*
X0304985Y0335620D01*
X0302817Y0336586D01*
G37*
G36*
X0299940Y0337867D02*
X0301386Y0341115D01*
X0303554Y0340149D01*
X0302108Y0336901D01*
X0299940Y0337867D01*
G37*
G36*
X0297218Y0331753D02*
X0298664Y0335001D01*
X0300832Y0334035D01*
X0299386Y0330787D01*
X0297218Y0331753D01*
G37*
G36*
X0300095Y0330472D02*
X0301541Y0333720D01*
X0303709Y0332754D01*
X0302263Y0329506D01*
X0300095Y0330472D01*
G37*
G36*
X0302973Y0329191D02*
X0304419Y0332439D01*
X0306587Y0331473D01*
X0305141Y0328225D01*
X0302973Y0329191D01*
G37*
G36*
X0299118Y0322017D02*
X0300896Y0325096D01*
X0302950Y0323909D01*
X0301172Y0320830D01*
X0299118Y0322017D01*
G37*
G36*
X0296391Y0323592D02*
X0298169Y0326671D01*
X0300223Y0325484D01*
X0298445Y0322405D01*
X0296391Y0323592D01*
G37*
G36*
X0293663Y0325167D02*
X0295441Y0328246D01*
X0297495Y0327059D01*
X0295717Y0323980D01*
X0293663Y0325167D01*
G37*
G36*
X0290316Y0319371D02*
X0292094Y0322450D01*
X0294148Y0321263D01*
X0292370Y0318184D01*
X0290316Y0319371D01*
G37*
G36*
X0293044Y0317796D02*
X0294822Y0320875D01*
X0296876Y0319688D01*
X0295098Y0316609D01*
X0293044Y0317796D01*
G37*
G36*
X0295772Y0316221D02*
X0297550Y0319300D01*
X0299604Y0318113D01*
X0297826Y0315034D01*
X0295772Y0316221D01*
G37*
G36*
X0291203Y0309526D02*
X0293292Y0312402D01*
X0295213Y0311006D01*
X0293124Y0308130D01*
X0291203Y0309526D01*
G37*
G36*
X0288655Y0311377D02*
X0290744Y0314253D01*
X0292665Y0312857D01*
X0290576Y0309981D01*
X0288655Y0311377D01*
G37*
G36*
X0286107Y0313229D02*
X0288196Y0316105D01*
X0290117Y0314709D01*
X0288028Y0311833D01*
X0286107Y0313229D01*
G37*
G36*
X0282173Y0307814D02*
X0284262Y0310690D01*
X0286183Y0309294D01*
X0284094Y0306418D01*
X0282173Y0307814D01*
G37*
G36*
X0284721Y0305963D02*
X0286810Y0308839D01*
X0288731Y0307443D01*
X0286642Y0304567D01*
X0284721Y0305963D01*
G37*
G36*
X0287269Y0304111D02*
X0289358Y0306987D01*
X0291279Y0305591D01*
X0289190Y0302715D01*
X0287269Y0304111D01*
G37*
G36*
X0281972Y0297922D02*
X0284350Y0300564D01*
X0286114Y0298976D01*
X0283736Y0296334D01*
X0281972Y0297922D01*
G37*
G36*
X0279632Y0300030D02*
X0282010Y0302672D01*
X0283774Y0301084D01*
X0281396Y0298442D01*
X0279632Y0300030D01*
G37*
G36*
X0277291Y0302137D02*
X0279669Y0304779D01*
X0281433Y0303191D01*
X0279055Y0300549D01*
X0277291Y0302137D01*
G37*
G36*
X0272812Y0297164D02*
X0275190Y0299806D01*
X0276954Y0298218D01*
X0274576Y0295576D01*
X0272812Y0297164D01*
G37*
G36*
X0275153Y0295056D02*
X0277531Y0297698D01*
X0279295Y0296110D01*
X0276917Y0293468D01*
X0275153Y0295056D01*
G37*
G36*
X0277494Y0292949D02*
X0279872Y0295591D01*
X0281636Y0294003D01*
X0279258Y0291361D01*
X0277494Y0292949D01*
G37*
G36*
X0271643Y0287342D02*
X0274285Y0289720D01*
X0275873Y0287956D01*
X0273231Y0285578D01*
X0271643Y0287342D01*
G37*
G36*
X0269535Y0289682D02*
X0272177Y0292060D01*
X0273765Y0290296D01*
X0271123Y0287918D01*
X0269535Y0289682D01*
G37*
G36*
X0267428Y0292023D02*
X0270070Y0294401D01*
X0271658Y0292637D01*
X0269016Y0290259D01*
X0267428Y0292023D01*
G37*
G36*
X0262454Y0287544D02*
X0265096Y0289922D01*
X0266684Y0288158D01*
X0264042Y0285780D01*
X0262454Y0287544D01*
G37*
G36*
X0264561Y0285204D02*
X0267203Y0287582D01*
X0268791Y0285818D01*
X0266149Y0283440D01*
X0264561Y0285204D01*
G37*
G36*
X0266669Y0282863D02*
X0269311Y0285241D01*
X0270899Y0283477D01*
X0268257Y0281099D01*
X0266669Y0282863D01*
G37*
G36*
X0260276Y0277875D02*
X0263152Y0279964D01*
X0264548Y0278043D01*
X0261672Y0275954D01*
X0260276Y0277875D01*
G37*
G36*
X0258425Y0280423D02*
X0261301Y0282512D01*
X0262697Y0280591D01*
X0259821Y0278502D01*
X0258425Y0280423D01*
G37*
G36*
X0256573Y0282971D02*
X0259449Y0285060D01*
X0260845Y0283139D01*
X0257969Y0281050D01*
X0256573Y0282971D01*
G37*
G36*
X0251159Y0279037D02*
X0254035Y0281126D01*
X0255431Y0279205D01*
X0252555Y0277116D01*
X0251159Y0279037D01*
G37*
G36*
X0253010Y0276489D02*
X0255886Y0278578D01*
X0257282Y0276657D01*
X0254406Y0274568D01*
X0253010Y0276489D01*
G37*
G36*
X0254861Y0273941D02*
X0257737Y0276030D01*
X0259133Y0274109D01*
X0256257Y0272020D01*
X0254861Y0273941D01*
G37*
G36*
X0247923Y0269684D02*
X0251002Y0271462D01*
X0252189Y0269408D01*
X0249110Y0267630D01*
X0247923Y0269684D01*
G37*
G36*
X0246348Y0272411D02*
X0249427Y0274189D01*
X0250614Y0272135D01*
X0247535Y0270357D01*
X0246348Y0272411D01*
G37*
G36*
X0244774Y0275139D02*
X0247853Y0276917D01*
X0249040Y0274863D01*
X0245961Y0273085D01*
X0244774Y0275139D01*
G37*
G36*
X0238977Y0271792D02*
X0242056Y0273570D01*
X0243243Y0271516D01*
X0240164Y0269738D01*
X0238977Y0271792D01*
G37*
G36*
X0240552Y0269065D02*
X0243631Y0270843D01*
X0244818Y0268789D01*
X0241739Y0267011D01*
X0240552Y0269065D01*
G37*
G36*
X0242127Y0266337D02*
X0245206Y0268115D01*
X0246393Y0266061D01*
X0243314Y0264283D01*
X0242127Y0266337D01*
G37*
G36*
X0234835Y0262805D02*
X0238083Y0264251D01*
X0239049Y0262083D01*
X0235801Y0260637D01*
X0234835Y0262805D01*
G37*
G36*
X0233553Y0265682D02*
X0236801Y0267128D01*
X0237767Y0264960D01*
X0234519Y0263514D01*
X0233553Y0265682D01*
G37*
G36*
X0232272Y0268559D02*
X0235520Y0270005D01*
X0236486Y0267837D01*
X0233238Y0266391D01*
X0232272Y0268559D01*
G37*
G36*
X0226158Y0265837D02*
X0229406Y0267283D01*
X0230372Y0265115D01*
X0227124Y0263669D01*
X0226158Y0265837D01*
G37*
G36*
X0227439Y0262960D02*
X0230687Y0264406D01*
X0231653Y0262238D01*
X0228405Y0260792D01*
X0227439Y0262960D01*
G37*
G36*
X0228720Y0260083D02*
X0231968Y0261529D01*
X0232934Y0259361D01*
X0229686Y0257915D01*
X0228720Y0260083D01*
G37*
G36*
X0221012Y0257368D02*
X0224393Y0258467D01*
X0225126Y0256210D01*
X0221745Y0255111D01*
X0221012Y0257368D01*
G37*
G36*
X0220039Y0260363D02*
X0223420Y0261462D01*
X0224153Y0259205D01*
X0220772Y0258106D01*
X0220039Y0260363D01*
G37*
G36*
X0219066Y0263359D02*
X0222447Y0264458D01*
X0223180Y0262201D01*
X0219799Y0261102D01*
X0219066Y0263359D01*
G37*
G36*
X0212700Y0261290D02*
X0216081Y0262389D01*
X0216814Y0260132D01*
X0213433Y0259033D01*
X0212700Y0261290D01*
G37*
G36*
X0213674Y0258295D02*
X0217055Y0259394D01*
X0217788Y0257137D01*
X0214407Y0256038D01*
X0213674Y0258295D01*
G37*
G36*
X0214647Y0255299D02*
X0218028Y0256398D01*
X0218761Y0254141D01*
X0215380Y0253042D01*
X0214647Y0255299D01*
G37*
G36*
X0206756Y0253336D02*
X0210233Y0254075D01*
X0210726Y0251754D01*
X0207249Y0251015D01*
X0206756Y0253336D01*
G37*
G36*
X0206102Y0256417D02*
X0209579Y0257156D01*
X0210072Y0254835D01*
X0206595Y0254096D01*
X0206102Y0256417D01*
G37*
G36*
X0205447Y0259498D02*
X0208924Y0260237D01*
X0209417Y0257916D01*
X0205940Y0257177D01*
X0205447Y0259498D01*
G37*
G36*
X0198900Y0258106D02*
X0202377Y0258845D01*
X0202870Y0256524D01*
X0199393Y0255785D01*
X0198900Y0258106D01*
G37*
G36*
X0199555Y0255025D02*
X0203032Y0255764D01*
X0203525Y0253443D01*
X0200048Y0252704D01*
X0199555Y0255025D01*
G37*
G36*
X0200210Y0251944D02*
X0203687Y0252683D01*
X0204180Y0250362D01*
X0200703Y0249623D01*
X0200210Y0251944D01*
G37*
G36*
X0192209Y0250851D02*
X0195745Y0251223D01*
X0195993Y0248863D01*
X0192457Y0248491D01*
X0192209Y0250851D01*
G37*
G36*
X0191879Y0253984D02*
X0195415Y0254356D01*
X0195663Y0251996D01*
X0192127Y0251624D01*
X0191879Y0253984D01*
G37*
G36*
X0191550Y0257116D02*
X0195086Y0257488D01*
X0195334Y0255128D01*
X0191798Y0254756D01*
X0191550Y0257116D01*
G37*
G36*
X0184894Y0256417D02*
X0188430Y0256789D01*
X0188678Y0254429D01*
X0185142Y0254057D01*
X0184894Y0256417D01*
G37*
G36*
X0185223Y0253284D02*
X0188759Y0253656D01*
X0189007Y0251296D01*
X0185471Y0250924D01*
X0185223Y0253284D01*
G37*
G36*
X0185552Y0250152D02*
X0189088Y0250524D01*
X0189336Y0248164D01*
X0185800Y0247792D01*
X0185552Y0250152D01*
G37*
X0179180Y0248760D03*
X0179180Y0251910D03*
X0179180Y0255060D03*
X0172487Y0255060D03*
X0172487Y0251910D03*
X0172487Y0248760D03*
G36*
X0162568Y0250514D02*
X0166104Y0250142D01*
X0165856Y0247782D01*
X0162320Y0248154D01*
X0162568Y0250514D01*
G37*
G36*
X0162897Y0253646D02*
X0166433Y0253274D01*
X0166185Y0250914D01*
X0162649Y0251286D01*
X0162897Y0253646D01*
G37*
G36*
X0163227Y0256779D02*
X0166763Y0256407D01*
X0166515Y0254047D01*
X0162979Y0254419D01*
X0163227Y0256779D01*
G37*
G36*
X0156570Y0257478D02*
X0160106Y0257106D01*
X0159858Y0254746D01*
X0156322Y0255118D01*
X0156570Y0257478D01*
G37*
G36*
X0156241Y0254346D02*
X0159777Y0253974D01*
X0159529Y0251614D01*
X0155993Y0251986D01*
X0156241Y0254346D01*
G37*
G36*
X0155912Y0251213D02*
X0159448Y0250841D01*
X0159200Y0248481D01*
X0155664Y0248853D01*
X0155912Y0251213D01*
G37*
G36*
X0133629Y0256388D02*
X0137010Y0255289D01*
X0136277Y0253032D01*
X0132896Y0254131D01*
X0133629Y0256388D01*
G37*
G36*
X0071765Y0295591D02*
X0074143Y0292949D01*
X0072379Y0291361D01*
X0070001Y0294003D01*
X0071765Y0295591D01*
G37*
G36*
X0034977Y0404635D02*
X0034605Y0401099D01*
X0032245Y0401347D01*
X0032617Y0404883D01*
X0034977Y0404635D01*
G37*
G36*
X0316709Y0378145D02*
X0317081Y0381681D01*
X0319441Y0381433D01*
X0319069Y0377897D01*
X0316709Y0378145D01*
G37*
D13*
X0290833Y0391400D03*
X0290833Y0506400D03*
X0175833Y0506400D03*
X0060833Y0506400D03*
X0060833Y0391400D03*
X0060833Y0276400D03*
X0175833Y0276400D03*
X0290833Y0276400D03*
D14*
X0292833Y0491900D03*
X0058833Y0290900D03*
M02*
