G75*
%MOIN*%
%OFA0B0*%
%FSLAX25Y25*%
%IPPOS*%
%LPD*%
%AMOC8*
5,1,8,0,0,1.08239X$1,22.5*
%
%ADD10C,0.00800*%
%ADD11C,0.00787*%
%ADD12C,0.00500*%
D10*
X0046833Y0391400D02*
X0046872Y0394566D01*
X0046988Y0397730D01*
X0047183Y0400890D01*
X0047454Y0404044D01*
X0047803Y0407191D01*
X0048229Y0410328D01*
X0048732Y0413454D01*
X0049312Y0416567D01*
X0049967Y0419664D01*
X0050699Y0422744D01*
X0051506Y0425806D01*
X0052388Y0428847D01*
X0053344Y0431865D01*
X0054374Y0434859D01*
X0055477Y0437826D01*
X0056653Y0440766D01*
X0057900Y0443676D01*
X0059218Y0446555D01*
X0060607Y0449400D01*
X0062065Y0452210D01*
X0063592Y0454984D01*
X0065186Y0457719D01*
X0066847Y0460415D01*
X0068573Y0463069D01*
X0070365Y0465679D01*
X0072219Y0468245D01*
X0074136Y0470765D01*
X0076115Y0473237D01*
X0078153Y0475659D01*
X0080250Y0478031D01*
X0082405Y0480351D01*
X0084616Y0482617D01*
X0086882Y0484828D01*
X0089202Y0486983D01*
X0091574Y0489080D01*
X0093996Y0491118D01*
X0096468Y0493097D01*
X0098988Y0495014D01*
X0101554Y0496868D01*
X0104164Y0498660D01*
X0106818Y0500386D01*
X0109514Y0502047D01*
X0112249Y0503641D01*
X0115023Y0505168D01*
X0117833Y0506626D01*
X0120678Y0508015D01*
X0123557Y0509333D01*
X0126467Y0510580D01*
X0129407Y0511756D01*
X0132374Y0512859D01*
X0135368Y0513889D01*
X0138386Y0514845D01*
X0141427Y0515727D01*
X0144489Y0516534D01*
X0147569Y0517266D01*
X0150666Y0517921D01*
X0153779Y0518501D01*
X0156905Y0519004D01*
X0160042Y0519430D01*
X0163189Y0519779D01*
X0166343Y0520050D01*
X0169503Y0520245D01*
X0172667Y0520361D01*
X0175833Y0520400D01*
X0178999Y0520361D01*
X0182163Y0520245D01*
X0185323Y0520050D01*
X0188477Y0519779D01*
X0191624Y0519430D01*
X0194761Y0519004D01*
X0197887Y0518501D01*
X0201000Y0517921D01*
X0204097Y0517266D01*
X0207177Y0516534D01*
X0210239Y0515727D01*
X0213280Y0514845D01*
X0216298Y0513889D01*
X0219292Y0512859D01*
X0222259Y0511756D01*
X0225199Y0510580D01*
X0228109Y0509333D01*
X0230988Y0508015D01*
X0233833Y0506626D01*
X0236643Y0505168D01*
X0239417Y0503641D01*
X0242152Y0502047D01*
X0244848Y0500386D01*
X0247502Y0498660D01*
X0250112Y0496868D01*
X0252678Y0495014D01*
X0255198Y0493097D01*
X0257670Y0491118D01*
X0260092Y0489080D01*
X0262464Y0486983D01*
X0264784Y0484828D01*
X0267050Y0482617D01*
X0269261Y0480351D01*
X0271416Y0478031D01*
X0273513Y0475659D01*
X0275551Y0473237D01*
X0277530Y0470765D01*
X0279447Y0468245D01*
X0281301Y0465679D01*
X0283093Y0463069D01*
X0284819Y0460415D01*
X0286480Y0457719D01*
X0288074Y0454984D01*
X0289601Y0452210D01*
X0291059Y0449400D01*
X0292448Y0446555D01*
X0293766Y0443676D01*
X0295013Y0440766D01*
X0296189Y0437826D01*
X0297292Y0434859D01*
X0298322Y0431865D01*
X0299278Y0428847D01*
X0300160Y0425806D01*
X0300967Y0422744D01*
X0301699Y0419664D01*
X0302354Y0416567D01*
X0302934Y0413454D01*
X0303437Y0410328D01*
X0303863Y0407191D01*
X0304212Y0404044D01*
X0304483Y0400890D01*
X0304678Y0397730D01*
X0304794Y0394566D01*
X0304833Y0391400D01*
X0304794Y0388234D01*
X0304678Y0385070D01*
X0304483Y0381910D01*
X0304212Y0378756D01*
X0303863Y0375609D01*
X0303437Y0372472D01*
X0302934Y0369346D01*
X0302354Y0366233D01*
X0301699Y0363136D01*
X0300967Y0360056D01*
X0300160Y0356994D01*
X0299278Y0353953D01*
X0298322Y0350935D01*
X0297292Y0347941D01*
X0296189Y0344974D01*
X0295013Y0342034D01*
X0293766Y0339124D01*
X0292448Y0336245D01*
X0291059Y0333400D01*
X0289601Y0330590D01*
X0288074Y0327816D01*
X0286480Y0325081D01*
X0284819Y0322385D01*
X0283093Y0319731D01*
X0281301Y0317121D01*
X0279447Y0314555D01*
X0277530Y0312035D01*
X0275551Y0309563D01*
X0273513Y0307141D01*
X0271416Y0304769D01*
X0269261Y0302449D01*
X0267050Y0300183D01*
X0264784Y0297972D01*
X0262464Y0295817D01*
X0260092Y0293720D01*
X0257670Y0291682D01*
X0255198Y0289703D01*
X0252678Y0287786D01*
X0250112Y0285932D01*
X0247502Y0284140D01*
X0244848Y0282414D01*
X0242152Y0280753D01*
X0239417Y0279159D01*
X0236643Y0277632D01*
X0233833Y0276174D01*
X0230988Y0274785D01*
X0228109Y0273467D01*
X0225199Y0272220D01*
X0222259Y0271044D01*
X0219292Y0269941D01*
X0216298Y0268911D01*
X0213280Y0267955D01*
X0210239Y0267073D01*
X0207177Y0266266D01*
X0204097Y0265534D01*
X0201000Y0264879D01*
X0197887Y0264299D01*
X0194761Y0263796D01*
X0191624Y0263370D01*
X0188477Y0263021D01*
X0185323Y0262750D01*
X0182163Y0262555D01*
X0178999Y0262439D01*
X0175833Y0262400D01*
X0172667Y0262439D01*
X0169503Y0262555D01*
X0166343Y0262750D01*
X0163189Y0263021D01*
X0160042Y0263370D01*
X0156905Y0263796D01*
X0153779Y0264299D01*
X0150666Y0264879D01*
X0147569Y0265534D01*
X0144489Y0266266D01*
X0141427Y0267073D01*
X0138386Y0267955D01*
X0135368Y0268911D01*
X0132374Y0269941D01*
X0129407Y0271044D01*
X0126467Y0272220D01*
X0123557Y0273467D01*
X0120678Y0274785D01*
X0117833Y0276174D01*
X0115023Y0277632D01*
X0112249Y0279159D01*
X0109514Y0280753D01*
X0106818Y0282414D01*
X0104164Y0284140D01*
X0101554Y0285932D01*
X0098988Y0287786D01*
X0096468Y0289703D01*
X0093996Y0291682D01*
X0091574Y0293720D01*
X0089202Y0295817D01*
X0086882Y0297972D01*
X0084616Y0300183D01*
X0082405Y0302449D01*
X0080250Y0304769D01*
X0078153Y0307141D01*
X0076115Y0309563D01*
X0074136Y0312035D01*
X0072219Y0314555D01*
X0070365Y0317121D01*
X0068573Y0319731D01*
X0066847Y0322385D01*
X0065186Y0325081D01*
X0063592Y0327816D01*
X0062065Y0330590D01*
X0060607Y0333400D01*
X0059218Y0336245D01*
X0057900Y0339124D01*
X0056653Y0342034D01*
X0055477Y0344974D01*
X0054374Y0347941D01*
X0053344Y0350935D01*
X0052388Y0353953D01*
X0051506Y0356994D01*
X0050699Y0360056D01*
X0049967Y0363136D01*
X0049312Y0366233D01*
X0048732Y0369346D01*
X0048229Y0372472D01*
X0047803Y0375609D01*
X0047454Y0378756D01*
X0047183Y0381910D01*
X0046988Y0385070D01*
X0046872Y0388234D01*
X0046833Y0391400D01*
X0025833Y0391400D02*
X0025878Y0395081D01*
X0026014Y0398760D01*
X0026239Y0402435D01*
X0026555Y0406103D01*
X0026961Y0409762D01*
X0027457Y0413410D01*
X0028041Y0417044D01*
X0028715Y0420664D01*
X0029478Y0424265D01*
X0030328Y0427847D01*
X0031267Y0431407D01*
X0032292Y0434943D01*
X0033404Y0438452D01*
X0034601Y0441933D01*
X0035884Y0445384D01*
X0037251Y0448803D01*
X0038702Y0452186D01*
X0040235Y0455533D01*
X0041849Y0458842D01*
X0043545Y0462110D01*
X0045320Y0465335D01*
X0047174Y0468515D01*
X0049105Y0471650D01*
X0051113Y0474736D01*
X0053195Y0477771D01*
X0055352Y0480755D01*
X0057581Y0483685D01*
X0059881Y0486559D01*
X0062252Y0489376D01*
X0064690Y0492134D01*
X0067196Y0494831D01*
X0069767Y0497466D01*
X0072402Y0500037D01*
X0075099Y0502543D01*
X0077857Y0504981D01*
X0080674Y0507352D01*
X0083548Y0509652D01*
X0086478Y0511881D01*
X0089462Y0514038D01*
X0092497Y0516120D01*
X0095583Y0518128D01*
X0098718Y0520059D01*
X0101898Y0521913D01*
X0105123Y0523688D01*
X0108391Y0525384D01*
X0111700Y0526998D01*
X0115047Y0528531D01*
X0118430Y0529982D01*
X0121849Y0531349D01*
X0125300Y0532632D01*
X0128781Y0533829D01*
X0132290Y0534941D01*
X0135826Y0535966D01*
X0139386Y0536905D01*
X0142968Y0537755D01*
X0146569Y0538518D01*
X0150189Y0539192D01*
X0153823Y0539776D01*
X0157471Y0540272D01*
X0161130Y0540678D01*
X0164798Y0540994D01*
X0168473Y0541219D01*
X0172152Y0541355D01*
X0175833Y0541400D01*
X0179514Y0541355D01*
X0183193Y0541219D01*
X0186868Y0540994D01*
X0190536Y0540678D01*
X0194195Y0540272D01*
X0197843Y0539776D01*
X0201477Y0539192D01*
X0205097Y0538518D01*
X0208698Y0537755D01*
X0212280Y0536905D01*
X0215840Y0535966D01*
X0219376Y0534941D01*
X0222885Y0533829D01*
X0226366Y0532632D01*
X0229817Y0531349D01*
X0233236Y0529982D01*
X0236619Y0528531D01*
X0239966Y0526998D01*
X0243275Y0525384D01*
X0246543Y0523688D01*
X0249768Y0521913D01*
X0252948Y0520059D01*
X0256083Y0518128D01*
X0259169Y0516120D01*
X0262204Y0514038D01*
X0265188Y0511881D01*
X0268118Y0509652D01*
X0270992Y0507352D01*
X0273809Y0504981D01*
X0276567Y0502543D01*
X0279264Y0500037D01*
X0281899Y0497466D01*
X0284470Y0494831D01*
X0286976Y0492134D01*
X0289414Y0489376D01*
X0291785Y0486559D01*
X0294085Y0483685D01*
X0296314Y0480755D01*
X0298471Y0477771D01*
X0300553Y0474736D01*
X0302561Y0471650D01*
X0304492Y0468515D01*
X0306346Y0465335D01*
X0308121Y0462110D01*
X0309817Y0458842D01*
X0311431Y0455533D01*
X0312964Y0452186D01*
X0314415Y0448803D01*
X0315782Y0445384D01*
X0317065Y0441933D01*
X0318262Y0438452D01*
X0319374Y0434943D01*
X0320399Y0431407D01*
X0321338Y0427847D01*
X0322188Y0424265D01*
X0322951Y0420664D01*
X0323625Y0417044D01*
X0324209Y0413410D01*
X0324705Y0409762D01*
X0325111Y0406103D01*
X0325427Y0402435D01*
X0325652Y0398760D01*
X0325788Y0395081D01*
X0325833Y0391400D01*
X0325788Y0387719D01*
X0325652Y0384040D01*
X0325427Y0380365D01*
X0325111Y0376697D01*
X0324705Y0373038D01*
X0324209Y0369390D01*
X0323625Y0365756D01*
X0322951Y0362136D01*
X0322188Y0358535D01*
X0321338Y0354953D01*
X0320399Y0351393D01*
X0319374Y0347857D01*
X0318262Y0344348D01*
X0317065Y0340867D01*
X0315782Y0337416D01*
X0314415Y0333997D01*
X0312964Y0330614D01*
X0311431Y0327267D01*
X0309817Y0323958D01*
X0308121Y0320690D01*
X0306346Y0317465D01*
X0304492Y0314285D01*
X0302561Y0311150D01*
X0300553Y0308064D01*
X0298471Y0305029D01*
X0296314Y0302045D01*
X0294085Y0299115D01*
X0291785Y0296241D01*
X0289414Y0293424D01*
X0286976Y0290666D01*
X0284470Y0287969D01*
X0281899Y0285334D01*
X0279264Y0282763D01*
X0276567Y0280257D01*
X0273809Y0277819D01*
X0270992Y0275448D01*
X0268118Y0273148D01*
X0265188Y0270919D01*
X0262204Y0268762D01*
X0259169Y0266680D01*
X0256083Y0264672D01*
X0252948Y0262741D01*
X0249768Y0260887D01*
X0246543Y0259112D01*
X0243275Y0257416D01*
X0239966Y0255802D01*
X0236619Y0254269D01*
X0233236Y0252818D01*
X0229817Y0251451D01*
X0226366Y0250168D01*
X0222885Y0248971D01*
X0219376Y0247859D01*
X0215840Y0246834D01*
X0212280Y0245895D01*
X0208698Y0245045D01*
X0205097Y0244282D01*
X0201477Y0243608D01*
X0197843Y0243024D01*
X0194195Y0242528D01*
X0190536Y0242122D01*
X0186868Y0241806D01*
X0183193Y0241581D01*
X0179514Y0241445D01*
X0175833Y0241400D01*
X0172152Y0241445D01*
X0168473Y0241581D01*
X0164798Y0241806D01*
X0161130Y0242122D01*
X0157471Y0242528D01*
X0153823Y0243024D01*
X0150189Y0243608D01*
X0146569Y0244282D01*
X0142968Y0245045D01*
X0139386Y0245895D01*
X0135826Y0246834D01*
X0132290Y0247859D01*
X0128781Y0248971D01*
X0125300Y0250168D01*
X0121849Y0251451D01*
X0118430Y0252818D01*
X0115047Y0254269D01*
X0111700Y0255802D01*
X0108391Y0257416D01*
X0105123Y0259112D01*
X0101898Y0260887D01*
X0098718Y0262741D01*
X0095583Y0264672D01*
X0092497Y0266680D01*
X0089462Y0268762D01*
X0086478Y0270919D01*
X0083548Y0273148D01*
X0080674Y0275448D01*
X0077857Y0277819D01*
X0075099Y0280257D01*
X0072402Y0282763D01*
X0069767Y0285334D01*
X0067196Y0287969D01*
X0064690Y0290666D01*
X0062252Y0293424D01*
X0059881Y0296241D01*
X0057581Y0299115D01*
X0055352Y0302045D01*
X0053195Y0305029D01*
X0051113Y0308064D01*
X0049105Y0311150D01*
X0047174Y0314285D01*
X0045320Y0317465D01*
X0043545Y0320690D01*
X0041849Y0323958D01*
X0040235Y0327267D01*
X0038702Y0330614D01*
X0037251Y0333997D01*
X0035884Y0337416D01*
X0034601Y0340867D01*
X0033404Y0344348D01*
X0032292Y0347857D01*
X0031267Y0351393D01*
X0030328Y0354953D01*
X0029478Y0358535D01*
X0028715Y0362136D01*
X0028041Y0365756D01*
X0027457Y0369390D01*
X0026961Y0373038D01*
X0026555Y0376697D01*
X0026239Y0380365D01*
X0026014Y0384040D01*
X0025878Y0387719D01*
X0025833Y0391400D01*
D11*
X0139870Y0250604D02*
X0151423Y0248148D01*
X0153696Y0258842D01*
X0153901Y0259805D01*
X0142348Y0262261D01*
X0139870Y0250604D01*
X0136596Y0251486D02*
X0139974Y0261884D01*
X0140278Y0262820D01*
X0129045Y0266470D01*
X0125363Y0255136D01*
X0136596Y0251486D01*
X0122166Y0256343D02*
X0126613Y0266331D01*
X0127014Y0267230D01*
X0116224Y0272034D01*
X0111376Y0261147D01*
X0122166Y0256343D01*
X0108333Y0262683D02*
X0113800Y0272152D01*
X0114292Y0273004D01*
X0104063Y0278910D01*
X0098105Y0268589D01*
X0108333Y0262683D01*
X0095256Y0270450D02*
X0101682Y0279295D01*
X0102260Y0280092D01*
X0092705Y0287034D01*
X0085700Y0277393D01*
X0095256Y0270450D01*
X0083032Y0279566D02*
X0090348Y0287691D01*
X0091006Y0288422D01*
X0082229Y0296325D01*
X0074255Y0287469D01*
X0083032Y0279566D01*
X0071883Y0289862D02*
X0080007Y0297177D01*
X0080739Y0297836D01*
X0072836Y0306613D01*
X0063979Y0298639D01*
X0071883Y0289862D01*
X0061846Y0301267D02*
X0070691Y0307693D01*
X0071487Y0308272D01*
X0064545Y0317827D01*
X0054904Y0310822D01*
X0061846Y0301267D01*
X0053062Y0313691D02*
X0062531Y0319158D01*
X0063383Y0319650D01*
X0057477Y0329879D01*
X0047157Y0323920D01*
X0053062Y0313691D01*
X0045560Y0326923D02*
X0055548Y0331370D01*
X0056447Y0331770D01*
X0051643Y0342560D01*
X0040756Y0337713D01*
X0045560Y0326923D01*
X0039589Y0340909D02*
X0049987Y0344288D01*
X0050923Y0344592D01*
X0047273Y0355825D01*
X0035939Y0352142D01*
X0039589Y0340909D01*
X0035017Y0355437D02*
X0045711Y0357710D01*
X0046674Y0357914D01*
X0044218Y0369467D01*
X0032562Y0366990D01*
X0035017Y0355437D01*
X0032043Y0370350D02*
X0042916Y0371493D01*
X0043895Y0371596D01*
X0042661Y0383342D01*
X0030809Y0382096D01*
X0032043Y0370350D01*
X0030615Y0385494D02*
X0041548Y0385494D01*
X0042532Y0385494D01*
X0042532Y0397306D01*
X0030615Y0397306D01*
X0030615Y0385494D01*
X0030799Y0400714D02*
X0041672Y0399571D01*
X0042651Y0399468D01*
X0043885Y0411214D01*
X0032033Y0412460D01*
X0030799Y0400714D01*
X0032592Y0415830D02*
X0043286Y0413557D01*
X0044248Y0413353D01*
X0046704Y0424906D01*
X0035047Y0427383D01*
X0032592Y0415830D01*
X0035929Y0430668D02*
X0046327Y0427289D01*
X0047263Y0426985D01*
X0050913Y0438218D01*
X0039579Y0441901D01*
X0035929Y0430668D01*
X0040756Y0445057D02*
X0050744Y0440610D01*
X0051643Y0440210D01*
X0056447Y0451000D01*
X0045560Y0455847D01*
X0040756Y0445057D01*
X0047137Y0458890D02*
X0056605Y0453423D01*
X0057457Y0452931D01*
X0063363Y0463160D01*
X0053042Y0469119D01*
X0047137Y0458890D01*
X0054904Y0471958D02*
X0063749Y0465531D01*
X0064545Y0464953D01*
X0071487Y0474508D01*
X0061846Y0481513D01*
X0054904Y0471958D01*
X0063989Y0484201D02*
X0072114Y0476886D01*
X0072846Y0476227D01*
X0080749Y0485004D01*
X0071893Y0492978D01*
X0063989Y0484201D01*
X0074255Y0495361D02*
X0081570Y0487236D01*
X0082229Y0486505D01*
X0091006Y0494408D01*
X0083032Y0503264D01*
X0074255Y0495361D01*
X0085690Y0505387D02*
X0092116Y0496542D01*
X0092695Y0495746D01*
X0102250Y0502688D01*
X0095246Y0512330D01*
X0085690Y0505387D01*
X0098125Y0514191D02*
X0103591Y0504723D01*
X0104083Y0503870D01*
X0114312Y0509776D01*
X0108353Y0520097D01*
X0098125Y0514191D01*
X0111346Y0521683D02*
X0115793Y0511695D01*
X0116194Y0510796D01*
X0126984Y0515600D01*
X0122136Y0526487D01*
X0111346Y0521683D01*
X0125363Y0527654D02*
X0128741Y0517256D01*
X0129045Y0516320D01*
X0140278Y0519970D01*
X0136596Y0531304D01*
X0125363Y0527654D01*
X0139860Y0532196D02*
X0142133Y0521502D01*
X0142338Y0520539D01*
X0153891Y0522995D01*
X0151413Y0534652D01*
X0139860Y0532196D01*
X0154773Y0535200D02*
X0155916Y0524327D01*
X0156019Y0523348D01*
X0167765Y0524583D01*
X0166520Y0536435D01*
X0154773Y0535200D01*
X0169908Y0536619D02*
X0169908Y0525686D01*
X0169908Y0524701D01*
X0181719Y0524701D01*
X0181719Y0536619D01*
X0169908Y0536619D01*
X0185147Y0536445D02*
X0184004Y0525571D01*
X0183901Y0524593D01*
X0195648Y0523358D01*
X0196893Y0535210D01*
X0185147Y0536445D01*
X0197981Y0523988D02*
X0197776Y0523025D01*
X0209329Y0520569D01*
X0211807Y0532226D01*
X0200254Y0534682D01*
X0197981Y0523988D01*
X0211418Y0519980D02*
X0211722Y0520916D01*
X0215101Y0531314D01*
X0226334Y0527664D01*
X0222651Y0516330D01*
X0211418Y0519980D01*
X0224663Y0515570D02*
X0225063Y0516469D01*
X0229510Y0526457D01*
X0240300Y0521653D01*
X0235453Y0510766D01*
X0224663Y0515570D01*
X0237375Y0509756D02*
X0237867Y0510608D01*
X0243333Y0520077D01*
X0253562Y0514171D01*
X0247603Y0503850D01*
X0237375Y0509756D01*
X0249396Y0502708D02*
X0249975Y0503505D01*
X0256401Y0512350D01*
X0265956Y0505407D01*
X0258952Y0495766D01*
X0249396Y0502708D01*
X0260630Y0494378D02*
X0261289Y0495109D01*
X0268605Y0503234D01*
X0277382Y0495331D01*
X0269408Y0486474D01*
X0260630Y0494378D01*
X0270918Y0484994D02*
X0271649Y0485653D01*
X0279774Y0492968D01*
X0287677Y0484191D01*
X0278821Y0476217D01*
X0270918Y0484994D01*
X0280209Y0474508D02*
X0281006Y0475087D01*
X0289851Y0481513D01*
X0296793Y0471958D01*
X0287152Y0464953D01*
X0280209Y0474508D01*
X0288304Y0463170D02*
X0289156Y0463662D01*
X0298624Y0469129D01*
X0304530Y0458900D01*
X0294209Y0452941D01*
X0288304Y0463170D01*
X0295199Y0451010D02*
X0296099Y0451410D01*
X0306086Y0455857D01*
X0310890Y0445067D01*
X0300003Y0440220D01*
X0295199Y0451010D01*
X0300774Y0438178D02*
X0301710Y0438482D01*
X0312108Y0441861D01*
X0315757Y0430628D01*
X0304423Y0426945D01*
X0300774Y0438178D01*
X0305003Y0424886D02*
X0305965Y0425090D01*
X0316659Y0427363D01*
X0319115Y0415810D01*
X0307458Y0413333D01*
X0305003Y0424886D01*
X0307771Y0411234D02*
X0308750Y0411337D01*
X0319623Y0412480D01*
X0320858Y0400734D01*
X0309006Y0399488D01*
X0307771Y0411234D01*
X0309125Y0397306D02*
X0310109Y0397306D01*
X0321042Y0397306D01*
X0321042Y0385494D01*
X0309125Y0385494D01*
X0309125Y0397306D01*
X0309036Y0383312D02*
X0310015Y0383209D01*
X0320888Y0382066D01*
X0319653Y0370320D01*
X0307801Y0371566D01*
X0309036Y0383312D01*
X0307448Y0369477D02*
X0308411Y0369273D01*
X0319105Y0367000D01*
X0316649Y0355447D01*
X0304993Y0357924D01*
X0307448Y0369477D01*
X0304403Y0355825D02*
X0305340Y0355521D01*
X0315737Y0352142D01*
X0312088Y0340909D01*
X0300754Y0344592D01*
X0304403Y0355825D01*
X0299993Y0342590D02*
X0300893Y0342190D01*
X0310880Y0337743D01*
X0306076Y0326953D01*
X0295189Y0331800D01*
X0299993Y0342590D01*
X0294209Y0329859D02*
X0295062Y0329367D01*
X0304530Y0323900D01*
X0298624Y0313671D01*
X0288304Y0319630D01*
X0294209Y0329859D01*
X0287142Y0317837D02*
X0287938Y0317258D01*
X0296783Y0310832D01*
X0289841Y0301277D01*
X0280199Y0308282D01*
X0287142Y0317837D01*
X0278801Y0306613D02*
X0279532Y0305954D01*
X0287657Y0298639D01*
X0279754Y0289862D01*
X0270898Y0297836D01*
X0278801Y0306613D01*
X0269398Y0296315D02*
X0270056Y0295584D01*
X0277372Y0287459D01*
X0268595Y0279556D01*
X0260620Y0288412D01*
X0269398Y0296315D01*
X0258982Y0287034D02*
X0259560Y0286238D01*
X0265986Y0277393D01*
X0256431Y0270450D01*
X0249426Y0280092D01*
X0258982Y0287034D01*
X0247593Y0278930D02*
X0248085Y0278077D01*
X0253552Y0268609D01*
X0243323Y0262703D01*
X0237365Y0273024D01*
X0247593Y0278930D01*
X0235873Y0271135D02*
X0240320Y0261147D01*
X0229530Y0256343D01*
X0224683Y0267230D01*
X0235473Y0272034D01*
X0235873Y0271135D01*
X0222611Y0266480D02*
X0222915Y0265544D01*
X0226294Y0255146D01*
X0215061Y0251496D01*
X0211378Y0262830D01*
X0222611Y0266480D01*
X0209299Y0262231D02*
X0209504Y0261268D01*
X0211777Y0250574D01*
X0200224Y0248118D01*
X0197746Y0259775D01*
X0209299Y0262231D01*
X0195668Y0259432D02*
X0195770Y0258453D01*
X0196913Y0247580D01*
X0185167Y0246345D01*
X0183921Y0258197D01*
X0195668Y0259432D01*
X0181739Y0258119D02*
X0181739Y0257134D01*
X0181739Y0246201D01*
X0169928Y0246201D01*
X0169928Y0258119D01*
X0181739Y0258119D01*
X0167735Y0258187D02*
X0167633Y0257208D01*
X0166490Y0246335D01*
X0154743Y0247570D01*
X0155989Y0259422D01*
X0167735Y0258187D01*
D12*
X0167715Y0257992D02*
X0167633Y0257208D01*
X0163717Y0257620D01*
X0163758Y0258012D01*
X0163799Y0258403D01*
X0167715Y0257992D01*
X0167282Y0257641D02*
X0163758Y0258012D01*
X0153860Y0259613D02*
X0153696Y0258842D01*
X0149845Y0259661D01*
X0149927Y0260046D01*
X0150009Y0260431D01*
X0153860Y0259613D01*
X0153393Y0259309D02*
X0149927Y0260046D01*
X0140218Y0262633D02*
X0139974Y0261884D01*
X0136230Y0263100D01*
X0136352Y0263475D01*
X0136473Y0263849D01*
X0140218Y0262633D01*
X0139721Y0262380D02*
X0136352Y0263475D01*
X0126934Y0267050D02*
X0126613Y0266331D01*
X0123017Y0267932D01*
X0123177Y0268292D01*
X0123337Y0268651D01*
X0126934Y0267050D01*
X0126414Y0266851D02*
X0123177Y0268292D01*
X0114194Y0272834D02*
X0113800Y0272152D01*
X0110390Y0274120D01*
X0110587Y0274461D01*
X0110784Y0274802D01*
X0114194Y0272834D01*
X0113656Y0272690D02*
X0110587Y0274461D01*
X0102145Y0279932D02*
X0101682Y0279295D01*
X0098497Y0281610D01*
X0098728Y0281928D01*
X0098960Y0282247D01*
X0102145Y0279932D01*
X0101595Y0279845D02*
X0098728Y0281928D01*
X0090875Y0288276D02*
X0090348Y0287691D01*
X0087422Y0290325D01*
X0087685Y0290618D01*
X0087949Y0290910D01*
X0090875Y0288276D01*
X0090319Y0288247D02*
X0087685Y0290618D01*
X0080593Y0297704D02*
X0077958Y0300630D01*
X0077666Y0300366D01*
X0077373Y0300103D01*
X0080007Y0297177D01*
X0080593Y0297704D01*
X0080037Y0297733D02*
X0077666Y0300366D01*
X0071328Y0308156D02*
X0070691Y0307693D01*
X0068377Y0310878D01*
X0068696Y0311110D01*
X0069014Y0311341D01*
X0071328Y0308156D01*
X0070778Y0308243D02*
X0068696Y0311110D01*
X0063212Y0319552D02*
X0062531Y0319158D01*
X0060562Y0322567D01*
X0060903Y0322764D01*
X0061244Y0322961D01*
X0063212Y0319552D01*
X0062675Y0319696D02*
X0060903Y0322764D01*
X0056267Y0331690D02*
X0055548Y0331370D01*
X0053947Y0334967D01*
X0054306Y0335127D01*
X0054666Y0335287D01*
X0056267Y0331690D01*
X0055748Y0331890D02*
X0054306Y0335127D01*
X0050736Y0344531D02*
X0049987Y0344288D01*
X0048770Y0348032D01*
X0049145Y0348154D01*
X0049519Y0348276D01*
X0050736Y0344531D01*
X0050240Y0344784D02*
X0049145Y0348154D01*
X0046482Y0357873D02*
X0045711Y0357710D01*
X0044893Y0361561D01*
X0045278Y0361643D01*
X0045663Y0361724D01*
X0046482Y0357873D01*
X0046015Y0358177D02*
X0045278Y0361643D01*
X0043699Y0371575D02*
X0042916Y0371493D01*
X0042505Y0375408D01*
X0042896Y0375450D01*
X0043288Y0375491D01*
X0043699Y0371575D01*
X0043267Y0371926D02*
X0042896Y0375450D01*
X0042335Y0385494D02*
X0041548Y0385494D01*
X0041548Y0389431D01*
X0041941Y0389431D01*
X0042335Y0389431D01*
X0042335Y0385494D01*
X0041941Y0385888D02*
X0041941Y0389431D01*
X0042455Y0399488D02*
X0041672Y0399571D01*
X0042083Y0403486D01*
X0042475Y0403445D01*
X0042866Y0403404D01*
X0042455Y0399488D01*
X0042105Y0399921D02*
X0042475Y0403445D01*
X0044056Y0413394D02*
X0043286Y0413557D01*
X0044104Y0417408D01*
X0044489Y0417326D01*
X0044875Y0417245D01*
X0044056Y0413394D01*
X0043753Y0413861D02*
X0044489Y0417326D01*
X0047076Y0427046D02*
X0046327Y0427289D01*
X0047544Y0431033D01*
X0047918Y0430912D01*
X0048293Y0430790D01*
X0047076Y0427046D01*
X0046823Y0427542D02*
X0047918Y0430912D01*
X0051463Y0440290D02*
X0050744Y0440610D01*
X0052345Y0444207D01*
X0052705Y0444047D01*
X0053065Y0443886D01*
X0051463Y0440290D01*
X0051264Y0440810D02*
X0052705Y0444047D01*
X0057287Y0453030D02*
X0056605Y0453423D01*
X0058574Y0456833D01*
X0058914Y0456636D01*
X0059255Y0456439D01*
X0057287Y0453030D01*
X0057143Y0453568D02*
X0058914Y0456636D01*
X0064386Y0465069D02*
X0063749Y0465531D01*
X0066063Y0468717D01*
X0066381Y0468485D01*
X0066700Y0468254D01*
X0064386Y0465069D01*
X0064299Y0465619D02*
X0066381Y0468485D01*
X0072699Y0476359D02*
X0072114Y0476886D01*
X0074749Y0479811D01*
X0075041Y0479548D01*
X0075334Y0479284D01*
X0072699Y0476359D01*
X0072670Y0476915D02*
X0075041Y0479548D01*
X0082097Y0486651D02*
X0081570Y0487236D01*
X0084496Y0489870D01*
X0084760Y0489578D01*
X0085023Y0489285D01*
X0082097Y0486651D01*
X0082126Y0487207D02*
X0084760Y0489578D01*
X0092579Y0495905D02*
X0092116Y0496542D01*
X0095302Y0498856D01*
X0095533Y0498538D01*
X0095764Y0498219D01*
X0092579Y0495905D01*
X0092666Y0496455D02*
X0095533Y0498538D01*
X0103985Y0504041D02*
X0103591Y0504723D01*
X0107001Y0506691D01*
X0107198Y0506350D01*
X0107394Y0506009D01*
X0103985Y0504041D01*
X0104129Y0504579D02*
X0107198Y0506350D01*
X0116114Y0510976D02*
X0115793Y0511695D01*
X0119390Y0513297D01*
X0119550Y0512937D01*
X0119710Y0512577D01*
X0116114Y0510976D01*
X0116313Y0511496D02*
X0119550Y0512937D01*
X0128985Y0516508D02*
X0128741Y0517256D01*
X0132486Y0518473D01*
X0132607Y0518099D01*
X0132729Y0517724D01*
X0128985Y0516508D01*
X0129237Y0517004D02*
X0132607Y0518099D01*
X0142297Y0520732D02*
X0142133Y0521502D01*
X0145984Y0522320D01*
X0146066Y0521935D01*
X0146148Y0521550D01*
X0142297Y0520732D01*
X0142600Y0521199D02*
X0146066Y0521935D01*
X0155999Y0523544D02*
X0155916Y0524327D01*
X0159832Y0524738D01*
X0159873Y0524347D01*
X0159914Y0523955D01*
X0155999Y0523544D01*
X0156349Y0523977D02*
X0159873Y0524347D01*
X0169908Y0524898D02*
X0169908Y0525686D01*
X0173845Y0525686D01*
X0173845Y0525292D01*
X0173845Y0524898D01*
X0169908Y0524898D01*
X0170302Y0525292D02*
X0173845Y0525292D01*
X0183922Y0524788D02*
X0184004Y0525571D01*
X0187920Y0525160D01*
X0187878Y0524768D01*
X0187837Y0524377D01*
X0183922Y0524788D01*
X0184354Y0525139D02*
X0187878Y0524768D01*
X0197817Y0523217D02*
X0197981Y0523988D01*
X0201832Y0523169D01*
X0201750Y0522784D01*
X0201668Y0522399D01*
X0197817Y0523217D01*
X0198284Y0523521D02*
X0201750Y0522784D01*
X0211479Y0520167D02*
X0211722Y0520916D01*
X0215467Y0519700D01*
X0215345Y0519325D01*
X0215223Y0518951D01*
X0211479Y0520167D01*
X0211975Y0520420D02*
X0215345Y0519325D01*
X0224743Y0515750D02*
X0225063Y0516469D01*
X0228660Y0514868D01*
X0228500Y0514508D01*
X0228340Y0514149D01*
X0224743Y0515750D01*
X0225263Y0515949D02*
X0228500Y0514508D01*
X0237473Y0509926D02*
X0240883Y0507958D01*
X0241079Y0508299D01*
X0241276Y0508640D01*
X0237867Y0510608D01*
X0237473Y0509926D01*
X0238011Y0510070D02*
X0241079Y0508299D01*
X0249512Y0502868D02*
X0249975Y0503505D01*
X0253160Y0501190D01*
X0252929Y0500872D01*
X0252697Y0500553D01*
X0249512Y0502868D01*
X0250062Y0502955D02*
X0252929Y0500872D01*
X0260762Y0494524D02*
X0261289Y0495109D01*
X0264215Y0492475D01*
X0263951Y0492182D01*
X0263688Y0491890D01*
X0260762Y0494524D01*
X0261318Y0494553D02*
X0263951Y0492182D01*
X0271064Y0485126D02*
X0271649Y0485653D01*
X0274284Y0482727D01*
X0273991Y0482464D01*
X0273698Y0482200D01*
X0271064Y0485126D01*
X0271620Y0485097D02*
X0273991Y0482464D01*
X0280369Y0474624D02*
X0281006Y0475087D01*
X0283320Y0471902D01*
X0283001Y0471670D01*
X0282683Y0471439D01*
X0280369Y0474624D01*
X0280918Y0474537D02*
X0283001Y0471670D01*
X0288474Y0463268D02*
X0289156Y0463662D01*
X0291125Y0460253D01*
X0290784Y0460056D01*
X0290443Y0459859D01*
X0288474Y0463268D01*
X0289012Y0463124D02*
X0290784Y0460056D01*
X0295379Y0451090D02*
X0296099Y0451410D01*
X0297700Y0447813D01*
X0297340Y0447653D01*
X0296981Y0447493D01*
X0295379Y0451090D01*
X0295899Y0450890D02*
X0297340Y0447653D01*
X0300961Y0438239D02*
X0301710Y0438482D01*
X0302926Y0434738D01*
X0302552Y0434616D01*
X0302177Y0434494D01*
X0300961Y0438239D01*
X0301457Y0437986D02*
X0302552Y0434616D01*
X0305195Y0424927D02*
X0305965Y0425090D01*
X0306784Y0421239D01*
X0306399Y0421157D01*
X0306014Y0421076D01*
X0305195Y0424927D01*
X0305662Y0424623D02*
X0306399Y0421157D01*
X0307967Y0411255D02*
X0308750Y0411337D01*
X0309162Y0407422D01*
X0308770Y0407380D01*
X0308379Y0407339D01*
X0307967Y0411255D01*
X0308400Y0410904D02*
X0308770Y0407380D01*
X0309322Y0397306D02*
X0310109Y0397306D01*
X0310109Y0393369D01*
X0309715Y0393369D01*
X0309322Y0393369D01*
X0309322Y0397306D01*
X0309715Y0396912D02*
X0309715Y0393369D01*
X0309232Y0383292D02*
X0310015Y0383209D01*
X0309603Y0379294D01*
X0309212Y0379335D01*
X0308820Y0379376D01*
X0309232Y0383292D01*
X0309582Y0382859D02*
X0309212Y0379335D01*
X0307641Y0369436D02*
X0308411Y0369273D01*
X0307592Y0365422D01*
X0307207Y0365504D01*
X0306822Y0365585D01*
X0307641Y0369436D01*
X0307944Y0368969D02*
X0307207Y0365504D01*
X0304591Y0355764D02*
X0303374Y0352020D01*
X0303748Y0351898D01*
X0304123Y0351777D01*
X0305340Y0355521D01*
X0304591Y0355764D01*
X0304843Y0355268D02*
X0303748Y0351898D01*
X0300173Y0342510D02*
X0300893Y0342190D01*
X0299291Y0338593D01*
X0298932Y0338753D01*
X0298572Y0338914D01*
X0300173Y0342510D01*
X0300373Y0341990D02*
X0298932Y0338753D01*
X0294380Y0329760D02*
X0295062Y0329367D01*
X0293093Y0325957D01*
X0292752Y0326154D01*
X0292411Y0326351D01*
X0294380Y0329760D01*
X0294524Y0329222D02*
X0292752Y0326154D01*
X0287301Y0317721D02*
X0287938Y0317258D01*
X0285624Y0314073D01*
X0285305Y0314305D01*
X0284987Y0314536D01*
X0287301Y0317721D01*
X0287388Y0317171D02*
X0285305Y0314305D01*
X0278947Y0306481D02*
X0279532Y0305954D01*
X0276898Y0303029D01*
X0276605Y0303292D01*
X0276313Y0303556D01*
X0278947Y0306481D01*
X0278976Y0305925D02*
X0276605Y0303292D01*
X0269529Y0296169D02*
X0270056Y0295584D01*
X0267130Y0292950D01*
X0266867Y0293242D01*
X0266604Y0293535D01*
X0269529Y0296169D01*
X0269500Y0295613D02*
X0266867Y0293242D01*
X0259097Y0286875D02*
X0255912Y0284561D01*
X0256144Y0284242D01*
X0256375Y0283924D01*
X0259560Y0286238D01*
X0259097Y0286875D01*
X0259010Y0286325D02*
X0256144Y0284242D01*
X0247692Y0278759D02*
X0248085Y0278077D01*
X0244676Y0276109D01*
X0244479Y0276450D01*
X0244282Y0276791D01*
X0247692Y0278759D01*
X0247548Y0278221D02*
X0244479Y0276450D01*
X0235553Y0271854D02*
X0235873Y0271135D01*
X0232277Y0269533D01*
X0232117Y0269893D01*
X0231956Y0270253D01*
X0235553Y0271854D01*
X0235354Y0271334D02*
X0232117Y0269893D01*
X0222672Y0266292D02*
X0222915Y0265544D01*
X0219171Y0264327D01*
X0219049Y0264701D01*
X0218928Y0265076D01*
X0222672Y0266292D01*
X0222419Y0265796D02*
X0219049Y0264701D01*
X0209340Y0262038D02*
X0209504Y0261268D01*
X0205653Y0260450D01*
X0205571Y0260835D01*
X0205489Y0261220D01*
X0209340Y0262038D01*
X0209037Y0261571D02*
X0205571Y0260835D01*
X0195688Y0259236D02*
X0195770Y0258453D01*
X0191855Y0258042D01*
X0191814Y0258433D01*
X0191773Y0258825D01*
X0195688Y0259236D01*
X0195338Y0258803D02*
X0191814Y0258433D01*
X0181739Y0257922D02*
X0181739Y0257134D01*
X0177802Y0257134D01*
X0177802Y0257528D01*
X0177802Y0257922D01*
X0181739Y0257922D01*
X0181345Y0257528D02*
X0177802Y0257528D01*
M02*
