G75*
%MOIN*%
%OFA0B0*%
%FSLAX25Y25*%
%IPPOS*%
%LPD*%
%AMOC8*
5,1,8,0,0,1.08239X$1,22.5*
%
%ADD10R,0.02362X0.01181*%
%ADD11R,0.01181X0.02362*%
D10*
X0032977Y0388250D03*
X0032977Y0391400D03*
X0032977Y0394550D03*
X0039670Y0394550D03*
X0039670Y0391400D03*
X0039670Y0388250D03*
X0311987Y0388250D03*
X0311987Y0391400D03*
X0311987Y0394550D03*
X0318680Y0394550D03*
X0318680Y0391400D03*
X0318680Y0388250D03*
D11*
G36*
X0149549Y0249755D02*
X0148396Y0250000D01*
X0148887Y0252309D01*
X0150040Y0252064D01*
X0149549Y0249755D01*
G37*
G36*
X0146469Y0250410D02*
X0145316Y0250655D01*
X0145807Y0252964D01*
X0146960Y0252719D01*
X0146469Y0250410D01*
G37*
G36*
X0143388Y0251065D02*
X0142235Y0251310D01*
X0142726Y0253619D01*
X0143879Y0253374D01*
X0143388Y0251065D01*
G37*
G36*
X0147860Y0256956D02*
X0146707Y0257201D01*
X0147198Y0259510D01*
X0148351Y0259265D01*
X0147860Y0256956D01*
G37*
G36*
X0150941Y0256301D02*
X0149788Y0256546D01*
X0150279Y0258855D01*
X0151432Y0258610D01*
X0150941Y0256301D01*
G37*
G36*
X0158894Y0255051D02*
X0157721Y0255175D01*
X0157968Y0257523D01*
X0159141Y0257399D01*
X0158894Y0255051D01*
G37*
G36*
X0162026Y0254722D02*
X0160853Y0254846D01*
X0161100Y0257194D01*
X0162273Y0257070D01*
X0162026Y0254722D01*
G37*
G36*
X0165158Y0254393D02*
X0163985Y0254517D01*
X0164232Y0256865D01*
X0165405Y0256741D01*
X0165158Y0254393D01*
G37*
G36*
X0164459Y0247737D02*
X0163286Y0247861D01*
X0163533Y0250209D01*
X0164706Y0250085D01*
X0164459Y0247737D01*
G37*
G36*
X0161327Y0248066D02*
X0160154Y0248190D01*
X0160401Y0250538D01*
X0161574Y0250414D01*
X0161327Y0248066D01*
G37*
G36*
X0158194Y0248395D02*
X0157021Y0248519D01*
X0157268Y0250867D01*
X0158441Y0250743D01*
X0158194Y0248395D01*
G37*
X0172684Y0248564D03*
X0175833Y0248564D03*
X0178983Y0248564D03*
X0178983Y0255256D03*
X0175833Y0255256D03*
X0172684Y0255256D03*
G36*
X0187671Y0254527D02*
X0186498Y0254403D01*
X0186251Y0256751D01*
X0187424Y0256875D01*
X0187671Y0254527D01*
G37*
G36*
X0190804Y0254856D02*
X0189631Y0254732D01*
X0189384Y0257080D01*
X0190557Y0257204D01*
X0190804Y0254856D01*
G37*
G36*
X0193936Y0255185D02*
X0192763Y0255061D01*
X0192516Y0257409D01*
X0193689Y0257533D01*
X0193936Y0255185D01*
G37*
G36*
X0194635Y0248529D02*
X0193462Y0248405D01*
X0193215Y0250753D01*
X0194388Y0250877D01*
X0194635Y0248529D01*
G37*
G36*
X0191503Y0248200D02*
X0190330Y0248076D01*
X0190083Y0250424D01*
X0191256Y0250548D01*
X0191503Y0248200D01*
G37*
G36*
X0188371Y0247871D02*
X0187198Y0247747D01*
X0186951Y0250095D01*
X0188124Y0250219D01*
X0188371Y0247871D01*
G37*
G36*
X0203250Y0249970D02*
X0202097Y0249725D01*
X0201606Y0252034D01*
X0202759Y0252279D01*
X0203250Y0249970D01*
G37*
G36*
X0206331Y0250625D02*
X0205178Y0250380D01*
X0204687Y0252689D01*
X0205840Y0252934D01*
X0206331Y0250625D01*
G37*
G36*
X0209412Y0251280D02*
X0208259Y0251035D01*
X0207768Y0253344D01*
X0208921Y0253589D01*
X0209412Y0251280D01*
G37*
G36*
X0217878Y0253654D02*
X0216756Y0253289D01*
X0216026Y0255534D01*
X0217148Y0255899D01*
X0217878Y0253654D01*
G37*
G36*
X0220873Y0254627D02*
X0219751Y0254262D01*
X0219021Y0256507D01*
X0220143Y0256872D01*
X0220873Y0254627D01*
G37*
G36*
X0223869Y0255601D02*
X0222747Y0255236D01*
X0222017Y0257481D01*
X0223139Y0257846D01*
X0223869Y0255601D01*
G37*
G36*
X0221801Y0261966D02*
X0220679Y0261601D01*
X0219949Y0263846D01*
X0221071Y0264211D01*
X0221801Y0261966D01*
G37*
G36*
X0218805Y0260993D02*
X0217683Y0260628D01*
X0216953Y0262873D01*
X0218075Y0263238D01*
X0218805Y0260993D01*
G37*
G36*
X0215810Y0260019D02*
X0214688Y0259654D01*
X0213958Y0261899D01*
X0215080Y0262264D01*
X0215810Y0260019D01*
G37*
G36*
X0208020Y0257826D02*
X0206867Y0257581D01*
X0206376Y0259890D01*
X0207529Y0260135D01*
X0208020Y0257826D01*
G37*
G36*
X0204940Y0257171D02*
X0203787Y0256926D01*
X0203296Y0259235D01*
X0204449Y0259480D01*
X0204940Y0257171D01*
G37*
G36*
X0201859Y0256516D02*
X0200706Y0256271D01*
X0200215Y0258580D01*
X0201368Y0258825D01*
X0201859Y0256516D01*
G37*
G36*
X0229384Y0264898D02*
X0228307Y0264418D01*
X0227346Y0266574D01*
X0228423Y0267054D01*
X0229384Y0264898D01*
G37*
G36*
X0232261Y0266179D02*
X0231184Y0265699D01*
X0230223Y0267855D01*
X0231300Y0268335D01*
X0232261Y0266179D01*
G37*
G36*
X0235139Y0267460D02*
X0234062Y0266980D01*
X0233101Y0269136D01*
X0234178Y0269616D01*
X0235139Y0267460D01*
G37*
G36*
X0237861Y0261346D02*
X0236784Y0260866D01*
X0235823Y0263022D01*
X0236900Y0263502D01*
X0237861Y0261346D01*
G37*
G36*
X0234983Y0260065D02*
X0233906Y0259585D01*
X0232945Y0261741D01*
X0234022Y0262221D01*
X0234983Y0260065D01*
G37*
G36*
X0232106Y0258784D02*
X0231029Y0258304D01*
X0230068Y0260460D01*
X0231145Y0260940D01*
X0232106Y0258784D01*
G37*
G36*
X0242283Y0271196D02*
X0241261Y0270606D01*
X0240081Y0272650D01*
X0241103Y0273240D01*
X0242283Y0271196D01*
G37*
G36*
X0245011Y0272771D02*
X0243989Y0272181D01*
X0242809Y0274225D01*
X0243831Y0274815D01*
X0245011Y0272771D01*
G37*
G36*
X0247739Y0274346D02*
X0246717Y0273756D01*
X0245537Y0275800D01*
X0246559Y0276390D01*
X0247739Y0274346D01*
G37*
G36*
X0251085Y0268550D02*
X0250063Y0267960D01*
X0248883Y0270004D01*
X0249905Y0270594D01*
X0251085Y0268550D01*
G37*
G36*
X0248358Y0266975D02*
X0247336Y0266385D01*
X0246156Y0268429D01*
X0247178Y0269019D01*
X0248358Y0266975D01*
G37*
G36*
X0245630Y0265400D02*
X0244608Y0264810D01*
X0243428Y0266854D01*
X0244450Y0267444D01*
X0245630Y0265400D01*
G37*
G36*
X0254509Y0278788D02*
X0253554Y0278094D01*
X0252167Y0280004D01*
X0253122Y0280698D01*
X0254509Y0278788D01*
G37*
G36*
X0257057Y0280639D02*
X0256102Y0279945D01*
X0254715Y0281855D01*
X0255670Y0282549D01*
X0257057Y0280639D01*
G37*
G36*
X0259605Y0282491D02*
X0258650Y0281797D01*
X0257263Y0283707D01*
X0258218Y0284401D01*
X0259605Y0282491D01*
G37*
G36*
X0263539Y0277076D02*
X0262584Y0276382D01*
X0261197Y0278292D01*
X0262152Y0278986D01*
X0263539Y0277076D01*
G37*
G36*
X0260991Y0275225D02*
X0260036Y0274531D01*
X0258649Y0276441D01*
X0259604Y0277135D01*
X0260991Y0275225D01*
G37*
G36*
X0258443Y0273373D02*
X0257488Y0272679D01*
X0256101Y0274589D01*
X0257056Y0275283D01*
X0258443Y0273373D01*
G37*
G36*
X0270290Y0282674D02*
X0269413Y0281884D01*
X0267834Y0283638D01*
X0268711Y0284428D01*
X0270290Y0282674D01*
G37*
G36*
X0272631Y0284781D02*
X0271754Y0283991D01*
X0270175Y0285745D01*
X0271052Y0286535D01*
X0272631Y0284781D01*
G37*
G36*
X0274971Y0286889D02*
X0274094Y0286099D01*
X0272515Y0287853D01*
X0273392Y0288643D01*
X0274971Y0286889D01*
G37*
G36*
X0270493Y0291862D02*
X0269616Y0291072D01*
X0268037Y0292826D01*
X0268914Y0293616D01*
X0270493Y0291862D01*
G37*
G36*
X0268152Y0289755D02*
X0267275Y0288965D01*
X0265696Y0290719D01*
X0266573Y0291509D01*
X0268152Y0289755D01*
G37*
G36*
X0265811Y0287647D02*
X0264934Y0286857D01*
X0263355Y0288611D01*
X0264232Y0289401D01*
X0265811Y0287647D01*
G37*
G36*
X0276141Y0297618D02*
X0275351Y0296741D01*
X0273597Y0298320D01*
X0274387Y0299197D01*
X0276141Y0297618D01*
G37*
G36*
X0278248Y0299958D02*
X0277458Y0299081D01*
X0275704Y0300660D01*
X0276494Y0301537D01*
X0278248Y0299958D01*
G37*
G36*
X0280356Y0302299D02*
X0279566Y0301422D01*
X0277812Y0303001D01*
X0278602Y0303878D01*
X0280356Y0302299D01*
G37*
G36*
X0285330Y0297820D02*
X0284540Y0296943D01*
X0282786Y0298522D01*
X0283576Y0299399D01*
X0285330Y0297820D01*
G37*
G36*
X0283222Y0295480D02*
X0282432Y0294603D01*
X0280678Y0296182D01*
X0281468Y0297059D01*
X0283222Y0295480D01*
G37*
G36*
X0281115Y0293139D02*
X0280325Y0292262D01*
X0278571Y0293841D01*
X0279361Y0294718D01*
X0281115Y0293139D01*
G37*
G36*
X0290851Y0304679D02*
X0290157Y0303724D01*
X0288247Y0305111D01*
X0288941Y0306066D01*
X0290851Y0304679D01*
G37*
G36*
X0292703Y0307227D02*
X0292009Y0306272D01*
X0290099Y0307659D01*
X0290793Y0308614D01*
X0292703Y0307227D01*
G37*
G36*
X0294554Y0309775D02*
X0293860Y0308820D01*
X0291950Y0310207D01*
X0292644Y0311162D01*
X0294554Y0309775D01*
G37*
G36*
X0299274Y0317160D02*
X0298684Y0316138D01*
X0296640Y0317318D01*
X0297230Y0318340D01*
X0299274Y0317160D01*
G37*
G36*
X0300848Y0319888D02*
X0300258Y0318866D01*
X0298214Y0320046D01*
X0298804Y0321068D01*
X0300848Y0319888D01*
G37*
G36*
X0302423Y0322615D02*
X0301833Y0321593D01*
X0299789Y0322773D01*
X0300379Y0323795D01*
X0302423Y0322615D01*
G37*
G36*
X0296627Y0325962D02*
X0296037Y0324940D01*
X0293993Y0326120D01*
X0294583Y0327142D01*
X0296627Y0325962D01*
G37*
G36*
X0295052Y0323234D02*
X0294462Y0322212D01*
X0292418Y0323392D01*
X0293008Y0324414D01*
X0295052Y0323234D01*
G37*
G36*
X0293477Y0320507D02*
X0292887Y0319485D01*
X0290843Y0320665D01*
X0291433Y0321687D01*
X0293477Y0320507D01*
G37*
G36*
X0289139Y0313709D02*
X0288445Y0312754D01*
X0286535Y0314141D01*
X0287229Y0315096D01*
X0289139Y0313709D01*
G37*
G36*
X0287288Y0311161D02*
X0286594Y0310206D01*
X0284684Y0311593D01*
X0285378Y0312548D01*
X0287288Y0311161D01*
G37*
G36*
X0285437Y0308613D02*
X0284743Y0307658D01*
X0282833Y0309045D01*
X0283527Y0310000D01*
X0285437Y0308613D01*
G37*
G36*
X0300243Y0333212D02*
X0299763Y0332135D01*
X0297607Y0333096D01*
X0298087Y0334173D01*
X0300243Y0333212D01*
G37*
G36*
X0301524Y0336089D02*
X0301044Y0335012D01*
X0298888Y0335973D01*
X0299368Y0337050D01*
X0301524Y0336089D01*
G37*
G36*
X0302805Y0338966D02*
X0302325Y0337889D01*
X0300169Y0338850D01*
X0300649Y0339927D01*
X0302805Y0338966D01*
G37*
G36*
X0308920Y0336244D02*
X0308440Y0335167D01*
X0306284Y0336128D01*
X0306764Y0337205D01*
X0308920Y0336244D01*
G37*
G36*
X0307638Y0333367D02*
X0307158Y0332290D01*
X0305002Y0333251D01*
X0305482Y0334328D01*
X0307638Y0333367D01*
G37*
G36*
X0306357Y0330490D02*
X0305877Y0329413D01*
X0303721Y0330374D01*
X0304201Y0331451D01*
X0306357Y0330490D01*
G37*
G36*
X0311998Y0344456D02*
X0311633Y0343334D01*
X0309388Y0344064D01*
X0309753Y0345186D01*
X0311998Y0344456D01*
G37*
G36*
X0312971Y0347452D02*
X0312606Y0346330D01*
X0310361Y0347060D01*
X0310726Y0348182D01*
X0312971Y0347452D01*
G37*
G36*
X0313944Y0350447D02*
X0313579Y0349325D01*
X0311334Y0350055D01*
X0311699Y0351177D01*
X0313944Y0350447D01*
G37*
G36*
X0316189Y0358964D02*
X0315944Y0357811D01*
X0313635Y0358302D01*
X0313880Y0359455D01*
X0316189Y0358964D01*
G37*
G36*
X0316844Y0362045D02*
X0316599Y0360892D01*
X0314290Y0361383D01*
X0314535Y0362536D01*
X0316844Y0362045D01*
G37*
G36*
X0317498Y0365126D02*
X0317253Y0363973D01*
X0314944Y0364464D01*
X0315189Y0365617D01*
X0317498Y0365126D01*
G37*
G36*
X0310952Y0366518D02*
X0310707Y0365365D01*
X0308398Y0365856D01*
X0308643Y0367009D01*
X0310952Y0366518D01*
G37*
G36*
X0310297Y0363437D02*
X0310052Y0362284D01*
X0307743Y0362775D01*
X0307988Y0363928D01*
X0310297Y0363437D01*
G37*
G36*
X0309642Y0360356D02*
X0309397Y0359203D01*
X0307088Y0359694D01*
X0307333Y0360847D01*
X0309642Y0360356D01*
G37*
G36*
X0307579Y0352516D02*
X0307214Y0351394D01*
X0304969Y0352124D01*
X0305334Y0353246D01*
X0307579Y0352516D01*
G37*
G36*
X0306606Y0349520D02*
X0306241Y0348398D01*
X0303996Y0349128D01*
X0304361Y0350250D01*
X0306606Y0349520D01*
G37*
G36*
X0305632Y0346525D02*
X0305267Y0345403D01*
X0303022Y0346133D01*
X0303387Y0347255D01*
X0305632Y0346525D01*
G37*
G36*
X0312172Y0374470D02*
X0312048Y0373297D01*
X0309700Y0373544D01*
X0309824Y0374717D01*
X0312172Y0374470D01*
G37*
G36*
X0312501Y0377603D02*
X0312377Y0376430D01*
X0310029Y0376677D01*
X0310153Y0377850D01*
X0312501Y0377603D01*
G37*
G36*
X0312830Y0380735D02*
X0312706Y0379562D01*
X0310358Y0379809D01*
X0310482Y0380982D01*
X0312830Y0380735D01*
G37*
G36*
X0319487Y0380036D02*
X0319363Y0378863D01*
X0317015Y0379110D01*
X0317139Y0380283D01*
X0319487Y0380036D01*
G37*
G36*
X0319157Y0376903D02*
X0319033Y0375730D01*
X0316685Y0375977D01*
X0316809Y0377150D01*
X0319157Y0376903D01*
G37*
G36*
X0318828Y0373771D02*
X0318704Y0372598D01*
X0316356Y0372845D01*
X0316480Y0374018D01*
X0318828Y0373771D01*
G37*
G36*
X0319333Y0403937D02*
X0319457Y0402764D01*
X0317109Y0402517D01*
X0316985Y0403690D01*
X0319333Y0403937D01*
G37*
G36*
X0319003Y0407070D02*
X0319127Y0405897D01*
X0316779Y0405650D01*
X0316655Y0406823D01*
X0319003Y0407070D01*
G37*
G36*
X0318674Y0410202D02*
X0318798Y0409029D01*
X0316450Y0408782D01*
X0316326Y0409955D01*
X0318674Y0410202D01*
G37*
G36*
X0317263Y0418837D02*
X0317508Y0417684D01*
X0315199Y0417193D01*
X0314954Y0418346D01*
X0317263Y0418837D01*
G37*
G36*
X0316609Y0421918D02*
X0316854Y0420765D01*
X0314545Y0420274D01*
X0314300Y0421427D01*
X0316609Y0421918D01*
G37*
G36*
X0315954Y0424999D02*
X0316199Y0423846D01*
X0313890Y0423355D01*
X0313645Y0424508D01*
X0315954Y0424999D01*
G37*
G36*
X0313599Y0433445D02*
X0313964Y0432323D01*
X0311719Y0431593D01*
X0311354Y0432715D01*
X0313599Y0433445D01*
G37*
G36*
X0312626Y0436440D02*
X0312991Y0435318D01*
X0310746Y0434588D01*
X0310381Y0435710D01*
X0312626Y0436440D01*
G37*
G36*
X0311653Y0439436D02*
X0312018Y0438314D01*
X0309773Y0437584D01*
X0309408Y0438706D01*
X0311653Y0439436D01*
G37*
G36*
X0305287Y0437367D02*
X0305652Y0436245D01*
X0303407Y0435515D01*
X0303042Y0436637D01*
X0305287Y0437367D01*
G37*
G36*
X0306261Y0434372D02*
X0306626Y0433250D01*
X0304381Y0432520D01*
X0304016Y0433642D01*
X0306261Y0434372D01*
G37*
G36*
X0307234Y0431376D02*
X0307599Y0430254D01*
X0305354Y0429524D01*
X0304989Y0430646D01*
X0307234Y0431376D01*
G37*
G36*
X0309407Y0423607D02*
X0309652Y0422454D01*
X0307343Y0421963D01*
X0307098Y0423116D01*
X0309407Y0423607D01*
G37*
G36*
X0310062Y0420526D02*
X0310307Y0419373D01*
X0307998Y0418882D01*
X0307753Y0420035D01*
X0310062Y0420526D01*
G37*
G36*
X0310717Y0417445D02*
X0310962Y0416292D01*
X0308653Y0415801D01*
X0308408Y0416954D01*
X0310717Y0417445D01*
G37*
G36*
X0312018Y0409503D02*
X0312142Y0408330D01*
X0309794Y0408083D01*
X0309670Y0409256D01*
X0312018Y0409503D01*
G37*
G36*
X0312347Y0406370D02*
X0312471Y0405197D01*
X0310123Y0404950D01*
X0309999Y0406123D01*
X0312347Y0406370D01*
G37*
G36*
X0312676Y0403238D02*
X0312800Y0402065D01*
X0310452Y0401818D01*
X0310328Y0402991D01*
X0312676Y0403238D01*
G37*
G36*
X0302335Y0444921D02*
X0302815Y0443844D01*
X0300659Y0442883D01*
X0300179Y0443960D01*
X0302335Y0444921D01*
G37*
G36*
X0301054Y0447798D02*
X0301534Y0446721D01*
X0299378Y0445760D01*
X0298898Y0446837D01*
X0301054Y0447798D01*
G37*
G36*
X0299773Y0450675D02*
X0300253Y0449598D01*
X0298097Y0448637D01*
X0297617Y0449714D01*
X0299773Y0450675D01*
G37*
G36*
X0305887Y0453397D02*
X0306367Y0452320D01*
X0304211Y0451359D01*
X0303731Y0452436D01*
X0305887Y0453397D01*
G37*
G36*
X0307168Y0450520D02*
X0307648Y0449443D01*
X0305492Y0448482D01*
X0305012Y0449559D01*
X0307168Y0450520D01*
G37*
G36*
X0308450Y0447643D02*
X0308930Y0446566D01*
X0306774Y0445605D01*
X0306294Y0446682D01*
X0308450Y0447643D01*
G37*
G36*
X0301833Y0461207D02*
X0302423Y0460185D01*
X0300379Y0459005D01*
X0299789Y0460027D01*
X0301833Y0461207D01*
G37*
G36*
X0300258Y0463934D02*
X0300848Y0462912D01*
X0298804Y0461732D01*
X0298214Y0462754D01*
X0300258Y0463934D01*
G37*
G36*
X0298684Y0466662D02*
X0299274Y0465640D01*
X0297230Y0464460D01*
X0296640Y0465482D01*
X0298684Y0466662D01*
G37*
G36*
X0292887Y0463315D02*
X0293477Y0462293D01*
X0291433Y0461113D01*
X0290843Y0462135D01*
X0292887Y0463315D01*
G37*
G36*
X0294462Y0460588D02*
X0295052Y0459566D01*
X0293008Y0458386D01*
X0292418Y0459408D01*
X0294462Y0460588D01*
G37*
G36*
X0296037Y0457860D02*
X0296627Y0456838D01*
X0294583Y0455658D01*
X0293993Y0456680D01*
X0296037Y0457860D01*
G37*
G36*
X0288455Y0470036D02*
X0289149Y0469081D01*
X0287239Y0467694D01*
X0286545Y0468649D01*
X0288455Y0470036D01*
G37*
G36*
X0286604Y0472584D02*
X0287298Y0471629D01*
X0285388Y0470242D01*
X0284694Y0471197D01*
X0286604Y0472584D01*
G37*
G36*
X0284753Y0475132D02*
X0285447Y0474177D01*
X0283537Y0472790D01*
X0282843Y0473745D01*
X0284753Y0475132D01*
G37*
G36*
X0290167Y0479066D02*
X0290861Y0478111D01*
X0288951Y0476724D01*
X0288257Y0477679D01*
X0290167Y0479066D01*
G37*
G36*
X0292019Y0476518D02*
X0292713Y0475563D01*
X0290803Y0474176D01*
X0290109Y0475131D01*
X0292019Y0476518D01*
G37*
G36*
X0293870Y0473970D02*
X0294564Y0473015D01*
X0292654Y0471628D01*
X0291960Y0472583D01*
X0293870Y0473970D01*
G37*
G36*
X0284560Y0485887D02*
X0285350Y0485010D01*
X0283596Y0483431D01*
X0282806Y0484308D01*
X0284560Y0485887D01*
G37*
G36*
X0282452Y0488227D02*
X0283242Y0487350D01*
X0281488Y0485771D01*
X0280698Y0486648D01*
X0282452Y0488227D01*
G37*
G36*
X0280345Y0490568D02*
X0281135Y0489691D01*
X0279381Y0488112D01*
X0278591Y0488989D01*
X0280345Y0490568D01*
G37*
G36*
X0277478Y0483749D02*
X0278268Y0482872D01*
X0276514Y0481293D01*
X0275724Y0482170D01*
X0277478Y0483749D01*
G37*
G36*
X0275371Y0486089D02*
X0276161Y0485212D01*
X0274407Y0483633D01*
X0273617Y0484510D01*
X0275371Y0486089D01*
G37*
G36*
X0279586Y0481408D02*
X0280376Y0480531D01*
X0278622Y0478952D01*
X0277832Y0479829D01*
X0279586Y0481408D01*
G37*
G36*
X0269626Y0491718D02*
X0270503Y0490928D01*
X0268924Y0489174D01*
X0268047Y0489964D01*
X0269626Y0491718D01*
G37*
G36*
X0267285Y0493825D02*
X0268162Y0493035D01*
X0266583Y0491281D01*
X0265706Y0492071D01*
X0267285Y0493825D01*
G37*
G36*
X0264944Y0495933D02*
X0265821Y0495143D01*
X0264242Y0493389D01*
X0263365Y0494179D01*
X0264944Y0495933D01*
G37*
G36*
X0269423Y0500906D02*
X0270300Y0500116D01*
X0268721Y0498362D01*
X0267844Y0499152D01*
X0269423Y0500906D01*
G37*
G36*
X0271764Y0498799D02*
X0272641Y0498009D01*
X0271062Y0496255D01*
X0270185Y0497045D01*
X0271764Y0498799D01*
G37*
G36*
X0274104Y0496691D02*
X0274981Y0495901D01*
X0273402Y0494147D01*
X0272525Y0494937D01*
X0274104Y0496691D01*
G37*
G36*
X0262554Y0506418D02*
X0263509Y0505724D01*
X0262122Y0503814D01*
X0261167Y0504508D01*
X0262554Y0506418D01*
G37*
G36*
X0260006Y0508269D02*
X0260961Y0507575D01*
X0259574Y0505665D01*
X0258619Y0506359D01*
X0260006Y0508269D01*
G37*
G36*
X0257458Y0510121D02*
X0258413Y0509427D01*
X0257026Y0507517D01*
X0256071Y0508211D01*
X0257458Y0510121D01*
G37*
G36*
X0253524Y0504706D02*
X0254479Y0504012D01*
X0253092Y0502102D01*
X0252137Y0502796D01*
X0253524Y0504706D01*
G37*
G36*
X0256072Y0502855D02*
X0257027Y0502161D01*
X0255640Y0500251D01*
X0254685Y0500945D01*
X0256072Y0502855D01*
G37*
G36*
X0258620Y0501003D02*
X0259575Y0500309D01*
X0258188Y0498399D01*
X0257233Y0499093D01*
X0258620Y0501003D01*
G37*
G36*
X0246727Y0509024D02*
X0247749Y0508434D01*
X0246569Y0506390D01*
X0245547Y0506980D01*
X0246727Y0509024D01*
G37*
G36*
X0243999Y0510599D02*
X0245021Y0510009D01*
X0243841Y0507965D01*
X0242819Y0508555D01*
X0243999Y0510599D01*
G37*
G36*
X0241271Y0512174D02*
X0242293Y0511584D01*
X0241113Y0509540D01*
X0240091Y0510130D01*
X0241271Y0512174D01*
G37*
G36*
X0244618Y0517970D02*
X0245640Y0517380D01*
X0244460Y0515336D01*
X0243438Y0515926D01*
X0244618Y0517970D01*
G37*
G36*
X0247346Y0516395D02*
X0248368Y0515805D01*
X0247188Y0513761D01*
X0246166Y0514351D01*
X0247346Y0516395D01*
G37*
G36*
X0250073Y0514820D02*
X0251095Y0514230D01*
X0249915Y0512186D01*
X0248893Y0512776D01*
X0250073Y0514820D01*
G37*
G36*
X0236764Y0521934D02*
X0237841Y0521454D01*
X0236880Y0519298D01*
X0235803Y0519778D01*
X0236764Y0521934D01*
G37*
G36*
X0233886Y0523215D02*
X0234963Y0522735D01*
X0234002Y0520579D01*
X0232925Y0521059D01*
X0233886Y0523215D01*
G37*
G36*
X0231009Y0524496D02*
X0232086Y0524016D01*
X0231125Y0521860D01*
X0230048Y0522340D01*
X0231009Y0524496D01*
G37*
G36*
X0228287Y0518382D02*
X0229364Y0517902D01*
X0228403Y0515746D01*
X0227326Y0516226D01*
X0228287Y0518382D01*
G37*
G36*
X0231164Y0517101D02*
X0232241Y0516621D01*
X0231280Y0514465D01*
X0230203Y0514945D01*
X0231164Y0517101D01*
G37*
G36*
X0234042Y0515820D02*
X0235119Y0515340D01*
X0234158Y0513184D01*
X0233081Y0513664D01*
X0234042Y0515820D01*
G37*
G36*
X0222787Y0527574D02*
X0223909Y0527209D01*
X0223179Y0524964D01*
X0222057Y0525329D01*
X0222787Y0527574D01*
G37*
G36*
X0219791Y0528548D02*
X0220913Y0528183D01*
X0220183Y0525938D01*
X0219061Y0526303D01*
X0219791Y0528548D01*
G37*
G36*
X0216796Y0529521D02*
X0217918Y0529156D01*
X0217188Y0526911D01*
X0216066Y0527276D01*
X0216796Y0529521D01*
G37*
G36*
X0214728Y0523156D02*
X0215850Y0522791D01*
X0215120Y0520546D01*
X0213998Y0520911D01*
X0214728Y0523156D01*
G37*
G36*
X0217723Y0522182D02*
X0218845Y0521817D01*
X0218115Y0519572D01*
X0216993Y0519937D01*
X0217723Y0522182D01*
G37*
G36*
X0220719Y0521209D02*
X0221841Y0520844D01*
X0221111Y0518599D01*
X0219989Y0518964D01*
X0220719Y0521209D01*
G37*
G36*
X0208289Y0531765D02*
X0209442Y0531520D01*
X0208951Y0529211D01*
X0207798Y0529456D01*
X0208289Y0531765D01*
G37*
G36*
X0205208Y0532420D02*
X0206361Y0532175D01*
X0205870Y0529866D01*
X0204717Y0530111D01*
X0205208Y0532420D01*
G37*
G36*
X0202127Y0533075D02*
X0203280Y0532830D01*
X0202789Y0530521D01*
X0201636Y0530766D01*
X0202127Y0533075D01*
G37*
G36*
X0200736Y0526529D02*
X0201889Y0526284D01*
X0201398Y0523975D01*
X0200245Y0524220D01*
X0200736Y0526529D01*
G37*
G36*
X0203817Y0525874D02*
X0204970Y0525629D01*
X0204479Y0523320D01*
X0203326Y0523565D01*
X0203817Y0525874D01*
G37*
G36*
X0206897Y0525219D02*
X0208050Y0524974D01*
X0207559Y0522665D01*
X0206406Y0522910D01*
X0206897Y0525219D01*
G37*
G36*
X0192743Y0527729D02*
X0193916Y0527605D01*
X0193669Y0525257D01*
X0192496Y0525381D01*
X0192743Y0527729D01*
G37*
G36*
X0189611Y0528058D02*
X0190784Y0527934D01*
X0190537Y0525586D01*
X0189364Y0525710D01*
X0189611Y0528058D01*
G37*
G36*
X0186478Y0528387D02*
X0187651Y0528263D01*
X0187404Y0525915D01*
X0186231Y0526039D01*
X0186478Y0528387D01*
G37*
G36*
X0187178Y0535043D02*
X0188351Y0534919D01*
X0188104Y0532571D01*
X0186931Y0532695D01*
X0187178Y0535043D01*
G37*
G36*
X0190310Y0534714D02*
X0191483Y0534590D01*
X0191236Y0532242D01*
X0190063Y0532366D01*
X0190310Y0534714D01*
G37*
G36*
X0193442Y0534385D02*
X0194615Y0534261D01*
X0194368Y0531913D01*
X0193195Y0532037D01*
X0193442Y0534385D01*
G37*
X0178963Y0534256D03*
X0175813Y0534256D03*
X0172664Y0534256D03*
X0172664Y0527564D03*
X0175813Y0527564D03*
X0178963Y0527564D03*
G36*
X0164015Y0528253D02*
X0165188Y0528377D01*
X0165435Y0526029D01*
X0164262Y0525905D01*
X0164015Y0528253D01*
G37*
G36*
X0160883Y0527924D02*
X0162056Y0528048D01*
X0162303Y0525700D01*
X0161130Y0525576D01*
X0160883Y0527924D01*
G37*
G36*
X0157751Y0527595D02*
X0158924Y0527719D01*
X0159171Y0525371D01*
X0157998Y0525247D01*
X0157751Y0527595D01*
G37*
G36*
X0157051Y0534251D02*
X0158224Y0534375D01*
X0158471Y0532027D01*
X0157298Y0531903D01*
X0157051Y0534251D01*
G37*
G36*
X0160184Y0534580D02*
X0161357Y0534704D01*
X0161604Y0532356D01*
X0160431Y0532232D01*
X0160184Y0534580D01*
G37*
G36*
X0163316Y0534909D02*
X0164489Y0535033D01*
X0164736Y0532685D01*
X0163563Y0532561D01*
X0163316Y0534909D01*
G37*
G36*
X0149778Y0526254D02*
X0150931Y0526499D01*
X0151422Y0524190D01*
X0150269Y0523945D01*
X0149778Y0526254D01*
G37*
G36*
X0146697Y0525599D02*
X0147850Y0525844D01*
X0148341Y0523535D01*
X0147188Y0523290D01*
X0146697Y0525599D01*
G37*
G36*
X0143616Y0524944D02*
X0144769Y0525189D01*
X0145260Y0522880D01*
X0144107Y0522635D01*
X0143616Y0524944D01*
G37*
G36*
X0142225Y0531490D02*
X0143378Y0531735D01*
X0143869Y0529426D01*
X0142716Y0529181D01*
X0142225Y0531490D01*
G37*
G36*
X0145306Y0532145D02*
X0146459Y0532390D01*
X0146950Y0530081D01*
X0145797Y0529836D01*
X0145306Y0532145D01*
G37*
G36*
X0148386Y0532800D02*
X0149539Y0533045D01*
X0150030Y0530736D01*
X0148877Y0530491D01*
X0148386Y0532800D01*
G37*
G36*
X0135847Y0522781D02*
X0136969Y0523146D01*
X0137699Y0520901D01*
X0136577Y0520536D01*
X0135847Y0522781D01*
G37*
G36*
X0132851Y0521807D02*
X0133973Y0522172D01*
X0134703Y0519927D01*
X0133581Y0519562D01*
X0132851Y0521807D01*
G37*
G36*
X0129856Y0520834D02*
X0130978Y0521199D01*
X0131708Y0518954D01*
X0130586Y0518589D01*
X0129856Y0520834D01*
G37*
G36*
X0127788Y0527199D02*
X0128910Y0527564D01*
X0129640Y0525319D01*
X0128518Y0524954D01*
X0127788Y0527199D01*
G37*
G36*
X0130783Y0528173D02*
X0131905Y0528538D01*
X0132635Y0526293D01*
X0131513Y0525928D01*
X0130783Y0528173D01*
G37*
G36*
X0133779Y0529146D02*
X0134901Y0529511D01*
X0135631Y0527266D01*
X0134509Y0526901D01*
X0133779Y0529146D01*
G37*
G36*
X0122283Y0517932D02*
X0123360Y0518412D01*
X0124321Y0516256D01*
X0123244Y0515776D01*
X0122283Y0517932D01*
G37*
G36*
X0119405Y0516651D02*
X0120482Y0517131D01*
X0121443Y0514975D01*
X0120366Y0514495D01*
X0119405Y0516651D01*
G37*
G36*
X0116528Y0515370D02*
X0117605Y0515850D01*
X0118566Y0513694D01*
X0117489Y0513214D01*
X0116528Y0515370D01*
G37*
G36*
X0113806Y0521484D02*
X0114883Y0521964D01*
X0115844Y0519808D01*
X0114767Y0519328D01*
X0113806Y0521484D01*
G37*
G36*
X0116683Y0522765D02*
X0117760Y0523245D01*
X0118721Y0521089D01*
X0117644Y0520609D01*
X0116683Y0522765D01*
G37*
G36*
X0119561Y0524046D02*
X0120638Y0524526D01*
X0121599Y0522370D01*
X0120522Y0521890D01*
X0119561Y0524046D01*
G37*
G36*
X0106047Y0517400D02*
X0107069Y0517990D01*
X0108249Y0515946D01*
X0107227Y0515356D01*
X0106047Y0517400D01*
G37*
G36*
X0103319Y0515825D02*
X0104341Y0516415D01*
X0105521Y0514371D01*
X0104499Y0513781D01*
X0103319Y0515825D01*
G37*
G36*
X0100591Y0514250D02*
X0101613Y0514840D01*
X0102793Y0512796D01*
X0101771Y0512206D01*
X0100591Y0514250D01*
G37*
G36*
X0103938Y0508454D02*
X0104960Y0509044D01*
X0106140Y0507000D01*
X0105118Y0506410D01*
X0103938Y0508454D01*
G37*
G36*
X0106666Y0510029D02*
X0107688Y0510619D01*
X0108868Y0508575D01*
X0107846Y0507985D01*
X0106666Y0510029D01*
G37*
G36*
X0109393Y0511604D02*
X0110415Y0512194D01*
X0111595Y0510150D01*
X0110573Y0509560D01*
X0109393Y0511604D01*
G37*
G36*
X0097167Y0503992D02*
X0098122Y0504686D01*
X0099509Y0502776D01*
X0098554Y0502082D01*
X0097167Y0503992D01*
G37*
G36*
X0094619Y0502141D02*
X0095574Y0502835D01*
X0096961Y0500925D01*
X0096006Y0500231D01*
X0094619Y0502141D01*
G37*
G36*
X0092071Y0500289D02*
X0093026Y0500983D01*
X0094413Y0499073D01*
X0093458Y0498379D01*
X0092071Y0500289D01*
G37*
G36*
X0088137Y0505704D02*
X0089092Y0506398D01*
X0090479Y0504488D01*
X0089524Y0503794D01*
X0088137Y0505704D01*
G37*
G36*
X0090685Y0507555D02*
X0091640Y0508249D01*
X0093027Y0506339D01*
X0092072Y0505645D01*
X0090685Y0507555D01*
G37*
G36*
X0093233Y0509407D02*
X0094188Y0510101D01*
X0095575Y0508191D01*
X0094620Y0507497D01*
X0093233Y0509407D01*
G37*
G36*
X0081337Y0500146D02*
X0082214Y0500936D01*
X0083793Y0499182D01*
X0082916Y0498392D01*
X0081337Y0500146D01*
G37*
G36*
X0078996Y0498039D02*
X0079873Y0498829D01*
X0081452Y0497075D01*
X0080575Y0496285D01*
X0078996Y0498039D01*
G37*
G36*
X0076655Y0495931D02*
X0077532Y0496721D01*
X0079111Y0494967D01*
X0078234Y0494177D01*
X0076655Y0495931D01*
G37*
G36*
X0070532Y0489701D02*
X0071322Y0490578D01*
X0073076Y0488999D01*
X0072286Y0488122D01*
X0070532Y0489701D01*
G37*
G36*
X0068424Y0487360D02*
X0069214Y0488237D01*
X0070968Y0486658D01*
X0070178Y0485781D01*
X0068424Y0487360D01*
G37*
G36*
X0066317Y0485020D02*
X0067107Y0485897D01*
X0068861Y0484318D01*
X0068071Y0483441D01*
X0066317Y0485020D01*
G37*
G36*
X0060835Y0478111D02*
X0061529Y0479066D01*
X0063439Y0477679D01*
X0062745Y0476724D01*
X0060835Y0478111D01*
G37*
G36*
X0058984Y0475563D02*
X0059678Y0476518D01*
X0061588Y0475131D01*
X0060894Y0474176D01*
X0058984Y0475563D01*
G37*
G36*
X0057133Y0473015D02*
X0057827Y0473970D01*
X0059737Y0472583D01*
X0059043Y0471628D01*
X0057133Y0473015D01*
G37*
G36*
X0052393Y0465630D02*
X0052983Y0466652D01*
X0055027Y0465472D01*
X0054437Y0464450D01*
X0052393Y0465630D01*
G37*
G36*
X0050818Y0462902D02*
X0051408Y0463924D01*
X0053452Y0462744D01*
X0052862Y0461722D01*
X0050818Y0462902D01*
G37*
G36*
X0049243Y0460175D02*
X0049833Y0461197D01*
X0051877Y0460017D01*
X0051287Y0458995D01*
X0049243Y0460175D01*
G37*
G36*
X0055040Y0456828D02*
X0055630Y0457850D01*
X0057674Y0456670D01*
X0057084Y0455648D01*
X0055040Y0456828D01*
G37*
G36*
X0056614Y0459556D02*
X0057204Y0460578D01*
X0059248Y0459398D01*
X0058658Y0458376D01*
X0056614Y0459556D01*
G37*
G36*
X0058189Y0462283D02*
X0058779Y0463305D01*
X0060823Y0462125D01*
X0060233Y0461103D01*
X0058189Y0462283D01*
G37*
G36*
X0062547Y0469081D02*
X0063241Y0470036D01*
X0065151Y0468649D01*
X0064457Y0467694D01*
X0062547Y0469081D01*
G37*
G36*
X0064399Y0471629D02*
X0065093Y0472584D01*
X0067003Y0471197D01*
X0066309Y0470242D01*
X0064399Y0471629D01*
G37*
G36*
X0066250Y0474177D02*
X0066944Y0475132D01*
X0068854Y0473745D01*
X0068160Y0472790D01*
X0066250Y0474177D01*
G37*
G36*
X0071291Y0480541D02*
X0072081Y0481418D01*
X0073835Y0479839D01*
X0073045Y0478962D01*
X0071291Y0480541D01*
G37*
G36*
X0073398Y0482882D02*
X0074188Y0483759D01*
X0075942Y0482180D01*
X0075152Y0481303D01*
X0073398Y0482882D01*
G37*
G36*
X0075506Y0485222D02*
X0076296Y0486099D01*
X0078050Y0484520D01*
X0077260Y0483643D01*
X0075506Y0485222D01*
G37*
G36*
X0081134Y0490958D02*
X0082011Y0491748D01*
X0083590Y0489994D01*
X0082713Y0489204D01*
X0081134Y0490958D01*
G37*
G36*
X0083475Y0493065D02*
X0084352Y0493855D01*
X0085931Y0492101D01*
X0085054Y0491311D01*
X0083475Y0493065D01*
G37*
G36*
X0085815Y0495173D02*
X0086692Y0495963D01*
X0088271Y0494209D01*
X0087394Y0493419D01*
X0085815Y0495173D01*
G37*
G36*
X0051394Y0449588D02*
X0051874Y0450665D01*
X0054030Y0449704D01*
X0053550Y0448627D01*
X0051394Y0449588D01*
G37*
G36*
X0050112Y0446711D02*
X0050592Y0447788D01*
X0052748Y0446827D01*
X0052268Y0445750D01*
X0050112Y0446711D01*
G37*
G36*
X0048831Y0443834D02*
X0049311Y0444911D01*
X0051467Y0443950D01*
X0050987Y0442873D01*
X0048831Y0443834D01*
G37*
G36*
X0042717Y0446556D02*
X0043197Y0447633D01*
X0045353Y0446672D01*
X0044873Y0445595D01*
X0042717Y0446556D01*
G37*
G36*
X0043998Y0449433D02*
X0044478Y0450510D01*
X0046634Y0449549D01*
X0046154Y0448472D01*
X0043998Y0449433D01*
G37*
G36*
X0045279Y0452310D02*
X0045759Y0453387D01*
X0047915Y0452426D01*
X0047435Y0451349D01*
X0045279Y0452310D01*
G37*
G36*
X0039669Y0438354D02*
X0040034Y0439476D01*
X0042279Y0438746D01*
X0041914Y0437624D01*
X0039669Y0438354D01*
G37*
G36*
X0038696Y0435358D02*
X0039061Y0436480D01*
X0041306Y0435750D01*
X0040941Y0434628D01*
X0038696Y0435358D01*
G37*
G36*
X0037722Y0432363D02*
X0038087Y0433485D01*
X0040332Y0432755D01*
X0039967Y0431633D01*
X0037722Y0432363D01*
G37*
G36*
X0035508Y0423866D02*
X0035753Y0425019D01*
X0038062Y0424528D01*
X0037817Y0423375D01*
X0035508Y0423866D01*
G37*
G36*
X0034853Y0420785D02*
X0035098Y0421938D01*
X0037407Y0421447D01*
X0037162Y0420294D01*
X0034853Y0420785D01*
G37*
G36*
X0034198Y0417704D02*
X0034443Y0418857D01*
X0036752Y0418366D01*
X0036507Y0417213D01*
X0034198Y0417704D01*
G37*
G36*
X0040745Y0416312D02*
X0040990Y0417465D01*
X0043299Y0416974D01*
X0043054Y0415821D01*
X0040745Y0416312D01*
G37*
G36*
X0041400Y0419393D02*
X0041645Y0420546D01*
X0043954Y0420055D01*
X0043709Y0418902D01*
X0041400Y0419393D01*
G37*
G36*
X0042055Y0422474D02*
X0042300Y0423627D01*
X0044609Y0423136D01*
X0044364Y0421983D01*
X0042055Y0422474D01*
G37*
G36*
X0044088Y0430294D02*
X0044453Y0431416D01*
X0046698Y0430686D01*
X0046333Y0429564D01*
X0044088Y0430294D01*
G37*
G36*
X0045061Y0433290D02*
X0045426Y0434412D01*
X0047671Y0433682D01*
X0047306Y0432560D01*
X0045061Y0433290D01*
G37*
G36*
X0046034Y0436285D02*
X0046399Y0437407D01*
X0048644Y0436677D01*
X0048279Y0435555D01*
X0046034Y0436285D01*
G37*
G36*
X0039515Y0408310D02*
X0039639Y0409483D01*
X0041987Y0409236D01*
X0041863Y0408063D01*
X0039515Y0408310D01*
G37*
G36*
X0039185Y0405177D02*
X0039309Y0406350D01*
X0041657Y0406103D01*
X0041533Y0404930D01*
X0039185Y0405177D01*
G37*
G36*
X0038856Y0402045D02*
X0038980Y0403218D01*
X0041328Y0402971D01*
X0041204Y0401798D01*
X0038856Y0402045D01*
G37*
G36*
X0032858Y0409009D02*
X0032982Y0410182D01*
X0035330Y0409935D01*
X0035206Y0408762D01*
X0032858Y0409009D01*
G37*
G36*
X0032529Y0405877D02*
X0032653Y0407050D01*
X0035001Y0406803D01*
X0034877Y0405630D01*
X0032529Y0405877D01*
G37*
G36*
X0032200Y0402744D02*
X0032324Y0403917D01*
X0034672Y0403670D01*
X0034548Y0402497D01*
X0032200Y0402744D01*
G37*
G36*
X0032334Y0378893D02*
X0032210Y0380066D01*
X0034558Y0380313D01*
X0034682Y0379140D01*
X0032334Y0378893D01*
G37*
G36*
X0032663Y0375760D02*
X0032539Y0376933D01*
X0034887Y0377180D01*
X0035011Y0376007D01*
X0032663Y0375760D01*
G37*
G36*
X0032992Y0372628D02*
X0032868Y0373801D01*
X0035216Y0374048D01*
X0035340Y0372875D01*
X0032992Y0372628D01*
G37*
G36*
X0034413Y0363963D02*
X0034168Y0365116D01*
X0036477Y0365607D01*
X0036722Y0364454D01*
X0034413Y0363963D01*
G37*
G36*
X0035068Y0360882D02*
X0034823Y0362035D01*
X0037132Y0362526D01*
X0037377Y0361373D01*
X0035068Y0360882D01*
G37*
G36*
X0035723Y0357801D02*
X0035478Y0358954D01*
X0037787Y0359445D01*
X0038032Y0358292D01*
X0035723Y0357801D01*
G37*
G36*
X0042270Y0359193D02*
X0042025Y0360346D01*
X0044334Y0360837D01*
X0044579Y0359684D01*
X0042270Y0359193D01*
G37*
G36*
X0041615Y0362274D02*
X0041370Y0363427D01*
X0043679Y0363918D01*
X0043924Y0362765D01*
X0041615Y0362274D01*
G37*
G36*
X0040960Y0365355D02*
X0040715Y0366508D01*
X0043024Y0366999D01*
X0043269Y0365846D01*
X0040960Y0365355D01*
G37*
G36*
X0039649Y0373327D02*
X0039525Y0374500D01*
X0041873Y0374747D01*
X0041997Y0373574D01*
X0039649Y0373327D01*
G37*
G36*
X0039319Y0376460D02*
X0039195Y0377633D01*
X0041543Y0377880D01*
X0041667Y0376707D01*
X0039319Y0376460D01*
G37*
G36*
X0038990Y0379592D02*
X0038866Y0380765D01*
X0041214Y0381012D01*
X0041338Y0379839D01*
X0038990Y0379592D01*
G37*
G36*
X0044463Y0351394D02*
X0044098Y0352516D01*
X0046343Y0353246D01*
X0046708Y0352124D01*
X0044463Y0351394D01*
G37*
G36*
X0045436Y0348398D02*
X0045071Y0349520D01*
X0047316Y0350250D01*
X0047681Y0349128D01*
X0045436Y0348398D01*
G37*
G36*
X0046409Y0345403D02*
X0046044Y0346525D01*
X0048289Y0347255D01*
X0048654Y0346133D01*
X0046409Y0345403D01*
G37*
G36*
X0040044Y0343334D02*
X0039679Y0344456D01*
X0041924Y0345186D01*
X0042289Y0344064D01*
X0040044Y0343334D01*
G37*
G36*
X0039071Y0346330D02*
X0038706Y0347452D01*
X0040951Y0348182D01*
X0041316Y0347060D01*
X0039071Y0346330D01*
G37*
G36*
X0038097Y0349325D02*
X0037732Y0350447D01*
X0039977Y0351177D01*
X0040342Y0350055D01*
X0038097Y0349325D01*
G37*
G36*
X0043197Y0335137D02*
X0042717Y0336214D01*
X0044873Y0337175D01*
X0045353Y0336098D01*
X0043197Y0335137D01*
G37*
G36*
X0044478Y0332260D02*
X0043998Y0333337D01*
X0046154Y0334298D01*
X0046634Y0333221D01*
X0044478Y0332260D01*
G37*
G36*
X0045759Y0329383D02*
X0045279Y0330460D01*
X0047435Y0331421D01*
X0047915Y0330344D01*
X0045759Y0329383D01*
G37*
G36*
X0051874Y0332105D02*
X0051394Y0333182D01*
X0053550Y0334143D01*
X0054030Y0333066D01*
X0051874Y0332105D01*
G37*
G36*
X0050592Y0334982D02*
X0050112Y0336059D01*
X0052268Y0337020D01*
X0052748Y0335943D01*
X0050592Y0334982D01*
G37*
G36*
X0049311Y0337859D02*
X0048831Y0338936D01*
X0050987Y0339897D01*
X0051467Y0338820D01*
X0049311Y0337859D01*
G37*
G36*
X0055650Y0324960D02*
X0055060Y0325982D01*
X0057104Y0327162D01*
X0057694Y0326140D01*
X0055650Y0324960D01*
G37*
G36*
X0057224Y0322232D02*
X0056634Y0323254D01*
X0058678Y0324434D01*
X0059268Y0323412D01*
X0057224Y0322232D01*
G37*
G36*
X0058799Y0319505D02*
X0058209Y0320527D01*
X0060253Y0321707D01*
X0060843Y0320685D01*
X0058799Y0319505D01*
G37*
G36*
X0053003Y0316158D02*
X0052413Y0317180D01*
X0054457Y0318360D01*
X0055047Y0317338D01*
X0053003Y0316158D01*
G37*
G36*
X0051428Y0318886D02*
X0050838Y0319908D01*
X0052882Y0321088D01*
X0053472Y0320066D01*
X0051428Y0318886D01*
G37*
G36*
X0049853Y0321613D02*
X0049263Y0322635D01*
X0051307Y0323815D01*
X0051897Y0322793D01*
X0049853Y0321613D01*
G37*
G36*
X0057827Y0308810D02*
X0057133Y0309765D01*
X0059043Y0311152D01*
X0059737Y0310197D01*
X0057827Y0308810D01*
G37*
G36*
X0059678Y0306262D02*
X0058984Y0307217D01*
X0060894Y0308604D01*
X0061588Y0307649D01*
X0059678Y0306262D01*
G37*
G36*
X0061529Y0303714D02*
X0060835Y0304669D01*
X0062745Y0306056D01*
X0063439Y0305101D01*
X0061529Y0303714D01*
G37*
G36*
X0066944Y0307648D02*
X0066250Y0308603D01*
X0068160Y0309990D01*
X0068854Y0309035D01*
X0066944Y0307648D01*
G37*
G36*
X0065093Y0310196D02*
X0064399Y0311151D01*
X0066309Y0312538D01*
X0067003Y0311583D01*
X0065093Y0310196D01*
G37*
G36*
X0063241Y0312744D02*
X0062547Y0313699D01*
X0064457Y0315086D01*
X0065151Y0314131D01*
X0063241Y0312744D01*
G37*
G36*
X0072071Y0301422D02*
X0071281Y0302299D01*
X0073035Y0303878D01*
X0073825Y0303001D01*
X0072071Y0301422D01*
G37*
G36*
X0074178Y0299081D02*
X0073388Y0299958D01*
X0075142Y0301537D01*
X0075932Y0300660D01*
X0074178Y0299081D01*
G37*
G36*
X0076286Y0296741D02*
X0075496Y0297618D01*
X0077250Y0299197D01*
X0078040Y0298320D01*
X0076286Y0296741D01*
G37*
G36*
X0071312Y0292262D02*
X0070522Y0293139D01*
X0072276Y0294718D01*
X0073066Y0293841D01*
X0071312Y0292262D01*
G37*
G36*
X0069204Y0294603D02*
X0068414Y0295480D01*
X0070168Y0297059D01*
X0070958Y0296182D01*
X0069204Y0294603D01*
G37*
G36*
X0067097Y0296943D02*
X0066307Y0297820D01*
X0068061Y0299399D01*
X0068851Y0298522D01*
X0067097Y0296943D01*
G37*
G36*
X0077532Y0286109D02*
X0076655Y0286899D01*
X0078234Y0288653D01*
X0079111Y0287863D01*
X0077532Y0286109D01*
G37*
G36*
X0079873Y0284001D02*
X0078996Y0284791D01*
X0080575Y0286545D01*
X0081452Y0285755D01*
X0079873Y0284001D01*
G37*
G36*
X0082214Y0281894D02*
X0081337Y0282684D01*
X0082916Y0284438D01*
X0083793Y0283648D01*
X0082214Y0281894D01*
G37*
G36*
X0086692Y0286867D02*
X0085815Y0287657D01*
X0087394Y0289411D01*
X0088271Y0288621D01*
X0086692Y0286867D01*
G37*
G36*
X0084352Y0288975D02*
X0083475Y0289765D01*
X0085054Y0291519D01*
X0085931Y0290729D01*
X0084352Y0288975D01*
G37*
G36*
X0082011Y0291082D02*
X0081134Y0291872D01*
X0082713Y0293626D01*
X0083590Y0292836D01*
X0082011Y0291082D01*
G37*
G36*
X0089102Y0276382D02*
X0088147Y0277076D01*
X0089534Y0278986D01*
X0090489Y0278292D01*
X0089102Y0276382D01*
G37*
G36*
X0091650Y0274531D02*
X0090695Y0275225D01*
X0092082Y0277135D01*
X0093037Y0276441D01*
X0091650Y0274531D01*
G37*
G36*
X0094198Y0272679D02*
X0093243Y0273373D01*
X0094630Y0275283D01*
X0095585Y0274589D01*
X0094198Y0272679D01*
G37*
G36*
X0098132Y0278094D02*
X0097177Y0278788D01*
X0098564Y0280698D01*
X0099519Y0280004D01*
X0098132Y0278094D01*
G37*
G36*
X0095584Y0279945D02*
X0094629Y0280639D01*
X0096016Y0282549D01*
X0096971Y0281855D01*
X0095584Y0279945D01*
G37*
G36*
X0093036Y0281797D02*
X0092081Y0282491D01*
X0093468Y0284401D01*
X0094423Y0283707D01*
X0093036Y0281797D01*
G37*
G36*
X0104940Y0273736D02*
X0103918Y0274326D01*
X0105098Y0276370D01*
X0106120Y0275780D01*
X0104940Y0273736D01*
G37*
G36*
X0107668Y0272161D02*
X0106646Y0272751D01*
X0107826Y0274795D01*
X0108848Y0274205D01*
X0107668Y0272161D01*
G37*
G36*
X0110395Y0270586D02*
X0109373Y0271176D01*
X0110553Y0273220D01*
X0111575Y0272630D01*
X0110395Y0270586D01*
G37*
G36*
X0107049Y0264790D02*
X0106027Y0265380D01*
X0107207Y0267424D01*
X0108229Y0266834D01*
X0107049Y0264790D01*
G37*
G36*
X0104321Y0266365D02*
X0103299Y0266955D01*
X0104479Y0268999D01*
X0105501Y0268409D01*
X0104321Y0266365D01*
G37*
G36*
X0101593Y0267940D02*
X0100571Y0268530D01*
X0101751Y0270574D01*
X0102773Y0269984D01*
X0101593Y0267940D01*
G37*
G36*
X0114913Y0260866D02*
X0113836Y0261346D01*
X0114797Y0263502D01*
X0115874Y0263022D01*
X0114913Y0260866D01*
G37*
G36*
X0117790Y0259585D02*
X0116713Y0260065D01*
X0117674Y0262221D01*
X0118751Y0261741D01*
X0117790Y0259585D01*
G37*
G36*
X0120668Y0258304D02*
X0119591Y0258784D01*
X0120552Y0260940D01*
X0121629Y0260460D01*
X0120668Y0258304D01*
G37*
G36*
X0123390Y0264418D02*
X0122313Y0264898D01*
X0123274Y0267054D01*
X0124351Y0266574D01*
X0123390Y0264418D01*
G37*
G36*
X0120512Y0265699D02*
X0119435Y0266179D01*
X0120396Y0268335D01*
X0121473Y0267855D01*
X0120512Y0265699D01*
G37*
G36*
X0117635Y0266980D02*
X0116558Y0267460D01*
X0117519Y0269616D01*
X0118596Y0269136D01*
X0117635Y0266980D01*
G37*
G36*
X0128910Y0255226D02*
X0127788Y0255591D01*
X0128518Y0257836D01*
X0129640Y0257471D01*
X0128910Y0255226D01*
G37*
G36*
X0131905Y0254252D02*
X0130783Y0254617D01*
X0131513Y0256862D01*
X0132635Y0256497D01*
X0131905Y0254252D01*
G37*
G36*
X0134901Y0253279D02*
X0133779Y0253644D01*
X0134509Y0255889D01*
X0135631Y0255524D01*
X0134901Y0253279D01*
G37*
G36*
X0136969Y0259644D02*
X0135847Y0260009D01*
X0136577Y0262254D01*
X0137699Y0261889D01*
X0136969Y0259644D01*
G37*
G36*
X0133973Y0260618D02*
X0132851Y0260983D01*
X0133581Y0263228D01*
X0134703Y0262863D01*
X0133973Y0260618D01*
G37*
G36*
X0130978Y0261591D02*
X0129856Y0261956D01*
X0130586Y0264201D01*
X0131708Y0263836D01*
X0130978Y0261591D01*
G37*
G36*
X0144779Y0257611D02*
X0143626Y0257856D01*
X0144117Y0260165D01*
X0145270Y0259920D01*
X0144779Y0257611D01*
G37*
M02*
