%
M48
M72
T01C0.0150
T02C0.0200
T03C0.1260
%
T01
X15483Y26140
X4583Y41190
X19533Y52140
X30633Y41090
X32233Y39690
X31683Y38445
X32183Y38090
X30808Y38840
X30758Y37165
X30383Y35940
X31133Y33690
T02
X30383Y37890
X30383Y38390
X30383Y38890
X30383Y39390
X30383Y39890
X30383Y40390
X29129Y48911
X28776Y49265
X28422Y49618
X28069Y49972
X27715Y50325
X27362Y50679
X18833Y51940
X18333Y51940
X17833Y51940
X17333Y51940
X16833Y51940
X16333Y51940
X7812Y50686
X7459Y50332
X7105Y49979
X6752Y49625
X6398Y49272
X6044Y48918
X4783Y40390
X4783Y39890
X4783Y39390
X4783Y38890
X4783Y38390
X4783Y37890
X6037Y29369
X6391Y29015
X6744Y28662
X7098Y28308
X7452Y27955
X7805Y27601
X16333Y26440
X16833Y26440
X17333Y26440
X17833Y26440
X18333Y26440
X18833Y26440
X27354Y27594
X27708Y27948
X28062Y28301
X28415Y28655
X28769Y29008
X29122Y29362
T03
X29083Y27640
X29083Y39140
X29083Y50640
X17583Y50640
X6083Y50640
X6083Y39140
X6083Y27640
X17583Y27640
M30
