%
M48
M72
T01C0.0150
T02C0.0200
T03C0.1260
%
T01
X15354Y25065
X13895Y25376
X12477Y25836
X11114Y26443
X9822Y27189
X8616Y28066
X7507Y29064
X6509Y30172
X5632Y31379
X4886Y32671
X4280Y34033
X3819Y35452
X3509Y36911
X3353Y38394
X3353Y39886
X3509Y41369
X3819Y42828
X4280Y44247
X4886Y45609
X5632Y46901
X6509Y48108
X7507Y49216
X8616Y50214
X9822Y51091
X11114Y51837
X12477Y52444
X13895Y52904
X15354Y53215
X16838Y53370
X18329Y53370
X19813Y53215
X21272Y52904
X22690Y52444
X24053Y51837
X25344Y51091
X26551Y50214
X27660Y49216
X28658Y48108
X29534Y46901
X30280Y45609
X30887Y44247
X31348Y42828
X31658Y41369
X32083Y41240
X32183Y39665
X31683Y38445
X32133Y38040
X31962Y37622
X31733Y36115
X31348Y35452
X30322Y35208
X30887Y34033
X30280Y32671
X29534Y31379
X28658Y30172
X27660Y29064
X26551Y28066
X25344Y27189
X24053Y26443
X22690Y25836
X21272Y25376
X19813Y25065
X18329Y24910
X16838Y24910
X30808Y37315
X30908Y38940
T02
X30383Y38890
X30383Y38390
X30383Y37890
X30383Y39390
X30383Y39890
X30383Y40390
X29129Y48911
X28776Y49265
X28422Y49618
X28069Y49972
X27715Y50325
X27362Y50679
X18833Y51940
X18333Y51940
X17833Y51940
X17333Y51940
X16833Y51940
X16333Y51940
X7812Y50686
X7459Y50332
X7105Y49979
X6752Y49625
X6398Y49272
X6044Y48918
X4783Y40390
X4783Y39890
X4783Y39390
X4783Y38890
X4783Y38390
X4783Y37890
X6037Y29369
X6391Y29015
X6744Y28662
X7098Y28308
X7452Y27955
X7805Y27601
X16333Y26440
X16833Y26440
X17333Y26440
X17833Y26440
X18333Y26440
X18833Y26440
X27354Y27594
X27708Y27948
X28062Y28301
X28415Y28655
X28769Y29008
X29122Y29362
T03
X29083Y27640
X29083Y39140
X29083Y50640
X17583Y50640
X6083Y50640
X6083Y39140
X6083Y27640
X17583Y27640
M30
