G75*
%MOIN*%
%OFA0B0*%
%FSLAX25Y25*%
%IPPOS*%
%LPD*%
%AMOC8*
5,1,8,0,0,1.08239X$1,22.5*
%
%ADD10C,0.01100*%
%ADD11C,0.04000*%
%ADD12C,0.25000*%
%ADD13R,0.06299X0.07087*%
%ADD14C,0.02500*%
%ADD15C,0.02900*%
%ADD16C,0.03000*%
%ADD17C,0.00800*%
%ADD18C,0.00700*%
%ADD19C,0.03500*%
D10*
X0039383Y0385018D02*
X0039383Y0386985D01*
X0039383Y0385018D02*
X0039385Y0384947D01*
X0039391Y0384876D01*
X0039400Y0384806D01*
X0039414Y0384736D01*
X0039431Y0384667D01*
X0039452Y0384599D01*
X0039476Y0384533D01*
X0039504Y0384468D01*
X0039536Y0384404D01*
X0039571Y0384342D01*
X0039609Y0384282D01*
X0039650Y0384225D01*
X0039695Y0384169D01*
X0039742Y0384116D01*
X0039792Y0384066D01*
X0039845Y0384019D01*
X0039901Y0383974D01*
X0039958Y0383933D01*
X0040018Y0383895D01*
X0040080Y0383860D01*
X0040144Y0383828D01*
X0040209Y0383800D01*
X0040275Y0383776D01*
X0040343Y0383755D01*
X0040412Y0383738D01*
X0040482Y0383724D01*
X0040552Y0383715D01*
X0040623Y0383709D01*
X0040694Y0383707D01*
X0040765Y0383709D01*
X0040836Y0383715D01*
X0040906Y0383724D01*
X0040976Y0383738D01*
X0041045Y0383755D01*
X0041113Y0383776D01*
X0041179Y0383800D01*
X0041244Y0383828D01*
X0041308Y0383860D01*
X0041370Y0383895D01*
X0041430Y0383933D01*
X0041487Y0383974D01*
X0041543Y0384019D01*
X0041596Y0384066D01*
X0041646Y0384116D01*
X0041693Y0384169D01*
X0041738Y0384225D01*
X0041779Y0384282D01*
X0041817Y0384342D01*
X0041852Y0384404D01*
X0041884Y0384468D01*
X0041912Y0384533D01*
X0041936Y0384599D01*
X0041957Y0384667D01*
X0041974Y0384736D01*
X0041988Y0384806D01*
X0041997Y0384876D01*
X0042003Y0384947D01*
X0042005Y0385018D01*
X0042006Y0385018D02*
X0042006Y0386330D01*
X0042005Y0385346D02*
X0042007Y0385267D01*
X0042013Y0385188D01*
X0042022Y0385109D01*
X0042036Y0385031D01*
X0042053Y0384954D01*
X0042073Y0384877D01*
X0042098Y0384802D01*
X0042126Y0384728D01*
X0042158Y0384655D01*
X0042193Y0384584D01*
X0042231Y0384515D01*
X0042273Y0384448D01*
X0042318Y0384383D01*
X0042366Y0384320D01*
X0042417Y0384259D01*
X0042471Y0384201D01*
X0042528Y0384146D01*
X0042587Y0384093D01*
X0042649Y0384044D01*
X0042713Y0383997D01*
X0042779Y0383954D01*
X0042847Y0383914D01*
X0042918Y0383877D01*
X0042989Y0383843D01*
X0043063Y0383814D01*
X0043138Y0383787D01*
X0043213Y0383765D01*
X0043290Y0383746D01*
X0043368Y0383730D01*
X0043446Y0383719D01*
X0043525Y0383711D01*
X0043604Y0383707D01*
X0043684Y0383707D01*
X0043763Y0383711D01*
X0043842Y0383719D01*
X0043920Y0383730D01*
X0043998Y0383746D01*
X0044075Y0383765D01*
X0044150Y0383787D01*
X0044225Y0383814D01*
X0044299Y0383843D01*
X0044370Y0383877D01*
X0044441Y0383914D01*
X0044509Y0383954D01*
X0044575Y0383997D01*
X0044639Y0384044D01*
X0044701Y0384093D01*
X0044760Y0384146D01*
X0044817Y0384201D01*
X0044871Y0384259D01*
X0044922Y0384320D01*
X0044970Y0384383D01*
X0045015Y0384448D01*
X0045057Y0384515D01*
X0045095Y0384584D01*
X0045130Y0384655D01*
X0045162Y0384728D01*
X0045190Y0384802D01*
X0045215Y0384877D01*
X0045235Y0384954D01*
X0045252Y0385031D01*
X0045266Y0385109D01*
X0045275Y0385188D01*
X0045281Y0385267D01*
X0045283Y0385346D01*
X0045283Y0386985D01*
X0044464Y0392647D02*
X0044339Y0392706D01*
X0044212Y0392761D01*
X0044085Y0392813D01*
X0043955Y0392860D01*
X0043825Y0392905D01*
X0043693Y0392945D01*
X0043560Y0392982D01*
X0043426Y0393014D01*
X0043292Y0393044D01*
X0043156Y0393069D01*
X0043020Y0393090D01*
X0042883Y0393108D01*
X0042746Y0393121D01*
X0042609Y0393131D01*
X0042471Y0393137D01*
X0042333Y0393139D01*
X0042333Y0389861D02*
X0042195Y0389863D01*
X0042057Y0389869D01*
X0041920Y0389879D01*
X0041783Y0389892D01*
X0041646Y0389910D01*
X0041510Y0389931D01*
X0041374Y0389956D01*
X0041240Y0389986D01*
X0041106Y0390018D01*
X0040973Y0390055D01*
X0040841Y0390095D01*
X0040711Y0390140D01*
X0040581Y0390187D01*
X0040454Y0390239D01*
X0040327Y0390294D01*
X0040202Y0390353D01*
X0040694Y0390189D02*
X0043972Y0392811D01*
X0045284Y0391500D02*
X0045282Y0391432D01*
X0045276Y0391363D01*
X0045267Y0391296D01*
X0045253Y0391229D01*
X0045236Y0391163D01*
X0045215Y0391097D01*
X0045191Y0391034D01*
X0045163Y0390971D01*
X0045131Y0390911D01*
X0045096Y0390852D01*
X0045058Y0390795D01*
X0045017Y0390740D01*
X0044972Y0390688D01*
X0044925Y0390639D01*
X0044875Y0390592D01*
X0044823Y0390548D01*
X0044768Y0390507D01*
X0044711Y0390470D01*
X0044652Y0390435D01*
X0044591Y0390404D01*
X0044528Y0390377D01*
X0044464Y0390353D01*
X0045284Y0391500D02*
X0045282Y0391568D01*
X0045276Y0391637D01*
X0045267Y0391704D01*
X0045253Y0391771D01*
X0045236Y0391837D01*
X0045215Y0391903D01*
X0045191Y0391966D01*
X0045163Y0392029D01*
X0045131Y0392089D01*
X0045096Y0392148D01*
X0045058Y0392205D01*
X0045017Y0392260D01*
X0044972Y0392312D01*
X0044925Y0392361D01*
X0044875Y0392408D01*
X0044823Y0392452D01*
X0044768Y0392493D01*
X0044711Y0392530D01*
X0044652Y0392565D01*
X0044591Y0392596D01*
X0044528Y0392623D01*
X0044464Y0392647D01*
X0044464Y0390354D02*
X0044339Y0390295D01*
X0044212Y0390240D01*
X0044085Y0390188D01*
X0043955Y0390141D01*
X0043825Y0390096D01*
X0043693Y0390056D01*
X0043560Y0390019D01*
X0043426Y0389987D01*
X0043292Y0389957D01*
X0043156Y0389932D01*
X0043020Y0389911D01*
X0042883Y0389893D01*
X0042746Y0389880D01*
X0042609Y0389870D01*
X0042471Y0389864D01*
X0042333Y0389862D01*
X0042333Y0393139D02*
X0042195Y0393137D01*
X0042057Y0393131D01*
X0041920Y0393121D01*
X0041783Y0393108D01*
X0041646Y0393090D01*
X0041510Y0393069D01*
X0041374Y0393044D01*
X0041240Y0393014D01*
X0041106Y0392982D01*
X0040973Y0392945D01*
X0040841Y0392905D01*
X0040711Y0392860D01*
X0040581Y0392813D01*
X0040454Y0392761D01*
X0040327Y0392706D01*
X0040202Y0392647D01*
X0040203Y0392647D02*
X0040139Y0392623D01*
X0040076Y0392596D01*
X0040015Y0392565D01*
X0039956Y0392530D01*
X0039899Y0392493D01*
X0039844Y0392452D01*
X0039792Y0392408D01*
X0039742Y0392361D01*
X0039695Y0392312D01*
X0039650Y0392260D01*
X0039609Y0392205D01*
X0039571Y0392148D01*
X0039536Y0392089D01*
X0039504Y0392029D01*
X0039476Y0391966D01*
X0039452Y0391903D01*
X0039431Y0391837D01*
X0039414Y0391771D01*
X0039400Y0391704D01*
X0039391Y0391637D01*
X0039385Y0391568D01*
X0039383Y0391500D01*
X0039385Y0391432D01*
X0039391Y0391363D01*
X0039400Y0391296D01*
X0039414Y0391229D01*
X0039431Y0391163D01*
X0039452Y0391097D01*
X0039476Y0391034D01*
X0039504Y0390971D01*
X0039536Y0390911D01*
X0039571Y0390852D01*
X0039609Y0390795D01*
X0039650Y0390740D01*
X0039695Y0390688D01*
X0039742Y0390639D01*
X0039792Y0390592D01*
X0039844Y0390548D01*
X0039899Y0390507D01*
X0039956Y0390470D01*
X0040015Y0390435D01*
X0040076Y0390404D01*
X0040139Y0390377D01*
X0040203Y0390353D01*
X0041350Y0395728D02*
X0045283Y0397039D01*
X0041350Y0398350D01*
D11*
X0313338Y0407954D02*
X0319326Y0408330D01*
X0319828Y0400346D02*
X0313840Y0399970D01*
X0314083Y0392700D02*
X0320083Y0392700D01*
X0320083Y0384700D02*
X0314083Y0384700D01*
X0313394Y0376835D02*
X0319348Y0376105D01*
X0318373Y0368165D02*
X0312419Y0368895D01*
D12*
X0290833Y0391400D03*
X0290833Y0506400D03*
X0175833Y0506400D03*
X0060833Y0506400D03*
X0060833Y0391400D03*
X0060833Y0276400D03*
X0175833Y0276400D03*
X0290833Y0276400D03*
D13*
G36*
X0305104Y0342818D02*
X0302950Y0336901D01*
X0296292Y0339324D01*
X0298446Y0345241D01*
X0305104Y0342818D01*
G37*
G36*
X0308874Y0353176D02*
X0306720Y0347259D01*
X0300062Y0349682D01*
X0302216Y0355599D01*
X0308874Y0353176D01*
G37*
D14*
X0292833Y0491900D03*
X0058833Y0290900D03*
D15*
X0045833Y0411900D03*
X0154833Y0261400D03*
X0303833Y0359400D03*
X0307583Y0371650D03*
X0316833Y0384450D03*
X0321833Y0380900D03*
X0322333Y0396900D03*
X0308083Y0388400D03*
X0306333Y0410900D03*
X0311333Y0336900D03*
X0195333Y0521400D03*
D16*
X0306333Y0410900D02*
X0309333Y0407900D01*
X0316332Y0408142D01*
D17*
X0168509Y0243156D02*
X0153932Y0244597D01*
X0139566Y0247464D01*
X0125553Y0251729D01*
X0112026Y0257351D01*
X0099118Y0264277D01*
X0086954Y0272438D01*
X0081233Y0276922D01*
X0080855Y0277300D01*
X0080772Y0277300D01*
X0080708Y0277353D01*
X0080161Y0277300D01*
X0079732Y0277300D01*
X0078921Y0278111D01*
X0077581Y0278111D01*
X0076615Y0279004D01*
X0076615Y0280416D01*
X0075385Y0281646D01*
X0073756Y0281646D01*
X0073080Y0282272D01*
X0073080Y0283952D01*
X0071850Y0285182D01*
X0070110Y0285182D01*
X0068880Y0283952D01*
X0068880Y0282212D01*
X0070110Y0280982D01*
X0071850Y0280982D01*
X0073080Y0282212D01*
X0073080Y0283154D01*
X0074587Y0281646D01*
X0073645Y0281646D01*
X0072415Y0280416D01*
X0072415Y0278677D01*
X0073645Y0277446D01*
X0075385Y0277446D01*
X0076615Y0278677D01*
X0076615Y0279618D01*
X0078122Y0278111D01*
X0077181Y0278111D01*
X0075951Y0276881D01*
X0075951Y0275141D01*
X0076702Y0274390D01*
X0069773Y0267461D01*
X0068409Y0266279D01*
X0065251Y0264555D01*
X0061735Y0263790D01*
X0058146Y0264047D01*
X0054775Y0265304D01*
X0051894Y0267461D01*
X0049738Y0270341D01*
X0048480Y0273713D01*
X0048223Y0277302D01*
X0048988Y0280818D01*
X0050713Y0283976D01*
X0051894Y0285339D01*
X0052333Y0285779D01*
X0056483Y0289929D01*
X0056483Y0289927D01*
X0057860Y0288550D01*
X0059807Y0288550D01*
X0061183Y0289927D01*
X0061183Y0291589D01*
X0061243Y0291589D01*
X0062473Y0292819D01*
X0062473Y0293760D01*
X0063980Y0292253D01*
X0063039Y0292253D01*
X0061809Y0291023D01*
X0061809Y0289283D01*
X0063039Y0288053D01*
X0064779Y0288053D01*
X0066009Y0289283D01*
X0066009Y0290225D01*
X0067516Y0288717D01*
X0066574Y0288717D01*
X0065344Y0287487D01*
X0065344Y0285748D01*
X0066574Y0284518D01*
X0068314Y0284518D01*
X0069544Y0285748D01*
X0069544Y0286689D01*
X0071051Y0285182D01*
X0070110Y0285182D01*
X0070024Y0285096D01*
X0069767Y0285334D01*
X0069461Y0285665D01*
X0069544Y0285748D01*
X0069544Y0287487D01*
X0068314Y0288717D01*
X0066640Y0288717D01*
X0066009Y0289400D01*
X0066009Y0291023D01*
X0064779Y0292253D01*
X0063371Y0292253D01*
X0062473Y0293225D01*
X0062473Y0294558D01*
X0061733Y0295298D01*
X0061733Y0295728D01*
X0061786Y0296275D01*
X0061733Y0296339D01*
X0061733Y0296421D01*
X0061355Y0296799D01*
X0056871Y0302520D01*
X0048710Y0314685D01*
X0041785Y0327593D01*
X0036162Y0341119D01*
X0031897Y0355133D01*
X0029030Y0369498D01*
X0027590Y0384076D01*
X0027590Y0398724D01*
X0029030Y0413302D01*
X0031897Y0427667D01*
X0036162Y0441681D01*
X0041785Y0455207D01*
X0048710Y0468115D01*
X0056871Y0480280D01*
X0061355Y0486001D01*
X0061733Y0486379D01*
X0061733Y0486461D01*
X0061786Y0486525D01*
X0061733Y0487072D01*
X0061733Y0487502D01*
X0062544Y0488313D01*
X0062544Y0489652D01*
X0063437Y0490618D01*
X0064850Y0490618D01*
X0066080Y0491848D01*
X0066080Y0493477D01*
X0066705Y0494154D01*
X0068385Y0494154D01*
X0069615Y0495384D01*
X0069615Y0497123D01*
X0068385Y0498354D01*
X0066645Y0498354D01*
X0065415Y0497123D01*
X0065415Y0495384D01*
X0066645Y0494154D01*
X0067587Y0494154D01*
X0066080Y0492646D01*
X0066080Y0493588D01*
X0064850Y0494818D01*
X0063110Y0494818D01*
X0061880Y0493588D01*
X0061880Y0491848D01*
X0063110Y0490618D01*
X0064051Y0490618D01*
X0062544Y0489111D01*
X0062544Y0490052D01*
X0061314Y0491282D01*
X0059574Y0491282D01*
X0058823Y0490531D01*
X0052333Y0497021D01*
X0051894Y0497461D01*
X0050713Y0498824D01*
X0048988Y0501982D01*
X0048223Y0505498D01*
X0048480Y0509087D01*
X0049738Y0512459D01*
X0051894Y0515339D01*
X0054775Y0517496D01*
X0058146Y0518753D01*
X0061735Y0519010D01*
X0065251Y0518245D01*
X0068409Y0516521D01*
X0069773Y0515339D01*
X0076702Y0508410D01*
X0076022Y0507730D01*
X0076022Y0505990D01*
X0077252Y0504760D01*
X0078193Y0504760D01*
X0076686Y0503253D01*
X0076686Y0504194D01*
X0075456Y0505425D01*
X0073717Y0505425D01*
X0072486Y0504194D01*
X0072486Y0502455D01*
X0073717Y0501225D01*
X0074658Y0501225D01*
X0073151Y0499717D01*
X0073151Y0500659D01*
X0071921Y0501889D01*
X0070181Y0501889D01*
X0068951Y0500659D01*
X0068951Y0498919D01*
X0070181Y0497689D01*
X0071122Y0497689D01*
X0069615Y0496182D01*
X0069615Y0497123D01*
X0069530Y0497209D01*
X0069767Y0497466D01*
X0070098Y0497772D01*
X0070181Y0497689D01*
X0071921Y0497689D01*
X0073151Y0498919D01*
X0073151Y0500594D01*
X0073833Y0501225D01*
X0075456Y0501225D01*
X0076686Y0502455D01*
X0076686Y0503862D01*
X0077658Y0504760D01*
X0078992Y0504760D01*
X0079732Y0505500D01*
X0080161Y0505500D01*
X0080708Y0505447D01*
X0080772Y0505500D01*
X0080855Y0505500D01*
X0081233Y0505878D01*
X0086954Y0510362D01*
X0099118Y0518523D01*
X0112026Y0525449D01*
X0125553Y0531071D01*
X0139566Y0535336D01*
X0153932Y0538203D01*
X0168509Y0539644D01*
X0183158Y0539644D01*
X0197735Y0538203D01*
X0212100Y0535336D01*
X0226114Y0531071D01*
X0239640Y0525449D01*
X0252548Y0518523D01*
X0264713Y0510362D01*
X0270434Y0505878D01*
X0270812Y0505500D01*
X0270895Y0505500D01*
X0270959Y0505447D01*
X0271505Y0505500D01*
X0271935Y0505500D01*
X0272746Y0504689D01*
X0274085Y0504689D01*
X0275051Y0503796D01*
X0275051Y0502384D01*
X0276281Y0501154D01*
X0277910Y0501154D01*
X0278587Y0500528D01*
X0278587Y0498848D01*
X0279817Y0497618D01*
X0281557Y0497618D01*
X0282787Y0498848D01*
X0282787Y0500588D01*
X0281557Y0501818D01*
X0279817Y0501818D01*
X0278587Y0500588D01*
X0278587Y0499646D01*
X0277080Y0501154D01*
X0278021Y0501154D01*
X0279251Y0502384D01*
X0279251Y0504123D01*
X0278021Y0505354D01*
X0276281Y0505354D01*
X0275051Y0504123D01*
X0275051Y0503182D01*
X0273544Y0504689D01*
X0274486Y0504689D01*
X0275716Y0505919D01*
X0275716Y0507659D01*
X0274965Y0508410D01*
X0281455Y0514900D01*
X0281894Y0515339D01*
X0283402Y0516628D01*
X0286927Y0518423D01*
X0290833Y0519042D01*
X0294740Y0518423D01*
X0298264Y0516628D01*
X0301061Y0513831D01*
X0302857Y0510307D01*
X0303475Y0506400D01*
X0302857Y0502493D01*
X0301061Y0498969D01*
X0299773Y0497461D01*
X0299333Y0497021D01*
X0295183Y0492871D01*
X0295183Y0492873D01*
X0293807Y0494250D01*
X0291860Y0494250D01*
X0290483Y0492873D01*
X0290483Y0491211D01*
X0290424Y0491211D01*
X0289193Y0489981D01*
X0289193Y0489040D01*
X0287686Y0490547D01*
X0288628Y0490547D01*
X0289858Y0491777D01*
X0289858Y0493517D01*
X0288628Y0494747D01*
X0286888Y0494747D01*
X0285658Y0493517D01*
X0285658Y0492575D01*
X0284151Y0494082D01*
X0285092Y0494082D01*
X0286322Y0495313D01*
X0286322Y0497052D01*
X0285092Y0498282D01*
X0283353Y0498282D01*
X0282122Y0497052D01*
X0282122Y0496111D01*
X0280615Y0497618D01*
X0281557Y0497618D01*
X0281642Y0497704D01*
X0281899Y0497466D01*
X0282205Y0497135D01*
X0282122Y0497052D01*
X0282122Y0495313D01*
X0283353Y0494082D01*
X0285027Y0494082D01*
X0285658Y0493400D01*
X0285658Y0491777D01*
X0286888Y0490547D01*
X0288295Y0490547D01*
X0289193Y0489575D01*
X0289193Y0488242D01*
X0289933Y0487502D01*
X0289933Y0487072D01*
X0289881Y0486525D01*
X0289933Y0486461D01*
X0289933Y0486379D01*
X0290311Y0486001D01*
X0294795Y0480280D01*
X0294796Y0480280D01*
X0302957Y0468115D01*
X0309882Y0455207D01*
X0315504Y0441681D01*
X0319770Y0427667D01*
X0322637Y0413302D01*
X0324029Y0399208D01*
X0322937Y0399855D01*
X0322961Y0399925D01*
X0322884Y0401156D01*
X0322341Y0402264D01*
X0321416Y0403079D01*
X0320249Y0403479D01*
X0313030Y0403025D01*
X0311923Y0402482D01*
X0311107Y0401557D01*
X0310708Y0400390D01*
X0310785Y0399159D01*
X0311328Y0398052D01*
X0312253Y0397236D01*
X0313420Y0396837D01*
X0316519Y0397032D01*
X0318599Y0395800D01*
X0313467Y0395800D01*
X0312327Y0395328D01*
X0311455Y0394456D01*
X0311329Y0394150D01*
X0309333Y0394150D01*
X0308483Y0393301D01*
X0306633Y0391451D01*
X0306633Y0390556D01*
X0305922Y0389844D01*
X0305903Y0389800D01*
X0304703Y0391000D01*
X0302963Y0391000D01*
X0301733Y0389770D01*
X0301733Y0388030D01*
X0302963Y0386800D01*
X0304703Y0386800D01*
X0305610Y0387707D01*
X0305922Y0386956D01*
X0306639Y0386238D01*
X0307576Y0385850D01*
X0308591Y0385850D01*
X0309528Y0386238D01*
X0310245Y0386956D01*
X0310633Y0387893D01*
X0310633Y0388907D01*
X0310245Y0389844D01*
X0309687Y0390403D01*
X0310534Y0391250D01*
X0311329Y0391250D01*
X0311455Y0390944D01*
X0312327Y0390072D01*
X0313467Y0389600D01*
X0320700Y0389600D01*
X0321839Y0390072D01*
X0322711Y0390944D01*
X0323183Y0392083D01*
X0323183Y0393317D01*
X0322862Y0394093D01*
X0323589Y0394280D01*
X0324077Y0394645D01*
X0324077Y0384076D01*
X0323914Y0382426D01*
X0323278Y0383062D01*
X0322836Y0383245D01*
X0323183Y0384083D01*
X0323183Y0385317D01*
X0322711Y0386456D01*
X0321839Y0387328D01*
X0320700Y0387800D01*
X0313467Y0387800D01*
X0312327Y0387328D01*
X0311455Y0386456D01*
X0310983Y0385317D01*
X0310983Y0384083D01*
X0311455Y0382944D01*
X0312327Y0382072D01*
X0313467Y0381600D01*
X0319363Y0381600D01*
X0319283Y0381407D01*
X0319283Y0381016D01*
X0316903Y0379528D01*
X0313159Y0379988D01*
X0311971Y0379658D01*
X0310999Y0378899D01*
X0310391Y0377826D01*
X0310241Y0376602D01*
X0310571Y0375413D01*
X0311330Y0374441D01*
X0312403Y0373834D01*
X0319583Y0372953D01*
X0320771Y0373282D01*
X0321743Y0374041D01*
X0322350Y0375115D01*
X0322500Y0376339D01*
X0322171Y0377527D01*
X0321528Y0378350D01*
X0322341Y0378350D01*
X0323278Y0378738D01*
X0323579Y0379040D01*
X0322637Y0369498D01*
X0319770Y0355133D01*
X0315504Y0341119D01*
X0313883Y0337219D01*
X0313883Y0337407D01*
X0313495Y0338344D01*
X0312778Y0339062D01*
X0311841Y0339450D01*
X0310826Y0339450D01*
X0309889Y0339062D01*
X0309862Y0339035D01*
X0305518Y0340738D01*
X0306295Y0342870D01*
X0305909Y0343696D01*
X0298394Y0346432D01*
X0298349Y0346411D01*
X0299094Y0348657D01*
X0299108Y0348641D01*
X0299410Y0348429D01*
X0302537Y0347291D01*
X0303956Y0351190D01*
X0304708Y0350917D01*
X0304981Y0351668D01*
X0309250Y0350115D01*
X0310254Y0352872D01*
X0310286Y0353239D01*
X0310222Y0353602D01*
X0310066Y0353936D01*
X0309829Y0354218D01*
X0309527Y0354430D01*
X0306400Y0355568D01*
X0304981Y0351669D01*
X0304229Y0351942D01*
X0305649Y0355841D01*
X0302522Y0356980D01*
X0302155Y0357012D01*
X0301791Y0356948D01*
X0301785Y0356945D01*
X0304563Y0369555D01*
X0304563Y0369555D01*
X0305264Y0375710D01*
X0305333Y0375779D01*
X0305333Y0376315D01*
X0305394Y0376848D01*
X0305333Y0376924D01*
X0305333Y0377021D01*
X0305129Y0377226D01*
X0305933Y0378030D01*
X0305933Y0379770D01*
X0304703Y0381000D01*
X0302963Y0381000D01*
X0301733Y0379770D01*
X0301733Y0378030D01*
X0301863Y0377900D01*
X0290833Y0377900D01*
X0289071Y0378015D01*
X0285667Y0378928D01*
X0282615Y0380690D01*
X0280123Y0383182D01*
X0278361Y0386234D01*
X0277449Y0389638D01*
X0277333Y0391400D01*
X0277449Y0393162D01*
X0278361Y0396566D01*
X0280123Y0399618D01*
X0282615Y0402110D01*
X0285667Y0403872D01*
X0289071Y0404785D01*
X0290833Y0404900D01*
X0301863Y0404900D01*
X0301733Y0404770D01*
X0301733Y0403030D01*
X0302963Y0401800D01*
X0304703Y0401800D01*
X0305933Y0403030D01*
X0305933Y0404770D01*
X0305129Y0405574D01*
X0305333Y0405779D01*
X0305333Y0405876D01*
X0305394Y0405952D01*
X0305333Y0406485D01*
X0305333Y0407021D01*
X0305264Y0407090D01*
X0304563Y0413245D01*
X0301673Y0426366D01*
X0297444Y0439119D01*
X0291921Y0451368D01*
X0285164Y0462981D01*
X0285164Y0462981D01*
X0277245Y0473835D01*
X0277245Y0473835D01*
X0268247Y0483814D01*
X0258269Y0492811D01*
X0247415Y0500731D01*
X0247414Y0500731D01*
X0235801Y0507488D01*
X0223553Y0513010D01*
X0210799Y0517239D01*
X0197678Y0520130D01*
X0191524Y0520831D01*
X0191455Y0520900D01*
X0190918Y0520900D01*
X0190386Y0520961D01*
X0190310Y0520900D01*
X0190212Y0520900D01*
X0190008Y0520696D01*
X0189203Y0521500D01*
X0187463Y0521500D01*
X0186233Y0520270D01*
X0186233Y0518530D01*
X0187463Y0517300D01*
X0189203Y0517300D01*
X0189333Y0517430D01*
X0189333Y0506400D01*
X0189218Y0504638D01*
X0188306Y0501234D01*
X0186544Y0498182D01*
X0184052Y0495690D01*
X0181000Y0493928D01*
X0177595Y0493015D01*
X0175833Y0492900D01*
X0174071Y0493015D01*
X0170667Y0493928D01*
X0167615Y0495690D01*
X0165123Y0498182D01*
X0163361Y0501234D01*
X0162449Y0504638D01*
X0162333Y0506400D01*
X0162333Y0517430D01*
X0162463Y0517300D01*
X0164203Y0517300D01*
X0165433Y0518530D01*
X0165433Y0520270D01*
X0164203Y0521500D01*
X0162463Y0521500D01*
X0161659Y0520696D01*
X0161455Y0520900D01*
X0161357Y0520900D01*
X0161281Y0520961D01*
X0160748Y0520900D01*
X0160212Y0520900D01*
X0160143Y0520831D01*
X0153989Y0520130D01*
X0153989Y0520130D01*
X0140867Y0517239D01*
X0128114Y0513010D01*
X0115865Y0507488D01*
X0104252Y0500731D01*
X0104252Y0500731D01*
X0093398Y0492811D01*
X0083419Y0483814D01*
X0074422Y0473835D01*
X0066503Y0462981D01*
X0059746Y0451368D01*
X0054223Y0439119D01*
X0049994Y0426366D01*
X0047103Y0413245D01*
X0046402Y0407090D01*
X0046333Y0407021D01*
X0046333Y0406485D01*
X0046273Y0405952D01*
X0046333Y0405876D01*
X0046333Y0405779D01*
X0046538Y0405574D01*
X0045733Y0404770D01*
X0045733Y0403030D01*
X0046963Y0401800D01*
X0048703Y0401800D01*
X0049933Y0403030D01*
X0049933Y0404770D01*
X0049803Y0404900D01*
X0060833Y0404900D01*
X0062595Y0404785D01*
X0066000Y0403872D01*
X0069052Y0402110D01*
X0071544Y0399618D01*
X0073306Y0396566D01*
X0074218Y0393162D01*
X0074333Y0391400D01*
X0074218Y0389638D01*
X0073306Y0386234D01*
X0071544Y0383182D01*
X0069052Y0380690D01*
X0066000Y0378928D01*
X0062595Y0378015D01*
X0060833Y0377900D01*
X0049803Y0377900D01*
X0049933Y0378030D01*
X0049933Y0379770D01*
X0048703Y0381000D01*
X0046963Y0381000D01*
X0045733Y0379770D01*
X0045733Y0378030D01*
X0046538Y0377226D01*
X0046333Y0377021D01*
X0046333Y0376924D01*
X0046273Y0376848D01*
X0046333Y0376315D01*
X0046333Y0375779D01*
X0046402Y0375710D01*
X0047103Y0369555D01*
X0049994Y0356434D01*
X0049994Y0356434D01*
X0054223Y0343681D01*
X0054223Y0343681D01*
X0059746Y0331432D01*
X0066503Y0319819D01*
X0074422Y0308965D01*
X0074422Y0308965D01*
X0083419Y0298986D01*
X0083419Y0298986D01*
X0083419Y0298986D01*
X0093398Y0289989D01*
X0093398Y0289989D01*
X0104252Y0282069D01*
X0115865Y0275312D01*
X0128114Y0269790D01*
X0140867Y0265561D01*
X0153989Y0262670D01*
X0160143Y0261969D01*
X0160212Y0261900D01*
X0160748Y0261900D01*
X0161281Y0261839D01*
X0161357Y0261900D01*
X0161455Y0261900D01*
X0161834Y0262279D01*
X0162196Y0262567D01*
X0162463Y0262300D01*
X0164203Y0262300D01*
X0165433Y0263530D01*
X0165433Y0265270D01*
X0164203Y0266500D01*
X0162463Y0266500D01*
X0162333Y0266370D01*
X0162333Y0276400D01*
X0162449Y0278162D01*
X0163361Y0281566D01*
X0165123Y0284618D01*
X0167615Y0287110D01*
X0170667Y0288872D01*
X0174071Y0289785D01*
X0175833Y0289900D01*
X0175833Y0289900D01*
X0177595Y0289785D01*
X0181000Y0288872D01*
X0184052Y0287110D01*
X0186544Y0284618D01*
X0188306Y0281566D01*
X0189218Y0278162D01*
X0189333Y0276400D01*
X0189333Y0266370D01*
X0189203Y0266500D01*
X0187463Y0266500D01*
X0186233Y0265270D01*
X0186233Y0263530D01*
X0187463Y0262300D01*
X0189203Y0262300D01*
X0189471Y0262567D01*
X0189833Y0262279D01*
X0190212Y0261900D01*
X0190310Y0261900D01*
X0190386Y0261839D01*
X0190918Y0261900D01*
X0191455Y0261900D01*
X0191524Y0261969D01*
X0197678Y0262670D01*
X0210799Y0265561D01*
X0223553Y0269790D01*
X0235801Y0275312D01*
X0235801Y0275312D01*
X0247414Y0282069D01*
X0247415Y0282069D01*
X0258269Y0289989D01*
X0268247Y0298986D01*
X0268247Y0298986D01*
X0277245Y0308965D01*
X0285164Y0319819D01*
X0291921Y0331432D01*
X0291921Y0331432D01*
X0295282Y0338886D01*
X0295487Y0338445D01*
X0303002Y0335710D01*
X0303828Y0336095D01*
X0304526Y0338012D01*
X0308808Y0336333D01*
X0309172Y0335456D01*
X0309889Y0334738D01*
X0310826Y0334350D01*
X0311841Y0334350D01*
X0312778Y0334738D01*
X0312905Y0334865D01*
X0309882Y0327593D01*
X0302957Y0314685D01*
X0294795Y0302520D01*
X0290311Y0296799D01*
X0289933Y0296421D01*
X0289933Y0296339D01*
X0289881Y0296275D01*
X0289933Y0295728D01*
X0289933Y0295298D01*
X0289122Y0294487D01*
X0289122Y0293148D01*
X0288230Y0292182D01*
X0286817Y0292182D01*
X0285587Y0290952D01*
X0285587Y0289323D01*
X0284961Y0288646D01*
X0283281Y0288646D01*
X0282051Y0287416D01*
X0282051Y0285677D01*
X0283281Y0284446D01*
X0285021Y0284446D01*
X0286251Y0285677D01*
X0286251Y0287416D01*
X0285021Y0288646D01*
X0284080Y0288646D01*
X0285587Y0290154D01*
X0285587Y0289212D01*
X0286817Y0287982D01*
X0288557Y0287982D01*
X0289787Y0289212D01*
X0289787Y0290952D01*
X0288557Y0292182D01*
X0287615Y0292182D01*
X0289122Y0293689D01*
X0289122Y0292748D01*
X0290353Y0291518D01*
X0292092Y0291518D01*
X0292843Y0292269D01*
X0299333Y0285779D01*
X0299333Y0285779D01*
X0299773Y0285339D01*
X0300954Y0283976D01*
X0302678Y0280818D01*
X0303443Y0277302D01*
X0303187Y0273713D01*
X0301929Y0270341D01*
X0299773Y0267461D01*
X0296892Y0265304D01*
X0293521Y0264047D01*
X0289931Y0263790D01*
X0286415Y0264555D01*
X0283257Y0266279D01*
X0281894Y0267461D01*
X0274965Y0274390D01*
X0275645Y0275070D01*
X0275645Y0276810D01*
X0274415Y0278040D01*
X0273473Y0278040D01*
X0274980Y0279547D01*
X0274980Y0278606D01*
X0276210Y0277375D01*
X0277950Y0277375D01*
X0279180Y0278606D01*
X0279180Y0280345D01*
X0277950Y0281575D01*
X0277009Y0281575D01*
X0278516Y0283082D01*
X0278516Y0282141D01*
X0279746Y0280911D01*
X0281486Y0280911D01*
X0282716Y0282141D01*
X0282716Y0283881D01*
X0281486Y0285111D01*
X0280544Y0285111D01*
X0282051Y0286618D01*
X0282051Y0285677D01*
X0282137Y0285591D01*
X0281899Y0285334D01*
X0281568Y0285028D01*
X0281486Y0285111D01*
X0279746Y0285111D01*
X0278516Y0283881D01*
X0278516Y0282206D01*
X0277833Y0281575D01*
X0276210Y0281575D01*
X0274980Y0280345D01*
X0274980Y0278938D01*
X0274009Y0278040D01*
X0272675Y0278040D01*
X0271935Y0277300D01*
X0271505Y0277300D01*
X0270959Y0277353D01*
X0270895Y0277300D01*
X0270812Y0277300D01*
X0270434Y0276922D01*
X0264713Y0272438D01*
X0252548Y0264277D01*
X0239640Y0257351D01*
X0226114Y0251729D01*
X0212100Y0247464D01*
X0197735Y0244597D01*
X0183158Y0243156D01*
X0168509Y0243156D01*
X0162041Y0243796D02*
X0189626Y0243796D01*
X0197707Y0244594D02*
X0153960Y0244594D01*
X0149944Y0245393D02*
X0201723Y0245393D01*
X0205724Y0246191D02*
X0145943Y0246191D01*
X0141941Y0246990D02*
X0209725Y0246990D01*
X0213167Y0247788D02*
X0138500Y0247788D01*
X0135877Y0248587D02*
X0215790Y0248587D01*
X0218414Y0249385D02*
X0133253Y0249385D01*
X0130630Y0250184D02*
X0221037Y0250184D01*
X0223661Y0250982D02*
X0128006Y0250982D01*
X0125428Y0251781D02*
X0226239Y0251781D01*
X0228160Y0252579D02*
X0123507Y0252579D01*
X0121586Y0253378D02*
X0230081Y0253378D01*
X0232002Y0254176D02*
X0119665Y0254176D01*
X0117744Y0254975D02*
X0233923Y0254975D01*
X0235844Y0255773D02*
X0115823Y0255773D01*
X0113902Y0256572D02*
X0237765Y0256572D01*
X0239675Y0257370D02*
X0111991Y0257370D01*
X0110503Y0258169D02*
X0241164Y0258169D01*
X0242652Y0258967D02*
X0109015Y0258967D01*
X0107526Y0259766D02*
X0244140Y0259766D01*
X0245629Y0260564D02*
X0106038Y0260564D01*
X0104550Y0261363D02*
X0247117Y0261363D01*
X0248605Y0262161D02*
X0193212Y0262161D01*
X0189951Y0262161D02*
X0161716Y0262161D01*
X0164863Y0262960D02*
X0166804Y0262960D01*
X0166233Y0263530D02*
X0167463Y0262300D01*
X0169203Y0262300D01*
X0170433Y0263530D01*
X0170433Y0265270D01*
X0169203Y0266500D01*
X0167463Y0266500D01*
X0166233Y0265270D01*
X0166233Y0263530D01*
X0166233Y0263758D02*
X0165433Y0263758D01*
X0165433Y0264557D02*
X0166233Y0264557D01*
X0166319Y0265355D02*
X0165348Y0265355D01*
X0164549Y0266154D02*
X0167117Y0266154D01*
X0169549Y0266154D02*
X0172117Y0266154D01*
X0172463Y0266500D02*
X0171233Y0265270D01*
X0171233Y0263530D01*
X0172463Y0262300D01*
X0174203Y0262300D01*
X0175433Y0263530D01*
X0175433Y0265270D01*
X0174203Y0266500D01*
X0172463Y0266500D01*
X0171319Y0265355D02*
X0170348Y0265355D01*
X0170433Y0264557D02*
X0171233Y0264557D01*
X0171233Y0263758D02*
X0170433Y0263758D01*
X0169863Y0262960D02*
X0171804Y0262960D01*
X0174863Y0262960D02*
X0176804Y0262960D01*
X0176233Y0263530D02*
X0177463Y0262300D01*
X0179203Y0262300D01*
X0180433Y0263530D01*
X0180433Y0265270D01*
X0179203Y0266500D01*
X0177463Y0266500D01*
X0176233Y0265270D01*
X0176233Y0263530D01*
X0176233Y0263758D02*
X0175433Y0263758D01*
X0175433Y0264557D02*
X0176233Y0264557D01*
X0176319Y0265355D02*
X0175348Y0265355D01*
X0174549Y0266154D02*
X0177117Y0266154D01*
X0179549Y0266154D02*
X0182117Y0266154D01*
X0182463Y0266500D02*
X0181233Y0265270D01*
X0181233Y0263530D01*
X0182463Y0262300D01*
X0184203Y0262300D01*
X0185433Y0263530D01*
X0185433Y0265270D01*
X0184203Y0266500D01*
X0182463Y0266500D01*
X0181319Y0265355D02*
X0180348Y0265355D01*
X0180433Y0264557D02*
X0181233Y0264557D01*
X0181233Y0263758D02*
X0180433Y0263758D01*
X0179863Y0262960D02*
X0181804Y0262960D01*
X0184863Y0262960D02*
X0186804Y0262960D01*
X0186233Y0263758D02*
X0185433Y0263758D01*
X0185433Y0264557D02*
X0186233Y0264557D01*
X0186319Y0265355D02*
X0185348Y0265355D01*
X0184549Y0266154D02*
X0187117Y0266154D01*
X0189333Y0266952D02*
X0162333Y0266952D01*
X0162333Y0267751D02*
X0189333Y0267751D01*
X0189333Y0268549D02*
X0162333Y0268549D01*
X0162333Y0269348D02*
X0189333Y0269348D01*
X0189333Y0270146D02*
X0162333Y0270146D01*
X0162333Y0270945D02*
X0189333Y0270945D01*
X0189333Y0271743D02*
X0162333Y0271743D01*
X0162333Y0272542D02*
X0189333Y0272542D01*
X0189333Y0273340D02*
X0162333Y0273340D01*
X0162333Y0274139D02*
X0189333Y0274139D01*
X0189333Y0274937D02*
X0162333Y0274937D01*
X0162333Y0275736D02*
X0189333Y0275736D01*
X0189325Y0276534D02*
X0162342Y0276534D01*
X0162394Y0277333D02*
X0189272Y0277333D01*
X0189220Y0278132D02*
X0162447Y0278132D01*
X0162655Y0278930D02*
X0189012Y0278930D01*
X0188798Y0279729D02*
X0162869Y0279729D01*
X0163082Y0280527D02*
X0188584Y0280527D01*
X0188370Y0281326D02*
X0163296Y0281326D01*
X0163683Y0282124D02*
X0187984Y0282124D01*
X0187523Y0282923D02*
X0164144Y0282923D01*
X0164605Y0283721D02*
X0187062Y0283721D01*
X0186601Y0284520D02*
X0165066Y0284520D01*
X0165823Y0285318D02*
X0185844Y0285318D01*
X0185045Y0286117D02*
X0166621Y0286117D01*
X0167420Y0286915D02*
X0184247Y0286915D01*
X0183006Y0287714D02*
X0168660Y0287714D01*
X0170043Y0288512D02*
X0181623Y0288512D01*
X0179364Y0289311D02*
X0172303Y0289311D01*
X0158455Y0262161D02*
X0103061Y0262161D01*
X0101573Y0262960D02*
X0152674Y0262960D01*
X0149049Y0263758D02*
X0100085Y0263758D01*
X0098701Y0264557D02*
X0145424Y0264557D01*
X0141799Y0265355D02*
X0097511Y0265355D01*
X0096320Y0266154D02*
X0139078Y0266154D01*
X0136670Y0266952D02*
X0095130Y0266952D01*
X0093940Y0267751D02*
X0134262Y0267751D01*
X0131854Y0268549D02*
X0092750Y0268549D01*
X0091559Y0269348D02*
X0129446Y0269348D01*
X0127323Y0270146D02*
X0090369Y0270146D01*
X0089179Y0270945D02*
X0125552Y0270945D01*
X0123781Y0271743D02*
X0087989Y0271743D01*
X0086821Y0272542D02*
X0122010Y0272542D01*
X0120239Y0273340D02*
X0085802Y0273340D01*
X0084783Y0274139D02*
X0118468Y0274139D01*
X0116697Y0274937D02*
X0083765Y0274937D01*
X0082746Y0275736D02*
X0115137Y0275736D01*
X0115865Y0275312D02*
X0115865Y0275312D01*
X0113765Y0276534D02*
X0081727Y0276534D01*
X0080732Y0277333D02*
X0112392Y0277333D01*
X0111020Y0278132D02*
X0077559Y0278132D01*
X0078102Y0278132D02*
X0076070Y0278132D01*
X0076403Y0277333D02*
X0048230Y0277333D01*
X0048278Y0276534D02*
X0075951Y0276534D01*
X0075951Y0275736D02*
X0048335Y0275736D01*
X0048393Y0274937D02*
X0076154Y0274937D01*
X0076451Y0274139D02*
X0048450Y0274139D01*
X0048619Y0273340D02*
X0075652Y0273340D01*
X0074854Y0272542D02*
X0048917Y0272542D01*
X0049215Y0271743D02*
X0074055Y0271743D01*
X0073257Y0270945D02*
X0049512Y0270945D01*
X0049883Y0270146D02*
X0072458Y0270146D01*
X0071660Y0269348D02*
X0050481Y0269348D01*
X0051079Y0268549D02*
X0070861Y0268549D01*
X0070063Y0267751D02*
X0051677Y0267751D01*
X0052573Y0266952D02*
X0069186Y0266952D01*
X0068179Y0266154D02*
X0053640Y0266154D01*
X0054706Y0265355D02*
X0066717Y0265355D01*
X0065255Y0264557D02*
X0056779Y0264557D01*
X0058146Y0264047D02*
X0058146Y0264047D01*
X0048404Y0278132D02*
X0072960Y0278132D01*
X0072415Y0278930D02*
X0048578Y0278930D01*
X0048751Y0279729D02*
X0072415Y0279729D01*
X0072526Y0280527D02*
X0048925Y0280527D01*
X0049265Y0281326D02*
X0069766Y0281326D01*
X0068968Y0282124D02*
X0049701Y0282124D01*
X0050137Y0282923D02*
X0068880Y0282923D01*
X0068880Y0283721D02*
X0050573Y0283721D01*
X0051184Y0284520D02*
X0066572Y0284520D01*
X0065774Y0285318D02*
X0051876Y0285318D01*
X0052333Y0285779D02*
X0052333Y0285779D01*
X0052671Y0286117D02*
X0065344Y0286117D01*
X0065344Y0286915D02*
X0053470Y0286915D01*
X0054268Y0287714D02*
X0065571Y0287714D01*
X0065238Y0288512D02*
X0066369Y0288512D01*
X0066091Y0289311D02*
X0094327Y0289311D01*
X0093264Y0290109D02*
X0066009Y0290109D01*
X0066124Y0290109D01*
X0066009Y0289311D02*
X0066923Y0289311D01*
X0068519Y0288512D02*
X0095422Y0288512D01*
X0096516Y0287714D02*
X0069318Y0287714D01*
X0069544Y0286915D02*
X0097611Y0286915D01*
X0098705Y0286117D02*
X0069544Y0286117D01*
X0070117Y0286117D01*
X0069784Y0285318D02*
X0099799Y0285318D01*
X0100894Y0284520D02*
X0072512Y0284520D01*
X0073080Y0283721D02*
X0101988Y0283721D01*
X0103083Y0282923D02*
X0073080Y0282923D01*
X0073311Y0282923D01*
X0073240Y0282124D02*
X0104177Y0282124D01*
X0105530Y0281326D02*
X0075706Y0281326D01*
X0076505Y0280527D02*
X0106903Y0280527D01*
X0108275Y0279729D02*
X0076615Y0279729D01*
X0076615Y0278930D02*
X0077303Y0278930D01*
X0076695Y0278930D02*
X0109648Y0278930D01*
X0092379Y0290908D02*
X0066009Y0290908D01*
X0065325Y0291706D02*
X0091493Y0291706D01*
X0090607Y0292505D02*
X0063139Y0292505D01*
X0063729Y0292505D02*
X0062159Y0292505D01*
X0062473Y0293303D02*
X0062930Y0293303D01*
X0062473Y0293303D02*
X0089722Y0293303D01*
X0088836Y0294102D02*
X0062473Y0294102D01*
X0062131Y0294900D02*
X0087951Y0294900D01*
X0087065Y0295699D02*
X0061733Y0295699D01*
X0061657Y0296497D02*
X0086179Y0296497D01*
X0085294Y0297296D02*
X0060966Y0297296D01*
X0060340Y0298094D02*
X0084408Y0298094D01*
X0083522Y0298893D02*
X0059714Y0298893D01*
X0059089Y0299691D02*
X0082783Y0299691D01*
X0082063Y0300490D02*
X0058463Y0300490D01*
X0057837Y0301288D02*
X0081343Y0301288D01*
X0080623Y0302087D02*
X0057211Y0302087D01*
X0056626Y0302885D02*
X0079903Y0302885D01*
X0079183Y0303684D02*
X0056091Y0303684D01*
X0055555Y0304482D02*
X0078463Y0304482D01*
X0077743Y0305281D02*
X0055019Y0305281D01*
X0054483Y0306079D02*
X0077023Y0306079D01*
X0076304Y0306878D02*
X0053948Y0306878D01*
X0053412Y0307676D02*
X0075584Y0307676D01*
X0074864Y0308475D02*
X0052876Y0308475D01*
X0052341Y0309273D02*
X0074197Y0309273D01*
X0073614Y0310072D02*
X0051805Y0310072D01*
X0051269Y0310870D02*
X0073032Y0310870D01*
X0072449Y0311669D02*
X0050733Y0311669D01*
X0050198Y0312468D02*
X0071866Y0312468D01*
X0071284Y0313266D02*
X0049662Y0313266D01*
X0049126Y0314065D02*
X0070701Y0314065D01*
X0070118Y0314863D02*
X0048615Y0314863D01*
X0048186Y0315662D02*
X0069536Y0315662D01*
X0068953Y0316460D02*
X0047758Y0316460D01*
X0047329Y0317259D02*
X0068371Y0317259D01*
X0067788Y0318057D02*
X0046901Y0318057D01*
X0046473Y0318856D02*
X0067205Y0318856D01*
X0066623Y0319654D02*
X0046044Y0319654D01*
X0045616Y0320453D02*
X0066134Y0320453D01*
X0066503Y0319819D02*
X0066503Y0319819D01*
X0065669Y0321251D02*
X0045187Y0321251D01*
X0044759Y0322050D02*
X0065205Y0322050D01*
X0064740Y0322848D02*
X0044330Y0322848D01*
X0043902Y0323647D02*
X0064275Y0323647D01*
X0063811Y0324445D02*
X0043474Y0324445D01*
X0043045Y0325244D02*
X0063346Y0325244D01*
X0062882Y0326042D02*
X0042617Y0326042D01*
X0042188Y0326841D02*
X0062417Y0326841D01*
X0061952Y0327639D02*
X0041766Y0327639D01*
X0041434Y0328438D02*
X0061488Y0328438D01*
X0061023Y0329236D02*
X0041102Y0329236D01*
X0040770Y0330035D02*
X0060559Y0330035D01*
X0060094Y0330833D02*
X0040438Y0330833D01*
X0040106Y0331632D02*
X0059656Y0331632D01*
X0059746Y0331432D02*
X0059746Y0331432D01*
X0059296Y0332430D02*
X0039774Y0332430D01*
X0039442Y0333229D02*
X0058936Y0333229D01*
X0058576Y0334027D02*
X0039110Y0334027D01*
X0038778Y0334826D02*
X0058215Y0334826D01*
X0057855Y0335624D02*
X0038446Y0335624D01*
X0038114Y0336423D02*
X0057495Y0336423D01*
X0057135Y0337221D02*
X0037782Y0337221D01*
X0037451Y0338020D02*
X0056775Y0338020D01*
X0056415Y0338818D02*
X0037119Y0338818D01*
X0036787Y0339617D02*
X0056055Y0339617D01*
X0055695Y0340415D02*
X0036455Y0340415D01*
X0036133Y0341214D02*
X0055335Y0341214D01*
X0054975Y0342012D02*
X0035890Y0342012D01*
X0035647Y0342811D02*
X0054615Y0342811D01*
X0054255Y0343609D02*
X0035404Y0343609D01*
X0035161Y0344408D02*
X0053982Y0344408D01*
X0053717Y0345206D02*
X0034918Y0345206D01*
X0034675Y0346005D02*
X0053452Y0346005D01*
X0053187Y0346803D02*
X0034432Y0346803D01*
X0034189Y0347602D02*
X0052923Y0347602D01*
X0052658Y0348401D02*
X0033946Y0348401D01*
X0033703Y0349199D02*
X0052393Y0349199D01*
X0052128Y0349998D02*
X0033460Y0349998D01*
X0033217Y0350796D02*
X0051864Y0350796D01*
X0051599Y0351595D02*
X0032974Y0351595D01*
X0032731Y0352393D02*
X0051334Y0352393D01*
X0051069Y0353192D02*
X0032488Y0353192D01*
X0032245Y0353990D02*
X0050804Y0353990D01*
X0050540Y0354789D02*
X0032002Y0354789D01*
X0031806Y0355587D02*
X0050275Y0355587D01*
X0050010Y0356386D02*
X0031647Y0356386D01*
X0031488Y0357184D02*
X0049829Y0357184D01*
X0049653Y0357983D02*
X0031328Y0357983D01*
X0031169Y0358781D02*
X0049477Y0358781D01*
X0049301Y0359580D02*
X0031009Y0359580D01*
X0030850Y0360378D02*
X0049125Y0360378D01*
X0048949Y0361177D02*
X0030691Y0361177D01*
X0030531Y0361975D02*
X0048773Y0361975D01*
X0048597Y0362774D02*
X0030372Y0362774D01*
X0030213Y0363572D02*
X0048421Y0363572D01*
X0048246Y0364371D02*
X0030053Y0364371D01*
X0029894Y0365169D02*
X0048070Y0365169D01*
X0047894Y0365968D02*
X0029735Y0365968D01*
X0029575Y0366766D02*
X0047718Y0366766D01*
X0047542Y0367565D02*
X0029416Y0367565D01*
X0029257Y0368363D02*
X0047366Y0368363D01*
X0047190Y0369162D02*
X0029097Y0369162D01*
X0028984Y0369960D02*
X0047057Y0369960D01*
X0047103Y0369555D02*
X0047103Y0369555D01*
X0046966Y0370759D02*
X0028906Y0370759D01*
X0028827Y0371557D02*
X0046875Y0371557D01*
X0046784Y0372356D02*
X0028748Y0372356D01*
X0028669Y0373154D02*
X0046693Y0373154D01*
X0046602Y0373953D02*
X0028590Y0373953D01*
X0028511Y0374751D02*
X0046511Y0374751D01*
X0046420Y0375550D02*
X0028432Y0375550D01*
X0028353Y0376348D02*
X0046329Y0376348D01*
X0046459Y0377147D02*
X0028274Y0377147D01*
X0028195Y0377945D02*
X0045818Y0377945D01*
X0045733Y0378744D02*
X0028117Y0378744D01*
X0028038Y0379542D02*
X0045733Y0379542D01*
X0046304Y0380341D02*
X0027959Y0380341D01*
X0027880Y0381139D02*
X0069501Y0381139D01*
X0070300Y0381938D02*
X0048841Y0381938D01*
X0048703Y0381800D02*
X0049933Y0383030D01*
X0049933Y0384770D01*
X0048703Y0386000D01*
X0046963Y0386000D01*
X0046933Y0385970D01*
X0046933Y0386830D01*
X0046963Y0386800D01*
X0048703Y0386800D01*
X0049933Y0388030D01*
X0049933Y0389770D01*
X0048703Y0391000D01*
X0046963Y0391000D01*
X0046933Y0390970D01*
X0046933Y0391830D01*
X0046963Y0391800D01*
X0048703Y0391800D01*
X0049933Y0393030D01*
X0049933Y0394770D01*
X0048703Y0396000D01*
X0046963Y0396000D01*
X0045733Y0394770D01*
X0045733Y0393957D01*
X0045095Y0394175D01*
X0044929Y0394256D01*
X0044834Y0394376D01*
X0044640Y0394397D01*
X0043836Y0394789D01*
X0043752Y0394789D01*
X0045283Y0395300D01*
X0045410Y0395257D01*
X0045916Y0395511D01*
X0046453Y0395690D01*
X0046513Y0395809D01*
X0046633Y0395869D01*
X0046812Y0396406D01*
X0047009Y0396800D01*
X0048703Y0396800D01*
X0049933Y0398030D01*
X0049933Y0399770D01*
X0048703Y0401000D01*
X0046963Y0401000D01*
X0045733Y0399770D01*
X0045733Y0398659D01*
X0045410Y0398820D01*
X0045283Y0398778D01*
X0041223Y0400131D01*
X0040001Y0399520D01*
X0039569Y0398223D01*
X0040161Y0397039D01*
X0039569Y0395854D01*
X0040001Y0394558D01*
X0040176Y0394470D01*
X0039571Y0394175D01*
X0038800Y0393911D01*
X0038800Y0393911D01*
X0037733Y0392418D01*
X0037733Y0390583D01*
X0038800Y0389090D01*
X0039571Y0388825D01*
X0039737Y0388744D01*
X0039825Y0388635D01*
X0038700Y0388635D01*
X0037733Y0387669D01*
X0037733Y0384056D01*
X0038864Y0382500D01*
X0038864Y0382500D01*
X0038864Y0382500D01*
X0040694Y0381905D01*
X0040694Y0381905D01*
X0042187Y0382390D01*
X0042763Y0382057D01*
X0044526Y0382057D01*
X0045908Y0382855D01*
X0046963Y0381800D01*
X0048703Y0381800D01*
X0049640Y0382737D02*
X0071098Y0382737D01*
X0071748Y0383535D02*
X0049933Y0383535D01*
X0049933Y0384334D02*
X0072209Y0384334D01*
X0072670Y0385132D02*
X0049571Y0385132D01*
X0048773Y0385931D02*
X0073131Y0385931D01*
X0073438Y0386729D02*
X0046933Y0386729D01*
X0049431Y0387528D02*
X0073652Y0387528D01*
X0073866Y0388326D02*
X0049933Y0388326D01*
X0049933Y0389125D02*
X0074080Y0389125D01*
X0074237Y0389923D02*
X0049780Y0389923D01*
X0048982Y0390722D02*
X0074289Y0390722D01*
X0074333Y0391400D02*
X0074333Y0391400D01*
X0074325Y0391520D02*
X0046933Y0391520D01*
X0049222Y0392319D02*
X0074273Y0392319D01*
X0074221Y0393117D02*
X0049933Y0393117D01*
X0049933Y0393916D02*
X0074016Y0393916D01*
X0073802Y0394714D02*
X0049933Y0394714D01*
X0049190Y0395513D02*
X0073588Y0395513D01*
X0073374Y0396311D02*
X0046780Y0396311D01*
X0046476Y0395513D02*
X0045922Y0395513D01*
X0045733Y0394714D02*
X0043990Y0394714D01*
X0039949Y0394714D02*
X0027590Y0394714D01*
X0027590Y0393916D02*
X0038814Y0393916D01*
X0038233Y0393117D02*
X0027590Y0393117D01*
X0027590Y0392319D02*
X0037733Y0392319D01*
X0037733Y0391520D02*
X0027590Y0391520D01*
X0027590Y0390722D02*
X0037733Y0390722D01*
X0038205Y0389923D02*
X0027590Y0389923D01*
X0027590Y0389125D02*
X0038775Y0389125D01*
X0038800Y0389090D02*
X0038800Y0389090D01*
X0038800Y0389090D01*
X0038391Y0388326D02*
X0027590Y0388326D01*
X0027590Y0387528D02*
X0037733Y0387528D01*
X0037733Y0386729D02*
X0027590Y0386729D01*
X0027590Y0385931D02*
X0037733Y0385931D01*
X0037733Y0385132D02*
X0027590Y0385132D01*
X0027590Y0384334D02*
X0037733Y0384334D01*
X0038112Y0383535D02*
X0027643Y0383535D01*
X0027722Y0382737D02*
X0038692Y0382737D01*
X0040593Y0381938D02*
X0027801Y0381938D01*
X0027590Y0395513D02*
X0039682Y0395513D01*
X0039797Y0396311D02*
X0027590Y0396311D01*
X0027590Y0397110D02*
X0040125Y0397110D01*
X0039726Y0397908D02*
X0027590Y0397908D01*
X0027590Y0398707D02*
X0039730Y0398707D01*
X0039996Y0399505D02*
X0027667Y0399505D01*
X0027746Y0400304D02*
X0046267Y0400304D01*
X0045733Y0399505D02*
X0043102Y0399505D01*
X0045637Y0398707D02*
X0045733Y0398707D01*
X0046863Y0401901D02*
X0027904Y0401901D01*
X0027983Y0402699D02*
X0046064Y0402699D01*
X0045733Y0403498D02*
X0028061Y0403498D01*
X0028140Y0404296D02*
X0045733Y0404296D01*
X0046058Y0405095D02*
X0028219Y0405095D01*
X0028298Y0405893D02*
X0046320Y0405893D01*
X0046333Y0406692D02*
X0028377Y0406692D01*
X0028456Y0407490D02*
X0046448Y0407490D01*
X0046539Y0408289D02*
X0028535Y0408289D01*
X0028614Y0409087D02*
X0046630Y0409087D01*
X0046721Y0409886D02*
X0028693Y0409886D01*
X0028772Y0410684D02*
X0046812Y0410684D01*
X0046903Y0411483D02*
X0028850Y0411483D01*
X0028929Y0412281D02*
X0046994Y0412281D01*
X0047085Y0413080D02*
X0029008Y0413080D01*
X0029145Y0413878D02*
X0047243Y0413878D01*
X0047419Y0414677D02*
X0029305Y0414677D01*
X0029464Y0415475D02*
X0047595Y0415475D01*
X0047771Y0416274D02*
X0029623Y0416274D01*
X0029783Y0417072D02*
X0047947Y0417072D01*
X0048123Y0417871D02*
X0029942Y0417871D01*
X0030101Y0418670D02*
X0048298Y0418670D01*
X0048474Y0419468D02*
X0030261Y0419468D01*
X0030420Y0420267D02*
X0048650Y0420267D01*
X0048826Y0421065D02*
X0030579Y0421065D01*
X0030739Y0421864D02*
X0049002Y0421864D01*
X0049178Y0422662D02*
X0030898Y0422662D01*
X0031057Y0423461D02*
X0049354Y0423461D01*
X0049530Y0424259D02*
X0031217Y0424259D01*
X0031376Y0425058D02*
X0049706Y0425058D01*
X0049882Y0425856D02*
X0031535Y0425856D01*
X0031695Y0426655D02*
X0050090Y0426655D01*
X0050354Y0427453D02*
X0031854Y0427453D01*
X0032075Y0428252D02*
X0050619Y0428252D01*
X0050884Y0429050D02*
X0032318Y0429050D01*
X0032561Y0429849D02*
X0051149Y0429849D01*
X0051414Y0430647D02*
X0032804Y0430647D01*
X0033047Y0431446D02*
X0051678Y0431446D01*
X0051943Y0432244D02*
X0033290Y0432244D01*
X0033533Y0433043D02*
X0052208Y0433043D01*
X0052473Y0433841D02*
X0033776Y0433841D01*
X0034019Y0434640D02*
X0052738Y0434640D01*
X0053002Y0435438D02*
X0034262Y0435438D01*
X0034505Y0436237D02*
X0053267Y0436237D01*
X0053532Y0437035D02*
X0034748Y0437035D01*
X0034991Y0437834D02*
X0053797Y0437834D01*
X0054062Y0438632D02*
X0035234Y0438632D01*
X0035477Y0439431D02*
X0054364Y0439431D01*
X0054724Y0440229D02*
X0035720Y0440229D01*
X0035963Y0441028D02*
X0055084Y0441028D01*
X0055444Y0441826D02*
X0036223Y0441826D01*
X0036555Y0442625D02*
X0055804Y0442625D01*
X0056164Y0443423D02*
X0036887Y0443423D01*
X0037219Y0444222D02*
X0056524Y0444222D01*
X0056884Y0445020D02*
X0037550Y0445020D01*
X0037882Y0445819D02*
X0057244Y0445819D01*
X0057604Y0446617D02*
X0038214Y0446617D01*
X0038546Y0447416D02*
X0057964Y0447416D01*
X0058324Y0448214D02*
X0038878Y0448214D01*
X0039210Y0449013D02*
X0058684Y0449013D01*
X0059044Y0449811D02*
X0039542Y0449811D01*
X0039874Y0450610D02*
X0059404Y0450610D01*
X0059769Y0451408D02*
X0040206Y0451408D01*
X0040538Y0452207D02*
X0060234Y0452207D01*
X0060698Y0453005D02*
X0040870Y0453005D01*
X0041202Y0453804D02*
X0061163Y0453804D01*
X0061628Y0454603D02*
X0041533Y0454603D01*
X0041889Y0455401D02*
X0062092Y0455401D01*
X0062557Y0456200D02*
X0042317Y0456200D01*
X0042746Y0456998D02*
X0063021Y0456998D01*
X0063486Y0457797D02*
X0043174Y0457797D01*
X0043602Y0458595D02*
X0063951Y0458595D01*
X0064415Y0459394D02*
X0044031Y0459394D01*
X0044459Y0460192D02*
X0064880Y0460192D01*
X0065344Y0460991D02*
X0044888Y0460991D01*
X0045316Y0461789D02*
X0065809Y0461789D01*
X0066274Y0462588D02*
X0045745Y0462588D01*
X0046173Y0463386D02*
X0066798Y0463386D01*
X0067381Y0464185D02*
X0046601Y0464185D01*
X0047030Y0464983D02*
X0067963Y0464983D01*
X0068546Y0465782D02*
X0047458Y0465782D01*
X0047887Y0466580D02*
X0069129Y0466580D01*
X0069711Y0467379D02*
X0048315Y0467379D01*
X0048752Y0468177D02*
X0070294Y0468177D01*
X0070876Y0468976D02*
X0049288Y0468976D01*
X0049823Y0469774D02*
X0071459Y0469774D01*
X0072042Y0470573D02*
X0050359Y0470573D01*
X0050895Y0471371D02*
X0072624Y0471371D01*
X0073207Y0472170D02*
X0051430Y0472170D01*
X0051966Y0472968D02*
X0073789Y0472968D01*
X0074372Y0473767D02*
X0052502Y0473767D01*
X0053038Y0474565D02*
X0075080Y0474565D01*
X0074422Y0473835D02*
X0074422Y0473835D01*
X0075800Y0475364D02*
X0053573Y0475364D01*
X0054109Y0476162D02*
X0076520Y0476162D01*
X0077240Y0476961D02*
X0054645Y0476961D01*
X0055180Y0477759D02*
X0077960Y0477759D01*
X0078680Y0478558D02*
X0055716Y0478558D01*
X0056252Y0479356D02*
X0079400Y0479356D01*
X0080120Y0480155D02*
X0056787Y0480155D01*
X0057399Y0480953D02*
X0080840Y0480953D01*
X0081560Y0481752D02*
X0058025Y0481752D01*
X0058651Y0482550D02*
X0082280Y0482550D01*
X0083000Y0483349D02*
X0059277Y0483349D01*
X0059903Y0484147D02*
X0083789Y0484147D01*
X0083419Y0483814D02*
X0083419Y0483814D01*
X0084675Y0484946D02*
X0060529Y0484946D01*
X0061155Y0485744D02*
X0085560Y0485744D01*
X0086446Y0486543D02*
X0061784Y0486543D01*
X0061733Y0487341D02*
X0087331Y0487341D01*
X0088217Y0488140D02*
X0062372Y0488140D01*
X0062544Y0488939D02*
X0089103Y0488939D01*
X0089988Y0489737D02*
X0062623Y0489737D01*
X0062544Y0489737D02*
X0063170Y0489737D01*
X0063361Y0490536D02*
X0090874Y0490536D01*
X0091760Y0491334D02*
X0065566Y0491334D01*
X0066080Y0492133D02*
X0092645Y0492133D01*
X0093562Y0492931D02*
X0066080Y0492931D01*
X0066364Y0492931D01*
X0066313Y0493730D02*
X0094657Y0493730D01*
X0095751Y0494528D02*
X0068760Y0494528D01*
X0069558Y0495327D02*
X0096845Y0495327D01*
X0097940Y0496125D02*
X0069615Y0496125D01*
X0069615Y0496924D02*
X0070357Y0496924D01*
X0069615Y0496924D02*
X0099034Y0496924D01*
X0100129Y0497722D02*
X0071954Y0497722D01*
X0072752Y0498521D02*
X0101223Y0498521D01*
X0102318Y0499319D02*
X0073151Y0499319D01*
X0073151Y0500118D02*
X0073551Y0500118D01*
X0073151Y0500118D02*
X0103412Y0500118D01*
X0104571Y0500916D02*
X0073500Y0500916D01*
X0072894Y0500916D02*
X0074350Y0500916D01*
X0073226Y0501715D02*
X0072095Y0501715D01*
X0072486Y0502513D02*
X0048873Y0502513D01*
X0048699Y0503312D02*
X0072486Y0503312D01*
X0072486Y0504110D02*
X0048525Y0504110D01*
X0048352Y0504909D02*
X0073201Y0504909D01*
X0075972Y0504909D02*
X0077103Y0504909D01*
X0076955Y0504110D02*
X0110061Y0504110D01*
X0111433Y0504909D02*
X0079140Y0504909D01*
X0077544Y0504110D02*
X0076686Y0504110D01*
X0076686Y0503312D02*
X0076745Y0503312D01*
X0076686Y0503312D02*
X0108688Y0503312D01*
X0107316Y0502513D02*
X0076686Y0502513D01*
X0075946Y0501715D02*
X0105943Y0501715D01*
X0112805Y0505707D02*
X0081062Y0505707D01*
X0082034Y0506506D02*
X0114178Y0506506D01*
X0115550Y0507304D02*
X0083052Y0507304D01*
X0084071Y0508103D02*
X0117230Y0508103D01*
X0115865Y0507488D02*
X0115865Y0507488D01*
X0119001Y0508901D02*
X0085090Y0508901D01*
X0086109Y0509700D02*
X0120772Y0509700D01*
X0122543Y0510498D02*
X0087157Y0510498D01*
X0088347Y0511297D02*
X0124314Y0511297D01*
X0126085Y0512095D02*
X0089537Y0512095D01*
X0090727Y0512894D02*
X0127856Y0512894D01*
X0128114Y0513010D02*
X0128114Y0513010D01*
X0130171Y0513692D02*
X0091918Y0513692D01*
X0093108Y0514491D02*
X0132579Y0514491D01*
X0134987Y0515289D02*
X0094298Y0515289D01*
X0095488Y0516088D02*
X0137395Y0516088D01*
X0139803Y0516886D02*
X0096679Y0516886D01*
X0097869Y0517685D02*
X0142890Y0517685D01*
X0140867Y0517239D02*
X0140867Y0517239D01*
X0146515Y0518483D02*
X0099059Y0518483D01*
X0100532Y0519282D02*
X0150140Y0519282D01*
X0153764Y0520080D02*
X0102021Y0520080D01*
X0103509Y0520879D02*
X0160191Y0520879D01*
X0161476Y0520879D02*
X0161842Y0520879D01*
X0164824Y0520879D02*
X0166842Y0520879D01*
X0166233Y0520270D02*
X0166233Y0518530D01*
X0167463Y0517300D01*
X0169203Y0517300D01*
X0170433Y0518530D01*
X0170433Y0520270D01*
X0169203Y0521500D01*
X0167463Y0521500D01*
X0166233Y0520270D01*
X0166233Y0520080D02*
X0165433Y0520080D01*
X0165433Y0519282D02*
X0166233Y0519282D01*
X0166280Y0518483D02*
X0165387Y0518483D01*
X0164588Y0517685D02*
X0167079Y0517685D01*
X0169588Y0517685D02*
X0172079Y0517685D01*
X0172463Y0517300D02*
X0174203Y0517300D01*
X0175433Y0518530D01*
X0175433Y0520270D01*
X0174203Y0521500D01*
X0172463Y0521500D01*
X0171233Y0520270D01*
X0171233Y0518530D01*
X0172463Y0517300D01*
X0171280Y0518483D02*
X0170387Y0518483D01*
X0170433Y0519282D02*
X0171233Y0519282D01*
X0171233Y0520080D02*
X0170433Y0520080D01*
X0169824Y0520879D02*
X0171842Y0520879D01*
X0174824Y0520879D02*
X0176842Y0520879D01*
X0176233Y0520270D02*
X0176233Y0518530D01*
X0177463Y0517300D01*
X0179203Y0517300D01*
X0180433Y0518530D01*
X0180433Y0520270D01*
X0179203Y0521500D01*
X0177463Y0521500D01*
X0176233Y0520270D01*
X0176233Y0520080D02*
X0175433Y0520080D01*
X0175433Y0519282D02*
X0176233Y0519282D01*
X0176280Y0518483D02*
X0175387Y0518483D01*
X0174588Y0517685D02*
X0177079Y0517685D01*
X0179588Y0517685D02*
X0182079Y0517685D01*
X0182463Y0517300D02*
X0184203Y0517300D01*
X0185433Y0518530D01*
X0185433Y0520270D01*
X0184203Y0521500D01*
X0182463Y0521500D01*
X0181233Y0520270D01*
X0181233Y0518530D01*
X0182463Y0517300D01*
X0181280Y0518483D02*
X0180387Y0518483D01*
X0180433Y0519282D02*
X0181233Y0519282D01*
X0181233Y0520080D02*
X0180433Y0520080D01*
X0179824Y0520879D02*
X0181842Y0520879D01*
X0184824Y0520879D02*
X0186842Y0520879D01*
X0186233Y0520080D02*
X0185433Y0520080D01*
X0185433Y0519282D02*
X0186233Y0519282D01*
X0186280Y0518483D02*
X0185387Y0518483D01*
X0184588Y0517685D02*
X0187079Y0517685D01*
X0189333Y0516886D02*
X0162333Y0516886D01*
X0162333Y0516088D02*
X0189333Y0516088D01*
X0189333Y0515289D02*
X0162333Y0515289D01*
X0162333Y0514491D02*
X0189333Y0514491D01*
X0189333Y0513692D02*
X0162333Y0513692D01*
X0162333Y0512894D02*
X0189333Y0512894D01*
X0189333Y0512095D02*
X0162333Y0512095D01*
X0162333Y0511297D02*
X0189333Y0511297D01*
X0189333Y0510498D02*
X0162333Y0510498D01*
X0162333Y0509700D02*
X0189333Y0509700D01*
X0189333Y0508901D02*
X0162333Y0508901D01*
X0162333Y0508103D02*
X0189333Y0508103D01*
X0189333Y0507304D02*
X0162333Y0507304D01*
X0162333Y0506506D02*
X0189333Y0506506D01*
X0189288Y0505707D02*
X0162379Y0505707D01*
X0162431Y0504909D02*
X0189236Y0504909D01*
X0189076Y0504110D02*
X0162590Y0504110D01*
X0162804Y0503312D02*
X0188862Y0503312D01*
X0188649Y0502513D02*
X0163018Y0502513D01*
X0163232Y0501715D02*
X0188435Y0501715D01*
X0188122Y0500916D02*
X0163544Y0500916D01*
X0164005Y0500118D02*
X0187661Y0500118D01*
X0187200Y0499319D02*
X0164466Y0499319D01*
X0164927Y0498521D02*
X0186739Y0498521D01*
X0186084Y0497722D02*
X0165583Y0497722D01*
X0166381Y0496924D02*
X0185286Y0496924D01*
X0184487Y0496125D02*
X0167180Y0496125D01*
X0168244Y0495327D02*
X0183423Y0495327D01*
X0182040Y0494528D02*
X0169627Y0494528D01*
X0171406Y0493730D02*
X0180260Y0493730D01*
X0176308Y0492931D02*
X0175359Y0492931D01*
X0175833Y0492900D02*
X0175833Y0492900D01*
X0189824Y0520879D02*
X0190191Y0520879D01*
X0191476Y0520879D02*
X0248158Y0520879D01*
X0249646Y0520080D02*
X0197902Y0520080D01*
X0197678Y0520130D02*
X0197678Y0520130D01*
X0201527Y0519282D02*
X0251134Y0519282D01*
X0252608Y0518483D02*
X0205152Y0518483D01*
X0208777Y0517685D02*
X0253798Y0517685D01*
X0254988Y0516886D02*
X0211864Y0516886D01*
X0210799Y0517239D02*
X0210799Y0517239D01*
X0214272Y0516088D02*
X0256178Y0516088D01*
X0257369Y0515289D02*
X0216680Y0515289D01*
X0219088Y0514491D02*
X0258559Y0514491D01*
X0259749Y0513692D02*
X0221496Y0513692D01*
X0223553Y0513010D02*
X0223553Y0513010D01*
X0223811Y0512894D02*
X0260939Y0512894D01*
X0262130Y0512095D02*
X0225582Y0512095D01*
X0227353Y0511297D02*
X0263320Y0511297D01*
X0264510Y0510498D02*
X0229124Y0510498D01*
X0230895Y0509700D02*
X0265558Y0509700D01*
X0266577Y0508901D02*
X0232666Y0508901D01*
X0234437Y0508103D02*
X0267596Y0508103D01*
X0268614Y0507304D02*
X0236116Y0507304D01*
X0235801Y0507488D02*
X0235801Y0507488D01*
X0237489Y0506506D02*
X0269633Y0506506D01*
X0270605Y0505707D02*
X0238861Y0505707D01*
X0240234Y0504909D02*
X0272526Y0504909D01*
X0274123Y0504110D02*
X0275051Y0504110D01*
X0274712Y0504110D02*
X0241606Y0504110D01*
X0242978Y0503312D02*
X0275051Y0503312D01*
X0274922Y0503312D01*
X0275051Y0502513D02*
X0244351Y0502513D01*
X0245723Y0501715D02*
X0275720Y0501715D01*
X0277317Y0500916D02*
X0278915Y0500916D01*
X0278167Y0500916D02*
X0247096Y0500916D01*
X0248255Y0500118D02*
X0278587Y0500118D01*
X0278116Y0500118D01*
X0278587Y0499319D02*
X0249349Y0499319D01*
X0250444Y0498521D02*
X0278914Y0498521D01*
X0279713Y0497722D02*
X0251538Y0497722D01*
X0252632Y0496924D02*
X0282122Y0496924D01*
X0281310Y0496924D01*
X0281661Y0497722D02*
X0282792Y0497722D01*
X0282459Y0498521D02*
X0300678Y0498521D01*
X0301239Y0499319D02*
X0282787Y0499319D01*
X0282787Y0500118D02*
X0301646Y0500118D01*
X0302053Y0500916D02*
X0282459Y0500916D01*
X0281660Y0501715D02*
X0302460Y0501715D01*
X0302860Y0502513D02*
X0279251Y0502513D01*
X0279251Y0503312D02*
X0302986Y0503312D01*
X0303113Y0504110D02*
X0279251Y0504110D01*
X0278466Y0504909D02*
X0303239Y0504909D01*
X0303366Y0505707D02*
X0275504Y0505707D01*
X0275716Y0506506D02*
X0303459Y0506506D01*
X0303332Y0507304D02*
X0275716Y0507304D01*
X0275272Y0508103D02*
X0303206Y0508103D01*
X0303079Y0508901D02*
X0275456Y0508901D01*
X0276254Y0509700D02*
X0302953Y0509700D01*
X0302759Y0510498D02*
X0277053Y0510498D01*
X0277851Y0511297D02*
X0302352Y0511297D01*
X0301945Y0512095D02*
X0278650Y0512095D01*
X0279448Y0512894D02*
X0301538Y0512894D01*
X0301132Y0513692D02*
X0280247Y0513692D01*
X0281046Y0514491D02*
X0300401Y0514491D01*
X0299602Y0515289D02*
X0281844Y0515289D01*
X0281455Y0514900D02*
X0281455Y0514900D01*
X0282770Y0516088D02*
X0298804Y0516088D01*
X0297756Y0516886D02*
X0283910Y0516886D01*
X0285477Y0517685D02*
X0296189Y0517685D01*
X0294361Y0518483D02*
X0287306Y0518483D01*
X0275837Y0504909D02*
X0274705Y0504909D01*
X0278582Y0501715D02*
X0279714Y0501715D01*
X0282108Y0496125D02*
X0282122Y0496125D01*
X0253727Y0496125D01*
X0254821Y0495327D02*
X0282122Y0495327D01*
X0282907Y0494528D02*
X0255916Y0494528D01*
X0257010Y0493730D02*
X0285353Y0493730D01*
X0285871Y0493730D02*
X0284504Y0493730D01*
X0285302Y0492931D02*
X0285658Y0492931D01*
X0258104Y0492931D01*
X0258269Y0492811D02*
X0258269Y0492811D01*
X0259021Y0492133D02*
X0285658Y0492133D01*
X0286101Y0491334D02*
X0259907Y0491334D01*
X0260793Y0490536D02*
X0288306Y0490536D01*
X0287698Y0490536D02*
X0289748Y0490536D01*
X0289415Y0491334D02*
X0290483Y0491334D01*
X0290483Y0492133D02*
X0289858Y0492133D01*
X0289858Y0492931D02*
X0290541Y0492931D01*
X0291340Y0493730D02*
X0289645Y0493730D01*
X0288847Y0494528D02*
X0296840Y0494528D01*
X0296042Y0493730D02*
X0294327Y0493730D01*
X0295126Y0492931D02*
X0295243Y0492931D01*
X0297639Y0495327D02*
X0286322Y0495327D01*
X0286322Y0496125D02*
X0298437Y0496125D01*
X0299236Y0496924D02*
X0286322Y0496924D01*
X0285653Y0497722D02*
X0299996Y0497722D01*
X0299333Y0497021D02*
X0299333Y0497021D01*
X0289933Y0487341D02*
X0264335Y0487341D01*
X0265221Y0486543D02*
X0289882Y0486543D01*
X0290512Y0485744D02*
X0266107Y0485744D01*
X0266992Y0484946D02*
X0291138Y0484946D01*
X0291764Y0484147D02*
X0267878Y0484147D01*
X0268247Y0483814D02*
X0268247Y0483814D01*
X0268667Y0483349D02*
X0292390Y0483349D01*
X0293016Y0482550D02*
X0269387Y0482550D01*
X0270107Y0481752D02*
X0293641Y0481752D01*
X0294267Y0480953D02*
X0270827Y0480953D01*
X0271547Y0480155D02*
X0294879Y0480155D01*
X0295415Y0479356D02*
X0272267Y0479356D01*
X0272987Y0478558D02*
X0295951Y0478558D01*
X0296486Y0477759D02*
X0273707Y0477759D01*
X0274427Y0476961D02*
X0297022Y0476961D01*
X0297558Y0476162D02*
X0275146Y0476162D01*
X0275866Y0475364D02*
X0298093Y0475364D01*
X0298629Y0474565D02*
X0276586Y0474565D01*
X0277295Y0473767D02*
X0299165Y0473767D01*
X0299701Y0472968D02*
X0277877Y0472968D01*
X0278460Y0472170D02*
X0300236Y0472170D01*
X0300772Y0471371D02*
X0279042Y0471371D01*
X0279625Y0470573D02*
X0301308Y0470573D01*
X0301843Y0469774D02*
X0280208Y0469774D01*
X0280790Y0468976D02*
X0302379Y0468976D01*
X0302915Y0468177D02*
X0281373Y0468177D01*
X0281955Y0467379D02*
X0303352Y0467379D01*
X0302957Y0468115D02*
X0302957Y0468115D01*
X0303780Y0466580D02*
X0282538Y0466580D01*
X0283121Y0465782D02*
X0304208Y0465782D01*
X0304637Y0464983D02*
X0283703Y0464983D01*
X0284286Y0464185D02*
X0305065Y0464185D01*
X0305494Y0463386D02*
X0284869Y0463386D01*
X0285393Y0462588D02*
X0305922Y0462588D01*
X0306350Y0461789D02*
X0285858Y0461789D01*
X0286322Y0460991D02*
X0306779Y0460991D01*
X0307207Y0460192D02*
X0286787Y0460192D01*
X0287251Y0459394D02*
X0307636Y0459394D01*
X0308064Y0458595D02*
X0287716Y0458595D01*
X0288181Y0457797D02*
X0308493Y0457797D01*
X0308921Y0456998D02*
X0288645Y0456998D01*
X0289110Y0456200D02*
X0309349Y0456200D01*
X0309778Y0455401D02*
X0289574Y0455401D01*
X0290039Y0454603D02*
X0310133Y0454603D01*
X0310465Y0453804D02*
X0290504Y0453804D01*
X0290968Y0453005D02*
X0310797Y0453005D01*
X0311129Y0452207D02*
X0291433Y0452207D01*
X0291897Y0451408D02*
X0311461Y0451408D01*
X0311793Y0450610D02*
X0292263Y0450610D01*
X0291921Y0451368D02*
X0291921Y0451368D01*
X0292623Y0449811D02*
X0312125Y0449811D01*
X0312457Y0449013D02*
X0292983Y0449013D01*
X0293343Y0448214D02*
X0312789Y0448214D01*
X0313120Y0447416D02*
X0293703Y0447416D01*
X0294063Y0446617D02*
X0313452Y0446617D01*
X0313784Y0445819D02*
X0294423Y0445819D01*
X0294783Y0445020D02*
X0314116Y0445020D01*
X0314448Y0444222D02*
X0295143Y0444222D01*
X0295503Y0443423D02*
X0314780Y0443423D01*
X0315112Y0442625D02*
X0295863Y0442625D01*
X0296223Y0441826D02*
X0315444Y0441826D01*
X0315703Y0441028D02*
X0296583Y0441028D01*
X0296943Y0440229D02*
X0315946Y0440229D01*
X0316189Y0439431D02*
X0297303Y0439431D01*
X0297444Y0439119D02*
X0297444Y0439119D01*
X0297605Y0438632D02*
X0316432Y0438632D01*
X0316675Y0437834D02*
X0297870Y0437834D01*
X0298135Y0437035D02*
X0316918Y0437035D01*
X0317161Y0436237D02*
X0298399Y0436237D01*
X0298664Y0435438D02*
X0317404Y0435438D01*
X0317647Y0434640D02*
X0298929Y0434640D01*
X0299194Y0433841D02*
X0317891Y0433841D01*
X0318134Y0433043D02*
X0299459Y0433043D01*
X0299723Y0432244D02*
X0318377Y0432244D01*
X0318620Y0431446D02*
X0299988Y0431446D01*
X0300253Y0430647D02*
X0318863Y0430647D01*
X0319106Y0429849D02*
X0300518Y0429849D01*
X0300783Y0429050D02*
X0319349Y0429050D01*
X0319592Y0428252D02*
X0301047Y0428252D01*
X0301312Y0427453D02*
X0319812Y0427453D01*
X0319972Y0426655D02*
X0301577Y0426655D01*
X0301673Y0426366D02*
X0301673Y0426366D01*
X0301785Y0425856D02*
X0320131Y0425856D01*
X0320291Y0425058D02*
X0301961Y0425058D01*
X0302137Y0424259D02*
X0320450Y0424259D01*
X0320609Y0423461D02*
X0302313Y0423461D01*
X0302489Y0422662D02*
X0320769Y0422662D01*
X0320928Y0421864D02*
X0302665Y0421864D01*
X0302840Y0421065D02*
X0321087Y0421065D01*
X0321247Y0420267D02*
X0303016Y0420267D01*
X0303192Y0419468D02*
X0321406Y0419468D01*
X0321565Y0418670D02*
X0303368Y0418670D01*
X0303544Y0417871D02*
X0321725Y0417871D01*
X0321884Y0417072D02*
X0303720Y0417072D01*
X0303896Y0416274D02*
X0322043Y0416274D01*
X0322203Y0415475D02*
X0304072Y0415475D01*
X0304248Y0414677D02*
X0322362Y0414677D01*
X0322521Y0413878D02*
X0304424Y0413878D01*
X0304563Y0413245D02*
X0304563Y0413245D01*
X0304582Y0413080D02*
X0322658Y0413080D01*
X0322737Y0412281D02*
X0304673Y0412281D01*
X0304764Y0411483D02*
X0315285Y0411483D01*
X0315719Y0411510D02*
X0312790Y0411326D01*
X0312143Y0411154D01*
X0311542Y0410860D01*
X0311009Y0410453D01*
X0310566Y0409951D01*
X0310230Y0409372D01*
X0310013Y0408738D01*
X0309933Y0408140D01*
X0315908Y0408516D01*
X0315958Y0407718D01*
X0309983Y0407342D01*
X0310137Y0406759D01*
X0310432Y0406157D01*
X0310838Y0405625D01*
X0311341Y0405182D01*
X0311920Y0404846D01*
X0312554Y0404629D01*
X0313217Y0404539D01*
X0316146Y0404724D01*
X0315958Y0407718D01*
X0316756Y0407768D01*
X0316945Y0404774D01*
X0319874Y0404958D01*
X0320521Y0405130D01*
X0321123Y0405424D01*
X0321655Y0405831D01*
X0322098Y0406333D01*
X0322434Y0406912D01*
X0322651Y0407546D01*
X0322732Y0408144D01*
X0316757Y0407768D01*
X0316706Y0408566D01*
X0322681Y0408942D01*
X0322527Y0409526D01*
X0322232Y0410127D01*
X0321826Y0410659D01*
X0321324Y0411102D01*
X0320744Y0411439D01*
X0320111Y0411656D01*
X0319447Y0411745D01*
X0316518Y0411560D01*
X0316706Y0408566D01*
X0315908Y0408516D01*
X0315719Y0411510D01*
X0315721Y0411483D02*
X0316523Y0411483D01*
X0316573Y0410684D02*
X0315771Y0410684D01*
X0315822Y0409886D02*
X0316623Y0409886D01*
X0316673Y0409087D02*
X0315872Y0409087D01*
X0315922Y0408289D02*
X0312295Y0408289D01*
X0312343Y0407490D02*
X0305219Y0407490D01*
X0305128Y0408289D02*
X0309953Y0408289D01*
X0310132Y0409087D02*
X0305037Y0409087D01*
X0304946Y0409886D02*
X0310528Y0409886D01*
X0311312Y0410684D02*
X0304855Y0410684D01*
X0305333Y0406692D02*
X0310170Y0406692D01*
X0310634Y0405893D02*
X0305347Y0405893D01*
X0305608Y0405095D02*
X0311491Y0405095D01*
X0312366Y0402699D02*
X0305602Y0402699D01*
X0305933Y0403498D02*
X0323605Y0403498D01*
X0323526Y0404296D02*
X0305933Y0404296D01*
X0304804Y0401901D02*
X0311410Y0401901D01*
X0310952Y0401102D02*
X0281607Y0401102D01*
X0280809Y0400304D02*
X0302267Y0400304D01*
X0301733Y0399770D02*
X0301733Y0398030D01*
X0302963Y0396800D01*
X0304703Y0396800D01*
X0305933Y0398030D01*
X0305933Y0399770D01*
X0304703Y0401000D01*
X0302963Y0401000D01*
X0301733Y0399770D01*
X0301733Y0399505D02*
X0280058Y0399505D01*
X0279597Y0398707D02*
X0301733Y0398707D01*
X0301855Y0397908D02*
X0279136Y0397908D01*
X0278675Y0397110D02*
X0302654Y0397110D01*
X0302963Y0396000D02*
X0301733Y0394770D01*
X0301733Y0393030D01*
X0302963Y0391800D01*
X0304703Y0391800D01*
X0305933Y0393030D01*
X0305933Y0394770D01*
X0304703Y0396000D01*
X0302963Y0396000D01*
X0302476Y0395513D02*
X0278079Y0395513D01*
X0278293Y0396311D02*
X0317736Y0396311D01*
X0312773Y0395513D02*
X0305190Y0395513D01*
X0305933Y0394714D02*
X0311713Y0394714D01*
X0312623Y0397110D02*
X0305013Y0397110D01*
X0305811Y0397908D02*
X0311491Y0397908D01*
X0311007Y0398707D02*
X0305933Y0398707D01*
X0305933Y0399505D02*
X0310763Y0399505D01*
X0310713Y0400304D02*
X0305399Y0400304D01*
X0302863Y0401901D02*
X0282406Y0401901D01*
X0283635Y0402699D02*
X0302064Y0402699D01*
X0301733Y0403498D02*
X0285018Y0403498D01*
X0287249Y0404296D02*
X0301733Y0404296D01*
X0301733Y0394714D02*
X0277865Y0394714D01*
X0277651Y0393916D02*
X0301733Y0393916D01*
X0301733Y0393117D02*
X0277446Y0393117D01*
X0277394Y0392319D02*
X0302445Y0392319D01*
X0302685Y0390722D02*
X0277378Y0390722D01*
X0277333Y0391400D02*
X0277333Y0391400D01*
X0277341Y0391520D02*
X0306703Y0391520D01*
X0306633Y0390722D02*
X0304982Y0390722D01*
X0305780Y0389923D02*
X0306000Y0389923D01*
X0305685Y0387528D02*
X0305431Y0387528D01*
X0306148Y0386729D02*
X0278228Y0386729D01*
X0278014Y0387528D02*
X0302236Y0387528D01*
X0301733Y0388326D02*
X0277800Y0388326D01*
X0277586Y0389125D02*
X0301733Y0389125D01*
X0301887Y0389923D02*
X0277430Y0389923D01*
X0278536Y0385931D02*
X0302894Y0385931D01*
X0302963Y0386000D02*
X0301733Y0384770D01*
X0301733Y0383030D01*
X0302963Y0381800D01*
X0304703Y0381800D01*
X0305933Y0383030D01*
X0305933Y0384770D01*
X0304703Y0386000D01*
X0302963Y0386000D01*
X0302096Y0385132D02*
X0278997Y0385132D01*
X0279458Y0384334D02*
X0301733Y0384334D01*
X0301733Y0383535D02*
X0279919Y0383535D01*
X0280568Y0382737D02*
X0302027Y0382737D01*
X0302825Y0381938D02*
X0281367Y0381938D01*
X0282165Y0381139D02*
X0319283Y0381139D01*
X0318203Y0380341D02*
X0305362Y0380341D01*
X0305933Y0379542D02*
X0311822Y0379542D01*
X0310911Y0378744D02*
X0305933Y0378744D01*
X0305849Y0377945D02*
X0310459Y0377945D01*
X0310308Y0377147D02*
X0305208Y0377147D01*
X0305337Y0376348D02*
X0310311Y0376348D01*
X0310533Y0375550D02*
X0305246Y0375550D01*
X0305155Y0374751D02*
X0311088Y0374751D01*
X0312193Y0373953D02*
X0308687Y0373953D01*
X0309028Y0373812D02*
X0308091Y0374200D01*
X0307076Y0374200D01*
X0306139Y0373812D01*
X0305422Y0373094D01*
X0305033Y0372157D01*
X0305033Y0371143D01*
X0305422Y0370206D01*
X0306139Y0369488D01*
X0307076Y0369100D01*
X0308091Y0369100D01*
X0308582Y0369304D01*
X0309290Y0368856D01*
X0309266Y0368661D01*
X0309596Y0367473D01*
X0310355Y0366501D01*
X0311428Y0365894D01*
X0318608Y0365012D01*
X0319796Y0365342D01*
X0320768Y0366101D01*
X0321375Y0367174D01*
X0321526Y0368398D01*
X0321196Y0369587D01*
X0320437Y0370559D01*
X0319363Y0371166D01*
X0312184Y0372047D01*
X0310996Y0371718D01*
X0310636Y0371437D01*
X0310133Y0371754D01*
X0310133Y0372157D01*
X0309745Y0373094D01*
X0309028Y0373812D01*
X0309685Y0373154D02*
X0317939Y0373154D01*
X0320310Y0373154D02*
X0322998Y0373154D01*
X0322919Y0372356D02*
X0310051Y0372356D01*
X0310445Y0371557D02*
X0310790Y0371557D01*
X0308807Y0369162D02*
X0308240Y0369162D01*
X0306927Y0369162D02*
X0304476Y0369162D01*
X0304609Y0369960D02*
X0305667Y0369960D01*
X0305192Y0370759D02*
X0304700Y0370759D01*
X0304791Y0371557D02*
X0305033Y0371557D01*
X0305116Y0372356D02*
X0304882Y0372356D01*
X0304973Y0373154D02*
X0305481Y0373154D01*
X0305064Y0373953D02*
X0306480Y0373953D01*
X0304301Y0368363D02*
X0309349Y0368363D01*
X0309570Y0367565D02*
X0304125Y0367565D01*
X0303949Y0366766D02*
X0310148Y0366766D01*
X0311297Y0365968D02*
X0303773Y0365968D01*
X0303597Y0365169D02*
X0317328Y0365169D01*
X0319174Y0365169D02*
X0321773Y0365169D01*
X0321613Y0364371D02*
X0303421Y0364371D01*
X0303245Y0363572D02*
X0321454Y0363572D01*
X0321295Y0362774D02*
X0303069Y0362774D01*
X0302893Y0361975D02*
X0321135Y0361975D01*
X0320976Y0361177D02*
X0302717Y0361177D01*
X0302542Y0360378D02*
X0320817Y0360378D01*
X0320657Y0359580D02*
X0302366Y0359580D01*
X0302190Y0358781D02*
X0320498Y0358781D01*
X0320338Y0357983D02*
X0302014Y0357983D01*
X0301838Y0357184D02*
X0320179Y0357184D01*
X0320020Y0356386D02*
X0304153Y0356386D01*
X0305556Y0355587D02*
X0319860Y0355587D01*
X0319665Y0354789D02*
X0308541Y0354789D01*
X0310021Y0353990D02*
X0319422Y0353990D01*
X0319179Y0353192D02*
X0310282Y0353192D01*
X0310080Y0352393D02*
X0318936Y0352393D01*
X0318693Y0351595D02*
X0309789Y0351595D01*
X0309498Y0350796D02*
X0318450Y0350796D01*
X0318207Y0349998D02*
X0307233Y0349998D01*
X0307378Y0350796D02*
X0305039Y0350796D01*
X0304708Y0350917D02*
X0308977Y0349363D01*
X0307973Y0346606D01*
X0307762Y0346304D01*
X0307480Y0346067D01*
X0307145Y0345911D01*
X0306782Y0345847D01*
X0306415Y0345879D01*
X0303288Y0347017D01*
X0304708Y0350917D01*
X0304664Y0350796D02*
X0303812Y0350796D01*
X0303522Y0349998D02*
X0304373Y0349998D01*
X0304082Y0349199D02*
X0303231Y0349199D01*
X0302940Y0348401D02*
X0303792Y0348401D01*
X0303501Y0347602D02*
X0302650Y0347602D01*
X0301682Y0347602D02*
X0298744Y0347602D01*
X0299009Y0348401D02*
X0299488Y0348401D01*
X0298479Y0346803D02*
X0303876Y0346803D01*
X0306070Y0346005D02*
X0299566Y0346005D01*
X0301760Y0345206D02*
X0316748Y0345206D01*
X0316505Y0344408D02*
X0303954Y0344408D01*
X0305950Y0343609D02*
X0316262Y0343609D01*
X0316019Y0342811D02*
X0306273Y0342811D01*
X0305982Y0342012D02*
X0315776Y0342012D01*
X0315533Y0341214D02*
X0305692Y0341214D01*
X0306341Y0340415D02*
X0315212Y0340415D01*
X0314880Y0339617D02*
X0308377Y0339617D01*
X0306542Y0337221D02*
X0304238Y0337221D01*
X0303948Y0336423D02*
X0308578Y0336423D01*
X0309102Y0335624D02*
X0293811Y0335624D01*
X0293451Y0334826D02*
X0309801Y0334826D01*
X0312556Y0334027D02*
X0293091Y0334027D01*
X0292731Y0333229D02*
X0312225Y0333229D01*
X0311893Y0332430D02*
X0292371Y0332430D01*
X0292011Y0331632D02*
X0311561Y0331632D01*
X0311229Y0330833D02*
X0291573Y0330833D01*
X0291108Y0330035D02*
X0310897Y0330035D01*
X0310565Y0329236D02*
X0290643Y0329236D01*
X0290179Y0328438D02*
X0310233Y0328438D01*
X0309901Y0327639D02*
X0289714Y0327639D01*
X0289250Y0326841D02*
X0309478Y0326841D01*
X0309050Y0326042D02*
X0288785Y0326042D01*
X0288320Y0325244D02*
X0308621Y0325244D01*
X0308193Y0324445D02*
X0287856Y0324445D01*
X0287391Y0323647D02*
X0307765Y0323647D01*
X0307336Y0322848D02*
X0286927Y0322848D01*
X0286462Y0322050D02*
X0306908Y0322050D01*
X0306479Y0321251D02*
X0285997Y0321251D01*
X0285533Y0320453D02*
X0306051Y0320453D01*
X0305623Y0319654D02*
X0285044Y0319654D01*
X0285164Y0319819D02*
X0285164Y0319819D01*
X0284461Y0318856D02*
X0305194Y0318856D01*
X0304766Y0318057D02*
X0283879Y0318057D01*
X0283296Y0317259D02*
X0304337Y0317259D01*
X0303909Y0316460D02*
X0282713Y0316460D01*
X0282131Y0315662D02*
X0303480Y0315662D01*
X0303052Y0314863D02*
X0281548Y0314863D01*
X0280966Y0314065D02*
X0302540Y0314065D01*
X0302005Y0313266D02*
X0280383Y0313266D01*
X0279800Y0312468D02*
X0301469Y0312468D01*
X0300933Y0311669D02*
X0279218Y0311669D01*
X0278635Y0310870D02*
X0300397Y0310870D01*
X0299862Y0310072D02*
X0278052Y0310072D01*
X0277470Y0309273D02*
X0299326Y0309273D01*
X0298790Y0308475D02*
X0276803Y0308475D01*
X0277245Y0308965D02*
X0277245Y0308965D01*
X0276083Y0307676D02*
X0298255Y0307676D01*
X0297719Y0306878D02*
X0275363Y0306878D01*
X0274643Y0306079D02*
X0297183Y0306079D01*
X0296647Y0305281D02*
X0273923Y0305281D01*
X0273203Y0304482D02*
X0296112Y0304482D01*
X0295576Y0303684D02*
X0272483Y0303684D01*
X0271763Y0302885D02*
X0295040Y0302885D01*
X0294456Y0302087D02*
X0271043Y0302087D01*
X0270323Y0301288D02*
X0293830Y0301288D01*
X0293204Y0300490D02*
X0269603Y0300490D01*
X0268884Y0299691D02*
X0292578Y0299691D01*
X0291952Y0298893D02*
X0268144Y0298893D01*
X0267259Y0298094D02*
X0291326Y0298094D01*
X0290700Y0297296D02*
X0266373Y0297296D01*
X0265487Y0296497D02*
X0290009Y0296497D01*
X0289933Y0295699D02*
X0264602Y0295699D01*
X0263716Y0294900D02*
X0289535Y0294900D01*
X0289122Y0294102D02*
X0262830Y0294102D01*
X0261945Y0293303D02*
X0289122Y0293303D01*
X0288737Y0293303D01*
X0288528Y0292505D02*
X0261059Y0292505D01*
X0260173Y0291706D02*
X0286341Y0291706D01*
X0285587Y0290908D02*
X0259288Y0290908D01*
X0258402Y0290109D02*
X0285587Y0290109D01*
X0285543Y0290109D01*
X0285575Y0289311D02*
X0257339Y0289311D01*
X0258269Y0289989D02*
X0258269Y0289989D01*
X0256245Y0288512D02*
X0283147Y0288512D01*
X0282349Y0287714D02*
X0255150Y0287714D01*
X0254056Y0286915D02*
X0282051Y0286915D01*
X0282051Y0286117D02*
X0281550Y0286117D01*
X0282051Y0286117D02*
X0252962Y0286117D01*
X0251867Y0285318D02*
X0281882Y0285318D01*
X0282410Y0285318D02*
X0280751Y0285318D01*
X0282077Y0284520D02*
X0283208Y0284520D01*
X0282716Y0283721D02*
X0301093Y0283721D01*
X0301529Y0282923D02*
X0282716Y0282923D01*
X0282699Y0282124D02*
X0301965Y0282124D01*
X0302401Y0281326D02*
X0281900Y0281326D01*
X0279331Y0281326D02*
X0278200Y0281326D01*
X0278427Y0282124D02*
X0247490Y0282124D01*
X0248584Y0282923D02*
X0278516Y0282923D01*
X0278356Y0282923D01*
X0278516Y0283721D02*
X0249678Y0283721D01*
X0250773Y0284520D02*
X0279155Y0284520D01*
X0278533Y0282124D02*
X0277557Y0282124D01*
X0275961Y0281326D02*
X0246136Y0281326D01*
X0244764Y0280527D02*
X0275162Y0280527D01*
X0274980Y0279729D02*
X0243391Y0279729D01*
X0242019Y0278930D02*
X0274972Y0278930D01*
X0274980Y0278930D02*
X0274363Y0278930D01*
X0274108Y0278132D02*
X0240647Y0278132D01*
X0239274Y0277333D02*
X0270935Y0277333D01*
X0271162Y0277333D02*
X0271968Y0277333D01*
X0273565Y0278132D02*
X0275454Y0278132D01*
X0275121Y0277333D02*
X0303436Y0277333D01*
X0303388Y0276534D02*
X0275645Y0276534D01*
X0275645Y0275736D02*
X0303331Y0275736D01*
X0303274Y0274937D02*
X0275512Y0274937D01*
X0275216Y0274139D02*
X0303217Y0274139D01*
X0303048Y0273340D02*
X0276014Y0273340D01*
X0276813Y0272542D02*
X0302750Y0272542D01*
X0302452Y0271743D02*
X0277611Y0271743D01*
X0278410Y0270945D02*
X0302154Y0270945D01*
X0301783Y0270146D02*
X0279208Y0270146D01*
X0280007Y0269348D02*
X0301185Y0269348D01*
X0300588Y0268549D02*
X0280805Y0268549D01*
X0281604Y0267751D02*
X0299990Y0267751D01*
X0299094Y0266952D02*
X0282481Y0266952D01*
X0283487Y0266154D02*
X0298027Y0266154D01*
X0296960Y0265355D02*
X0284950Y0265355D01*
X0286412Y0264557D02*
X0294888Y0264557D01*
X0303263Y0278132D02*
X0278706Y0278132D01*
X0279180Y0278930D02*
X0303089Y0278930D01*
X0302915Y0279729D02*
X0279180Y0279729D01*
X0278998Y0280527D02*
X0302742Y0280527D01*
X0300483Y0284520D02*
X0285094Y0284520D01*
X0285893Y0285318D02*
X0299791Y0285318D01*
X0298995Y0286117D02*
X0286251Y0286117D01*
X0286251Y0286915D02*
X0298197Y0286915D01*
X0297398Y0287714D02*
X0285954Y0287714D01*
X0286287Y0288512D02*
X0285155Y0288512D01*
X0284744Y0289311D02*
X0285587Y0289311D01*
X0289087Y0288512D02*
X0296600Y0288512D01*
X0295801Y0289311D02*
X0289787Y0289311D01*
X0289787Y0290109D02*
X0295003Y0290109D01*
X0294204Y0290908D02*
X0289787Y0290908D01*
X0290164Y0291706D02*
X0289032Y0291706D01*
X0289365Y0292505D02*
X0287938Y0292505D01*
X0292281Y0291706D02*
X0293406Y0291706D01*
X0269940Y0276534D02*
X0237902Y0276534D01*
X0236529Y0275736D02*
X0268921Y0275736D01*
X0267902Y0274937D02*
X0234970Y0274937D01*
X0233199Y0274139D02*
X0266883Y0274139D01*
X0265865Y0273340D02*
X0231428Y0273340D01*
X0229657Y0272542D02*
X0264846Y0272542D01*
X0263678Y0271743D02*
X0227886Y0271743D01*
X0226115Y0270945D02*
X0262488Y0270945D01*
X0261297Y0270146D02*
X0224344Y0270146D01*
X0223553Y0269790D02*
X0223553Y0269790D01*
X0222220Y0269348D02*
X0260107Y0269348D01*
X0258917Y0268549D02*
X0219812Y0268549D01*
X0217404Y0267751D02*
X0257727Y0267751D01*
X0256536Y0266952D02*
X0214996Y0266952D01*
X0212588Y0266154D02*
X0255346Y0266154D01*
X0254156Y0265355D02*
X0209868Y0265355D01*
X0206243Y0264557D02*
X0252966Y0264557D01*
X0251582Y0263758D02*
X0202618Y0263758D01*
X0198993Y0262960D02*
X0250094Y0262960D01*
X0294171Y0336423D02*
X0301043Y0336423D01*
X0298849Y0337221D02*
X0294531Y0337221D01*
X0294891Y0338020D02*
X0296655Y0338020D01*
X0295313Y0338818D02*
X0295251Y0338818D01*
X0307347Y0346005D02*
X0316992Y0346005D01*
X0317235Y0346803D02*
X0308045Y0346803D01*
X0308336Y0347602D02*
X0317478Y0347602D01*
X0317721Y0348401D02*
X0308627Y0348401D01*
X0308917Y0349199D02*
X0317964Y0349199D01*
X0314548Y0338818D02*
X0313021Y0338818D01*
X0313630Y0338020D02*
X0314216Y0338020D01*
X0313883Y0337221D02*
X0313884Y0337221D01*
X0312888Y0334826D02*
X0312865Y0334826D01*
X0305184Y0351595D02*
X0304954Y0351595D01*
X0305245Y0352393D02*
X0304394Y0352393D01*
X0304684Y0353192D02*
X0305535Y0353192D01*
X0305826Y0353990D02*
X0304975Y0353990D01*
X0305265Y0354789D02*
X0306117Y0354789D01*
X0320597Y0365968D02*
X0321932Y0365968D01*
X0322091Y0366766D02*
X0321144Y0366766D01*
X0321423Y0367565D02*
X0322251Y0367565D01*
X0322410Y0368363D02*
X0321521Y0368363D01*
X0321314Y0369162D02*
X0322569Y0369162D01*
X0322682Y0369960D02*
X0320904Y0369960D01*
X0320083Y0370759D02*
X0322761Y0370759D01*
X0322840Y0371557D02*
X0316176Y0371557D01*
X0321630Y0373953D02*
X0323077Y0373953D01*
X0323156Y0374751D02*
X0322145Y0374751D01*
X0322404Y0375550D02*
X0323234Y0375550D01*
X0323313Y0376348D02*
X0322498Y0376348D01*
X0322276Y0377147D02*
X0323392Y0377147D01*
X0323471Y0377945D02*
X0321844Y0377945D01*
X0323284Y0378744D02*
X0323550Y0378744D01*
X0323603Y0382737D02*
X0323945Y0382737D01*
X0324023Y0383535D02*
X0322956Y0383535D01*
X0323183Y0384334D02*
X0324077Y0384334D01*
X0324077Y0385132D02*
X0323183Y0385132D01*
X0322929Y0385931D02*
X0324077Y0385931D01*
X0324077Y0386729D02*
X0322438Y0386729D01*
X0321358Y0387528D02*
X0324077Y0387528D01*
X0324077Y0388326D02*
X0310633Y0388326D01*
X0310543Y0389125D02*
X0324077Y0389125D01*
X0324077Y0389923D02*
X0321480Y0389923D01*
X0322489Y0390722D02*
X0324077Y0390722D01*
X0324077Y0391520D02*
X0322950Y0391520D01*
X0323183Y0392319D02*
X0324077Y0392319D01*
X0324077Y0393117D02*
X0323183Y0393117D01*
X0322935Y0393916D02*
X0324077Y0393916D01*
X0324000Y0399505D02*
X0323527Y0399505D01*
X0323921Y0400304D02*
X0322937Y0400304D01*
X0322887Y0401102D02*
X0323842Y0401102D01*
X0323763Y0401901D02*
X0322519Y0401901D01*
X0321847Y0402699D02*
X0323684Y0402699D01*
X0323447Y0405095D02*
X0320389Y0405095D01*
X0321710Y0405893D02*
X0323369Y0405893D01*
X0323290Y0406692D02*
X0322306Y0406692D01*
X0322632Y0407490D02*
X0323211Y0407490D01*
X0323132Y0408289D02*
X0316724Y0408289D01*
X0316774Y0407490D02*
X0315972Y0407490D01*
X0316023Y0406692D02*
X0316824Y0406692D01*
X0316874Y0405893D02*
X0316073Y0405893D01*
X0316123Y0405095D02*
X0316925Y0405095D01*
X0322643Y0409087D02*
X0323053Y0409087D01*
X0322974Y0409886D02*
X0322350Y0409886D01*
X0322895Y0410684D02*
X0321798Y0410684D01*
X0322816Y0411483D02*
X0320615Y0411483D01*
X0309098Y0393916D02*
X0305933Y0393916D01*
X0305933Y0393117D02*
X0308300Y0393117D01*
X0307501Y0392319D02*
X0305222Y0392319D01*
X0310006Y0390722D02*
X0311678Y0390722D01*
X0312687Y0389923D02*
X0310166Y0389923D01*
X0310482Y0387528D02*
X0312809Y0387528D01*
X0311728Y0386729D02*
X0310019Y0386729D01*
X0311238Y0385931D02*
X0308785Y0385931D01*
X0307382Y0385931D02*
X0304773Y0385931D01*
X0305571Y0385132D02*
X0310983Y0385132D01*
X0310983Y0384334D02*
X0305933Y0384334D01*
X0305933Y0383535D02*
X0311210Y0383535D01*
X0311663Y0382737D02*
X0305640Y0382737D01*
X0304841Y0381938D02*
X0312651Y0381938D01*
X0316786Y0379542D02*
X0316925Y0379542D01*
X0302304Y0380341D02*
X0283219Y0380341D01*
X0284602Y0379542D02*
X0301733Y0379542D01*
X0301733Y0378744D02*
X0286353Y0378744D01*
X0290140Y0377945D02*
X0301818Y0377945D01*
X0289295Y0488140D02*
X0263450Y0488140D01*
X0262564Y0488939D02*
X0289193Y0488939D01*
X0289193Y0489737D02*
X0288496Y0489737D01*
X0289044Y0489737D02*
X0261678Y0489737D01*
X0246669Y0521677D02*
X0104997Y0521677D01*
X0106486Y0522476D02*
X0245181Y0522476D01*
X0243693Y0523274D02*
X0107974Y0523274D01*
X0109462Y0524073D02*
X0242204Y0524073D01*
X0240716Y0524872D02*
X0110951Y0524872D01*
X0112559Y0525670D02*
X0239108Y0525670D01*
X0237187Y0526469D02*
X0114480Y0526469D01*
X0116401Y0527267D02*
X0235266Y0527267D01*
X0233345Y0528066D02*
X0118322Y0528066D01*
X0120243Y0528864D02*
X0231424Y0528864D01*
X0229503Y0529663D02*
X0122164Y0529663D01*
X0124085Y0530461D02*
X0227582Y0530461D01*
X0225495Y0531260D02*
X0126172Y0531260D01*
X0128795Y0532058D02*
X0222871Y0532058D01*
X0220248Y0532857D02*
X0131419Y0532857D01*
X0134042Y0533655D02*
X0217624Y0533655D01*
X0215001Y0534454D02*
X0136666Y0534454D01*
X0139289Y0535252D02*
X0212377Y0535252D01*
X0208521Y0536051D02*
X0143145Y0536051D01*
X0147147Y0536849D02*
X0204520Y0536849D01*
X0200519Y0537648D02*
X0151148Y0537648D01*
X0156391Y0538446D02*
X0195275Y0538446D01*
X0187194Y0539245D02*
X0164473Y0539245D01*
X0076211Y0508901D02*
X0048467Y0508901D01*
X0048410Y0508103D02*
X0076395Y0508103D01*
X0076022Y0507304D02*
X0048353Y0507304D01*
X0048295Y0506506D02*
X0076022Y0506506D01*
X0076305Y0505707D02*
X0048238Y0505707D01*
X0048709Y0509700D02*
X0075412Y0509700D01*
X0074614Y0510498D02*
X0049006Y0510498D01*
X0049304Y0511297D02*
X0073815Y0511297D01*
X0073017Y0512095D02*
X0049602Y0512095D01*
X0050063Y0512894D02*
X0072218Y0512894D01*
X0071420Y0513692D02*
X0050661Y0513692D01*
X0051259Y0514491D02*
X0070621Y0514491D01*
X0069823Y0515289D02*
X0051857Y0515289D01*
X0052894Y0516088D02*
X0068909Y0516088D01*
X0067739Y0516886D02*
X0053961Y0516886D01*
X0055282Y0517685D02*
X0066277Y0517685D01*
X0064155Y0518483D02*
X0057423Y0518483D01*
X0049134Y0501715D02*
X0070007Y0501715D01*
X0069208Y0500916D02*
X0049570Y0500916D01*
X0050006Y0500118D02*
X0068951Y0500118D01*
X0068951Y0499319D02*
X0050442Y0499319D01*
X0050976Y0498521D02*
X0069349Y0498521D01*
X0069017Y0497722D02*
X0070148Y0497722D01*
X0070044Y0497722D01*
X0066014Y0497722D02*
X0051667Y0497722D01*
X0052333Y0497021D02*
X0052333Y0497021D01*
X0052431Y0496924D02*
X0065415Y0496924D01*
X0065415Y0496125D02*
X0053230Y0496125D01*
X0054028Y0495327D02*
X0065472Y0495327D01*
X0065140Y0494528D02*
X0066271Y0494528D01*
X0065938Y0493730D02*
X0067163Y0493730D01*
X0062820Y0494528D02*
X0054827Y0494528D01*
X0055625Y0493730D02*
X0062021Y0493730D01*
X0061880Y0492931D02*
X0056424Y0492931D01*
X0057222Y0492133D02*
X0061880Y0492133D01*
X0062394Y0491334D02*
X0058021Y0491334D01*
X0058819Y0490536D02*
X0058827Y0490536D01*
X0062061Y0490536D02*
X0063969Y0490536D01*
X0064417Y0404296D02*
X0049933Y0404296D01*
X0049933Y0403498D02*
X0066648Y0403498D01*
X0068031Y0402699D02*
X0049602Y0402699D01*
X0048804Y0401901D02*
X0069261Y0401901D01*
X0070060Y0401102D02*
X0027825Y0401102D01*
X0040796Y0381938D02*
X0046825Y0381938D01*
X0046027Y0382737D02*
X0045702Y0382737D01*
X0049362Y0380341D02*
X0068448Y0380341D01*
X0067064Y0379542D02*
X0049933Y0379542D01*
X0049933Y0378744D02*
X0065314Y0378744D01*
X0061527Y0377945D02*
X0049849Y0377945D01*
X0049013Y0397110D02*
X0072992Y0397110D01*
X0072531Y0397908D02*
X0049811Y0397908D01*
X0049933Y0398707D02*
X0072070Y0398707D01*
X0071609Y0399505D02*
X0049933Y0399505D01*
X0049399Y0400304D02*
X0070858Y0400304D01*
X0062492Y0291706D02*
X0061361Y0291706D01*
X0061183Y0290908D02*
X0061809Y0290908D01*
X0061809Y0290109D02*
X0061183Y0290109D01*
X0060567Y0289311D02*
X0061809Y0289311D01*
X0062580Y0288512D02*
X0055067Y0288512D01*
X0055865Y0289311D02*
X0057099Y0289311D01*
X0068316Y0284520D02*
X0069448Y0284520D01*
X0069115Y0285318D02*
X0070915Y0285318D01*
X0072992Y0282124D02*
X0074109Y0282124D01*
X0073325Y0281326D02*
X0072193Y0281326D01*
X0079699Y0277333D02*
X0080504Y0277333D01*
X0285538Y0494528D02*
X0286669Y0494528D01*
D18*
X0309933Y0392700D02*
X0317083Y0392700D01*
X0309933Y0392700D02*
X0308083Y0390850D01*
X0308083Y0388400D01*
X0316833Y0384450D02*
X0317083Y0384700D01*
X0321833Y0380900D02*
X0316371Y0377486D01*
X0316371Y0376470D01*
X0315396Y0368530D02*
X0312522Y0368530D01*
X0307583Y0371650D01*
X0300698Y0341071D02*
X0311333Y0336900D01*
D19*
X0322333Y0396900D02*
X0316834Y0400158D01*
M02*
