G75*
%MOIN*%
%OFA0B0*%
%FSLAX25Y25*%
%IPPOS*%
%LPD*%
%AMOC8*
5,1,8,0,0,1.08239X$1,22.5*
%
%ADD10C,0.00800*%
%ADD11C,0.00787*%
%ADD12C,0.00500*%
D10*
X0046833Y0391400D02*
X0046872Y0394566D01*
X0046988Y0397730D01*
X0047183Y0400890D01*
X0047454Y0404044D01*
X0047803Y0407191D01*
X0048229Y0410328D01*
X0048732Y0413454D01*
X0049312Y0416567D01*
X0049967Y0419664D01*
X0050699Y0422744D01*
X0051506Y0425806D01*
X0052388Y0428847D01*
X0053344Y0431865D01*
X0054374Y0434859D01*
X0055477Y0437826D01*
X0056653Y0440766D01*
X0057900Y0443676D01*
X0059218Y0446555D01*
X0060607Y0449400D01*
X0062065Y0452210D01*
X0063592Y0454984D01*
X0065186Y0457719D01*
X0066847Y0460415D01*
X0068573Y0463069D01*
X0070365Y0465679D01*
X0072219Y0468245D01*
X0074136Y0470765D01*
X0076115Y0473237D01*
X0078153Y0475659D01*
X0080250Y0478031D01*
X0082405Y0480351D01*
X0084616Y0482617D01*
X0086882Y0484828D01*
X0089202Y0486983D01*
X0091574Y0489080D01*
X0093996Y0491118D01*
X0096468Y0493097D01*
X0098988Y0495014D01*
X0101554Y0496868D01*
X0104164Y0498660D01*
X0106818Y0500386D01*
X0109514Y0502047D01*
X0112249Y0503641D01*
X0115023Y0505168D01*
X0117833Y0506626D01*
X0120678Y0508015D01*
X0123557Y0509333D01*
X0126467Y0510580D01*
X0129407Y0511756D01*
X0132374Y0512859D01*
X0135368Y0513889D01*
X0138386Y0514845D01*
X0141427Y0515727D01*
X0144489Y0516534D01*
X0147569Y0517266D01*
X0150666Y0517921D01*
X0153779Y0518501D01*
X0156905Y0519004D01*
X0160042Y0519430D01*
X0163189Y0519779D01*
X0166343Y0520050D01*
X0169503Y0520245D01*
X0172667Y0520361D01*
X0175833Y0520400D01*
X0178999Y0520361D01*
X0182163Y0520245D01*
X0185323Y0520050D01*
X0188477Y0519779D01*
X0191624Y0519430D01*
X0194761Y0519004D01*
X0197887Y0518501D01*
X0201000Y0517921D01*
X0204097Y0517266D01*
X0207177Y0516534D01*
X0210239Y0515727D01*
X0213280Y0514845D01*
X0216298Y0513889D01*
X0219292Y0512859D01*
X0222259Y0511756D01*
X0225199Y0510580D01*
X0228109Y0509333D01*
X0230988Y0508015D01*
X0233833Y0506626D01*
X0236643Y0505168D01*
X0239417Y0503641D01*
X0242152Y0502047D01*
X0244848Y0500386D01*
X0247502Y0498660D01*
X0250112Y0496868D01*
X0252678Y0495014D01*
X0255198Y0493097D01*
X0257670Y0491118D01*
X0260092Y0489080D01*
X0262464Y0486983D01*
X0264784Y0484828D01*
X0267050Y0482617D01*
X0269261Y0480351D01*
X0271416Y0478031D01*
X0273513Y0475659D01*
X0275551Y0473237D01*
X0277530Y0470765D01*
X0279447Y0468245D01*
X0281301Y0465679D01*
X0283093Y0463069D01*
X0284819Y0460415D01*
X0286480Y0457719D01*
X0288074Y0454984D01*
X0289601Y0452210D01*
X0291059Y0449400D01*
X0292448Y0446555D01*
X0293766Y0443676D01*
X0295013Y0440766D01*
X0296189Y0437826D01*
X0297292Y0434859D01*
X0298322Y0431865D01*
X0299278Y0428847D01*
X0300160Y0425806D01*
X0300967Y0422744D01*
X0301699Y0419664D01*
X0302354Y0416567D01*
X0302934Y0413454D01*
X0303437Y0410328D01*
X0303863Y0407191D01*
X0304212Y0404044D01*
X0304483Y0400890D01*
X0304678Y0397730D01*
X0304794Y0394566D01*
X0304833Y0391400D01*
X0304794Y0388234D01*
X0304678Y0385070D01*
X0304483Y0381910D01*
X0304212Y0378756D01*
X0303863Y0375609D01*
X0303437Y0372472D01*
X0302934Y0369346D01*
X0302354Y0366233D01*
X0301699Y0363136D01*
X0300967Y0360056D01*
X0300160Y0356994D01*
X0299278Y0353953D01*
X0298322Y0350935D01*
X0297292Y0347941D01*
X0296189Y0344974D01*
X0295013Y0342034D01*
X0293766Y0339124D01*
X0292448Y0336245D01*
X0291059Y0333400D01*
X0289601Y0330590D01*
X0288074Y0327816D01*
X0286480Y0325081D01*
X0284819Y0322385D01*
X0283093Y0319731D01*
X0281301Y0317121D01*
X0279447Y0314555D01*
X0277530Y0312035D01*
X0275551Y0309563D01*
X0273513Y0307141D01*
X0271416Y0304769D01*
X0269261Y0302449D01*
X0267050Y0300183D01*
X0264784Y0297972D01*
X0262464Y0295817D01*
X0260092Y0293720D01*
X0257670Y0291682D01*
X0255198Y0289703D01*
X0252678Y0287786D01*
X0250112Y0285932D01*
X0247502Y0284140D01*
X0244848Y0282414D01*
X0242152Y0280753D01*
X0239417Y0279159D01*
X0236643Y0277632D01*
X0233833Y0276174D01*
X0230988Y0274785D01*
X0228109Y0273467D01*
X0225199Y0272220D01*
X0222259Y0271044D01*
X0219292Y0269941D01*
X0216298Y0268911D01*
X0213280Y0267955D01*
X0210239Y0267073D01*
X0207177Y0266266D01*
X0204097Y0265534D01*
X0201000Y0264879D01*
X0197887Y0264299D01*
X0194761Y0263796D01*
X0191624Y0263370D01*
X0188477Y0263021D01*
X0185323Y0262750D01*
X0182163Y0262555D01*
X0178999Y0262439D01*
X0175833Y0262400D01*
X0172667Y0262439D01*
X0169503Y0262555D01*
X0166343Y0262750D01*
X0163189Y0263021D01*
X0160042Y0263370D01*
X0156905Y0263796D01*
X0153779Y0264299D01*
X0150666Y0264879D01*
X0147569Y0265534D01*
X0144489Y0266266D01*
X0141427Y0267073D01*
X0138386Y0267955D01*
X0135368Y0268911D01*
X0132374Y0269941D01*
X0129407Y0271044D01*
X0126467Y0272220D01*
X0123557Y0273467D01*
X0120678Y0274785D01*
X0117833Y0276174D01*
X0115023Y0277632D01*
X0112249Y0279159D01*
X0109514Y0280753D01*
X0106818Y0282414D01*
X0104164Y0284140D01*
X0101554Y0285932D01*
X0098988Y0287786D01*
X0096468Y0289703D01*
X0093996Y0291682D01*
X0091574Y0293720D01*
X0089202Y0295817D01*
X0086882Y0297972D01*
X0084616Y0300183D01*
X0082405Y0302449D01*
X0080250Y0304769D01*
X0078153Y0307141D01*
X0076115Y0309563D01*
X0074136Y0312035D01*
X0072219Y0314555D01*
X0070365Y0317121D01*
X0068573Y0319731D01*
X0066847Y0322385D01*
X0065186Y0325081D01*
X0063592Y0327816D01*
X0062065Y0330590D01*
X0060607Y0333400D01*
X0059218Y0336245D01*
X0057900Y0339124D01*
X0056653Y0342034D01*
X0055477Y0344974D01*
X0054374Y0347941D01*
X0053344Y0350935D01*
X0052388Y0353953D01*
X0051506Y0356994D01*
X0050699Y0360056D01*
X0049967Y0363136D01*
X0049312Y0366233D01*
X0048732Y0369346D01*
X0048229Y0372472D01*
X0047803Y0375609D01*
X0047454Y0378756D01*
X0047183Y0381910D01*
X0046988Y0385070D01*
X0046872Y0388234D01*
X0046833Y0391400D01*
X0025833Y0391400D02*
X0025878Y0395081D01*
X0026014Y0398760D01*
X0026239Y0402435D01*
X0026555Y0406103D01*
X0026961Y0409762D01*
X0027457Y0413410D01*
X0028041Y0417044D01*
X0028715Y0420664D01*
X0029478Y0424265D01*
X0030328Y0427847D01*
X0031267Y0431407D01*
X0032292Y0434943D01*
X0033404Y0438452D01*
X0034601Y0441933D01*
X0035884Y0445384D01*
X0037251Y0448803D01*
X0038702Y0452186D01*
X0040235Y0455533D01*
X0041849Y0458842D01*
X0043545Y0462110D01*
X0045320Y0465335D01*
X0047174Y0468515D01*
X0049105Y0471650D01*
X0051113Y0474736D01*
X0053195Y0477771D01*
X0055352Y0480755D01*
X0057581Y0483685D01*
X0059881Y0486559D01*
X0062252Y0489376D01*
X0064690Y0492134D01*
X0067196Y0494831D01*
X0069767Y0497466D01*
X0072402Y0500037D01*
X0075099Y0502543D01*
X0077857Y0504981D01*
X0080674Y0507352D01*
X0083548Y0509652D01*
X0086478Y0511881D01*
X0089462Y0514038D01*
X0092497Y0516120D01*
X0095583Y0518128D01*
X0098718Y0520059D01*
X0101898Y0521913D01*
X0105123Y0523688D01*
X0108391Y0525384D01*
X0111700Y0526998D01*
X0115047Y0528531D01*
X0118430Y0529982D01*
X0121849Y0531349D01*
X0125300Y0532632D01*
X0128781Y0533829D01*
X0132290Y0534941D01*
X0135826Y0535966D01*
X0139386Y0536905D01*
X0142968Y0537755D01*
X0146569Y0538518D01*
X0150189Y0539192D01*
X0153823Y0539776D01*
X0157471Y0540272D01*
X0161130Y0540678D01*
X0164798Y0540994D01*
X0168473Y0541219D01*
X0172152Y0541355D01*
X0175833Y0541400D01*
X0179514Y0541355D01*
X0183193Y0541219D01*
X0186868Y0540994D01*
X0190536Y0540678D01*
X0194195Y0540272D01*
X0197843Y0539776D01*
X0201477Y0539192D01*
X0205097Y0538518D01*
X0208698Y0537755D01*
X0212280Y0536905D01*
X0215840Y0535966D01*
X0219376Y0534941D01*
X0222885Y0533829D01*
X0226366Y0532632D01*
X0229817Y0531349D01*
X0233236Y0529982D01*
X0236619Y0528531D01*
X0239966Y0526998D01*
X0243275Y0525384D01*
X0246543Y0523688D01*
X0249768Y0521913D01*
X0252948Y0520059D01*
X0256083Y0518128D01*
X0259169Y0516120D01*
X0262204Y0514038D01*
X0265188Y0511881D01*
X0268118Y0509652D01*
X0270992Y0507352D01*
X0273809Y0504981D01*
X0276567Y0502543D01*
X0279264Y0500037D01*
X0281899Y0497466D01*
X0284470Y0494831D01*
X0286976Y0492134D01*
X0289414Y0489376D01*
X0291785Y0486559D01*
X0294085Y0483685D01*
X0296314Y0480755D01*
X0298471Y0477771D01*
X0300553Y0474736D01*
X0302561Y0471650D01*
X0304492Y0468515D01*
X0306346Y0465335D01*
X0308121Y0462110D01*
X0309817Y0458842D01*
X0311431Y0455533D01*
X0312964Y0452186D01*
X0314415Y0448803D01*
X0315782Y0445384D01*
X0317065Y0441933D01*
X0318262Y0438452D01*
X0319374Y0434943D01*
X0320399Y0431407D01*
X0321338Y0427847D01*
X0322188Y0424265D01*
X0322951Y0420664D01*
X0323625Y0417044D01*
X0324209Y0413410D01*
X0324705Y0409762D01*
X0325111Y0406103D01*
X0325427Y0402435D01*
X0325652Y0398760D01*
X0325788Y0395081D01*
X0325833Y0391400D01*
X0325788Y0387719D01*
X0325652Y0384040D01*
X0325427Y0380365D01*
X0325111Y0376697D01*
X0324705Y0373038D01*
X0324209Y0369390D01*
X0323625Y0365756D01*
X0322951Y0362136D01*
X0322188Y0358535D01*
X0321338Y0354953D01*
X0320399Y0351393D01*
X0319374Y0347857D01*
X0318262Y0344348D01*
X0317065Y0340867D01*
X0315782Y0337416D01*
X0314415Y0333997D01*
X0312964Y0330614D01*
X0311431Y0327267D01*
X0309817Y0323958D01*
X0308121Y0320690D01*
X0306346Y0317465D01*
X0304492Y0314285D01*
X0302561Y0311150D01*
X0300553Y0308064D01*
X0298471Y0305029D01*
X0296314Y0302045D01*
X0294085Y0299115D01*
X0291785Y0296241D01*
X0289414Y0293424D01*
X0286976Y0290666D01*
X0284470Y0287969D01*
X0281899Y0285334D01*
X0279264Y0282763D01*
X0276567Y0280257D01*
X0273809Y0277819D01*
X0270992Y0275448D01*
X0268118Y0273148D01*
X0265188Y0270919D01*
X0262204Y0268762D01*
X0259169Y0266680D01*
X0256083Y0264672D01*
X0252948Y0262741D01*
X0249768Y0260887D01*
X0246543Y0259112D01*
X0243275Y0257416D01*
X0239966Y0255802D01*
X0236619Y0254269D01*
X0233236Y0252818D01*
X0229817Y0251451D01*
X0226366Y0250168D01*
X0222885Y0248971D01*
X0219376Y0247859D01*
X0215840Y0246834D01*
X0212280Y0245895D01*
X0208698Y0245045D01*
X0205097Y0244282D01*
X0201477Y0243608D01*
X0197843Y0243024D01*
X0194195Y0242528D01*
X0190536Y0242122D01*
X0186868Y0241806D01*
X0183193Y0241581D01*
X0179514Y0241445D01*
X0175833Y0241400D01*
X0172152Y0241445D01*
X0168473Y0241581D01*
X0164798Y0241806D01*
X0161130Y0242122D01*
X0157471Y0242528D01*
X0153823Y0243024D01*
X0150189Y0243608D01*
X0146569Y0244282D01*
X0142968Y0245045D01*
X0139386Y0245895D01*
X0135826Y0246834D01*
X0132290Y0247859D01*
X0128781Y0248971D01*
X0125300Y0250168D01*
X0121849Y0251451D01*
X0118430Y0252818D01*
X0115047Y0254269D01*
X0111700Y0255802D01*
X0108391Y0257416D01*
X0105123Y0259112D01*
X0101898Y0260887D01*
X0098718Y0262741D01*
X0095583Y0264672D01*
X0092497Y0266680D01*
X0089462Y0268762D01*
X0086478Y0270919D01*
X0083548Y0273148D01*
X0080674Y0275448D01*
X0077857Y0277819D01*
X0075099Y0280257D01*
X0072402Y0282763D01*
X0069767Y0285334D01*
X0067196Y0287969D01*
X0064690Y0290666D01*
X0062252Y0293424D01*
X0059881Y0296241D01*
X0057581Y0299115D01*
X0055352Y0302045D01*
X0053195Y0305029D01*
X0051113Y0308064D01*
X0049105Y0311150D01*
X0047174Y0314285D01*
X0045320Y0317465D01*
X0043545Y0320690D01*
X0041849Y0323958D01*
X0040235Y0327267D01*
X0038702Y0330614D01*
X0037251Y0333997D01*
X0035884Y0337416D01*
X0034601Y0340867D01*
X0033404Y0344348D01*
X0032292Y0347857D01*
X0031267Y0351393D01*
X0030328Y0354953D01*
X0029478Y0358535D01*
X0028715Y0362136D01*
X0028041Y0365756D01*
X0027457Y0369390D01*
X0026961Y0373038D01*
X0026555Y0376697D01*
X0026239Y0380365D01*
X0026014Y0384040D01*
X0025878Y0387719D01*
X0025833Y0391400D01*
D11*
X0139870Y0250604D02*
X0151423Y0248148D01*
X0153592Y0258353D01*
X0153797Y0259316D01*
X0142244Y0261772D01*
X0139870Y0250604D01*
X0136596Y0251486D02*
X0139820Y0261408D01*
X0140124Y0262344D01*
X0128891Y0265994D01*
X0125363Y0255136D01*
X0136596Y0251486D01*
X0122166Y0256343D02*
X0126410Y0265874D01*
X0126810Y0266773D01*
X0116020Y0271577D01*
X0111376Y0261147D01*
X0122166Y0256343D01*
X0108333Y0262683D02*
X0113550Y0271719D01*
X0114042Y0272571D01*
X0103813Y0278477D01*
X0098105Y0268589D01*
X0108333Y0262683D01*
X0095256Y0270450D02*
X0101388Y0278891D01*
X0101966Y0279687D01*
X0092411Y0286630D01*
X0085700Y0277393D01*
X0095256Y0270450D01*
X0083032Y0279566D02*
X0090013Y0287319D01*
X0090672Y0288051D01*
X0081895Y0295954D01*
X0074255Y0287469D01*
X0083032Y0279566D01*
X0071883Y0289862D02*
X0079636Y0296843D01*
X0080367Y0297501D01*
X0072464Y0306278D01*
X0063979Y0298639D01*
X0071883Y0289862D01*
X0061846Y0301267D02*
X0070287Y0307399D01*
X0071083Y0307978D01*
X0064141Y0317533D01*
X0054904Y0310822D01*
X0061846Y0301267D01*
X0053062Y0313691D02*
X0062098Y0318908D01*
X0062950Y0319400D01*
X0057044Y0329629D01*
X0047157Y0323920D01*
X0053062Y0313691D01*
X0045560Y0326923D02*
X0055091Y0331167D01*
X0055990Y0331567D01*
X0051186Y0342357D01*
X0040756Y0337713D01*
X0045560Y0326923D01*
X0039589Y0340909D02*
X0049511Y0344133D01*
X0050447Y0344438D01*
X0046798Y0355671D01*
X0035939Y0352142D01*
X0039589Y0340909D01*
X0035017Y0355437D02*
X0045222Y0357606D01*
X0046185Y0357810D01*
X0043729Y0369363D01*
X0032562Y0366990D01*
X0035017Y0355437D01*
X0032043Y0370350D02*
X0042419Y0371441D01*
X0043398Y0371544D01*
X0042163Y0383290D01*
X0030809Y0382096D01*
X0032043Y0370350D01*
X0030615Y0385494D02*
X0041048Y0385494D01*
X0042032Y0385494D01*
X0042032Y0397306D01*
X0030615Y0397306D01*
X0030615Y0385494D01*
X0030799Y0400714D02*
X0041175Y0399623D01*
X0042153Y0399520D01*
X0043388Y0411266D01*
X0032033Y0412460D01*
X0030799Y0400714D01*
X0032592Y0415830D02*
X0042797Y0413661D01*
X0043759Y0413457D01*
X0046215Y0425010D01*
X0035047Y0427383D01*
X0032592Y0415830D01*
X0035929Y0430668D02*
X0045852Y0427444D01*
X0046788Y0427139D01*
X0050437Y0438372D01*
X0039579Y0441901D01*
X0035929Y0430668D01*
X0040756Y0445057D02*
X0050287Y0440813D01*
X0051186Y0440413D01*
X0055990Y0451203D01*
X0045560Y0455847D01*
X0040756Y0445057D01*
X0047137Y0458890D02*
X0056172Y0453673D01*
X0057024Y0453181D01*
X0062930Y0463410D01*
X0053042Y0469119D01*
X0047137Y0458890D01*
X0054904Y0471958D02*
X0063344Y0465825D01*
X0064141Y0465247D01*
X0071083Y0474802D01*
X0061846Y0481513D01*
X0054904Y0471958D01*
X0063989Y0484201D02*
X0071743Y0477220D01*
X0072474Y0476562D01*
X0080377Y0485339D01*
X0071893Y0492978D01*
X0063989Y0484201D01*
X0074255Y0495361D02*
X0081236Y0487608D01*
X0081895Y0486876D01*
X0090672Y0494779D01*
X0083032Y0503264D01*
X0074255Y0495361D01*
X0085690Y0505387D02*
X0091823Y0496947D01*
X0092401Y0496150D01*
X0101956Y0503093D01*
X0095246Y0512330D01*
X0085690Y0505387D01*
X0098125Y0514191D02*
X0103341Y0505156D01*
X0103833Y0504303D01*
X0114062Y0510209D01*
X0108353Y0520097D01*
X0098125Y0514191D01*
X0111346Y0521683D02*
X0115590Y0512152D01*
X0115990Y0511253D01*
X0126780Y0516057D01*
X0122136Y0526487D01*
X0111346Y0521683D01*
X0125363Y0527654D02*
X0128587Y0517732D01*
X0128891Y0516796D01*
X0140124Y0520446D01*
X0136596Y0531304D01*
X0125363Y0527654D01*
X0139860Y0532196D02*
X0142029Y0521991D01*
X0142234Y0521028D01*
X0153787Y0523484D01*
X0151413Y0534652D01*
X0139860Y0532196D01*
X0154773Y0535200D02*
X0155864Y0524824D01*
X0155967Y0523845D01*
X0167713Y0525080D01*
X0166520Y0536435D01*
X0154773Y0535200D01*
X0169908Y0536619D02*
X0169908Y0526186D01*
X0169908Y0525201D01*
X0181719Y0525201D01*
X0181719Y0536619D01*
X0169908Y0536619D01*
X0185147Y0536445D02*
X0184056Y0526069D01*
X0183953Y0525090D01*
X0195700Y0523855D01*
X0196893Y0535210D01*
X0185147Y0536445D01*
X0200254Y0534682D02*
X0198085Y0524477D01*
X0197880Y0523514D01*
X0209433Y0521058D01*
X0211807Y0532226D01*
X0200254Y0534682D01*
X0215101Y0531314D02*
X0211877Y0521392D01*
X0211573Y0520456D01*
X0222806Y0516806D01*
X0226334Y0527664D01*
X0215101Y0531314D01*
X0229510Y0526457D02*
X0225267Y0516926D01*
X0224866Y0516027D01*
X0235656Y0511223D01*
X0240300Y0521653D01*
X0229510Y0526457D01*
X0243333Y0520077D02*
X0238117Y0511041D01*
X0237625Y0510189D01*
X0247853Y0504283D01*
X0253562Y0514171D01*
X0243333Y0520077D01*
X0256401Y0512350D02*
X0250269Y0503909D01*
X0249690Y0503113D01*
X0259246Y0496170D01*
X0265956Y0505407D01*
X0256401Y0512350D01*
X0268605Y0503234D02*
X0261623Y0495481D01*
X0260965Y0494749D01*
X0269742Y0486846D01*
X0277382Y0495331D01*
X0268605Y0503234D01*
X0279774Y0492968D02*
X0272021Y0485987D01*
X0271289Y0485329D01*
X0279193Y0476552D01*
X0287677Y0484191D01*
X0279774Y0492968D01*
X0289851Y0481513D02*
X0281410Y0475381D01*
X0280614Y0474802D01*
X0287556Y0465247D01*
X0296793Y0471958D01*
X0289851Y0481513D01*
X0298624Y0469129D02*
X0289589Y0463912D01*
X0288737Y0463420D01*
X0294642Y0453191D01*
X0304530Y0458900D01*
X0298624Y0469129D01*
X0306086Y0455857D02*
X0296555Y0451613D01*
X0295656Y0451213D01*
X0300460Y0440423D01*
X0310890Y0445067D01*
X0306086Y0455857D01*
X0312108Y0441861D02*
X0302185Y0438637D01*
X0301249Y0438332D01*
X0304899Y0427099D01*
X0315757Y0430628D01*
X0312108Y0441861D01*
X0316659Y0427363D02*
X0306454Y0425194D01*
X0305492Y0424990D01*
X0307947Y0413437D01*
X0319115Y0415810D01*
X0316659Y0427363D01*
X0319623Y0412480D02*
X0309247Y0411389D01*
X0308269Y0411286D01*
X0309503Y0399540D01*
X0320858Y0400734D01*
X0319623Y0412480D01*
X0321042Y0397306D02*
X0310609Y0397306D01*
X0309625Y0397306D01*
X0309625Y0385494D01*
X0321042Y0385494D01*
X0321042Y0397306D01*
X0320888Y0382066D02*
X0310512Y0383157D01*
X0309533Y0383260D01*
X0308299Y0371514D01*
X0319653Y0370320D01*
X0320888Y0382066D01*
X0319105Y0367000D02*
X0308900Y0369169D01*
X0307937Y0369373D01*
X0305482Y0357820D01*
X0316649Y0355447D01*
X0319105Y0367000D01*
X0315737Y0352142D02*
X0305815Y0355366D01*
X0304879Y0355671D01*
X0301229Y0344438D01*
X0312088Y0340909D01*
X0315737Y0352142D01*
X0310880Y0337743D02*
X0301349Y0341987D01*
X0300450Y0342387D01*
X0295646Y0331597D01*
X0306076Y0326953D01*
X0310880Y0337743D01*
X0304530Y0323900D02*
X0295495Y0329117D01*
X0294642Y0329609D01*
X0288737Y0319380D01*
X0298624Y0313671D01*
X0304530Y0323900D01*
X0296783Y0310832D02*
X0288342Y0316965D01*
X0287546Y0317543D01*
X0280604Y0307988D01*
X0289841Y0301277D01*
X0296783Y0310832D01*
X0287657Y0298639D02*
X0279904Y0305620D01*
X0279173Y0306278D01*
X0271269Y0297501D01*
X0279754Y0289862D01*
X0287657Y0298639D01*
X0277372Y0287459D02*
X0270391Y0295212D01*
X0269732Y0295944D01*
X0260955Y0288041D01*
X0268595Y0279556D01*
X0277372Y0287459D01*
X0265986Y0277393D02*
X0259854Y0285833D01*
X0259276Y0286630D01*
X0249720Y0279687D01*
X0256431Y0270450D01*
X0265986Y0277393D01*
X0253552Y0268609D02*
X0248335Y0277644D01*
X0247843Y0278497D01*
X0237615Y0272591D01*
X0243323Y0262703D01*
X0253552Y0268609D01*
X0240320Y0261147D02*
X0236077Y0270678D01*
X0235676Y0271577D01*
X0224886Y0266773D01*
X0229530Y0256343D01*
X0240320Y0261147D01*
X0226294Y0255146D02*
X0223070Y0265068D01*
X0222766Y0266004D01*
X0211533Y0262354D01*
X0215061Y0251496D01*
X0226294Y0255146D01*
X0211777Y0250574D02*
X0209608Y0260779D01*
X0209403Y0261742D01*
X0197850Y0259286D01*
X0200224Y0248118D01*
X0211777Y0250574D01*
X0196913Y0247580D02*
X0195823Y0257956D01*
X0195720Y0258935D01*
X0183973Y0257700D01*
X0185167Y0246345D01*
X0196913Y0247580D01*
X0181739Y0246201D02*
X0181739Y0256634D01*
X0181739Y0257619D01*
X0169928Y0257619D01*
X0169928Y0246201D01*
X0181739Y0246201D01*
X0166490Y0246335D02*
X0167580Y0256711D01*
X0167683Y0257690D01*
X0155937Y0258925D01*
X0154743Y0247570D01*
X0166490Y0246335D01*
D12*
X0167580Y0256711D02*
X0163665Y0257123D01*
X0163706Y0257514D01*
X0163747Y0257906D01*
X0167663Y0257494D01*
X0167580Y0256711D01*
X0167230Y0257144D02*
X0163706Y0257514D01*
X0153756Y0259124D02*
X0153592Y0258353D01*
X0149741Y0259172D01*
X0149823Y0259557D01*
X0149905Y0259942D01*
X0153756Y0259124D01*
X0153289Y0258820D02*
X0149823Y0259557D01*
X0140063Y0262157D02*
X0139820Y0261408D01*
X0136075Y0262625D01*
X0136197Y0262999D01*
X0136319Y0263374D01*
X0140063Y0262157D01*
X0139567Y0261904D02*
X0136197Y0262999D01*
X0126730Y0266593D02*
X0126410Y0265874D01*
X0122813Y0267475D01*
X0122973Y0267835D01*
X0123134Y0268195D01*
X0126730Y0266593D01*
X0126210Y0266394D02*
X0122973Y0267835D01*
X0113944Y0272401D02*
X0113550Y0271719D01*
X0110140Y0273687D01*
X0110337Y0274028D01*
X0110534Y0274369D01*
X0113944Y0272401D01*
X0113406Y0272256D02*
X0110337Y0274028D01*
X0101851Y0279528D02*
X0101388Y0278891D01*
X0098203Y0281205D01*
X0098434Y0281524D01*
X0098666Y0281842D01*
X0101851Y0279528D01*
X0101301Y0279441D02*
X0098434Y0281524D01*
X0090540Y0287905D02*
X0090013Y0287319D01*
X0087087Y0289954D01*
X0087351Y0290246D01*
X0087614Y0290539D01*
X0090540Y0287905D01*
X0089984Y0287875D02*
X0087351Y0290246D01*
X0080221Y0297369D02*
X0077587Y0300295D01*
X0077294Y0300032D01*
X0077001Y0299768D01*
X0079636Y0296843D01*
X0080221Y0297369D01*
X0079665Y0297399D02*
X0077294Y0300032D01*
X0070924Y0307862D02*
X0070287Y0307399D01*
X0067973Y0310584D01*
X0068291Y0310816D01*
X0068610Y0311047D01*
X0070924Y0307862D01*
X0070374Y0307949D02*
X0068291Y0310816D01*
X0062779Y0319302D02*
X0062098Y0318908D01*
X0060129Y0322317D01*
X0060470Y0322514D01*
X0060811Y0322711D01*
X0062779Y0319302D01*
X0062242Y0319446D02*
X0060470Y0322514D01*
X0055811Y0331487D02*
X0055091Y0331167D01*
X0053490Y0334763D01*
X0053850Y0334923D01*
X0054209Y0335084D01*
X0055811Y0331487D01*
X0055291Y0331686D02*
X0053850Y0334923D01*
X0050260Y0344377D02*
X0049511Y0344133D01*
X0048295Y0347878D01*
X0048669Y0347999D01*
X0049044Y0348121D01*
X0050260Y0344377D01*
X0049764Y0344630D02*
X0048669Y0347999D01*
X0045993Y0357770D02*
X0045222Y0357606D01*
X0044404Y0361457D01*
X0044789Y0361539D01*
X0045174Y0361620D01*
X0045993Y0357770D01*
X0045526Y0358073D02*
X0044789Y0361539D01*
X0043202Y0371523D02*
X0042419Y0371441D01*
X0042008Y0375356D01*
X0042399Y0375397D01*
X0042791Y0375438D01*
X0043202Y0371523D01*
X0042770Y0371873D02*
X0042399Y0375397D01*
X0041835Y0385494D02*
X0041048Y0385494D01*
X0041048Y0389431D01*
X0041441Y0389431D01*
X0041835Y0389431D01*
X0041835Y0385494D01*
X0041441Y0385888D02*
X0041441Y0389431D01*
X0041958Y0399541D02*
X0041175Y0399623D01*
X0041586Y0403538D01*
X0041978Y0403497D01*
X0042369Y0403456D01*
X0041958Y0399541D01*
X0041607Y0399973D02*
X0041978Y0403497D01*
X0043567Y0413498D02*
X0042797Y0413661D01*
X0043615Y0417512D01*
X0044000Y0417430D01*
X0044385Y0417349D01*
X0043567Y0413498D01*
X0043264Y0413965D02*
X0044000Y0417430D01*
X0046600Y0427200D02*
X0045852Y0427444D01*
X0047068Y0431188D01*
X0047443Y0431066D01*
X0047817Y0430945D01*
X0046600Y0427200D01*
X0046348Y0427696D02*
X0047443Y0431066D01*
X0051007Y0440493D02*
X0050287Y0440813D01*
X0051889Y0444410D01*
X0052248Y0444250D01*
X0052608Y0444090D01*
X0051007Y0440493D01*
X0050807Y0441013D02*
X0052248Y0444250D01*
X0056854Y0453280D02*
X0056172Y0453673D01*
X0058141Y0457083D01*
X0058481Y0456886D01*
X0058822Y0456689D01*
X0056854Y0453280D01*
X0056710Y0453818D02*
X0058481Y0456886D01*
X0063981Y0465363D02*
X0063344Y0465825D01*
X0065658Y0469010D01*
X0065977Y0468779D01*
X0066295Y0468548D01*
X0063981Y0465363D01*
X0063894Y0465912D02*
X0065977Y0468779D01*
X0072328Y0476693D02*
X0071743Y0477220D01*
X0074377Y0480146D01*
X0074670Y0479882D01*
X0074962Y0479619D01*
X0072328Y0476693D01*
X0072299Y0477249D02*
X0074670Y0479882D01*
X0081763Y0487022D02*
X0081236Y0487608D01*
X0084162Y0490242D01*
X0084425Y0489949D01*
X0084689Y0489657D01*
X0081763Y0487022D01*
X0081792Y0487578D02*
X0084425Y0489949D01*
X0092285Y0496310D02*
X0091823Y0496947D01*
X0095008Y0499261D01*
X0095239Y0498942D01*
X0095471Y0498624D01*
X0092285Y0496310D01*
X0092373Y0496860D02*
X0095239Y0498942D01*
X0103735Y0504474D02*
X0103341Y0505156D01*
X0106751Y0507124D01*
X0106948Y0506783D01*
X0107144Y0506442D01*
X0103735Y0504474D01*
X0103879Y0505012D02*
X0106948Y0506783D01*
X0115910Y0511433D02*
X0115590Y0512152D01*
X0119187Y0513753D01*
X0119347Y0513394D01*
X0119507Y0513034D01*
X0115910Y0511433D01*
X0116110Y0511953D02*
X0119347Y0513394D01*
X0128830Y0516983D02*
X0128587Y0517732D01*
X0132331Y0518949D01*
X0132453Y0518574D01*
X0132574Y0518200D01*
X0128830Y0516983D01*
X0129083Y0517479D02*
X0132453Y0518574D01*
X0142193Y0521221D02*
X0142029Y0521991D01*
X0145880Y0522810D01*
X0145962Y0522424D01*
X0146044Y0522039D01*
X0142193Y0521221D01*
X0142496Y0521688D02*
X0145962Y0522424D01*
X0155946Y0524041D02*
X0155864Y0524824D01*
X0159779Y0525236D01*
X0159821Y0524844D01*
X0159862Y0524453D01*
X0155946Y0524041D01*
X0156297Y0524474D02*
X0159821Y0524844D01*
X0169908Y0525398D02*
X0169908Y0526186D01*
X0173845Y0526186D01*
X0173845Y0525792D01*
X0173845Y0525398D01*
X0169908Y0525398D01*
X0170302Y0525792D02*
X0173845Y0525792D01*
X0183974Y0525286D02*
X0184056Y0526069D01*
X0187972Y0525657D01*
X0187931Y0525266D01*
X0187889Y0524874D01*
X0183974Y0525286D01*
X0184407Y0525636D02*
X0187931Y0525266D01*
X0197921Y0523706D02*
X0201772Y0522888D01*
X0201854Y0523273D01*
X0201936Y0523658D01*
X0198085Y0524477D01*
X0197921Y0523706D01*
X0198388Y0524010D02*
X0201854Y0523273D01*
X0211634Y0520643D02*
X0211877Y0521392D01*
X0215621Y0520175D01*
X0215500Y0519801D01*
X0215378Y0519426D01*
X0211634Y0520643D01*
X0212130Y0520896D02*
X0215500Y0519801D01*
X0224947Y0516207D02*
X0225267Y0516926D01*
X0228863Y0515325D01*
X0228703Y0514965D01*
X0228543Y0514605D01*
X0224947Y0516207D01*
X0225466Y0516406D02*
X0228703Y0514965D01*
X0237723Y0510359D02*
X0241133Y0508391D01*
X0241329Y0508732D01*
X0241526Y0509073D01*
X0238117Y0511041D01*
X0237723Y0510359D01*
X0238261Y0510503D02*
X0241329Y0508732D01*
X0249806Y0503272D02*
X0250269Y0503909D01*
X0253454Y0501595D01*
X0253222Y0501276D01*
X0252991Y0500958D01*
X0249806Y0503272D01*
X0250356Y0503359D02*
X0253222Y0501276D01*
X0261097Y0494895D02*
X0261623Y0495481D01*
X0264549Y0492846D01*
X0264286Y0492554D01*
X0264022Y0492261D01*
X0261097Y0494895D01*
X0261653Y0494925D02*
X0264286Y0492554D01*
X0271436Y0485461D02*
X0272021Y0485987D01*
X0274655Y0483062D01*
X0274363Y0482798D01*
X0274070Y0482535D01*
X0271436Y0485461D01*
X0271992Y0485431D02*
X0274363Y0482798D01*
X0280773Y0474918D02*
X0283087Y0471733D01*
X0283406Y0471964D01*
X0283724Y0472196D01*
X0281410Y0475381D01*
X0280773Y0474918D01*
X0281323Y0474831D02*
X0283406Y0471964D01*
X0288907Y0463518D02*
X0289589Y0463912D01*
X0291558Y0460503D01*
X0291217Y0460306D01*
X0290876Y0460109D01*
X0288907Y0463518D01*
X0289445Y0463374D02*
X0291217Y0460306D01*
X0295836Y0451293D02*
X0296555Y0451613D01*
X0298157Y0448017D01*
X0297797Y0447857D01*
X0297437Y0447696D01*
X0295836Y0451293D01*
X0296356Y0451094D02*
X0297797Y0447857D01*
X0301436Y0438393D02*
X0302185Y0438637D01*
X0303402Y0434892D01*
X0303027Y0434771D01*
X0302653Y0434649D01*
X0301436Y0438393D01*
X0301932Y0438140D02*
X0303027Y0434771D01*
X0305684Y0425030D02*
X0306454Y0425194D01*
X0307273Y0421343D01*
X0306888Y0421261D01*
X0306503Y0421180D01*
X0305684Y0425030D01*
X0306151Y0424727D02*
X0306888Y0421261D01*
X0308464Y0411307D02*
X0309247Y0411389D01*
X0309659Y0407474D01*
X0309267Y0407433D01*
X0308876Y0407392D01*
X0308464Y0411307D01*
X0308897Y0410957D02*
X0309267Y0407433D01*
X0309822Y0397306D02*
X0310609Y0397306D01*
X0310609Y0393369D01*
X0310215Y0393369D01*
X0309822Y0393369D01*
X0309822Y0397306D01*
X0310215Y0396912D02*
X0310215Y0393369D01*
X0309729Y0383239D02*
X0310512Y0383157D01*
X0310101Y0379242D01*
X0309709Y0379283D01*
X0309317Y0379324D01*
X0309729Y0383239D01*
X0310079Y0382807D02*
X0309709Y0379283D01*
X0308130Y0369332D02*
X0308900Y0369169D01*
X0308081Y0365318D01*
X0307696Y0365400D01*
X0307311Y0365481D01*
X0308130Y0369332D01*
X0308433Y0368865D02*
X0307696Y0365400D01*
X0305066Y0355610D02*
X0303850Y0351865D01*
X0304224Y0351744D01*
X0304598Y0351622D01*
X0305815Y0355366D01*
X0305066Y0355610D01*
X0305319Y0355114D02*
X0304224Y0351744D01*
X0300630Y0342307D02*
X0301349Y0341987D01*
X0299748Y0338390D01*
X0299388Y0338550D01*
X0299029Y0338710D01*
X0300630Y0342307D01*
X0300830Y0341787D02*
X0299388Y0338550D01*
X0294813Y0329510D02*
X0295495Y0329117D01*
X0293526Y0325707D01*
X0293185Y0325904D01*
X0292844Y0326101D01*
X0294813Y0329510D01*
X0294957Y0328972D02*
X0293185Y0325904D01*
X0287705Y0317427D02*
X0288342Y0316965D01*
X0286028Y0313779D01*
X0285710Y0314011D01*
X0285391Y0314242D01*
X0287705Y0317427D01*
X0287792Y0316877D02*
X0285710Y0314011D01*
X0279319Y0306147D02*
X0279904Y0305620D01*
X0277270Y0302694D01*
X0276977Y0302958D01*
X0276684Y0303221D01*
X0279319Y0306147D01*
X0279348Y0305591D02*
X0276977Y0302958D01*
X0269864Y0295798D02*
X0270391Y0295212D01*
X0267465Y0292578D01*
X0267202Y0292871D01*
X0266938Y0293163D01*
X0269864Y0295798D01*
X0269835Y0295242D02*
X0267202Y0292871D01*
X0259391Y0286470D02*
X0259854Y0285833D01*
X0256669Y0283519D01*
X0256438Y0283838D01*
X0256206Y0284156D01*
X0259391Y0286470D01*
X0259304Y0285920D02*
X0256438Y0283838D01*
X0247942Y0278326D02*
X0248335Y0277644D01*
X0244926Y0275676D01*
X0244729Y0276017D01*
X0244532Y0276358D01*
X0247942Y0278326D01*
X0247798Y0277788D02*
X0244729Y0276017D01*
X0235756Y0271397D02*
X0236077Y0270678D01*
X0232480Y0269077D01*
X0232320Y0269436D01*
X0232160Y0269796D01*
X0235756Y0271397D01*
X0235557Y0270877D02*
X0232320Y0269436D01*
X0222827Y0265817D02*
X0223070Y0265068D01*
X0219326Y0263851D01*
X0219204Y0264226D01*
X0219082Y0264600D01*
X0222827Y0265817D01*
X0222574Y0265321D02*
X0219204Y0264226D01*
X0209444Y0261549D02*
X0209608Y0260779D01*
X0205757Y0259960D01*
X0205675Y0260346D01*
X0205593Y0260731D01*
X0209444Y0261549D01*
X0209141Y0261082D02*
X0205675Y0260346D01*
X0195740Y0258739D02*
X0195823Y0257956D01*
X0191907Y0257544D01*
X0191866Y0257936D01*
X0191825Y0258327D01*
X0195740Y0258739D01*
X0195390Y0258306D02*
X0191866Y0257936D01*
X0181739Y0257422D02*
X0181739Y0256634D01*
X0177802Y0256634D01*
X0177802Y0257028D01*
X0177802Y0257422D01*
X0181739Y0257422D01*
X0181345Y0257028D02*
X0177802Y0257028D01*
M02*
