G75*
%MOIN*%
%OFA0B0*%
%FSLAX25Y25*%
%IPPOS*%
%LPD*%
%AMOC8*
5,1,8,0,0,1.08239X$1,22.5*
%
%ADD10C,0.00800*%
%ADD11C,0.00000*%
%ADD12C,0.00600*%
D10*
X0160833Y0263400D02*
X0160833Y0276400D01*
X0175833Y0291400D02*
X0176195Y0291396D01*
X0176558Y0291382D01*
X0176920Y0291361D01*
X0177281Y0291330D01*
X0177641Y0291291D01*
X0178000Y0291243D01*
X0178358Y0291186D01*
X0178715Y0291121D01*
X0179070Y0291047D01*
X0179423Y0290964D01*
X0179774Y0290873D01*
X0180122Y0290774D01*
X0180468Y0290666D01*
X0180812Y0290550D01*
X0181152Y0290425D01*
X0181489Y0290293D01*
X0181823Y0290152D01*
X0182154Y0290003D01*
X0182481Y0289846D01*
X0182804Y0289682D01*
X0183123Y0289510D01*
X0183437Y0289330D01*
X0183748Y0289142D01*
X0184053Y0288947D01*
X0184354Y0288745D01*
X0184650Y0288535D01*
X0184940Y0288319D01*
X0185226Y0288095D01*
X0185506Y0287865D01*
X0185780Y0287628D01*
X0186048Y0287384D01*
X0186311Y0287134D01*
X0186567Y0286878D01*
X0186817Y0286615D01*
X0187061Y0286347D01*
X0187298Y0286073D01*
X0187528Y0285793D01*
X0187752Y0285507D01*
X0187968Y0285217D01*
X0188178Y0284921D01*
X0188380Y0284620D01*
X0188575Y0284315D01*
X0188763Y0284004D01*
X0188943Y0283690D01*
X0189115Y0283371D01*
X0189279Y0283048D01*
X0189436Y0282721D01*
X0189585Y0282390D01*
X0189726Y0282056D01*
X0189858Y0281719D01*
X0189983Y0281379D01*
X0190099Y0281035D01*
X0190207Y0280689D01*
X0190306Y0280341D01*
X0190397Y0279990D01*
X0190480Y0279637D01*
X0190554Y0279282D01*
X0190619Y0278925D01*
X0190676Y0278567D01*
X0190724Y0278208D01*
X0190763Y0277848D01*
X0190794Y0277487D01*
X0190815Y0277125D01*
X0190829Y0276762D01*
X0190833Y0276400D01*
X0190833Y0263400D01*
X0175833Y0291400D02*
X0175471Y0291396D01*
X0175108Y0291382D01*
X0174746Y0291361D01*
X0174385Y0291330D01*
X0174025Y0291291D01*
X0173666Y0291243D01*
X0173308Y0291186D01*
X0172951Y0291121D01*
X0172596Y0291047D01*
X0172243Y0290964D01*
X0171892Y0290873D01*
X0171544Y0290774D01*
X0171198Y0290666D01*
X0170854Y0290550D01*
X0170514Y0290425D01*
X0170177Y0290293D01*
X0169843Y0290152D01*
X0169512Y0290003D01*
X0169185Y0289846D01*
X0168862Y0289682D01*
X0168543Y0289510D01*
X0168229Y0289330D01*
X0167918Y0289142D01*
X0167613Y0288947D01*
X0167312Y0288745D01*
X0167016Y0288535D01*
X0166726Y0288319D01*
X0166440Y0288095D01*
X0166160Y0287865D01*
X0165886Y0287628D01*
X0165618Y0287384D01*
X0165355Y0287134D01*
X0165099Y0286878D01*
X0164849Y0286615D01*
X0164605Y0286347D01*
X0164368Y0286073D01*
X0164138Y0285793D01*
X0163914Y0285507D01*
X0163698Y0285217D01*
X0163488Y0284921D01*
X0163286Y0284620D01*
X0163091Y0284315D01*
X0162903Y0284004D01*
X0162723Y0283690D01*
X0162551Y0283371D01*
X0162387Y0283048D01*
X0162230Y0282721D01*
X0162081Y0282390D01*
X0161940Y0282056D01*
X0161808Y0281719D01*
X0161683Y0281379D01*
X0161567Y0281035D01*
X0161459Y0280689D01*
X0161360Y0280341D01*
X0161269Y0279990D01*
X0161186Y0279637D01*
X0161112Y0279282D01*
X0161047Y0278925D01*
X0160990Y0278567D01*
X0160942Y0278208D01*
X0160903Y0277848D01*
X0160872Y0277487D01*
X0160851Y0277125D01*
X0160837Y0276762D01*
X0160833Y0276400D01*
X0080233Y0275800D02*
X0070833Y0266400D01*
X0070586Y0266160D01*
X0070334Y0265925D01*
X0070076Y0265697D01*
X0069813Y0265475D01*
X0069544Y0265259D01*
X0069270Y0265051D01*
X0068991Y0264849D01*
X0068708Y0264653D01*
X0068419Y0264465D01*
X0068127Y0264284D01*
X0067829Y0264110D01*
X0067528Y0263943D01*
X0067223Y0263784D01*
X0066914Y0263632D01*
X0066601Y0263488D01*
X0066285Y0263351D01*
X0065965Y0263222D01*
X0065643Y0263101D01*
X0065318Y0262988D01*
X0064990Y0262883D01*
X0064659Y0262785D01*
X0064327Y0262696D01*
X0063992Y0262615D01*
X0063655Y0262542D01*
X0063317Y0262478D01*
X0062977Y0262422D01*
X0062636Y0262373D01*
X0062294Y0262334D01*
X0061951Y0262302D01*
X0061608Y0262279D01*
X0061263Y0262265D01*
X0060919Y0262258D01*
X0060575Y0262260D01*
X0060230Y0262271D01*
X0059887Y0262290D01*
X0059543Y0262317D01*
X0059201Y0262353D01*
X0058859Y0262396D01*
X0058519Y0262449D01*
X0058180Y0262509D01*
X0057842Y0262578D01*
X0057507Y0262655D01*
X0057173Y0262740D01*
X0056841Y0262833D01*
X0056512Y0262934D01*
X0056185Y0263043D01*
X0055862Y0263161D01*
X0055541Y0263286D01*
X0055223Y0263418D01*
X0054908Y0263559D01*
X0054597Y0263707D01*
X0054290Y0263863D01*
X0053987Y0264026D01*
X0053688Y0264196D01*
X0053393Y0264374D01*
X0053102Y0264558D01*
X0052816Y0264750D01*
X0052534Y0264949D01*
X0052258Y0265154D01*
X0051987Y0265366D01*
X0051721Y0265585D01*
X0051460Y0265810D01*
X0051205Y0266042D01*
X0050956Y0266279D01*
X0050712Y0266523D01*
X0050475Y0266772D01*
X0050243Y0267027D01*
X0050018Y0267288D01*
X0049799Y0267554D01*
X0049587Y0267825D01*
X0049382Y0268101D01*
X0049183Y0268383D01*
X0048991Y0268669D01*
X0048807Y0268960D01*
X0048629Y0269255D01*
X0048459Y0269554D01*
X0048296Y0269857D01*
X0048140Y0270164D01*
X0047992Y0270475D01*
X0047851Y0270790D01*
X0047719Y0271108D01*
X0047594Y0271429D01*
X0047476Y0271752D01*
X0047367Y0272079D01*
X0047266Y0272408D01*
X0047173Y0272740D01*
X0047088Y0273074D01*
X0047011Y0273409D01*
X0046942Y0273747D01*
X0046882Y0274086D01*
X0046829Y0274426D01*
X0046786Y0274768D01*
X0046750Y0275110D01*
X0046723Y0275454D01*
X0046704Y0275797D01*
X0046693Y0276142D01*
X0046691Y0276486D01*
X0046698Y0276830D01*
X0046712Y0277175D01*
X0046735Y0277518D01*
X0046767Y0277861D01*
X0046806Y0278203D01*
X0046855Y0278544D01*
X0046911Y0278884D01*
X0046975Y0279222D01*
X0047048Y0279559D01*
X0047129Y0279894D01*
X0047218Y0280226D01*
X0047316Y0280557D01*
X0047421Y0280885D01*
X0047534Y0281210D01*
X0047655Y0281532D01*
X0047784Y0281852D01*
X0047921Y0282168D01*
X0048065Y0282481D01*
X0048217Y0282790D01*
X0048376Y0283095D01*
X0048543Y0283396D01*
X0048717Y0283694D01*
X0048898Y0283986D01*
X0049086Y0284275D01*
X0049282Y0284558D01*
X0049484Y0284837D01*
X0049692Y0285111D01*
X0049908Y0285380D01*
X0050130Y0285643D01*
X0050358Y0285901D01*
X0050593Y0286153D01*
X0050833Y0286400D01*
X0060233Y0295800D01*
X0060833Y0376400D02*
X0047833Y0376400D01*
X0060833Y0376400D02*
X0061195Y0376404D01*
X0061558Y0376418D01*
X0061920Y0376439D01*
X0062281Y0376470D01*
X0062641Y0376509D01*
X0063000Y0376557D01*
X0063358Y0376614D01*
X0063715Y0376679D01*
X0064070Y0376753D01*
X0064423Y0376836D01*
X0064774Y0376927D01*
X0065122Y0377026D01*
X0065468Y0377134D01*
X0065812Y0377250D01*
X0066152Y0377375D01*
X0066489Y0377507D01*
X0066823Y0377648D01*
X0067154Y0377797D01*
X0067481Y0377954D01*
X0067804Y0378118D01*
X0068123Y0378290D01*
X0068437Y0378470D01*
X0068748Y0378658D01*
X0069053Y0378853D01*
X0069354Y0379055D01*
X0069650Y0379265D01*
X0069940Y0379481D01*
X0070226Y0379705D01*
X0070506Y0379935D01*
X0070780Y0380172D01*
X0071048Y0380416D01*
X0071311Y0380666D01*
X0071567Y0380922D01*
X0071817Y0381185D01*
X0072061Y0381453D01*
X0072298Y0381727D01*
X0072528Y0382007D01*
X0072752Y0382293D01*
X0072968Y0382583D01*
X0073178Y0382879D01*
X0073380Y0383180D01*
X0073575Y0383485D01*
X0073763Y0383796D01*
X0073943Y0384110D01*
X0074115Y0384429D01*
X0074279Y0384752D01*
X0074436Y0385079D01*
X0074585Y0385410D01*
X0074726Y0385744D01*
X0074858Y0386081D01*
X0074983Y0386421D01*
X0075099Y0386765D01*
X0075207Y0387111D01*
X0075306Y0387459D01*
X0075397Y0387810D01*
X0075480Y0388163D01*
X0075554Y0388518D01*
X0075619Y0388875D01*
X0075676Y0389233D01*
X0075724Y0389592D01*
X0075763Y0389952D01*
X0075794Y0390313D01*
X0075815Y0390675D01*
X0075829Y0391038D01*
X0075833Y0391400D01*
X0075829Y0391762D01*
X0075815Y0392125D01*
X0075794Y0392487D01*
X0075763Y0392848D01*
X0075724Y0393208D01*
X0075676Y0393567D01*
X0075619Y0393925D01*
X0075554Y0394282D01*
X0075480Y0394637D01*
X0075397Y0394990D01*
X0075306Y0395341D01*
X0075207Y0395689D01*
X0075099Y0396035D01*
X0074983Y0396379D01*
X0074858Y0396719D01*
X0074726Y0397056D01*
X0074585Y0397390D01*
X0074436Y0397721D01*
X0074279Y0398048D01*
X0074115Y0398371D01*
X0073943Y0398690D01*
X0073763Y0399004D01*
X0073575Y0399315D01*
X0073380Y0399620D01*
X0073178Y0399921D01*
X0072968Y0400217D01*
X0072752Y0400507D01*
X0072528Y0400793D01*
X0072298Y0401073D01*
X0072061Y0401347D01*
X0071817Y0401615D01*
X0071567Y0401878D01*
X0071311Y0402134D01*
X0071048Y0402384D01*
X0070780Y0402628D01*
X0070506Y0402865D01*
X0070226Y0403095D01*
X0069940Y0403319D01*
X0069650Y0403535D01*
X0069354Y0403745D01*
X0069053Y0403947D01*
X0068748Y0404142D01*
X0068437Y0404330D01*
X0068123Y0404510D01*
X0067804Y0404682D01*
X0067481Y0404846D01*
X0067154Y0405003D01*
X0066823Y0405152D01*
X0066489Y0405293D01*
X0066152Y0405425D01*
X0065812Y0405550D01*
X0065468Y0405666D01*
X0065122Y0405774D01*
X0064774Y0405873D01*
X0064423Y0405964D01*
X0064070Y0406047D01*
X0063715Y0406121D01*
X0063358Y0406186D01*
X0063000Y0406243D01*
X0062641Y0406291D01*
X0062281Y0406330D01*
X0061920Y0406361D01*
X0061558Y0406382D01*
X0061195Y0406396D01*
X0060833Y0406400D01*
X0047833Y0406400D01*
X0060233Y0487000D02*
X0050833Y0496400D01*
X0050593Y0496647D01*
X0050358Y0496899D01*
X0050130Y0497157D01*
X0049908Y0497420D01*
X0049692Y0497689D01*
X0049484Y0497963D01*
X0049282Y0498242D01*
X0049086Y0498525D01*
X0048898Y0498814D01*
X0048717Y0499106D01*
X0048543Y0499404D01*
X0048376Y0499705D01*
X0048217Y0500010D01*
X0048065Y0500319D01*
X0047921Y0500632D01*
X0047784Y0500948D01*
X0047655Y0501268D01*
X0047534Y0501590D01*
X0047421Y0501915D01*
X0047316Y0502243D01*
X0047218Y0502574D01*
X0047129Y0502906D01*
X0047048Y0503241D01*
X0046975Y0503578D01*
X0046911Y0503916D01*
X0046855Y0504256D01*
X0046806Y0504597D01*
X0046767Y0504939D01*
X0046735Y0505282D01*
X0046712Y0505625D01*
X0046698Y0505970D01*
X0046691Y0506314D01*
X0046693Y0506658D01*
X0046704Y0507003D01*
X0046723Y0507346D01*
X0046750Y0507690D01*
X0046786Y0508032D01*
X0046829Y0508374D01*
X0046882Y0508714D01*
X0046942Y0509053D01*
X0047011Y0509391D01*
X0047088Y0509726D01*
X0047173Y0510060D01*
X0047266Y0510392D01*
X0047367Y0510721D01*
X0047476Y0511048D01*
X0047594Y0511371D01*
X0047719Y0511692D01*
X0047851Y0512010D01*
X0047992Y0512325D01*
X0048140Y0512636D01*
X0048296Y0512943D01*
X0048459Y0513246D01*
X0048629Y0513545D01*
X0048807Y0513840D01*
X0048991Y0514131D01*
X0049183Y0514417D01*
X0049382Y0514699D01*
X0049587Y0514975D01*
X0049799Y0515246D01*
X0050018Y0515512D01*
X0050243Y0515773D01*
X0050475Y0516028D01*
X0050712Y0516277D01*
X0050956Y0516521D01*
X0051205Y0516758D01*
X0051460Y0516990D01*
X0051721Y0517215D01*
X0051987Y0517434D01*
X0052258Y0517646D01*
X0052534Y0517851D01*
X0052816Y0518050D01*
X0053102Y0518242D01*
X0053393Y0518426D01*
X0053688Y0518604D01*
X0053987Y0518774D01*
X0054290Y0518937D01*
X0054597Y0519093D01*
X0054908Y0519241D01*
X0055223Y0519382D01*
X0055541Y0519514D01*
X0055862Y0519639D01*
X0056185Y0519757D01*
X0056512Y0519866D01*
X0056841Y0519967D01*
X0057173Y0520060D01*
X0057507Y0520145D01*
X0057842Y0520222D01*
X0058180Y0520291D01*
X0058519Y0520351D01*
X0058859Y0520404D01*
X0059201Y0520447D01*
X0059543Y0520483D01*
X0059887Y0520510D01*
X0060230Y0520529D01*
X0060575Y0520540D01*
X0060919Y0520542D01*
X0061263Y0520535D01*
X0061608Y0520521D01*
X0061951Y0520498D01*
X0062294Y0520466D01*
X0062636Y0520427D01*
X0062977Y0520378D01*
X0063317Y0520322D01*
X0063655Y0520258D01*
X0063992Y0520185D01*
X0064327Y0520104D01*
X0064659Y0520015D01*
X0064990Y0519917D01*
X0065318Y0519812D01*
X0065643Y0519699D01*
X0065965Y0519578D01*
X0066285Y0519449D01*
X0066601Y0519312D01*
X0066914Y0519168D01*
X0067223Y0519016D01*
X0067528Y0518857D01*
X0067829Y0518690D01*
X0068127Y0518516D01*
X0068419Y0518335D01*
X0068708Y0518147D01*
X0068991Y0517951D01*
X0069270Y0517749D01*
X0069544Y0517541D01*
X0069813Y0517325D01*
X0070076Y0517103D01*
X0070334Y0516875D01*
X0070586Y0516640D01*
X0070833Y0516400D01*
X0080233Y0507000D01*
X0160833Y0506400D02*
X0160833Y0519400D01*
X0160833Y0506400D02*
X0160837Y0506038D01*
X0160851Y0505675D01*
X0160872Y0505313D01*
X0160903Y0504952D01*
X0160942Y0504592D01*
X0160990Y0504233D01*
X0161047Y0503875D01*
X0161112Y0503518D01*
X0161186Y0503163D01*
X0161269Y0502810D01*
X0161360Y0502459D01*
X0161459Y0502111D01*
X0161567Y0501765D01*
X0161683Y0501421D01*
X0161808Y0501081D01*
X0161940Y0500744D01*
X0162081Y0500410D01*
X0162230Y0500079D01*
X0162387Y0499752D01*
X0162551Y0499429D01*
X0162723Y0499110D01*
X0162903Y0498796D01*
X0163091Y0498485D01*
X0163286Y0498180D01*
X0163488Y0497879D01*
X0163698Y0497583D01*
X0163914Y0497293D01*
X0164138Y0497007D01*
X0164368Y0496727D01*
X0164605Y0496453D01*
X0164849Y0496185D01*
X0165099Y0495922D01*
X0165355Y0495666D01*
X0165618Y0495416D01*
X0165886Y0495172D01*
X0166160Y0494935D01*
X0166440Y0494705D01*
X0166726Y0494481D01*
X0167016Y0494265D01*
X0167312Y0494055D01*
X0167613Y0493853D01*
X0167918Y0493658D01*
X0168229Y0493470D01*
X0168543Y0493290D01*
X0168862Y0493118D01*
X0169185Y0492954D01*
X0169512Y0492797D01*
X0169843Y0492648D01*
X0170177Y0492507D01*
X0170514Y0492375D01*
X0170854Y0492250D01*
X0171198Y0492134D01*
X0171544Y0492026D01*
X0171892Y0491927D01*
X0172243Y0491836D01*
X0172596Y0491753D01*
X0172951Y0491679D01*
X0173308Y0491614D01*
X0173666Y0491557D01*
X0174025Y0491509D01*
X0174385Y0491470D01*
X0174746Y0491439D01*
X0175108Y0491418D01*
X0175471Y0491404D01*
X0175833Y0491400D01*
X0176195Y0491404D01*
X0176558Y0491418D01*
X0176920Y0491439D01*
X0177281Y0491470D01*
X0177641Y0491509D01*
X0178000Y0491557D01*
X0178358Y0491614D01*
X0178715Y0491679D01*
X0179070Y0491753D01*
X0179423Y0491836D01*
X0179774Y0491927D01*
X0180122Y0492026D01*
X0180468Y0492134D01*
X0180812Y0492250D01*
X0181152Y0492375D01*
X0181489Y0492507D01*
X0181823Y0492648D01*
X0182154Y0492797D01*
X0182481Y0492954D01*
X0182804Y0493118D01*
X0183123Y0493290D01*
X0183437Y0493470D01*
X0183748Y0493658D01*
X0184053Y0493853D01*
X0184354Y0494055D01*
X0184650Y0494265D01*
X0184940Y0494481D01*
X0185226Y0494705D01*
X0185506Y0494935D01*
X0185780Y0495172D01*
X0186048Y0495416D01*
X0186311Y0495666D01*
X0186567Y0495922D01*
X0186817Y0496185D01*
X0187061Y0496453D01*
X0187298Y0496727D01*
X0187528Y0497007D01*
X0187752Y0497293D01*
X0187968Y0497583D01*
X0188178Y0497879D01*
X0188380Y0498180D01*
X0188575Y0498485D01*
X0188763Y0498796D01*
X0188943Y0499110D01*
X0189115Y0499429D01*
X0189279Y0499752D01*
X0189436Y0500079D01*
X0189585Y0500410D01*
X0189726Y0500744D01*
X0189858Y0501081D01*
X0189983Y0501421D01*
X0190099Y0501765D01*
X0190207Y0502111D01*
X0190306Y0502459D01*
X0190397Y0502810D01*
X0190480Y0503163D01*
X0190554Y0503518D01*
X0190619Y0503875D01*
X0190676Y0504233D01*
X0190724Y0504592D01*
X0190763Y0504952D01*
X0190794Y0505313D01*
X0190815Y0505675D01*
X0190829Y0506038D01*
X0190833Y0506400D01*
X0190833Y0519400D01*
X0271433Y0507000D02*
X0280833Y0516400D01*
X0281082Y0516642D01*
X0281336Y0516879D01*
X0281596Y0517108D01*
X0281861Y0517332D01*
X0282132Y0517549D01*
X0282409Y0517759D01*
X0282690Y0517962D01*
X0282976Y0518159D01*
X0283267Y0518348D01*
X0283563Y0518530D01*
X0283862Y0518705D01*
X0284167Y0518872D01*
X0284475Y0519032D01*
X0284787Y0519184D01*
X0285102Y0519329D01*
X0285421Y0519466D01*
X0285743Y0519594D01*
X0286069Y0519715D01*
X0286397Y0519828D01*
X0286728Y0519933D01*
X0287061Y0520030D01*
X0287397Y0520118D01*
X0287734Y0520198D01*
X0288074Y0520270D01*
X0288415Y0520334D01*
X0288758Y0520389D01*
X0289102Y0520436D01*
X0289447Y0520474D01*
X0289793Y0520504D01*
X0290139Y0520525D01*
X0290486Y0520538D01*
X0290833Y0520542D01*
X0291180Y0520538D01*
X0291527Y0520525D01*
X0291873Y0520504D01*
X0292219Y0520474D01*
X0292564Y0520436D01*
X0292908Y0520389D01*
X0293251Y0520334D01*
X0293592Y0520270D01*
X0293932Y0520198D01*
X0294269Y0520118D01*
X0294605Y0520030D01*
X0294938Y0519933D01*
X0295269Y0519828D01*
X0295597Y0519715D01*
X0295923Y0519594D01*
X0296245Y0519466D01*
X0296564Y0519329D01*
X0296879Y0519184D01*
X0297191Y0519032D01*
X0297499Y0518872D01*
X0297804Y0518705D01*
X0298103Y0518530D01*
X0298399Y0518348D01*
X0298690Y0518159D01*
X0298976Y0517962D01*
X0299257Y0517759D01*
X0299534Y0517549D01*
X0299805Y0517332D01*
X0300070Y0517108D01*
X0300330Y0516879D01*
X0300584Y0516642D01*
X0300833Y0516400D01*
X0301075Y0516151D01*
X0301312Y0515897D01*
X0301541Y0515637D01*
X0301765Y0515372D01*
X0301982Y0515101D01*
X0302192Y0514824D01*
X0302395Y0514543D01*
X0302592Y0514257D01*
X0302781Y0513966D01*
X0302963Y0513670D01*
X0303138Y0513371D01*
X0303305Y0513066D01*
X0303465Y0512758D01*
X0303617Y0512446D01*
X0303762Y0512131D01*
X0303899Y0511812D01*
X0304027Y0511490D01*
X0304148Y0511164D01*
X0304261Y0510836D01*
X0304366Y0510505D01*
X0304463Y0510172D01*
X0304551Y0509836D01*
X0304631Y0509499D01*
X0304703Y0509159D01*
X0304767Y0508818D01*
X0304822Y0508475D01*
X0304869Y0508131D01*
X0304907Y0507786D01*
X0304937Y0507440D01*
X0304958Y0507094D01*
X0304971Y0506747D01*
X0304975Y0506400D01*
X0304971Y0506053D01*
X0304958Y0505706D01*
X0304937Y0505360D01*
X0304907Y0505014D01*
X0304869Y0504669D01*
X0304822Y0504325D01*
X0304767Y0503982D01*
X0304703Y0503641D01*
X0304631Y0503301D01*
X0304551Y0502964D01*
X0304463Y0502628D01*
X0304366Y0502295D01*
X0304261Y0501964D01*
X0304148Y0501636D01*
X0304027Y0501310D01*
X0303899Y0500988D01*
X0303762Y0500669D01*
X0303617Y0500354D01*
X0303465Y0500042D01*
X0303305Y0499734D01*
X0303138Y0499429D01*
X0302963Y0499130D01*
X0302781Y0498834D01*
X0302592Y0498543D01*
X0302395Y0498257D01*
X0302192Y0497976D01*
X0301982Y0497699D01*
X0301765Y0497428D01*
X0301541Y0497163D01*
X0301312Y0496903D01*
X0301075Y0496649D01*
X0300833Y0496400D01*
X0291433Y0487000D01*
X0290833Y0406400D02*
X0303833Y0406400D01*
X0275833Y0391400D02*
X0275837Y0391038D01*
X0275851Y0390675D01*
X0275872Y0390313D01*
X0275903Y0389952D01*
X0275942Y0389592D01*
X0275990Y0389233D01*
X0276047Y0388875D01*
X0276112Y0388518D01*
X0276186Y0388163D01*
X0276269Y0387810D01*
X0276360Y0387459D01*
X0276459Y0387111D01*
X0276567Y0386765D01*
X0276683Y0386421D01*
X0276808Y0386081D01*
X0276940Y0385744D01*
X0277081Y0385410D01*
X0277230Y0385079D01*
X0277387Y0384752D01*
X0277551Y0384429D01*
X0277723Y0384110D01*
X0277903Y0383796D01*
X0278091Y0383485D01*
X0278286Y0383180D01*
X0278488Y0382879D01*
X0278698Y0382583D01*
X0278914Y0382293D01*
X0279138Y0382007D01*
X0279368Y0381727D01*
X0279605Y0381453D01*
X0279849Y0381185D01*
X0280099Y0380922D01*
X0280355Y0380666D01*
X0280618Y0380416D01*
X0280886Y0380172D01*
X0281160Y0379935D01*
X0281440Y0379705D01*
X0281726Y0379481D01*
X0282016Y0379265D01*
X0282312Y0379055D01*
X0282613Y0378853D01*
X0282918Y0378658D01*
X0283229Y0378470D01*
X0283543Y0378290D01*
X0283862Y0378118D01*
X0284185Y0377954D01*
X0284512Y0377797D01*
X0284843Y0377648D01*
X0285177Y0377507D01*
X0285514Y0377375D01*
X0285854Y0377250D01*
X0286198Y0377134D01*
X0286544Y0377026D01*
X0286892Y0376927D01*
X0287243Y0376836D01*
X0287596Y0376753D01*
X0287951Y0376679D01*
X0288308Y0376614D01*
X0288666Y0376557D01*
X0289025Y0376509D01*
X0289385Y0376470D01*
X0289746Y0376439D01*
X0290108Y0376418D01*
X0290471Y0376404D01*
X0290833Y0376400D01*
X0303833Y0376400D01*
X0275833Y0391400D02*
X0275837Y0391762D01*
X0275851Y0392125D01*
X0275872Y0392487D01*
X0275903Y0392848D01*
X0275942Y0393208D01*
X0275990Y0393567D01*
X0276047Y0393925D01*
X0276112Y0394282D01*
X0276186Y0394637D01*
X0276269Y0394990D01*
X0276360Y0395341D01*
X0276459Y0395689D01*
X0276567Y0396035D01*
X0276683Y0396379D01*
X0276808Y0396719D01*
X0276940Y0397056D01*
X0277081Y0397390D01*
X0277230Y0397721D01*
X0277387Y0398048D01*
X0277551Y0398371D01*
X0277723Y0398690D01*
X0277903Y0399004D01*
X0278091Y0399315D01*
X0278286Y0399620D01*
X0278488Y0399921D01*
X0278698Y0400217D01*
X0278914Y0400507D01*
X0279138Y0400793D01*
X0279368Y0401073D01*
X0279605Y0401347D01*
X0279849Y0401615D01*
X0280099Y0401878D01*
X0280355Y0402134D01*
X0280618Y0402384D01*
X0280886Y0402628D01*
X0281160Y0402865D01*
X0281440Y0403095D01*
X0281726Y0403319D01*
X0282016Y0403535D01*
X0282312Y0403745D01*
X0282613Y0403947D01*
X0282918Y0404142D01*
X0283229Y0404330D01*
X0283543Y0404510D01*
X0283862Y0404682D01*
X0284185Y0404846D01*
X0284512Y0405003D01*
X0284843Y0405152D01*
X0285177Y0405293D01*
X0285514Y0405425D01*
X0285854Y0405550D01*
X0286198Y0405666D01*
X0286544Y0405774D01*
X0286892Y0405873D01*
X0287243Y0405964D01*
X0287596Y0406047D01*
X0287951Y0406121D01*
X0288308Y0406186D01*
X0288666Y0406243D01*
X0289025Y0406291D01*
X0289385Y0406330D01*
X0289746Y0406361D01*
X0290108Y0406382D01*
X0290471Y0406396D01*
X0290833Y0406400D01*
X0291433Y0295800D02*
X0300833Y0286400D01*
X0301073Y0286153D01*
X0301308Y0285901D01*
X0301536Y0285643D01*
X0301758Y0285380D01*
X0301974Y0285111D01*
X0302182Y0284837D01*
X0302384Y0284558D01*
X0302580Y0284275D01*
X0302768Y0283986D01*
X0302949Y0283694D01*
X0303123Y0283396D01*
X0303290Y0283095D01*
X0303449Y0282790D01*
X0303601Y0282481D01*
X0303745Y0282168D01*
X0303882Y0281852D01*
X0304011Y0281532D01*
X0304132Y0281210D01*
X0304245Y0280885D01*
X0304350Y0280557D01*
X0304448Y0280226D01*
X0304537Y0279894D01*
X0304618Y0279559D01*
X0304691Y0279222D01*
X0304755Y0278884D01*
X0304811Y0278544D01*
X0304860Y0278203D01*
X0304899Y0277861D01*
X0304931Y0277518D01*
X0304954Y0277175D01*
X0304968Y0276830D01*
X0304975Y0276486D01*
X0304973Y0276142D01*
X0304962Y0275797D01*
X0304943Y0275454D01*
X0304916Y0275110D01*
X0304880Y0274768D01*
X0304837Y0274426D01*
X0304784Y0274086D01*
X0304724Y0273747D01*
X0304655Y0273409D01*
X0304578Y0273074D01*
X0304493Y0272740D01*
X0304400Y0272408D01*
X0304299Y0272079D01*
X0304190Y0271752D01*
X0304072Y0271429D01*
X0303947Y0271108D01*
X0303815Y0270790D01*
X0303674Y0270475D01*
X0303526Y0270164D01*
X0303370Y0269857D01*
X0303207Y0269554D01*
X0303037Y0269255D01*
X0302859Y0268960D01*
X0302675Y0268669D01*
X0302483Y0268383D01*
X0302284Y0268101D01*
X0302079Y0267825D01*
X0301867Y0267554D01*
X0301648Y0267288D01*
X0301423Y0267027D01*
X0301191Y0266772D01*
X0300954Y0266523D01*
X0300710Y0266279D01*
X0300461Y0266042D01*
X0300206Y0265810D01*
X0299945Y0265585D01*
X0299679Y0265366D01*
X0299408Y0265154D01*
X0299132Y0264949D01*
X0298850Y0264750D01*
X0298564Y0264558D01*
X0298273Y0264374D01*
X0297978Y0264196D01*
X0297679Y0264026D01*
X0297376Y0263863D01*
X0297069Y0263707D01*
X0296758Y0263559D01*
X0296443Y0263418D01*
X0296125Y0263286D01*
X0295804Y0263161D01*
X0295481Y0263043D01*
X0295154Y0262934D01*
X0294825Y0262833D01*
X0294493Y0262740D01*
X0294159Y0262655D01*
X0293824Y0262578D01*
X0293486Y0262509D01*
X0293147Y0262449D01*
X0292807Y0262396D01*
X0292465Y0262353D01*
X0292123Y0262317D01*
X0291779Y0262290D01*
X0291436Y0262271D01*
X0291091Y0262260D01*
X0290747Y0262258D01*
X0290403Y0262265D01*
X0290058Y0262279D01*
X0289715Y0262302D01*
X0289372Y0262334D01*
X0289030Y0262373D01*
X0288689Y0262422D01*
X0288349Y0262478D01*
X0288011Y0262542D01*
X0287674Y0262615D01*
X0287339Y0262696D01*
X0287007Y0262785D01*
X0286676Y0262883D01*
X0286348Y0262988D01*
X0286023Y0263101D01*
X0285701Y0263222D01*
X0285381Y0263351D01*
X0285065Y0263488D01*
X0284752Y0263632D01*
X0284443Y0263784D01*
X0284138Y0263943D01*
X0283837Y0264110D01*
X0283539Y0264284D01*
X0283247Y0264465D01*
X0282958Y0264653D01*
X0282675Y0264849D01*
X0282396Y0265051D01*
X0282122Y0265259D01*
X0281853Y0265475D01*
X0281590Y0265697D01*
X0281332Y0265925D01*
X0281080Y0266160D01*
X0280833Y0266400D01*
X0271433Y0275800D01*
X0190833Y0263400D02*
X0193945Y0263793D01*
X0197046Y0264262D01*
X0200134Y0264807D01*
X0203209Y0265427D01*
X0206267Y0266121D01*
X0209307Y0266891D01*
X0212328Y0267734D01*
X0215327Y0268651D01*
X0218303Y0269641D01*
X0221254Y0270703D01*
X0224178Y0271838D01*
X0227073Y0273043D01*
X0229938Y0274318D01*
X0232771Y0275664D01*
X0235571Y0277078D01*
X0238335Y0278560D01*
X0241062Y0280109D01*
X0243750Y0281724D01*
X0246398Y0283405D01*
X0249004Y0285149D01*
X0251567Y0286957D01*
X0254085Y0288827D01*
X0256556Y0290758D01*
X0258979Y0292749D01*
X0261354Y0294798D01*
X0263677Y0296904D01*
X0265948Y0299067D01*
X0268166Y0301285D01*
X0270329Y0303556D01*
X0272435Y0305879D01*
X0274484Y0308254D01*
X0276475Y0310677D01*
X0278406Y0313148D01*
X0280276Y0315666D01*
X0282084Y0318229D01*
X0283828Y0320835D01*
X0285509Y0323483D01*
X0287124Y0326171D01*
X0288673Y0328898D01*
X0290155Y0331662D01*
X0291569Y0334462D01*
X0292915Y0337295D01*
X0294190Y0340160D01*
X0295395Y0343055D01*
X0296530Y0345979D01*
X0297592Y0348930D01*
X0298582Y0351906D01*
X0299499Y0354905D01*
X0300342Y0357926D01*
X0301112Y0360966D01*
X0301806Y0364024D01*
X0302426Y0367099D01*
X0302971Y0370187D01*
X0303440Y0373288D01*
X0303833Y0376400D01*
X0303833Y0406400D02*
X0303440Y0409512D01*
X0302971Y0412613D01*
X0302426Y0415701D01*
X0301806Y0418776D01*
X0301112Y0421834D01*
X0300342Y0424874D01*
X0299499Y0427895D01*
X0298582Y0430894D01*
X0297592Y0433870D01*
X0296530Y0436821D01*
X0295395Y0439745D01*
X0294190Y0442640D01*
X0292915Y0445505D01*
X0291569Y0448338D01*
X0290155Y0451138D01*
X0288673Y0453902D01*
X0287124Y0456629D01*
X0285509Y0459317D01*
X0283828Y0461965D01*
X0282084Y0464571D01*
X0280276Y0467134D01*
X0278406Y0469652D01*
X0276475Y0472123D01*
X0274484Y0474546D01*
X0272435Y0476921D01*
X0270329Y0479244D01*
X0268166Y0481515D01*
X0265948Y0483733D01*
X0263677Y0485896D01*
X0261354Y0488002D01*
X0258979Y0490051D01*
X0256556Y0492042D01*
X0254085Y0493973D01*
X0251567Y0495843D01*
X0249004Y0497651D01*
X0246398Y0499395D01*
X0243750Y0501076D01*
X0241062Y0502691D01*
X0238335Y0504240D01*
X0235571Y0505722D01*
X0232771Y0507136D01*
X0229938Y0508482D01*
X0227073Y0509757D01*
X0224178Y0510962D01*
X0221254Y0512097D01*
X0218303Y0513159D01*
X0215327Y0514149D01*
X0212328Y0515066D01*
X0209307Y0515909D01*
X0206267Y0516679D01*
X0203209Y0517373D01*
X0200134Y0517993D01*
X0197046Y0518538D01*
X0193945Y0519007D01*
X0190833Y0519400D01*
X0160834Y0519400D02*
X0157722Y0519007D01*
X0154621Y0518538D01*
X0151533Y0517993D01*
X0148458Y0517373D01*
X0145400Y0516679D01*
X0142360Y0515909D01*
X0139339Y0515066D01*
X0136340Y0514149D01*
X0133364Y0513159D01*
X0130413Y0512097D01*
X0127489Y0510962D01*
X0124594Y0509757D01*
X0121729Y0508482D01*
X0118896Y0507136D01*
X0116096Y0505722D01*
X0113332Y0504240D01*
X0110605Y0502691D01*
X0107917Y0501076D01*
X0105269Y0499395D01*
X0102663Y0497651D01*
X0100100Y0495843D01*
X0097582Y0493973D01*
X0095111Y0492042D01*
X0092688Y0490051D01*
X0090313Y0488002D01*
X0087990Y0485896D01*
X0085719Y0483733D01*
X0083501Y0481515D01*
X0081338Y0479244D01*
X0079232Y0476921D01*
X0077183Y0474546D01*
X0075192Y0472123D01*
X0073261Y0469652D01*
X0071391Y0467134D01*
X0069583Y0464571D01*
X0067839Y0461965D01*
X0066158Y0459317D01*
X0064543Y0456629D01*
X0062994Y0453902D01*
X0061512Y0451138D01*
X0060098Y0448338D01*
X0058752Y0445505D01*
X0057477Y0442640D01*
X0056272Y0439745D01*
X0055137Y0436821D01*
X0054075Y0433870D01*
X0053085Y0430894D01*
X0052168Y0427895D01*
X0051325Y0424874D01*
X0050555Y0421834D01*
X0049861Y0418776D01*
X0049241Y0415701D01*
X0048696Y0412613D01*
X0048227Y0409512D01*
X0047834Y0406400D01*
X0047834Y0376400D02*
X0048227Y0373288D01*
X0048696Y0370187D01*
X0049241Y0367099D01*
X0049861Y0364024D01*
X0050555Y0360966D01*
X0051325Y0357926D01*
X0052168Y0354905D01*
X0053085Y0351906D01*
X0054075Y0348930D01*
X0055137Y0345979D01*
X0056272Y0343055D01*
X0057477Y0340160D01*
X0058752Y0337295D01*
X0060098Y0334462D01*
X0061512Y0331662D01*
X0062994Y0328898D01*
X0064543Y0326171D01*
X0066158Y0323483D01*
X0067839Y0320835D01*
X0069583Y0318229D01*
X0071391Y0315666D01*
X0073261Y0313148D01*
X0075192Y0310677D01*
X0077183Y0308254D01*
X0079232Y0305879D01*
X0081338Y0303556D01*
X0083501Y0301285D01*
X0085719Y0299067D01*
X0087990Y0296904D01*
X0090313Y0294798D01*
X0092688Y0292749D01*
X0095111Y0290758D01*
X0097582Y0288827D01*
X0100100Y0286957D01*
X0102663Y0285149D01*
X0105269Y0283405D01*
X0107917Y0281724D01*
X0110605Y0280109D01*
X0113332Y0278560D01*
X0116096Y0277078D01*
X0118896Y0275664D01*
X0121729Y0274318D01*
X0124594Y0273043D01*
X0127489Y0271838D01*
X0130413Y0270703D01*
X0133364Y0269641D01*
X0136340Y0268651D01*
X0139339Y0267734D01*
X0142360Y0266891D01*
X0145400Y0266121D01*
X0148458Y0265427D01*
X0151533Y0264807D01*
X0154621Y0264262D01*
X0157722Y0263793D01*
X0160834Y0263400D01*
X0080233Y0507000D02*
X0083066Y0509278D01*
X0085953Y0511488D01*
X0088893Y0513626D01*
X0091884Y0515693D01*
X0094924Y0517687D01*
X0098011Y0519607D01*
X0101144Y0521452D01*
X0104320Y0523220D01*
X0107539Y0524911D01*
X0110797Y0526524D01*
X0114093Y0528057D01*
X0117426Y0529511D01*
X0120792Y0530883D01*
X0124191Y0532173D01*
X0127620Y0533381D01*
X0131077Y0534506D01*
X0134561Y0535546D01*
X0138068Y0536502D01*
X0141598Y0537373D01*
X0145148Y0538158D01*
X0148715Y0538857D01*
X0152299Y0539470D01*
X0155896Y0539996D01*
X0159505Y0540434D01*
X0163124Y0540786D01*
X0166750Y0541049D01*
X0170381Y0541225D01*
X0174015Y0541313D01*
X0177651Y0541313D01*
X0181285Y0541225D01*
X0184916Y0541049D01*
X0188542Y0540786D01*
X0192161Y0540434D01*
X0195770Y0539996D01*
X0199367Y0539470D01*
X0202951Y0538857D01*
X0206518Y0538158D01*
X0210068Y0537373D01*
X0213598Y0536502D01*
X0217105Y0535546D01*
X0220589Y0534506D01*
X0224046Y0533381D01*
X0227475Y0532173D01*
X0230874Y0530883D01*
X0234240Y0529511D01*
X0237573Y0528057D01*
X0240869Y0526524D01*
X0244127Y0524911D01*
X0247346Y0523220D01*
X0250522Y0521452D01*
X0253655Y0519607D01*
X0256742Y0517687D01*
X0259782Y0515693D01*
X0262773Y0513626D01*
X0265713Y0511488D01*
X0268600Y0509278D01*
X0271433Y0507000D01*
X0271433Y0275800D02*
X0268600Y0273522D01*
X0265713Y0271312D01*
X0262773Y0269174D01*
X0259782Y0267107D01*
X0256742Y0265113D01*
X0253655Y0263193D01*
X0250522Y0261348D01*
X0247346Y0259580D01*
X0244127Y0257889D01*
X0240869Y0256276D01*
X0237573Y0254743D01*
X0234240Y0253289D01*
X0230874Y0251917D01*
X0227475Y0250627D01*
X0224046Y0249419D01*
X0220589Y0248294D01*
X0217105Y0247254D01*
X0213598Y0246298D01*
X0210068Y0245427D01*
X0206518Y0244642D01*
X0202951Y0243943D01*
X0199367Y0243330D01*
X0195770Y0242804D01*
X0192161Y0242366D01*
X0188542Y0242014D01*
X0184916Y0241751D01*
X0181285Y0241575D01*
X0177651Y0241487D01*
X0174015Y0241487D01*
X0170381Y0241575D01*
X0166750Y0241751D01*
X0163124Y0242014D01*
X0159505Y0242366D01*
X0155896Y0242804D01*
X0152299Y0243330D01*
X0148715Y0243943D01*
X0145148Y0244642D01*
X0141598Y0245427D01*
X0138068Y0246298D01*
X0134561Y0247254D01*
X0131077Y0248294D01*
X0127620Y0249419D01*
X0124191Y0250627D01*
X0120792Y0251917D01*
X0117426Y0253289D01*
X0114093Y0254743D01*
X0110797Y0256276D01*
X0107539Y0257889D01*
X0104320Y0259580D01*
X0101144Y0261348D01*
X0098011Y0263193D01*
X0094924Y0265113D01*
X0091884Y0267107D01*
X0088893Y0269174D01*
X0085953Y0271312D01*
X0083066Y0273522D01*
X0080233Y0275800D01*
X0291433Y0295800D02*
X0293711Y0298633D01*
X0295921Y0301520D01*
X0298059Y0304460D01*
X0300126Y0307451D01*
X0302120Y0310491D01*
X0304040Y0313578D01*
X0305885Y0316711D01*
X0307653Y0319887D01*
X0309344Y0323106D01*
X0310957Y0326364D01*
X0312490Y0329660D01*
X0313944Y0332993D01*
X0315316Y0336359D01*
X0316606Y0339758D01*
X0317814Y0343187D01*
X0318939Y0346644D01*
X0319979Y0350128D01*
X0320935Y0353635D01*
X0321806Y0357165D01*
X0322591Y0360715D01*
X0323290Y0364282D01*
X0323903Y0367866D01*
X0324429Y0371463D01*
X0324867Y0375072D01*
X0325219Y0378691D01*
X0325482Y0382317D01*
X0325658Y0385948D01*
X0325746Y0389582D01*
X0325746Y0393218D01*
X0325658Y0396852D01*
X0325482Y0400483D01*
X0325219Y0404109D01*
X0324867Y0407728D01*
X0324429Y0411337D01*
X0323903Y0414934D01*
X0323290Y0418518D01*
X0322591Y0422085D01*
X0321806Y0425635D01*
X0320935Y0429165D01*
X0319979Y0432672D01*
X0318939Y0436156D01*
X0317814Y0439613D01*
X0316606Y0443042D01*
X0315316Y0446441D01*
X0313944Y0449807D01*
X0312490Y0453140D01*
X0310957Y0456436D01*
X0309344Y0459694D01*
X0307653Y0462913D01*
X0305885Y0466089D01*
X0304040Y0469222D01*
X0302120Y0472309D01*
X0300126Y0475349D01*
X0298059Y0478340D01*
X0295921Y0481280D01*
X0293711Y0484167D01*
X0291433Y0487000D01*
X0060233Y0487000D02*
X0057955Y0484167D01*
X0055745Y0481280D01*
X0053607Y0478340D01*
X0051540Y0475349D01*
X0049546Y0472309D01*
X0047626Y0469222D01*
X0045781Y0466089D01*
X0044013Y0462913D01*
X0042322Y0459694D01*
X0040709Y0456436D01*
X0039176Y0453140D01*
X0037722Y0449807D01*
X0036350Y0446441D01*
X0035060Y0443042D01*
X0033852Y0439613D01*
X0032727Y0436156D01*
X0031687Y0432672D01*
X0030731Y0429165D01*
X0029860Y0425635D01*
X0029075Y0422085D01*
X0028376Y0418518D01*
X0027763Y0414934D01*
X0027237Y0411337D01*
X0026799Y0407728D01*
X0026447Y0404109D01*
X0026184Y0400483D01*
X0026008Y0396852D01*
X0025920Y0393218D01*
X0025920Y0389582D01*
X0026008Y0385948D01*
X0026184Y0382317D01*
X0026447Y0378691D01*
X0026799Y0375072D01*
X0027237Y0371463D01*
X0027763Y0367866D01*
X0028376Y0364282D01*
X0029075Y0360715D01*
X0029860Y0357165D01*
X0030731Y0353635D01*
X0031687Y0350128D01*
X0032727Y0346644D01*
X0033852Y0343187D01*
X0035060Y0339758D01*
X0036350Y0336359D01*
X0037722Y0332993D01*
X0039176Y0329660D01*
X0040709Y0326364D01*
X0042322Y0323106D01*
X0044013Y0319887D01*
X0045781Y0316711D01*
X0047626Y0313578D01*
X0049546Y0310491D01*
X0051540Y0307451D01*
X0053607Y0304460D01*
X0055745Y0301520D01*
X0057955Y0298633D01*
X0060233Y0295800D01*
D11*
X0059373Y0293689D02*
X0059375Y0293752D01*
X0059381Y0293814D01*
X0059391Y0293876D01*
X0059404Y0293938D01*
X0059422Y0293998D01*
X0059443Y0294057D01*
X0059468Y0294115D01*
X0059497Y0294171D01*
X0059529Y0294225D01*
X0059564Y0294277D01*
X0059602Y0294326D01*
X0059644Y0294374D01*
X0059688Y0294418D01*
X0059736Y0294460D01*
X0059785Y0294498D01*
X0059837Y0294533D01*
X0059891Y0294565D01*
X0059947Y0294594D01*
X0060005Y0294619D01*
X0060064Y0294640D01*
X0060124Y0294658D01*
X0060186Y0294671D01*
X0060248Y0294681D01*
X0060310Y0294687D01*
X0060373Y0294689D01*
X0060436Y0294687D01*
X0060498Y0294681D01*
X0060560Y0294671D01*
X0060622Y0294658D01*
X0060682Y0294640D01*
X0060741Y0294619D01*
X0060799Y0294594D01*
X0060855Y0294565D01*
X0060909Y0294533D01*
X0060961Y0294498D01*
X0061010Y0294460D01*
X0061058Y0294418D01*
X0061102Y0294374D01*
X0061144Y0294326D01*
X0061182Y0294277D01*
X0061217Y0294225D01*
X0061249Y0294171D01*
X0061278Y0294115D01*
X0061303Y0294057D01*
X0061324Y0293998D01*
X0061342Y0293938D01*
X0061355Y0293876D01*
X0061365Y0293814D01*
X0061371Y0293752D01*
X0061373Y0293689D01*
X0061371Y0293626D01*
X0061365Y0293564D01*
X0061355Y0293502D01*
X0061342Y0293440D01*
X0061324Y0293380D01*
X0061303Y0293321D01*
X0061278Y0293263D01*
X0061249Y0293207D01*
X0061217Y0293153D01*
X0061182Y0293101D01*
X0061144Y0293052D01*
X0061102Y0293004D01*
X0061058Y0292960D01*
X0061010Y0292918D01*
X0060961Y0292880D01*
X0060909Y0292845D01*
X0060855Y0292813D01*
X0060799Y0292784D01*
X0060741Y0292759D01*
X0060682Y0292738D01*
X0060622Y0292720D01*
X0060560Y0292707D01*
X0060498Y0292697D01*
X0060436Y0292691D01*
X0060373Y0292689D01*
X0060310Y0292691D01*
X0060248Y0292697D01*
X0060186Y0292707D01*
X0060124Y0292720D01*
X0060064Y0292738D01*
X0060005Y0292759D01*
X0059947Y0292784D01*
X0059891Y0292813D01*
X0059837Y0292845D01*
X0059785Y0292880D01*
X0059736Y0292918D01*
X0059688Y0292960D01*
X0059644Y0293004D01*
X0059602Y0293052D01*
X0059564Y0293101D01*
X0059529Y0293153D01*
X0059497Y0293207D01*
X0059468Y0293263D01*
X0059443Y0293321D01*
X0059422Y0293380D01*
X0059404Y0293440D01*
X0059391Y0293502D01*
X0059381Y0293564D01*
X0059375Y0293626D01*
X0059373Y0293689D01*
X0062909Y0290153D02*
X0062911Y0290216D01*
X0062917Y0290278D01*
X0062927Y0290340D01*
X0062940Y0290402D01*
X0062958Y0290462D01*
X0062979Y0290521D01*
X0063004Y0290579D01*
X0063033Y0290635D01*
X0063065Y0290689D01*
X0063100Y0290741D01*
X0063138Y0290790D01*
X0063180Y0290838D01*
X0063224Y0290882D01*
X0063272Y0290924D01*
X0063321Y0290962D01*
X0063373Y0290997D01*
X0063427Y0291029D01*
X0063483Y0291058D01*
X0063541Y0291083D01*
X0063600Y0291104D01*
X0063660Y0291122D01*
X0063722Y0291135D01*
X0063784Y0291145D01*
X0063846Y0291151D01*
X0063909Y0291153D01*
X0063972Y0291151D01*
X0064034Y0291145D01*
X0064096Y0291135D01*
X0064158Y0291122D01*
X0064218Y0291104D01*
X0064277Y0291083D01*
X0064335Y0291058D01*
X0064391Y0291029D01*
X0064445Y0290997D01*
X0064497Y0290962D01*
X0064546Y0290924D01*
X0064594Y0290882D01*
X0064638Y0290838D01*
X0064680Y0290790D01*
X0064718Y0290741D01*
X0064753Y0290689D01*
X0064785Y0290635D01*
X0064814Y0290579D01*
X0064839Y0290521D01*
X0064860Y0290462D01*
X0064878Y0290402D01*
X0064891Y0290340D01*
X0064901Y0290278D01*
X0064907Y0290216D01*
X0064909Y0290153D01*
X0064907Y0290090D01*
X0064901Y0290028D01*
X0064891Y0289966D01*
X0064878Y0289904D01*
X0064860Y0289844D01*
X0064839Y0289785D01*
X0064814Y0289727D01*
X0064785Y0289671D01*
X0064753Y0289617D01*
X0064718Y0289565D01*
X0064680Y0289516D01*
X0064638Y0289468D01*
X0064594Y0289424D01*
X0064546Y0289382D01*
X0064497Y0289344D01*
X0064445Y0289309D01*
X0064391Y0289277D01*
X0064335Y0289248D01*
X0064277Y0289223D01*
X0064218Y0289202D01*
X0064158Y0289184D01*
X0064096Y0289171D01*
X0064034Y0289161D01*
X0063972Y0289155D01*
X0063909Y0289153D01*
X0063846Y0289155D01*
X0063784Y0289161D01*
X0063722Y0289171D01*
X0063660Y0289184D01*
X0063600Y0289202D01*
X0063541Y0289223D01*
X0063483Y0289248D01*
X0063427Y0289277D01*
X0063373Y0289309D01*
X0063321Y0289344D01*
X0063272Y0289382D01*
X0063224Y0289424D01*
X0063180Y0289468D01*
X0063138Y0289516D01*
X0063100Y0289565D01*
X0063065Y0289617D01*
X0063033Y0289671D01*
X0063004Y0289727D01*
X0062979Y0289785D01*
X0062958Y0289844D01*
X0062940Y0289904D01*
X0062927Y0289966D01*
X0062917Y0290028D01*
X0062911Y0290090D01*
X0062909Y0290153D01*
X0066444Y0286618D02*
X0066446Y0286681D01*
X0066452Y0286743D01*
X0066462Y0286805D01*
X0066475Y0286867D01*
X0066493Y0286927D01*
X0066514Y0286986D01*
X0066539Y0287044D01*
X0066568Y0287100D01*
X0066600Y0287154D01*
X0066635Y0287206D01*
X0066673Y0287255D01*
X0066715Y0287303D01*
X0066759Y0287347D01*
X0066807Y0287389D01*
X0066856Y0287427D01*
X0066908Y0287462D01*
X0066962Y0287494D01*
X0067018Y0287523D01*
X0067076Y0287548D01*
X0067135Y0287569D01*
X0067195Y0287587D01*
X0067257Y0287600D01*
X0067319Y0287610D01*
X0067381Y0287616D01*
X0067444Y0287618D01*
X0067507Y0287616D01*
X0067569Y0287610D01*
X0067631Y0287600D01*
X0067693Y0287587D01*
X0067753Y0287569D01*
X0067812Y0287548D01*
X0067870Y0287523D01*
X0067926Y0287494D01*
X0067980Y0287462D01*
X0068032Y0287427D01*
X0068081Y0287389D01*
X0068129Y0287347D01*
X0068173Y0287303D01*
X0068215Y0287255D01*
X0068253Y0287206D01*
X0068288Y0287154D01*
X0068320Y0287100D01*
X0068349Y0287044D01*
X0068374Y0286986D01*
X0068395Y0286927D01*
X0068413Y0286867D01*
X0068426Y0286805D01*
X0068436Y0286743D01*
X0068442Y0286681D01*
X0068444Y0286618D01*
X0068442Y0286555D01*
X0068436Y0286493D01*
X0068426Y0286431D01*
X0068413Y0286369D01*
X0068395Y0286309D01*
X0068374Y0286250D01*
X0068349Y0286192D01*
X0068320Y0286136D01*
X0068288Y0286082D01*
X0068253Y0286030D01*
X0068215Y0285981D01*
X0068173Y0285933D01*
X0068129Y0285889D01*
X0068081Y0285847D01*
X0068032Y0285809D01*
X0067980Y0285774D01*
X0067926Y0285742D01*
X0067870Y0285713D01*
X0067812Y0285688D01*
X0067753Y0285667D01*
X0067693Y0285649D01*
X0067631Y0285636D01*
X0067569Y0285626D01*
X0067507Y0285620D01*
X0067444Y0285618D01*
X0067381Y0285620D01*
X0067319Y0285626D01*
X0067257Y0285636D01*
X0067195Y0285649D01*
X0067135Y0285667D01*
X0067076Y0285688D01*
X0067018Y0285713D01*
X0066962Y0285742D01*
X0066908Y0285774D01*
X0066856Y0285809D01*
X0066807Y0285847D01*
X0066759Y0285889D01*
X0066715Y0285933D01*
X0066673Y0285981D01*
X0066635Y0286030D01*
X0066600Y0286082D01*
X0066568Y0286136D01*
X0066539Y0286192D01*
X0066514Y0286250D01*
X0066493Y0286309D01*
X0066475Y0286369D01*
X0066462Y0286431D01*
X0066452Y0286493D01*
X0066446Y0286555D01*
X0066444Y0286618D01*
X0069980Y0283082D02*
X0069982Y0283145D01*
X0069988Y0283207D01*
X0069998Y0283269D01*
X0070011Y0283331D01*
X0070029Y0283391D01*
X0070050Y0283450D01*
X0070075Y0283508D01*
X0070104Y0283564D01*
X0070136Y0283618D01*
X0070171Y0283670D01*
X0070209Y0283719D01*
X0070251Y0283767D01*
X0070295Y0283811D01*
X0070343Y0283853D01*
X0070392Y0283891D01*
X0070444Y0283926D01*
X0070498Y0283958D01*
X0070554Y0283987D01*
X0070612Y0284012D01*
X0070671Y0284033D01*
X0070731Y0284051D01*
X0070793Y0284064D01*
X0070855Y0284074D01*
X0070917Y0284080D01*
X0070980Y0284082D01*
X0071043Y0284080D01*
X0071105Y0284074D01*
X0071167Y0284064D01*
X0071229Y0284051D01*
X0071289Y0284033D01*
X0071348Y0284012D01*
X0071406Y0283987D01*
X0071462Y0283958D01*
X0071516Y0283926D01*
X0071568Y0283891D01*
X0071617Y0283853D01*
X0071665Y0283811D01*
X0071709Y0283767D01*
X0071751Y0283719D01*
X0071789Y0283670D01*
X0071824Y0283618D01*
X0071856Y0283564D01*
X0071885Y0283508D01*
X0071910Y0283450D01*
X0071931Y0283391D01*
X0071949Y0283331D01*
X0071962Y0283269D01*
X0071972Y0283207D01*
X0071978Y0283145D01*
X0071980Y0283082D01*
X0071978Y0283019D01*
X0071972Y0282957D01*
X0071962Y0282895D01*
X0071949Y0282833D01*
X0071931Y0282773D01*
X0071910Y0282714D01*
X0071885Y0282656D01*
X0071856Y0282600D01*
X0071824Y0282546D01*
X0071789Y0282494D01*
X0071751Y0282445D01*
X0071709Y0282397D01*
X0071665Y0282353D01*
X0071617Y0282311D01*
X0071568Y0282273D01*
X0071516Y0282238D01*
X0071462Y0282206D01*
X0071406Y0282177D01*
X0071348Y0282152D01*
X0071289Y0282131D01*
X0071229Y0282113D01*
X0071167Y0282100D01*
X0071105Y0282090D01*
X0071043Y0282084D01*
X0070980Y0282082D01*
X0070917Y0282084D01*
X0070855Y0282090D01*
X0070793Y0282100D01*
X0070731Y0282113D01*
X0070671Y0282131D01*
X0070612Y0282152D01*
X0070554Y0282177D01*
X0070498Y0282206D01*
X0070444Y0282238D01*
X0070392Y0282273D01*
X0070343Y0282311D01*
X0070295Y0282353D01*
X0070251Y0282397D01*
X0070209Y0282445D01*
X0070171Y0282494D01*
X0070136Y0282546D01*
X0070104Y0282600D01*
X0070075Y0282656D01*
X0070050Y0282714D01*
X0070029Y0282773D01*
X0070011Y0282833D01*
X0069998Y0282895D01*
X0069988Y0282957D01*
X0069982Y0283019D01*
X0069980Y0283082D01*
X0073515Y0279546D02*
X0073517Y0279609D01*
X0073523Y0279671D01*
X0073533Y0279733D01*
X0073546Y0279795D01*
X0073564Y0279855D01*
X0073585Y0279914D01*
X0073610Y0279972D01*
X0073639Y0280028D01*
X0073671Y0280082D01*
X0073706Y0280134D01*
X0073744Y0280183D01*
X0073786Y0280231D01*
X0073830Y0280275D01*
X0073878Y0280317D01*
X0073927Y0280355D01*
X0073979Y0280390D01*
X0074033Y0280422D01*
X0074089Y0280451D01*
X0074147Y0280476D01*
X0074206Y0280497D01*
X0074266Y0280515D01*
X0074328Y0280528D01*
X0074390Y0280538D01*
X0074452Y0280544D01*
X0074515Y0280546D01*
X0074578Y0280544D01*
X0074640Y0280538D01*
X0074702Y0280528D01*
X0074764Y0280515D01*
X0074824Y0280497D01*
X0074883Y0280476D01*
X0074941Y0280451D01*
X0074997Y0280422D01*
X0075051Y0280390D01*
X0075103Y0280355D01*
X0075152Y0280317D01*
X0075200Y0280275D01*
X0075244Y0280231D01*
X0075286Y0280183D01*
X0075324Y0280134D01*
X0075359Y0280082D01*
X0075391Y0280028D01*
X0075420Y0279972D01*
X0075445Y0279914D01*
X0075466Y0279855D01*
X0075484Y0279795D01*
X0075497Y0279733D01*
X0075507Y0279671D01*
X0075513Y0279609D01*
X0075515Y0279546D01*
X0075513Y0279483D01*
X0075507Y0279421D01*
X0075497Y0279359D01*
X0075484Y0279297D01*
X0075466Y0279237D01*
X0075445Y0279178D01*
X0075420Y0279120D01*
X0075391Y0279064D01*
X0075359Y0279010D01*
X0075324Y0278958D01*
X0075286Y0278909D01*
X0075244Y0278861D01*
X0075200Y0278817D01*
X0075152Y0278775D01*
X0075103Y0278737D01*
X0075051Y0278702D01*
X0074997Y0278670D01*
X0074941Y0278641D01*
X0074883Y0278616D01*
X0074824Y0278595D01*
X0074764Y0278577D01*
X0074702Y0278564D01*
X0074640Y0278554D01*
X0074578Y0278548D01*
X0074515Y0278546D01*
X0074452Y0278548D01*
X0074390Y0278554D01*
X0074328Y0278564D01*
X0074266Y0278577D01*
X0074206Y0278595D01*
X0074147Y0278616D01*
X0074089Y0278641D01*
X0074033Y0278670D01*
X0073979Y0278702D01*
X0073927Y0278737D01*
X0073878Y0278775D01*
X0073830Y0278817D01*
X0073786Y0278861D01*
X0073744Y0278909D01*
X0073706Y0278958D01*
X0073671Y0279010D01*
X0073639Y0279064D01*
X0073610Y0279120D01*
X0073585Y0279178D01*
X0073564Y0279237D01*
X0073546Y0279297D01*
X0073533Y0279359D01*
X0073523Y0279421D01*
X0073517Y0279483D01*
X0073515Y0279546D01*
X0077051Y0276011D02*
X0077053Y0276074D01*
X0077059Y0276136D01*
X0077069Y0276198D01*
X0077082Y0276260D01*
X0077100Y0276320D01*
X0077121Y0276379D01*
X0077146Y0276437D01*
X0077175Y0276493D01*
X0077207Y0276547D01*
X0077242Y0276599D01*
X0077280Y0276648D01*
X0077322Y0276696D01*
X0077366Y0276740D01*
X0077414Y0276782D01*
X0077463Y0276820D01*
X0077515Y0276855D01*
X0077569Y0276887D01*
X0077625Y0276916D01*
X0077683Y0276941D01*
X0077742Y0276962D01*
X0077802Y0276980D01*
X0077864Y0276993D01*
X0077926Y0277003D01*
X0077988Y0277009D01*
X0078051Y0277011D01*
X0078114Y0277009D01*
X0078176Y0277003D01*
X0078238Y0276993D01*
X0078300Y0276980D01*
X0078360Y0276962D01*
X0078419Y0276941D01*
X0078477Y0276916D01*
X0078533Y0276887D01*
X0078587Y0276855D01*
X0078639Y0276820D01*
X0078688Y0276782D01*
X0078736Y0276740D01*
X0078780Y0276696D01*
X0078822Y0276648D01*
X0078860Y0276599D01*
X0078895Y0276547D01*
X0078927Y0276493D01*
X0078956Y0276437D01*
X0078981Y0276379D01*
X0079002Y0276320D01*
X0079020Y0276260D01*
X0079033Y0276198D01*
X0079043Y0276136D01*
X0079049Y0276074D01*
X0079051Y0276011D01*
X0079049Y0275948D01*
X0079043Y0275886D01*
X0079033Y0275824D01*
X0079020Y0275762D01*
X0079002Y0275702D01*
X0078981Y0275643D01*
X0078956Y0275585D01*
X0078927Y0275529D01*
X0078895Y0275475D01*
X0078860Y0275423D01*
X0078822Y0275374D01*
X0078780Y0275326D01*
X0078736Y0275282D01*
X0078688Y0275240D01*
X0078639Y0275202D01*
X0078587Y0275167D01*
X0078533Y0275135D01*
X0078477Y0275106D01*
X0078419Y0275081D01*
X0078360Y0275060D01*
X0078300Y0275042D01*
X0078238Y0275029D01*
X0078176Y0275019D01*
X0078114Y0275013D01*
X0078051Y0275011D01*
X0077988Y0275013D01*
X0077926Y0275019D01*
X0077864Y0275029D01*
X0077802Y0275042D01*
X0077742Y0275060D01*
X0077683Y0275081D01*
X0077625Y0275106D01*
X0077569Y0275135D01*
X0077515Y0275167D01*
X0077463Y0275202D01*
X0077414Y0275240D01*
X0077366Y0275282D01*
X0077322Y0275326D01*
X0077280Y0275374D01*
X0077242Y0275423D01*
X0077207Y0275475D01*
X0077175Y0275529D01*
X0077146Y0275585D01*
X0077121Y0275643D01*
X0077100Y0275702D01*
X0077082Y0275762D01*
X0077069Y0275824D01*
X0077059Y0275886D01*
X0077053Y0275948D01*
X0077051Y0276011D01*
X0046833Y0378900D02*
X0046835Y0378963D01*
X0046841Y0379025D01*
X0046851Y0379087D01*
X0046864Y0379149D01*
X0046882Y0379209D01*
X0046903Y0379268D01*
X0046928Y0379326D01*
X0046957Y0379382D01*
X0046989Y0379436D01*
X0047024Y0379488D01*
X0047062Y0379537D01*
X0047104Y0379585D01*
X0047148Y0379629D01*
X0047196Y0379671D01*
X0047245Y0379709D01*
X0047297Y0379744D01*
X0047351Y0379776D01*
X0047407Y0379805D01*
X0047465Y0379830D01*
X0047524Y0379851D01*
X0047584Y0379869D01*
X0047646Y0379882D01*
X0047708Y0379892D01*
X0047770Y0379898D01*
X0047833Y0379900D01*
X0047896Y0379898D01*
X0047958Y0379892D01*
X0048020Y0379882D01*
X0048082Y0379869D01*
X0048142Y0379851D01*
X0048201Y0379830D01*
X0048259Y0379805D01*
X0048315Y0379776D01*
X0048369Y0379744D01*
X0048421Y0379709D01*
X0048470Y0379671D01*
X0048518Y0379629D01*
X0048562Y0379585D01*
X0048604Y0379537D01*
X0048642Y0379488D01*
X0048677Y0379436D01*
X0048709Y0379382D01*
X0048738Y0379326D01*
X0048763Y0379268D01*
X0048784Y0379209D01*
X0048802Y0379149D01*
X0048815Y0379087D01*
X0048825Y0379025D01*
X0048831Y0378963D01*
X0048833Y0378900D01*
X0048831Y0378837D01*
X0048825Y0378775D01*
X0048815Y0378713D01*
X0048802Y0378651D01*
X0048784Y0378591D01*
X0048763Y0378532D01*
X0048738Y0378474D01*
X0048709Y0378418D01*
X0048677Y0378364D01*
X0048642Y0378312D01*
X0048604Y0378263D01*
X0048562Y0378215D01*
X0048518Y0378171D01*
X0048470Y0378129D01*
X0048421Y0378091D01*
X0048369Y0378056D01*
X0048315Y0378024D01*
X0048259Y0377995D01*
X0048201Y0377970D01*
X0048142Y0377949D01*
X0048082Y0377931D01*
X0048020Y0377918D01*
X0047958Y0377908D01*
X0047896Y0377902D01*
X0047833Y0377900D01*
X0047770Y0377902D01*
X0047708Y0377908D01*
X0047646Y0377918D01*
X0047584Y0377931D01*
X0047524Y0377949D01*
X0047465Y0377970D01*
X0047407Y0377995D01*
X0047351Y0378024D01*
X0047297Y0378056D01*
X0047245Y0378091D01*
X0047196Y0378129D01*
X0047148Y0378171D01*
X0047104Y0378215D01*
X0047062Y0378263D01*
X0047024Y0378312D01*
X0046989Y0378364D01*
X0046957Y0378418D01*
X0046928Y0378474D01*
X0046903Y0378532D01*
X0046882Y0378591D01*
X0046864Y0378651D01*
X0046851Y0378713D01*
X0046841Y0378775D01*
X0046835Y0378837D01*
X0046833Y0378900D01*
X0046833Y0383900D02*
X0046835Y0383963D01*
X0046841Y0384025D01*
X0046851Y0384087D01*
X0046864Y0384149D01*
X0046882Y0384209D01*
X0046903Y0384268D01*
X0046928Y0384326D01*
X0046957Y0384382D01*
X0046989Y0384436D01*
X0047024Y0384488D01*
X0047062Y0384537D01*
X0047104Y0384585D01*
X0047148Y0384629D01*
X0047196Y0384671D01*
X0047245Y0384709D01*
X0047297Y0384744D01*
X0047351Y0384776D01*
X0047407Y0384805D01*
X0047465Y0384830D01*
X0047524Y0384851D01*
X0047584Y0384869D01*
X0047646Y0384882D01*
X0047708Y0384892D01*
X0047770Y0384898D01*
X0047833Y0384900D01*
X0047896Y0384898D01*
X0047958Y0384892D01*
X0048020Y0384882D01*
X0048082Y0384869D01*
X0048142Y0384851D01*
X0048201Y0384830D01*
X0048259Y0384805D01*
X0048315Y0384776D01*
X0048369Y0384744D01*
X0048421Y0384709D01*
X0048470Y0384671D01*
X0048518Y0384629D01*
X0048562Y0384585D01*
X0048604Y0384537D01*
X0048642Y0384488D01*
X0048677Y0384436D01*
X0048709Y0384382D01*
X0048738Y0384326D01*
X0048763Y0384268D01*
X0048784Y0384209D01*
X0048802Y0384149D01*
X0048815Y0384087D01*
X0048825Y0384025D01*
X0048831Y0383963D01*
X0048833Y0383900D01*
X0048831Y0383837D01*
X0048825Y0383775D01*
X0048815Y0383713D01*
X0048802Y0383651D01*
X0048784Y0383591D01*
X0048763Y0383532D01*
X0048738Y0383474D01*
X0048709Y0383418D01*
X0048677Y0383364D01*
X0048642Y0383312D01*
X0048604Y0383263D01*
X0048562Y0383215D01*
X0048518Y0383171D01*
X0048470Y0383129D01*
X0048421Y0383091D01*
X0048369Y0383056D01*
X0048315Y0383024D01*
X0048259Y0382995D01*
X0048201Y0382970D01*
X0048142Y0382949D01*
X0048082Y0382931D01*
X0048020Y0382918D01*
X0047958Y0382908D01*
X0047896Y0382902D01*
X0047833Y0382900D01*
X0047770Y0382902D01*
X0047708Y0382908D01*
X0047646Y0382918D01*
X0047584Y0382931D01*
X0047524Y0382949D01*
X0047465Y0382970D01*
X0047407Y0382995D01*
X0047351Y0383024D01*
X0047297Y0383056D01*
X0047245Y0383091D01*
X0047196Y0383129D01*
X0047148Y0383171D01*
X0047104Y0383215D01*
X0047062Y0383263D01*
X0047024Y0383312D01*
X0046989Y0383364D01*
X0046957Y0383418D01*
X0046928Y0383474D01*
X0046903Y0383532D01*
X0046882Y0383591D01*
X0046864Y0383651D01*
X0046851Y0383713D01*
X0046841Y0383775D01*
X0046835Y0383837D01*
X0046833Y0383900D01*
X0046833Y0388900D02*
X0046835Y0388963D01*
X0046841Y0389025D01*
X0046851Y0389087D01*
X0046864Y0389149D01*
X0046882Y0389209D01*
X0046903Y0389268D01*
X0046928Y0389326D01*
X0046957Y0389382D01*
X0046989Y0389436D01*
X0047024Y0389488D01*
X0047062Y0389537D01*
X0047104Y0389585D01*
X0047148Y0389629D01*
X0047196Y0389671D01*
X0047245Y0389709D01*
X0047297Y0389744D01*
X0047351Y0389776D01*
X0047407Y0389805D01*
X0047465Y0389830D01*
X0047524Y0389851D01*
X0047584Y0389869D01*
X0047646Y0389882D01*
X0047708Y0389892D01*
X0047770Y0389898D01*
X0047833Y0389900D01*
X0047896Y0389898D01*
X0047958Y0389892D01*
X0048020Y0389882D01*
X0048082Y0389869D01*
X0048142Y0389851D01*
X0048201Y0389830D01*
X0048259Y0389805D01*
X0048315Y0389776D01*
X0048369Y0389744D01*
X0048421Y0389709D01*
X0048470Y0389671D01*
X0048518Y0389629D01*
X0048562Y0389585D01*
X0048604Y0389537D01*
X0048642Y0389488D01*
X0048677Y0389436D01*
X0048709Y0389382D01*
X0048738Y0389326D01*
X0048763Y0389268D01*
X0048784Y0389209D01*
X0048802Y0389149D01*
X0048815Y0389087D01*
X0048825Y0389025D01*
X0048831Y0388963D01*
X0048833Y0388900D01*
X0048831Y0388837D01*
X0048825Y0388775D01*
X0048815Y0388713D01*
X0048802Y0388651D01*
X0048784Y0388591D01*
X0048763Y0388532D01*
X0048738Y0388474D01*
X0048709Y0388418D01*
X0048677Y0388364D01*
X0048642Y0388312D01*
X0048604Y0388263D01*
X0048562Y0388215D01*
X0048518Y0388171D01*
X0048470Y0388129D01*
X0048421Y0388091D01*
X0048369Y0388056D01*
X0048315Y0388024D01*
X0048259Y0387995D01*
X0048201Y0387970D01*
X0048142Y0387949D01*
X0048082Y0387931D01*
X0048020Y0387918D01*
X0047958Y0387908D01*
X0047896Y0387902D01*
X0047833Y0387900D01*
X0047770Y0387902D01*
X0047708Y0387908D01*
X0047646Y0387918D01*
X0047584Y0387931D01*
X0047524Y0387949D01*
X0047465Y0387970D01*
X0047407Y0387995D01*
X0047351Y0388024D01*
X0047297Y0388056D01*
X0047245Y0388091D01*
X0047196Y0388129D01*
X0047148Y0388171D01*
X0047104Y0388215D01*
X0047062Y0388263D01*
X0047024Y0388312D01*
X0046989Y0388364D01*
X0046957Y0388418D01*
X0046928Y0388474D01*
X0046903Y0388532D01*
X0046882Y0388591D01*
X0046864Y0388651D01*
X0046851Y0388713D01*
X0046841Y0388775D01*
X0046835Y0388837D01*
X0046833Y0388900D01*
X0046833Y0393900D02*
X0046835Y0393963D01*
X0046841Y0394025D01*
X0046851Y0394087D01*
X0046864Y0394149D01*
X0046882Y0394209D01*
X0046903Y0394268D01*
X0046928Y0394326D01*
X0046957Y0394382D01*
X0046989Y0394436D01*
X0047024Y0394488D01*
X0047062Y0394537D01*
X0047104Y0394585D01*
X0047148Y0394629D01*
X0047196Y0394671D01*
X0047245Y0394709D01*
X0047297Y0394744D01*
X0047351Y0394776D01*
X0047407Y0394805D01*
X0047465Y0394830D01*
X0047524Y0394851D01*
X0047584Y0394869D01*
X0047646Y0394882D01*
X0047708Y0394892D01*
X0047770Y0394898D01*
X0047833Y0394900D01*
X0047896Y0394898D01*
X0047958Y0394892D01*
X0048020Y0394882D01*
X0048082Y0394869D01*
X0048142Y0394851D01*
X0048201Y0394830D01*
X0048259Y0394805D01*
X0048315Y0394776D01*
X0048369Y0394744D01*
X0048421Y0394709D01*
X0048470Y0394671D01*
X0048518Y0394629D01*
X0048562Y0394585D01*
X0048604Y0394537D01*
X0048642Y0394488D01*
X0048677Y0394436D01*
X0048709Y0394382D01*
X0048738Y0394326D01*
X0048763Y0394268D01*
X0048784Y0394209D01*
X0048802Y0394149D01*
X0048815Y0394087D01*
X0048825Y0394025D01*
X0048831Y0393963D01*
X0048833Y0393900D01*
X0048831Y0393837D01*
X0048825Y0393775D01*
X0048815Y0393713D01*
X0048802Y0393651D01*
X0048784Y0393591D01*
X0048763Y0393532D01*
X0048738Y0393474D01*
X0048709Y0393418D01*
X0048677Y0393364D01*
X0048642Y0393312D01*
X0048604Y0393263D01*
X0048562Y0393215D01*
X0048518Y0393171D01*
X0048470Y0393129D01*
X0048421Y0393091D01*
X0048369Y0393056D01*
X0048315Y0393024D01*
X0048259Y0392995D01*
X0048201Y0392970D01*
X0048142Y0392949D01*
X0048082Y0392931D01*
X0048020Y0392918D01*
X0047958Y0392908D01*
X0047896Y0392902D01*
X0047833Y0392900D01*
X0047770Y0392902D01*
X0047708Y0392908D01*
X0047646Y0392918D01*
X0047584Y0392931D01*
X0047524Y0392949D01*
X0047465Y0392970D01*
X0047407Y0392995D01*
X0047351Y0393024D01*
X0047297Y0393056D01*
X0047245Y0393091D01*
X0047196Y0393129D01*
X0047148Y0393171D01*
X0047104Y0393215D01*
X0047062Y0393263D01*
X0047024Y0393312D01*
X0046989Y0393364D01*
X0046957Y0393418D01*
X0046928Y0393474D01*
X0046903Y0393532D01*
X0046882Y0393591D01*
X0046864Y0393651D01*
X0046851Y0393713D01*
X0046841Y0393775D01*
X0046835Y0393837D01*
X0046833Y0393900D01*
X0046833Y0398900D02*
X0046835Y0398963D01*
X0046841Y0399025D01*
X0046851Y0399087D01*
X0046864Y0399149D01*
X0046882Y0399209D01*
X0046903Y0399268D01*
X0046928Y0399326D01*
X0046957Y0399382D01*
X0046989Y0399436D01*
X0047024Y0399488D01*
X0047062Y0399537D01*
X0047104Y0399585D01*
X0047148Y0399629D01*
X0047196Y0399671D01*
X0047245Y0399709D01*
X0047297Y0399744D01*
X0047351Y0399776D01*
X0047407Y0399805D01*
X0047465Y0399830D01*
X0047524Y0399851D01*
X0047584Y0399869D01*
X0047646Y0399882D01*
X0047708Y0399892D01*
X0047770Y0399898D01*
X0047833Y0399900D01*
X0047896Y0399898D01*
X0047958Y0399892D01*
X0048020Y0399882D01*
X0048082Y0399869D01*
X0048142Y0399851D01*
X0048201Y0399830D01*
X0048259Y0399805D01*
X0048315Y0399776D01*
X0048369Y0399744D01*
X0048421Y0399709D01*
X0048470Y0399671D01*
X0048518Y0399629D01*
X0048562Y0399585D01*
X0048604Y0399537D01*
X0048642Y0399488D01*
X0048677Y0399436D01*
X0048709Y0399382D01*
X0048738Y0399326D01*
X0048763Y0399268D01*
X0048784Y0399209D01*
X0048802Y0399149D01*
X0048815Y0399087D01*
X0048825Y0399025D01*
X0048831Y0398963D01*
X0048833Y0398900D01*
X0048831Y0398837D01*
X0048825Y0398775D01*
X0048815Y0398713D01*
X0048802Y0398651D01*
X0048784Y0398591D01*
X0048763Y0398532D01*
X0048738Y0398474D01*
X0048709Y0398418D01*
X0048677Y0398364D01*
X0048642Y0398312D01*
X0048604Y0398263D01*
X0048562Y0398215D01*
X0048518Y0398171D01*
X0048470Y0398129D01*
X0048421Y0398091D01*
X0048369Y0398056D01*
X0048315Y0398024D01*
X0048259Y0397995D01*
X0048201Y0397970D01*
X0048142Y0397949D01*
X0048082Y0397931D01*
X0048020Y0397918D01*
X0047958Y0397908D01*
X0047896Y0397902D01*
X0047833Y0397900D01*
X0047770Y0397902D01*
X0047708Y0397908D01*
X0047646Y0397918D01*
X0047584Y0397931D01*
X0047524Y0397949D01*
X0047465Y0397970D01*
X0047407Y0397995D01*
X0047351Y0398024D01*
X0047297Y0398056D01*
X0047245Y0398091D01*
X0047196Y0398129D01*
X0047148Y0398171D01*
X0047104Y0398215D01*
X0047062Y0398263D01*
X0047024Y0398312D01*
X0046989Y0398364D01*
X0046957Y0398418D01*
X0046928Y0398474D01*
X0046903Y0398532D01*
X0046882Y0398591D01*
X0046864Y0398651D01*
X0046851Y0398713D01*
X0046841Y0398775D01*
X0046835Y0398837D01*
X0046833Y0398900D01*
X0046833Y0403900D02*
X0046835Y0403963D01*
X0046841Y0404025D01*
X0046851Y0404087D01*
X0046864Y0404149D01*
X0046882Y0404209D01*
X0046903Y0404268D01*
X0046928Y0404326D01*
X0046957Y0404382D01*
X0046989Y0404436D01*
X0047024Y0404488D01*
X0047062Y0404537D01*
X0047104Y0404585D01*
X0047148Y0404629D01*
X0047196Y0404671D01*
X0047245Y0404709D01*
X0047297Y0404744D01*
X0047351Y0404776D01*
X0047407Y0404805D01*
X0047465Y0404830D01*
X0047524Y0404851D01*
X0047584Y0404869D01*
X0047646Y0404882D01*
X0047708Y0404892D01*
X0047770Y0404898D01*
X0047833Y0404900D01*
X0047896Y0404898D01*
X0047958Y0404892D01*
X0048020Y0404882D01*
X0048082Y0404869D01*
X0048142Y0404851D01*
X0048201Y0404830D01*
X0048259Y0404805D01*
X0048315Y0404776D01*
X0048369Y0404744D01*
X0048421Y0404709D01*
X0048470Y0404671D01*
X0048518Y0404629D01*
X0048562Y0404585D01*
X0048604Y0404537D01*
X0048642Y0404488D01*
X0048677Y0404436D01*
X0048709Y0404382D01*
X0048738Y0404326D01*
X0048763Y0404268D01*
X0048784Y0404209D01*
X0048802Y0404149D01*
X0048815Y0404087D01*
X0048825Y0404025D01*
X0048831Y0403963D01*
X0048833Y0403900D01*
X0048831Y0403837D01*
X0048825Y0403775D01*
X0048815Y0403713D01*
X0048802Y0403651D01*
X0048784Y0403591D01*
X0048763Y0403532D01*
X0048738Y0403474D01*
X0048709Y0403418D01*
X0048677Y0403364D01*
X0048642Y0403312D01*
X0048604Y0403263D01*
X0048562Y0403215D01*
X0048518Y0403171D01*
X0048470Y0403129D01*
X0048421Y0403091D01*
X0048369Y0403056D01*
X0048315Y0403024D01*
X0048259Y0402995D01*
X0048201Y0402970D01*
X0048142Y0402949D01*
X0048082Y0402931D01*
X0048020Y0402918D01*
X0047958Y0402908D01*
X0047896Y0402902D01*
X0047833Y0402900D01*
X0047770Y0402902D01*
X0047708Y0402908D01*
X0047646Y0402918D01*
X0047584Y0402931D01*
X0047524Y0402949D01*
X0047465Y0402970D01*
X0047407Y0402995D01*
X0047351Y0403024D01*
X0047297Y0403056D01*
X0047245Y0403091D01*
X0047196Y0403129D01*
X0047148Y0403171D01*
X0047104Y0403215D01*
X0047062Y0403263D01*
X0047024Y0403312D01*
X0046989Y0403364D01*
X0046957Y0403418D01*
X0046928Y0403474D01*
X0046903Y0403532D01*
X0046882Y0403591D01*
X0046864Y0403651D01*
X0046851Y0403713D01*
X0046841Y0403775D01*
X0046835Y0403837D01*
X0046833Y0403900D01*
X0059444Y0489182D02*
X0059446Y0489245D01*
X0059452Y0489307D01*
X0059462Y0489369D01*
X0059475Y0489431D01*
X0059493Y0489491D01*
X0059514Y0489550D01*
X0059539Y0489608D01*
X0059568Y0489664D01*
X0059600Y0489718D01*
X0059635Y0489770D01*
X0059673Y0489819D01*
X0059715Y0489867D01*
X0059759Y0489911D01*
X0059807Y0489953D01*
X0059856Y0489991D01*
X0059908Y0490026D01*
X0059962Y0490058D01*
X0060018Y0490087D01*
X0060076Y0490112D01*
X0060135Y0490133D01*
X0060195Y0490151D01*
X0060257Y0490164D01*
X0060319Y0490174D01*
X0060381Y0490180D01*
X0060444Y0490182D01*
X0060507Y0490180D01*
X0060569Y0490174D01*
X0060631Y0490164D01*
X0060693Y0490151D01*
X0060753Y0490133D01*
X0060812Y0490112D01*
X0060870Y0490087D01*
X0060926Y0490058D01*
X0060980Y0490026D01*
X0061032Y0489991D01*
X0061081Y0489953D01*
X0061129Y0489911D01*
X0061173Y0489867D01*
X0061215Y0489819D01*
X0061253Y0489770D01*
X0061288Y0489718D01*
X0061320Y0489664D01*
X0061349Y0489608D01*
X0061374Y0489550D01*
X0061395Y0489491D01*
X0061413Y0489431D01*
X0061426Y0489369D01*
X0061436Y0489307D01*
X0061442Y0489245D01*
X0061444Y0489182D01*
X0061442Y0489119D01*
X0061436Y0489057D01*
X0061426Y0488995D01*
X0061413Y0488933D01*
X0061395Y0488873D01*
X0061374Y0488814D01*
X0061349Y0488756D01*
X0061320Y0488700D01*
X0061288Y0488646D01*
X0061253Y0488594D01*
X0061215Y0488545D01*
X0061173Y0488497D01*
X0061129Y0488453D01*
X0061081Y0488411D01*
X0061032Y0488373D01*
X0060980Y0488338D01*
X0060926Y0488306D01*
X0060870Y0488277D01*
X0060812Y0488252D01*
X0060753Y0488231D01*
X0060693Y0488213D01*
X0060631Y0488200D01*
X0060569Y0488190D01*
X0060507Y0488184D01*
X0060444Y0488182D01*
X0060381Y0488184D01*
X0060319Y0488190D01*
X0060257Y0488200D01*
X0060195Y0488213D01*
X0060135Y0488231D01*
X0060076Y0488252D01*
X0060018Y0488277D01*
X0059962Y0488306D01*
X0059908Y0488338D01*
X0059856Y0488373D01*
X0059807Y0488411D01*
X0059759Y0488453D01*
X0059715Y0488497D01*
X0059673Y0488545D01*
X0059635Y0488594D01*
X0059600Y0488646D01*
X0059568Y0488700D01*
X0059539Y0488756D01*
X0059514Y0488814D01*
X0059493Y0488873D01*
X0059475Y0488933D01*
X0059462Y0488995D01*
X0059452Y0489057D01*
X0059446Y0489119D01*
X0059444Y0489182D01*
X0062980Y0492718D02*
X0062982Y0492781D01*
X0062988Y0492843D01*
X0062998Y0492905D01*
X0063011Y0492967D01*
X0063029Y0493027D01*
X0063050Y0493086D01*
X0063075Y0493144D01*
X0063104Y0493200D01*
X0063136Y0493254D01*
X0063171Y0493306D01*
X0063209Y0493355D01*
X0063251Y0493403D01*
X0063295Y0493447D01*
X0063343Y0493489D01*
X0063392Y0493527D01*
X0063444Y0493562D01*
X0063498Y0493594D01*
X0063554Y0493623D01*
X0063612Y0493648D01*
X0063671Y0493669D01*
X0063731Y0493687D01*
X0063793Y0493700D01*
X0063855Y0493710D01*
X0063917Y0493716D01*
X0063980Y0493718D01*
X0064043Y0493716D01*
X0064105Y0493710D01*
X0064167Y0493700D01*
X0064229Y0493687D01*
X0064289Y0493669D01*
X0064348Y0493648D01*
X0064406Y0493623D01*
X0064462Y0493594D01*
X0064516Y0493562D01*
X0064568Y0493527D01*
X0064617Y0493489D01*
X0064665Y0493447D01*
X0064709Y0493403D01*
X0064751Y0493355D01*
X0064789Y0493306D01*
X0064824Y0493254D01*
X0064856Y0493200D01*
X0064885Y0493144D01*
X0064910Y0493086D01*
X0064931Y0493027D01*
X0064949Y0492967D01*
X0064962Y0492905D01*
X0064972Y0492843D01*
X0064978Y0492781D01*
X0064980Y0492718D01*
X0064978Y0492655D01*
X0064972Y0492593D01*
X0064962Y0492531D01*
X0064949Y0492469D01*
X0064931Y0492409D01*
X0064910Y0492350D01*
X0064885Y0492292D01*
X0064856Y0492236D01*
X0064824Y0492182D01*
X0064789Y0492130D01*
X0064751Y0492081D01*
X0064709Y0492033D01*
X0064665Y0491989D01*
X0064617Y0491947D01*
X0064568Y0491909D01*
X0064516Y0491874D01*
X0064462Y0491842D01*
X0064406Y0491813D01*
X0064348Y0491788D01*
X0064289Y0491767D01*
X0064229Y0491749D01*
X0064167Y0491736D01*
X0064105Y0491726D01*
X0064043Y0491720D01*
X0063980Y0491718D01*
X0063917Y0491720D01*
X0063855Y0491726D01*
X0063793Y0491736D01*
X0063731Y0491749D01*
X0063671Y0491767D01*
X0063612Y0491788D01*
X0063554Y0491813D01*
X0063498Y0491842D01*
X0063444Y0491874D01*
X0063392Y0491909D01*
X0063343Y0491947D01*
X0063295Y0491989D01*
X0063251Y0492033D01*
X0063209Y0492081D01*
X0063171Y0492130D01*
X0063136Y0492182D01*
X0063104Y0492236D01*
X0063075Y0492292D01*
X0063050Y0492350D01*
X0063029Y0492409D01*
X0063011Y0492469D01*
X0062998Y0492531D01*
X0062988Y0492593D01*
X0062982Y0492655D01*
X0062980Y0492718D01*
X0066515Y0496254D02*
X0066517Y0496317D01*
X0066523Y0496379D01*
X0066533Y0496441D01*
X0066546Y0496503D01*
X0066564Y0496563D01*
X0066585Y0496622D01*
X0066610Y0496680D01*
X0066639Y0496736D01*
X0066671Y0496790D01*
X0066706Y0496842D01*
X0066744Y0496891D01*
X0066786Y0496939D01*
X0066830Y0496983D01*
X0066878Y0497025D01*
X0066927Y0497063D01*
X0066979Y0497098D01*
X0067033Y0497130D01*
X0067089Y0497159D01*
X0067147Y0497184D01*
X0067206Y0497205D01*
X0067266Y0497223D01*
X0067328Y0497236D01*
X0067390Y0497246D01*
X0067452Y0497252D01*
X0067515Y0497254D01*
X0067578Y0497252D01*
X0067640Y0497246D01*
X0067702Y0497236D01*
X0067764Y0497223D01*
X0067824Y0497205D01*
X0067883Y0497184D01*
X0067941Y0497159D01*
X0067997Y0497130D01*
X0068051Y0497098D01*
X0068103Y0497063D01*
X0068152Y0497025D01*
X0068200Y0496983D01*
X0068244Y0496939D01*
X0068286Y0496891D01*
X0068324Y0496842D01*
X0068359Y0496790D01*
X0068391Y0496736D01*
X0068420Y0496680D01*
X0068445Y0496622D01*
X0068466Y0496563D01*
X0068484Y0496503D01*
X0068497Y0496441D01*
X0068507Y0496379D01*
X0068513Y0496317D01*
X0068515Y0496254D01*
X0068513Y0496191D01*
X0068507Y0496129D01*
X0068497Y0496067D01*
X0068484Y0496005D01*
X0068466Y0495945D01*
X0068445Y0495886D01*
X0068420Y0495828D01*
X0068391Y0495772D01*
X0068359Y0495718D01*
X0068324Y0495666D01*
X0068286Y0495617D01*
X0068244Y0495569D01*
X0068200Y0495525D01*
X0068152Y0495483D01*
X0068103Y0495445D01*
X0068051Y0495410D01*
X0067997Y0495378D01*
X0067941Y0495349D01*
X0067883Y0495324D01*
X0067824Y0495303D01*
X0067764Y0495285D01*
X0067702Y0495272D01*
X0067640Y0495262D01*
X0067578Y0495256D01*
X0067515Y0495254D01*
X0067452Y0495256D01*
X0067390Y0495262D01*
X0067328Y0495272D01*
X0067266Y0495285D01*
X0067206Y0495303D01*
X0067147Y0495324D01*
X0067089Y0495349D01*
X0067033Y0495378D01*
X0066979Y0495410D01*
X0066927Y0495445D01*
X0066878Y0495483D01*
X0066830Y0495525D01*
X0066786Y0495569D01*
X0066744Y0495617D01*
X0066706Y0495666D01*
X0066671Y0495718D01*
X0066639Y0495772D01*
X0066610Y0495828D01*
X0066585Y0495886D01*
X0066564Y0495945D01*
X0066546Y0496005D01*
X0066533Y0496067D01*
X0066523Y0496129D01*
X0066517Y0496191D01*
X0066515Y0496254D01*
X0070051Y0499789D02*
X0070053Y0499852D01*
X0070059Y0499914D01*
X0070069Y0499976D01*
X0070082Y0500038D01*
X0070100Y0500098D01*
X0070121Y0500157D01*
X0070146Y0500215D01*
X0070175Y0500271D01*
X0070207Y0500325D01*
X0070242Y0500377D01*
X0070280Y0500426D01*
X0070322Y0500474D01*
X0070366Y0500518D01*
X0070414Y0500560D01*
X0070463Y0500598D01*
X0070515Y0500633D01*
X0070569Y0500665D01*
X0070625Y0500694D01*
X0070683Y0500719D01*
X0070742Y0500740D01*
X0070802Y0500758D01*
X0070864Y0500771D01*
X0070926Y0500781D01*
X0070988Y0500787D01*
X0071051Y0500789D01*
X0071114Y0500787D01*
X0071176Y0500781D01*
X0071238Y0500771D01*
X0071300Y0500758D01*
X0071360Y0500740D01*
X0071419Y0500719D01*
X0071477Y0500694D01*
X0071533Y0500665D01*
X0071587Y0500633D01*
X0071639Y0500598D01*
X0071688Y0500560D01*
X0071736Y0500518D01*
X0071780Y0500474D01*
X0071822Y0500426D01*
X0071860Y0500377D01*
X0071895Y0500325D01*
X0071927Y0500271D01*
X0071956Y0500215D01*
X0071981Y0500157D01*
X0072002Y0500098D01*
X0072020Y0500038D01*
X0072033Y0499976D01*
X0072043Y0499914D01*
X0072049Y0499852D01*
X0072051Y0499789D01*
X0072049Y0499726D01*
X0072043Y0499664D01*
X0072033Y0499602D01*
X0072020Y0499540D01*
X0072002Y0499480D01*
X0071981Y0499421D01*
X0071956Y0499363D01*
X0071927Y0499307D01*
X0071895Y0499253D01*
X0071860Y0499201D01*
X0071822Y0499152D01*
X0071780Y0499104D01*
X0071736Y0499060D01*
X0071688Y0499018D01*
X0071639Y0498980D01*
X0071587Y0498945D01*
X0071533Y0498913D01*
X0071477Y0498884D01*
X0071419Y0498859D01*
X0071360Y0498838D01*
X0071300Y0498820D01*
X0071238Y0498807D01*
X0071176Y0498797D01*
X0071114Y0498791D01*
X0071051Y0498789D01*
X0070988Y0498791D01*
X0070926Y0498797D01*
X0070864Y0498807D01*
X0070802Y0498820D01*
X0070742Y0498838D01*
X0070683Y0498859D01*
X0070625Y0498884D01*
X0070569Y0498913D01*
X0070515Y0498945D01*
X0070463Y0498980D01*
X0070414Y0499018D01*
X0070366Y0499060D01*
X0070322Y0499104D01*
X0070280Y0499152D01*
X0070242Y0499201D01*
X0070207Y0499253D01*
X0070175Y0499307D01*
X0070146Y0499363D01*
X0070121Y0499421D01*
X0070100Y0499480D01*
X0070082Y0499540D01*
X0070069Y0499602D01*
X0070059Y0499664D01*
X0070053Y0499726D01*
X0070051Y0499789D01*
X0073586Y0503325D02*
X0073588Y0503388D01*
X0073594Y0503450D01*
X0073604Y0503512D01*
X0073617Y0503574D01*
X0073635Y0503634D01*
X0073656Y0503693D01*
X0073681Y0503751D01*
X0073710Y0503807D01*
X0073742Y0503861D01*
X0073777Y0503913D01*
X0073815Y0503962D01*
X0073857Y0504010D01*
X0073901Y0504054D01*
X0073949Y0504096D01*
X0073998Y0504134D01*
X0074050Y0504169D01*
X0074104Y0504201D01*
X0074160Y0504230D01*
X0074218Y0504255D01*
X0074277Y0504276D01*
X0074337Y0504294D01*
X0074399Y0504307D01*
X0074461Y0504317D01*
X0074523Y0504323D01*
X0074586Y0504325D01*
X0074649Y0504323D01*
X0074711Y0504317D01*
X0074773Y0504307D01*
X0074835Y0504294D01*
X0074895Y0504276D01*
X0074954Y0504255D01*
X0075012Y0504230D01*
X0075068Y0504201D01*
X0075122Y0504169D01*
X0075174Y0504134D01*
X0075223Y0504096D01*
X0075271Y0504054D01*
X0075315Y0504010D01*
X0075357Y0503962D01*
X0075395Y0503913D01*
X0075430Y0503861D01*
X0075462Y0503807D01*
X0075491Y0503751D01*
X0075516Y0503693D01*
X0075537Y0503634D01*
X0075555Y0503574D01*
X0075568Y0503512D01*
X0075578Y0503450D01*
X0075584Y0503388D01*
X0075586Y0503325D01*
X0075584Y0503262D01*
X0075578Y0503200D01*
X0075568Y0503138D01*
X0075555Y0503076D01*
X0075537Y0503016D01*
X0075516Y0502957D01*
X0075491Y0502899D01*
X0075462Y0502843D01*
X0075430Y0502789D01*
X0075395Y0502737D01*
X0075357Y0502688D01*
X0075315Y0502640D01*
X0075271Y0502596D01*
X0075223Y0502554D01*
X0075174Y0502516D01*
X0075122Y0502481D01*
X0075068Y0502449D01*
X0075012Y0502420D01*
X0074954Y0502395D01*
X0074895Y0502374D01*
X0074835Y0502356D01*
X0074773Y0502343D01*
X0074711Y0502333D01*
X0074649Y0502327D01*
X0074586Y0502325D01*
X0074523Y0502327D01*
X0074461Y0502333D01*
X0074399Y0502343D01*
X0074337Y0502356D01*
X0074277Y0502374D01*
X0074218Y0502395D01*
X0074160Y0502420D01*
X0074104Y0502449D01*
X0074050Y0502481D01*
X0073998Y0502516D01*
X0073949Y0502554D01*
X0073901Y0502596D01*
X0073857Y0502640D01*
X0073815Y0502688D01*
X0073777Y0502737D01*
X0073742Y0502789D01*
X0073710Y0502843D01*
X0073681Y0502899D01*
X0073656Y0502957D01*
X0073635Y0503016D01*
X0073617Y0503076D01*
X0073604Y0503138D01*
X0073594Y0503200D01*
X0073588Y0503262D01*
X0073586Y0503325D01*
X0077122Y0506860D02*
X0077124Y0506923D01*
X0077130Y0506985D01*
X0077140Y0507047D01*
X0077153Y0507109D01*
X0077171Y0507169D01*
X0077192Y0507228D01*
X0077217Y0507286D01*
X0077246Y0507342D01*
X0077278Y0507396D01*
X0077313Y0507448D01*
X0077351Y0507497D01*
X0077393Y0507545D01*
X0077437Y0507589D01*
X0077485Y0507631D01*
X0077534Y0507669D01*
X0077586Y0507704D01*
X0077640Y0507736D01*
X0077696Y0507765D01*
X0077754Y0507790D01*
X0077813Y0507811D01*
X0077873Y0507829D01*
X0077935Y0507842D01*
X0077997Y0507852D01*
X0078059Y0507858D01*
X0078122Y0507860D01*
X0078185Y0507858D01*
X0078247Y0507852D01*
X0078309Y0507842D01*
X0078371Y0507829D01*
X0078431Y0507811D01*
X0078490Y0507790D01*
X0078548Y0507765D01*
X0078604Y0507736D01*
X0078658Y0507704D01*
X0078710Y0507669D01*
X0078759Y0507631D01*
X0078807Y0507589D01*
X0078851Y0507545D01*
X0078893Y0507497D01*
X0078931Y0507448D01*
X0078966Y0507396D01*
X0078998Y0507342D01*
X0079027Y0507286D01*
X0079052Y0507228D01*
X0079073Y0507169D01*
X0079091Y0507109D01*
X0079104Y0507047D01*
X0079114Y0506985D01*
X0079120Y0506923D01*
X0079122Y0506860D01*
X0079120Y0506797D01*
X0079114Y0506735D01*
X0079104Y0506673D01*
X0079091Y0506611D01*
X0079073Y0506551D01*
X0079052Y0506492D01*
X0079027Y0506434D01*
X0078998Y0506378D01*
X0078966Y0506324D01*
X0078931Y0506272D01*
X0078893Y0506223D01*
X0078851Y0506175D01*
X0078807Y0506131D01*
X0078759Y0506089D01*
X0078710Y0506051D01*
X0078658Y0506016D01*
X0078604Y0505984D01*
X0078548Y0505955D01*
X0078490Y0505930D01*
X0078431Y0505909D01*
X0078371Y0505891D01*
X0078309Y0505878D01*
X0078247Y0505868D01*
X0078185Y0505862D01*
X0078122Y0505860D01*
X0078059Y0505862D01*
X0077997Y0505868D01*
X0077935Y0505878D01*
X0077873Y0505891D01*
X0077813Y0505909D01*
X0077754Y0505930D01*
X0077696Y0505955D01*
X0077640Y0505984D01*
X0077586Y0506016D01*
X0077534Y0506051D01*
X0077485Y0506089D01*
X0077437Y0506131D01*
X0077393Y0506175D01*
X0077351Y0506223D01*
X0077313Y0506272D01*
X0077278Y0506324D01*
X0077246Y0506378D01*
X0077217Y0506434D01*
X0077192Y0506492D01*
X0077171Y0506551D01*
X0077153Y0506611D01*
X0077140Y0506673D01*
X0077130Y0506735D01*
X0077124Y0506797D01*
X0077122Y0506860D01*
X0162333Y0519400D02*
X0162335Y0519463D01*
X0162341Y0519525D01*
X0162351Y0519587D01*
X0162364Y0519649D01*
X0162382Y0519709D01*
X0162403Y0519768D01*
X0162428Y0519826D01*
X0162457Y0519882D01*
X0162489Y0519936D01*
X0162524Y0519988D01*
X0162562Y0520037D01*
X0162604Y0520085D01*
X0162648Y0520129D01*
X0162696Y0520171D01*
X0162745Y0520209D01*
X0162797Y0520244D01*
X0162851Y0520276D01*
X0162907Y0520305D01*
X0162965Y0520330D01*
X0163024Y0520351D01*
X0163084Y0520369D01*
X0163146Y0520382D01*
X0163208Y0520392D01*
X0163270Y0520398D01*
X0163333Y0520400D01*
X0163396Y0520398D01*
X0163458Y0520392D01*
X0163520Y0520382D01*
X0163582Y0520369D01*
X0163642Y0520351D01*
X0163701Y0520330D01*
X0163759Y0520305D01*
X0163815Y0520276D01*
X0163869Y0520244D01*
X0163921Y0520209D01*
X0163970Y0520171D01*
X0164018Y0520129D01*
X0164062Y0520085D01*
X0164104Y0520037D01*
X0164142Y0519988D01*
X0164177Y0519936D01*
X0164209Y0519882D01*
X0164238Y0519826D01*
X0164263Y0519768D01*
X0164284Y0519709D01*
X0164302Y0519649D01*
X0164315Y0519587D01*
X0164325Y0519525D01*
X0164331Y0519463D01*
X0164333Y0519400D01*
X0164331Y0519337D01*
X0164325Y0519275D01*
X0164315Y0519213D01*
X0164302Y0519151D01*
X0164284Y0519091D01*
X0164263Y0519032D01*
X0164238Y0518974D01*
X0164209Y0518918D01*
X0164177Y0518864D01*
X0164142Y0518812D01*
X0164104Y0518763D01*
X0164062Y0518715D01*
X0164018Y0518671D01*
X0163970Y0518629D01*
X0163921Y0518591D01*
X0163869Y0518556D01*
X0163815Y0518524D01*
X0163759Y0518495D01*
X0163701Y0518470D01*
X0163642Y0518449D01*
X0163582Y0518431D01*
X0163520Y0518418D01*
X0163458Y0518408D01*
X0163396Y0518402D01*
X0163333Y0518400D01*
X0163270Y0518402D01*
X0163208Y0518408D01*
X0163146Y0518418D01*
X0163084Y0518431D01*
X0163024Y0518449D01*
X0162965Y0518470D01*
X0162907Y0518495D01*
X0162851Y0518524D01*
X0162797Y0518556D01*
X0162745Y0518591D01*
X0162696Y0518629D01*
X0162648Y0518671D01*
X0162604Y0518715D01*
X0162562Y0518763D01*
X0162524Y0518812D01*
X0162489Y0518864D01*
X0162457Y0518918D01*
X0162428Y0518974D01*
X0162403Y0519032D01*
X0162382Y0519091D01*
X0162364Y0519151D01*
X0162351Y0519213D01*
X0162341Y0519275D01*
X0162335Y0519337D01*
X0162333Y0519400D01*
X0167333Y0519400D02*
X0167335Y0519463D01*
X0167341Y0519525D01*
X0167351Y0519587D01*
X0167364Y0519649D01*
X0167382Y0519709D01*
X0167403Y0519768D01*
X0167428Y0519826D01*
X0167457Y0519882D01*
X0167489Y0519936D01*
X0167524Y0519988D01*
X0167562Y0520037D01*
X0167604Y0520085D01*
X0167648Y0520129D01*
X0167696Y0520171D01*
X0167745Y0520209D01*
X0167797Y0520244D01*
X0167851Y0520276D01*
X0167907Y0520305D01*
X0167965Y0520330D01*
X0168024Y0520351D01*
X0168084Y0520369D01*
X0168146Y0520382D01*
X0168208Y0520392D01*
X0168270Y0520398D01*
X0168333Y0520400D01*
X0168396Y0520398D01*
X0168458Y0520392D01*
X0168520Y0520382D01*
X0168582Y0520369D01*
X0168642Y0520351D01*
X0168701Y0520330D01*
X0168759Y0520305D01*
X0168815Y0520276D01*
X0168869Y0520244D01*
X0168921Y0520209D01*
X0168970Y0520171D01*
X0169018Y0520129D01*
X0169062Y0520085D01*
X0169104Y0520037D01*
X0169142Y0519988D01*
X0169177Y0519936D01*
X0169209Y0519882D01*
X0169238Y0519826D01*
X0169263Y0519768D01*
X0169284Y0519709D01*
X0169302Y0519649D01*
X0169315Y0519587D01*
X0169325Y0519525D01*
X0169331Y0519463D01*
X0169333Y0519400D01*
X0169331Y0519337D01*
X0169325Y0519275D01*
X0169315Y0519213D01*
X0169302Y0519151D01*
X0169284Y0519091D01*
X0169263Y0519032D01*
X0169238Y0518974D01*
X0169209Y0518918D01*
X0169177Y0518864D01*
X0169142Y0518812D01*
X0169104Y0518763D01*
X0169062Y0518715D01*
X0169018Y0518671D01*
X0168970Y0518629D01*
X0168921Y0518591D01*
X0168869Y0518556D01*
X0168815Y0518524D01*
X0168759Y0518495D01*
X0168701Y0518470D01*
X0168642Y0518449D01*
X0168582Y0518431D01*
X0168520Y0518418D01*
X0168458Y0518408D01*
X0168396Y0518402D01*
X0168333Y0518400D01*
X0168270Y0518402D01*
X0168208Y0518408D01*
X0168146Y0518418D01*
X0168084Y0518431D01*
X0168024Y0518449D01*
X0167965Y0518470D01*
X0167907Y0518495D01*
X0167851Y0518524D01*
X0167797Y0518556D01*
X0167745Y0518591D01*
X0167696Y0518629D01*
X0167648Y0518671D01*
X0167604Y0518715D01*
X0167562Y0518763D01*
X0167524Y0518812D01*
X0167489Y0518864D01*
X0167457Y0518918D01*
X0167428Y0518974D01*
X0167403Y0519032D01*
X0167382Y0519091D01*
X0167364Y0519151D01*
X0167351Y0519213D01*
X0167341Y0519275D01*
X0167335Y0519337D01*
X0167333Y0519400D01*
X0172333Y0519400D02*
X0172335Y0519463D01*
X0172341Y0519525D01*
X0172351Y0519587D01*
X0172364Y0519649D01*
X0172382Y0519709D01*
X0172403Y0519768D01*
X0172428Y0519826D01*
X0172457Y0519882D01*
X0172489Y0519936D01*
X0172524Y0519988D01*
X0172562Y0520037D01*
X0172604Y0520085D01*
X0172648Y0520129D01*
X0172696Y0520171D01*
X0172745Y0520209D01*
X0172797Y0520244D01*
X0172851Y0520276D01*
X0172907Y0520305D01*
X0172965Y0520330D01*
X0173024Y0520351D01*
X0173084Y0520369D01*
X0173146Y0520382D01*
X0173208Y0520392D01*
X0173270Y0520398D01*
X0173333Y0520400D01*
X0173396Y0520398D01*
X0173458Y0520392D01*
X0173520Y0520382D01*
X0173582Y0520369D01*
X0173642Y0520351D01*
X0173701Y0520330D01*
X0173759Y0520305D01*
X0173815Y0520276D01*
X0173869Y0520244D01*
X0173921Y0520209D01*
X0173970Y0520171D01*
X0174018Y0520129D01*
X0174062Y0520085D01*
X0174104Y0520037D01*
X0174142Y0519988D01*
X0174177Y0519936D01*
X0174209Y0519882D01*
X0174238Y0519826D01*
X0174263Y0519768D01*
X0174284Y0519709D01*
X0174302Y0519649D01*
X0174315Y0519587D01*
X0174325Y0519525D01*
X0174331Y0519463D01*
X0174333Y0519400D01*
X0174331Y0519337D01*
X0174325Y0519275D01*
X0174315Y0519213D01*
X0174302Y0519151D01*
X0174284Y0519091D01*
X0174263Y0519032D01*
X0174238Y0518974D01*
X0174209Y0518918D01*
X0174177Y0518864D01*
X0174142Y0518812D01*
X0174104Y0518763D01*
X0174062Y0518715D01*
X0174018Y0518671D01*
X0173970Y0518629D01*
X0173921Y0518591D01*
X0173869Y0518556D01*
X0173815Y0518524D01*
X0173759Y0518495D01*
X0173701Y0518470D01*
X0173642Y0518449D01*
X0173582Y0518431D01*
X0173520Y0518418D01*
X0173458Y0518408D01*
X0173396Y0518402D01*
X0173333Y0518400D01*
X0173270Y0518402D01*
X0173208Y0518408D01*
X0173146Y0518418D01*
X0173084Y0518431D01*
X0173024Y0518449D01*
X0172965Y0518470D01*
X0172907Y0518495D01*
X0172851Y0518524D01*
X0172797Y0518556D01*
X0172745Y0518591D01*
X0172696Y0518629D01*
X0172648Y0518671D01*
X0172604Y0518715D01*
X0172562Y0518763D01*
X0172524Y0518812D01*
X0172489Y0518864D01*
X0172457Y0518918D01*
X0172428Y0518974D01*
X0172403Y0519032D01*
X0172382Y0519091D01*
X0172364Y0519151D01*
X0172351Y0519213D01*
X0172341Y0519275D01*
X0172335Y0519337D01*
X0172333Y0519400D01*
X0177333Y0519400D02*
X0177335Y0519463D01*
X0177341Y0519525D01*
X0177351Y0519587D01*
X0177364Y0519649D01*
X0177382Y0519709D01*
X0177403Y0519768D01*
X0177428Y0519826D01*
X0177457Y0519882D01*
X0177489Y0519936D01*
X0177524Y0519988D01*
X0177562Y0520037D01*
X0177604Y0520085D01*
X0177648Y0520129D01*
X0177696Y0520171D01*
X0177745Y0520209D01*
X0177797Y0520244D01*
X0177851Y0520276D01*
X0177907Y0520305D01*
X0177965Y0520330D01*
X0178024Y0520351D01*
X0178084Y0520369D01*
X0178146Y0520382D01*
X0178208Y0520392D01*
X0178270Y0520398D01*
X0178333Y0520400D01*
X0178396Y0520398D01*
X0178458Y0520392D01*
X0178520Y0520382D01*
X0178582Y0520369D01*
X0178642Y0520351D01*
X0178701Y0520330D01*
X0178759Y0520305D01*
X0178815Y0520276D01*
X0178869Y0520244D01*
X0178921Y0520209D01*
X0178970Y0520171D01*
X0179018Y0520129D01*
X0179062Y0520085D01*
X0179104Y0520037D01*
X0179142Y0519988D01*
X0179177Y0519936D01*
X0179209Y0519882D01*
X0179238Y0519826D01*
X0179263Y0519768D01*
X0179284Y0519709D01*
X0179302Y0519649D01*
X0179315Y0519587D01*
X0179325Y0519525D01*
X0179331Y0519463D01*
X0179333Y0519400D01*
X0179331Y0519337D01*
X0179325Y0519275D01*
X0179315Y0519213D01*
X0179302Y0519151D01*
X0179284Y0519091D01*
X0179263Y0519032D01*
X0179238Y0518974D01*
X0179209Y0518918D01*
X0179177Y0518864D01*
X0179142Y0518812D01*
X0179104Y0518763D01*
X0179062Y0518715D01*
X0179018Y0518671D01*
X0178970Y0518629D01*
X0178921Y0518591D01*
X0178869Y0518556D01*
X0178815Y0518524D01*
X0178759Y0518495D01*
X0178701Y0518470D01*
X0178642Y0518449D01*
X0178582Y0518431D01*
X0178520Y0518418D01*
X0178458Y0518408D01*
X0178396Y0518402D01*
X0178333Y0518400D01*
X0178270Y0518402D01*
X0178208Y0518408D01*
X0178146Y0518418D01*
X0178084Y0518431D01*
X0178024Y0518449D01*
X0177965Y0518470D01*
X0177907Y0518495D01*
X0177851Y0518524D01*
X0177797Y0518556D01*
X0177745Y0518591D01*
X0177696Y0518629D01*
X0177648Y0518671D01*
X0177604Y0518715D01*
X0177562Y0518763D01*
X0177524Y0518812D01*
X0177489Y0518864D01*
X0177457Y0518918D01*
X0177428Y0518974D01*
X0177403Y0519032D01*
X0177382Y0519091D01*
X0177364Y0519151D01*
X0177351Y0519213D01*
X0177341Y0519275D01*
X0177335Y0519337D01*
X0177333Y0519400D01*
X0182333Y0519400D02*
X0182335Y0519463D01*
X0182341Y0519525D01*
X0182351Y0519587D01*
X0182364Y0519649D01*
X0182382Y0519709D01*
X0182403Y0519768D01*
X0182428Y0519826D01*
X0182457Y0519882D01*
X0182489Y0519936D01*
X0182524Y0519988D01*
X0182562Y0520037D01*
X0182604Y0520085D01*
X0182648Y0520129D01*
X0182696Y0520171D01*
X0182745Y0520209D01*
X0182797Y0520244D01*
X0182851Y0520276D01*
X0182907Y0520305D01*
X0182965Y0520330D01*
X0183024Y0520351D01*
X0183084Y0520369D01*
X0183146Y0520382D01*
X0183208Y0520392D01*
X0183270Y0520398D01*
X0183333Y0520400D01*
X0183396Y0520398D01*
X0183458Y0520392D01*
X0183520Y0520382D01*
X0183582Y0520369D01*
X0183642Y0520351D01*
X0183701Y0520330D01*
X0183759Y0520305D01*
X0183815Y0520276D01*
X0183869Y0520244D01*
X0183921Y0520209D01*
X0183970Y0520171D01*
X0184018Y0520129D01*
X0184062Y0520085D01*
X0184104Y0520037D01*
X0184142Y0519988D01*
X0184177Y0519936D01*
X0184209Y0519882D01*
X0184238Y0519826D01*
X0184263Y0519768D01*
X0184284Y0519709D01*
X0184302Y0519649D01*
X0184315Y0519587D01*
X0184325Y0519525D01*
X0184331Y0519463D01*
X0184333Y0519400D01*
X0184331Y0519337D01*
X0184325Y0519275D01*
X0184315Y0519213D01*
X0184302Y0519151D01*
X0184284Y0519091D01*
X0184263Y0519032D01*
X0184238Y0518974D01*
X0184209Y0518918D01*
X0184177Y0518864D01*
X0184142Y0518812D01*
X0184104Y0518763D01*
X0184062Y0518715D01*
X0184018Y0518671D01*
X0183970Y0518629D01*
X0183921Y0518591D01*
X0183869Y0518556D01*
X0183815Y0518524D01*
X0183759Y0518495D01*
X0183701Y0518470D01*
X0183642Y0518449D01*
X0183582Y0518431D01*
X0183520Y0518418D01*
X0183458Y0518408D01*
X0183396Y0518402D01*
X0183333Y0518400D01*
X0183270Y0518402D01*
X0183208Y0518408D01*
X0183146Y0518418D01*
X0183084Y0518431D01*
X0183024Y0518449D01*
X0182965Y0518470D01*
X0182907Y0518495D01*
X0182851Y0518524D01*
X0182797Y0518556D01*
X0182745Y0518591D01*
X0182696Y0518629D01*
X0182648Y0518671D01*
X0182604Y0518715D01*
X0182562Y0518763D01*
X0182524Y0518812D01*
X0182489Y0518864D01*
X0182457Y0518918D01*
X0182428Y0518974D01*
X0182403Y0519032D01*
X0182382Y0519091D01*
X0182364Y0519151D01*
X0182351Y0519213D01*
X0182341Y0519275D01*
X0182335Y0519337D01*
X0182333Y0519400D01*
X0187333Y0519400D02*
X0187335Y0519463D01*
X0187341Y0519525D01*
X0187351Y0519587D01*
X0187364Y0519649D01*
X0187382Y0519709D01*
X0187403Y0519768D01*
X0187428Y0519826D01*
X0187457Y0519882D01*
X0187489Y0519936D01*
X0187524Y0519988D01*
X0187562Y0520037D01*
X0187604Y0520085D01*
X0187648Y0520129D01*
X0187696Y0520171D01*
X0187745Y0520209D01*
X0187797Y0520244D01*
X0187851Y0520276D01*
X0187907Y0520305D01*
X0187965Y0520330D01*
X0188024Y0520351D01*
X0188084Y0520369D01*
X0188146Y0520382D01*
X0188208Y0520392D01*
X0188270Y0520398D01*
X0188333Y0520400D01*
X0188396Y0520398D01*
X0188458Y0520392D01*
X0188520Y0520382D01*
X0188582Y0520369D01*
X0188642Y0520351D01*
X0188701Y0520330D01*
X0188759Y0520305D01*
X0188815Y0520276D01*
X0188869Y0520244D01*
X0188921Y0520209D01*
X0188970Y0520171D01*
X0189018Y0520129D01*
X0189062Y0520085D01*
X0189104Y0520037D01*
X0189142Y0519988D01*
X0189177Y0519936D01*
X0189209Y0519882D01*
X0189238Y0519826D01*
X0189263Y0519768D01*
X0189284Y0519709D01*
X0189302Y0519649D01*
X0189315Y0519587D01*
X0189325Y0519525D01*
X0189331Y0519463D01*
X0189333Y0519400D01*
X0189331Y0519337D01*
X0189325Y0519275D01*
X0189315Y0519213D01*
X0189302Y0519151D01*
X0189284Y0519091D01*
X0189263Y0519032D01*
X0189238Y0518974D01*
X0189209Y0518918D01*
X0189177Y0518864D01*
X0189142Y0518812D01*
X0189104Y0518763D01*
X0189062Y0518715D01*
X0189018Y0518671D01*
X0188970Y0518629D01*
X0188921Y0518591D01*
X0188869Y0518556D01*
X0188815Y0518524D01*
X0188759Y0518495D01*
X0188701Y0518470D01*
X0188642Y0518449D01*
X0188582Y0518431D01*
X0188520Y0518418D01*
X0188458Y0518408D01*
X0188396Y0518402D01*
X0188333Y0518400D01*
X0188270Y0518402D01*
X0188208Y0518408D01*
X0188146Y0518418D01*
X0188084Y0518431D01*
X0188024Y0518449D01*
X0187965Y0518470D01*
X0187907Y0518495D01*
X0187851Y0518524D01*
X0187797Y0518556D01*
X0187745Y0518591D01*
X0187696Y0518629D01*
X0187648Y0518671D01*
X0187604Y0518715D01*
X0187562Y0518763D01*
X0187524Y0518812D01*
X0187489Y0518864D01*
X0187457Y0518918D01*
X0187428Y0518974D01*
X0187403Y0519032D01*
X0187382Y0519091D01*
X0187364Y0519151D01*
X0187351Y0519213D01*
X0187341Y0519275D01*
X0187335Y0519337D01*
X0187333Y0519400D01*
X0272616Y0506789D02*
X0272618Y0506852D01*
X0272624Y0506914D01*
X0272634Y0506976D01*
X0272647Y0507038D01*
X0272665Y0507098D01*
X0272686Y0507157D01*
X0272711Y0507215D01*
X0272740Y0507271D01*
X0272772Y0507325D01*
X0272807Y0507377D01*
X0272845Y0507426D01*
X0272887Y0507474D01*
X0272931Y0507518D01*
X0272979Y0507560D01*
X0273028Y0507598D01*
X0273080Y0507633D01*
X0273134Y0507665D01*
X0273190Y0507694D01*
X0273248Y0507719D01*
X0273307Y0507740D01*
X0273367Y0507758D01*
X0273429Y0507771D01*
X0273491Y0507781D01*
X0273553Y0507787D01*
X0273616Y0507789D01*
X0273679Y0507787D01*
X0273741Y0507781D01*
X0273803Y0507771D01*
X0273865Y0507758D01*
X0273925Y0507740D01*
X0273984Y0507719D01*
X0274042Y0507694D01*
X0274098Y0507665D01*
X0274152Y0507633D01*
X0274204Y0507598D01*
X0274253Y0507560D01*
X0274301Y0507518D01*
X0274345Y0507474D01*
X0274387Y0507426D01*
X0274425Y0507377D01*
X0274460Y0507325D01*
X0274492Y0507271D01*
X0274521Y0507215D01*
X0274546Y0507157D01*
X0274567Y0507098D01*
X0274585Y0507038D01*
X0274598Y0506976D01*
X0274608Y0506914D01*
X0274614Y0506852D01*
X0274616Y0506789D01*
X0274614Y0506726D01*
X0274608Y0506664D01*
X0274598Y0506602D01*
X0274585Y0506540D01*
X0274567Y0506480D01*
X0274546Y0506421D01*
X0274521Y0506363D01*
X0274492Y0506307D01*
X0274460Y0506253D01*
X0274425Y0506201D01*
X0274387Y0506152D01*
X0274345Y0506104D01*
X0274301Y0506060D01*
X0274253Y0506018D01*
X0274204Y0505980D01*
X0274152Y0505945D01*
X0274098Y0505913D01*
X0274042Y0505884D01*
X0273984Y0505859D01*
X0273925Y0505838D01*
X0273865Y0505820D01*
X0273803Y0505807D01*
X0273741Y0505797D01*
X0273679Y0505791D01*
X0273616Y0505789D01*
X0273553Y0505791D01*
X0273491Y0505797D01*
X0273429Y0505807D01*
X0273367Y0505820D01*
X0273307Y0505838D01*
X0273248Y0505859D01*
X0273190Y0505884D01*
X0273134Y0505913D01*
X0273080Y0505945D01*
X0273028Y0505980D01*
X0272979Y0506018D01*
X0272931Y0506060D01*
X0272887Y0506104D01*
X0272845Y0506152D01*
X0272807Y0506201D01*
X0272772Y0506253D01*
X0272740Y0506307D01*
X0272711Y0506363D01*
X0272686Y0506421D01*
X0272665Y0506480D01*
X0272647Y0506540D01*
X0272634Y0506602D01*
X0272624Y0506664D01*
X0272618Y0506726D01*
X0272616Y0506789D01*
X0276151Y0503254D02*
X0276153Y0503317D01*
X0276159Y0503379D01*
X0276169Y0503441D01*
X0276182Y0503503D01*
X0276200Y0503563D01*
X0276221Y0503622D01*
X0276246Y0503680D01*
X0276275Y0503736D01*
X0276307Y0503790D01*
X0276342Y0503842D01*
X0276380Y0503891D01*
X0276422Y0503939D01*
X0276466Y0503983D01*
X0276514Y0504025D01*
X0276563Y0504063D01*
X0276615Y0504098D01*
X0276669Y0504130D01*
X0276725Y0504159D01*
X0276783Y0504184D01*
X0276842Y0504205D01*
X0276902Y0504223D01*
X0276964Y0504236D01*
X0277026Y0504246D01*
X0277088Y0504252D01*
X0277151Y0504254D01*
X0277214Y0504252D01*
X0277276Y0504246D01*
X0277338Y0504236D01*
X0277400Y0504223D01*
X0277460Y0504205D01*
X0277519Y0504184D01*
X0277577Y0504159D01*
X0277633Y0504130D01*
X0277687Y0504098D01*
X0277739Y0504063D01*
X0277788Y0504025D01*
X0277836Y0503983D01*
X0277880Y0503939D01*
X0277922Y0503891D01*
X0277960Y0503842D01*
X0277995Y0503790D01*
X0278027Y0503736D01*
X0278056Y0503680D01*
X0278081Y0503622D01*
X0278102Y0503563D01*
X0278120Y0503503D01*
X0278133Y0503441D01*
X0278143Y0503379D01*
X0278149Y0503317D01*
X0278151Y0503254D01*
X0278149Y0503191D01*
X0278143Y0503129D01*
X0278133Y0503067D01*
X0278120Y0503005D01*
X0278102Y0502945D01*
X0278081Y0502886D01*
X0278056Y0502828D01*
X0278027Y0502772D01*
X0277995Y0502718D01*
X0277960Y0502666D01*
X0277922Y0502617D01*
X0277880Y0502569D01*
X0277836Y0502525D01*
X0277788Y0502483D01*
X0277739Y0502445D01*
X0277687Y0502410D01*
X0277633Y0502378D01*
X0277577Y0502349D01*
X0277519Y0502324D01*
X0277460Y0502303D01*
X0277400Y0502285D01*
X0277338Y0502272D01*
X0277276Y0502262D01*
X0277214Y0502256D01*
X0277151Y0502254D01*
X0277088Y0502256D01*
X0277026Y0502262D01*
X0276964Y0502272D01*
X0276902Y0502285D01*
X0276842Y0502303D01*
X0276783Y0502324D01*
X0276725Y0502349D01*
X0276669Y0502378D01*
X0276615Y0502410D01*
X0276563Y0502445D01*
X0276514Y0502483D01*
X0276466Y0502525D01*
X0276422Y0502569D01*
X0276380Y0502617D01*
X0276342Y0502666D01*
X0276307Y0502718D01*
X0276275Y0502772D01*
X0276246Y0502828D01*
X0276221Y0502886D01*
X0276200Y0502945D01*
X0276182Y0503005D01*
X0276169Y0503067D01*
X0276159Y0503129D01*
X0276153Y0503191D01*
X0276151Y0503254D01*
X0279687Y0499718D02*
X0279689Y0499781D01*
X0279695Y0499843D01*
X0279705Y0499905D01*
X0279718Y0499967D01*
X0279736Y0500027D01*
X0279757Y0500086D01*
X0279782Y0500144D01*
X0279811Y0500200D01*
X0279843Y0500254D01*
X0279878Y0500306D01*
X0279916Y0500355D01*
X0279958Y0500403D01*
X0280002Y0500447D01*
X0280050Y0500489D01*
X0280099Y0500527D01*
X0280151Y0500562D01*
X0280205Y0500594D01*
X0280261Y0500623D01*
X0280319Y0500648D01*
X0280378Y0500669D01*
X0280438Y0500687D01*
X0280500Y0500700D01*
X0280562Y0500710D01*
X0280624Y0500716D01*
X0280687Y0500718D01*
X0280750Y0500716D01*
X0280812Y0500710D01*
X0280874Y0500700D01*
X0280936Y0500687D01*
X0280996Y0500669D01*
X0281055Y0500648D01*
X0281113Y0500623D01*
X0281169Y0500594D01*
X0281223Y0500562D01*
X0281275Y0500527D01*
X0281324Y0500489D01*
X0281372Y0500447D01*
X0281416Y0500403D01*
X0281458Y0500355D01*
X0281496Y0500306D01*
X0281531Y0500254D01*
X0281563Y0500200D01*
X0281592Y0500144D01*
X0281617Y0500086D01*
X0281638Y0500027D01*
X0281656Y0499967D01*
X0281669Y0499905D01*
X0281679Y0499843D01*
X0281685Y0499781D01*
X0281687Y0499718D01*
X0281685Y0499655D01*
X0281679Y0499593D01*
X0281669Y0499531D01*
X0281656Y0499469D01*
X0281638Y0499409D01*
X0281617Y0499350D01*
X0281592Y0499292D01*
X0281563Y0499236D01*
X0281531Y0499182D01*
X0281496Y0499130D01*
X0281458Y0499081D01*
X0281416Y0499033D01*
X0281372Y0498989D01*
X0281324Y0498947D01*
X0281275Y0498909D01*
X0281223Y0498874D01*
X0281169Y0498842D01*
X0281113Y0498813D01*
X0281055Y0498788D01*
X0280996Y0498767D01*
X0280936Y0498749D01*
X0280874Y0498736D01*
X0280812Y0498726D01*
X0280750Y0498720D01*
X0280687Y0498718D01*
X0280624Y0498720D01*
X0280562Y0498726D01*
X0280500Y0498736D01*
X0280438Y0498749D01*
X0280378Y0498767D01*
X0280319Y0498788D01*
X0280261Y0498813D01*
X0280205Y0498842D01*
X0280151Y0498874D01*
X0280099Y0498909D01*
X0280050Y0498947D01*
X0280002Y0498989D01*
X0279958Y0499033D01*
X0279916Y0499081D01*
X0279878Y0499130D01*
X0279843Y0499182D01*
X0279811Y0499236D01*
X0279782Y0499292D01*
X0279757Y0499350D01*
X0279736Y0499409D01*
X0279718Y0499469D01*
X0279705Y0499531D01*
X0279695Y0499593D01*
X0279689Y0499655D01*
X0279687Y0499718D01*
X0283222Y0496182D02*
X0283224Y0496245D01*
X0283230Y0496307D01*
X0283240Y0496369D01*
X0283253Y0496431D01*
X0283271Y0496491D01*
X0283292Y0496550D01*
X0283317Y0496608D01*
X0283346Y0496664D01*
X0283378Y0496718D01*
X0283413Y0496770D01*
X0283451Y0496819D01*
X0283493Y0496867D01*
X0283537Y0496911D01*
X0283585Y0496953D01*
X0283634Y0496991D01*
X0283686Y0497026D01*
X0283740Y0497058D01*
X0283796Y0497087D01*
X0283854Y0497112D01*
X0283913Y0497133D01*
X0283973Y0497151D01*
X0284035Y0497164D01*
X0284097Y0497174D01*
X0284159Y0497180D01*
X0284222Y0497182D01*
X0284285Y0497180D01*
X0284347Y0497174D01*
X0284409Y0497164D01*
X0284471Y0497151D01*
X0284531Y0497133D01*
X0284590Y0497112D01*
X0284648Y0497087D01*
X0284704Y0497058D01*
X0284758Y0497026D01*
X0284810Y0496991D01*
X0284859Y0496953D01*
X0284907Y0496911D01*
X0284951Y0496867D01*
X0284993Y0496819D01*
X0285031Y0496770D01*
X0285066Y0496718D01*
X0285098Y0496664D01*
X0285127Y0496608D01*
X0285152Y0496550D01*
X0285173Y0496491D01*
X0285191Y0496431D01*
X0285204Y0496369D01*
X0285214Y0496307D01*
X0285220Y0496245D01*
X0285222Y0496182D01*
X0285220Y0496119D01*
X0285214Y0496057D01*
X0285204Y0495995D01*
X0285191Y0495933D01*
X0285173Y0495873D01*
X0285152Y0495814D01*
X0285127Y0495756D01*
X0285098Y0495700D01*
X0285066Y0495646D01*
X0285031Y0495594D01*
X0284993Y0495545D01*
X0284951Y0495497D01*
X0284907Y0495453D01*
X0284859Y0495411D01*
X0284810Y0495373D01*
X0284758Y0495338D01*
X0284704Y0495306D01*
X0284648Y0495277D01*
X0284590Y0495252D01*
X0284531Y0495231D01*
X0284471Y0495213D01*
X0284409Y0495200D01*
X0284347Y0495190D01*
X0284285Y0495184D01*
X0284222Y0495182D01*
X0284159Y0495184D01*
X0284097Y0495190D01*
X0284035Y0495200D01*
X0283973Y0495213D01*
X0283913Y0495231D01*
X0283854Y0495252D01*
X0283796Y0495277D01*
X0283740Y0495306D01*
X0283686Y0495338D01*
X0283634Y0495373D01*
X0283585Y0495411D01*
X0283537Y0495453D01*
X0283493Y0495497D01*
X0283451Y0495545D01*
X0283413Y0495594D01*
X0283378Y0495646D01*
X0283346Y0495700D01*
X0283317Y0495756D01*
X0283292Y0495814D01*
X0283271Y0495873D01*
X0283253Y0495933D01*
X0283240Y0495995D01*
X0283230Y0496057D01*
X0283224Y0496119D01*
X0283222Y0496182D01*
X0286758Y0492647D02*
X0286760Y0492710D01*
X0286766Y0492772D01*
X0286776Y0492834D01*
X0286789Y0492896D01*
X0286807Y0492956D01*
X0286828Y0493015D01*
X0286853Y0493073D01*
X0286882Y0493129D01*
X0286914Y0493183D01*
X0286949Y0493235D01*
X0286987Y0493284D01*
X0287029Y0493332D01*
X0287073Y0493376D01*
X0287121Y0493418D01*
X0287170Y0493456D01*
X0287222Y0493491D01*
X0287276Y0493523D01*
X0287332Y0493552D01*
X0287390Y0493577D01*
X0287449Y0493598D01*
X0287509Y0493616D01*
X0287571Y0493629D01*
X0287633Y0493639D01*
X0287695Y0493645D01*
X0287758Y0493647D01*
X0287821Y0493645D01*
X0287883Y0493639D01*
X0287945Y0493629D01*
X0288007Y0493616D01*
X0288067Y0493598D01*
X0288126Y0493577D01*
X0288184Y0493552D01*
X0288240Y0493523D01*
X0288294Y0493491D01*
X0288346Y0493456D01*
X0288395Y0493418D01*
X0288443Y0493376D01*
X0288487Y0493332D01*
X0288529Y0493284D01*
X0288567Y0493235D01*
X0288602Y0493183D01*
X0288634Y0493129D01*
X0288663Y0493073D01*
X0288688Y0493015D01*
X0288709Y0492956D01*
X0288727Y0492896D01*
X0288740Y0492834D01*
X0288750Y0492772D01*
X0288756Y0492710D01*
X0288758Y0492647D01*
X0288756Y0492584D01*
X0288750Y0492522D01*
X0288740Y0492460D01*
X0288727Y0492398D01*
X0288709Y0492338D01*
X0288688Y0492279D01*
X0288663Y0492221D01*
X0288634Y0492165D01*
X0288602Y0492111D01*
X0288567Y0492059D01*
X0288529Y0492010D01*
X0288487Y0491962D01*
X0288443Y0491918D01*
X0288395Y0491876D01*
X0288346Y0491838D01*
X0288294Y0491803D01*
X0288240Y0491771D01*
X0288184Y0491742D01*
X0288126Y0491717D01*
X0288067Y0491696D01*
X0288007Y0491678D01*
X0287945Y0491665D01*
X0287883Y0491655D01*
X0287821Y0491649D01*
X0287758Y0491647D01*
X0287695Y0491649D01*
X0287633Y0491655D01*
X0287571Y0491665D01*
X0287509Y0491678D01*
X0287449Y0491696D01*
X0287390Y0491717D01*
X0287332Y0491742D01*
X0287276Y0491771D01*
X0287222Y0491803D01*
X0287170Y0491838D01*
X0287121Y0491876D01*
X0287073Y0491918D01*
X0287029Y0491962D01*
X0286987Y0492010D01*
X0286949Y0492059D01*
X0286914Y0492111D01*
X0286882Y0492165D01*
X0286853Y0492221D01*
X0286828Y0492279D01*
X0286807Y0492338D01*
X0286789Y0492398D01*
X0286776Y0492460D01*
X0286766Y0492522D01*
X0286760Y0492584D01*
X0286758Y0492647D01*
X0290293Y0489111D02*
X0290295Y0489174D01*
X0290301Y0489236D01*
X0290311Y0489298D01*
X0290324Y0489360D01*
X0290342Y0489420D01*
X0290363Y0489479D01*
X0290388Y0489537D01*
X0290417Y0489593D01*
X0290449Y0489647D01*
X0290484Y0489699D01*
X0290522Y0489748D01*
X0290564Y0489796D01*
X0290608Y0489840D01*
X0290656Y0489882D01*
X0290705Y0489920D01*
X0290757Y0489955D01*
X0290811Y0489987D01*
X0290867Y0490016D01*
X0290925Y0490041D01*
X0290984Y0490062D01*
X0291044Y0490080D01*
X0291106Y0490093D01*
X0291168Y0490103D01*
X0291230Y0490109D01*
X0291293Y0490111D01*
X0291356Y0490109D01*
X0291418Y0490103D01*
X0291480Y0490093D01*
X0291542Y0490080D01*
X0291602Y0490062D01*
X0291661Y0490041D01*
X0291719Y0490016D01*
X0291775Y0489987D01*
X0291829Y0489955D01*
X0291881Y0489920D01*
X0291930Y0489882D01*
X0291978Y0489840D01*
X0292022Y0489796D01*
X0292064Y0489748D01*
X0292102Y0489699D01*
X0292137Y0489647D01*
X0292169Y0489593D01*
X0292198Y0489537D01*
X0292223Y0489479D01*
X0292244Y0489420D01*
X0292262Y0489360D01*
X0292275Y0489298D01*
X0292285Y0489236D01*
X0292291Y0489174D01*
X0292293Y0489111D01*
X0292291Y0489048D01*
X0292285Y0488986D01*
X0292275Y0488924D01*
X0292262Y0488862D01*
X0292244Y0488802D01*
X0292223Y0488743D01*
X0292198Y0488685D01*
X0292169Y0488629D01*
X0292137Y0488575D01*
X0292102Y0488523D01*
X0292064Y0488474D01*
X0292022Y0488426D01*
X0291978Y0488382D01*
X0291930Y0488340D01*
X0291881Y0488302D01*
X0291829Y0488267D01*
X0291775Y0488235D01*
X0291719Y0488206D01*
X0291661Y0488181D01*
X0291602Y0488160D01*
X0291542Y0488142D01*
X0291480Y0488129D01*
X0291418Y0488119D01*
X0291356Y0488113D01*
X0291293Y0488111D01*
X0291230Y0488113D01*
X0291168Y0488119D01*
X0291106Y0488129D01*
X0291044Y0488142D01*
X0290984Y0488160D01*
X0290925Y0488181D01*
X0290867Y0488206D01*
X0290811Y0488235D01*
X0290757Y0488267D01*
X0290705Y0488302D01*
X0290656Y0488340D01*
X0290608Y0488382D01*
X0290564Y0488426D01*
X0290522Y0488474D01*
X0290484Y0488523D01*
X0290449Y0488575D01*
X0290417Y0488629D01*
X0290388Y0488685D01*
X0290363Y0488743D01*
X0290342Y0488802D01*
X0290324Y0488862D01*
X0290311Y0488924D01*
X0290301Y0488986D01*
X0290295Y0489048D01*
X0290293Y0489111D01*
X0302833Y0403900D02*
X0302835Y0403963D01*
X0302841Y0404025D01*
X0302851Y0404087D01*
X0302864Y0404149D01*
X0302882Y0404209D01*
X0302903Y0404268D01*
X0302928Y0404326D01*
X0302957Y0404382D01*
X0302989Y0404436D01*
X0303024Y0404488D01*
X0303062Y0404537D01*
X0303104Y0404585D01*
X0303148Y0404629D01*
X0303196Y0404671D01*
X0303245Y0404709D01*
X0303297Y0404744D01*
X0303351Y0404776D01*
X0303407Y0404805D01*
X0303465Y0404830D01*
X0303524Y0404851D01*
X0303584Y0404869D01*
X0303646Y0404882D01*
X0303708Y0404892D01*
X0303770Y0404898D01*
X0303833Y0404900D01*
X0303896Y0404898D01*
X0303958Y0404892D01*
X0304020Y0404882D01*
X0304082Y0404869D01*
X0304142Y0404851D01*
X0304201Y0404830D01*
X0304259Y0404805D01*
X0304315Y0404776D01*
X0304369Y0404744D01*
X0304421Y0404709D01*
X0304470Y0404671D01*
X0304518Y0404629D01*
X0304562Y0404585D01*
X0304604Y0404537D01*
X0304642Y0404488D01*
X0304677Y0404436D01*
X0304709Y0404382D01*
X0304738Y0404326D01*
X0304763Y0404268D01*
X0304784Y0404209D01*
X0304802Y0404149D01*
X0304815Y0404087D01*
X0304825Y0404025D01*
X0304831Y0403963D01*
X0304833Y0403900D01*
X0304831Y0403837D01*
X0304825Y0403775D01*
X0304815Y0403713D01*
X0304802Y0403651D01*
X0304784Y0403591D01*
X0304763Y0403532D01*
X0304738Y0403474D01*
X0304709Y0403418D01*
X0304677Y0403364D01*
X0304642Y0403312D01*
X0304604Y0403263D01*
X0304562Y0403215D01*
X0304518Y0403171D01*
X0304470Y0403129D01*
X0304421Y0403091D01*
X0304369Y0403056D01*
X0304315Y0403024D01*
X0304259Y0402995D01*
X0304201Y0402970D01*
X0304142Y0402949D01*
X0304082Y0402931D01*
X0304020Y0402918D01*
X0303958Y0402908D01*
X0303896Y0402902D01*
X0303833Y0402900D01*
X0303770Y0402902D01*
X0303708Y0402908D01*
X0303646Y0402918D01*
X0303584Y0402931D01*
X0303524Y0402949D01*
X0303465Y0402970D01*
X0303407Y0402995D01*
X0303351Y0403024D01*
X0303297Y0403056D01*
X0303245Y0403091D01*
X0303196Y0403129D01*
X0303148Y0403171D01*
X0303104Y0403215D01*
X0303062Y0403263D01*
X0303024Y0403312D01*
X0302989Y0403364D01*
X0302957Y0403418D01*
X0302928Y0403474D01*
X0302903Y0403532D01*
X0302882Y0403591D01*
X0302864Y0403651D01*
X0302851Y0403713D01*
X0302841Y0403775D01*
X0302835Y0403837D01*
X0302833Y0403900D01*
X0302833Y0398900D02*
X0302835Y0398963D01*
X0302841Y0399025D01*
X0302851Y0399087D01*
X0302864Y0399149D01*
X0302882Y0399209D01*
X0302903Y0399268D01*
X0302928Y0399326D01*
X0302957Y0399382D01*
X0302989Y0399436D01*
X0303024Y0399488D01*
X0303062Y0399537D01*
X0303104Y0399585D01*
X0303148Y0399629D01*
X0303196Y0399671D01*
X0303245Y0399709D01*
X0303297Y0399744D01*
X0303351Y0399776D01*
X0303407Y0399805D01*
X0303465Y0399830D01*
X0303524Y0399851D01*
X0303584Y0399869D01*
X0303646Y0399882D01*
X0303708Y0399892D01*
X0303770Y0399898D01*
X0303833Y0399900D01*
X0303896Y0399898D01*
X0303958Y0399892D01*
X0304020Y0399882D01*
X0304082Y0399869D01*
X0304142Y0399851D01*
X0304201Y0399830D01*
X0304259Y0399805D01*
X0304315Y0399776D01*
X0304369Y0399744D01*
X0304421Y0399709D01*
X0304470Y0399671D01*
X0304518Y0399629D01*
X0304562Y0399585D01*
X0304604Y0399537D01*
X0304642Y0399488D01*
X0304677Y0399436D01*
X0304709Y0399382D01*
X0304738Y0399326D01*
X0304763Y0399268D01*
X0304784Y0399209D01*
X0304802Y0399149D01*
X0304815Y0399087D01*
X0304825Y0399025D01*
X0304831Y0398963D01*
X0304833Y0398900D01*
X0304831Y0398837D01*
X0304825Y0398775D01*
X0304815Y0398713D01*
X0304802Y0398651D01*
X0304784Y0398591D01*
X0304763Y0398532D01*
X0304738Y0398474D01*
X0304709Y0398418D01*
X0304677Y0398364D01*
X0304642Y0398312D01*
X0304604Y0398263D01*
X0304562Y0398215D01*
X0304518Y0398171D01*
X0304470Y0398129D01*
X0304421Y0398091D01*
X0304369Y0398056D01*
X0304315Y0398024D01*
X0304259Y0397995D01*
X0304201Y0397970D01*
X0304142Y0397949D01*
X0304082Y0397931D01*
X0304020Y0397918D01*
X0303958Y0397908D01*
X0303896Y0397902D01*
X0303833Y0397900D01*
X0303770Y0397902D01*
X0303708Y0397908D01*
X0303646Y0397918D01*
X0303584Y0397931D01*
X0303524Y0397949D01*
X0303465Y0397970D01*
X0303407Y0397995D01*
X0303351Y0398024D01*
X0303297Y0398056D01*
X0303245Y0398091D01*
X0303196Y0398129D01*
X0303148Y0398171D01*
X0303104Y0398215D01*
X0303062Y0398263D01*
X0303024Y0398312D01*
X0302989Y0398364D01*
X0302957Y0398418D01*
X0302928Y0398474D01*
X0302903Y0398532D01*
X0302882Y0398591D01*
X0302864Y0398651D01*
X0302851Y0398713D01*
X0302841Y0398775D01*
X0302835Y0398837D01*
X0302833Y0398900D01*
X0302833Y0393900D02*
X0302835Y0393963D01*
X0302841Y0394025D01*
X0302851Y0394087D01*
X0302864Y0394149D01*
X0302882Y0394209D01*
X0302903Y0394268D01*
X0302928Y0394326D01*
X0302957Y0394382D01*
X0302989Y0394436D01*
X0303024Y0394488D01*
X0303062Y0394537D01*
X0303104Y0394585D01*
X0303148Y0394629D01*
X0303196Y0394671D01*
X0303245Y0394709D01*
X0303297Y0394744D01*
X0303351Y0394776D01*
X0303407Y0394805D01*
X0303465Y0394830D01*
X0303524Y0394851D01*
X0303584Y0394869D01*
X0303646Y0394882D01*
X0303708Y0394892D01*
X0303770Y0394898D01*
X0303833Y0394900D01*
X0303896Y0394898D01*
X0303958Y0394892D01*
X0304020Y0394882D01*
X0304082Y0394869D01*
X0304142Y0394851D01*
X0304201Y0394830D01*
X0304259Y0394805D01*
X0304315Y0394776D01*
X0304369Y0394744D01*
X0304421Y0394709D01*
X0304470Y0394671D01*
X0304518Y0394629D01*
X0304562Y0394585D01*
X0304604Y0394537D01*
X0304642Y0394488D01*
X0304677Y0394436D01*
X0304709Y0394382D01*
X0304738Y0394326D01*
X0304763Y0394268D01*
X0304784Y0394209D01*
X0304802Y0394149D01*
X0304815Y0394087D01*
X0304825Y0394025D01*
X0304831Y0393963D01*
X0304833Y0393900D01*
X0304831Y0393837D01*
X0304825Y0393775D01*
X0304815Y0393713D01*
X0304802Y0393651D01*
X0304784Y0393591D01*
X0304763Y0393532D01*
X0304738Y0393474D01*
X0304709Y0393418D01*
X0304677Y0393364D01*
X0304642Y0393312D01*
X0304604Y0393263D01*
X0304562Y0393215D01*
X0304518Y0393171D01*
X0304470Y0393129D01*
X0304421Y0393091D01*
X0304369Y0393056D01*
X0304315Y0393024D01*
X0304259Y0392995D01*
X0304201Y0392970D01*
X0304142Y0392949D01*
X0304082Y0392931D01*
X0304020Y0392918D01*
X0303958Y0392908D01*
X0303896Y0392902D01*
X0303833Y0392900D01*
X0303770Y0392902D01*
X0303708Y0392908D01*
X0303646Y0392918D01*
X0303584Y0392931D01*
X0303524Y0392949D01*
X0303465Y0392970D01*
X0303407Y0392995D01*
X0303351Y0393024D01*
X0303297Y0393056D01*
X0303245Y0393091D01*
X0303196Y0393129D01*
X0303148Y0393171D01*
X0303104Y0393215D01*
X0303062Y0393263D01*
X0303024Y0393312D01*
X0302989Y0393364D01*
X0302957Y0393418D01*
X0302928Y0393474D01*
X0302903Y0393532D01*
X0302882Y0393591D01*
X0302864Y0393651D01*
X0302851Y0393713D01*
X0302841Y0393775D01*
X0302835Y0393837D01*
X0302833Y0393900D01*
X0302833Y0388900D02*
X0302835Y0388963D01*
X0302841Y0389025D01*
X0302851Y0389087D01*
X0302864Y0389149D01*
X0302882Y0389209D01*
X0302903Y0389268D01*
X0302928Y0389326D01*
X0302957Y0389382D01*
X0302989Y0389436D01*
X0303024Y0389488D01*
X0303062Y0389537D01*
X0303104Y0389585D01*
X0303148Y0389629D01*
X0303196Y0389671D01*
X0303245Y0389709D01*
X0303297Y0389744D01*
X0303351Y0389776D01*
X0303407Y0389805D01*
X0303465Y0389830D01*
X0303524Y0389851D01*
X0303584Y0389869D01*
X0303646Y0389882D01*
X0303708Y0389892D01*
X0303770Y0389898D01*
X0303833Y0389900D01*
X0303896Y0389898D01*
X0303958Y0389892D01*
X0304020Y0389882D01*
X0304082Y0389869D01*
X0304142Y0389851D01*
X0304201Y0389830D01*
X0304259Y0389805D01*
X0304315Y0389776D01*
X0304369Y0389744D01*
X0304421Y0389709D01*
X0304470Y0389671D01*
X0304518Y0389629D01*
X0304562Y0389585D01*
X0304604Y0389537D01*
X0304642Y0389488D01*
X0304677Y0389436D01*
X0304709Y0389382D01*
X0304738Y0389326D01*
X0304763Y0389268D01*
X0304784Y0389209D01*
X0304802Y0389149D01*
X0304815Y0389087D01*
X0304825Y0389025D01*
X0304831Y0388963D01*
X0304833Y0388900D01*
X0304831Y0388837D01*
X0304825Y0388775D01*
X0304815Y0388713D01*
X0304802Y0388651D01*
X0304784Y0388591D01*
X0304763Y0388532D01*
X0304738Y0388474D01*
X0304709Y0388418D01*
X0304677Y0388364D01*
X0304642Y0388312D01*
X0304604Y0388263D01*
X0304562Y0388215D01*
X0304518Y0388171D01*
X0304470Y0388129D01*
X0304421Y0388091D01*
X0304369Y0388056D01*
X0304315Y0388024D01*
X0304259Y0387995D01*
X0304201Y0387970D01*
X0304142Y0387949D01*
X0304082Y0387931D01*
X0304020Y0387918D01*
X0303958Y0387908D01*
X0303896Y0387902D01*
X0303833Y0387900D01*
X0303770Y0387902D01*
X0303708Y0387908D01*
X0303646Y0387918D01*
X0303584Y0387931D01*
X0303524Y0387949D01*
X0303465Y0387970D01*
X0303407Y0387995D01*
X0303351Y0388024D01*
X0303297Y0388056D01*
X0303245Y0388091D01*
X0303196Y0388129D01*
X0303148Y0388171D01*
X0303104Y0388215D01*
X0303062Y0388263D01*
X0303024Y0388312D01*
X0302989Y0388364D01*
X0302957Y0388418D01*
X0302928Y0388474D01*
X0302903Y0388532D01*
X0302882Y0388591D01*
X0302864Y0388651D01*
X0302851Y0388713D01*
X0302841Y0388775D01*
X0302835Y0388837D01*
X0302833Y0388900D01*
X0302833Y0383900D02*
X0302835Y0383963D01*
X0302841Y0384025D01*
X0302851Y0384087D01*
X0302864Y0384149D01*
X0302882Y0384209D01*
X0302903Y0384268D01*
X0302928Y0384326D01*
X0302957Y0384382D01*
X0302989Y0384436D01*
X0303024Y0384488D01*
X0303062Y0384537D01*
X0303104Y0384585D01*
X0303148Y0384629D01*
X0303196Y0384671D01*
X0303245Y0384709D01*
X0303297Y0384744D01*
X0303351Y0384776D01*
X0303407Y0384805D01*
X0303465Y0384830D01*
X0303524Y0384851D01*
X0303584Y0384869D01*
X0303646Y0384882D01*
X0303708Y0384892D01*
X0303770Y0384898D01*
X0303833Y0384900D01*
X0303896Y0384898D01*
X0303958Y0384892D01*
X0304020Y0384882D01*
X0304082Y0384869D01*
X0304142Y0384851D01*
X0304201Y0384830D01*
X0304259Y0384805D01*
X0304315Y0384776D01*
X0304369Y0384744D01*
X0304421Y0384709D01*
X0304470Y0384671D01*
X0304518Y0384629D01*
X0304562Y0384585D01*
X0304604Y0384537D01*
X0304642Y0384488D01*
X0304677Y0384436D01*
X0304709Y0384382D01*
X0304738Y0384326D01*
X0304763Y0384268D01*
X0304784Y0384209D01*
X0304802Y0384149D01*
X0304815Y0384087D01*
X0304825Y0384025D01*
X0304831Y0383963D01*
X0304833Y0383900D01*
X0304831Y0383837D01*
X0304825Y0383775D01*
X0304815Y0383713D01*
X0304802Y0383651D01*
X0304784Y0383591D01*
X0304763Y0383532D01*
X0304738Y0383474D01*
X0304709Y0383418D01*
X0304677Y0383364D01*
X0304642Y0383312D01*
X0304604Y0383263D01*
X0304562Y0383215D01*
X0304518Y0383171D01*
X0304470Y0383129D01*
X0304421Y0383091D01*
X0304369Y0383056D01*
X0304315Y0383024D01*
X0304259Y0382995D01*
X0304201Y0382970D01*
X0304142Y0382949D01*
X0304082Y0382931D01*
X0304020Y0382918D01*
X0303958Y0382908D01*
X0303896Y0382902D01*
X0303833Y0382900D01*
X0303770Y0382902D01*
X0303708Y0382908D01*
X0303646Y0382918D01*
X0303584Y0382931D01*
X0303524Y0382949D01*
X0303465Y0382970D01*
X0303407Y0382995D01*
X0303351Y0383024D01*
X0303297Y0383056D01*
X0303245Y0383091D01*
X0303196Y0383129D01*
X0303148Y0383171D01*
X0303104Y0383215D01*
X0303062Y0383263D01*
X0303024Y0383312D01*
X0302989Y0383364D01*
X0302957Y0383418D01*
X0302928Y0383474D01*
X0302903Y0383532D01*
X0302882Y0383591D01*
X0302864Y0383651D01*
X0302851Y0383713D01*
X0302841Y0383775D01*
X0302835Y0383837D01*
X0302833Y0383900D01*
X0302833Y0378900D02*
X0302835Y0378963D01*
X0302841Y0379025D01*
X0302851Y0379087D01*
X0302864Y0379149D01*
X0302882Y0379209D01*
X0302903Y0379268D01*
X0302928Y0379326D01*
X0302957Y0379382D01*
X0302989Y0379436D01*
X0303024Y0379488D01*
X0303062Y0379537D01*
X0303104Y0379585D01*
X0303148Y0379629D01*
X0303196Y0379671D01*
X0303245Y0379709D01*
X0303297Y0379744D01*
X0303351Y0379776D01*
X0303407Y0379805D01*
X0303465Y0379830D01*
X0303524Y0379851D01*
X0303584Y0379869D01*
X0303646Y0379882D01*
X0303708Y0379892D01*
X0303770Y0379898D01*
X0303833Y0379900D01*
X0303896Y0379898D01*
X0303958Y0379892D01*
X0304020Y0379882D01*
X0304082Y0379869D01*
X0304142Y0379851D01*
X0304201Y0379830D01*
X0304259Y0379805D01*
X0304315Y0379776D01*
X0304369Y0379744D01*
X0304421Y0379709D01*
X0304470Y0379671D01*
X0304518Y0379629D01*
X0304562Y0379585D01*
X0304604Y0379537D01*
X0304642Y0379488D01*
X0304677Y0379436D01*
X0304709Y0379382D01*
X0304738Y0379326D01*
X0304763Y0379268D01*
X0304784Y0379209D01*
X0304802Y0379149D01*
X0304815Y0379087D01*
X0304825Y0379025D01*
X0304831Y0378963D01*
X0304833Y0378900D01*
X0304831Y0378837D01*
X0304825Y0378775D01*
X0304815Y0378713D01*
X0304802Y0378651D01*
X0304784Y0378591D01*
X0304763Y0378532D01*
X0304738Y0378474D01*
X0304709Y0378418D01*
X0304677Y0378364D01*
X0304642Y0378312D01*
X0304604Y0378263D01*
X0304562Y0378215D01*
X0304518Y0378171D01*
X0304470Y0378129D01*
X0304421Y0378091D01*
X0304369Y0378056D01*
X0304315Y0378024D01*
X0304259Y0377995D01*
X0304201Y0377970D01*
X0304142Y0377949D01*
X0304082Y0377931D01*
X0304020Y0377918D01*
X0303958Y0377908D01*
X0303896Y0377902D01*
X0303833Y0377900D01*
X0303770Y0377902D01*
X0303708Y0377908D01*
X0303646Y0377918D01*
X0303584Y0377931D01*
X0303524Y0377949D01*
X0303465Y0377970D01*
X0303407Y0377995D01*
X0303351Y0378024D01*
X0303297Y0378056D01*
X0303245Y0378091D01*
X0303196Y0378129D01*
X0303148Y0378171D01*
X0303104Y0378215D01*
X0303062Y0378263D01*
X0303024Y0378312D01*
X0302989Y0378364D01*
X0302957Y0378418D01*
X0302928Y0378474D01*
X0302903Y0378532D01*
X0302882Y0378591D01*
X0302864Y0378651D01*
X0302851Y0378713D01*
X0302841Y0378775D01*
X0302835Y0378837D01*
X0302833Y0378900D01*
X0290222Y0293618D02*
X0290224Y0293681D01*
X0290230Y0293743D01*
X0290240Y0293805D01*
X0290253Y0293867D01*
X0290271Y0293927D01*
X0290292Y0293986D01*
X0290317Y0294044D01*
X0290346Y0294100D01*
X0290378Y0294154D01*
X0290413Y0294206D01*
X0290451Y0294255D01*
X0290493Y0294303D01*
X0290537Y0294347D01*
X0290585Y0294389D01*
X0290634Y0294427D01*
X0290686Y0294462D01*
X0290740Y0294494D01*
X0290796Y0294523D01*
X0290854Y0294548D01*
X0290913Y0294569D01*
X0290973Y0294587D01*
X0291035Y0294600D01*
X0291097Y0294610D01*
X0291159Y0294616D01*
X0291222Y0294618D01*
X0291285Y0294616D01*
X0291347Y0294610D01*
X0291409Y0294600D01*
X0291471Y0294587D01*
X0291531Y0294569D01*
X0291590Y0294548D01*
X0291648Y0294523D01*
X0291704Y0294494D01*
X0291758Y0294462D01*
X0291810Y0294427D01*
X0291859Y0294389D01*
X0291907Y0294347D01*
X0291951Y0294303D01*
X0291993Y0294255D01*
X0292031Y0294206D01*
X0292066Y0294154D01*
X0292098Y0294100D01*
X0292127Y0294044D01*
X0292152Y0293986D01*
X0292173Y0293927D01*
X0292191Y0293867D01*
X0292204Y0293805D01*
X0292214Y0293743D01*
X0292220Y0293681D01*
X0292222Y0293618D01*
X0292220Y0293555D01*
X0292214Y0293493D01*
X0292204Y0293431D01*
X0292191Y0293369D01*
X0292173Y0293309D01*
X0292152Y0293250D01*
X0292127Y0293192D01*
X0292098Y0293136D01*
X0292066Y0293082D01*
X0292031Y0293030D01*
X0291993Y0292981D01*
X0291951Y0292933D01*
X0291907Y0292889D01*
X0291859Y0292847D01*
X0291810Y0292809D01*
X0291758Y0292774D01*
X0291704Y0292742D01*
X0291648Y0292713D01*
X0291590Y0292688D01*
X0291531Y0292667D01*
X0291471Y0292649D01*
X0291409Y0292636D01*
X0291347Y0292626D01*
X0291285Y0292620D01*
X0291222Y0292618D01*
X0291159Y0292620D01*
X0291097Y0292626D01*
X0291035Y0292636D01*
X0290973Y0292649D01*
X0290913Y0292667D01*
X0290854Y0292688D01*
X0290796Y0292713D01*
X0290740Y0292742D01*
X0290686Y0292774D01*
X0290634Y0292809D01*
X0290585Y0292847D01*
X0290537Y0292889D01*
X0290493Y0292933D01*
X0290451Y0292981D01*
X0290413Y0293030D01*
X0290378Y0293082D01*
X0290346Y0293136D01*
X0290317Y0293192D01*
X0290292Y0293250D01*
X0290271Y0293309D01*
X0290253Y0293369D01*
X0290240Y0293431D01*
X0290230Y0293493D01*
X0290224Y0293555D01*
X0290222Y0293618D01*
X0286687Y0290082D02*
X0286689Y0290145D01*
X0286695Y0290207D01*
X0286705Y0290269D01*
X0286718Y0290331D01*
X0286736Y0290391D01*
X0286757Y0290450D01*
X0286782Y0290508D01*
X0286811Y0290564D01*
X0286843Y0290618D01*
X0286878Y0290670D01*
X0286916Y0290719D01*
X0286958Y0290767D01*
X0287002Y0290811D01*
X0287050Y0290853D01*
X0287099Y0290891D01*
X0287151Y0290926D01*
X0287205Y0290958D01*
X0287261Y0290987D01*
X0287319Y0291012D01*
X0287378Y0291033D01*
X0287438Y0291051D01*
X0287500Y0291064D01*
X0287562Y0291074D01*
X0287624Y0291080D01*
X0287687Y0291082D01*
X0287750Y0291080D01*
X0287812Y0291074D01*
X0287874Y0291064D01*
X0287936Y0291051D01*
X0287996Y0291033D01*
X0288055Y0291012D01*
X0288113Y0290987D01*
X0288169Y0290958D01*
X0288223Y0290926D01*
X0288275Y0290891D01*
X0288324Y0290853D01*
X0288372Y0290811D01*
X0288416Y0290767D01*
X0288458Y0290719D01*
X0288496Y0290670D01*
X0288531Y0290618D01*
X0288563Y0290564D01*
X0288592Y0290508D01*
X0288617Y0290450D01*
X0288638Y0290391D01*
X0288656Y0290331D01*
X0288669Y0290269D01*
X0288679Y0290207D01*
X0288685Y0290145D01*
X0288687Y0290082D01*
X0288685Y0290019D01*
X0288679Y0289957D01*
X0288669Y0289895D01*
X0288656Y0289833D01*
X0288638Y0289773D01*
X0288617Y0289714D01*
X0288592Y0289656D01*
X0288563Y0289600D01*
X0288531Y0289546D01*
X0288496Y0289494D01*
X0288458Y0289445D01*
X0288416Y0289397D01*
X0288372Y0289353D01*
X0288324Y0289311D01*
X0288275Y0289273D01*
X0288223Y0289238D01*
X0288169Y0289206D01*
X0288113Y0289177D01*
X0288055Y0289152D01*
X0287996Y0289131D01*
X0287936Y0289113D01*
X0287874Y0289100D01*
X0287812Y0289090D01*
X0287750Y0289084D01*
X0287687Y0289082D01*
X0287624Y0289084D01*
X0287562Y0289090D01*
X0287500Y0289100D01*
X0287438Y0289113D01*
X0287378Y0289131D01*
X0287319Y0289152D01*
X0287261Y0289177D01*
X0287205Y0289206D01*
X0287151Y0289238D01*
X0287099Y0289273D01*
X0287050Y0289311D01*
X0287002Y0289353D01*
X0286958Y0289397D01*
X0286916Y0289445D01*
X0286878Y0289494D01*
X0286843Y0289546D01*
X0286811Y0289600D01*
X0286782Y0289656D01*
X0286757Y0289714D01*
X0286736Y0289773D01*
X0286718Y0289833D01*
X0286705Y0289895D01*
X0286695Y0289957D01*
X0286689Y0290019D01*
X0286687Y0290082D01*
X0283151Y0286546D02*
X0283153Y0286609D01*
X0283159Y0286671D01*
X0283169Y0286733D01*
X0283182Y0286795D01*
X0283200Y0286855D01*
X0283221Y0286914D01*
X0283246Y0286972D01*
X0283275Y0287028D01*
X0283307Y0287082D01*
X0283342Y0287134D01*
X0283380Y0287183D01*
X0283422Y0287231D01*
X0283466Y0287275D01*
X0283514Y0287317D01*
X0283563Y0287355D01*
X0283615Y0287390D01*
X0283669Y0287422D01*
X0283725Y0287451D01*
X0283783Y0287476D01*
X0283842Y0287497D01*
X0283902Y0287515D01*
X0283964Y0287528D01*
X0284026Y0287538D01*
X0284088Y0287544D01*
X0284151Y0287546D01*
X0284214Y0287544D01*
X0284276Y0287538D01*
X0284338Y0287528D01*
X0284400Y0287515D01*
X0284460Y0287497D01*
X0284519Y0287476D01*
X0284577Y0287451D01*
X0284633Y0287422D01*
X0284687Y0287390D01*
X0284739Y0287355D01*
X0284788Y0287317D01*
X0284836Y0287275D01*
X0284880Y0287231D01*
X0284922Y0287183D01*
X0284960Y0287134D01*
X0284995Y0287082D01*
X0285027Y0287028D01*
X0285056Y0286972D01*
X0285081Y0286914D01*
X0285102Y0286855D01*
X0285120Y0286795D01*
X0285133Y0286733D01*
X0285143Y0286671D01*
X0285149Y0286609D01*
X0285151Y0286546D01*
X0285149Y0286483D01*
X0285143Y0286421D01*
X0285133Y0286359D01*
X0285120Y0286297D01*
X0285102Y0286237D01*
X0285081Y0286178D01*
X0285056Y0286120D01*
X0285027Y0286064D01*
X0284995Y0286010D01*
X0284960Y0285958D01*
X0284922Y0285909D01*
X0284880Y0285861D01*
X0284836Y0285817D01*
X0284788Y0285775D01*
X0284739Y0285737D01*
X0284687Y0285702D01*
X0284633Y0285670D01*
X0284577Y0285641D01*
X0284519Y0285616D01*
X0284460Y0285595D01*
X0284400Y0285577D01*
X0284338Y0285564D01*
X0284276Y0285554D01*
X0284214Y0285548D01*
X0284151Y0285546D01*
X0284088Y0285548D01*
X0284026Y0285554D01*
X0283964Y0285564D01*
X0283902Y0285577D01*
X0283842Y0285595D01*
X0283783Y0285616D01*
X0283725Y0285641D01*
X0283669Y0285670D01*
X0283615Y0285702D01*
X0283563Y0285737D01*
X0283514Y0285775D01*
X0283466Y0285817D01*
X0283422Y0285861D01*
X0283380Y0285909D01*
X0283342Y0285958D01*
X0283307Y0286010D01*
X0283275Y0286064D01*
X0283246Y0286120D01*
X0283221Y0286178D01*
X0283200Y0286237D01*
X0283182Y0286297D01*
X0283169Y0286359D01*
X0283159Y0286421D01*
X0283153Y0286483D01*
X0283151Y0286546D01*
X0279616Y0283011D02*
X0279618Y0283074D01*
X0279624Y0283136D01*
X0279634Y0283198D01*
X0279647Y0283260D01*
X0279665Y0283320D01*
X0279686Y0283379D01*
X0279711Y0283437D01*
X0279740Y0283493D01*
X0279772Y0283547D01*
X0279807Y0283599D01*
X0279845Y0283648D01*
X0279887Y0283696D01*
X0279931Y0283740D01*
X0279979Y0283782D01*
X0280028Y0283820D01*
X0280080Y0283855D01*
X0280134Y0283887D01*
X0280190Y0283916D01*
X0280248Y0283941D01*
X0280307Y0283962D01*
X0280367Y0283980D01*
X0280429Y0283993D01*
X0280491Y0284003D01*
X0280553Y0284009D01*
X0280616Y0284011D01*
X0280679Y0284009D01*
X0280741Y0284003D01*
X0280803Y0283993D01*
X0280865Y0283980D01*
X0280925Y0283962D01*
X0280984Y0283941D01*
X0281042Y0283916D01*
X0281098Y0283887D01*
X0281152Y0283855D01*
X0281204Y0283820D01*
X0281253Y0283782D01*
X0281301Y0283740D01*
X0281345Y0283696D01*
X0281387Y0283648D01*
X0281425Y0283599D01*
X0281460Y0283547D01*
X0281492Y0283493D01*
X0281521Y0283437D01*
X0281546Y0283379D01*
X0281567Y0283320D01*
X0281585Y0283260D01*
X0281598Y0283198D01*
X0281608Y0283136D01*
X0281614Y0283074D01*
X0281616Y0283011D01*
X0281614Y0282948D01*
X0281608Y0282886D01*
X0281598Y0282824D01*
X0281585Y0282762D01*
X0281567Y0282702D01*
X0281546Y0282643D01*
X0281521Y0282585D01*
X0281492Y0282529D01*
X0281460Y0282475D01*
X0281425Y0282423D01*
X0281387Y0282374D01*
X0281345Y0282326D01*
X0281301Y0282282D01*
X0281253Y0282240D01*
X0281204Y0282202D01*
X0281152Y0282167D01*
X0281098Y0282135D01*
X0281042Y0282106D01*
X0280984Y0282081D01*
X0280925Y0282060D01*
X0280865Y0282042D01*
X0280803Y0282029D01*
X0280741Y0282019D01*
X0280679Y0282013D01*
X0280616Y0282011D01*
X0280553Y0282013D01*
X0280491Y0282019D01*
X0280429Y0282029D01*
X0280367Y0282042D01*
X0280307Y0282060D01*
X0280248Y0282081D01*
X0280190Y0282106D01*
X0280134Y0282135D01*
X0280080Y0282167D01*
X0280028Y0282202D01*
X0279979Y0282240D01*
X0279931Y0282282D01*
X0279887Y0282326D01*
X0279845Y0282374D01*
X0279807Y0282423D01*
X0279772Y0282475D01*
X0279740Y0282529D01*
X0279711Y0282585D01*
X0279686Y0282643D01*
X0279665Y0282702D01*
X0279647Y0282762D01*
X0279634Y0282824D01*
X0279624Y0282886D01*
X0279618Y0282948D01*
X0279616Y0283011D01*
X0276080Y0279475D02*
X0276082Y0279538D01*
X0276088Y0279600D01*
X0276098Y0279662D01*
X0276111Y0279724D01*
X0276129Y0279784D01*
X0276150Y0279843D01*
X0276175Y0279901D01*
X0276204Y0279957D01*
X0276236Y0280011D01*
X0276271Y0280063D01*
X0276309Y0280112D01*
X0276351Y0280160D01*
X0276395Y0280204D01*
X0276443Y0280246D01*
X0276492Y0280284D01*
X0276544Y0280319D01*
X0276598Y0280351D01*
X0276654Y0280380D01*
X0276712Y0280405D01*
X0276771Y0280426D01*
X0276831Y0280444D01*
X0276893Y0280457D01*
X0276955Y0280467D01*
X0277017Y0280473D01*
X0277080Y0280475D01*
X0277143Y0280473D01*
X0277205Y0280467D01*
X0277267Y0280457D01*
X0277329Y0280444D01*
X0277389Y0280426D01*
X0277448Y0280405D01*
X0277506Y0280380D01*
X0277562Y0280351D01*
X0277616Y0280319D01*
X0277668Y0280284D01*
X0277717Y0280246D01*
X0277765Y0280204D01*
X0277809Y0280160D01*
X0277851Y0280112D01*
X0277889Y0280063D01*
X0277924Y0280011D01*
X0277956Y0279957D01*
X0277985Y0279901D01*
X0278010Y0279843D01*
X0278031Y0279784D01*
X0278049Y0279724D01*
X0278062Y0279662D01*
X0278072Y0279600D01*
X0278078Y0279538D01*
X0278080Y0279475D01*
X0278078Y0279412D01*
X0278072Y0279350D01*
X0278062Y0279288D01*
X0278049Y0279226D01*
X0278031Y0279166D01*
X0278010Y0279107D01*
X0277985Y0279049D01*
X0277956Y0278993D01*
X0277924Y0278939D01*
X0277889Y0278887D01*
X0277851Y0278838D01*
X0277809Y0278790D01*
X0277765Y0278746D01*
X0277717Y0278704D01*
X0277668Y0278666D01*
X0277616Y0278631D01*
X0277562Y0278599D01*
X0277506Y0278570D01*
X0277448Y0278545D01*
X0277389Y0278524D01*
X0277329Y0278506D01*
X0277267Y0278493D01*
X0277205Y0278483D01*
X0277143Y0278477D01*
X0277080Y0278475D01*
X0277017Y0278477D01*
X0276955Y0278483D01*
X0276893Y0278493D01*
X0276831Y0278506D01*
X0276771Y0278524D01*
X0276712Y0278545D01*
X0276654Y0278570D01*
X0276598Y0278599D01*
X0276544Y0278631D01*
X0276492Y0278666D01*
X0276443Y0278704D01*
X0276395Y0278746D01*
X0276351Y0278790D01*
X0276309Y0278838D01*
X0276271Y0278887D01*
X0276236Y0278939D01*
X0276204Y0278993D01*
X0276175Y0279049D01*
X0276150Y0279107D01*
X0276129Y0279166D01*
X0276111Y0279226D01*
X0276098Y0279288D01*
X0276088Y0279350D01*
X0276082Y0279412D01*
X0276080Y0279475D01*
X0272545Y0275940D02*
X0272547Y0276003D01*
X0272553Y0276065D01*
X0272563Y0276127D01*
X0272576Y0276189D01*
X0272594Y0276249D01*
X0272615Y0276308D01*
X0272640Y0276366D01*
X0272669Y0276422D01*
X0272701Y0276476D01*
X0272736Y0276528D01*
X0272774Y0276577D01*
X0272816Y0276625D01*
X0272860Y0276669D01*
X0272908Y0276711D01*
X0272957Y0276749D01*
X0273009Y0276784D01*
X0273063Y0276816D01*
X0273119Y0276845D01*
X0273177Y0276870D01*
X0273236Y0276891D01*
X0273296Y0276909D01*
X0273358Y0276922D01*
X0273420Y0276932D01*
X0273482Y0276938D01*
X0273545Y0276940D01*
X0273608Y0276938D01*
X0273670Y0276932D01*
X0273732Y0276922D01*
X0273794Y0276909D01*
X0273854Y0276891D01*
X0273913Y0276870D01*
X0273971Y0276845D01*
X0274027Y0276816D01*
X0274081Y0276784D01*
X0274133Y0276749D01*
X0274182Y0276711D01*
X0274230Y0276669D01*
X0274274Y0276625D01*
X0274316Y0276577D01*
X0274354Y0276528D01*
X0274389Y0276476D01*
X0274421Y0276422D01*
X0274450Y0276366D01*
X0274475Y0276308D01*
X0274496Y0276249D01*
X0274514Y0276189D01*
X0274527Y0276127D01*
X0274537Y0276065D01*
X0274543Y0276003D01*
X0274545Y0275940D01*
X0274543Y0275877D01*
X0274537Y0275815D01*
X0274527Y0275753D01*
X0274514Y0275691D01*
X0274496Y0275631D01*
X0274475Y0275572D01*
X0274450Y0275514D01*
X0274421Y0275458D01*
X0274389Y0275404D01*
X0274354Y0275352D01*
X0274316Y0275303D01*
X0274274Y0275255D01*
X0274230Y0275211D01*
X0274182Y0275169D01*
X0274133Y0275131D01*
X0274081Y0275096D01*
X0274027Y0275064D01*
X0273971Y0275035D01*
X0273913Y0275010D01*
X0273854Y0274989D01*
X0273794Y0274971D01*
X0273732Y0274958D01*
X0273670Y0274948D01*
X0273608Y0274942D01*
X0273545Y0274940D01*
X0273482Y0274942D01*
X0273420Y0274948D01*
X0273358Y0274958D01*
X0273296Y0274971D01*
X0273236Y0274989D01*
X0273177Y0275010D01*
X0273119Y0275035D01*
X0273063Y0275064D01*
X0273009Y0275096D01*
X0272957Y0275131D01*
X0272908Y0275169D01*
X0272860Y0275211D01*
X0272816Y0275255D01*
X0272774Y0275303D01*
X0272736Y0275352D01*
X0272701Y0275404D01*
X0272669Y0275458D01*
X0272640Y0275514D01*
X0272615Y0275572D01*
X0272594Y0275631D01*
X0272576Y0275691D01*
X0272563Y0275753D01*
X0272553Y0275815D01*
X0272547Y0275877D01*
X0272545Y0275940D01*
X0187333Y0264400D02*
X0187335Y0264463D01*
X0187341Y0264525D01*
X0187351Y0264587D01*
X0187364Y0264649D01*
X0187382Y0264709D01*
X0187403Y0264768D01*
X0187428Y0264826D01*
X0187457Y0264882D01*
X0187489Y0264936D01*
X0187524Y0264988D01*
X0187562Y0265037D01*
X0187604Y0265085D01*
X0187648Y0265129D01*
X0187696Y0265171D01*
X0187745Y0265209D01*
X0187797Y0265244D01*
X0187851Y0265276D01*
X0187907Y0265305D01*
X0187965Y0265330D01*
X0188024Y0265351D01*
X0188084Y0265369D01*
X0188146Y0265382D01*
X0188208Y0265392D01*
X0188270Y0265398D01*
X0188333Y0265400D01*
X0188396Y0265398D01*
X0188458Y0265392D01*
X0188520Y0265382D01*
X0188582Y0265369D01*
X0188642Y0265351D01*
X0188701Y0265330D01*
X0188759Y0265305D01*
X0188815Y0265276D01*
X0188869Y0265244D01*
X0188921Y0265209D01*
X0188970Y0265171D01*
X0189018Y0265129D01*
X0189062Y0265085D01*
X0189104Y0265037D01*
X0189142Y0264988D01*
X0189177Y0264936D01*
X0189209Y0264882D01*
X0189238Y0264826D01*
X0189263Y0264768D01*
X0189284Y0264709D01*
X0189302Y0264649D01*
X0189315Y0264587D01*
X0189325Y0264525D01*
X0189331Y0264463D01*
X0189333Y0264400D01*
X0189331Y0264337D01*
X0189325Y0264275D01*
X0189315Y0264213D01*
X0189302Y0264151D01*
X0189284Y0264091D01*
X0189263Y0264032D01*
X0189238Y0263974D01*
X0189209Y0263918D01*
X0189177Y0263864D01*
X0189142Y0263812D01*
X0189104Y0263763D01*
X0189062Y0263715D01*
X0189018Y0263671D01*
X0188970Y0263629D01*
X0188921Y0263591D01*
X0188869Y0263556D01*
X0188815Y0263524D01*
X0188759Y0263495D01*
X0188701Y0263470D01*
X0188642Y0263449D01*
X0188582Y0263431D01*
X0188520Y0263418D01*
X0188458Y0263408D01*
X0188396Y0263402D01*
X0188333Y0263400D01*
X0188270Y0263402D01*
X0188208Y0263408D01*
X0188146Y0263418D01*
X0188084Y0263431D01*
X0188024Y0263449D01*
X0187965Y0263470D01*
X0187907Y0263495D01*
X0187851Y0263524D01*
X0187797Y0263556D01*
X0187745Y0263591D01*
X0187696Y0263629D01*
X0187648Y0263671D01*
X0187604Y0263715D01*
X0187562Y0263763D01*
X0187524Y0263812D01*
X0187489Y0263864D01*
X0187457Y0263918D01*
X0187428Y0263974D01*
X0187403Y0264032D01*
X0187382Y0264091D01*
X0187364Y0264151D01*
X0187351Y0264213D01*
X0187341Y0264275D01*
X0187335Y0264337D01*
X0187333Y0264400D01*
X0182333Y0264400D02*
X0182335Y0264463D01*
X0182341Y0264525D01*
X0182351Y0264587D01*
X0182364Y0264649D01*
X0182382Y0264709D01*
X0182403Y0264768D01*
X0182428Y0264826D01*
X0182457Y0264882D01*
X0182489Y0264936D01*
X0182524Y0264988D01*
X0182562Y0265037D01*
X0182604Y0265085D01*
X0182648Y0265129D01*
X0182696Y0265171D01*
X0182745Y0265209D01*
X0182797Y0265244D01*
X0182851Y0265276D01*
X0182907Y0265305D01*
X0182965Y0265330D01*
X0183024Y0265351D01*
X0183084Y0265369D01*
X0183146Y0265382D01*
X0183208Y0265392D01*
X0183270Y0265398D01*
X0183333Y0265400D01*
X0183396Y0265398D01*
X0183458Y0265392D01*
X0183520Y0265382D01*
X0183582Y0265369D01*
X0183642Y0265351D01*
X0183701Y0265330D01*
X0183759Y0265305D01*
X0183815Y0265276D01*
X0183869Y0265244D01*
X0183921Y0265209D01*
X0183970Y0265171D01*
X0184018Y0265129D01*
X0184062Y0265085D01*
X0184104Y0265037D01*
X0184142Y0264988D01*
X0184177Y0264936D01*
X0184209Y0264882D01*
X0184238Y0264826D01*
X0184263Y0264768D01*
X0184284Y0264709D01*
X0184302Y0264649D01*
X0184315Y0264587D01*
X0184325Y0264525D01*
X0184331Y0264463D01*
X0184333Y0264400D01*
X0184331Y0264337D01*
X0184325Y0264275D01*
X0184315Y0264213D01*
X0184302Y0264151D01*
X0184284Y0264091D01*
X0184263Y0264032D01*
X0184238Y0263974D01*
X0184209Y0263918D01*
X0184177Y0263864D01*
X0184142Y0263812D01*
X0184104Y0263763D01*
X0184062Y0263715D01*
X0184018Y0263671D01*
X0183970Y0263629D01*
X0183921Y0263591D01*
X0183869Y0263556D01*
X0183815Y0263524D01*
X0183759Y0263495D01*
X0183701Y0263470D01*
X0183642Y0263449D01*
X0183582Y0263431D01*
X0183520Y0263418D01*
X0183458Y0263408D01*
X0183396Y0263402D01*
X0183333Y0263400D01*
X0183270Y0263402D01*
X0183208Y0263408D01*
X0183146Y0263418D01*
X0183084Y0263431D01*
X0183024Y0263449D01*
X0182965Y0263470D01*
X0182907Y0263495D01*
X0182851Y0263524D01*
X0182797Y0263556D01*
X0182745Y0263591D01*
X0182696Y0263629D01*
X0182648Y0263671D01*
X0182604Y0263715D01*
X0182562Y0263763D01*
X0182524Y0263812D01*
X0182489Y0263864D01*
X0182457Y0263918D01*
X0182428Y0263974D01*
X0182403Y0264032D01*
X0182382Y0264091D01*
X0182364Y0264151D01*
X0182351Y0264213D01*
X0182341Y0264275D01*
X0182335Y0264337D01*
X0182333Y0264400D01*
X0177333Y0264400D02*
X0177335Y0264463D01*
X0177341Y0264525D01*
X0177351Y0264587D01*
X0177364Y0264649D01*
X0177382Y0264709D01*
X0177403Y0264768D01*
X0177428Y0264826D01*
X0177457Y0264882D01*
X0177489Y0264936D01*
X0177524Y0264988D01*
X0177562Y0265037D01*
X0177604Y0265085D01*
X0177648Y0265129D01*
X0177696Y0265171D01*
X0177745Y0265209D01*
X0177797Y0265244D01*
X0177851Y0265276D01*
X0177907Y0265305D01*
X0177965Y0265330D01*
X0178024Y0265351D01*
X0178084Y0265369D01*
X0178146Y0265382D01*
X0178208Y0265392D01*
X0178270Y0265398D01*
X0178333Y0265400D01*
X0178396Y0265398D01*
X0178458Y0265392D01*
X0178520Y0265382D01*
X0178582Y0265369D01*
X0178642Y0265351D01*
X0178701Y0265330D01*
X0178759Y0265305D01*
X0178815Y0265276D01*
X0178869Y0265244D01*
X0178921Y0265209D01*
X0178970Y0265171D01*
X0179018Y0265129D01*
X0179062Y0265085D01*
X0179104Y0265037D01*
X0179142Y0264988D01*
X0179177Y0264936D01*
X0179209Y0264882D01*
X0179238Y0264826D01*
X0179263Y0264768D01*
X0179284Y0264709D01*
X0179302Y0264649D01*
X0179315Y0264587D01*
X0179325Y0264525D01*
X0179331Y0264463D01*
X0179333Y0264400D01*
X0179331Y0264337D01*
X0179325Y0264275D01*
X0179315Y0264213D01*
X0179302Y0264151D01*
X0179284Y0264091D01*
X0179263Y0264032D01*
X0179238Y0263974D01*
X0179209Y0263918D01*
X0179177Y0263864D01*
X0179142Y0263812D01*
X0179104Y0263763D01*
X0179062Y0263715D01*
X0179018Y0263671D01*
X0178970Y0263629D01*
X0178921Y0263591D01*
X0178869Y0263556D01*
X0178815Y0263524D01*
X0178759Y0263495D01*
X0178701Y0263470D01*
X0178642Y0263449D01*
X0178582Y0263431D01*
X0178520Y0263418D01*
X0178458Y0263408D01*
X0178396Y0263402D01*
X0178333Y0263400D01*
X0178270Y0263402D01*
X0178208Y0263408D01*
X0178146Y0263418D01*
X0178084Y0263431D01*
X0178024Y0263449D01*
X0177965Y0263470D01*
X0177907Y0263495D01*
X0177851Y0263524D01*
X0177797Y0263556D01*
X0177745Y0263591D01*
X0177696Y0263629D01*
X0177648Y0263671D01*
X0177604Y0263715D01*
X0177562Y0263763D01*
X0177524Y0263812D01*
X0177489Y0263864D01*
X0177457Y0263918D01*
X0177428Y0263974D01*
X0177403Y0264032D01*
X0177382Y0264091D01*
X0177364Y0264151D01*
X0177351Y0264213D01*
X0177341Y0264275D01*
X0177335Y0264337D01*
X0177333Y0264400D01*
X0172333Y0264400D02*
X0172335Y0264463D01*
X0172341Y0264525D01*
X0172351Y0264587D01*
X0172364Y0264649D01*
X0172382Y0264709D01*
X0172403Y0264768D01*
X0172428Y0264826D01*
X0172457Y0264882D01*
X0172489Y0264936D01*
X0172524Y0264988D01*
X0172562Y0265037D01*
X0172604Y0265085D01*
X0172648Y0265129D01*
X0172696Y0265171D01*
X0172745Y0265209D01*
X0172797Y0265244D01*
X0172851Y0265276D01*
X0172907Y0265305D01*
X0172965Y0265330D01*
X0173024Y0265351D01*
X0173084Y0265369D01*
X0173146Y0265382D01*
X0173208Y0265392D01*
X0173270Y0265398D01*
X0173333Y0265400D01*
X0173396Y0265398D01*
X0173458Y0265392D01*
X0173520Y0265382D01*
X0173582Y0265369D01*
X0173642Y0265351D01*
X0173701Y0265330D01*
X0173759Y0265305D01*
X0173815Y0265276D01*
X0173869Y0265244D01*
X0173921Y0265209D01*
X0173970Y0265171D01*
X0174018Y0265129D01*
X0174062Y0265085D01*
X0174104Y0265037D01*
X0174142Y0264988D01*
X0174177Y0264936D01*
X0174209Y0264882D01*
X0174238Y0264826D01*
X0174263Y0264768D01*
X0174284Y0264709D01*
X0174302Y0264649D01*
X0174315Y0264587D01*
X0174325Y0264525D01*
X0174331Y0264463D01*
X0174333Y0264400D01*
X0174331Y0264337D01*
X0174325Y0264275D01*
X0174315Y0264213D01*
X0174302Y0264151D01*
X0174284Y0264091D01*
X0174263Y0264032D01*
X0174238Y0263974D01*
X0174209Y0263918D01*
X0174177Y0263864D01*
X0174142Y0263812D01*
X0174104Y0263763D01*
X0174062Y0263715D01*
X0174018Y0263671D01*
X0173970Y0263629D01*
X0173921Y0263591D01*
X0173869Y0263556D01*
X0173815Y0263524D01*
X0173759Y0263495D01*
X0173701Y0263470D01*
X0173642Y0263449D01*
X0173582Y0263431D01*
X0173520Y0263418D01*
X0173458Y0263408D01*
X0173396Y0263402D01*
X0173333Y0263400D01*
X0173270Y0263402D01*
X0173208Y0263408D01*
X0173146Y0263418D01*
X0173084Y0263431D01*
X0173024Y0263449D01*
X0172965Y0263470D01*
X0172907Y0263495D01*
X0172851Y0263524D01*
X0172797Y0263556D01*
X0172745Y0263591D01*
X0172696Y0263629D01*
X0172648Y0263671D01*
X0172604Y0263715D01*
X0172562Y0263763D01*
X0172524Y0263812D01*
X0172489Y0263864D01*
X0172457Y0263918D01*
X0172428Y0263974D01*
X0172403Y0264032D01*
X0172382Y0264091D01*
X0172364Y0264151D01*
X0172351Y0264213D01*
X0172341Y0264275D01*
X0172335Y0264337D01*
X0172333Y0264400D01*
X0167333Y0264400D02*
X0167335Y0264463D01*
X0167341Y0264525D01*
X0167351Y0264587D01*
X0167364Y0264649D01*
X0167382Y0264709D01*
X0167403Y0264768D01*
X0167428Y0264826D01*
X0167457Y0264882D01*
X0167489Y0264936D01*
X0167524Y0264988D01*
X0167562Y0265037D01*
X0167604Y0265085D01*
X0167648Y0265129D01*
X0167696Y0265171D01*
X0167745Y0265209D01*
X0167797Y0265244D01*
X0167851Y0265276D01*
X0167907Y0265305D01*
X0167965Y0265330D01*
X0168024Y0265351D01*
X0168084Y0265369D01*
X0168146Y0265382D01*
X0168208Y0265392D01*
X0168270Y0265398D01*
X0168333Y0265400D01*
X0168396Y0265398D01*
X0168458Y0265392D01*
X0168520Y0265382D01*
X0168582Y0265369D01*
X0168642Y0265351D01*
X0168701Y0265330D01*
X0168759Y0265305D01*
X0168815Y0265276D01*
X0168869Y0265244D01*
X0168921Y0265209D01*
X0168970Y0265171D01*
X0169018Y0265129D01*
X0169062Y0265085D01*
X0169104Y0265037D01*
X0169142Y0264988D01*
X0169177Y0264936D01*
X0169209Y0264882D01*
X0169238Y0264826D01*
X0169263Y0264768D01*
X0169284Y0264709D01*
X0169302Y0264649D01*
X0169315Y0264587D01*
X0169325Y0264525D01*
X0169331Y0264463D01*
X0169333Y0264400D01*
X0169331Y0264337D01*
X0169325Y0264275D01*
X0169315Y0264213D01*
X0169302Y0264151D01*
X0169284Y0264091D01*
X0169263Y0264032D01*
X0169238Y0263974D01*
X0169209Y0263918D01*
X0169177Y0263864D01*
X0169142Y0263812D01*
X0169104Y0263763D01*
X0169062Y0263715D01*
X0169018Y0263671D01*
X0168970Y0263629D01*
X0168921Y0263591D01*
X0168869Y0263556D01*
X0168815Y0263524D01*
X0168759Y0263495D01*
X0168701Y0263470D01*
X0168642Y0263449D01*
X0168582Y0263431D01*
X0168520Y0263418D01*
X0168458Y0263408D01*
X0168396Y0263402D01*
X0168333Y0263400D01*
X0168270Y0263402D01*
X0168208Y0263408D01*
X0168146Y0263418D01*
X0168084Y0263431D01*
X0168024Y0263449D01*
X0167965Y0263470D01*
X0167907Y0263495D01*
X0167851Y0263524D01*
X0167797Y0263556D01*
X0167745Y0263591D01*
X0167696Y0263629D01*
X0167648Y0263671D01*
X0167604Y0263715D01*
X0167562Y0263763D01*
X0167524Y0263812D01*
X0167489Y0263864D01*
X0167457Y0263918D01*
X0167428Y0263974D01*
X0167403Y0264032D01*
X0167382Y0264091D01*
X0167364Y0264151D01*
X0167351Y0264213D01*
X0167341Y0264275D01*
X0167335Y0264337D01*
X0167333Y0264400D01*
X0162333Y0264400D02*
X0162335Y0264463D01*
X0162341Y0264525D01*
X0162351Y0264587D01*
X0162364Y0264649D01*
X0162382Y0264709D01*
X0162403Y0264768D01*
X0162428Y0264826D01*
X0162457Y0264882D01*
X0162489Y0264936D01*
X0162524Y0264988D01*
X0162562Y0265037D01*
X0162604Y0265085D01*
X0162648Y0265129D01*
X0162696Y0265171D01*
X0162745Y0265209D01*
X0162797Y0265244D01*
X0162851Y0265276D01*
X0162907Y0265305D01*
X0162965Y0265330D01*
X0163024Y0265351D01*
X0163084Y0265369D01*
X0163146Y0265382D01*
X0163208Y0265392D01*
X0163270Y0265398D01*
X0163333Y0265400D01*
X0163396Y0265398D01*
X0163458Y0265392D01*
X0163520Y0265382D01*
X0163582Y0265369D01*
X0163642Y0265351D01*
X0163701Y0265330D01*
X0163759Y0265305D01*
X0163815Y0265276D01*
X0163869Y0265244D01*
X0163921Y0265209D01*
X0163970Y0265171D01*
X0164018Y0265129D01*
X0164062Y0265085D01*
X0164104Y0265037D01*
X0164142Y0264988D01*
X0164177Y0264936D01*
X0164209Y0264882D01*
X0164238Y0264826D01*
X0164263Y0264768D01*
X0164284Y0264709D01*
X0164302Y0264649D01*
X0164315Y0264587D01*
X0164325Y0264525D01*
X0164331Y0264463D01*
X0164333Y0264400D01*
X0164331Y0264337D01*
X0164325Y0264275D01*
X0164315Y0264213D01*
X0164302Y0264151D01*
X0164284Y0264091D01*
X0164263Y0264032D01*
X0164238Y0263974D01*
X0164209Y0263918D01*
X0164177Y0263864D01*
X0164142Y0263812D01*
X0164104Y0263763D01*
X0164062Y0263715D01*
X0164018Y0263671D01*
X0163970Y0263629D01*
X0163921Y0263591D01*
X0163869Y0263556D01*
X0163815Y0263524D01*
X0163759Y0263495D01*
X0163701Y0263470D01*
X0163642Y0263449D01*
X0163582Y0263431D01*
X0163520Y0263418D01*
X0163458Y0263408D01*
X0163396Y0263402D01*
X0163333Y0263400D01*
X0163270Y0263402D01*
X0163208Y0263408D01*
X0163146Y0263418D01*
X0163084Y0263431D01*
X0163024Y0263449D01*
X0162965Y0263470D01*
X0162907Y0263495D01*
X0162851Y0263524D01*
X0162797Y0263556D01*
X0162745Y0263591D01*
X0162696Y0263629D01*
X0162648Y0263671D01*
X0162604Y0263715D01*
X0162562Y0263763D01*
X0162524Y0263812D01*
X0162489Y0263864D01*
X0162457Y0263918D01*
X0162428Y0263974D01*
X0162403Y0264032D01*
X0162382Y0264091D01*
X0162364Y0264151D01*
X0162351Y0264213D01*
X0162341Y0264275D01*
X0162335Y0264337D01*
X0162333Y0264400D01*
D12*
X0211133Y0336700D02*
X0211133Y0343100D01*
X0212911Y0343100D01*
X0212994Y0343098D01*
X0213077Y0343092D01*
X0213160Y0343082D01*
X0213243Y0343069D01*
X0213324Y0343051D01*
X0213405Y0343030D01*
X0213484Y0343005D01*
X0213562Y0342976D01*
X0213639Y0342944D01*
X0213714Y0342908D01*
X0213788Y0342869D01*
X0213859Y0342826D01*
X0213929Y0342780D01*
X0213996Y0342730D01*
X0214061Y0342678D01*
X0214123Y0342623D01*
X0214183Y0342564D01*
X0214240Y0342503D01*
X0214294Y0342440D01*
X0214345Y0342374D01*
X0214392Y0342305D01*
X0214437Y0342235D01*
X0214478Y0342162D01*
X0214515Y0342088D01*
X0214550Y0342012D01*
X0214580Y0341934D01*
X0214607Y0341856D01*
X0214630Y0341775D01*
X0214650Y0341694D01*
X0214665Y0341612D01*
X0214677Y0341530D01*
X0214685Y0341447D01*
X0214689Y0341364D01*
X0214689Y0341280D01*
X0214685Y0341197D01*
X0214677Y0341114D01*
X0214665Y0341032D01*
X0214650Y0340950D01*
X0214630Y0340869D01*
X0214607Y0340788D01*
X0214580Y0340710D01*
X0214550Y0340632D01*
X0214515Y0340556D01*
X0214478Y0340482D01*
X0214437Y0340409D01*
X0214392Y0340339D01*
X0214345Y0340270D01*
X0214294Y0340204D01*
X0214240Y0340141D01*
X0214183Y0340080D01*
X0214123Y0340021D01*
X0214061Y0339966D01*
X0213996Y0339914D01*
X0213929Y0339864D01*
X0213859Y0339818D01*
X0213788Y0339775D01*
X0213714Y0339736D01*
X0213639Y0339700D01*
X0213562Y0339668D01*
X0213484Y0339639D01*
X0213405Y0339614D01*
X0213324Y0339593D01*
X0213243Y0339575D01*
X0213160Y0339562D01*
X0213077Y0339552D01*
X0212994Y0339546D01*
X0212911Y0339544D01*
X0211133Y0339544D01*
X0213267Y0339544D02*
X0214689Y0336700D01*
X0217251Y0338478D02*
X0217251Y0341322D01*
X0217253Y0341405D01*
X0217259Y0341488D01*
X0217269Y0341571D01*
X0217282Y0341654D01*
X0217300Y0341735D01*
X0217321Y0341816D01*
X0217346Y0341895D01*
X0217375Y0341973D01*
X0217407Y0342050D01*
X0217443Y0342125D01*
X0217482Y0342199D01*
X0217525Y0342270D01*
X0217571Y0342340D01*
X0217621Y0342407D01*
X0217673Y0342472D01*
X0217728Y0342534D01*
X0217787Y0342594D01*
X0217848Y0342651D01*
X0217911Y0342705D01*
X0217977Y0342756D01*
X0218046Y0342803D01*
X0218116Y0342848D01*
X0218189Y0342889D01*
X0218263Y0342926D01*
X0218339Y0342961D01*
X0218417Y0342991D01*
X0218495Y0343018D01*
X0218576Y0343041D01*
X0218657Y0343061D01*
X0218739Y0343076D01*
X0218821Y0343088D01*
X0218904Y0343096D01*
X0218987Y0343100D01*
X0219071Y0343100D01*
X0219154Y0343096D01*
X0219237Y0343088D01*
X0219319Y0343076D01*
X0219401Y0343061D01*
X0219482Y0343041D01*
X0219563Y0343018D01*
X0219641Y0342991D01*
X0219719Y0342961D01*
X0219795Y0342926D01*
X0219869Y0342889D01*
X0219942Y0342848D01*
X0220012Y0342803D01*
X0220081Y0342756D01*
X0220147Y0342705D01*
X0220210Y0342651D01*
X0220271Y0342594D01*
X0220330Y0342534D01*
X0220385Y0342472D01*
X0220437Y0342407D01*
X0220487Y0342340D01*
X0220533Y0342270D01*
X0220576Y0342199D01*
X0220615Y0342125D01*
X0220651Y0342050D01*
X0220683Y0341973D01*
X0220712Y0341895D01*
X0220737Y0341816D01*
X0220758Y0341735D01*
X0220776Y0341654D01*
X0220789Y0341571D01*
X0220799Y0341488D01*
X0220805Y0341405D01*
X0220807Y0341322D01*
X0220807Y0338478D01*
X0220805Y0338395D01*
X0220799Y0338312D01*
X0220789Y0338229D01*
X0220776Y0338146D01*
X0220758Y0338065D01*
X0220737Y0337984D01*
X0220712Y0337905D01*
X0220683Y0337827D01*
X0220651Y0337750D01*
X0220615Y0337675D01*
X0220576Y0337601D01*
X0220533Y0337530D01*
X0220487Y0337460D01*
X0220437Y0337393D01*
X0220385Y0337328D01*
X0220330Y0337266D01*
X0220271Y0337206D01*
X0220210Y0337149D01*
X0220147Y0337095D01*
X0220081Y0337044D01*
X0220012Y0336997D01*
X0219942Y0336952D01*
X0219869Y0336911D01*
X0219795Y0336874D01*
X0219719Y0336839D01*
X0219641Y0336809D01*
X0219563Y0336782D01*
X0219482Y0336759D01*
X0219401Y0336739D01*
X0219319Y0336724D01*
X0219237Y0336712D01*
X0219154Y0336704D01*
X0219071Y0336700D01*
X0218987Y0336700D01*
X0218904Y0336704D01*
X0218821Y0336712D01*
X0218739Y0336724D01*
X0218657Y0336739D01*
X0218576Y0336759D01*
X0218495Y0336782D01*
X0218417Y0336809D01*
X0218339Y0336839D01*
X0218263Y0336874D01*
X0218189Y0336911D01*
X0218116Y0336952D01*
X0218046Y0336997D01*
X0217977Y0337044D01*
X0217911Y0337095D01*
X0217848Y0337149D01*
X0217787Y0337206D01*
X0217728Y0337266D01*
X0217673Y0337328D01*
X0217621Y0337393D01*
X0217571Y0337460D01*
X0217525Y0337530D01*
X0217482Y0337601D01*
X0217443Y0337675D01*
X0217407Y0337750D01*
X0217375Y0337827D01*
X0217346Y0337905D01*
X0217321Y0337984D01*
X0217300Y0338065D01*
X0217282Y0338146D01*
X0217269Y0338229D01*
X0217259Y0338312D01*
X0217253Y0338395D01*
X0217251Y0338478D01*
X0223610Y0338478D02*
X0223610Y0343100D01*
X0227166Y0343100D02*
X0227166Y0338478D01*
X0227164Y0338395D01*
X0227158Y0338312D01*
X0227148Y0338229D01*
X0227135Y0338146D01*
X0227117Y0338065D01*
X0227096Y0337984D01*
X0227071Y0337905D01*
X0227042Y0337827D01*
X0227010Y0337750D01*
X0226974Y0337675D01*
X0226935Y0337601D01*
X0226892Y0337530D01*
X0226846Y0337460D01*
X0226796Y0337393D01*
X0226744Y0337328D01*
X0226689Y0337266D01*
X0226630Y0337206D01*
X0226569Y0337149D01*
X0226506Y0337095D01*
X0226440Y0337044D01*
X0226371Y0336997D01*
X0226301Y0336952D01*
X0226228Y0336911D01*
X0226154Y0336874D01*
X0226078Y0336839D01*
X0226000Y0336809D01*
X0225922Y0336782D01*
X0225841Y0336759D01*
X0225760Y0336739D01*
X0225678Y0336724D01*
X0225596Y0336712D01*
X0225513Y0336704D01*
X0225430Y0336700D01*
X0225346Y0336700D01*
X0225263Y0336704D01*
X0225180Y0336712D01*
X0225098Y0336724D01*
X0225016Y0336739D01*
X0224935Y0336759D01*
X0224854Y0336782D01*
X0224776Y0336809D01*
X0224698Y0336839D01*
X0224622Y0336874D01*
X0224548Y0336911D01*
X0224475Y0336952D01*
X0224405Y0336997D01*
X0224336Y0337044D01*
X0224270Y0337095D01*
X0224207Y0337149D01*
X0224146Y0337206D01*
X0224087Y0337266D01*
X0224032Y0337328D01*
X0223980Y0337393D01*
X0223930Y0337460D01*
X0223884Y0337530D01*
X0223841Y0337601D01*
X0223802Y0337675D01*
X0223766Y0337750D01*
X0223734Y0337827D01*
X0223705Y0337905D01*
X0223680Y0337984D01*
X0223659Y0338065D01*
X0223641Y0338146D01*
X0223628Y0338229D01*
X0223618Y0338312D01*
X0223612Y0338395D01*
X0223610Y0338478D01*
X0229559Y0343100D02*
X0233115Y0343100D01*
X0231337Y0343100D02*
X0231337Y0336700D01*
X0235520Y0336700D02*
X0235520Y0343100D01*
X0238364Y0343100D01*
X0237653Y0340256D02*
X0235520Y0340256D01*
X0235520Y0336700D02*
X0238364Y0336700D01*
X0243919Y0338478D02*
X0243919Y0341322D01*
X0243921Y0341405D01*
X0243927Y0341488D01*
X0243937Y0341571D01*
X0243950Y0341654D01*
X0243968Y0341735D01*
X0243989Y0341816D01*
X0244014Y0341895D01*
X0244043Y0341973D01*
X0244075Y0342050D01*
X0244111Y0342125D01*
X0244150Y0342199D01*
X0244193Y0342270D01*
X0244239Y0342340D01*
X0244289Y0342407D01*
X0244341Y0342472D01*
X0244396Y0342534D01*
X0244455Y0342594D01*
X0244516Y0342651D01*
X0244579Y0342705D01*
X0244645Y0342756D01*
X0244714Y0342803D01*
X0244784Y0342848D01*
X0244857Y0342889D01*
X0244931Y0342926D01*
X0245007Y0342961D01*
X0245085Y0342991D01*
X0245163Y0343018D01*
X0245244Y0343041D01*
X0245325Y0343061D01*
X0245407Y0343076D01*
X0245489Y0343088D01*
X0245572Y0343096D01*
X0245655Y0343100D01*
X0245739Y0343100D01*
X0245822Y0343096D01*
X0245905Y0343088D01*
X0245987Y0343076D01*
X0246069Y0343061D01*
X0246150Y0343041D01*
X0246231Y0343018D01*
X0246309Y0342991D01*
X0246387Y0342961D01*
X0246463Y0342926D01*
X0246537Y0342889D01*
X0246610Y0342848D01*
X0246680Y0342803D01*
X0246749Y0342756D01*
X0246815Y0342705D01*
X0246878Y0342651D01*
X0246939Y0342594D01*
X0246998Y0342534D01*
X0247053Y0342472D01*
X0247105Y0342407D01*
X0247155Y0342340D01*
X0247201Y0342270D01*
X0247244Y0342199D01*
X0247283Y0342125D01*
X0247319Y0342050D01*
X0247351Y0341973D01*
X0247380Y0341895D01*
X0247405Y0341816D01*
X0247426Y0341735D01*
X0247444Y0341654D01*
X0247457Y0341571D01*
X0247467Y0341488D01*
X0247473Y0341405D01*
X0247475Y0341322D01*
X0247474Y0341322D02*
X0247474Y0338478D01*
X0247475Y0338478D02*
X0247473Y0338395D01*
X0247467Y0338312D01*
X0247457Y0338229D01*
X0247444Y0338146D01*
X0247426Y0338065D01*
X0247405Y0337984D01*
X0247380Y0337905D01*
X0247351Y0337827D01*
X0247319Y0337750D01*
X0247283Y0337675D01*
X0247244Y0337601D01*
X0247201Y0337530D01*
X0247155Y0337460D01*
X0247105Y0337393D01*
X0247053Y0337328D01*
X0246998Y0337266D01*
X0246939Y0337206D01*
X0246878Y0337149D01*
X0246815Y0337095D01*
X0246749Y0337044D01*
X0246680Y0336997D01*
X0246610Y0336952D01*
X0246537Y0336911D01*
X0246463Y0336874D01*
X0246387Y0336839D01*
X0246309Y0336809D01*
X0246231Y0336782D01*
X0246150Y0336759D01*
X0246069Y0336739D01*
X0245987Y0336724D01*
X0245905Y0336712D01*
X0245822Y0336704D01*
X0245739Y0336700D01*
X0245655Y0336700D01*
X0245572Y0336704D01*
X0245489Y0336712D01*
X0245407Y0336724D01*
X0245325Y0336739D01*
X0245244Y0336759D01*
X0245163Y0336782D01*
X0245085Y0336809D01*
X0245007Y0336839D01*
X0244931Y0336874D01*
X0244857Y0336911D01*
X0244784Y0336952D01*
X0244714Y0336997D01*
X0244645Y0337044D01*
X0244579Y0337095D01*
X0244516Y0337149D01*
X0244455Y0337206D01*
X0244396Y0337266D01*
X0244341Y0337328D01*
X0244289Y0337393D01*
X0244239Y0337460D01*
X0244193Y0337530D01*
X0244150Y0337601D01*
X0244111Y0337675D01*
X0244075Y0337750D01*
X0244043Y0337827D01*
X0244014Y0337905D01*
X0243989Y0337984D01*
X0243968Y0338065D01*
X0243950Y0338146D01*
X0243937Y0338229D01*
X0243927Y0338312D01*
X0243921Y0338395D01*
X0243919Y0338478D01*
X0250278Y0338478D02*
X0250278Y0343100D01*
X0253833Y0343100D02*
X0253833Y0338478D01*
X0253834Y0338478D02*
X0253832Y0338395D01*
X0253826Y0338312D01*
X0253816Y0338229D01*
X0253803Y0338146D01*
X0253785Y0338065D01*
X0253764Y0337984D01*
X0253739Y0337905D01*
X0253710Y0337827D01*
X0253678Y0337750D01*
X0253642Y0337675D01*
X0253603Y0337601D01*
X0253560Y0337530D01*
X0253514Y0337460D01*
X0253464Y0337393D01*
X0253412Y0337328D01*
X0253357Y0337266D01*
X0253298Y0337206D01*
X0253237Y0337149D01*
X0253174Y0337095D01*
X0253108Y0337044D01*
X0253039Y0336997D01*
X0252969Y0336952D01*
X0252896Y0336911D01*
X0252822Y0336874D01*
X0252746Y0336839D01*
X0252668Y0336809D01*
X0252590Y0336782D01*
X0252509Y0336759D01*
X0252428Y0336739D01*
X0252346Y0336724D01*
X0252264Y0336712D01*
X0252181Y0336704D01*
X0252098Y0336700D01*
X0252014Y0336700D01*
X0251931Y0336704D01*
X0251848Y0336712D01*
X0251766Y0336724D01*
X0251684Y0336739D01*
X0251603Y0336759D01*
X0251522Y0336782D01*
X0251444Y0336809D01*
X0251366Y0336839D01*
X0251290Y0336874D01*
X0251216Y0336911D01*
X0251143Y0336952D01*
X0251073Y0336997D01*
X0251004Y0337044D01*
X0250938Y0337095D01*
X0250875Y0337149D01*
X0250814Y0337206D01*
X0250755Y0337266D01*
X0250700Y0337328D01*
X0250648Y0337393D01*
X0250598Y0337460D01*
X0250552Y0337530D01*
X0250509Y0337601D01*
X0250470Y0337675D01*
X0250434Y0337750D01*
X0250402Y0337827D01*
X0250373Y0337905D01*
X0250348Y0337984D01*
X0250327Y0338065D01*
X0250309Y0338146D01*
X0250296Y0338229D01*
X0250286Y0338312D01*
X0250280Y0338395D01*
X0250278Y0338478D01*
X0256227Y0343100D02*
X0259782Y0343100D01*
X0258005Y0343100D02*
X0258005Y0336700D01*
X0144782Y0443100D02*
X0141227Y0443100D01*
X0143005Y0443100D02*
X0143005Y0436700D01*
X0138833Y0438478D02*
X0138833Y0443100D01*
X0135278Y0443100D02*
X0135278Y0438478D01*
X0135280Y0438395D01*
X0135286Y0438312D01*
X0135296Y0438229D01*
X0135309Y0438146D01*
X0135327Y0438065D01*
X0135348Y0437984D01*
X0135373Y0437905D01*
X0135402Y0437827D01*
X0135434Y0437750D01*
X0135470Y0437675D01*
X0135509Y0437601D01*
X0135552Y0437530D01*
X0135598Y0437460D01*
X0135648Y0437393D01*
X0135700Y0437328D01*
X0135755Y0437266D01*
X0135814Y0437206D01*
X0135875Y0437149D01*
X0135938Y0437095D01*
X0136004Y0437044D01*
X0136073Y0436997D01*
X0136143Y0436952D01*
X0136216Y0436911D01*
X0136290Y0436874D01*
X0136366Y0436839D01*
X0136444Y0436809D01*
X0136522Y0436782D01*
X0136603Y0436759D01*
X0136684Y0436739D01*
X0136766Y0436724D01*
X0136848Y0436712D01*
X0136931Y0436704D01*
X0137014Y0436700D01*
X0137098Y0436700D01*
X0137181Y0436704D01*
X0137264Y0436712D01*
X0137346Y0436724D01*
X0137428Y0436739D01*
X0137509Y0436759D01*
X0137590Y0436782D01*
X0137668Y0436809D01*
X0137746Y0436839D01*
X0137822Y0436874D01*
X0137896Y0436911D01*
X0137969Y0436952D01*
X0138039Y0436997D01*
X0138108Y0437044D01*
X0138174Y0437095D01*
X0138237Y0437149D01*
X0138298Y0437206D01*
X0138357Y0437266D01*
X0138412Y0437328D01*
X0138464Y0437393D01*
X0138514Y0437460D01*
X0138560Y0437530D01*
X0138603Y0437601D01*
X0138642Y0437675D01*
X0138678Y0437750D01*
X0138710Y0437827D01*
X0138739Y0437905D01*
X0138764Y0437984D01*
X0138785Y0438065D01*
X0138803Y0438146D01*
X0138816Y0438229D01*
X0138826Y0438312D01*
X0138832Y0438395D01*
X0138834Y0438478D01*
X0132474Y0438478D02*
X0132474Y0441322D01*
X0132475Y0441322D02*
X0132473Y0441405D01*
X0132467Y0441488D01*
X0132457Y0441571D01*
X0132444Y0441654D01*
X0132426Y0441735D01*
X0132405Y0441816D01*
X0132380Y0441895D01*
X0132351Y0441973D01*
X0132319Y0442050D01*
X0132283Y0442125D01*
X0132244Y0442199D01*
X0132201Y0442270D01*
X0132155Y0442340D01*
X0132105Y0442407D01*
X0132053Y0442472D01*
X0131998Y0442534D01*
X0131939Y0442594D01*
X0131878Y0442651D01*
X0131815Y0442705D01*
X0131749Y0442756D01*
X0131680Y0442803D01*
X0131610Y0442848D01*
X0131537Y0442889D01*
X0131463Y0442926D01*
X0131387Y0442961D01*
X0131309Y0442991D01*
X0131231Y0443018D01*
X0131150Y0443041D01*
X0131069Y0443061D01*
X0130987Y0443076D01*
X0130905Y0443088D01*
X0130822Y0443096D01*
X0130739Y0443100D01*
X0130655Y0443100D01*
X0130572Y0443096D01*
X0130489Y0443088D01*
X0130407Y0443076D01*
X0130325Y0443061D01*
X0130244Y0443041D01*
X0130163Y0443018D01*
X0130085Y0442991D01*
X0130007Y0442961D01*
X0129931Y0442926D01*
X0129857Y0442889D01*
X0129784Y0442848D01*
X0129714Y0442803D01*
X0129645Y0442756D01*
X0129579Y0442705D01*
X0129516Y0442651D01*
X0129455Y0442594D01*
X0129396Y0442534D01*
X0129341Y0442472D01*
X0129289Y0442407D01*
X0129239Y0442340D01*
X0129193Y0442270D01*
X0129150Y0442199D01*
X0129111Y0442125D01*
X0129075Y0442050D01*
X0129043Y0441973D01*
X0129014Y0441895D01*
X0128989Y0441816D01*
X0128968Y0441735D01*
X0128950Y0441654D01*
X0128937Y0441571D01*
X0128927Y0441488D01*
X0128921Y0441405D01*
X0128919Y0441322D01*
X0128919Y0438478D01*
X0128921Y0438395D01*
X0128927Y0438312D01*
X0128937Y0438229D01*
X0128950Y0438146D01*
X0128968Y0438065D01*
X0128989Y0437984D01*
X0129014Y0437905D01*
X0129043Y0437827D01*
X0129075Y0437750D01*
X0129111Y0437675D01*
X0129150Y0437601D01*
X0129193Y0437530D01*
X0129239Y0437460D01*
X0129289Y0437393D01*
X0129341Y0437328D01*
X0129396Y0437266D01*
X0129455Y0437206D01*
X0129516Y0437149D01*
X0129579Y0437095D01*
X0129645Y0437044D01*
X0129714Y0436997D01*
X0129784Y0436952D01*
X0129857Y0436911D01*
X0129931Y0436874D01*
X0130007Y0436839D01*
X0130085Y0436809D01*
X0130163Y0436782D01*
X0130244Y0436759D01*
X0130325Y0436739D01*
X0130407Y0436724D01*
X0130489Y0436712D01*
X0130572Y0436704D01*
X0130655Y0436700D01*
X0130739Y0436700D01*
X0130822Y0436704D01*
X0130905Y0436712D01*
X0130987Y0436724D01*
X0131069Y0436739D01*
X0131150Y0436759D01*
X0131231Y0436782D01*
X0131309Y0436809D01*
X0131387Y0436839D01*
X0131463Y0436874D01*
X0131537Y0436911D01*
X0131610Y0436952D01*
X0131680Y0436997D01*
X0131749Y0437044D01*
X0131815Y0437095D01*
X0131878Y0437149D01*
X0131939Y0437206D01*
X0131998Y0437266D01*
X0132053Y0437328D01*
X0132105Y0437393D01*
X0132155Y0437460D01*
X0132201Y0437530D01*
X0132244Y0437601D01*
X0132283Y0437675D01*
X0132319Y0437750D01*
X0132351Y0437827D01*
X0132380Y0437905D01*
X0132405Y0437984D01*
X0132426Y0438065D01*
X0132444Y0438146D01*
X0132457Y0438229D01*
X0132467Y0438312D01*
X0132473Y0438395D01*
X0132475Y0438478D01*
X0123364Y0436700D02*
X0120520Y0436700D01*
X0120520Y0443100D01*
X0123364Y0443100D01*
X0122653Y0440256D02*
X0120520Y0440256D01*
X0118115Y0443100D02*
X0114559Y0443100D01*
X0116337Y0443100D02*
X0116337Y0436700D01*
X0112166Y0438478D02*
X0112166Y0443100D01*
X0108610Y0443100D02*
X0108610Y0438478D01*
X0108612Y0438395D01*
X0108618Y0438312D01*
X0108628Y0438229D01*
X0108641Y0438146D01*
X0108659Y0438065D01*
X0108680Y0437984D01*
X0108705Y0437905D01*
X0108734Y0437827D01*
X0108766Y0437750D01*
X0108802Y0437675D01*
X0108841Y0437601D01*
X0108884Y0437530D01*
X0108930Y0437460D01*
X0108980Y0437393D01*
X0109032Y0437328D01*
X0109087Y0437266D01*
X0109146Y0437206D01*
X0109207Y0437149D01*
X0109270Y0437095D01*
X0109336Y0437044D01*
X0109405Y0436997D01*
X0109475Y0436952D01*
X0109548Y0436911D01*
X0109622Y0436874D01*
X0109698Y0436839D01*
X0109776Y0436809D01*
X0109854Y0436782D01*
X0109935Y0436759D01*
X0110016Y0436739D01*
X0110098Y0436724D01*
X0110180Y0436712D01*
X0110263Y0436704D01*
X0110346Y0436700D01*
X0110430Y0436700D01*
X0110513Y0436704D01*
X0110596Y0436712D01*
X0110678Y0436724D01*
X0110760Y0436739D01*
X0110841Y0436759D01*
X0110922Y0436782D01*
X0111000Y0436809D01*
X0111078Y0436839D01*
X0111154Y0436874D01*
X0111228Y0436911D01*
X0111301Y0436952D01*
X0111371Y0436997D01*
X0111440Y0437044D01*
X0111506Y0437095D01*
X0111569Y0437149D01*
X0111630Y0437206D01*
X0111689Y0437266D01*
X0111744Y0437328D01*
X0111796Y0437393D01*
X0111846Y0437460D01*
X0111892Y0437530D01*
X0111935Y0437601D01*
X0111974Y0437675D01*
X0112010Y0437750D01*
X0112042Y0437827D01*
X0112071Y0437905D01*
X0112096Y0437984D01*
X0112117Y0438065D01*
X0112135Y0438146D01*
X0112148Y0438229D01*
X0112158Y0438312D01*
X0112164Y0438395D01*
X0112166Y0438478D01*
X0105807Y0438478D02*
X0105807Y0441322D01*
X0105805Y0441405D01*
X0105799Y0441488D01*
X0105789Y0441571D01*
X0105776Y0441654D01*
X0105758Y0441735D01*
X0105737Y0441816D01*
X0105712Y0441895D01*
X0105683Y0441973D01*
X0105651Y0442050D01*
X0105615Y0442125D01*
X0105576Y0442199D01*
X0105533Y0442270D01*
X0105487Y0442340D01*
X0105437Y0442407D01*
X0105385Y0442472D01*
X0105330Y0442534D01*
X0105271Y0442594D01*
X0105210Y0442651D01*
X0105147Y0442705D01*
X0105081Y0442756D01*
X0105012Y0442803D01*
X0104942Y0442848D01*
X0104869Y0442889D01*
X0104795Y0442926D01*
X0104719Y0442961D01*
X0104641Y0442991D01*
X0104563Y0443018D01*
X0104482Y0443041D01*
X0104401Y0443061D01*
X0104319Y0443076D01*
X0104237Y0443088D01*
X0104154Y0443096D01*
X0104071Y0443100D01*
X0103987Y0443100D01*
X0103904Y0443096D01*
X0103821Y0443088D01*
X0103739Y0443076D01*
X0103657Y0443061D01*
X0103576Y0443041D01*
X0103495Y0443018D01*
X0103417Y0442991D01*
X0103339Y0442961D01*
X0103263Y0442926D01*
X0103189Y0442889D01*
X0103116Y0442848D01*
X0103046Y0442803D01*
X0102977Y0442756D01*
X0102911Y0442705D01*
X0102848Y0442651D01*
X0102787Y0442594D01*
X0102728Y0442534D01*
X0102673Y0442472D01*
X0102621Y0442407D01*
X0102571Y0442340D01*
X0102525Y0442270D01*
X0102482Y0442199D01*
X0102443Y0442125D01*
X0102407Y0442050D01*
X0102375Y0441973D01*
X0102346Y0441895D01*
X0102321Y0441816D01*
X0102300Y0441735D01*
X0102282Y0441654D01*
X0102269Y0441571D01*
X0102259Y0441488D01*
X0102253Y0441405D01*
X0102251Y0441322D01*
X0102251Y0438478D01*
X0102253Y0438395D01*
X0102259Y0438312D01*
X0102269Y0438229D01*
X0102282Y0438146D01*
X0102300Y0438065D01*
X0102321Y0437984D01*
X0102346Y0437905D01*
X0102375Y0437827D01*
X0102407Y0437750D01*
X0102443Y0437675D01*
X0102482Y0437601D01*
X0102525Y0437530D01*
X0102571Y0437460D01*
X0102621Y0437393D01*
X0102673Y0437328D01*
X0102728Y0437266D01*
X0102787Y0437206D01*
X0102848Y0437149D01*
X0102911Y0437095D01*
X0102977Y0437044D01*
X0103046Y0436997D01*
X0103116Y0436952D01*
X0103189Y0436911D01*
X0103263Y0436874D01*
X0103339Y0436839D01*
X0103417Y0436809D01*
X0103495Y0436782D01*
X0103576Y0436759D01*
X0103657Y0436739D01*
X0103739Y0436724D01*
X0103821Y0436712D01*
X0103904Y0436704D01*
X0103987Y0436700D01*
X0104071Y0436700D01*
X0104154Y0436704D01*
X0104237Y0436712D01*
X0104319Y0436724D01*
X0104401Y0436739D01*
X0104482Y0436759D01*
X0104563Y0436782D01*
X0104641Y0436809D01*
X0104719Y0436839D01*
X0104795Y0436874D01*
X0104869Y0436911D01*
X0104942Y0436952D01*
X0105012Y0436997D01*
X0105081Y0437044D01*
X0105147Y0437095D01*
X0105210Y0437149D01*
X0105271Y0437206D01*
X0105330Y0437266D01*
X0105385Y0437328D01*
X0105437Y0437393D01*
X0105487Y0437460D01*
X0105533Y0437530D01*
X0105576Y0437601D01*
X0105615Y0437675D01*
X0105651Y0437750D01*
X0105683Y0437827D01*
X0105712Y0437905D01*
X0105737Y0437984D01*
X0105758Y0438065D01*
X0105776Y0438146D01*
X0105789Y0438229D01*
X0105799Y0438312D01*
X0105805Y0438395D01*
X0105807Y0438478D01*
X0099689Y0436700D02*
X0098267Y0439544D01*
X0097911Y0439544D02*
X0096133Y0439544D01*
X0097911Y0439544D02*
X0097994Y0439546D01*
X0098077Y0439552D01*
X0098160Y0439562D01*
X0098243Y0439575D01*
X0098324Y0439593D01*
X0098405Y0439614D01*
X0098484Y0439639D01*
X0098562Y0439668D01*
X0098639Y0439700D01*
X0098714Y0439736D01*
X0098788Y0439775D01*
X0098859Y0439818D01*
X0098929Y0439864D01*
X0098996Y0439914D01*
X0099061Y0439966D01*
X0099123Y0440021D01*
X0099183Y0440080D01*
X0099240Y0440141D01*
X0099294Y0440204D01*
X0099345Y0440270D01*
X0099392Y0440339D01*
X0099437Y0440409D01*
X0099478Y0440482D01*
X0099515Y0440556D01*
X0099550Y0440632D01*
X0099580Y0440710D01*
X0099607Y0440788D01*
X0099630Y0440869D01*
X0099650Y0440950D01*
X0099665Y0441032D01*
X0099677Y0441114D01*
X0099685Y0441197D01*
X0099689Y0441280D01*
X0099689Y0441364D01*
X0099685Y0441447D01*
X0099677Y0441530D01*
X0099665Y0441612D01*
X0099650Y0441694D01*
X0099630Y0441775D01*
X0099607Y0441856D01*
X0099580Y0441934D01*
X0099550Y0442012D01*
X0099515Y0442088D01*
X0099478Y0442162D01*
X0099437Y0442235D01*
X0099392Y0442305D01*
X0099345Y0442374D01*
X0099294Y0442440D01*
X0099240Y0442503D01*
X0099183Y0442564D01*
X0099123Y0442623D01*
X0099061Y0442678D01*
X0098996Y0442730D01*
X0098929Y0442780D01*
X0098859Y0442826D01*
X0098788Y0442869D01*
X0098714Y0442908D01*
X0098639Y0442944D01*
X0098562Y0442976D01*
X0098484Y0443005D01*
X0098405Y0443030D01*
X0098324Y0443051D01*
X0098243Y0443069D01*
X0098160Y0443082D01*
X0098077Y0443092D01*
X0097994Y0443098D01*
X0097911Y0443100D01*
X0096133Y0443100D01*
X0096133Y0436700D01*
M02*
