G75*
%MOIN*%
%OFA0B0*%
%FSLAX25Y25*%
%IPPOS*%
%LPD*%
%AMOC8*
5,1,8,0,0,1.08239X$1,22.5*
%
%ADD10R,0.00787X0.00157*%
%ADD11R,0.00315X0.00157*%
%ADD12R,0.00157X0.00157*%
%ADD13R,0.01102X0.00157*%
%ADD14R,0.00945X0.00157*%
%ADD15R,0.01732X0.00157*%
%ADD16R,0.02205X0.00157*%
%ADD17R,0.01260X0.00157*%
%ADD18R,0.02362X0.00157*%
%ADD19R,0.01417X0.00157*%
%ADD20R,0.02677X0.00157*%
%ADD21R,0.01575X0.00157*%
%ADD22R,0.00472X0.00157*%
%ADD23R,0.02992X0.00157*%
%ADD24R,0.01890X0.00157*%
%ADD25R,0.02047X0.00157*%
%ADD26R,0.00630X0.00157*%
%ADD27R,0.02520X0.00157*%
%ADD28R,0.04567X0.00157*%
%ADD29R,0.02835X0.00157*%
%ADD30R,0.01260X0.00118*%
%ADD31R,0.00394X0.00118*%
%ADD32R,0.00236X0.00118*%
%ADD33R,0.01772X0.00118*%
%ADD34R,0.00630X0.00118*%
%ADD35R,0.02008X0.00118*%
%ADD36R,0.00748X0.00118*%
%ADD37R,0.00866X0.00118*%
%ADD38R,0.02008X0.00157*%
%ADD39R,0.01024X0.00157*%
%ADD40R,0.00866X0.00157*%
%ADD41R,0.01024X0.00118*%
%ADD42R,0.01890X0.00118*%
%ADD43R,0.00906X0.00118*%
%ADD44R,0.01142X0.00118*%
%ADD45R,0.01496X0.00118*%
%ADD46R,0.00984X0.00118*%
%ADD47R,0.00906X0.00157*%
%ADD48R,0.02126X0.00118*%
%ADD49R,0.01654X0.00157*%
%ADD50R,0.00276X0.00118*%
%ADD51R,0.01378X0.00118*%
%ADD52R,0.02126X0.00157*%
%ADD53R,0.01654X0.00118*%
%ADD54R,0.00512X0.00118*%
%ADD55R,0.01535X0.00118*%
%ADD56R,0.02244X0.00157*%
%ADD57R,0.02402X0.00118*%
%ADD58R,0.02520X0.00118*%
%ADD59R,0.02638X0.00118*%
%ADD60R,0.00984X0.00157*%
%ADD61R,0.00157X0.00157*%
%ADD62R,0.01496X0.00157*%
%ADD63R,0.01417X0.00118*%
%ADD64R,0.02402X0.00157*%
%ADD65R,0.02362X0.00118*%
%ADD66R,0.02677X0.00118*%
%ADD67R,0.02756X0.00118*%
%ADD68R,0.02913X0.00118*%
%ADD69R,0.02795X0.00118*%
%ADD70R,0.02244X0.00118*%
%ADD71R,0.02165X0.00157*%
%ADD72R,0.00394X0.00157*%
%ADD73R,0.00748X0.00157*%
%ADD74R,0.01102X0.00118*%
%ADD75R,0.02165X0.00118*%
%ADD76R,0.00354X0.00118*%
%ADD77R,0.00118X0.00630*%
%ADD78R,0.00118X0.00118*%
%ADD79R,0.00118X0.01417*%
%ADD80R,0.00118X0.00748*%
%ADD81R,0.00118X0.01890*%
%ADD82R,0.00118X0.00866*%
%ADD83R,0.00157X0.02244*%
%ADD84R,0.00157X0.00866*%
%ADD85R,0.00118X0.02402*%
%ADD86R,0.00118X0.02520*%
%ADD87R,0.00118X0.01142*%
%ADD88R,0.00157X0.01024*%
%ADD89R,0.00157X0.00276*%
%ADD90R,0.00118X0.00984*%
%ADD91R,0.00157X0.00984*%
%ADD92R,0.00118X0.01024*%
%ADD93R,0.00118X0.00512*%
%ADD94R,0.00118X0.01260*%
%ADD95R,0.00118X0.02126*%
%ADD96R,0.00118X0.01772*%
%ADD97R,0.00118X0.00157*%
%ADD98R,0.00118X0.00276*%
%ADD99R,0.00118X0.02638*%
%ADD100R,0.00157X0.00748*%
%ADD101R,0.00157X0.02402*%
%ADD102R,0.00118X0.02008*%
%ADD103R,0.03150X0.00157*%
%ADD104R,0.03307X0.00157*%
%ADD105R,0.03465X0.00157*%
%ADD106R,0.03622X0.00157*%
%ADD107R,0.03780X0.00157*%
%ADD108R,0.03937X0.00157*%
%ADD109C,0.00591*%
%ADD110C,0.00300*%
%ADD111R,0.05512X0.00157*%
%ADD112R,0.06142X0.00157*%
%ADD113R,0.06772X0.00157*%
%ADD114R,0.07087X0.00157*%
%ADD115R,0.07402X0.00157*%
%ADD116R,0.07717X0.00157*%
%ADD117R,0.08031X0.00157*%
%ADD118R,0.04724X0.00157*%
%ADD119R,0.04882X0.00157*%
%ADD120R,0.04094X0.00157*%
%ADD121R,0.05039X0.00157*%
%ADD122R,0.08346X0.00157*%
%ADD123R,0.08976X0.00157*%
%ADD124R,0.09606X0.00157*%
%ADD125R,0.09921X0.00157*%
%ADD126R,0.10236X0.00157*%
%ADD127R,0.10551X0.00157*%
%ADD128R,0.06299X0.00157*%
%ADD129R,0.04252X0.00157*%
%ADD130R,0.09291X0.00157*%
%ADD131R,0.10866X0.00157*%
%ADD132R,0.11181X0.00157*%
%ADD133R,0.11496X0.00157*%
%ADD134R,0.04409X0.00157*%
%ADD135R,0.06929X0.00157*%
%ADD136R,0.00157X0.08346*%
%ADD137R,0.00157X0.09291*%
%ADD138R,0.00157X0.09921*%
%ADD139R,0.00157X0.10551*%
%ADD140R,0.00157X0.10866*%
%ADD141R,0.00157X0.11181*%
%ADD142R,0.00157X0.11496*%
%ADD143R,0.00157X0.03780*%
%ADD144R,0.00157X0.02677*%
%ADD145R,0.00157X0.03465*%
%ADD146R,0.00157X0.01890*%
%ADD147R,0.00157X0.03622*%
%ADD148R,0.00157X0.03307*%
%ADD149R,0.00157X0.01417*%
%ADD150R,0.00157X0.01102*%
%ADD151R,0.00157X0.03150*%
%ADD152R,0.00157X0.00945*%
%ADD153R,0.00157X0.00787*%
%ADD154R,0.00157X0.00315*%
%ADD155R,0.00157X0.00630*%
%ADD156R,0.00157X0.00472*%
%ADD157R,0.00157X0.04409*%
%ADD158R,0.00157X0.05039*%
%ADD159R,0.00157X0.01260*%
%ADD160R,0.00157X0.02992*%
%ADD161R,0.00157X0.01575*%
%ADD162R,0.00157X0.02047*%
%ADD163R,0.05197X0.00157*%
%ADD164R,0.07244X0.00157*%
%ADD165R,0.08661X0.00157*%
D10*
X0167314Y0244863D03*
X0169361Y0244863D03*
X0170778Y0243760D03*
X0172510Y0246595D03*
X0170778Y0247697D03*
X0169361Y0247697D03*
X0168101Y0247697D03*
X0171264Y0255260D03*
X0175044Y0255260D03*
X0175044Y0259197D03*
X0166698Y0259197D03*
X0165280Y0259197D03*
X0162288Y0259197D03*
X0163863Y0255260D03*
X0174243Y0247697D03*
X0175660Y0247697D03*
X0177077Y0247697D03*
X0179125Y0247697D03*
X0180542Y0247697D03*
X0180542Y0244863D03*
X0180542Y0243445D03*
X0178337Y0244863D03*
X0177077Y0244863D03*
X0175660Y0244863D03*
X0175660Y0243445D03*
X0183534Y0244863D03*
X0183377Y0246280D03*
X0186841Y0244863D03*
X0188101Y0243760D03*
X0184808Y0255260D03*
X0195674Y0258410D03*
G36*
X0243703Y0270828D02*
X0243023Y0270436D01*
X0242945Y0270572D01*
X0243625Y0270964D01*
X0243703Y0270828D01*
G37*
G36*
X0245045Y0271967D02*
X0244365Y0271575D01*
X0244287Y0271711D01*
X0244967Y0272103D01*
X0245045Y0271967D01*
G37*
G36*
X0244967Y0272103D02*
X0244287Y0271711D01*
X0244209Y0271847D01*
X0244889Y0272239D01*
X0244967Y0272103D01*
G37*
G36*
X0245639Y0270309D02*
X0244959Y0269917D01*
X0244881Y0270053D01*
X0245561Y0270445D01*
X0245639Y0270309D01*
G37*
G36*
X0246384Y0269648D02*
X0245704Y0269256D01*
X0245626Y0269392D01*
X0246306Y0269784D01*
X0246384Y0269648D01*
G37*
G36*
X0246678Y0269454D02*
X0245998Y0269062D01*
X0245920Y0269198D01*
X0246600Y0269590D01*
X0246678Y0269454D01*
G37*
G36*
X0295386Y0322741D02*
X0294994Y0322061D01*
X0294858Y0322139D01*
X0295250Y0322819D01*
X0295386Y0322741D01*
G37*
G36*
X0297023Y0321796D02*
X0296631Y0321116D01*
X0296495Y0321194D01*
X0296887Y0321874D01*
X0297023Y0321796D01*
G37*
G36*
X0297920Y0321460D02*
X0297528Y0320780D01*
X0297392Y0320858D01*
X0297784Y0321538D01*
X0297920Y0321460D01*
G37*
G36*
X0298680Y0321202D02*
X0298288Y0320522D01*
X0298152Y0320600D01*
X0298544Y0321280D01*
X0298680Y0321202D01*
G37*
G36*
X0295455Y0460569D02*
X0295847Y0459889D01*
X0295711Y0459811D01*
X0295319Y0460491D01*
X0295455Y0460569D01*
G37*
G36*
X0246198Y0513258D02*
X0246878Y0512866D01*
X0246800Y0512730D01*
X0246120Y0513122D01*
X0246198Y0513258D01*
G37*
G36*
X0246277Y0513394D02*
X0246957Y0513002D01*
X0246879Y0512866D01*
X0246199Y0513258D01*
X0246277Y0513394D01*
G37*
G36*
X0244859Y0510939D02*
X0245539Y0510547D01*
X0245461Y0510411D01*
X0244781Y0510803D01*
X0244859Y0510939D01*
G37*
G36*
X0244781Y0510803D02*
X0245461Y0510411D01*
X0245383Y0510275D01*
X0244703Y0510667D01*
X0244781Y0510803D01*
G37*
G36*
X0106713Y0513652D02*
X0107393Y0514044D01*
X0107471Y0513908D01*
X0106791Y0513516D01*
X0106713Y0513652D01*
G37*
G36*
X0105134Y0512923D02*
X0105814Y0513315D01*
X0105892Y0513179D01*
X0105212Y0512787D01*
X0105134Y0512923D01*
G37*
G36*
X0105055Y0513059D02*
X0105735Y0513451D01*
X0105813Y0513315D01*
X0105133Y0512923D01*
X0105055Y0513059D01*
G37*
G36*
X0103713Y0511920D02*
X0104393Y0512312D01*
X0104471Y0512176D01*
X0103791Y0511784D01*
X0103713Y0511920D01*
G37*
G36*
X0103791Y0511784D02*
X0104471Y0512176D01*
X0104549Y0512040D01*
X0103869Y0511648D01*
X0103791Y0511784D01*
G37*
G36*
X0104658Y0510284D02*
X0105338Y0510676D01*
X0105416Y0510540D01*
X0104736Y0510148D01*
X0104658Y0510284D01*
G37*
G36*
X0106279Y0510310D02*
X0106959Y0510702D01*
X0107037Y0510566D01*
X0106357Y0510174D01*
X0106279Y0510310D01*
G37*
G36*
X0105979Y0511774D02*
X0106659Y0512166D01*
X0106737Y0512030D01*
X0106057Y0511638D01*
X0105979Y0511774D01*
G37*
G36*
X0054763Y0462603D02*
X0055155Y0463283D01*
X0055291Y0463205D01*
X0054899Y0462525D01*
X0054763Y0462603D01*
G37*
G36*
X0053624Y0461260D02*
X0054016Y0461940D01*
X0054152Y0461862D01*
X0053760Y0461182D01*
X0053624Y0461260D01*
G37*
G36*
X0053488Y0461339D02*
X0053880Y0462019D01*
X0054016Y0461941D01*
X0053624Y0461261D01*
X0053488Y0461339D01*
G37*
G36*
X0055067Y0460609D02*
X0055459Y0461289D01*
X0055595Y0461211D01*
X0055203Y0460531D01*
X0055067Y0460609D01*
G37*
G36*
X0054961Y0458851D02*
X0055353Y0459531D01*
X0055489Y0459453D01*
X0055097Y0458773D01*
X0054961Y0458851D01*
G37*
G36*
X0056687Y0321955D02*
X0056295Y0322635D01*
X0056431Y0322713D01*
X0056823Y0322033D01*
X0056687Y0321955D01*
G37*
G36*
X0056850Y0320412D02*
X0056458Y0321092D01*
X0056594Y0321170D01*
X0056986Y0320490D01*
X0056850Y0320412D01*
G37*
G36*
X0055674Y0321188D02*
X0055282Y0321868D01*
X0055418Y0321946D01*
X0055810Y0321266D01*
X0055674Y0321188D01*
G37*
G36*
X0055108Y0321225D02*
X0054716Y0321905D01*
X0054852Y0321983D01*
X0055244Y0321303D01*
X0055108Y0321225D01*
G37*
G36*
X0054971Y0321146D02*
X0054579Y0321826D01*
X0054715Y0321904D01*
X0055107Y0321224D01*
X0054971Y0321146D01*
G37*
G36*
X0053959Y0320380D02*
X0053567Y0321060D01*
X0053703Y0321138D01*
X0054095Y0320458D01*
X0053959Y0320380D01*
G37*
G36*
X0104696Y0270588D02*
X0104016Y0270980D01*
X0104094Y0271116D01*
X0104774Y0270724D01*
X0104696Y0270588D01*
G37*
G36*
X0104617Y0270451D02*
X0103937Y0270843D01*
X0104015Y0270979D01*
X0104695Y0270587D01*
X0104617Y0270451D01*
G37*
G36*
X0104538Y0270315D02*
X0103858Y0270707D01*
X0103936Y0270843D01*
X0104616Y0270451D01*
X0104538Y0270315D01*
G37*
G36*
X0104460Y0270178D02*
X0103780Y0270570D01*
X0103858Y0270706D01*
X0104538Y0270314D01*
X0104460Y0270178D01*
G37*
G36*
X0104145Y0269633D02*
X0103465Y0270025D01*
X0103543Y0270161D01*
X0104223Y0269769D01*
X0104145Y0269633D01*
G37*
G36*
X0105802Y0269039D02*
X0105122Y0269431D01*
X0105200Y0269567D01*
X0105880Y0269175D01*
X0105802Y0269039D01*
G37*
G36*
X0105881Y0269176D02*
X0105201Y0269568D01*
X0105279Y0269704D01*
X0105959Y0269312D01*
X0105881Y0269176D01*
G37*
G36*
X0107481Y0268798D02*
X0106801Y0269190D01*
X0106879Y0269326D01*
X0107559Y0268934D01*
X0107481Y0268798D01*
G37*
G36*
X0108426Y0270434D02*
X0107746Y0270826D01*
X0107824Y0270962D01*
X0108504Y0270570D01*
X0108426Y0270434D01*
G37*
G36*
X0107377Y0271767D02*
X0106697Y0272159D01*
X0106775Y0272295D01*
X0107455Y0271903D01*
X0107377Y0271767D01*
G37*
G36*
X0107456Y0271904D02*
X0106776Y0272296D01*
X0106854Y0272432D01*
X0107534Y0272040D01*
X0107456Y0271904D01*
G37*
D11*
X0164085Y0243603D03*
X0186762Y0243603D03*
X0188022Y0243603D03*
X0188022Y0245493D03*
X0186762Y0245493D03*
X0195595Y0258252D03*
X0197170Y0257150D03*
G36*
X0245087Y0271264D02*
X0244817Y0271108D01*
X0244739Y0271244D01*
X0245009Y0271400D01*
X0245087Y0271264D01*
G37*
G36*
X0245166Y0271128D02*
X0244896Y0270972D01*
X0244818Y0271108D01*
X0245088Y0271264D01*
X0245166Y0271128D01*
G37*
G36*
X0245245Y0270991D02*
X0244975Y0270835D01*
X0244897Y0270971D01*
X0245167Y0271127D01*
X0245245Y0270991D01*
G37*
G36*
X0245323Y0270855D02*
X0245053Y0270699D01*
X0244975Y0270835D01*
X0245245Y0270991D01*
X0245323Y0270855D01*
G37*
G36*
X0295580Y0322446D02*
X0295424Y0322176D01*
X0295288Y0322254D01*
X0295444Y0322524D01*
X0295580Y0322446D01*
G37*
G36*
X0106416Y0271049D02*
X0106146Y0271205D01*
X0106224Y0271341D01*
X0106494Y0271185D01*
X0106416Y0271049D01*
G37*
G36*
X0106338Y0270912D02*
X0106068Y0271068D01*
X0106146Y0271204D01*
X0106416Y0271048D01*
X0106338Y0270912D01*
G37*
G36*
X0106259Y0270776D02*
X0105989Y0270932D01*
X0106067Y0271068D01*
X0106337Y0270912D01*
X0106259Y0270776D01*
G37*
G36*
X0106180Y0270639D02*
X0105910Y0270795D01*
X0105988Y0270931D01*
X0106258Y0270775D01*
X0106180Y0270639D01*
G37*
G36*
X0106101Y0270503D02*
X0105831Y0270659D01*
X0105909Y0270795D01*
X0106179Y0270639D01*
X0106101Y0270503D01*
G37*
G36*
X0106023Y0270367D02*
X0105753Y0270523D01*
X0105831Y0270659D01*
X0106101Y0270503D01*
X0106023Y0270367D01*
G37*
G36*
X0053287Y0322174D02*
X0053131Y0322444D01*
X0053267Y0322522D01*
X0053423Y0322252D01*
X0053287Y0322174D01*
G37*
G36*
X0056158Y0459979D02*
X0056314Y0460249D01*
X0056450Y0460171D01*
X0056294Y0459901D01*
X0056158Y0459979D01*
G37*
G36*
X0056021Y0460058D02*
X0056177Y0460328D01*
X0056313Y0460250D01*
X0056157Y0459980D01*
X0056021Y0460058D01*
G37*
G36*
X0055885Y0460137D02*
X0056041Y0460407D01*
X0056177Y0460329D01*
X0056021Y0460059D01*
X0055885Y0460137D01*
G37*
D12*
X0163863Y0255103D03*
X0171264Y0255103D03*
X0174099Y0256993D03*
X0175044Y0255103D03*
X0184808Y0255103D03*
X0196461Y0256205D03*
X0196304Y0259355D03*
X0174243Y0243603D03*
X0170778Y0243603D03*
D13*
X0170778Y0243918D03*
X0170778Y0245650D03*
X0170778Y0245807D03*
X0170778Y0245965D03*
X0170778Y0246122D03*
X0170778Y0246280D03*
X0170778Y0246437D03*
X0170778Y0246595D03*
X0170778Y0246752D03*
X0170778Y0246910D03*
X0170778Y0247067D03*
X0170778Y0247225D03*
X0170778Y0247382D03*
X0170778Y0247540D03*
X0169203Y0246595D03*
X0167314Y0246595D03*
X0167314Y0246437D03*
X0167314Y0246280D03*
X0167314Y0246122D03*
X0167314Y0245965D03*
X0167314Y0245807D03*
X0167314Y0245650D03*
X0167314Y0245493D03*
X0167314Y0245335D03*
X0167314Y0245178D03*
X0167314Y0245020D03*
X0164164Y0245020D03*
X0164164Y0244863D03*
X0164164Y0244705D03*
X0164164Y0244548D03*
X0164164Y0244390D03*
X0164164Y0244233D03*
X0164164Y0244075D03*
X0164164Y0245178D03*
X0164164Y0245335D03*
X0164164Y0245493D03*
X0164164Y0245650D03*
X0164164Y0245807D03*
X0164164Y0245965D03*
X0164164Y0246122D03*
X0164164Y0246280D03*
X0164164Y0246437D03*
X0164164Y0246595D03*
X0164164Y0246752D03*
X0172510Y0246437D03*
X0172510Y0246280D03*
X0174243Y0246280D03*
X0174243Y0246437D03*
X0174243Y0246595D03*
X0174243Y0246752D03*
X0174243Y0246910D03*
X0174243Y0247067D03*
X0174243Y0247225D03*
X0174243Y0247382D03*
X0174243Y0247540D03*
X0175660Y0247540D03*
X0175660Y0247382D03*
X0175660Y0247225D03*
X0175660Y0247067D03*
X0175660Y0246910D03*
X0175660Y0246752D03*
X0175660Y0246595D03*
X0175660Y0246437D03*
X0175660Y0246280D03*
X0175660Y0246122D03*
X0175660Y0245965D03*
X0175660Y0245807D03*
X0175660Y0245650D03*
X0175660Y0245493D03*
X0175660Y0245335D03*
X0175660Y0245178D03*
X0175660Y0245020D03*
X0175660Y0244075D03*
X0175660Y0243918D03*
X0175660Y0243760D03*
X0175660Y0243603D03*
X0174243Y0243918D03*
X0174243Y0245650D03*
X0174243Y0245807D03*
X0174243Y0245965D03*
X0174243Y0246122D03*
X0177235Y0245965D03*
X0179125Y0245965D03*
X0179125Y0246122D03*
X0179125Y0246280D03*
X0179125Y0246437D03*
X0179125Y0246595D03*
X0179125Y0246752D03*
X0179125Y0246910D03*
X0179125Y0247067D03*
X0179125Y0247225D03*
X0179125Y0247382D03*
X0179125Y0247540D03*
X0180542Y0247540D03*
X0180542Y0247382D03*
X0180542Y0247225D03*
X0180542Y0247067D03*
X0180542Y0246910D03*
X0180542Y0246752D03*
X0180542Y0246595D03*
X0180542Y0246437D03*
X0180542Y0246280D03*
X0180542Y0246122D03*
X0180542Y0245965D03*
X0180542Y0245807D03*
X0180542Y0245650D03*
X0180542Y0245493D03*
X0180542Y0245335D03*
X0180542Y0245178D03*
X0180542Y0245020D03*
X0180542Y0244075D03*
X0180542Y0243918D03*
X0180542Y0243760D03*
X0180542Y0243603D03*
X0183534Y0244705D03*
X0183377Y0246437D03*
X0183377Y0246595D03*
X0185424Y0246752D03*
X0185581Y0246437D03*
X0185424Y0246280D03*
X0185424Y0244863D03*
X0185424Y0244705D03*
X0184808Y0255418D03*
X0184808Y0255575D03*
X0184808Y0255733D03*
X0184808Y0255890D03*
X0184808Y0256048D03*
X0184808Y0256205D03*
X0184808Y0256363D03*
X0184808Y0256520D03*
X0184808Y0256678D03*
X0184808Y0256835D03*
X0184808Y0256993D03*
X0184808Y0257150D03*
X0184808Y0257307D03*
X0184808Y0257465D03*
X0184808Y0257622D03*
X0184808Y0257780D03*
X0184808Y0257937D03*
X0184808Y0258095D03*
X0184808Y0258252D03*
X0188115Y0258095D03*
X0188115Y0257937D03*
X0188115Y0257780D03*
X0188115Y0256520D03*
X0188115Y0256363D03*
X0188115Y0256205D03*
X0191737Y0256205D03*
X0191737Y0256363D03*
X0191737Y0256520D03*
X0191737Y0256678D03*
X0191737Y0256835D03*
X0191737Y0256993D03*
X0191737Y0257150D03*
X0191737Y0257307D03*
X0191737Y0257465D03*
X0191737Y0257622D03*
X0191737Y0257780D03*
X0191737Y0257937D03*
X0191737Y0258095D03*
X0194257Y0257780D03*
X0194257Y0257622D03*
X0194414Y0257150D03*
X0194257Y0256835D03*
X0194257Y0256678D03*
X0195831Y0257307D03*
X0181816Y0256835D03*
X0181816Y0256678D03*
X0181816Y0256363D03*
X0181816Y0256205D03*
X0179926Y0256205D03*
X0179926Y0256363D03*
X0178509Y0256520D03*
X0178509Y0256678D03*
X0178509Y0256835D03*
X0178509Y0256993D03*
X0178509Y0257150D03*
X0178509Y0257307D03*
X0178509Y0257465D03*
X0178509Y0257622D03*
X0178509Y0257780D03*
X0178509Y0257937D03*
X0178351Y0258095D03*
X0178351Y0256363D03*
X0178351Y0256205D03*
X0176461Y0256363D03*
X0176461Y0256520D03*
X0176461Y0256678D03*
X0176304Y0257150D03*
X0176461Y0257780D03*
X0176461Y0257937D03*
X0176461Y0258095D03*
X0175044Y0258095D03*
X0175044Y0258252D03*
X0175044Y0258410D03*
X0175044Y0258567D03*
X0175044Y0258725D03*
X0175044Y0258882D03*
X0175044Y0259040D03*
X0175044Y0257937D03*
X0175044Y0257780D03*
X0175044Y0257622D03*
X0175044Y0257465D03*
X0175044Y0257307D03*
X0175044Y0257150D03*
X0175044Y0256993D03*
X0175044Y0255418D03*
X0172052Y0257150D03*
X0172052Y0257307D03*
X0172209Y0257465D03*
X0172682Y0258567D03*
X0172839Y0258882D03*
X0172839Y0259040D03*
X0170477Y0257307D03*
X0170635Y0256993D03*
X0171264Y0255575D03*
X0168902Y0256363D03*
X0168902Y0256520D03*
X0168902Y0256678D03*
X0168902Y0256835D03*
X0169847Y0258567D03*
X0169690Y0258882D03*
X0166698Y0258882D03*
X0166698Y0258725D03*
X0166698Y0258567D03*
X0166698Y0258410D03*
X0166698Y0258252D03*
X0166698Y0259040D03*
X0165280Y0258725D03*
X0164650Y0257465D03*
X0164650Y0257307D03*
X0164493Y0256993D03*
X0163075Y0257150D03*
X0162918Y0257465D03*
X0162288Y0258725D03*
X0162288Y0258882D03*
X0159453Y0258095D03*
X0159453Y0257937D03*
X0159453Y0257780D03*
X0159611Y0257307D03*
X0159611Y0257150D03*
X0159611Y0256993D03*
X0159453Y0256520D03*
X0159453Y0256363D03*
X0157564Y0256363D03*
X0157564Y0256205D03*
X0157406Y0256520D03*
X0157406Y0256678D03*
X0157406Y0256835D03*
X0157406Y0256993D03*
X0157406Y0257150D03*
X0157406Y0257307D03*
X0157406Y0257465D03*
X0157406Y0257622D03*
X0157406Y0257780D03*
X0157406Y0257937D03*
X0157564Y0258095D03*
X0156146Y0258095D03*
X0156146Y0258252D03*
X0156146Y0257937D03*
X0154257Y0257937D03*
X0154257Y0258095D03*
X0154414Y0256678D03*
X0163863Y0255575D03*
X0166698Y0256205D03*
X0166698Y0256363D03*
X0166698Y0256520D03*
X0166698Y0256678D03*
X0166698Y0256835D03*
X0166698Y0256993D03*
G36*
X0108405Y0270082D02*
X0107451Y0270632D01*
X0107529Y0270768D01*
X0108483Y0270218D01*
X0108405Y0270082D01*
G37*
G36*
X0108327Y0269946D02*
X0107373Y0270496D01*
X0107451Y0270632D01*
X0108405Y0270082D01*
X0108327Y0269946D01*
G37*
G36*
X0108248Y0269810D02*
X0107294Y0270360D01*
X0107372Y0270496D01*
X0108326Y0269946D01*
X0108248Y0269810D01*
G37*
G36*
X0108169Y0269673D02*
X0107215Y0270223D01*
X0107293Y0270359D01*
X0108247Y0269809D01*
X0108169Y0269673D01*
G37*
G36*
X0108091Y0269537D02*
X0107137Y0270087D01*
X0107215Y0270223D01*
X0108169Y0269673D01*
X0108091Y0269537D01*
G37*
G36*
X0108012Y0269401D02*
X0107058Y0269951D01*
X0107136Y0270087D01*
X0108090Y0269537D01*
X0108012Y0269401D01*
G37*
G36*
X0107933Y0269264D02*
X0106979Y0269814D01*
X0107057Y0269950D01*
X0108011Y0269400D01*
X0107933Y0269264D01*
G37*
G36*
X0107854Y0269128D02*
X0106900Y0269678D01*
X0106978Y0269814D01*
X0107932Y0269264D01*
X0107854Y0269128D01*
G37*
G36*
X0107776Y0268991D02*
X0106822Y0269541D01*
X0106900Y0269677D01*
X0107854Y0269127D01*
X0107776Y0268991D01*
G37*
G36*
X0056792Y0320196D02*
X0056242Y0321150D01*
X0056378Y0321228D01*
X0056928Y0320274D01*
X0056792Y0320196D01*
G37*
G36*
X0053902Y0320164D02*
X0053352Y0321118D01*
X0053488Y0321196D01*
X0054038Y0320242D01*
X0053902Y0320164D01*
G37*
G36*
X0053765Y0320085D02*
X0053215Y0321039D01*
X0053351Y0321117D01*
X0053901Y0320163D01*
X0053765Y0320085D01*
G37*
G36*
X0055218Y0322924D02*
X0054668Y0323878D01*
X0054804Y0323956D01*
X0055354Y0323002D01*
X0055218Y0322924D01*
G37*
G36*
X0054746Y0458793D02*
X0055296Y0459747D01*
X0055432Y0459669D01*
X0054882Y0458715D01*
X0054746Y0458793D01*
G37*
G36*
X0055046Y0460257D02*
X0055596Y0461211D01*
X0055732Y0461133D01*
X0055182Y0460179D01*
X0055046Y0460257D01*
G37*
G36*
X0053273Y0461280D02*
X0053823Y0462234D01*
X0053959Y0462156D01*
X0053409Y0461202D01*
X0053273Y0461280D01*
G37*
G36*
X0054957Y0462308D02*
X0055507Y0463262D01*
X0055643Y0463184D01*
X0055093Y0462230D01*
X0054957Y0462308D01*
G37*
G36*
X0055093Y0462229D02*
X0055643Y0463183D01*
X0055779Y0463105D01*
X0055229Y0462151D01*
X0055093Y0462229D01*
G37*
G36*
X0104442Y0510341D02*
X0105396Y0510891D01*
X0105474Y0510755D01*
X0104520Y0510205D01*
X0104442Y0510341D01*
G37*
G36*
X0104363Y0510477D02*
X0105317Y0511027D01*
X0105395Y0510891D01*
X0104441Y0510341D01*
X0104363Y0510477D01*
G37*
G36*
X0104284Y0510614D02*
X0105238Y0511164D01*
X0105316Y0511028D01*
X0104362Y0510478D01*
X0104284Y0510614D01*
G37*
G36*
X0104206Y0510750D02*
X0105160Y0511300D01*
X0105238Y0511164D01*
X0104284Y0510614D01*
X0104206Y0510750D01*
G37*
G36*
X0104127Y0510887D02*
X0105081Y0511437D01*
X0105159Y0511301D01*
X0104205Y0510751D01*
X0104127Y0510887D01*
G37*
G36*
X0104048Y0511023D02*
X0105002Y0511573D01*
X0105080Y0511437D01*
X0104126Y0510887D01*
X0104048Y0511023D01*
G37*
G36*
X0103969Y0511159D02*
X0104923Y0511709D01*
X0105001Y0511573D01*
X0104047Y0511023D01*
X0103969Y0511159D01*
G37*
G36*
X0103891Y0511296D02*
X0104845Y0511846D01*
X0104923Y0511710D01*
X0103969Y0511160D01*
X0103891Y0511296D01*
G37*
G36*
X0103812Y0511432D02*
X0104766Y0511982D01*
X0104844Y0511846D01*
X0103890Y0511296D01*
X0103812Y0511432D01*
G37*
G36*
X0103733Y0511568D02*
X0104687Y0512118D01*
X0104765Y0511982D01*
X0103811Y0511432D01*
X0103733Y0511568D01*
G37*
G36*
X0104840Y0513116D02*
X0105794Y0513666D01*
X0105872Y0513530D01*
X0104918Y0512980D01*
X0104840Y0513116D01*
G37*
G36*
X0106136Y0511501D02*
X0107090Y0512051D01*
X0107168Y0511915D01*
X0106214Y0511365D01*
X0106136Y0511501D01*
G37*
G36*
X0106734Y0513301D02*
X0107688Y0513851D01*
X0107766Y0513715D01*
X0106812Y0513165D01*
X0106734Y0513301D01*
G37*
G36*
X0243752Y0512488D02*
X0244706Y0511938D01*
X0244628Y0511802D01*
X0243674Y0512352D01*
X0243752Y0512488D01*
G37*
G36*
X0244303Y0513442D02*
X0245257Y0512892D01*
X0245179Y0512756D01*
X0244225Y0513306D01*
X0244303Y0513442D01*
G37*
G36*
X0246161Y0513825D02*
X0247115Y0513275D01*
X0247037Y0513139D01*
X0246083Y0513689D01*
X0246161Y0513825D01*
G37*
G36*
X0244350Y0510688D02*
X0245304Y0510138D01*
X0245226Y0510002D01*
X0244272Y0510552D01*
X0244350Y0510688D01*
G37*
G36*
X0295513Y0460785D02*
X0296063Y0459831D01*
X0295927Y0459753D01*
X0295377Y0460707D01*
X0295513Y0460785D01*
G37*
G36*
X0308255Y0369175D02*
X0308121Y0368082D01*
X0307967Y0368101D01*
X0308101Y0369194D01*
X0308255Y0369175D01*
G37*
G36*
X0295329Y0322956D02*
X0294779Y0322002D01*
X0294643Y0322080D01*
X0295193Y0323034D01*
X0295329Y0322956D01*
G37*
G36*
X0297296Y0321639D02*
X0296746Y0320685D01*
X0296610Y0320763D01*
X0297160Y0321717D01*
X0297296Y0321639D01*
G37*
G36*
X0246940Y0272151D02*
X0245986Y0271601D01*
X0245908Y0271737D01*
X0246862Y0272287D01*
X0246940Y0272151D01*
G37*
G36*
X0247491Y0271197D02*
X0246537Y0270647D01*
X0246459Y0270783D01*
X0247413Y0271333D01*
X0247491Y0271197D01*
G37*
G36*
X0246894Y0269397D02*
X0245940Y0268847D01*
X0245862Y0268983D01*
X0246816Y0269533D01*
X0246894Y0269397D01*
G37*
G36*
X0245718Y0270173D02*
X0244764Y0269623D01*
X0244686Y0269759D01*
X0245640Y0270309D01*
X0245718Y0270173D01*
G37*
G36*
X0245025Y0272319D02*
X0244071Y0271769D01*
X0243993Y0271905D01*
X0244947Y0272455D01*
X0245025Y0272319D01*
G37*
G36*
X0243918Y0270771D02*
X0242964Y0270221D01*
X0242886Y0270357D01*
X0243840Y0270907D01*
X0243918Y0270771D01*
G37*
D14*
G36*
X0246782Y0272424D02*
X0245966Y0271953D01*
X0245888Y0272088D01*
X0246704Y0272559D01*
X0246782Y0272424D01*
G37*
G36*
X0246860Y0272288D02*
X0246044Y0271817D01*
X0245966Y0271952D01*
X0246782Y0272423D01*
X0246860Y0272288D01*
G37*
G36*
X0247569Y0271061D02*
X0246753Y0270590D01*
X0246675Y0270725D01*
X0247491Y0271196D01*
X0247569Y0271061D01*
G37*
G36*
X0247648Y0270924D02*
X0246832Y0270453D01*
X0246754Y0270588D01*
X0247570Y0271059D01*
X0247648Y0270924D01*
G37*
G36*
X0295359Y0321119D02*
X0294888Y0320303D01*
X0294753Y0320381D01*
X0295224Y0321197D01*
X0295359Y0321119D01*
G37*
G36*
X0297159Y0321717D02*
X0296688Y0320901D01*
X0296553Y0320979D01*
X0297024Y0321795D01*
X0297159Y0321717D01*
G37*
G36*
X0296855Y0323711D02*
X0296384Y0322895D01*
X0296249Y0322973D01*
X0296720Y0323789D01*
X0296855Y0323711D01*
G37*
X0197170Y0258410D03*
X0195753Y0257150D03*
X0194335Y0257307D03*
X0194335Y0257465D03*
X0194335Y0256993D03*
X0185503Y0246595D03*
X0186762Y0244705D03*
X0186762Y0244548D03*
X0186762Y0244390D03*
X0186762Y0244233D03*
X0186762Y0244075D03*
X0186762Y0243918D03*
X0186762Y0243760D03*
X0188022Y0243918D03*
X0188022Y0244075D03*
X0188022Y0244233D03*
X0188022Y0244390D03*
X0188022Y0244548D03*
X0188022Y0244705D03*
X0188022Y0244863D03*
X0184400Y0243603D03*
X0180621Y0244233D03*
X0177156Y0246122D03*
X0177156Y0246280D03*
X0177156Y0246437D03*
X0177156Y0246595D03*
X0177156Y0246752D03*
X0177156Y0246910D03*
X0177156Y0247067D03*
X0177156Y0247225D03*
X0177156Y0247382D03*
X0177156Y0247540D03*
X0175739Y0244233D03*
X0174164Y0243760D03*
X0169282Y0245020D03*
X0169282Y0245178D03*
X0169282Y0245335D03*
X0169282Y0245493D03*
X0169282Y0245650D03*
X0169282Y0245807D03*
X0169282Y0245965D03*
X0169282Y0246122D03*
X0169282Y0246280D03*
X0169282Y0246437D03*
X0169282Y0247540D03*
X0164085Y0243918D03*
X0164085Y0243760D03*
X0163784Y0255418D03*
X0162209Y0259040D03*
X0159532Y0257622D03*
X0159532Y0257465D03*
X0159532Y0256835D03*
X0159532Y0256678D03*
X0158430Y0255103D03*
X0154335Y0258252D03*
X0165359Y0259040D03*
X0169768Y0259040D03*
X0171343Y0255418D03*
X0176383Y0256835D03*
X0176383Y0256993D03*
X0176383Y0257307D03*
X0176383Y0257465D03*
X0176383Y0257622D03*
X0177485Y0255103D03*
X0179847Y0256520D03*
X0179847Y0256678D03*
X0179847Y0256835D03*
X0179847Y0256993D03*
X0181894Y0256520D03*
X0180792Y0255103D03*
G36*
X0108347Y0270298D02*
X0107531Y0270769D01*
X0107609Y0270904D01*
X0108425Y0270433D01*
X0108347Y0270298D01*
G37*
G36*
X0107560Y0268934D02*
X0106744Y0269405D01*
X0106822Y0269540D01*
X0107638Y0269069D01*
X0107560Y0268934D01*
G37*
G36*
X0105860Y0268825D02*
X0105044Y0269296D01*
X0105122Y0269431D01*
X0105938Y0268960D01*
X0105860Y0268825D01*
G37*
G36*
X0104774Y0270724D02*
X0103958Y0271195D01*
X0104036Y0271330D01*
X0104852Y0270859D01*
X0104774Y0270724D01*
G37*
G36*
X0104853Y0270861D02*
X0104037Y0271332D01*
X0104115Y0271467D01*
X0104931Y0270996D01*
X0104853Y0270861D01*
G37*
G36*
X0104932Y0270997D02*
X0104116Y0271468D01*
X0104194Y0271603D01*
X0105010Y0271132D01*
X0104932Y0270997D01*
G37*
G36*
X0105011Y0271133D02*
X0104195Y0271604D01*
X0104273Y0271739D01*
X0105089Y0271268D01*
X0105011Y0271133D01*
G37*
G36*
X0107671Y0271962D02*
X0106855Y0272433D01*
X0106933Y0272568D01*
X0107749Y0272097D01*
X0107671Y0271962D01*
G37*
G36*
X0055354Y0323004D02*
X0054883Y0323820D01*
X0055018Y0323898D01*
X0055489Y0323082D01*
X0055354Y0323004D01*
G37*
G36*
X0053775Y0322274D02*
X0053304Y0323090D01*
X0053439Y0323168D01*
X0053910Y0322352D01*
X0053775Y0322274D01*
G37*
G36*
X0053718Y0322059D02*
X0053247Y0322875D01*
X0053382Y0322953D01*
X0053853Y0322137D01*
X0053718Y0322059D01*
G37*
G36*
X0053581Y0321980D02*
X0053110Y0322796D01*
X0053245Y0322874D01*
X0053716Y0322058D01*
X0053581Y0321980D01*
G37*
G36*
X0056331Y0459334D02*
X0056802Y0460150D01*
X0056937Y0460072D01*
X0056466Y0459256D01*
X0056331Y0459334D01*
G37*
G36*
X0055446Y0462209D02*
X0055917Y0463025D01*
X0056052Y0462947D01*
X0055581Y0462131D01*
X0055446Y0462209D01*
G37*
G36*
X0055309Y0462288D02*
X0055780Y0463104D01*
X0055915Y0463026D01*
X0055444Y0462210D01*
X0055309Y0462288D01*
G37*
G36*
X0054821Y0462388D02*
X0055292Y0463204D01*
X0055427Y0463126D01*
X0054956Y0462310D01*
X0054821Y0462388D01*
G37*
G36*
X0106221Y0510095D02*
X0107037Y0510566D01*
X0107115Y0510431D01*
X0106299Y0509960D01*
X0106221Y0510095D01*
G37*
G36*
X0106058Y0511637D02*
X0106874Y0512108D01*
X0106952Y0511973D01*
X0106136Y0511502D01*
X0106058Y0511637D01*
G37*
G36*
X0107028Y0513106D02*
X0107844Y0513577D01*
X0107922Y0513442D01*
X0107106Y0512971D01*
X0107028Y0513106D01*
G37*
G36*
X0106950Y0513243D02*
X0107766Y0513714D01*
X0107844Y0513579D01*
X0107028Y0513108D01*
X0106950Y0513243D01*
G37*
G36*
X0106792Y0513515D02*
X0107608Y0513986D01*
X0107686Y0513851D01*
X0106870Y0513380D01*
X0106792Y0513515D01*
G37*
G36*
X0107243Y0513049D02*
X0108059Y0513520D01*
X0108137Y0513385D01*
X0107321Y0512914D01*
X0107243Y0513049D01*
G37*
G36*
X0243596Y0512214D02*
X0244412Y0511743D01*
X0244334Y0511608D01*
X0243518Y0512079D01*
X0243596Y0512214D01*
G37*
G36*
X0243674Y0512351D02*
X0244490Y0511880D01*
X0244412Y0511745D01*
X0243596Y0512216D01*
X0243674Y0512351D01*
G37*
G36*
X0244383Y0513578D02*
X0245199Y0513107D01*
X0245121Y0512972D01*
X0244305Y0513443D01*
X0244383Y0513578D01*
G37*
G36*
X0244462Y0513714D02*
X0245278Y0513243D01*
X0245200Y0513108D01*
X0244384Y0513579D01*
X0244462Y0513714D01*
G37*
G36*
X0246219Y0513609D02*
X0247035Y0513138D01*
X0246957Y0513003D01*
X0246141Y0513474D01*
X0246219Y0513609D01*
G37*
G36*
X0244566Y0510745D02*
X0245382Y0510274D01*
X0245304Y0510139D01*
X0244488Y0510610D01*
X0244566Y0510745D01*
G37*
D15*
G36*
X0106373Y0511091D02*
X0107871Y0511956D01*
X0107949Y0511821D01*
X0106451Y0510956D01*
X0106373Y0511091D01*
G37*
G36*
X0055455Y0460021D02*
X0056320Y0461519D01*
X0056455Y0461441D01*
X0055590Y0459943D01*
X0055455Y0460021D01*
G37*
X0155674Y0255418D03*
X0163863Y0256205D03*
X0171264Y0256205D03*
X0172510Y0245965D03*
X0171093Y0244705D03*
X0173928Y0244705D03*
X0180871Y0255260D03*
X0181343Y0257465D03*
X0181186Y0257622D03*
X0180713Y0257937D03*
X0180556Y0258095D03*
X0184794Y0245650D03*
X0184794Y0245493D03*
X0184479Y0243760D03*
X0196146Y0257465D03*
X0196776Y0258095D03*
D16*
X0196383Y0259040D03*
X0196383Y0256993D03*
X0196383Y0256835D03*
X0196383Y0256678D03*
X0192446Y0255260D03*
X0184400Y0247540D03*
X0184400Y0243918D03*
X0173692Y0245335D03*
X0171329Y0245335D03*
X0167406Y0255260D03*
X0167249Y0258095D03*
X0163784Y0256678D03*
X0155438Y0255890D03*
X0155280Y0256048D03*
X0171343Y0256678D03*
X0177485Y0258882D03*
D17*
X0178272Y0258252D03*
X0176540Y0258252D03*
X0176540Y0256205D03*
X0174965Y0255575D03*
X0171973Y0256993D03*
X0171343Y0255733D03*
X0170556Y0257150D03*
X0170398Y0257465D03*
X0169768Y0258725D03*
X0168823Y0256993D03*
X0168823Y0256205D03*
X0165201Y0258567D03*
X0165359Y0258882D03*
X0164572Y0257150D03*
X0163154Y0256993D03*
X0162997Y0257307D03*
X0162367Y0258567D03*
X0159375Y0258252D03*
X0157642Y0258252D03*
X0156068Y0257780D03*
X0154335Y0257780D03*
X0154493Y0256520D03*
X0154650Y0256363D03*
X0159375Y0256205D03*
X0163784Y0255733D03*
X0168022Y0247540D03*
X0170857Y0244075D03*
X0174164Y0244075D03*
X0183455Y0246752D03*
X0185345Y0246122D03*
X0185345Y0245020D03*
X0192288Y0255103D03*
X0194020Y0256363D03*
X0194178Y0256520D03*
X0194178Y0257937D03*
X0194020Y0258095D03*
X0197012Y0258252D03*
X0181737Y0256993D03*
X0172760Y0258725D03*
G36*
X0105918Y0268609D02*
X0104828Y0269238D01*
X0104906Y0269373D01*
X0105996Y0268744D01*
X0105918Y0268609D01*
G37*
G36*
X0056903Y0321896D02*
X0056274Y0322986D01*
X0056409Y0323064D01*
X0057038Y0321974D01*
X0056903Y0321896D01*
G37*
G36*
X0055161Y0322709D02*
X0054532Y0323799D01*
X0054667Y0323877D01*
X0055296Y0322787D01*
X0055161Y0322709D01*
G37*
G36*
X0054946Y0322767D02*
X0054317Y0323857D01*
X0054452Y0323935D01*
X0055081Y0322845D01*
X0054946Y0322767D01*
G37*
G36*
X0053137Y0461359D02*
X0053766Y0462449D01*
X0053901Y0462371D01*
X0053272Y0461281D01*
X0053137Y0461359D01*
G37*
G36*
X0104761Y0513252D02*
X0105851Y0513881D01*
X0105929Y0513746D01*
X0104839Y0513117D01*
X0104761Y0513252D01*
G37*
G36*
X0106215Y0511364D02*
X0107305Y0511993D01*
X0107383Y0511858D01*
X0106293Y0511229D01*
X0106215Y0511364D01*
G37*
G36*
X0106163Y0509879D02*
X0107253Y0510508D01*
X0107331Y0510373D01*
X0106241Y0509744D01*
X0106163Y0509879D01*
G37*
G36*
X0243695Y0512702D02*
X0244785Y0512073D01*
X0244707Y0511938D01*
X0243617Y0512567D01*
X0243695Y0512702D01*
G37*
G36*
X0243774Y0512839D02*
X0244864Y0512210D01*
X0244786Y0512075D01*
X0243696Y0512704D01*
X0243774Y0512839D01*
G37*
G36*
X0243852Y0512975D02*
X0244942Y0512346D01*
X0244864Y0512211D01*
X0243774Y0512840D01*
X0243852Y0512975D01*
G37*
G36*
X0243931Y0513112D02*
X0245021Y0512483D01*
X0244943Y0512348D01*
X0243853Y0512977D01*
X0243931Y0513112D01*
G37*
G36*
X0244010Y0513248D02*
X0245100Y0512619D01*
X0245022Y0512484D01*
X0243932Y0513113D01*
X0244010Y0513248D01*
G37*
G36*
X0244088Y0513384D02*
X0245178Y0512755D01*
X0245100Y0512620D01*
X0244010Y0513249D01*
X0244088Y0513384D01*
G37*
G36*
X0246103Y0514039D02*
X0247193Y0513410D01*
X0247115Y0513275D01*
X0246025Y0513904D01*
X0246103Y0514039D01*
G37*
G36*
X0247155Y0272094D02*
X0246065Y0271465D01*
X0245987Y0271600D01*
X0247077Y0272229D01*
X0247155Y0272094D01*
G37*
G36*
X0247234Y0271958D02*
X0246144Y0271329D01*
X0246066Y0271464D01*
X0247156Y0272093D01*
X0247234Y0271958D01*
G37*
G36*
X0247312Y0271822D02*
X0246222Y0271193D01*
X0246144Y0271328D01*
X0247234Y0271957D01*
X0247312Y0271822D01*
G37*
G36*
X0247391Y0271685D02*
X0246301Y0271056D01*
X0246223Y0271191D01*
X0247313Y0271820D01*
X0247391Y0271685D01*
G37*
G36*
X0247470Y0271549D02*
X0246380Y0270920D01*
X0246302Y0271055D01*
X0247392Y0271684D01*
X0247470Y0271549D01*
G37*
G36*
X0247549Y0271412D02*
X0246459Y0270783D01*
X0246381Y0270918D01*
X0247471Y0271547D01*
X0247549Y0271412D01*
G37*
G36*
X0247109Y0269340D02*
X0246019Y0268711D01*
X0245941Y0268846D01*
X0247031Y0269475D01*
X0247109Y0269340D01*
G37*
D18*
X0196461Y0258567D03*
X0196304Y0258882D03*
X0188745Y0256678D03*
X0180871Y0255575D03*
X0177406Y0255575D03*
X0171264Y0256835D03*
X0177865Y0245020D03*
X0184479Y0244075D03*
X0163863Y0256835D03*
X0158509Y0255575D03*
X0158509Y0258882D03*
X0155201Y0258882D03*
X0154886Y0256993D03*
G36*
X0306763Y0372531D02*
X0306476Y0370188D01*
X0306321Y0370207D01*
X0306608Y0372550D01*
X0306763Y0372531D01*
G37*
G36*
X0306282Y0408719D02*
X0306431Y0406363D01*
X0306276Y0406353D01*
X0306127Y0408709D01*
X0306282Y0408719D01*
G37*
D19*
G36*
X0243999Y0510708D02*
X0245225Y0510001D01*
X0245147Y0509866D01*
X0243921Y0510573D01*
X0243999Y0510708D01*
G37*
G36*
X0108023Y0271941D02*
X0106797Y0272648D01*
X0106875Y0272783D01*
X0108101Y0272076D01*
X0108023Y0271941D01*
G37*
X0155201Y0259197D03*
X0158509Y0259197D03*
X0155831Y0255260D03*
X0163863Y0255890D03*
X0167327Y0255103D03*
X0171264Y0255890D03*
X0174886Y0255733D03*
X0181501Y0257307D03*
X0181658Y0257150D03*
X0172510Y0246122D03*
X0170936Y0244233D03*
X0174085Y0244233D03*
X0196461Y0256363D03*
G36*
X0245082Y0272534D02*
X0243856Y0271827D01*
X0243778Y0271962D01*
X0245004Y0272669D01*
X0245082Y0272534D01*
G37*
G36*
X0053629Y0320007D02*
X0052922Y0321233D01*
X0053057Y0321311D01*
X0053764Y0320085D01*
X0053629Y0320007D01*
G37*
D20*
G36*
X0054474Y0458952D02*
X0055811Y0461268D01*
X0055946Y0461190D01*
X0054609Y0458874D01*
X0054474Y0458952D01*
G37*
X0155201Y0258567D03*
X0155201Y0258410D03*
X0155044Y0257307D03*
X0158509Y0258567D03*
X0158509Y0255890D03*
X0167485Y0255418D03*
X0165109Y0247697D03*
X0168416Y0247225D03*
X0178022Y0245335D03*
X0177406Y0255890D03*
X0177406Y0258567D03*
X0180871Y0258252D03*
X0180871Y0255890D03*
X0180871Y0255733D03*
X0185595Y0258410D03*
X0188902Y0257465D03*
X0188902Y0257307D03*
X0188902Y0257150D03*
X0188902Y0256993D03*
X0188902Y0256835D03*
X0192524Y0255418D03*
X0184479Y0247225D03*
X0184479Y0244390D03*
X0184479Y0244233D03*
D21*
X0184400Y0247697D03*
X0177485Y0255260D03*
X0174808Y0255890D03*
X0171343Y0256048D03*
X0177485Y0259197D03*
X0174007Y0244548D03*
X0174007Y0244390D03*
X0171014Y0244390D03*
X0171014Y0244548D03*
X0163784Y0256048D03*
X0158430Y0255260D03*
X0154808Y0256205D03*
X0193863Y0256205D03*
X0196383Y0259197D03*
G36*
X0295350Y0323307D02*
X0294564Y0321945D01*
X0294428Y0322023D01*
X0295214Y0323385D01*
X0295350Y0323307D01*
G37*
G36*
X0106294Y0511228D02*
X0107656Y0512014D01*
X0107734Y0511878D01*
X0106372Y0511092D01*
X0106294Y0511228D01*
G37*
G36*
X0104546Y0513311D02*
X0105908Y0514097D01*
X0105986Y0513961D01*
X0104624Y0513175D01*
X0104546Y0513311D01*
G37*
G36*
X0053000Y0461438D02*
X0053786Y0462800D01*
X0053922Y0462722D01*
X0053136Y0461360D01*
X0053000Y0461438D01*
G37*
G36*
X0057117Y0321839D02*
X0056331Y0323201D01*
X0056467Y0323279D01*
X0057253Y0321917D01*
X0057117Y0321839D01*
G37*
D22*
G36*
X0056336Y0321933D02*
X0056101Y0322341D01*
X0056236Y0322419D01*
X0056471Y0322011D01*
X0056336Y0321933D01*
G37*
G36*
X0056200Y0321854D02*
X0055965Y0322262D01*
X0056100Y0322340D01*
X0056335Y0321932D01*
X0056200Y0321854D01*
G37*
G36*
X0056142Y0321639D02*
X0055907Y0322047D01*
X0056042Y0322125D01*
X0056277Y0321717D01*
X0056142Y0321639D01*
G37*
G36*
X0055381Y0321382D02*
X0055146Y0321790D01*
X0055281Y0321868D01*
X0055516Y0321460D01*
X0055381Y0321382D01*
G37*
G36*
X0106081Y0270152D02*
X0105673Y0270387D01*
X0105751Y0270522D01*
X0106159Y0270287D01*
X0106081Y0270152D01*
G37*
G36*
X0106002Y0270016D02*
X0105594Y0270251D01*
X0105672Y0270386D01*
X0106080Y0270151D01*
X0106002Y0270016D01*
G37*
G36*
X0105924Y0269879D02*
X0105516Y0270114D01*
X0105594Y0270249D01*
X0106002Y0270014D01*
X0105924Y0269879D01*
G37*
G36*
X0105845Y0269743D02*
X0105437Y0269978D01*
X0105515Y0270113D01*
X0105923Y0269878D01*
X0105845Y0269743D01*
G37*
G36*
X0106632Y0271107D02*
X0106224Y0271342D01*
X0106302Y0271477D01*
X0106710Y0271242D01*
X0106632Y0271107D01*
G37*
G36*
X0106711Y0271243D02*
X0106303Y0271478D01*
X0106381Y0271613D01*
X0106789Y0271378D01*
X0106711Y0271243D01*
G37*
G36*
X0106790Y0271379D02*
X0106382Y0271614D01*
X0106460Y0271749D01*
X0106868Y0271514D01*
X0106790Y0271379D01*
G37*
G36*
X0106869Y0271516D02*
X0106461Y0271751D01*
X0106539Y0271886D01*
X0106947Y0271651D01*
X0106869Y0271516D01*
G37*
X0155201Y0259355D03*
X0158509Y0259355D03*
X0155989Y0255103D03*
X0175660Y0244390D03*
X0180542Y0244390D03*
G36*
X0245403Y0270719D02*
X0244995Y0270484D01*
X0244917Y0270619D01*
X0245325Y0270854D01*
X0245403Y0270719D01*
G37*
G36*
X0245482Y0270583D02*
X0245074Y0270348D01*
X0244996Y0270483D01*
X0245404Y0270718D01*
X0245482Y0270583D01*
G37*
G36*
X0245146Y0271480D02*
X0244738Y0271245D01*
X0244660Y0271380D01*
X0245068Y0271615D01*
X0245146Y0271480D01*
G37*
G36*
X0245067Y0271616D02*
X0244659Y0271381D01*
X0244581Y0271516D01*
X0244989Y0271751D01*
X0245067Y0271616D01*
G37*
G36*
X0244988Y0271752D02*
X0244580Y0271517D01*
X0244502Y0271652D01*
X0244910Y0271887D01*
X0244988Y0271752D01*
G37*
G36*
X0295690Y0320747D02*
X0295455Y0320339D01*
X0295320Y0320417D01*
X0295555Y0320825D01*
X0295690Y0320747D01*
G37*
G36*
X0296613Y0322032D02*
X0296378Y0321624D01*
X0296243Y0321702D01*
X0296478Y0322110D01*
X0296613Y0322032D01*
G37*
G36*
X0296750Y0321954D02*
X0296515Y0321546D01*
X0296380Y0321624D01*
X0296615Y0322032D01*
X0296750Y0321954D01*
G37*
G36*
X0295931Y0322426D02*
X0295696Y0322018D01*
X0295561Y0322096D01*
X0295796Y0322504D01*
X0295931Y0322426D01*
G37*
G36*
X0295795Y0322505D02*
X0295560Y0322097D01*
X0295425Y0322175D01*
X0295660Y0322583D01*
X0295795Y0322505D01*
G37*
G36*
X0295443Y0322526D02*
X0295208Y0322118D01*
X0295073Y0322196D01*
X0295308Y0322604D01*
X0295443Y0322526D01*
G37*
G36*
X0297186Y0323338D02*
X0296951Y0322930D01*
X0296816Y0323008D01*
X0297051Y0323416D01*
X0297186Y0323338D01*
G37*
G36*
X0245447Y0511327D02*
X0245855Y0511092D01*
X0245777Y0510957D01*
X0245369Y0511192D01*
X0245447Y0511327D01*
G37*
G36*
X0245525Y0511463D02*
X0245933Y0511228D01*
X0245855Y0511093D01*
X0245447Y0511328D01*
X0245525Y0511463D01*
G37*
G36*
X0245604Y0511600D02*
X0246012Y0511365D01*
X0245934Y0511230D01*
X0245526Y0511465D01*
X0245604Y0511600D01*
G37*
G36*
X0245683Y0511736D02*
X0246091Y0511501D01*
X0246013Y0511366D01*
X0245605Y0511601D01*
X0245683Y0511736D01*
G37*
G36*
X0245762Y0511873D02*
X0246170Y0511638D01*
X0246092Y0511503D01*
X0245684Y0511738D01*
X0245762Y0511873D01*
G37*
G36*
X0245840Y0512009D02*
X0246248Y0511774D01*
X0246170Y0511639D01*
X0245762Y0511874D01*
X0245840Y0512009D01*
G37*
G36*
X0245919Y0512145D02*
X0246327Y0511910D01*
X0246249Y0511775D01*
X0245841Y0512010D01*
X0245919Y0512145D01*
G37*
G36*
X0245998Y0512282D02*
X0246406Y0512047D01*
X0246328Y0511912D01*
X0245920Y0512147D01*
X0245998Y0512282D01*
G37*
G36*
X0246077Y0512418D02*
X0246485Y0512183D01*
X0246407Y0512048D01*
X0245999Y0512283D01*
X0246077Y0512418D01*
G37*
G36*
X0246155Y0512555D02*
X0246563Y0512320D01*
X0246485Y0512185D01*
X0246077Y0512420D01*
X0246155Y0512555D01*
G37*
G36*
X0106394Y0510740D02*
X0106802Y0510975D01*
X0106880Y0510840D01*
X0106472Y0510605D01*
X0106394Y0510740D01*
G37*
G36*
X0106036Y0511988D02*
X0106444Y0512223D01*
X0106522Y0512088D01*
X0106114Y0511853D01*
X0106036Y0511988D01*
G37*
G36*
X0105958Y0512125D02*
X0106366Y0512360D01*
X0106444Y0512225D01*
X0106036Y0511990D01*
X0105958Y0512125D01*
G37*
G36*
X0105664Y0512319D02*
X0106072Y0512554D01*
X0106150Y0512419D01*
X0105742Y0512184D01*
X0105664Y0512319D01*
G37*
G36*
X0105585Y0512455D02*
X0105993Y0512690D01*
X0106071Y0512555D01*
X0105663Y0512320D01*
X0105585Y0512455D01*
G37*
G36*
X0105506Y0512592D02*
X0105914Y0512827D01*
X0105992Y0512692D01*
X0105584Y0512457D01*
X0105506Y0512592D01*
G37*
G36*
X0105428Y0512728D02*
X0105836Y0512963D01*
X0105914Y0512828D01*
X0105506Y0512593D01*
X0105428Y0512728D01*
G37*
G36*
X0104872Y0510225D02*
X0105280Y0510460D01*
X0105358Y0510325D01*
X0104950Y0510090D01*
X0104872Y0510225D01*
G37*
G36*
X0056216Y0459763D02*
X0056451Y0460171D01*
X0056586Y0460093D01*
X0056351Y0459685D01*
X0056216Y0459763D01*
G37*
G36*
X0054794Y0460766D02*
X0055029Y0461174D01*
X0055164Y0461096D01*
X0054929Y0460688D01*
X0054794Y0460766D01*
G37*
G36*
X0054658Y0460845D02*
X0054893Y0461253D01*
X0055028Y0461175D01*
X0054793Y0460767D01*
X0054658Y0460845D01*
G37*
G36*
X0054522Y0460923D02*
X0054757Y0461331D01*
X0054892Y0461253D01*
X0054657Y0460845D01*
X0054522Y0460923D01*
G37*
D23*
G36*
X0054610Y0458872D02*
X0056105Y0461462D01*
X0056240Y0461384D01*
X0054745Y0458794D01*
X0054610Y0458872D01*
G37*
G36*
X0050732Y0456565D02*
X0052227Y0459155D01*
X0052362Y0459077D01*
X0050867Y0456487D01*
X0050732Y0456565D01*
G37*
G36*
X0050596Y0456644D02*
X0052091Y0459234D01*
X0052226Y0459156D01*
X0050731Y0456566D01*
X0050596Y0456644D01*
G37*
G36*
X0050538Y0456859D02*
X0052033Y0459449D01*
X0052168Y0459371D01*
X0050673Y0456781D01*
X0050538Y0456859D01*
G37*
G36*
X0050402Y0456938D02*
X0051897Y0459528D01*
X0052032Y0459450D01*
X0050537Y0456860D01*
X0050402Y0456938D01*
G37*
G36*
X0057754Y0463058D02*
X0059249Y0465648D01*
X0059384Y0465570D01*
X0057889Y0462980D01*
X0057754Y0463058D01*
G37*
G36*
X0057890Y0462979D02*
X0059385Y0465569D01*
X0059520Y0465491D01*
X0058025Y0462901D01*
X0057890Y0462979D01*
G37*
G36*
X0109530Y0512551D02*
X0112120Y0514046D01*
X0112198Y0513911D01*
X0109608Y0512416D01*
X0109530Y0512551D01*
G37*
G36*
X0056716Y0315606D02*
X0055221Y0318196D01*
X0055356Y0318274D01*
X0056851Y0315684D01*
X0056716Y0315606D01*
G37*
G36*
X0056579Y0315527D02*
X0055084Y0318117D01*
X0055219Y0318195D01*
X0056714Y0315605D01*
X0056579Y0315527D01*
G37*
G36*
X0056364Y0315585D02*
X0054869Y0318175D01*
X0055004Y0318253D01*
X0056499Y0315663D01*
X0056364Y0315585D01*
G37*
G36*
X0056228Y0315506D02*
X0054733Y0318096D01*
X0054868Y0318174D01*
X0056363Y0315584D01*
X0056228Y0315506D01*
G37*
X0167642Y0257622D03*
X0167642Y0255733D03*
X0171264Y0257622D03*
X0168259Y0246752D03*
X0165109Y0247067D03*
X0165109Y0247225D03*
X0165109Y0247382D03*
X0165109Y0247540D03*
X0178180Y0245807D03*
X0180871Y0256048D03*
X0181028Y0259197D03*
X0185753Y0259040D03*
X0185753Y0258882D03*
X0185753Y0258725D03*
X0185753Y0258567D03*
X0189060Y0258252D03*
X0189217Y0259197D03*
X0192682Y0258725D03*
X0192682Y0255575D03*
X0184479Y0247067D03*
X0184479Y0246910D03*
X0184479Y0244548D03*
G36*
X0242103Y0270451D02*
X0239513Y0268956D01*
X0239435Y0269091D01*
X0242025Y0270586D01*
X0242103Y0270451D01*
G37*
G36*
X0242161Y0270666D02*
X0239571Y0269171D01*
X0239493Y0269306D01*
X0242083Y0270801D01*
X0242161Y0270666D01*
G37*
G36*
X0242182Y0270314D02*
X0239592Y0268819D01*
X0239514Y0268954D01*
X0242104Y0270449D01*
X0242182Y0270314D01*
G37*
G36*
X0293948Y0319935D02*
X0292453Y0317345D01*
X0292318Y0317423D01*
X0293813Y0320013D01*
X0293948Y0319935D01*
G37*
G36*
X0293890Y0320150D02*
X0292395Y0317560D01*
X0292260Y0317638D01*
X0293755Y0320228D01*
X0293890Y0320150D01*
G37*
G36*
X0294084Y0319856D02*
X0292589Y0317266D01*
X0292454Y0317344D01*
X0293949Y0319934D01*
X0294084Y0319856D01*
G37*
G36*
X0301142Y0325782D02*
X0299647Y0323192D01*
X0299512Y0323270D01*
X0301007Y0325860D01*
X0301142Y0325782D01*
G37*
G36*
X0301279Y0325703D02*
X0299784Y0323113D01*
X0299649Y0323191D01*
X0301144Y0325781D01*
X0301279Y0325703D01*
G37*
G36*
X0295833Y0458970D02*
X0297328Y0456380D01*
X0297193Y0456302D01*
X0295698Y0458892D01*
X0295833Y0458970D01*
G37*
G36*
X0295618Y0459027D02*
X0297113Y0456437D01*
X0296978Y0456359D01*
X0295483Y0458949D01*
X0295618Y0459027D01*
G37*
G36*
X0295969Y0459048D02*
X0297464Y0456458D01*
X0297329Y0456380D01*
X0295834Y0458970D01*
X0295969Y0459048D01*
G37*
G36*
X0295589Y0465375D02*
X0297084Y0462785D01*
X0296949Y0462707D01*
X0295454Y0465297D01*
X0295589Y0465375D01*
G37*
G36*
X0295726Y0465454D02*
X0297221Y0462864D01*
X0297086Y0462786D01*
X0295591Y0465376D01*
X0295726Y0465454D01*
G37*
G36*
X0295941Y0465397D02*
X0297436Y0462807D01*
X0297301Y0462729D01*
X0295806Y0465319D01*
X0295941Y0465397D01*
G37*
G36*
X0296077Y0465475D02*
X0297572Y0462885D01*
X0297437Y0462807D01*
X0295942Y0465397D01*
X0296077Y0465475D01*
G37*
D24*
G36*
X0296992Y0323633D02*
X0296048Y0321997D01*
X0295912Y0322075D01*
X0296856Y0323711D01*
X0296992Y0323633D01*
G37*
G36*
X0297129Y0323554D02*
X0296185Y0321918D01*
X0296049Y0321996D01*
X0296993Y0323632D01*
X0297129Y0323554D01*
G37*
G36*
X0297432Y0321560D02*
X0296488Y0319924D01*
X0296352Y0320002D01*
X0297296Y0321638D01*
X0297432Y0321560D01*
G37*
G36*
X0297569Y0321481D02*
X0296625Y0319845D01*
X0296489Y0319923D01*
X0297433Y0321559D01*
X0297569Y0321481D01*
G37*
G36*
X0297705Y0321403D02*
X0296761Y0319767D01*
X0296625Y0319845D01*
X0297569Y0321481D01*
X0297705Y0321403D01*
G37*
G36*
X0245797Y0270037D02*
X0244161Y0269093D01*
X0244083Y0269229D01*
X0245719Y0270173D01*
X0245797Y0270037D01*
G37*
X0185030Y0245965D03*
X0184873Y0245807D03*
X0184873Y0245335D03*
X0185030Y0245178D03*
X0180949Y0257780D03*
X0177485Y0259040D03*
X0174650Y0256835D03*
X0174650Y0256048D03*
X0171343Y0256363D03*
X0172432Y0245807D03*
X0171172Y0244863D03*
X0173849Y0244863D03*
X0163784Y0256363D03*
X0158430Y0259040D03*
X0154808Y0256835D03*
X0155595Y0255575D03*
G36*
X0055670Y0460078D02*
X0056614Y0461714D01*
X0056750Y0461636D01*
X0055806Y0460000D01*
X0055670Y0460078D01*
G37*
D25*
G36*
X0104195Y0513290D02*
X0105965Y0514312D01*
X0106043Y0514176D01*
X0104273Y0513154D01*
X0104195Y0513290D01*
G37*
G36*
X0056656Y0320119D02*
X0055634Y0321889D01*
X0055770Y0321967D01*
X0056792Y0320197D01*
X0056656Y0320119D01*
G37*
G36*
X0056520Y0320040D02*
X0055498Y0321810D01*
X0055634Y0321888D01*
X0056656Y0320118D01*
X0056520Y0320040D01*
G37*
X0155201Y0259040D03*
X0155516Y0255733D03*
X0158509Y0255418D03*
X0163863Y0256520D03*
X0171264Y0256520D03*
X0174572Y0256520D03*
X0174572Y0256363D03*
X0174572Y0256205D03*
X0174572Y0256678D03*
X0177406Y0255418D03*
X0180871Y0255418D03*
X0173770Y0245178D03*
X0173770Y0245020D03*
X0172510Y0245650D03*
X0171251Y0245178D03*
X0171251Y0245020D03*
X0192367Y0259197D03*
X0196304Y0257622D03*
X0196461Y0257780D03*
X0196619Y0257937D03*
X0196461Y0256520D03*
G36*
X0246011Y0269979D02*
X0244241Y0268957D01*
X0244163Y0269093D01*
X0245933Y0270115D01*
X0246011Y0269979D01*
G37*
G36*
X0246090Y0269842D02*
X0244320Y0268820D01*
X0244242Y0268956D01*
X0246012Y0269978D01*
X0246090Y0269842D01*
G37*
G36*
X0245275Y0272827D02*
X0243505Y0271805D01*
X0243427Y0271941D01*
X0245197Y0272963D01*
X0245275Y0272827D01*
G37*
D26*
G36*
X0246567Y0272482D02*
X0246023Y0272168D01*
X0245945Y0272304D01*
X0246489Y0272618D01*
X0246567Y0272482D01*
G37*
G36*
X0247591Y0270709D02*
X0247047Y0270395D01*
X0246969Y0270531D01*
X0247513Y0270845D01*
X0247591Y0270709D01*
G37*
G36*
X0246463Y0269512D02*
X0245919Y0269198D01*
X0245841Y0269334D01*
X0246385Y0269648D01*
X0246463Y0269512D01*
G37*
G36*
X0246169Y0269706D02*
X0245625Y0269392D01*
X0245547Y0269528D01*
X0246091Y0269842D01*
X0246169Y0269706D01*
G37*
G36*
X0245560Y0270446D02*
X0245016Y0270132D01*
X0244938Y0270268D01*
X0245482Y0270582D01*
X0245560Y0270446D01*
G37*
G36*
X0244018Y0270283D02*
X0243474Y0269969D01*
X0243396Y0270105D01*
X0243940Y0270419D01*
X0244018Y0270283D01*
G37*
G36*
X0295145Y0321062D02*
X0294831Y0320518D01*
X0294695Y0320596D01*
X0295009Y0321140D01*
X0295145Y0321062D01*
G37*
G36*
X0296556Y0322247D02*
X0296242Y0321703D01*
X0296106Y0321781D01*
X0296420Y0322325D01*
X0296556Y0322247D01*
G37*
G36*
X0296226Y0322620D02*
X0295912Y0322076D01*
X0295776Y0322154D01*
X0296090Y0322698D01*
X0296226Y0322620D01*
G37*
G36*
X0296641Y0323653D02*
X0296327Y0323109D01*
X0296191Y0323187D01*
X0296505Y0323731D01*
X0296641Y0323653D01*
G37*
G36*
X0296887Y0321875D02*
X0296573Y0321331D01*
X0296437Y0321409D01*
X0296751Y0321953D01*
X0296887Y0321875D01*
G37*
G36*
X0298056Y0321381D02*
X0297742Y0320837D01*
X0297606Y0320915D01*
X0297920Y0321459D01*
X0298056Y0321381D01*
G37*
G36*
X0298193Y0321302D02*
X0297879Y0320758D01*
X0297743Y0320836D01*
X0298057Y0321380D01*
X0298193Y0321302D01*
G37*
G36*
X0298329Y0321224D02*
X0298015Y0320680D01*
X0297879Y0320758D01*
X0298193Y0321302D01*
X0298329Y0321224D01*
G37*
G36*
X0298466Y0321145D02*
X0298152Y0320601D01*
X0298016Y0320679D01*
X0298330Y0321223D01*
X0298466Y0321145D01*
G37*
G36*
X0296001Y0460885D02*
X0296315Y0460341D01*
X0296179Y0460263D01*
X0295865Y0460807D01*
X0296001Y0460885D01*
G37*
G36*
X0246098Y0512770D02*
X0246642Y0512456D01*
X0246564Y0512320D01*
X0246020Y0512634D01*
X0246098Y0512770D01*
G37*
G36*
X0246177Y0512907D02*
X0246721Y0512593D01*
X0246643Y0512457D01*
X0246099Y0512771D01*
X0246177Y0512907D01*
G37*
G36*
X0246255Y0513043D02*
X0246799Y0512729D01*
X0246721Y0512593D01*
X0246177Y0512907D01*
X0246255Y0513043D01*
G37*
G36*
X0244676Y0513773D02*
X0245220Y0513459D01*
X0245142Y0513323D01*
X0244598Y0513637D01*
X0244676Y0513773D01*
G37*
G36*
X0243653Y0512000D02*
X0244197Y0511686D01*
X0244119Y0511550D01*
X0243575Y0511864D01*
X0243653Y0512000D01*
G37*
G36*
X0245153Y0511134D02*
X0245697Y0510820D01*
X0245619Y0510684D01*
X0245075Y0510998D01*
X0245153Y0511134D01*
G37*
G36*
X0245232Y0511270D02*
X0245776Y0510956D01*
X0245698Y0510820D01*
X0245154Y0511134D01*
X0245232Y0511270D01*
G37*
G36*
X0245074Y0510997D02*
X0245618Y0510683D01*
X0245540Y0510547D01*
X0244996Y0510861D01*
X0245074Y0510997D01*
G37*
G36*
X0106336Y0510525D02*
X0106880Y0510839D01*
X0106958Y0510703D01*
X0106414Y0510389D01*
X0106336Y0510525D01*
G37*
G36*
X0106315Y0510877D02*
X0106859Y0511191D01*
X0106937Y0511055D01*
X0106393Y0510741D01*
X0106315Y0510877D01*
G37*
G36*
X0105743Y0512183D02*
X0106287Y0512497D01*
X0106365Y0512361D01*
X0105821Y0512047D01*
X0105743Y0512183D01*
G37*
G36*
X0105349Y0512865D02*
X0105893Y0513179D01*
X0105971Y0513043D01*
X0105427Y0512729D01*
X0105349Y0512865D01*
G37*
G36*
X0056273Y0459549D02*
X0056587Y0460093D01*
X0056723Y0460015D01*
X0056409Y0459471D01*
X0056273Y0459549D01*
G37*
G36*
X0054416Y0459166D02*
X0054730Y0459710D01*
X0054866Y0459632D01*
X0054552Y0459088D01*
X0054416Y0459166D01*
G37*
G36*
X0054930Y0460687D02*
X0055244Y0461231D01*
X0055380Y0461153D01*
X0055066Y0460609D01*
X0054930Y0460687D01*
G37*
G36*
X0054306Y0460866D02*
X0054620Y0461410D01*
X0054756Y0461332D01*
X0054442Y0460788D01*
X0054306Y0460866D01*
G37*
G36*
X0054170Y0460945D02*
X0054484Y0461489D01*
X0054620Y0461411D01*
X0054306Y0460867D01*
X0054170Y0460945D01*
G37*
G36*
X0054033Y0461024D02*
X0054347Y0461568D01*
X0054483Y0461490D01*
X0054169Y0460946D01*
X0054033Y0461024D01*
G37*
G36*
X0053897Y0461102D02*
X0054211Y0461646D01*
X0054347Y0461568D01*
X0054033Y0461024D01*
X0053897Y0461102D01*
G37*
G36*
X0053760Y0461181D02*
X0054074Y0461725D01*
X0054210Y0461647D01*
X0053896Y0461103D01*
X0053760Y0461181D01*
G37*
G36*
X0056472Y0322012D02*
X0056158Y0322556D01*
X0056294Y0322634D01*
X0056608Y0322090D01*
X0056472Y0322012D01*
G37*
G36*
X0056084Y0321424D02*
X0055770Y0321968D01*
X0055906Y0322046D01*
X0056220Y0321502D01*
X0056084Y0321424D01*
G37*
G36*
X0055245Y0321303D02*
X0054931Y0321847D01*
X0055067Y0321925D01*
X0055381Y0321381D01*
X0055245Y0321303D01*
G37*
G36*
X0054835Y0321067D02*
X0054521Y0321611D01*
X0054657Y0321689D01*
X0054971Y0321145D01*
X0054835Y0321067D01*
G37*
G36*
X0054778Y0320852D02*
X0054464Y0321396D01*
X0054600Y0321474D01*
X0054914Y0320930D01*
X0054778Y0320852D01*
G37*
G36*
X0054641Y0320773D02*
X0054327Y0321317D01*
X0054463Y0321395D01*
X0054777Y0320851D01*
X0054641Y0320773D01*
G37*
G36*
X0054505Y0320694D02*
X0054191Y0321238D01*
X0054327Y0321316D01*
X0054641Y0320772D01*
X0054505Y0320694D01*
G37*
G36*
X0054369Y0320616D02*
X0054055Y0321160D01*
X0054191Y0321238D01*
X0054505Y0320694D01*
X0054369Y0320616D01*
G37*
G36*
X0054232Y0320537D02*
X0053918Y0321081D01*
X0054054Y0321159D01*
X0054368Y0320615D01*
X0054232Y0320537D01*
G37*
G36*
X0054096Y0320458D02*
X0053782Y0321002D01*
X0053918Y0321080D01*
X0054232Y0320536D01*
X0054096Y0320458D01*
G37*
G36*
X0056305Y0320097D02*
X0055991Y0320641D01*
X0056127Y0320719D01*
X0056441Y0320175D01*
X0056305Y0320097D01*
G37*
G36*
X0104381Y0270042D02*
X0103837Y0270356D01*
X0103915Y0270492D01*
X0104459Y0270178D01*
X0104381Y0270042D01*
G37*
G36*
X0104302Y0269905D02*
X0103758Y0270219D01*
X0103836Y0270355D01*
X0104380Y0270041D01*
X0104302Y0269905D01*
G37*
G36*
X0104224Y0269769D02*
X0103680Y0270083D01*
X0103758Y0270219D01*
X0104302Y0269905D01*
X0104224Y0269769D01*
G37*
G36*
X0105824Y0269391D02*
X0105280Y0269705D01*
X0105358Y0269841D01*
X0105902Y0269527D01*
X0105824Y0269391D01*
G37*
G36*
X0105902Y0269527D02*
X0105358Y0269841D01*
X0105436Y0269977D01*
X0105980Y0269663D01*
X0105902Y0269527D01*
G37*
G36*
X0107083Y0271573D02*
X0106539Y0271887D01*
X0106617Y0272023D01*
X0107161Y0271709D01*
X0107083Y0271573D01*
G37*
G36*
X0107162Y0271709D02*
X0106618Y0272023D01*
X0106696Y0272159D01*
X0107240Y0271845D01*
X0107162Y0271709D01*
G37*
G36*
X0108369Y0270649D02*
X0107825Y0270963D01*
X0107903Y0271099D01*
X0108447Y0270785D01*
X0108369Y0270649D01*
G37*
X0169768Y0259197D03*
X0172760Y0259197D03*
X0177485Y0259355D03*
X0184400Y0247855D03*
X0183613Y0245020D03*
X0186762Y0245020D03*
X0186762Y0245178D03*
X0186762Y0245335D03*
X0188022Y0245335D03*
X0188022Y0245178D03*
X0188022Y0245020D03*
D27*
X0184400Y0247382D03*
X0189296Y0255103D03*
X0188823Y0257622D03*
X0192446Y0259040D03*
X0196383Y0258725D03*
X0177485Y0258725D03*
X0177485Y0255733D03*
X0177944Y0245178D03*
X0168495Y0247382D03*
X0164873Y0246910D03*
X0167406Y0257937D03*
X0158430Y0258725D03*
X0158430Y0255733D03*
X0154965Y0257150D03*
X0155280Y0258725D03*
D28*
X0172510Y0245493D03*
G36*
X0054278Y0323291D02*
X0051996Y0327245D01*
X0052132Y0327323D01*
X0054414Y0323369D01*
X0054278Y0323291D01*
G37*
G36*
X0053596Y0322897D02*
X0051314Y0326851D01*
X0051450Y0326929D01*
X0053732Y0322975D01*
X0053596Y0322897D01*
G37*
G36*
X0056169Y0462518D02*
X0058451Y0466472D01*
X0058587Y0466394D01*
X0056305Y0462440D01*
X0056169Y0462518D01*
G37*
G36*
X0292659Y0461319D02*
X0294941Y0457365D01*
X0294805Y0457287D01*
X0292523Y0461241D01*
X0292659Y0461319D01*
G37*
G36*
X0298114Y0464469D02*
X0300396Y0460515D01*
X0300260Y0460437D01*
X0297978Y0464391D01*
X0298114Y0464469D01*
G37*
D29*
X0192603Y0258882D03*
X0185831Y0259197D03*
X0177485Y0258410D03*
X0177485Y0256048D03*
X0178101Y0245650D03*
X0178101Y0245493D03*
X0168337Y0246910D03*
X0168337Y0247067D03*
X0167564Y0255575D03*
X0167564Y0257780D03*
X0158430Y0258410D03*
X0158430Y0256048D03*
X0155123Y0257465D03*
X0155123Y0257622D03*
G36*
X0058220Y0462606D02*
X0059636Y0465060D01*
X0059772Y0464982D01*
X0058356Y0462528D01*
X0058220Y0462606D01*
G37*
G36*
X0058163Y0462821D02*
X0059579Y0465275D01*
X0059715Y0465197D01*
X0058299Y0462743D01*
X0058163Y0462821D01*
G37*
G36*
X0058026Y0462900D02*
X0059442Y0465354D01*
X0059578Y0465276D01*
X0058162Y0462822D01*
X0058026Y0462900D01*
G37*
G36*
X0103843Y0513268D02*
X0106297Y0514684D01*
X0106375Y0514548D01*
X0103921Y0513132D01*
X0103843Y0513268D01*
G37*
G36*
X0109688Y0512279D02*
X0112142Y0513695D01*
X0112220Y0513559D01*
X0109766Y0512143D01*
X0109688Y0512279D01*
G37*
G36*
X0109709Y0511927D02*
X0112163Y0513343D01*
X0112241Y0513207D01*
X0109787Y0511791D01*
X0109709Y0511927D01*
G37*
G36*
X0109766Y0512142D02*
X0112220Y0513558D01*
X0112298Y0513422D01*
X0109844Y0512006D01*
X0109766Y0512142D01*
G37*
G36*
X0109745Y0512494D02*
X0112199Y0513910D01*
X0112277Y0513774D01*
X0109823Y0512358D01*
X0109745Y0512494D01*
G37*
D30*
G36*
X0307148Y0408774D02*
X0307227Y0407517D01*
X0307110Y0407510D01*
X0307031Y0408767D01*
X0307148Y0408774D01*
G37*
G36*
X0307784Y0408695D02*
X0307863Y0407438D01*
X0307746Y0407431D01*
X0307667Y0408688D01*
X0307784Y0408695D01*
G37*
G36*
X0306731Y0407248D02*
X0306810Y0405991D01*
X0306693Y0405984D01*
X0306614Y0407241D01*
X0306731Y0407248D01*
G37*
G36*
X0307158Y0401502D02*
X0307237Y0400245D01*
X0307120Y0400238D01*
X0307041Y0401495D01*
X0307158Y0401502D01*
G37*
G36*
X0309971Y0398800D02*
X0310050Y0397543D01*
X0309933Y0397536D01*
X0309854Y0398793D01*
X0309971Y0398800D01*
G37*
G36*
X0307032Y0380087D02*
X0306879Y0378837D01*
X0306762Y0378851D01*
X0306915Y0380101D01*
X0307032Y0380087D01*
G37*
G36*
X0307669Y0379136D02*
X0307516Y0377886D01*
X0307399Y0377900D01*
X0307552Y0379150D01*
X0307669Y0379136D01*
G37*
G36*
X0306663Y0377078D02*
X0306510Y0375828D01*
X0306393Y0375842D01*
X0306546Y0377092D01*
X0306663Y0377078D01*
G37*
G36*
X0307300Y0376127D02*
X0307147Y0374877D01*
X0307030Y0374891D01*
X0307183Y0376141D01*
X0307300Y0376127D01*
G37*
G36*
X0308927Y0375809D02*
X0308774Y0374559D01*
X0308657Y0374573D01*
X0308810Y0375823D01*
X0308927Y0375809D01*
G37*
G36*
X0307149Y0372762D02*
X0306996Y0371512D01*
X0306879Y0371526D01*
X0307032Y0372776D01*
X0307149Y0372762D01*
G37*
G36*
X0308359Y0369043D02*
X0308206Y0367793D01*
X0308089Y0367807D01*
X0308242Y0369057D01*
X0308359Y0369043D01*
G37*
D31*
G36*
X0306136Y0371617D02*
X0306088Y0371227D01*
X0305972Y0371241D01*
X0306020Y0371631D01*
X0306136Y0371617D01*
G37*
G36*
X0307556Y0377246D02*
X0307508Y0376856D01*
X0307392Y0376870D01*
X0307440Y0377260D01*
X0307556Y0377246D01*
G37*
G36*
X0309892Y0400057D02*
X0309917Y0399665D01*
X0309800Y0399657D01*
X0309775Y0400049D01*
X0309892Y0400057D01*
G37*
D32*
G36*
X0309743Y0402414D02*
X0309758Y0402179D01*
X0309641Y0402172D01*
X0309626Y0402407D01*
X0309743Y0402414D01*
G37*
D33*
G36*
X0307651Y0401809D02*
X0307762Y0400042D01*
X0307645Y0400035D01*
X0307534Y0401802D01*
X0307651Y0401809D01*
G37*
G36*
X0308596Y0398713D02*
X0308707Y0396946D01*
X0308590Y0396939D01*
X0308479Y0398706D01*
X0308596Y0398713D01*
G37*
G36*
X0309838Y0399028D02*
X0309949Y0397261D01*
X0309832Y0397254D01*
X0309721Y0399021D01*
X0309838Y0399028D01*
G37*
G36*
X0307183Y0380346D02*
X0306968Y0378588D01*
X0306851Y0378602D01*
X0307066Y0380360D01*
X0307183Y0380346D01*
G37*
G36*
X0306813Y0377337D02*
X0306598Y0375579D01*
X0306481Y0375593D01*
X0306696Y0377351D01*
X0306813Y0377337D01*
G37*
G36*
X0306447Y0372213D02*
X0306232Y0370455D01*
X0306115Y0370469D01*
X0306330Y0372227D01*
X0306447Y0372213D01*
G37*
G36*
X0308996Y0368093D02*
X0308781Y0366335D01*
X0308664Y0366349D01*
X0308879Y0368107D01*
X0308996Y0368093D01*
G37*
D34*
G36*
X0309862Y0376328D02*
X0309786Y0375704D01*
X0309670Y0375718D01*
X0309746Y0376342D01*
X0309862Y0376328D01*
G37*
G36*
X0309094Y0377176D02*
X0309018Y0376552D01*
X0308902Y0376566D01*
X0308978Y0377190D01*
X0309094Y0377176D01*
G37*
G36*
X0308032Y0397652D02*
X0308071Y0397024D01*
X0307954Y0397016D01*
X0307915Y0397644D01*
X0308032Y0397652D01*
G37*
G36*
X0309767Y0400168D02*
X0309806Y0399540D01*
X0309689Y0399532D01*
X0309650Y0400160D01*
X0309767Y0400168D01*
G37*
G36*
X0309609Y0402682D02*
X0309648Y0402054D01*
X0309531Y0402046D01*
X0309492Y0402674D01*
X0309609Y0402682D01*
G37*
G36*
X0308302Y0408610D02*
X0308341Y0407982D01*
X0308224Y0407974D01*
X0308185Y0408602D01*
X0308302Y0408610D01*
G37*
D35*
G36*
X0308931Y0408649D02*
X0309056Y0406646D01*
X0308939Y0406639D01*
X0308814Y0408642D01*
X0308931Y0408649D01*
G37*
G36*
X0309713Y0399138D02*
X0309838Y0397135D01*
X0309721Y0397128D01*
X0309596Y0399131D01*
X0309713Y0399138D01*
G37*
G36*
X0309438Y0399121D02*
X0309563Y0397118D01*
X0309446Y0397111D01*
X0309321Y0399114D01*
X0309438Y0399121D01*
G37*
G36*
X0308188Y0398924D02*
X0308313Y0396921D01*
X0308196Y0396914D01*
X0308071Y0398917D01*
X0308188Y0398924D01*
G37*
D36*
G36*
X0307833Y0400795D02*
X0307880Y0400050D01*
X0307763Y0400043D01*
X0307716Y0400788D01*
X0307833Y0400795D01*
G37*
G36*
X0306662Y0401234D02*
X0306709Y0400489D01*
X0306592Y0400482D01*
X0306545Y0401227D01*
X0306662Y0401234D01*
G37*
G36*
X0309649Y0400159D02*
X0309696Y0399414D01*
X0309579Y0399407D01*
X0309532Y0400152D01*
X0309649Y0400159D01*
G37*
G36*
X0309163Y0397841D02*
X0309210Y0397096D01*
X0309093Y0397089D01*
X0309046Y0397834D01*
X0309163Y0397841D01*
G37*
G36*
X0307520Y0397619D02*
X0307567Y0396874D01*
X0307450Y0396867D01*
X0307403Y0397612D01*
X0307520Y0397619D01*
G37*
G36*
X0307517Y0406666D02*
X0307564Y0405921D01*
X0307447Y0405914D01*
X0307400Y0406659D01*
X0307517Y0406666D01*
G37*
G36*
X0307792Y0406683D02*
X0307839Y0405938D01*
X0307722Y0405931D01*
X0307675Y0406676D01*
X0307792Y0406683D01*
G37*
G36*
X0310247Y0379454D02*
X0310155Y0378712D01*
X0310039Y0378726D01*
X0310131Y0379468D01*
X0310247Y0379454D01*
G37*
G36*
X0308609Y0378386D02*
X0308517Y0377644D01*
X0308401Y0377658D01*
X0308493Y0378400D01*
X0308609Y0378386D01*
G37*
G36*
X0308335Y0378420D02*
X0308243Y0377678D01*
X0308127Y0377692D01*
X0308219Y0378434D01*
X0308335Y0378420D01*
G37*
G36*
X0308218Y0378434D02*
X0308126Y0377692D01*
X0308010Y0377706D01*
X0308102Y0378448D01*
X0308218Y0378434D01*
G37*
G36*
X0307453Y0377378D02*
X0307361Y0376636D01*
X0307245Y0376650D01*
X0307337Y0377392D01*
X0307453Y0377378D01*
G37*
G36*
X0307789Y0372802D02*
X0307697Y0372060D01*
X0307581Y0372074D01*
X0307673Y0372816D01*
X0307789Y0372802D01*
G37*
G36*
X0309511Y0371322D02*
X0309419Y0370580D01*
X0309303Y0370594D01*
X0309395Y0371336D01*
X0309511Y0371322D01*
G37*
G36*
X0307865Y0369223D02*
X0307773Y0368481D01*
X0307657Y0368495D01*
X0307749Y0369237D01*
X0307865Y0369223D01*
G37*
D37*
G36*
X0307982Y0369208D02*
X0307876Y0368350D01*
X0307760Y0368364D01*
X0307866Y0369222D01*
X0307982Y0369208D01*
G37*
G36*
X0308122Y0370341D02*
X0308016Y0369483D01*
X0307900Y0369497D01*
X0308006Y0370355D01*
X0308122Y0370341D01*
G37*
G36*
X0308253Y0370444D02*
X0308147Y0369586D01*
X0308031Y0369600D01*
X0308137Y0370458D01*
X0308253Y0370444D01*
G37*
G36*
X0308004Y0370356D02*
X0307898Y0369498D01*
X0307782Y0369512D01*
X0307888Y0370370D01*
X0308004Y0370356D01*
G37*
G36*
X0307887Y0370370D02*
X0307781Y0369512D01*
X0307665Y0369526D01*
X0307771Y0370384D01*
X0307887Y0370370D01*
G37*
G36*
X0307614Y0370404D02*
X0307508Y0369546D01*
X0307392Y0369560D01*
X0307498Y0370418D01*
X0307614Y0370404D01*
G37*
G36*
X0307496Y0370418D02*
X0307390Y0369560D01*
X0307274Y0369574D01*
X0307380Y0370432D01*
X0307496Y0370418D01*
G37*
G36*
X0307379Y0370432D02*
X0307273Y0369574D01*
X0307157Y0369588D01*
X0307263Y0370446D01*
X0307379Y0370432D01*
G37*
G36*
X0307240Y0369299D02*
X0307134Y0368441D01*
X0307018Y0368455D01*
X0307124Y0369313D01*
X0307240Y0369299D01*
G37*
G36*
X0307123Y0369314D02*
X0307017Y0368456D01*
X0306901Y0368470D01*
X0307007Y0369328D01*
X0307123Y0369314D01*
G37*
G36*
X0306878Y0367321D02*
X0306772Y0366463D01*
X0306656Y0366477D01*
X0306762Y0367335D01*
X0306878Y0367321D01*
G37*
G36*
X0306995Y0367306D02*
X0306889Y0366448D01*
X0306773Y0366462D01*
X0306879Y0367320D01*
X0306995Y0367306D01*
G37*
G36*
X0307113Y0367292D02*
X0307007Y0366434D01*
X0306891Y0366448D01*
X0306997Y0367306D01*
X0307113Y0367292D01*
G37*
G36*
X0307230Y0367278D02*
X0307124Y0366420D01*
X0307008Y0366434D01*
X0307114Y0367292D01*
X0307230Y0367278D01*
G37*
G36*
X0307503Y0367244D02*
X0307397Y0366386D01*
X0307281Y0366400D01*
X0307387Y0367258D01*
X0307503Y0367244D01*
G37*
G36*
X0307621Y0367230D02*
X0307515Y0366372D01*
X0307399Y0366386D01*
X0307505Y0367244D01*
X0307621Y0367230D01*
G37*
G36*
X0307738Y0367215D02*
X0307632Y0366357D01*
X0307516Y0366371D01*
X0307622Y0367229D01*
X0307738Y0367215D01*
G37*
G36*
X0307855Y0367201D02*
X0307749Y0366343D01*
X0307633Y0366357D01*
X0307739Y0367215D01*
X0307855Y0367201D01*
G37*
G36*
X0308129Y0367167D02*
X0308023Y0366309D01*
X0307907Y0366323D01*
X0308013Y0367181D01*
X0308129Y0367167D01*
G37*
G36*
X0306605Y0367354D02*
X0306499Y0366496D01*
X0306383Y0366510D01*
X0306489Y0367368D01*
X0306605Y0367354D01*
G37*
G36*
X0307555Y0372831D02*
X0307449Y0371973D01*
X0307333Y0371987D01*
X0307439Y0372845D01*
X0307555Y0372831D01*
G37*
G36*
X0307921Y0372905D02*
X0307815Y0372047D01*
X0307699Y0372061D01*
X0307805Y0372919D01*
X0307921Y0372905D01*
G37*
G36*
X0308194Y0372871D02*
X0308088Y0372013D01*
X0307972Y0372027D01*
X0308078Y0372885D01*
X0308194Y0372871D01*
G37*
G36*
X0308297Y0372739D02*
X0308191Y0371881D01*
X0308075Y0371895D01*
X0308181Y0372753D01*
X0308297Y0372739D01*
G37*
G36*
X0308414Y0372725D02*
X0308308Y0371867D01*
X0308192Y0371881D01*
X0308298Y0372739D01*
X0308414Y0372725D01*
G37*
G36*
X0307672Y0372816D02*
X0307566Y0371958D01*
X0307450Y0371972D01*
X0307556Y0372830D01*
X0307672Y0372816D01*
G37*
G36*
X0307965Y0375410D02*
X0307859Y0374552D01*
X0307743Y0374566D01*
X0307849Y0375424D01*
X0307965Y0375410D01*
G37*
G36*
X0307848Y0375425D02*
X0307742Y0374567D01*
X0307626Y0374581D01*
X0307732Y0375439D01*
X0307848Y0375425D01*
G37*
G36*
X0307628Y0375571D02*
X0307522Y0374713D01*
X0307406Y0374727D01*
X0307512Y0375585D01*
X0307628Y0375571D01*
G37*
G36*
X0307731Y0375439D02*
X0307625Y0374581D01*
X0307509Y0374595D01*
X0307615Y0375453D01*
X0307731Y0375439D01*
G37*
G36*
X0308239Y0375377D02*
X0308133Y0374519D01*
X0308017Y0374533D01*
X0308123Y0375391D01*
X0308239Y0375377D01*
G37*
G36*
X0308605Y0375451D02*
X0308499Y0374593D01*
X0308383Y0374607D01*
X0308489Y0375465D01*
X0308605Y0375451D01*
G37*
G36*
X0308356Y0375362D02*
X0308250Y0374504D01*
X0308134Y0374518D01*
X0308240Y0375376D01*
X0308356Y0375362D01*
G37*
G36*
X0308740Y0378488D02*
X0308634Y0377630D01*
X0308518Y0377644D01*
X0308624Y0378502D01*
X0308740Y0378488D01*
G37*
G36*
X0308857Y0378474D02*
X0308751Y0377616D01*
X0308635Y0377630D01*
X0308741Y0378488D01*
X0308857Y0378474D01*
G37*
G36*
X0308115Y0378565D02*
X0308009Y0377707D01*
X0307893Y0377721D01*
X0307999Y0378579D01*
X0308115Y0378565D01*
G37*
G36*
X0307998Y0378580D02*
X0307892Y0377722D01*
X0307776Y0377736D01*
X0307882Y0378594D01*
X0307998Y0378580D01*
G37*
G36*
X0307551Y0399002D02*
X0307606Y0398139D01*
X0307489Y0398132D01*
X0307434Y0398995D01*
X0307551Y0399002D01*
G37*
G36*
X0307827Y0399019D02*
X0307882Y0398156D01*
X0307765Y0398149D01*
X0307710Y0399012D01*
X0307827Y0399019D01*
G37*
G36*
X0308722Y0400456D02*
X0308777Y0399593D01*
X0308660Y0399586D01*
X0308605Y0400449D01*
X0308722Y0400456D01*
G37*
G36*
X0309005Y0400356D02*
X0309060Y0399493D01*
X0308943Y0399486D01*
X0308888Y0400349D01*
X0309005Y0400356D01*
G37*
G36*
X0309123Y0400363D02*
X0309178Y0399500D01*
X0309061Y0399493D01*
X0309006Y0400356D01*
X0309123Y0400363D01*
G37*
G36*
X0309248Y0400253D02*
X0309303Y0399390D01*
X0309186Y0399383D01*
X0309131Y0400246D01*
X0309248Y0400253D01*
G37*
G36*
X0309366Y0400260D02*
X0309421Y0399397D01*
X0309304Y0399390D01*
X0309249Y0400253D01*
X0309366Y0400260D01*
G37*
G36*
X0308069Y0400810D02*
X0308124Y0399947D01*
X0308007Y0399940D01*
X0307952Y0400803D01*
X0308069Y0400810D01*
G37*
G36*
X0307951Y0400802D02*
X0308006Y0399939D01*
X0307889Y0399932D01*
X0307834Y0400795D01*
X0307951Y0400802D01*
G37*
G36*
X0307990Y0402067D02*
X0308045Y0401204D01*
X0307928Y0401197D01*
X0307873Y0402060D01*
X0307990Y0402067D01*
G37*
G36*
X0308257Y0402202D02*
X0308312Y0401339D01*
X0308195Y0401332D01*
X0308140Y0402195D01*
X0308257Y0402202D01*
G37*
G36*
X0308604Y0402342D02*
X0308659Y0401479D01*
X0308542Y0401472D01*
X0308487Y0402335D01*
X0308604Y0402342D01*
G37*
G36*
X0308375Y0402210D02*
X0308430Y0401347D01*
X0308313Y0401340D01*
X0308258Y0402203D01*
X0308375Y0402210D01*
G37*
G36*
X0309483Y0402792D02*
X0309538Y0401929D01*
X0309421Y0401922D01*
X0309366Y0402785D01*
X0309483Y0402792D01*
G37*
G36*
X0308020Y0406816D02*
X0308075Y0405953D01*
X0307958Y0405946D01*
X0307903Y0406809D01*
X0308020Y0406816D01*
G37*
G36*
X0307902Y0406809D02*
X0307957Y0405946D01*
X0307840Y0405939D01*
X0307785Y0406802D01*
X0307902Y0406809D01*
G37*
G36*
X0307391Y0406777D02*
X0307446Y0405914D01*
X0307329Y0405907D01*
X0307274Y0406770D01*
X0307391Y0406777D01*
G37*
G36*
X0307274Y0406769D02*
X0307329Y0405906D01*
X0307212Y0405899D01*
X0307157Y0406762D01*
X0307274Y0406769D01*
G37*
G36*
X0307156Y0406762D02*
X0307211Y0405899D01*
X0307094Y0405892D01*
X0307039Y0406755D01*
X0307156Y0406762D01*
G37*
G36*
X0307030Y0408766D02*
X0307085Y0407903D01*
X0306968Y0407896D01*
X0306913Y0408759D01*
X0307030Y0408766D01*
G37*
G36*
X0306755Y0408748D02*
X0306810Y0407885D01*
X0306693Y0407878D01*
X0306638Y0408741D01*
X0306755Y0408748D01*
G37*
G36*
X0306637Y0408741D02*
X0306692Y0407878D01*
X0306575Y0407871D01*
X0306520Y0408734D01*
X0306637Y0408741D01*
G37*
G36*
X0309198Y0408153D02*
X0309253Y0407290D01*
X0309136Y0407283D01*
X0309081Y0408146D01*
X0309198Y0408153D01*
G37*
D38*
G36*
X0309594Y0399130D02*
X0309720Y0397127D01*
X0309566Y0397118D01*
X0309440Y0399121D01*
X0309594Y0399130D01*
G37*
G36*
X0308344Y0398933D02*
X0308470Y0396930D01*
X0308316Y0396921D01*
X0308190Y0398924D01*
X0308344Y0398933D01*
G37*
D39*
G36*
X0309522Y0400270D02*
X0309586Y0399249D01*
X0309432Y0399240D01*
X0309368Y0400261D01*
X0309522Y0400270D01*
G37*
G36*
X0308750Y0402509D02*
X0308814Y0401488D01*
X0308660Y0401479D01*
X0308596Y0402500D01*
X0308750Y0402509D01*
G37*
G36*
X0306928Y0401369D02*
X0306992Y0400348D01*
X0306838Y0400339D01*
X0306774Y0401360D01*
X0306928Y0401369D01*
G37*
G36*
X0309408Y0380707D02*
X0309284Y0379692D01*
X0309130Y0379711D01*
X0309254Y0380726D01*
X0309408Y0380707D01*
G37*
G36*
X0308687Y0372692D02*
X0308563Y0371677D01*
X0308409Y0371696D01*
X0308533Y0372711D01*
X0308687Y0372692D01*
G37*
G36*
X0307436Y0372845D02*
X0307312Y0371830D01*
X0307158Y0371849D01*
X0307282Y0372864D01*
X0307436Y0372845D01*
G37*
G36*
X0308428Y0370581D02*
X0308304Y0369566D01*
X0308150Y0369585D01*
X0308274Y0370600D01*
X0308428Y0370581D01*
G37*
D40*
G36*
X0307769Y0370385D02*
X0307663Y0369526D01*
X0307509Y0369545D01*
X0307615Y0370404D01*
X0307769Y0370385D01*
G37*
G36*
X0307159Y0370579D02*
X0307053Y0369720D01*
X0306899Y0369739D01*
X0307005Y0370598D01*
X0307159Y0370579D01*
G37*
G36*
X0308076Y0372886D02*
X0307970Y0372027D01*
X0307816Y0372046D01*
X0307922Y0372905D01*
X0308076Y0372886D01*
G37*
G36*
X0308121Y0375392D02*
X0308015Y0374533D01*
X0307861Y0374552D01*
X0307967Y0375411D01*
X0308121Y0375392D01*
G37*
G36*
X0307510Y0375586D02*
X0307404Y0374727D01*
X0307250Y0374746D01*
X0307356Y0375605D01*
X0307510Y0375586D01*
G37*
G36*
X0306760Y0367336D02*
X0306654Y0366477D01*
X0306500Y0366496D01*
X0306606Y0367355D01*
X0306760Y0367336D01*
G37*
G36*
X0307386Y0367259D02*
X0307280Y0366400D01*
X0307126Y0366419D01*
X0307232Y0367278D01*
X0307386Y0367259D01*
G37*
G36*
X0308011Y0367182D02*
X0307905Y0366323D01*
X0307751Y0366342D01*
X0307857Y0367201D01*
X0308011Y0367182D01*
G37*
G36*
X0309044Y0397834D02*
X0309099Y0396970D01*
X0308944Y0396960D01*
X0308889Y0397824D01*
X0309044Y0397834D01*
G37*
G36*
X0307708Y0399013D02*
X0307763Y0398149D01*
X0307608Y0398139D01*
X0307553Y0399003D01*
X0307708Y0399013D01*
G37*
G36*
X0308879Y0400467D02*
X0308934Y0399603D01*
X0308779Y0399593D01*
X0308724Y0400457D01*
X0308879Y0400467D01*
G37*
G36*
X0308146Y0402078D02*
X0308201Y0401214D01*
X0308046Y0401204D01*
X0307991Y0402068D01*
X0308146Y0402078D01*
G37*
G36*
X0309364Y0402785D02*
X0309419Y0401921D01*
X0309264Y0401911D01*
X0309209Y0402775D01*
X0309364Y0402785D01*
G37*
G36*
X0307673Y0406677D02*
X0307728Y0405813D01*
X0307573Y0405803D01*
X0307518Y0406667D01*
X0307673Y0406677D01*
G37*
G36*
X0306911Y0408759D02*
X0306966Y0407895D01*
X0306811Y0407885D01*
X0306756Y0408749D01*
X0306911Y0408759D01*
G37*
D41*
G36*
X0306863Y0407020D02*
X0306928Y0405999D01*
X0306811Y0405992D01*
X0306746Y0407013D01*
X0306863Y0407020D01*
G37*
G36*
X0309208Y0402775D02*
X0309273Y0401754D01*
X0309156Y0401747D01*
X0309091Y0402768D01*
X0309208Y0402775D01*
G37*
G36*
X0308979Y0402642D02*
X0309044Y0401621D01*
X0308927Y0401614D01*
X0308862Y0402635D01*
X0308979Y0402642D01*
G37*
G36*
X0306772Y0401360D02*
X0306837Y0400339D01*
X0306720Y0400332D01*
X0306655Y0401353D01*
X0306772Y0401360D01*
G37*
G36*
X0308290Y0380963D02*
X0308167Y0379948D01*
X0308050Y0379963D01*
X0308173Y0380978D01*
X0308290Y0380963D01*
G37*
G36*
X0308002Y0380879D02*
X0307879Y0379864D01*
X0307762Y0379879D01*
X0307885Y0380894D01*
X0308002Y0380879D01*
G37*
G36*
X0307266Y0372747D02*
X0307143Y0371732D01*
X0307026Y0371747D01*
X0307149Y0372762D01*
X0307266Y0372747D01*
G37*
G36*
X0308531Y0372710D02*
X0308408Y0371695D01*
X0308291Y0371710D01*
X0308414Y0372725D01*
X0308531Y0372710D01*
G37*
G36*
X0308560Y0370684D02*
X0308437Y0369669D01*
X0308320Y0369684D01*
X0308443Y0370699D01*
X0308560Y0370684D01*
G37*
G36*
X0307021Y0370754D02*
X0306898Y0369739D01*
X0306781Y0369754D01*
X0306904Y0370769D01*
X0307021Y0370754D01*
G37*
G36*
X0309050Y0367569D02*
X0308927Y0366554D01*
X0308810Y0366569D01*
X0308933Y0367584D01*
X0309050Y0367569D01*
G37*
D42*
G36*
X0309353Y0371975D02*
X0309124Y0370100D01*
X0309007Y0370115D01*
X0309236Y0371990D01*
X0309353Y0371975D01*
G37*
G36*
X0309705Y0376982D02*
X0309476Y0375107D01*
X0309359Y0375122D01*
X0309588Y0376997D01*
X0309705Y0376982D01*
G37*
G36*
X0310074Y0379991D02*
X0309845Y0378116D01*
X0309728Y0378131D01*
X0309957Y0380006D01*
X0310074Y0379991D01*
G37*
G36*
X0308471Y0398823D02*
X0308589Y0396938D01*
X0308471Y0396931D01*
X0308353Y0398816D01*
X0308471Y0398823D01*
G37*
G36*
X0309210Y0398988D02*
X0309328Y0397103D01*
X0309210Y0397096D01*
X0309092Y0398981D01*
X0309210Y0398988D01*
G37*
G36*
X0309328Y0398995D02*
X0309446Y0397110D01*
X0309328Y0397103D01*
X0309210Y0398988D01*
X0309328Y0398995D01*
G37*
G36*
X0306939Y0398727D02*
X0307057Y0396842D01*
X0306939Y0396835D01*
X0306821Y0398720D01*
X0306939Y0398727D01*
G37*
G36*
X0306024Y0408466D02*
X0306142Y0406581D01*
X0306024Y0406574D01*
X0305906Y0408459D01*
X0306024Y0408466D01*
G37*
D43*
G36*
X0309097Y0402650D02*
X0309154Y0401747D01*
X0309037Y0401740D01*
X0308980Y0402643D01*
X0309097Y0402650D01*
G37*
G36*
X0308869Y0402517D02*
X0308926Y0401614D01*
X0308809Y0401607D01*
X0308752Y0402510D01*
X0308869Y0402517D01*
G37*
G36*
X0307880Y0401942D02*
X0307937Y0401039D01*
X0307820Y0401032D01*
X0307763Y0401935D01*
X0307880Y0401942D01*
G37*
G36*
X0307762Y0401935D02*
X0307819Y0401032D01*
X0307702Y0401025D01*
X0307645Y0401928D01*
X0307762Y0401935D01*
G37*
G36*
X0308352Y0400709D02*
X0308409Y0399806D01*
X0308292Y0399799D01*
X0308235Y0400702D01*
X0308352Y0400709D01*
G37*
G36*
X0308477Y0400599D02*
X0308534Y0399696D01*
X0308417Y0399689D01*
X0308360Y0400592D01*
X0308477Y0400599D01*
G37*
G36*
X0308595Y0400606D02*
X0308652Y0399703D01*
X0308535Y0399696D01*
X0308478Y0400599D01*
X0308595Y0400606D01*
G37*
G36*
X0308407Y0380949D02*
X0308297Y0380051D01*
X0308181Y0380065D01*
X0308291Y0380963D01*
X0308407Y0380949D01*
G37*
G36*
X0308524Y0380935D02*
X0308414Y0380037D01*
X0308298Y0380051D01*
X0308408Y0380949D01*
X0308524Y0380935D01*
G37*
G36*
X0308642Y0380921D02*
X0308532Y0380023D01*
X0308416Y0380037D01*
X0308526Y0380935D01*
X0308642Y0380921D01*
G37*
G36*
X0308915Y0380887D02*
X0308805Y0379989D01*
X0308689Y0380003D01*
X0308799Y0380901D01*
X0308915Y0380887D01*
G37*
G36*
X0309032Y0380873D02*
X0308922Y0379975D01*
X0308806Y0379989D01*
X0308916Y0380887D01*
X0309032Y0380873D01*
G37*
G36*
X0309150Y0380858D02*
X0309040Y0379960D01*
X0308924Y0379974D01*
X0309034Y0380872D01*
X0309150Y0380858D01*
G37*
G36*
X0309252Y0380727D02*
X0309142Y0379829D01*
X0309026Y0379843D01*
X0309136Y0380741D01*
X0309252Y0380727D01*
G37*
G36*
X0307767Y0369394D02*
X0307657Y0368496D01*
X0307541Y0368510D01*
X0307651Y0369408D01*
X0307767Y0369394D01*
G37*
G36*
X0307493Y0369427D02*
X0307383Y0368529D01*
X0307267Y0368543D01*
X0307377Y0369441D01*
X0307493Y0369427D01*
G37*
G36*
X0307376Y0369442D02*
X0307266Y0368544D01*
X0307150Y0368558D01*
X0307260Y0369456D01*
X0307376Y0369442D01*
G37*
D44*
G36*
X0306934Y0371003D02*
X0306795Y0369871D01*
X0306678Y0369885D01*
X0306817Y0371017D01*
X0306934Y0371003D01*
G37*
G36*
X0308791Y0372560D02*
X0308652Y0371428D01*
X0308535Y0371442D01*
X0308674Y0372574D01*
X0308791Y0372560D01*
G37*
G36*
X0307388Y0375878D02*
X0307249Y0374746D01*
X0307132Y0374760D01*
X0307271Y0375892D01*
X0307388Y0375878D01*
G37*
G36*
X0309296Y0378817D02*
X0309157Y0377685D01*
X0309040Y0377699D01*
X0309179Y0378831D01*
X0309296Y0378817D01*
G37*
G36*
X0309526Y0380693D02*
X0309387Y0379561D01*
X0309270Y0379575D01*
X0309409Y0380707D01*
X0309526Y0380693D01*
G37*
G36*
X0308871Y0398099D02*
X0308942Y0396960D01*
X0308825Y0396953D01*
X0308754Y0398092D01*
X0308871Y0398099D01*
G37*
G36*
X0306727Y0398319D02*
X0306798Y0397180D01*
X0306681Y0397173D01*
X0306610Y0398312D01*
X0306727Y0398319D01*
G37*
G36*
X0307040Y0401495D02*
X0307111Y0400356D01*
X0306994Y0400349D01*
X0306923Y0401488D01*
X0307040Y0401495D01*
G37*
G36*
X0308389Y0407234D02*
X0308460Y0406095D01*
X0308343Y0406088D01*
X0308272Y0407227D01*
X0308389Y0407234D01*
G37*
D45*
G36*
X0307658Y0408806D02*
X0307752Y0407314D01*
X0307636Y0407306D01*
X0307542Y0408798D01*
X0307658Y0408806D01*
G37*
G36*
X0307383Y0408789D02*
X0307477Y0407297D01*
X0307361Y0407289D01*
X0307267Y0408781D01*
X0307383Y0408789D01*
G37*
G36*
X0307386Y0401635D02*
X0307480Y0400143D01*
X0307364Y0400135D01*
X0307270Y0401627D01*
X0307386Y0401635D01*
G37*
G36*
X0308730Y0398446D02*
X0308824Y0396954D01*
X0308708Y0396946D01*
X0308614Y0398438D01*
X0308730Y0398446D01*
G37*
G36*
X0310172Y0379820D02*
X0309991Y0378336D01*
X0309874Y0378350D01*
X0310055Y0379834D01*
X0310172Y0379820D01*
G37*
D46*
G36*
X0308989Y0378577D02*
X0308870Y0377601D01*
X0308753Y0377615D01*
X0308872Y0378591D01*
X0308989Y0378577D01*
G37*
G36*
X0307753Y0378848D02*
X0307634Y0377872D01*
X0307517Y0377886D01*
X0307636Y0378862D01*
X0307753Y0378848D01*
G37*
G36*
X0308488Y0375466D02*
X0308369Y0374490D01*
X0308252Y0374504D01*
X0308371Y0375480D01*
X0308488Y0375466D01*
G37*
G36*
X0307276Y0370564D02*
X0307157Y0369588D01*
X0307040Y0369602D01*
X0307159Y0370578D01*
X0307276Y0370564D01*
G37*
G36*
X0306835Y0369230D02*
X0306716Y0368254D01*
X0306599Y0368268D01*
X0306718Y0369244D01*
X0306835Y0369230D01*
G37*
G36*
X0308100Y0369194D02*
X0307981Y0368218D01*
X0307864Y0368232D01*
X0307983Y0369208D01*
X0308100Y0369194D01*
G37*
G36*
X0307433Y0398995D02*
X0307495Y0398014D01*
X0307379Y0398007D01*
X0307317Y0398988D01*
X0307433Y0398995D01*
G37*
G36*
X0307944Y0399027D02*
X0308006Y0398046D01*
X0307890Y0398039D01*
X0307828Y0399020D01*
X0307944Y0399027D01*
G37*
G36*
X0308485Y0402335D02*
X0308547Y0401354D01*
X0308431Y0401347D01*
X0308369Y0402328D01*
X0308485Y0402335D01*
G37*
G36*
X0308130Y0406942D02*
X0308192Y0405961D01*
X0308076Y0405954D01*
X0308014Y0406935D01*
X0308130Y0406942D01*
G37*
D47*
G36*
X0308233Y0400703D02*
X0308290Y0399799D01*
X0308135Y0399789D01*
X0308078Y0400693D01*
X0308233Y0400703D01*
G37*
G36*
X0308797Y0380902D02*
X0308687Y0380003D01*
X0308533Y0380022D01*
X0308643Y0380921D01*
X0308797Y0380902D01*
G37*
G36*
X0308158Y0380861D02*
X0308048Y0379962D01*
X0307894Y0379981D01*
X0308004Y0380880D01*
X0308158Y0380861D01*
G37*
G36*
X0307649Y0369408D02*
X0307539Y0368509D01*
X0307385Y0368528D01*
X0307495Y0369427D01*
X0307649Y0369408D01*
G37*
D48*
G36*
X0306594Y0372433D02*
X0306336Y0370324D01*
X0306218Y0370339D01*
X0306476Y0372448D01*
X0306594Y0372433D01*
G37*
G36*
X0306945Y0377439D02*
X0306687Y0375330D01*
X0306569Y0375345D01*
X0306827Y0377454D01*
X0306945Y0377439D01*
G37*
G36*
X0306016Y0368696D02*
X0305758Y0366587D01*
X0305640Y0366602D01*
X0305898Y0368711D01*
X0306016Y0368696D01*
G37*
G36*
X0308908Y0368341D02*
X0308650Y0366232D01*
X0308532Y0366247D01*
X0308790Y0368356D01*
X0308908Y0368341D01*
G37*
G36*
X0307207Y0398862D02*
X0307339Y0396741D01*
X0307221Y0396734D01*
X0307089Y0398855D01*
X0307207Y0398862D01*
G37*
G36*
X0307317Y0398987D02*
X0307449Y0396866D01*
X0307331Y0396859D01*
X0307199Y0398980D01*
X0307317Y0398987D01*
G37*
G36*
X0308064Y0399034D02*
X0308196Y0396913D01*
X0308078Y0396906D01*
X0307946Y0399027D01*
X0308064Y0399034D01*
G37*
G36*
X0306135Y0408591D02*
X0306267Y0406470D01*
X0306149Y0406463D01*
X0306017Y0408584D01*
X0306135Y0408591D01*
G37*
D49*
G36*
X0307532Y0401802D02*
X0307636Y0400152D01*
X0307482Y0400142D01*
X0307378Y0401792D01*
X0307532Y0401802D01*
G37*
D50*
G36*
X0307653Y0397392D02*
X0307670Y0397117D01*
X0307553Y0397110D01*
X0307536Y0397385D01*
X0307653Y0397392D01*
G37*
G36*
X0305842Y0407587D02*
X0305859Y0407312D01*
X0305742Y0407305D01*
X0305725Y0407580D01*
X0305842Y0407587D01*
G37*
G36*
X0306488Y0376623D02*
X0306454Y0376350D01*
X0306338Y0376365D01*
X0306372Y0376638D01*
X0306488Y0376623D01*
G37*
D51*
G36*
X0309789Y0376694D02*
X0309622Y0375327D01*
X0309505Y0375342D01*
X0309672Y0376709D01*
X0309789Y0376694D01*
G37*
G36*
X0307268Y0401628D02*
X0307355Y0400254D01*
X0307238Y0400246D01*
X0307151Y0401620D01*
X0307268Y0401628D01*
G37*
G36*
X0307265Y0408781D02*
X0307352Y0407407D01*
X0307235Y0407399D01*
X0307148Y0408773D01*
X0307265Y0408781D01*
G37*
D52*
G36*
X0307087Y0398854D02*
X0307220Y0396733D01*
X0307065Y0396724D01*
X0306932Y0398845D01*
X0307087Y0398854D01*
G37*
G36*
X0309249Y0372107D02*
X0308991Y0369998D01*
X0308837Y0370017D01*
X0309095Y0372126D01*
X0309249Y0372107D01*
G37*
D53*
G36*
X0305855Y0368359D02*
X0305654Y0366718D01*
X0305537Y0366733D01*
X0305738Y0368374D01*
X0305855Y0368359D01*
G37*
G36*
X0306827Y0398602D02*
X0306931Y0396952D01*
X0306815Y0396944D01*
X0306711Y0398594D01*
X0306827Y0398602D01*
G37*
D54*
G36*
X0306623Y0398076D02*
X0306655Y0397566D01*
X0306539Y0397558D01*
X0306507Y0398068D01*
X0306623Y0398076D01*
G37*
G36*
X0306551Y0401109D02*
X0306583Y0400599D01*
X0306467Y0400591D01*
X0306435Y0401101D01*
X0306551Y0401109D01*
G37*
D55*
G36*
X0309063Y0408420D02*
X0309160Y0406890D01*
X0309043Y0406882D01*
X0308946Y0408412D01*
X0309063Y0408420D01*
G37*
D56*
G36*
X0308805Y0408759D02*
X0308946Y0406521D01*
X0308791Y0406511D01*
X0308650Y0408749D01*
X0308805Y0408759D01*
G37*
G36*
X0309616Y0377231D02*
X0309343Y0375004D01*
X0309188Y0375023D01*
X0309461Y0377250D01*
X0309616Y0377231D01*
G37*
D57*
G36*
X0309460Y0377250D02*
X0309169Y0374867D01*
X0309052Y0374882D01*
X0309343Y0377265D01*
X0309460Y0377250D01*
G37*
G36*
X0309829Y0380259D02*
X0309538Y0377876D01*
X0309421Y0377891D01*
X0309712Y0380274D01*
X0309829Y0380259D01*
G37*
G36*
X0308649Y0408750D02*
X0308799Y0406354D01*
X0308681Y0406346D01*
X0308531Y0408742D01*
X0308649Y0408750D01*
G37*
D58*
G36*
X0308531Y0408743D02*
X0308688Y0406229D01*
X0308571Y0406221D01*
X0308414Y0408735D01*
X0308531Y0408743D01*
G37*
G36*
X0306402Y0408727D02*
X0306559Y0406213D01*
X0306442Y0406205D01*
X0306285Y0408719D01*
X0306402Y0408727D01*
G37*
G36*
X0307233Y0377524D02*
X0306927Y0375024D01*
X0306809Y0375038D01*
X0307115Y0377538D01*
X0307233Y0377524D01*
G37*
G36*
X0309344Y0377264D02*
X0309038Y0374764D01*
X0308920Y0374778D01*
X0309226Y0377278D01*
X0309344Y0377264D01*
G37*
G36*
X0308682Y0368766D02*
X0308376Y0366266D01*
X0308258Y0366280D01*
X0308564Y0368780D01*
X0308682Y0368766D01*
G37*
G36*
X0306455Y0369039D02*
X0306149Y0366539D01*
X0306031Y0366553D01*
X0306337Y0369053D01*
X0306455Y0369039D01*
G37*
D59*
G36*
X0306586Y0369141D02*
X0306265Y0366524D01*
X0306148Y0366539D01*
X0306469Y0369156D01*
X0306586Y0369141D01*
G37*
G36*
X0308579Y0368897D02*
X0308258Y0366280D01*
X0308141Y0366295D01*
X0308462Y0368912D01*
X0308579Y0368897D01*
G37*
G36*
X0309226Y0377278D02*
X0308905Y0374661D01*
X0308788Y0374676D01*
X0309109Y0377293D01*
X0309226Y0377278D01*
G37*
G36*
X0309727Y0380390D02*
X0309406Y0377773D01*
X0309289Y0377788D01*
X0309610Y0380405D01*
X0309727Y0380390D01*
G37*
G36*
X0307617Y0380649D02*
X0307296Y0378032D01*
X0307179Y0378047D01*
X0307500Y0380664D01*
X0307617Y0380649D01*
G37*
G36*
X0307350Y0377509D02*
X0307029Y0374892D01*
X0306912Y0374907D01*
X0307233Y0377524D01*
X0307350Y0377509D01*
G37*
G36*
X0306520Y0408735D02*
X0306684Y0406103D01*
X0306566Y0406095D01*
X0306402Y0408727D01*
X0306520Y0408735D01*
G37*
G36*
X0308414Y0408735D02*
X0308578Y0406103D01*
X0308460Y0406095D01*
X0308296Y0408727D01*
X0308414Y0408735D01*
G37*
D60*
G36*
X0308287Y0406951D02*
X0308349Y0405970D01*
X0308195Y0405961D01*
X0308133Y0406942D01*
X0308287Y0406951D01*
G37*
G36*
X0307029Y0406872D02*
X0307091Y0405891D01*
X0306937Y0405882D01*
X0306875Y0406863D01*
X0307029Y0406872D01*
G37*
G36*
X0307894Y0378711D02*
X0307774Y0377736D01*
X0307620Y0377755D01*
X0307740Y0378730D01*
X0307894Y0378711D01*
G37*
G36*
X0309159Y0378675D02*
X0309039Y0377700D01*
X0308885Y0377719D01*
X0309005Y0378694D01*
X0309159Y0378675D01*
G37*
G36*
X0308775Y0375549D02*
X0308655Y0374574D01*
X0308501Y0374593D01*
X0308621Y0375568D01*
X0308775Y0375549D01*
G37*
G36*
X0307005Y0369328D02*
X0306885Y0368353D01*
X0306731Y0368372D01*
X0306851Y0369347D01*
X0307005Y0369328D01*
G37*
D61*
G36*
X0308198Y0408365D02*
X0308208Y0408211D01*
X0308054Y0408201D01*
X0308044Y0408355D01*
X0308198Y0408365D01*
G37*
D62*
G36*
X0307539Y0408798D02*
X0307633Y0407306D01*
X0307479Y0407296D01*
X0307385Y0408788D01*
X0307539Y0408798D01*
G37*
D63*
G36*
X0305920Y0408222D02*
X0306009Y0406810D01*
X0305892Y0406802D01*
X0305803Y0408214D01*
X0305920Y0408222D01*
G37*
G36*
X0306315Y0372109D02*
X0306144Y0370705D01*
X0306027Y0370719D01*
X0306198Y0372123D01*
X0306315Y0372109D01*
G37*
G36*
X0309441Y0371726D02*
X0309270Y0370322D01*
X0309153Y0370336D01*
X0309324Y0371740D01*
X0309441Y0371726D01*
G37*
D64*
G36*
X0308823Y0368629D02*
X0308532Y0366246D01*
X0308377Y0366265D01*
X0308668Y0368648D01*
X0308823Y0368629D01*
G37*
G36*
X0306322Y0368936D02*
X0306031Y0366553D01*
X0305876Y0366572D01*
X0306167Y0368955D01*
X0306322Y0368936D01*
G37*
G36*
X0307115Y0377538D02*
X0306824Y0375155D01*
X0306669Y0375174D01*
X0306960Y0377557D01*
X0307115Y0377538D01*
G37*
G36*
X0307484Y0380547D02*
X0307193Y0378164D01*
X0307038Y0378183D01*
X0307329Y0380566D01*
X0307484Y0380547D01*
G37*
D65*
G36*
X0309109Y0372244D02*
X0308822Y0369900D01*
X0308705Y0369914D01*
X0308992Y0372258D01*
X0309109Y0372244D01*
G37*
D66*
G36*
X0309010Y0372413D02*
X0308685Y0369758D01*
X0308568Y0369773D01*
X0308893Y0372428D01*
X0309010Y0372413D01*
G37*
G36*
X0306900Y0372672D02*
X0306575Y0370017D01*
X0306458Y0370032D01*
X0306783Y0372687D01*
X0306900Y0372672D01*
G37*
D67*
G36*
X0306717Y0369245D02*
X0306382Y0366511D01*
X0306265Y0366525D01*
X0306600Y0369259D01*
X0306717Y0369245D01*
G37*
G36*
X0308476Y0369029D02*
X0308141Y0366295D01*
X0308024Y0366309D01*
X0308359Y0369043D01*
X0308476Y0369029D01*
G37*
G36*
X0309624Y0380522D02*
X0309289Y0377788D01*
X0309172Y0377802D01*
X0309507Y0380536D01*
X0309624Y0380522D01*
G37*
G36*
X0307748Y0380752D02*
X0307413Y0378018D01*
X0307296Y0378032D01*
X0307631Y0380766D01*
X0307748Y0380752D01*
G37*
D68*
G36*
X0308908Y0372544D02*
X0308554Y0369655D01*
X0308436Y0369670D01*
X0308790Y0372559D01*
X0308908Y0372544D01*
G37*
D69*
G36*
X0307017Y0372658D02*
X0306678Y0369886D01*
X0306561Y0369900D01*
X0306900Y0372672D01*
X0307017Y0372658D01*
G37*
D70*
G36*
X0306147Y0368799D02*
X0305874Y0366573D01*
X0305757Y0366587D01*
X0306030Y0368813D01*
X0306147Y0368799D01*
G37*
D71*
G36*
X0309971Y0380122D02*
X0309708Y0377975D01*
X0309553Y0377994D01*
X0309816Y0380141D01*
X0309971Y0380122D01*
G37*
D72*
G36*
X0308962Y0377074D02*
X0308914Y0376683D01*
X0308760Y0376702D01*
X0308808Y0377093D01*
X0308962Y0377074D01*
G37*
D73*
G36*
X0308490Y0378400D02*
X0308399Y0377659D01*
X0308246Y0377678D01*
X0308337Y0378419D01*
X0308490Y0378400D01*
G37*
D74*
G36*
X0307865Y0380737D02*
X0307732Y0379644D01*
X0307615Y0379659D01*
X0307748Y0380752D01*
X0307865Y0380737D01*
G37*
D75*
G36*
X0307315Y0380448D02*
X0307052Y0378301D01*
X0306935Y0378316D01*
X0307198Y0380463D01*
X0307315Y0380448D01*
G37*
D76*
G36*
X0306853Y0379593D02*
X0306809Y0379243D01*
X0306693Y0379257D01*
X0306737Y0379607D01*
X0306853Y0379593D01*
G37*
D77*
X0310367Y0384224D03*
X0309501Y0384854D03*
X0307099Y0385996D03*
X0306699Y0394264D03*
D78*
X0310367Y0385976D03*
D79*
X0310249Y0384224D03*
D80*
X0310249Y0386055D03*
X0307848Y0384795D03*
X0308477Y0382906D03*
X0308596Y0382906D03*
X0308871Y0382906D03*
X0308825Y0391056D03*
X0308707Y0391056D03*
X0308589Y0391056D03*
X0308471Y0391056D03*
X0308196Y0391056D03*
X0308077Y0391056D03*
X0307959Y0391056D03*
X0307841Y0391056D03*
X0307566Y0391056D03*
X0309101Y0391056D03*
X0309731Y0394205D03*
X0309849Y0394205D03*
X0306818Y0394205D03*
D81*
X0309849Y0391626D03*
X0310131Y0384224D03*
D82*
X0309107Y0382965D03*
X0308989Y0382965D03*
X0308359Y0382965D03*
X0308241Y0382965D03*
X0308241Y0385996D03*
X0308359Y0385996D03*
X0308477Y0385996D03*
X0308596Y0385996D03*
X0308871Y0385996D03*
X0308989Y0385996D03*
X0309107Y0385996D03*
X0309225Y0385996D03*
X0309501Y0385996D03*
X0309619Y0385996D03*
X0309737Y0385996D03*
X0309855Y0385996D03*
X0310131Y0385996D03*
X0307966Y0385996D03*
X0307848Y0385996D03*
X0307729Y0385996D03*
X0307611Y0385996D03*
X0307336Y0385996D03*
X0307218Y0385996D03*
X0307841Y0393004D03*
X0307959Y0393122D03*
X0308077Y0393122D03*
X0308196Y0393122D03*
X0308471Y0393122D03*
X0308589Y0393122D03*
X0308825Y0393004D03*
X0308825Y0394264D03*
X0308707Y0394264D03*
X0308589Y0394264D03*
X0308471Y0394264D03*
X0308196Y0394264D03*
X0308077Y0394264D03*
X0307959Y0394264D03*
X0307841Y0394264D03*
X0307566Y0394264D03*
X0307448Y0394264D03*
X0307329Y0394264D03*
X0307211Y0394264D03*
X0306936Y0394264D03*
X0309101Y0394264D03*
X0309219Y0394264D03*
X0309337Y0394264D03*
X0309455Y0394264D03*
D83*
X0309593Y0391804D03*
X0309993Y0384165D03*
X0307473Y0384165D03*
D84*
X0308733Y0382846D03*
X0308733Y0385996D03*
X0308103Y0385996D03*
X0307473Y0385996D03*
X0309363Y0385996D03*
X0309993Y0385996D03*
X0308333Y0393122D03*
X0308333Y0394264D03*
X0307703Y0394264D03*
X0307073Y0394264D03*
X0308963Y0394264D03*
X0309593Y0394264D03*
D85*
X0309455Y0391882D03*
X0309855Y0384087D03*
X0307611Y0384087D03*
D86*
X0307729Y0384028D03*
X0309619Y0384028D03*
X0309737Y0384028D03*
X0309337Y0391941D03*
X0307329Y0391941D03*
X0307211Y0391941D03*
D87*
X0307566Y0392867D03*
X0309101Y0392748D03*
X0309967Y0391489D03*
X0309501Y0383220D03*
D88*
X0309363Y0383161D03*
D89*
X0309363Y0384913D03*
D90*
X0309225Y0383024D03*
X0308707Y0393063D03*
D91*
X0308963Y0392945D03*
X0307703Y0392945D03*
X0308103Y0383024D03*
D92*
X0307966Y0383161D03*
D93*
X0307966Y0384913D03*
D94*
X0307099Y0384146D03*
X0307848Y0383280D03*
D95*
X0307336Y0384224D03*
X0306936Y0391744D03*
X0309731Y0391744D03*
D96*
X0306699Y0391567D03*
X0307218Y0384165D03*
D97*
X0306981Y0384224D03*
D98*
X0309967Y0394205D03*
D99*
X0309219Y0392000D03*
X0307448Y0392000D03*
D100*
X0307703Y0391056D03*
X0308333Y0391056D03*
X0308963Y0391056D03*
D101*
X0307073Y0391882D03*
D102*
X0306818Y0391685D03*
D103*
G36*
X0296106Y0459127D02*
X0297680Y0456401D01*
X0297544Y0456323D01*
X0295970Y0459049D01*
X0296106Y0459127D01*
G37*
G36*
X0295188Y0459142D02*
X0296762Y0456416D01*
X0296626Y0456338D01*
X0295052Y0459064D01*
X0295188Y0459142D01*
G37*
G36*
X0295403Y0459085D02*
X0296977Y0456359D01*
X0296841Y0456281D01*
X0295267Y0459007D01*
X0295403Y0459085D01*
G37*
G36*
X0292941Y0463664D02*
X0294515Y0460938D01*
X0294379Y0460860D01*
X0292805Y0463586D01*
X0292941Y0463664D01*
G37*
G36*
X0293193Y0464173D02*
X0294767Y0461447D01*
X0294631Y0461369D01*
X0293057Y0464095D01*
X0293193Y0464173D01*
G37*
G36*
X0293329Y0464252D02*
X0294903Y0461526D01*
X0294767Y0461448D01*
X0293193Y0464174D01*
X0293329Y0464252D01*
G37*
G36*
X0293465Y0464331D02*
X0295039Y0461605D01*
X0294903Y0461527D01*
X0293329Y0464253D01*
X0293465Y0464331D01*
G37*
G36*
X0293135Y0463958D02*
X0294709Y0461232D01*
X0294573Y0461154D01*
X0292999Y0463880D01*
X0293135Y0463958D01*
G37*
G36*
X0292999Y0463879D02*
X0294573Y0461153D01*
X0294437Y0461075D01*
X0292863Y0463801D01*
X0292999Y0463879D01*
G37*
G36*
X0298346Y0460602D02*
X0299920Y0457876D01*
X0299784Y0457798D01*
X0298210Y0460524D01*
X0298346Y0460602D01*
G37*
G36*
X0298540Y0460896D02*
X0300114Y0458170D01*
X0299978Y0458092D01*
X0298404Y0460818D01*
X0298540Y0460896D01*
G37*
G36*
X0298676Y0460975D02*
X0300250Y0458249D01*
X0300114Y0458171D01*
X0298540Y0460897D01*
X0298676Y0460975D01*
G37*
G36*
X0298494Y0327493D02*
X0296920Y0324767D01*
X0296784Y0324845D01*
X0298358Y0327571D01*
X0298494Y0327493D01*
G37*
G36*
X0298982Y0327393D02*
X0297408Y0324667D01*
X0297272Y0324745D01*
X0298846Y0327471D01*
X0298982Y0327393D01*
G37*
G36*
X0300949Y0326076D02*
X0299375Y0323350D01*
X0299239Y0323428D01*
X0300813Y0326154D01*
X0300949Y0326076D01*
G37*
G36*
X0301085Y0325997D02*
X0299511Y0323271D01*
X0299375Y0323349D01*
X0300949Y0326075D01*
X0301085Y0325997D01*
G37*
G36*
X0296970Y0318554D02*
X0295396Y0315828D01*
X0295260Y0315906D01*
X0296834Y0318632D01*
X0296970Y0318554D01*
G37*
G36*
X0293833Y0320365D02*
X0292259Y0317639D01*
X0292123Y0317717D01*
X0293697Y0320443D01*
X0293833Y0320365D01*
G37*
G36*
X0244029Y0267744D02*
X0241303Y0266170D01*
X0241225Y0266306D01*
X0243951Y0267880D01*
X0244029Y0267744D01*
G37*
G36*
X0244108Y0267607D02*
X0241382Y0266033D01*
X0241304Y0266169D01*
X0244030Y0267743D01*
X0244108Y0267607D01*
G37*
G36*
X0243735Y0267938D02*
X0241009Y0266364D01*
X0240931Y0266500D01*
X0243657Y0268074D01*
X0243735Y0267938D01*
G37*
G36*
X0242260Y0270177D02*
X0239534Y0268603D01*
X0239456Y0268739D01*
X0242182Y0270313D01*
X0242260Y0270177D01*
G37*
G36*
X0242276Y0271096D02*
X0239550Y0269522D01*
X0239472Y0269658D01*
X0242198Y0271232D01*
X0242276Y0271096D01*
G37*
G36*
X0242218Y0270880D02*
X0239492Y0269306D01*
X0239414Y0269442D01*
X0242140Y0271016D01*
X0242218Y0270880D01*
G37*
X0192760Y0258567D03*
X0192760Y0255733D03*
X0189296Y0255260D03*
X0189138Y0256048D03*
X0180949Y0258410D03*
X0180949Y0258567D03*
X0180949Y0258725D03*
X0180949Y0258882D03*
X0180949Y0259040D03*
X0167721Y0257465D03*
X0167721Y0257307D03*
X0167721Y0257150D03*
X0167721Y0256048D03*
X0167721Y0255890D03*
X0163784Y0257622D03*
X0163784Y0257780D03*
G36*
X0112108Y0268308D02*
X0109382Y0269882D01*
X0109460Y0270018D01*
X0112186Y0268444D01*
X0112108Y0268308D01*
G37*
G36*
X0059113Y0316808D02*
X0057539Y0319534D01*
X0057675Y0319612D01*
X0059249Y0316886D01*
X0059113Y0316808D01*
G37*
G36*
X0058976Y0316730D02*
X0057402Y0319456D01*
X0057538Y0319534D01*
X0059112Y0316808D01*
X0058976Y0316730D01*
G37*
G36*
X0058840Y0316651D02*
X0057266Y0319377D01*
X0057402Y0319455D01*
X0058976Y0316729D01*
X0058840Y0316651D01*
G37*
G36*
X0059170Y0317024D02*
X0057596Y0319750D01*
X0057732Y0319828D01*
X0059306Y0317102D01*
X0059170Y0317024D01*
G37*
G36*
X0059307Y0317102D02*
X0057733Y0319828D01*
X0057869Y0319906D01*
X0059443Y0317180D01*
X0059307Y0317102D01*
G37*
G36*
X0059364Y0317317D02*
X0057790Y0320043D01*
X0057926Y0320121D01*
X0059500Y0317395D01*
X0059364Y0317317D01*
G37*
G36*
X0055034Y0324818D02*
X0053460Y0327544D01*
X0053596Y0327622D01*
X0055170Y0324896D01*
X0055034Y0324818D01*
G37*
G36*
X0054682Y0324797D02*
X0053108Y0327523D01*
X0053244Y0327601D01*
X0054818Y0324875D01*
X0054682Y0324797D01*
G37*
G36*
X0054467Y0324855D02*
X0052893Y0327581D01*
X0053029Y0327659D01*
X0054603Y0324933D01*
X0054467Y0324855D01*
G37*
G36*
X0054331Y0324776D02*
X0052757Y0327502D01*
X0052893Y0327580D01*
X0054467Y0324854D01*
X0054331Y0324776D01*
G37*
G36*
X0054194Y0324697D02*
X0052620Y0327423D01*
X0052756Y0327501D01*
X0054330Y0324775D01*
X0054194Y0324697D01*
G37*
G36*
X0053323Y0455069D02*
X0054897Y0457795D01*
X0055033Y0457717D01*
X0053459Y0454991D01*
X0053323Y0455069D01*
G37*
G36*
X0052971Y0455090D02*
X0054545Y0457816D01*
X0054681Y0457738D01*
X0053107Y0455012D01*
X0052971Y0455090D01*
G37*
G36*
X0052835Y0455169D02*
X0054409Y0457895D01*
X0054545Y0457817D01*
X0052971Y0455091D01*
X0052835Y0455169D01*
G37*
G36*
X0052699Y0455248D02*
X0054273Y0457974D01*
X0054409Y0457896D01*
X0052835Y0455170D01*
X0052699Y0455248D01*
G37*
G36*
X0053186Y0455148D02*
X0054760Y0457874D01*
X0054896Y0457796D01*
X0053322Y0455070D01*
X0053186Y0455148D01*
G37*
G36*
X0053538Y0455127D02*
X0055112Y0457853D01*
X0055248Y0457775D01*
X0053674Y0455049D01*
X0053538Y0455127D01*
G37*
G36*
X0055708Y0464239D02*
X0057282Y0466965D01*
X0057418Y0466887D01*
X0055844Y0464161D01*
X0055708Y0464239D01*
G37*
G36*
X0100975Y0508157D02*
X0103701Y0509731D01*
X0103779Y0509595D01*
X0101053Y0508021D01*
X0100975Y0508157D01*
G37*
G36*
X0101348Y0507827D02*
X0104074Y0509401D01*
X0104152Y0509265D01*
X0101426Y0507691D01*
X0101348Y0507827D01*
G37*
G36*
X0109452Y0512688D02*
X0112178Y0514262D01*
X0112256Y0514126D01*
X0109530Y0512552D01*
X0109452Y0512688D01*
G37*
G36*
X0108643Y0514403D02*
X0111369Y0515977D01*
X0111447Y0515841D01*
X0108721Y0514267D01*
X0108643Y0514403D01*
G37*
G36*
X0108350Y0514597D02*
X0111076Y0516171D01*
X0111154Y0516035D01*
X0108428Y0514461D01*
X0108350Y0514597D01*
G37*
G36*
X0107977Y0514927D02*
X0110703Y0516501D01*
X0110781Y0516365D01*
X0108055Y0514791D01*
X0107977Y0514927D01*
G37*
G36*
X0108271Y0514733D02*
X0110997Y0516307D01*
X0111075Y0516171D01*
X0108349Y0514597D01*
X0108271Y0514733D01*
G37*
D104*
G36*
X0107547Y0515043D02*
X0110409Y0516695D01*
X0110487Y0516559D01*
X0107625Y0514907D01*
X0107547Y0515043D01*
G37*
G36*
X0107762Y0514985D02*
X0110624Y0516637D01*
X0110702Y0516501D01*
X0107840Y0514849D01*
X0107762Y0514985D01*
G37*
G36*
X0108056Y0514791D02*
X0110918Y0516443D01*
X0110996Y0516307D01*
X0108134Y0514655D01*
X0108056Y0514791D01*
G37*
G36*
X0108428Y0514461D02*
X0111290Y0516113D01*
X0111368Y0515977D01*
X0108506Y0514325D01*
X0108428Y0514461D01*
G37*
G36*
X0108586Y0514188D02*
X0111448Y0515840D01*
X0111526Y0515704D01*
X0108664Y0514052D01*
X0108586Y0514188D01*
G37*
G36*
X0108665Y0514052D02*
X0111527Y0515704D01*
X0111605Y0515568D01*
X0108743Y0513916D01*
X0108665Y0514052D01*
G37*
G36*
X0108743Y0513915D02*
X0111605Y0515567D01*
X0111683Y0515431D01*
X0108821Y0513779D01*
X0108743Y0513915D01*
G37*
G36*
X0109237Y0512746D02*
X0112099Y0514398D01*
X0112177Y0514262D01*
X0109315Y0512610D01*
X0109237Y0512746D01*
G37*
G36*
X0101642Y0507633D02*
X0104504Y0509285D01*
X0104582Y0509149D01*
X0101720Y0507497D01*
X0101642Y0507633D01*
G37*
G36*
X0101133Y0507885D02*
X0103995Y0509537D01*
X0104073Y0509401D01*
X0101211Y0507749D01*
X0101133Y0507885D01*
G37*
G36*
X0100760Y0508215D02*
X0103622Y0509867D01*
X0103700Y0509731D01*
X0100838Y0508079D01*
X0100760Y0508215D01*
G37*
G36*
X0100681Y0508352D02*
X0103543Y0510004D01*
X0103621Y0509868D01*
X0100759Y0508216D01*
X0100681Y0508352D01*
G37*
G36*
X0100603Y0508488D02*
X0103465Y0510140D01*
X0103543Y0510004D01*
X0100681Y0508352D01*
X0100603Y0508488D01*
G37*
G36*
X0100524Y0508624D02*
X0103386Y0510276D01*
X0103464Y0510140D01*
X0100602Y0508488D01*
X0100524Y0508624D01*
G37*
G36*
X0100445Y0508761D02*
X0103307Y0510413D01*
X0103385Y0510277D01*
X0100523Y0508625D01*
X0100445Y0508761D01*
G37*
G36*
X0100367Y0508897D02*
X0103229Y0510549D01*
X0103307Y0510413D01*
X0100445Y0508761D01*
X0100367Y0508897D01*
G37*
G36*
X0100288Y0509033D02*
X0103150Y0510685D01*
X0103228Y0510549D01*
X0100366Y0508897D01*
X0100288Y0509033D01*
G37*
G36*
X0100209Y0509170D02*
X0103071Y0510822D01*
X0103149Y0510686D01*
X0100287Y0509034D01*
X0100209Y0509170D01*
G37*
G36*
X0100130Y0509306D02*
X0102992Y0510958D01*
X0103070Y0510822D01*
X0100208Y0509170D01*
X0100130Y0509306D01*
G37*
G36*
X0100052Y0509443D02*
X0102914Y0511095D01*
X0102992Y0510959D01*
X0100130Y0509307D01*
X0100052Y0509443D01*
G37*
G36*
X0099973Y0509579D02*
X0102835Y0511231D01*
X0102913Y0511095D01*
X0100051Y0509443D01*
X0099973Y0509579D01*
G37*
G36*
X0100030Y0509794D02*
X0102892Y0511446D01*
X0102970Y0511310D01*
X0100108Y0509658D01*
X0100030Y0509794D01*
G37*
G36*
X0099952Y0509931D02*
X0102814Y0511583D01*
X0102892Y0511447D01*
X0100030Y0509795D01*
X0099952Y0509931D01*
G37*
G36*
X0099873Y0510067D02*
X0102735Y0511719D01*
X0102813Y0511583D01*
X0099951Y0509931D01*
X0099873Y0510067D01*
G37*
G36*
X0099931Y0510282D02*
X0102793Y0511934D01*
X0102871Y0511798D01*
X0100009Y0510146D01*
X0099931Y0510282D01*
G37*
G36*
X0099852Y0510418D02*
X0102714Y0512070D01*
X0102792Y0511934D01*
X0099930Y0510282D01*
X0099852Y0510418D01*
G37*
G36*
X0099910Y0510634D02*
X0102772Y0512286D01*
X0102850Y0512150D01*
X0099988Y0510498D01*
X0099910Y0510634D01*
G37*
G36*
X0101054Y0508021D02*
X0103916Y0509673D01*
X0103994Y0509537D01*
X0101132Y0507885D01*
X0101054Y0508021D01*
G37*
G36*
X0101427Y0507691D02*
X0104289Y0509343D01*
X0104367Y0509207D01*
X0101505Y0507555D01*
X0101427Y0507691D01*
G37*
G36*
X0057539Y0463001D02*
X0059191Y0465863D01*
X0059327Y0465785D01*
X0057675Y0462923D01*
X0057539Y0463001D01*
G37*
G36*
X0057402Y0463079D02*
X0059054Y0465941D01*
X0059190Y0465863D01*
X0057538Y0463001D01*
X0057402Y0463079D01*
G37*
G36*
X0056254Y0463924D02*
X0057906Y0466786D01*
X0058042Y0466708D01*
X0056390Y0463846D01*
X0056254Y0463924D01*
G37*
G36*
X0056117Y0464003D02*
X0057769Y0466865D01*
X0057905Y0466787D01*
X0056253Y0463925D01*
X0056117Y0464003D01*
G37*
G36*
X0055493Y0464182D02*
X0057145Y0467044D01*
X0057281Y0466966D01*
X0055629Y0464104D01*
X0055493Y0464182D01*
G37*
G36*
X0054790Y0464224D02*
X0056442Y0467086D01*
X0056578Y0467008D01*
X0054926Y0464146D01*
X0054790Y0464224D01*
G37*
G36*
X0055005Y0464281D02*
X0056657Y0467143D01*
X0056793Y0467065D01*
X0055141Y0464203D01*
X0055005Y0464281D01*
G37*
G36*
X0055141Y0464203D02*
X0056793Y0467065D01*
X0056929Y0466987D01*
X0055277Y0464125D01*
X0055141Y0464203D01*
G37*
G36*
X0055357Y0464260D02*
X0057009Y0467122D01*
X0057145Y0467044D01*
X0055493Y0464182D01*
X0055357Y0464260D01*
G37*
G36*
X0055844Y0464161D02*
X0057496Y0467023D01*
X0057632Y0466945D01*
X0055980Y0464083D01*
X0055844Y0464161D01*
G37*
G36*
X0055981Y0464082D02*
X0057633Y0466944D01*
X0057769Y0466866D01*
X0056117Y0464004D01*
X0055981Y0464082D01*
G37*
G36*
X0050926Y0456271D02*
X0052578Y0459133D01*
X0052714Y0459055D01*
X0051062Y0456193D01*
X0050926Y0456271D01*
G37*
G36*
X0050790Y0456350D02*
X0052442Y0459212D01*
X0052578Y0459134D01*
X0050926Y0456272D01*
X0050790Y0456350D01*
G37*
G36*
X0052075Y0455426D02*
X0053727Y0458288D01*
X0053863Y0458210D01*
X0052211Y0455348D01*
X0052075Y0455426D01*
G37*
G36*
X0052211Y0455348D02*
X0053863Y0458210D01*
X0053999Y0458132D01*
X0052347Y0455270D01*
X0052211Y0455348D01*
G37*
G36*
X0052347Y0455269D02*
X0053999Y0458131D01*
X0054135Y0458053D01*
X0052483Y0455191D01*
X0052347Y0455269D01*
G37*
G36*
X0052484Y0455190D02*
X0054136Y0458052D01*
X0054272Y0457974D01*
X0052620Y0455112D01*
X0052484Y0455190D01*
G37*
G36*
X0053675Y0455048D02*
X0055327Y0457910D01*
X0055463Y0457832D01*
X0053811Y0454970D01*
X0053675Y0455048D01*
G37*
G36*
X0055248Y0324761D02*
X0053596Y0327623D01*
X0053732Y0327701D01*
X0055384Y0324839D01*
X0055248Y0324761D01*
G37*
G36*
X0054897Y0324740D02*
X0053245Y0327602D01*
X0053381Y0327680D01*
X0055033Y0324818D01*
X0054897Y0324740D01*
G37*
G36*
X0054057Y0324619D02*
X0052405Y0327481D01*
X0052541Y0327559D01*
X0054193Y0324697D01*
X0054057Y0324619D01*
G37*
G36*
X0052636Y0323616D02*
X0050984Y0326478D01*
X0051120Y0326556D01*
X0052772Y0323694D01*
X0052636Y0323616D01*
G37*
G36*
X0052112Y0322950D02*
X0050460Y0325812D01*
X0050596Y0325890D01*
X0052248Y0323028D01*
X0052112Y0322950D01*
G37*
G36*
X0052169Y0323165D02*
X0050517Y0326027D01*
X0050653Y0326105D01*
X0052305Y0323243D01*
X0052169Y0323165D01*
G37*
G36*
X0052306Y0323244D02*
X0050654Y0326106D01*
X0050790Y0326184D01*
X0052442Y0323322D01*
X0052306Y0323244D01*
G37*
G36*
X0052363Y0323459D02*
X0050711Y0326321D01*
X0050847Y0326399D01*
X0052499Y0323537D01*
X0052363Y0323459D01*
G37*
G36*
X0052500Y0323538D02*
X0050848Y0326400D01*
X0050984Y0326478D01*
X0052636Y0323616D01*
X0052500Y0323538D01*
G37*
G36*
X0057067Y0315628D02*
X0055415Y0318490D01*
X0055551Y0318568D01*
X0057203Y0315706D01*
X0057067Y0315628D01*
G37*
G36*
X0056930Y0315549D02*
X0055278Y0318411D01*
X0055414Y0318489D01*
X0057066Y0315627D01*
X0056930Y0315549D01*
G37*
G36*
X0058373Y0316200D02*
X0056721Y0319062D01*
X0056857Y0319140D01*
X0058509Y0316278D01*
X0058373Y0316200D01*
G37*
G36*
X0058509Y0316279D02*
X0056857Y0319141D01*
X0056993Y0319219D01*
X0058645Y0316357D01*
X0058509Y0316279D01*
G37*
G36*
X0058646Y0316357D02*
X0056994Y0319219D01*
X0057130Y0319297D01*
X0058782Y0316435D01*
X0058646Y0316357D01*
G37*
G36*
X0058782Y0316436D02*
X0057130Y0319298D01*
X0057266Y0319376D01*
X0058918Y0316514D01*
X0058782Y0316436D01*
G37*
G36*
X0059500Y0317396D02*
X0057848Y0320258D01*
X0057984Y0320336D01*
X0059636Y0317474D01*
X0059500Y0317396D01*
G37*
G36*
X0103710Y0272975D02*
X0100848Y0274627D01*
X0100926Y0274763D01*
X0103788Y0273111D01*
X0103710Y0272975D01*
G37*
G36*
X0103631Y0272839D02*
X0100769Y0274491D01*
X0100847Y0274627D01*
X0103709Y0272975D01*
X0103631Y0272839D01*
G37*
G36*
X0103553Y0272702D02*
X0100691Y0274354D01*
X0100769Y0274490D01*
X0103631Y0272838D01*
X0103553Y0272702D01*
G37*
G36*
X0103474Y0272566D02*
X0100612Y0274218D01*
X0100690Y0274354D01*
X0103552Y0272702D01*
X0103474Y0272566D01*
G37*
G36*
X0103395Y0272429D02*
X0100533Y0274081D01*
X0100611Y0274217D01*
X0103473Y0272565D01*
X0103395Y0272429D01*
G37*
G36*
X0103316Y0272293D02*
X0100454Y0273945D01*
X0100532Y0274081D01*
X0103394Y0272429D01*
X0103316Y0272293D01*
G37*
G36*
X0103238Y0272157D02*
X0100376Y0273809D01*
X0100454Y0273945D01*
X0103316Y0272293D01*
X0103238Y0272157D01*
G37*
G36*
X0102881Y0270908D02*
X0100019Y0272560D01*
X0100097Y0272696D01*
X0102959Y0271044D01*
X0102881Y0270908D01*
G37*
G36*
X0102859Y0270557D02*
X0099997Y0272209D01*
X0100075Y0272345D01*
X0102937Y0270693D01*
X0102859Y0270557D01*
G37*
G36*
X0102781Y0270420D02*
X0099919Y0272072D01*
X0099997Y0272208D01*
X0102859Y0270556D01*
X0102781Y0270420D01*
G37*
G36*
X0110791Y0266341D02*
X0107929Y0267993D01*
X0108007Y0268129D01*
X0110869Y0266477D01*
X0110791Y0266341D01*
G37*
G36*
X0111378Y0266729D02*
X0108516Y0268381D01*
X0108594Y0268517D01*
X0111456Y0266865D01*
X0111378Y0266729D01*
G37*
G36*
X0111457Y0266866D02*
X0108595Y0268518D01*
X0108673Y0268654D01*
X0111535Y0267002D01*
X0111457Y0266866D01*
G37*
G36*
X0111536Y0267002D02*
X0108674Y0268654D01*
X0108752Y0268790D01*
X0111614Y0267138D01*
X0111536Y0267002D01*
G37*
G36*
X0111615Y0267138D02*
X0108753Y0268790D01*
X0108831Y0268926D01*
X0111693Y0267274D01*
X0111615Y0267138D01*
G37*
G36*
X0111693Y0267275D02*
X0108831Y0268927D01*
X0108909Y0269063D01*
X0111771Y0267411D01*
X0111693Y0267275D01*
G37*
G36*
X0111772Y0267411D02*
X0108910Y0269063D01*
X0108988Y0269199D01*
X0111850Y0267547D01*
X0111772Y0267411D01*
G37*
G36*
X0111851Y0267547D02*
X0108989Y0269199D01*
X0109067Y0269335D01*
X0111929Y0267683D01*
X0111851Y0267547D01*
G37*
G36*
X0111930Y0267684D02*
X0109068Y0269336D01*
X0109146Y0269472D01*
X0112008Y0267820D01*
X0111930Y0267684D01*
G37*
G36*
X0112008Y0267820D02*
X0109146Y0269472D01*
X0109224Y0269608D01*
X0112086Y0267956D01*
X0112008Y0267820D01*
G37*
G36*
X0112087Y0267957D02*
X0109225Y0269609D01*
X0109303Y0269745D01*
X0112165Y0268093D01*
X0112087Y0267957D01*
G37*
G36*
X0112166Y0268093D02*
X0109304Y0269745D01*
X0109382Y0269881D01*
X0112244Y0268229D01*
X0112166Y0268093D01*
G37*
G36*
X0112187Y0268445D02*
X0109325Y0270097D01*
X0109403Y0270233D01*
X0112265Y0268581D01*
X0112187Y0268445D01*
G37*
G36*
X0112266Y0268581D02*
X0109404Y0270233D01*
X0109482Y0270369D01*
X0112344Y0268717D01*
X0112266Y0268581D01*
G37*
G36*
X0112208Y0268796D02*
X0109346Y0270448D01*
X0109424Y0270584D01*
X0112286Y0268932D01*
X0112208Y0268796D01*
G37*
G36*
X0112287Y0268932D02*
X0109425Y0270584D01*
X0109503Y0270720D01*
X0112365Y0269068D01*
X0112287Y0268932D01*
G37*
G36*
X0112229Y0269148D02*
X0109367Y0270800D01*
X0109445Y0270936D01*
X0112307Y0269284D01*
X0112229Y0269148D01*
G37*
G36*
X0111163Y0266672D02*
X0108301Y0268324D01*
X0108379Y0268460D01*
X0111241Y0266808D01*
X0111163Y0266672D01*
G37*
G36*
X0111085Y0266535D02*
X0108223Y0268187D01*
X0108301Y0268323D01*
X0111163Y0266671D01*
X0111085Y0266535D01*
G37*
G36*
X0111006Y0266399D02*
X0108144Y0268051D01*
X0108222Y0268187D01*
X0111084Y0266535D01*
X0111006Y0266399D01*
G37*
X0171264Y0257937D03*
X0171264Y0257780D03*
X0189217Y0258410D03*
X0189217Y0258567D03*
X0189217Y0258725D03*
X0189217Y0258882D03*
X0189217Y0259040D03*
X0189217Y0255890D03*
X0189217Y0255733D03*
X0189217Y0255575D03*
X0189217Y0255418D03*
X0192839Y0255890D03*
X0192839Y0256048D03*
X0192839Y0258410D03*
G36*
X0242475Y0270119D02*
X0239613Y0268467D01*
X0239535Y0268603D01*
X0242397Y0270255D01*
X0242475Y0270119D01*
G37*
G36*
X0242733Y0269359D02*
X0239871Y0267707D01*
X0239793Y0267843D01*
X0242655Y0269495D01*
X0242733Y0269359D01*
G37*
G36*
X0242811Y0269222D02*
X0239949Y0267570D01*
X0239871Y0267706D01*
X0242733Y0269358D01*
X0242811Y0269222D01*
G37*
G36*
X0242890Y0269086D02*
X0240028Y0267434D01*
X0239950Y0267570D01*
X0242812Y0269222D01*
X0242890Y0269086D01*
G37*
G36*
X0242969Y0268950D02*
X0240107Y0267298D01*
X0240029Y0267434D01*
X0242891Y0269086D01*
X0242969Y0268950D01*
G37*
G36*
X0243047Y0268813D02*
X0240185Y0267161D01*
X0240107Y0267297D01*
X0242969Y0268949D01*
X0243047Y0268813D01*
G37*
G36*
X0243499Y0268346D02*
X0240637Y0266694D01*
X0240559Y0266830D01*
X0243421Y0268482D01*
X0243499Y0268346D01*
G37*
G36*
X0243950Y0267880D02*
X0241088Y0266228D01*
X0241010Y0266364D01*
X0243872Y0268016D01*
X0243950Y0267880D01*
G37*
G36*
X0243656Y0268074D02*
X0240794Y0266422D01*
X0240716Y0266558D01*
X0243578Y0268210D01*
X0243656Y0268074D01*
G37*
G36*
X0243578Y0268210D02*
X0240716Y0266558D01*
X0240638Y0266694D01*
X0243500Y0268346D01*
X0243578Y0268210D01*
G37*
G36*
X0251509Y0272425D02*
X0248647Y0270773D01*
X0248569Y0270909D01*
X0251431Y0272561D01*
X0251509Y0272425D01*
G37*
G36*
X0251488Y0272777D02*
X0248626Y0271125D01*
X0248548Y0271261D01*
X0251410Y0272913D01*
X0251488Y0272777D01*
G37*
G36*
X0251309Y0273401D02*
X0248447Y0271749D01*
X0248369Y0271885D01*
X0251231Y0273537D01*
X0251309Y0273401D01*
G37*
G36*
X0251230Y0273538D02*
X0248368Y0271886D01*
X0248290Y0272022D01*
X0251152Y0273674D01*
X0251230Y0273538D01*
G37*
G36*
X0251152Y0273674D02*
X0248290Y0272022D01*
X0248212Y0272158D01*
X0251074Y0273810D01*
X0251152Y0273674D01*
G37*
G36*
X0251073Y0273810D02*
X0248211Y0272158D01*
X0248133Y0272294D01*
X0250995Y0273946D01*
X0251073Y0273810D01*
G37*
G36*
X0250994Y0273947D02*
X0248132Y0272295D01*
X0248054Y0272431D01*
X0250916Y0274083D01*
X0250994Y0273947D01*
G37*
G36*
X0250915Y0274083D02*
X0248053Y0272431D01*
X0247975Y0272567D01*
X0250837Y0274219D01*
X0250915Y0274083D01*
G37*
G36*
X0250837Y0274220D02*
X0247975Y0272568D01*
X0247897Y0272704D01*
X0250759Y0274356D01*
X0250837Y0274220D01*
G37*
G36*
X0250758Y0274356D02*
X0247896Y0272704D01*
X0247818Y0272840D01*
X0250680Y0274492D01*
X0250758Y0274356D01*
G37*
G36*
X0250464Y0274550D02*
X0247602Y0272898D01*
X0247524Y0273034D01*
X0250386Y0274686D01*
X0250464Y0274550D01*
G37*
G36*
X0250385Y0274686D02*
X0247523Y0273034D01*
X0247445Y0273170D01*
X0250307Y0274822D01*
X0250385Y0274686D01*
G37*
G36*
X0250307Y0274823D02*
X0247445Y0273171D01*
X0247367Y0273307D01*
X0250229Y0274959D01*
X0250307Y0274823D01*
G37*
G36*
X0250092Y0274880D02*
X0247230Y0273228D01*
X0247152Y0273364D01*
X0250014Y0275016D01*
X0250092Y0274880D01*
G37*
G36*
X0250013Y0275017D02*
X0247151Y0273365D01*
X0247073Y0273501D01*
X0249935Y0275153D01*
X0250013Y0275017D01*
G37*
G36*
X0249798Y0275074D02*
X0246936Y0273422D01*
X0246858Y0273558D01*
X0249720Y0275210D01*
X0249798Y0275074D01*
G37*
G36*
X0251409Y0272913D02*
X0248547Y0271261D01*
X0248469Y0271397D01*
X0251331Y0273049D01*
X0251409Y0272913D01*
G37*
G36*
X0294299Y0319913D02*
X0292647Y0317051D01*
X0292511Y0317129D01*
X0294163Y0319991D01*
X0294299Y0319913D01*
G37*
G36*
X0293854Y0320716D02*
X0292202Y0317854D01*
X0292066Y0317932D01*
X0293718Y0320794D01*
X0293854Y0320716D01*
G37*
G36*
X0294436Y0319834D02*
X0292784Y0316972D01*
X0292648Y0317050D01*
X0294300Y0319912D01*
X0294436Y0319834D01*
G37*
G36*
X0296209Y0318811D02*
X0294557Y0315949D01*
X0294421Y0316027D01*
X0296073Y0318889D01*
X0296209Y0318811D01*
G37*
G36*
X0296697Y0318711D02*
X0295045Y0315849D01*
X0294909Y0315927D01*
X0296561Y0318789D01*
X0296697Y0318711D01*
G37*
G36*
X0297184Y0318611D02*
X0295532Y0315749D01*
X0295396Y0315827D01*
X0297048Y0318689D01*
X0297184Y0318611D01*
G37*
G36*
X0296833Y0318632D02*
X0295181Y0315770D01*
X0295045Y0315848D01*
X0296697Y0318710D01*
X0296833Y0318632D01*
G37*
G36*
X0300891Y0326291D02*
X0299239Y0323429D01*
X0299103Y0323507D01*
X0300755Y0326369D01*
X0300891Y0326291D01*
G37*
G36*
X0299333Y0327372D02*
X0297681Y0324510D01*
X0297545Y0324588D01*
X0299197Y0327450D01*
X0299333Y0327372D01*
G37*
G36*
X0299197Y0327451D02*
X0297545Y0324589D01*
X0297409Y0324667D01*
X0299061Y0327529D01*
X0299197Y0327451D01*
G37*
G36*
X0298845Y0327472D02*
X0297193Y0324610D01*
X0297057Y0324688D01*
X0298709Y0327550D01*
X0298845Y0327472D01*
G37*
G36*
X0298709Y0327550D02*
X0297057Y0324688D01*
X0296921Y0324766D01*
X0298573Y0327628D01*
X0298709Y0327550D01*
G37*
G36*
X0298357Y0327572D02*
X0296705Y0324710D01*
X0296569Y0324788D01*
X0298221Y0327650D01*
X0298357Y0327572D01*
G37*
G36*
X0298142Y0327514D02*
X0296490Y0324652D01*
X0296354Y0324730D01*
X0298006Y0327592D01*
X0298142Y0327514D01*
G37*
G36*
X0296164Y0459342D02*
X0297816Y0456480D01*
X0297680Y0456402D01*
X0296028Y0459264D01*
X0296164Y0459342D01*
G37*
G36*
X0296925Y0459599D02*
X0298577Y0456737D01*
X0298441Y0456659D01*
X0296789Y0459521D01*
X0296925Y0459599D01*
G37*
G36*
X0297061Y0459678D02*
X0298713Y0456816D01*
X0298577Y0456738D01*
X0296925Y0459600D01*
X0297061Y0459678D01*
G37*
G36*
X0297197Y0459757D02*
X0298849Y0456895D01*
X0298713Y0456817D01*
X0297061Y0459679D01*
X0297197Y0459757D01*
G37*
G36*
X0297334Y0459835D02*
X0298986Y0456973D01*
X0298850Y0456895D01*
X0297198Y0459757D01*
X0297334Y0459835D01*
G37*
G36*
X0297470Y0459914D02*
X0299122Y0457052D01*
X0298986Y0456974D01*
X0297334Y0459836D01*
X0297470Y0459914D01*
G37*
G36*
X0297937Y0460365D02*
X0299589Y0457503D01*
X0299453Y0457425D01*
X0297801Y0460287D01*
X0297937Y0460365D01*
G37*
G36*
X0298404Y0460817D02*
X0300056Y0457955D01*
X0299920Y0457877D01*
X0298268Y0460739D01*
X0298404Y0460817D01*
G37*
G36*
X0298210Y0460523D02*
X0299862Y0457661D01*
X0299726Y0457583D01*
X0298074Y0460445D01*
X0298210Y0460523D01*
G37*
G36*
X0298073Y0460444D02*
X0299725Y0457582D01*
X0299589Y0457504D01*
X0297937Y0460366D01*
X0298073Y0460444D01*
G37*
G36*
X0295239Y0465354D02*
X0296891Y0462492D01*
X0296755Y0462414D01*
X0295103Y0465276D01*
X0295239Y0465354D01*
G37*
G36*
X0295375Y0465433D02*
X0297027Y0462571D01*
X0296891Y0462493D01*
X0295239Y0465355D01*
X0295375Y0465433D01*
G37*
G36*
X0293932Y0464782D02*
X0295584Y0461920D01*
X0295448Y0461842D01*
X0293796Y0464704D01*
X0293932Y0464782D01*
G37*
G36*
X0293796Y0464703D02*
X0295448Y0461841D01*
X0295312Y0461763D01*
X0293660Y0464625D01*
X0293796Y0464703D01*
G37*
G36*
X0293660Y0464624D02*
X0295312Y0461762D01*
X0295176Y0461684D01*
X0293524Y0464546D01*
X0293660Y0464624D01*
G37*
G36*
X0293523Y0464545D02*
X0295175Y0461683D01*
X0295039Y0461605D01*
X0293387Y0464467D01*
X0293523Y0464545D01*
G37*
G36*
X0292805Y0463585D02*
X0294457Y0460723D01*
X0294321Y0460645D01*
X0292669Y0463507D01*
X0292805Y0463585D01*
G37*
G36*
X0248123Y0511237D02*
X0250985Y0509585D01*
X0250907Y0509449D01*
X0248045Y0511101D01*
X0248123Y0511237D01*
G37*
G36*
X0248223Y0511725D02*
X0251085Y0510073D01*
X0251007Y0509937D01*
X0248145Y0511589D01*
X0248223Y0511725D01*
G37*
G36*
X0248280Y0511510D02*
X0251142Y0509858D01*
X0251064Y0509722D01*
X0248202Y0511374D01*
X0248280Y0511510D01*
G37*
G36*
X0248202Y0511374D02*
X0251064Y0509722D01*
X0250986Y0509586D01*
X0248124Y0511238D01*
X0248202Y0511374D01*
G37*
G36*
X0241231Y0516308D02*
X0244093Y0514656D01*
X0244015Y0514520D01*
X0241153Y0516172D01*
X0241231Y0516308D01*
G37*
G36*
X0240937Y0516114D02*
X0243799Y0514462D01*
X0243721Y0514326D01*
X0240859Y0515978D01*
X0240937Y0516114D01*
G37*
G36*
X0240485Y0515647D02*
X0243347Y0513995D01*
X0243269Y0513859D01*
X0240407Y0515511D01*
X0240485Y0515647D01*
G37*
G36*
X0240407Y0515510D02*
X0243269Y0513858D01*
X0243191Y0513722D01*
X0240329Y0515374D01*
X0240407Y0515510D01*
G37*
G36*
X0240328Y0515374D02*
X0243190Y0513722D01*
X0243112Y0513586D01*
X0240250Y0515238D01*
X0240328Y0515374D01*
G37*
G36*
X0240249Y0515238D02*
X0243111Y0513586D01*
X0243033Y0513450D01*
X0240171Y0515102D01*
X0240249Y0515238D01*
G37*
G36*
X0240170Y0515101D02*
X0243032Y0513449D01*
X0242954Y0513313D01*
X0240092Y0514965D01*
X0240170Y0515101D01*
G37*
G36*
X0240092Y0514965D02*
X0242954Y0513313D01*
X0242876Y0513177D01*
X0240014Y0514829D01*
X0240092Y0514965D01*
G37*
G36*
X0240013Y0514829D02*
X0242875Y0513177D01*
X0242797Y0513041D01*
X0239935Y0514693D01*
X0240013Y0514829D01*
G37*
G36*
X0239934Y0514692D02*
X0242796Y0513040D01*
X0242718Y0512904D01*
X0239856Y0514556D01*
X0239934Y0514692D01*
G37*
G36*
X0239913Y0514341D02*
X0242775Y0512689D01*
X0242697Y0512553D01*
X0239835Y0514205D01*
X0239913Y0514341D01*
G37*
G36*
X0239834Y0514204D02*
X0242696Y0512552D01*
X0242618Y0512416D01*
X0239756Y0514068D01*
X0239834Y0514204D01*
G37*
G36*
X0239756Y0514068D02*
X0242618Y0512416D01*
X0242540Y0512280D01*
X0239678Y0513932D01*
X0239756Y0514068D01*
G37*
G36*
X0239813Y0513853D02*
X0242675Y0512201D01*
X0242597Y0512065D01*
X0239735Y0513717D01*
X0239813Y0513853D01*
G37*
G36*
X0239735Y0513716D02*
X0242597Y0512064D01*
X0242519Y0511928D01*
X0239657Y0513580D01*
X0239735Y0513716D01*
G37*
G36*
X0239792Y0513501D02*
X0242654Y0511849D01*
X0242576Y0511713D01*
X0239714Y0513365D01*
X0239792Y0513501D01*
G37*
G36*
X0240858Y0515977D02*
X0243720Y0514325D01*
X0243642Y0514189D01*
X0240780Y0515841D01*
X0240858Y0515977D01*
G37*
D105*
G36*
X0240643Y0515919D02*
X0243641Y0514188D01*
X0243563Y0514053D01*
X0240565Y0515784D01*
X0240643Y0515919D01*
G37*
G36*
X0240564Y0515783D02*
X0243562Y0514052D01*
X0243484Y0513917D01*
X0240486Y0515648D01*
X0240564Y0515783D01*
G37*
G36*
X0241016Y0516250D02*
X0244014Y0514519D01*
X0243936Y0514384D01*
X0240938Y0516115D01*
X0241016Y0516250D01*
G37*
G36*
X0241310Y0516444D02*
X0244308Y0514713D01*
X0244230Y0514578D01*
X0241232Y0516309D01*
X0241310Y0516444D01*
G37*
G36*
X0241525Y0516501D02*
X0244523Y0514770D01*
X0244445Y0514635D01*
X0241447Y0516366D01*
X0241525Y0516501D01*
G37*
G36*
X0239856Y0514555D02*
X0242854Y0512824D01*
X0242776Y0512689D01*
X0239778Y0514420D01*
X0239856Y0514555D01*
G37*
G36*
X0239714Y0513365D02*
X0242712Y0511634D01*
X0242634Y0511499D01*
X0239636Y0513230D01*
X0239714Y0513365D01*
G37*
G36*
X0247908Y0511179D02*
X0250906Y0509448D01*
X0250828Y0509313D01*
X0247830Y0511044D01*
X0247908Y0511179D01*
G37*
G36*
X0248165Y0511940D02*
X0251163Y0510209D01*
X0251085Y0510074D01*
X0248087Y0511805D01*
X0248165Y0511940D01*
G37*
G36*
X0292747Y0463370D02*
X0294478Y0460372D01*
X0294343Y0460294D01*
X0292612Y0463292D01*
X0292747Y0463370D01*
G37*
G36*
X0294068Y0464860D02*
X0295799Y0461862D01*
X0295664Y0461784D01*
X0293933Y0464782D01*
X0294068Y0464860D01*
G37*
G36*
X0294205Y0464939D02*
X0295936Y0461941D01*
X0295801Y0461863D01*
X0294070Y0464861D01*
X0294205Y0464939D01*
G37*
G36*
X0296221Y0459557D02*
X0297952Y0456559D01*
X0297817Y0456481D01*
X0296086Y0459479D01*
X0296221Y0459557D01*
G37*
G36*
X0297527Y0460129D02*
X0299258Y0457131D01*
X0299123Y0457053D01*
X0297392Y0460051D01*
X0297527Y0460129D01*
G37*
G36*
X0297664Y0460208D02*
X0299395Y0457210D01*
X0299260Y0457132D01*
X0297529Y0460130D01*
X0297664Y0460208D01*
G37*
G36*
X0297800Y0460287D02*
X0299531Y0457289D01*
X0299396Y0457211D01*
X0297665Y0460209D01*
X0297800Y0460287D01*
G37*
G36*
X0298005Y0327592D02*
X0296274Y0324594D01*
X0296139Y0324672D01*
X0297870Y0327670D01*
X0298005Y0327592D01*
G37*
G36*
X0299469Y0327293D02*
X0297738Y0324295D01*
X0297603Y0324373D01*
X0299334Y0327371D01*
X0299469Y0327293D01*
G37*
G36*
X0299605Y0327214D02*
X0297874Y0324216D01*
X0297739Y0324294D01*
X0299470Y0327292D01*
X0299605Y0327214D01*
G37*
G36*
X0299742Y0327135D02*
X0298011Y0324137D01*
X0297876Y0324215D01*
X0299607Y0327213D01*
X0299742Y0327135D01*
G37*
G36*
X0300754Y0326369D02*
X0299023Y0323371D01*
X0298888Y0323449D01*
X0300619Y0326447D01*
X0300754Y0326369D01*
G37*
G36*
X0297790Y0327535D02*
X0296059Y0324537D01*
X0295924Y0324615D01*
X0297655Y0327613D01*
X0297790Y0327535D01*
G37*
G36*
X0295117Y0319440D02*
X0293386Y0316442D01*
X0293251Y0316520D01*
X0294982Y0319518D01*
X0295117Y0319440D01*
G37*
G36*
X0295254Y0319362D02*
X0293523Y0316364D01*
X0293388Y0316442D01*
X0295119Y0319440D01*
X0295254Y0319362D01*
G37*
G36*
X0295390Y0319283D02*
X0293659Y0316285D01*
X0293524Y0316363D01*
X0295255Y0319361D01*
X0295390Y0319283D01*
G37*
G36*
X0295526Y0319204D02*
X0293795Y0316206D01*
X0293660Y0316284D01*
X0295391Y0319282D01*
X0295526Y0319204D01*
G37*
G36*
X0295663Y0319125D02*
X0293932Y0316127D01*
X0293797Y0316205D01*
X0295528Y0319203D01*
X0295663Y0319125D01*
G37*
G36*
X0296423Y0318868D02*
X0294692Y0315870D01*
X0294557Y0315948D01*
X0296288Y0318946D01*
X0296423Y0318868D01*
G37*
G36*
X0296560Y0318789D02*
X0294829Y0315791D01*
X0294694Y0315869D01*
X0296425Y0318867D01*
X0296560Y0318789D01*
G37*
G36*
X0296072Y0318889D02*
X0294341Y0315891D01*
X0294206Y0315969D01*
X0295937Y0318967D01*
X0296072Y0318889D01*
G37*
G36*
X0295935Y0318968D02*
X0294204Y0315970D01*
X0294069Y0316048D01*
X0295800Y0319046D01*
X0295935Y0318968D01*
G37*
G36*
X0295799Y0319047D02*
X0294068Y0316049D01*
X0293933Y0316127D01*
X0295664Y0319125D01*
X0295799Y0319047D01*
G37*
G36*
X0250679Y0274493D02*
X0247681Y0272762D01*
X0247603Y0272897D01*
X0250601Y0274628D01*
X0250679Y0274493D01*
G37*
G36*
X0251388Y0273265D02*
X0248390Y0271534D01*
X0248312Y0271669D01*
X0251310Y0273400D01*
X0251388Y0273265D01*
G37*
G36*
X0251466Y0273129D02*
X0248468Y0271398D01*
X0248390Y0271533D01*
X0251388Y0273264D01*
X0251466Y0273129D01*
G37*
G36*
X0251566Y0272641D02*
X0248568Y0270910D01*
X0248490Y0271045D01*
X0251488Y0272776D01*
X0251566Y0272641D01*
G37*
G36*
X0251587Y0272290D02*
X0248589Y0270559D01*
X0248511Y0270694D01*
X0251509Y0272425D01*
X0251587Y0272290D01*
G37*
G36*
X0251530Y0272075D02*
X0248532Y0270344D01*
X0248454Y0270479D01*
X0251452Y0272210D01*
X0251530Y0272075D01*
G37*
G36*
X0249719Y0275211D02*
X0246721Y0273480D01*
X0246643Y0273615D01*
X0249641Y0275346D01*
X0249719Y0275211D01*
G37*
G36*
X0243262Y0268756D02*
X0240264Y0267025D01*
X0240186Y0267160D01*
X0243184Y0268891D01*
X0243262Y0268756D01*
G37*
G36*
X0243341Y0268620D02*
X0240343Y0266889D01*
X0240265Y0267024D01*
X0243263Y0268755D01*
X0243341Y0268620D01*
G37*
G36*
X0243420Y0268483D02*
X0240422Y0266752D01*
X0240344Y0266887D01*
X0243342Y0268618D01*
X0243420Y0268483D01*
G37*
G36*
X0242690Y0270062D02*
X0239692Y0268331D01*
X0239614Y0268466D01*
X0242612Y0270197D01*
X0242690Y0270062D01*
G37*
X0192918Y0258252D03*
X0163784Y0258095D03*
X0163784Y0257937D03*
G36*
X0112308Y0269284D02*
X0109310Y0271015D01*
X0109388Y0271150D01*
X0112386Y0269419D01*
X0112308Y0269284D01*
G37*
G36*
X0112250Y0269499D02*
X0109252Y0271230D01*
X0109330Y0271365D01*
X0112328Y0269634D01*
X0112250Y0269499D01*
G37*
G36*
X0110712Y0266205D02*
X0107714Y0267936D01*
X0107792Y0268071D01*
X0110790Y0266340D01*
X0110712Y0266205D01*
G37*
G36*
X0110497Y0266147D02*
X0107499Y0267878D01*
X0107577Y0268013D01*
X0110575Y0266282D01*
X0110497Y0266147D01*
G37*
G36*
X0102938Y0270693D02*
X0099940Y0272424D01*
X0100018Y0272559D01*
X0103016Y0270828D01*
X0102938Y0270693D01*
G37*
G36*
X0102959Y0271045D02*
X0099961Y0272776D01*
X0100039Y0272911D01*
X0103037Y0271180D01*
X0102959Y0271045D01*
G37*
G36*
X0103038Y0271181D02*
X0100040Y0272912D01*
X0100118Y0273047D01*
X0103116Y0271316D01*
X0103038Y0271181D01*
G37*
G36*
X0103117Y0271318D02*
X0100119Y0273049D01*
X0100197Y0273184D01*
X0103195Y0271453D01*
X0103117Y0271318D01*
G37*
G36*
X0103059Y0271533D02*
X0100061Y0273264D01*
X0100139Y0273399D01*
X0103137Y0271668D01*
X0103059Y0271533D01*
G37*
G36*
X0103138Y0271669D02*
X0100140Y0273400D01*
X0100218Y0273535D01*
X0103216Y0271804D01*
X0103138Y0271669D01*
G37*
G36*
X0103216Y0271805D02*
X0100218Y0273536D01*
X0100296Y0273671D01*
X0103294Y0271940D01*
X0103216Y0271805D01*
G37*
G36*
X0103295Y0271942D02*
X0100297Y0273673D01*
X0100375Y0273808D01*
X0103373Y0272077D01*
X0103295Y0271942D01*
G37*
G36*
X0059559Y0317612D02*
X0057828Y0320610D01*
X0057963Y0320688D01*
X0059694Y0317690D01*
X0059559Y0317612D01*
G37*
G36*
X0058237Y0316121D02*
X0056506Y0319119D01*
X0056641Y0319197D01*
X0058372Y0316199D01*
X0058237Y0316121D01*
G37*
G36*
X0058101Y0316042D02*
X0056370Y0319040D01*
X0056505Y0319118D01*
X0058236Y0316120D01*
X0058101Y0316042D01*
G37*
G36*
X0055543Y0324567D02*
X0053812Y0327565D01*
X0053947Y0327643D01*
X0055678Y0324645D01*
X0055543Y0324567D01*
G37*
G36*
X0054000Y0324404D02*
X0052269Y0327402D01*
X0052404Y0327480D01*
X0054135Y0324482D01*
X0054000Y0324404D01*
G37*
G36*
X0053890Y0455106D02*
X0055621Y0458104D01*
X0055756Y0458026D01*
X0054025Y0455028D01*
X0053890Y0455106D01*
G37*
G36*
X0051939Y0455505D02*
X0053670Y0458503D01*
X0053805Y0458425D01*
X0052074Y0455427D01*
X0051939Y0455505D01*
G37*
G36*
X0051802Y0455584D02*
X0053533Y0458582D01*
X0053668Y0458504D01*
X0051937Y0455506D01*
X0051802Y0455584D01*
G37*
G36*
X0056312Y0463709D02*
X0058043Y0466707D01*
X0058178Y0466629D01*
X0056447Y0463631D01*
X0056312Y0463709D01*
G37*
G36*
X0057188Y0463022D02*
X0058919Y0466020D01*
X0059054Y0465942D01*
X0057323Y0462944D01*
X0057188Y0463022D01*
G37*
G36*
X0101721Y0507496D02*
X0104719Y0509227D01*
X0104797Y0509092D01*
X0101799Y0507361D01*
X0101721Y0507496D01*
G37*
G36*
X0101936Y0507438D02*
X0104934Y0509169D01*
X0105012Y0509034D01*
X0102014Y0507303D01*
X0101936Y0507438D01*
G37*
G36*
X0109022Y0512803D02*
X0112020Y0514534D01*
X0112098Y0514399D01*
X0109100Y0512668D01*
X0109022Y0512803D01*
G37*
G36*
X0107332Y0515100D02*
X0110330Y0516831D01*
X0110408Y0516696D01*
X0107410Y0514965D01*
X0107332Y0515100D01*
G37*
D106*
G36*
X0099830Y0510770D02*
X0102966Y0512580D01*
X0103044Y0512444D01*
X0099908Y0510634D01*
X0099830Y0510770D01*
G37*
G36*
X0054496Y0464029D02*
X0056306Y0467165D01*
X0056442Y0467087D01*
X0054632Y0463951D01*
X0054496Y0464029D01*
G37*
G36*
X0051665Y0455662D02*
X0053475Y0458798D01*
X0053611Y0458720D01*
X0051801Y0455584D01*
X0051665Y0455662D01*
G37*
G36*
X0052851Y0323558D02*
X0051041Y0326694D01*
X0051177Y0326772D01*
X0052987Y0323636D01*
X0052851Y0323558D01*
G37*
G36*
X0052133Y0322598D02*
X0050323Y0325734D01*
X0050459Y0325812D01*
X0052269Y0322676D01*
X0052133Y0322598D01*
G37*
G36*
X0057964Y0315963D02*
X0056154Y0319099D01*
X0056290Y0319177D01*
X0058100Y0316041D01*
X0057964Y0315963D01*
G37*
G36*
X0110419Y0266010D02*
X0107283Y0267820D01*
X0107361Y0267956D01*
X0110497Y0266146D01*
X0110419Y0266010D01*
G37*
X0171264Y0258252D03*
X0171264Y0258095D03*
G36*
X0242927Y0269653D02*
X0239791Y0267843D01*
X0239713Y0267979D01*
X0242849Y0269789D01*
X0242927Y0269653D01*
G37*
G36*
X0249504Y0275269D02*
X0246368Y0273459D01*
X0246290Y0273595D01*
X0249426Y0275405D01*
X0249504Y0275269D01*
G37*
G36*
X0251609Y0271938D02*
X0248473Y0270128D01*
X0248395Y0270264D01*
X0251531Y0272074D01*
X0251609Y0271938D01*
G37*
G36*
X0295060Y0319656D02*
X0293250Y0316520D01*
X0293114Y0316598D01*
X0294924Y0319734D01*
X0295060Y0319656D01*
G37*
G36*
X0294730Y0320029D02*
X0292920Y0316893D01*
X0292784Y0316971D01*
X0294594Y0320107D01*
X0294730Y0320029D01*
G37*
G36*
X0299879Y0327058D02*
X0298069Y0323922D01*
X0297933Y0324000D01*
X0299743Y0327136D01*
X0299879Y0327058D01*
G37*
G36*
X0296630Y0459794D02*
X0298440Y0456658D01*
X0298304Y0456580D01*
X0296494Y0459716D01*
X0296630Y0459794D01*
G37*
G36*
X0294341Y0465019D02*
X0296151Y0461883D01*
X0296015Y0461805D01*
X0294205Y0464941D01*
X0294341Y0465019D01*
G37*
G36*
X0248107Y0512156D02*
X0251243Y0510346D01*
X0251165Y0510210D01*
X0248029Y0512020D01*
X0248107Y0512156D01*
G37*
G36*
X0248049Y0512371D02*
X0251185Y0510561D01*
X0251107Y0510425D01*
X0247971Y0512235D01*
X0248049Y0512371D01*
G37*
G36*
X0241603Y0516638D02*
X0244739Y0514828D01*
X0244661Y0514692D01*
X0241525Y0516502D01*
X0241603Y0516638D01*
G37*
G36*
X0239770Y0513150D02*
X0242906Y0511340D01*
X0242828Y0511204D01*
X0239692Y0513014D01*
X0239770Y0513150D01*
G37*
D107*
G36*
X0245908Y0509606D02*
X0249180Y0507717D01*
X0249102Y0507582D01*
X0245830Y0509471D01*
X0245908Y0509606D01*
G37*
G36*
X0246123Y0509664D02*
X0249395Y0507775D01*
X0249317Y0507640D01*
X0246045Y0509529D01*
X0246123Y0509664D01*
G37*
G36*
X0246202Y0509800D02*
X0249474Y0507911D01*
X0249396Y0507776D01*
X0246124Y0509665D01*
X0246202Y0509800D01*
G37*
G36*
X0247992Y0512586D02*
X0251264Y0510697D01*
X0251186Y0510562D01*
X0247914Y0512451D01*
X0247992Y0512586D01*
G37*
G36*
X0247934Y0512801D02*
X0251206Y0510912D01*
X0251128Y0510777D01*
X0247856Y0512666D01*
X0247934Y0512801D01*
G37*
G36*
X0294477Y0465097D02*
X0296366Y0461825D01*
X0296231Y0461747D01*
X0294342Y0465019D01*
X0294477Y0465097D01*
G37*
G36*
X0300015Y0326979D02*
X0298126Y0323707D01*
X0297991Y0323785D01*
X0299880Y0327057D01*
X0300015Y0326979D01*
G37*
X0163784Y0258410D03*
X0163784Y0258252D03*
G36*
X0110203Y0265953D02*
X0106931Y0267842D01*
X0107009Y0267977D01*
X0110281Y0266088D01*
X0110203Y0265953D01*
G37*
G36*
X0057828Y0315884D02*
X0055939Y0319156D01*
X0056074Y0319234D01*
X0057963Y0315962D01*
X0057828Y0315884D01*
G37*
G36*
X0053067Y0323501D02*
X0051178Y0326773D01*
X0051313Y0326851D01*
X0053202Y0323579D01*
X0053067Y0323501D01*
G37*
G36*
X0051529Y0455741D02*
X0053418Y0459013D01*
X0053553Y0458935D01*
X0051664Y0455663D01*
X0051529Y0455741D01*
G37*
G36*
X0054202Y0463835D02*
X0056091Y0467107D01*
X0056226Y0467029D01*
X0054337Y0463757D01*
X0054202Y0463835D01*
G37*
G36*
X0056972Y0462964D02*
X0058861Y0466236D01*
X0058996Y0466158D01*
X0057107Y0462886D01*
X0056972Y0462964D01*
G37*
G36*
X0099888Y0510984D02*
X0103160Y0512873D01*
X0103238Y0512738D01*
X0099966Y0510849D01*
X0099888Y0510984D01*
G37*
G36*
X0106843Y0515000D02*
X0110115Y0516889D01*
X0110193Y0516754D01*
X0106921Y0514865D01*
X0106843Y0515000D01*
G37*
G36*
X0108806Y0512860D02*
X0112078Y0514749D01*
X0112156Y0514614D01*
X0108884Y0512725D01*
X0108806Y0512860D01*
G37*
D108*
G36*
X0108591Y0512918D02*
X0111999Y0514885D01*
X0112077Y0514750D01*
X0108669Y0512783D01*
X0108591Y0512918D01*
G37*
G36*
X0056757Y0462906D02*
X0058724Y0466314D01*
X0058859Y0466236D01*
X0056892Y0462828D01*
X0056757Y0462906D01*
G37*
G36*
X0052233Y0322110D02*
X0050266Y0325518D01*
X0050401Y0325596D01*
X0052368Y0322188D01*
X0052233Y0322110D01*
G37*
X0171264Y0258410D03*
G36*
X0251551Y0271723D02*
X0248143Y0269756D01*
X0248065Y0269891D01*
X0251473Y0271858D01*
X0251551Y0271723D01*
G37*
G36*
X0300151Y0326900D02*
X0298184Y0323492D01*
X0298049Y0323570D01*
X0300016Y0326978D01*
X0300151Y0326900D01*
G37*
G36*
X0246281Y0509936D02*
X0249689Y0507969D01*
X0249611Y0507834D01*
X0246203Y0509801D01*
X0246281Y0509936D01*
G37*
G36*
X0246359Y0510073D02*
X0249767Y0508106D01*
X0249689Y0507971D01*
X0246281Y0509938D01*
X0246359Y0510073D01*
G37*
G36*
X0247877Y0513016D02*
X0251285Y0511049D01*
X0251207Y0510914D01*
X0247799Y0512881D01*
X0247877Y0513016D01*
G37*
G36*
X0241818Y0516695D02*
X0245226Y0514728D01*
X0245148Y0514593D01*
X0241740Y0516560D01*
X0241818Y0516695D01*
G37*
D109*
X0041581Y0381002D02*
X0040533Y0379400D01*
X0040902Y0378838D01*
X0038955Y0377781D01*
X0038705Y0378135D01*
X0038379Y0378421D01*
X0037995Y0378623D01*
X0037574Y0378730D01*
X0037140Y0378736D01*
X0036710Y0378637D01*
X0036315Y0378439D01*
X0035978Y0378153D01*
X0035720Y0377795D01*
X0035553Y0377386D01*
X0035489Y0376949D01*
X0035530Y0376509D01*
X0035675Y0376091D01*
X0035915Y0375720D01*
X0036236Y0375417D01*
X0036620Y0375199D01*
X0037045Y0375078D01*
X0037486Y0375061D01*
X0037919Y0375150D01*
X0038318Y0375340D01*
X0038661Y0375618D01*
X0038928Y0375970D01*
X0039103Y0376376D01*
X0041226Y0375747D01*
X0040983Y0375120D01*
X0042341Y0373771D01*
X0041436Y0372652D01*
X0039833Y0373700D01*
X0039271Y0373332D01*
X0038655Y0373061D01*
X0038662Y0371146D01*
X0037230Y0370995D01*
X0036838Y0372870D01*
X0036180Y0373007D01*
X0035553Y0373251D01*
X0034204Y0371892D01*
X0033085Y0372798D01*
X0034134Y0374400D01*
X0033765Y0374963D01*
X0033494Y0375578D01*
X0031579Y0375572D01*
X0031429Y0377003D01*
X0033303Y0377395D01*
X0033440Y0378053D01*
X0033684Y0378680D01*
X0032325Y0380029D01*
X0033231Y0381148D01*
X0034834Y0380100D01*
X0035396Y0380468D01*
X0036011Y0380739D01*
X0036005Y0382654D01*
X0037436Y0382805D01*
X0037828Y0380930D01*
X0038487Y0380793D01*
X0039113Y0380549D01*
X0040463Y0381908D01*
X0041581Y0381002D01*
X0041575Y0381008D02*
X0039569Y0381008D01*
X0040154Y0381597D02*
X0040847Y0381597D01*
X0041200Y0380419D02*
X0035320Y0380419D01*
X0036010Y0381008D02*
X0037812Y0381008D01*
X0037689Y0381597D02*
X0036009Y0381597D01*
X0036007Y0382186D02*
X0037566Y0382186D01*
X0037443Y0382775D02*
X0037155Y0382775D01*
X0034346Y0380419D02*
X0032640Y0380419D01*
X0032526Y0379830D02*
X0040814Y0379830D01*
X0040637Y0379241D02*
X0033119Y0379241D01*
X0033673Y0378652D02*
X0036773Y0378652D01*
X0035913Y0378062D02*
X0033444Y0378062D01*
X0033320Y0377473D02*
X0035589Y0377473D01*
X0035495Y0376884D02*
X0031441Y0376884D01*
X0031503Y0376295D02*
X0035604Y0376295D01*
X0035930Y0375706D02*
X0031565Y0375706D01*
X0033697Y0375117D02*
X0036906Y0375117D01*
X0037758Y0375117D02*
X0040986Y0375117D01*
X0041211Y0375706D02*
X0038728Y0375706D01*
X0039068Y0376295D02*
X0039375Y0376295D01*
X0039474Y0378062D02*
X0038756Y0378062D01*
X0037883Y0378652D02*
X0040559Y0378652D01*
X0041579Y0374528D02*
X0034050Y0374528D01*
X0033832Y0373939D02*
X0042172Y0373939D01*
X0042001Y0373350D02*
X0040369Y0373350D01*
X0039299Y0373350D02*
X0033447Y0373350D01*
X0033131Y0372761D02*
X0035067Y0372761D01*
X0034482Y0372172D02*
X0033858Y0372172D01*
X0036861Y0372761D02*
X0038656Y0372761D01*
X0038658Y0372172D02*
X0036984Y0372172D01*
X0037108Y0371583D02*
X0038660Y0371583D01*
X0041269Y0372761D02*
X0041524Y0372761D01*
X0033445Y0381008D02*
X0033117Y0381008D01*
D110*
X0154491Y0524176D02*
X0156026Y0524176D01*
X0156026Y0527640D01*
X0156066Y0527916D01*
X0156144Y0528152D01*
X0156262Y0528349D01*
X0156381Y0528506D01*
X0156538Y0528624D01*
X0157010Y0528703D01*
X0157562Y0528624D01*
X0157759Y0528506D01*
X0157916Y0528309D01*
X0158034Y0528113D01*
X0158113Y0527837D01*
X0158192Y0527483D01*
X0158192Y0524176D01*
X0159727Y0524176D01*
X0159727Y0529057D01*
X0159688Y0529766D01*
X0158270Y0529766D01*
X0158270Y0528979D01*
X0158231Y0528979D01*
X0158073Y0529215D01*
X0157916Y0529412D01*
X0157680Y0529569D01*
X0157483Y0529687D01*
X0157010Y0529845D01*
X0156538Y0529924D01*
X0155987Y0529845D01*
X0155514Y0529727D01*
X0155160Y0529530D01*
X0154924Y0529294D01*
X0154727Y0528939D01*
X0154570Y0528546D01*
X0154530Y0528113D01*
X0154491Y0527601D01*
X0154491Y0524176D01*
X0154491Y0524389D02*
X0156026Y0524389D01*
X0156026Y0524687D02*
X0154491Y0524687D01*
X0154491Y0524986D02*
X0156026Y0524986D01*
X0156026Y0525284D02*
X0154491Y0525284D01*
X0154491Y0525583D02*
X0156026Y0525583D01*
X0156026Y0525881D02*
X0154491Y0525881D01*
X0154491Y0526180D02*
X0156026Y0526180D01*
X0156026Y0526478D02*
X0154491Y0526478D01*
X0154491Y0526777D02*
X0156026Y0526777D01*
X0156026Y0527075D02*
X0154491Y0527075D01*
X0154491Y0527374D02*
X0156026Y0527374D01*
X0156031Y0527672D02*
X0154496Y0527672D01*
X0154519Y0527971D02*
X0156084Y0527971D01*
X0156215Y0528269D02*
X0154544Y0528269D01*
X0154578Y0528568D02*
X0156463Y0528568D01*
X0157656Y0528568D02*
X0159727Y0528568D01*
X0159727Y0528866D02*
X0154698Y0528866D01*
X0154852Y0529165D02*
X0158107Y0529165D01*
X0158270Y0529165D02*
X0159721Y0529165D01*
X0159704Y0529463D02*
X0158270Y0529463D01*
X0158270Y0529762D02*
X0159688Y0529762D01*
X0160554Y0529762D02*
X0162050Y0529762D01*
X0162050Y0529766D02*
X0160554Y0529766D01*
X0160554Y0524176D01*
X0162010Y0524176D01*
X0162010Y0524963D01*
X0162168Y0524727D01*
X0162365Y0524569D01*
X0162562Y0524372D01*
X0162759Y0524254D01*
X0163231Y0524097D01*
X0163467Y0524057D01*
X0163743Y0524018D01*
X0164294Y0524097D01*
X0164727Y0524215D01*
X0165081Y0524412D01*
X0165357Y0524648D01*
X0165554Y0525002D01*
X0165672Y0525396D01*
X0165751Y0525829D01*
X0165751Y0529766D01*
X0164215Y0529766D01*
X0164215Y0526302D01*
X0164176Y0526026D01*
X0164097Y0525790D01*
X0164018Y0525593D01*
X0163861Y0525435D01*
X0163703Y0525317D01*
X0163507Y0525278D01*
X0163231Y0525239D01*
X0162955Y0525278D01*
X0162719Y0525317D01*
X0162522Y0525435D01*
X0162325Y0525632D01*
X0162207Y0525829D01*
X0162129Y0526105D01*
X0162089Y0526459D01*
X0162050Y0526853D01*
X0162050Y0529766D01*
X0162050Y0529463D02*
X0160554Y0529463D01*
X0160554Y0529165D02*
X0162050Y0529165D01*
X0162050Y0528866D02*
X0160554Y0528866D01*
X0160554Y0528568D02*
X0162050Y0528568D01*
X0162050Y0528269D02*
X0160554Y0528269D01*
X0160554Y0527971D02*
X0162050Y0527971D01*
X0162050Y0527672D02*
X0160554Y0527672D01*
X0160554Y0527374D02*
X0162050Y0527374D01*
X0162050Y0527075D02*
X0160554Y0527075D01*
X0160554Y0526777D02*
X0162057Y0526777D01*
X0162087Y0526478D02*
X0160554Y0526478D01*
X0160554Y0526180D02*
X0162120Y0526180D01*
X0162192Y0525881D02*
X0160554Y0525881D01*
X0160554Y0525583D02*
X0162375Y0525583D01*
X0162918Y0525284D02*
X0160554Y0525284D01*
X0160554Y0524986D02*
X0165545Y0524986D01*
X0165638Y0525284D02*
X0163538Y0525284D01*
X0164008Y0525583D02*
X0165706Y0525583D01*
X0165751Y0525881D02*
X0164128Y0525881D01*
X0164198Y0526180D02*
X0165751Y0526180D01*
X0165751Y0526478D02*
X0164215Y0526478D01*
X0164215Y0526777D02*
X0165751Y0526777D01*
X0165751Y0527075D02*
X0164215Y0527075D01*
X0164215Y0527374D02*
X0165751Y0527374D01*
X0165751Y0527672D02*
X0164215Y0527672D01*
X0164215Y0527971D02*
X0165751Y0527971D01*
X0165751Y0528269D02*
X0164215Y0528269D01*
X0164215Y0528568D02*
X0165751Y0528568D01*
X0165751Y0528866D02*
X0164215Y0528866D01*
X0164215Y0529165D02*
X0165751Y0529165D01*
X0165751Y0529463D02*
X0164215Y0529463D01*
X0164215Y0529762D02*
X0165751Y0529762D01*
X0166184Y0529762D02*
X0169258Y0529762D01*
X0169255Y0529766D02*
X0168782Y0529766D01*
X0168782Y0530199D01*
X0168743Y0530554D01*
X0168664Y0530869D01*
X0168507Y0531144D01*
X0168310Y0531380D01*
X0168073Y0531617D01*
X0167759Y0531735D01*
X0167365Y0531853D01*
X0166932Y0531892D01*
X0166617Y0531892D01*
X0166499Y0531853D01*
X0166105Y0531853D01*
X0166105Y0530711D01*
X0166814Y0530711D01*
X0167050Y0530632D01*
X0167129Y0530593D01*
X0167168Y0530475D01*
X0167207Y0530396D01*
X0167247Y0530239D01*
X0167247Y0529766D01*
X0166184Y0529766D01*
X0166184Y0528743D01*
X0167247Y0528743D01*
X0167247Y0524176D01*
X0168782Y0524176D01*
X0168782Y0528743D01*
X0170278Y0528743D01*
X0170042Y0528979D01*
X0169885Y0529097D01*
X0169766Y0529254D01*
X0169530Y0529491D01*
X0169373Y0529609D01*
X0169255Y0529766D01*
X0169557Y0529463D02*
X0166184Y0529463D01*
X0166184Y0529165D02*
X0169833Y0529165D01*
X0170154Y0528866D02*
X0166184Y0528866D01*
X0167247Y0528568D02*
X0168782Y0528568D01*
X0168782Y0528269D02*
X0167247Y0528269D01*
X0167247Y0527971D02*
X0168782Y0527971D01*
X0168782Y0527672D02*
X0167247Y0527672D01*
X0167247Y0527374D02*
X0168782Y0527374D01*
X0168782Y0527075D02*
X0167247Y0527075D01*
X0167247Y0526777D02*
X0168782Y0526777D01*
X0168782Y0526478D02*
X0167247Y0526478D01*
X0167247Y0526180D02*
X0168782Y0526180D01*
X0168782Y0525881D02*
X0167247Y0525881D01*
X0167247Y0525583D02*
X0168782Y0525583D01*
X0168782Y0525284D02*
X0167247Y0525284D01*
X0167247Y0524986D02*
X0168782Y0524986D01*
X0168782Y0524687D02*
X0167247Y0524687D01*
X0167247Y0524389D02*
X0168782Y0524389D01*
X0169727Y0524176D02*
X0171577Y0524176D01*
X0173113Y0526695D01*
X0173703Y0526105D01*
X0173703Y0524176D01*
X0175199Y0524176D01*
X0175199Y0531026D01*
X0173703Y0531892D01*
X0173703Y0527758D01*
X0171774Y0529766D01*
X0169963Y0529766D01*
X0172050Y0527719D01*
X0169727Y0524176D01*
X0169867Y0524389D02*
X0171707Y0524389D01*
X0171889Y0524687D02*
X0170062Y0524687D01*
X0170258Y0524986D02*
X0172071Y0524986D01*
X0172253Y0525284D02*
X0170454Y0525284D01*
X0170650Y0525583D02*
X0172435Y0525583D01*
X0172617Y0525881D02*
X0170845Y0525881D01*
X0171041Y0526180D02*
X0172799Y0526180D01*
X0172981Y0526478D02*
X0171237Y0526478D01*
X0171432Y0526777D02*
X0175199Y0526777D01*
X0175199Y0527075D02*
X0171628Y0527075D01*
X0171824Y0527374D02*
X0175199Y0527374D01*
X0175199Y0527672D02*
X0172019Y0527672D01*
X0171793Y0527971D02*
X0173499Y0527971D01*
X0173703Y0527971D02*
X0175199Y0527971D01*
X0175199Y0528269D02*
X0173703Y0528269D01*
X0173703Y0528568D02*
X0175199Y0528568D01*
X0175199Y0528866D02*
X0173703Y0528866D01*
X0173703Y0529165D02*
X0175199Y0529165D01*
X0175199Y0529463D02*
X0173703Y0529463D01*
X0173703Y0529762D02*
X0175199Y0529762D01*
X0175199Y0530060D02*
X0173703Y0530060D01*
X0173703Y0530359D02*
X0175199Y0530359D01*
X0175199Y0530657D02*
X0173703Y0530657D01*
X0173703Y0530956D02*
X0175199Y0530956D01*
X0174805Y0531254D02*
X0173703Y0531254D01*
X0173703Y0531553D02*
X0174289Y0531553D01*
X0173774Y0531852D02*
X0173703Y0531852D01*
X0171778Y0529762D02*
X0169968Y0529762D01*
X0170272Y0529463D02*
X0172065Y0529463D01*
X0172352Y0529165D02*
X0170576Y0529165D01*
X0170880Y0528866D02*
X0172639Y0528866D01*
X0172926Y0528568D02*
X0171185Y0528568D01*
X0171489Y0528269D02*
X0173212Y0528269D01*
X0173330Y0526478D02*
X0175199Y0526478D01*
X0175199Y0526180D02*
X0173628Y0526180D01*
X0173703Y0525881D02*
X0175199Y0525881D01*
X0175199Y0525583D02*
X0173703Y0525583D01*
X0173703Y0525284D02*
X0175199Y0525284D01*
X0175199Y0524986D02*
X0173703Y0524986D01*
X0173703Y0524687D02*
X0175199Y0524687D01*
X0175199Y0524389D02*
X0173703Y0524389D01*
X0177877Y0524389D02*
X0179412Y0524389D01*
X0179412Y0524176D02*
X0179412Y0529491D01*
X0179018Y0529569D01*
X0178861Y0529609D01*
X0178664Y0529609D01*
X0178467Y0529648D01*
X0178310Y0529687D01*
X0178113Y0529727D01*
X0177955Y0529766D01*
X0177955Y0528703D01*
X0177916Y0528703D01*
X0177798Y0528979D01*
X0177640Y0529215D01*
X0177444Y0529412D01*
X0176971Y0529727D01*
X0176420Y0529884D01*
X0175869Y0529884D01*
X0175829Y0529845D01*
X0175829Y0528428D01*
X0175869Y0528428D01*
X0175948Y0528467D01*
X0176381Y0528467D01*
X0176774Y0528428D01*
X0177089Y0528349D01*
X0177325Y0528191D01*
X0177562Y0527955D01*
X0177798Y0527404D01*
X0177877Y0527050D01*
X0177877Y0524176D01*
X0179412Y0524176D01*
X0179412Y0524687D02*
X0177877Y0524687D01*
X0177877Y0524986D02*
X0179412Y0524986D01*
X0179412Y0525284D02*
X0177877Y0525284D01*
X0177877Y0525583D02*
X0179412Y0525583D01*
X0179412Y0525881D02*
X0177877Y0525881D01*
X0177877Y0526180D02*
X0179412Y0526180D01*
X0179412Y0526478D02*
X0177877Y0526478D01*
X0177877Y0526777D02*
X0179412Y0526777D01*
X0179412Y0527075D02*
X0177871Y0527075D01*
X0177805Y0527374D02*
X0179412Y0527374D01*
X0179412Y0527672D02*
X0177683Y0527672D01*
X0177546Y0527971D02*
X0179412Y0527971D01*
X0179412Y0528269D02*
X0177208Y0528269D01*
X0177846Y0528866D02*
X0175829Y0528866D01*
X0175829Y0528568D02*
X0179412Y0528568D01*
X0179412Y0528866D02*
X0177955Y0528866D01*
X0177955Y0529165D02*
X0179412Y0529165D01*
X0179412Y0529463D02*
X0177955Y0529463D01*
X0177955Y0529762D02*
X0177972Y0529762D01*
X0177674Y0529165D02*
X0175829Y0529165D01*
X0175829Y0529463D02*
X0177366Y0529463D01*
X0176848Y0529762D02*
X0175829Y0529762D01*
X0180318Y0528782D02*
X0180239Y0528309D01*
X0180239Y0524766D01*
X0180199Y0524687D01*
X0181735Y0524687D01*
X0181735Y0524648D02*
X0181735Y0524727D01*
X0181814Y0524648D01*
X0181892Y0524530D01*
X0182010Y0524451D01*
X0182129Y0524412D01*
X0182247Y0524333D01*
X0182325Y0524294D01*
X0182444Y0524215D01*
X0182562Y0524176D01*
X0182719Y0524136D01*
X0182837Y0524097D01*
X0182955Y0524097D01*
X0183073Y0524057D01*
X0183349Y0524057D01*
X0183467Y0524018D01*
X0183782Y0524018D01*
X0183979Y0524057D01*
X0184176Y0524057D01*
X0184333Y0524136D01*
X0184491Y0524176D01*
X0184806Y0524333D01*
X0184924Y0524412D01*
X0185160Y0524648D01*
X0185278Y0524806D01*
X0185357Y0524963D01*
X0185436Y0525278D01*
X0185475Y0525475D01*
X0185475Y0525672D01*
X0185436Y0526105D01*
X0185318Y0526459D01*
X0185121Y0526735D01*
X0184885Y0526971D01*
X0184609Y0527128D01*
X0184294Y0527246D01*
X0183940Y0527325D01*
X0183625Y0527365D01*
X0183310Y0526538D01*
X0183703Y0526341D01*
X0183861Y0526183D01*
X0183940Y0526026D01*
X0183940Y0525869D01*
X0183979Y0525750D01*
X0183940Y0525672D01*
X0183940Y0525593D01*
X0183900Y0525475D01*
X0183900Y0525435D01*
X0183861Y0525357D01*
X0183743Y0525239D01*
X0183664Y0525199D01*
X0183625Y0525160D01*
X0183546Y0525120D01*
X0183467Y0525120D01*
X0183388Y0525081D01*
X0182798Y0525081D01*
X0182325Y0525199D01*
X0182207Y0525278D01*
X0182010Y0525475D01*
X0181971Y0525593D01*
X0181892Y0525672D01*
X0181853Y0525790D01*
X0181853Y0525908D01*
X0181814Y0525987D01*
X0181814Y0526105D01*
X0181774Y0526183D01*
X0181774Y0526931D01*
X0181853Y0526892D01*
X0181892Y0526853D01*
X0181971Y0526813D01*
X0182010Y0526774D01*
X0182089Y0526774D01*
X0182247Y0526695D01*
X0182444Y0526695D01*
X0182601Y0527522D01*
X0182325Y0527561D01*
X0182089Y0527640D01*
X0181932Y0527758D01*
X0181814Y0527916D01*
X0181774Y0528113D01*
X0181774Y0528231D01*
X0181814Y0528349D01*
X0181814Y0528428D01*
X0181892Y0528585D01*
X0182010Y0528703D01*
X0182247Y0528821D01*
X0182325Y0528821D01*
X0182404Y0528861D01*
X0182680Y0528861D01*
X0182759Y0528900D01*
X0182877Y0528861D01*
X0183073Y0528861D01*
X0183192Y0528821D01*
X0183270Y0528821D01*
X0183428Y0528743D01*
X0183664Y0528506D01*
X0183743Y0528349D01*
X0183743Y0528231D01*
X0183782Y0528152D01*
X0183782Y0528034D01*
X0185318Y0528034D01*
X0185278Y0528309D01*
X0185239Y0528506D01*
X0185160Y0528743D01*
X0185042Y0528939D01*
X0184924Y0529097D01*
X0184766Y0529254D01*
X0184451Y0529491D01*
X0184255Y0529609D01*
X0183861Y0529766D01*
X0183152Y0529884D01*
X0182286Y0529884D01*
X0182050Y0529845D01*
X0181853Y0529845D01*
X0181656Y0529806D01*
X0181420Y0529727D01*
X0181262Y0529687D01*
X0181066Y0529609D01*
X0180908Y0529530D01*
X0180751Y0529412D01*
X0180475Y0529136D01*
X0180396Y0528939D01*
X0180318Y0528782D01*
X0180360Y0528866D02*
X0182691Y0528866D01*
X0182859Y0528866D02*
X0185086Y0528866D01*
X0185218Y0528568D02*
X0183602Y0528568D01*
X0183743Y0528269D02*
X0185284Y0528269D01*
X0186066Y0528034D02*
X0185948Y0527483D01*
X0185948Y0526931D01*
X0187444Y0526971D01*
X0187522Y0527601D01*
X0187640Y0527916D01*
X0187759Y0528191D01*
X0187955Y0528428D01*
X0188192Y0528585D01*
X0188467Y0528703D01*
X0188782Y0528743D01*
X0189136Y0528703D01*
X0189412Y0528585D01*
X0189648Y0528428D01*
X0189845Y0528191D01*
X0189963Y0527916D01*
X0190121Y0527286D01*
X0190121Y0526617D01*
X0189963Y0525987D01*
X0189648Y0525514D01*
X0189412Y0525357D01*
X0189136Y0525239D01*
X0188782Y0525199D01*
X0188428Y0525239D01*
X0188152Y0525357D01*
X0187916Y0525514D01*
X0187601Y0525987D01*
X0186262Y0525357D01*
X0186538Y0524924D01*
X0186892Y0524569D01*
X0187286Y0524294D01*
X0187798Y0524097D01*
X0188388Y0524057D01*
X0188625Y0524057D01*
X0188861Y0524097D01*
X0189333Y0524254D01*
X0189530Y0524372D01*
X0189727Y0524530D01*
X0189885Y0524687D01*
X0190042Y0524884D01*
X0190042Y0520869D01*
X0190239Y0521026D01*
X0190436Y0521223D01*
X0190829Y0521538D01*
X0191184Y0521892D01*
X0191381Y0522050D01*
X0191577Y0522246D01*
X0191577Y0529491D01*
X0191381Y0529530D01*
X0191223Y0529569D01*
X0191026Y0529609D01*
X0190869Y0529609D01*
X0190475Y0529687D01*
X0190318Y0529727D01*
X0190121Y0529766D01*
X0190121Y0529057D01*
X0189806Y0529451D01*
X0189412Y0529687D01*
X0189176Y0529806D01*
X0188467Y0529924D01*
X0187837Y0529845D01*
X0187325Y0529648D01*
X0186892Y0529372D01*
X0186538Y0529018D01*
X0186262Y0528546D01*
X0186066Y0528034D01*
X0186052Y0527971D02*
X0187664Y0527971D01*
X0187549Y0527672D02*
X0185988Y0527672D01*
X0185948Y0527374D02*
X0187494Y0527374D01*
X0187457Y0527075D02*
X0185948Y0527075D01*
X0185948Y0526931D02*
X0185987Y0526380D01*
X0186066Y0525829D01*
X0186262Y0525357D01*
X0187601Y0525987D01*
X0187522Y0526302D01*
X0187483Y0526617D01*
X0187444Y0526971D01*
X0185948Y0526931D01*
X0185959Y0526777D02*
X0187465Y0526777D01*
X0187500Y0526478D02*
X0185980Y0526478D01*
X0186016Y0526180D02*
X0187553Y0526180D01*
X0187671Y0525881D02*
X0187377Y0525881D01*
X0186058Y0525881D01*
X0186168Y0525583D02*
X0186743Y0525583D01*
X0187870Y0525583D01*
X0188321Y0525284D02*
X0186309Y0525284D01*
X0186499Y0524986D02*
X0191577Y0524986D01*
X0191577Y0525284D02*
X0189243Y0525284D01*
X0189694Y0525583D02*
X0191577Y0525583D01*
X0191577Y0525881D02*
X0189893Y0525881D01*
X0190012Y0526180D02*
X0191577Y0526180D01*
X0191577Y0526478D02*
X0190086Y0526478D01*
X0190121Y0526777D02*
X0191577Y0526777D01*
X0191577Y0527075D02*
X0190121Y0527075D01*
X0190099Y0527374D02*
X0191577Y0527374D01*
X0191577Y0527672D02*
X0190024Y0527672D01*
X0189940Y0527971D02*
X0191577Y0527971D01*
X0191577Y0528269D02*
X0189780Y0528269D01*
X0189438Y0528568D02*
X0191577Y0528568D01*
X0191577Y0528866D02*
X0186450Y0528866D01*
X0186275Y0528568D02*
X0188166Y0528568D01*
X0187824Y0528269D02*
X0186156Y0528269D01*
X0186685Y0529165D02*
X0190035Y0529165D01*
X0190121Y0529165D02*
X0191577Y0529165D01*
X0191577Y0529463D02*
X0190121Y0529463D01*
X0190121Y0529762D02*
X0190142Y0529762D01*
X0189785Y0529463D02*
X0187035Y0529463D01*
X0187622Y0529762D02*
X0189263Y0529762D01*
X0192444Y0528585D02*
X0192365Y0528152D01*
X0193822Y0528152D01*
X0193861Y0528349D01*
X0193900Y0528506D01*
X0194136Y0528743D01*
X0194294Y0528821D01*
X0194451Y0528861D01*
X0194648Y0528900D01*
X0195003Y0528900D01*
X0195121Y0528861D01*
X0195278Y0528861D01*
X0195396Y0528821D01*
X0195633Y0528664D01*
X0195672Y0528546D01*
X0195711Y0528388D01*
X0195672Y0528191D01*
X0195554Y0528034D01*
X0195396Y0527916D01*
X0195160Y0527837D01*
X0194609Y0527680D01*
X0194294Y0527640D01*
X0193979Y0527561D01*
X0193625Y0527483D01*
X0193310Y0527365D01*
X0193034Y0527246D01*
X0192759Y0527089D01*
X0192522Y0526892D01*
X0192365Y0526656D01*
X0192247Y0526341D01*
X0192207Y0525987D01*
X0192247Y0525475D01*
X0192444Y0525081D01*
X0192680Y0524727D01*
X0192995Y0524491D01*
X0193388Y0524294D01*
X0193822Y0524136D01*
X0194294Y0524057D01*
X0195239Y0524057D01*
X0195711Y0524136D01*
X0196144Y0524294D01*
X0196538Y0524491D01*
X0196853Y0524727D01*
X0197129Y0525081D01*
X0197286Y0525514D01*
X0197365Y0525987D01*
X0195908Y0525987D01*
X0195869Y0525750D01*
X0195790Y0525593D01*
X0195711Y0525396D01*
X0195554Y0525278D01*
X0195160Y0525120D01*
X0194963Y0525081D01*
X0194727Y0525042D01*
X0194570Y0525081D01*
X0194412Y0525081D01*
X0194215Y0525160D01*
X0194058Y0525199D01*
X0193822Y0525435D01*
X0193743Y0525593D01*
X0193743Y0525790D01*
X0193782Y0525947D01*
X0193861Y0526065D01*
X0193979Y0526183D01*
X0194176Y0526302D01*
X0194727Y0526459D01*
X0195081Y0526538D01*
X0195475Y0526617D01*
X0195790Y0526735D01*
X0196105Y0526813D01*
X0196420Y0526931D01*
X0196696Y0527089D01*
X0197089Y0527483D01*
X0197207Y0527798D01*
X0197247Y0528113D01*
X0197168Y0528624D01*
X0197010Y0529018D01*
X0196774Y0529294D01*
X0196459Y0529530D01*
X0196105Y0529727D01*
X0195711Y0529845D01*
X0195278Y0529884D01*
X0194806Y0529924D01*
X0193940Y0529845D01*
X0193546Y0529727D01*
X0193192Y0529530D01*
X0192877Y0529294D01*
X0192601Y0528979D01*
X0192444Y0528585D01*
X0192440Y0528568D02*
X0193962Y0528568D01*
X0193845Y0528269D02*
X0192386Y0528269D01*
X0192556Y0528866D02*
X0194480Y0528866D01*
X0195103Y0528866D02*
X0197071Y0528866D01*
X0197177Y0528568D02*
X0195665Y0528568D01*
X0195688Y0528269D02*
X0197223Y0528269D01*
X0197229Y0527971D02*
X0195470Y0527971D01*
X0194552Y0527672D02*
X0197160Y0527672D01*
X0196980Y0527374D02*
X0193334Y0527374D01*
X0192742Y0527075D02*
X0196672Y0527075D01*
X0195959Y0526777D02*
X0192445Y0526777D01*
X0192298Y0526478D02*
X0194814Y0526478D01*
X0193975Y0526180D02*
X0192229Y0526180D01*
X0192215Y0525881D02*
X0193766Y0525881D01*
X0193748Y0525583D02*
X0192238Y0525583D01*
X0192342Y0525284D02*
X0193973Y0525284D01*
X0193198Y0524389D02*
X0196334Y0524389D01*
X0196800Y0524687D02*
X0192732Y0524687D01*
X0192507Y0524986D02*
X0197054Y0524986D01*
X0197202Y0525284D02*
X0195562Y0525284D01*
X0195786Y0525583D02*
X0197298Y0525583D01*
X0197347Y0525881D02*
X0195891Y0525881D01*
X0195435Y0524090D02*
X0194098Y0524090D01*
X0191577Y0524090D02*
X0190042Y0524090D01*
X0190042Y0523792D02*
X0191577Y0523792D01*
X0191577Y0523493D02*
X0190042Y0523493D01*
X0190042Y0523195D02*
X0191577Y0523195D01*
X0191577Y0522896D02*
X0190042Y0522896D01*
X0190042Y0522598D02*
X0191577Y0522598D01*
X0191577Y0522299D02*
X0190042Y0522299D01*
X0190042Y0522001D02*
X0191319Y0522001D01*
X0190994Y0521702D02*
X0190042Y0521702D01*
X0190042Y0521404D02*
X0190662Y0521404D01*
X0190318Y0521105D02*
X0190042Y0521105D01*
X0188821Y0524090D02*
X0187897Y0524090D01*
X0187150Y0524389D02*
X0189551Y0524389D01*
X0189884Y0524687D02*
X0186774Y0524687D01*
X0185363Y0524986D02*
X0180239Y0524986D01*
X0180239Y0525284D02*
X0182201Y0525284D01*
X0181975Y0525583D02*
X0180239Y0525583D01*
X0180239Y0525881D02*
X0181853Y0525881D01*
X0181776Y0526180D02*
X0180239Y0526180D01*
X0180239Y0526478D02*
X0181774Y0526478D01*
X0181774Y0526777D02*
X0180239Y0526777D01*
X0180239Y0527075D02*
X0182516Y0527075D01*
X0183514Y0527075D01*
X0184702Y0527075D01*
X0185079Y0526777D02*
X0183401Y0526777D01*
X0182459Y0526777D01*
X0182008Y0526777D01*
X0182444Y0526695D02*
X0182522Y0526656D01*
X0182680Y0526656D01*
X0182798Y0526617D01*
X0182955Y0526617D01*
X0183073Y0526577D01*
X0183152Y0526577D01*
X0183231Y0526538D01*
X0183310Y0526538D01*
X0183625Y0527365D01*
X0183270Y0527443D01*
X0182916Y0527483D01*
X0182601Y0527522D01*
X0182444Y0526695D01*
X0182573Y0527374D02*
X0180239Y0527374D01*
X0180239Y0527672D02*
X0182046Y0527672D01*
X0181803Y0527971D02*
X0180239Y0527971D01*
X0180239Y0528269D02*
X0181787Y0528269D01*
X0181884Y0528568D02*
X0180282Y0528568D01*
X0180504Y0529165D02*
X0184856Y0529165D01*
X0184488Y0529463D02*
X0180819Y0529463D01*
X0181525Y0529762D02*
X0183871Y0529762D01*
X0183583Y0527374D02*
X0182573Y0527374D01*
X0183429Y0526478D02*
X0185304Y0526478D01*
X0185411Y0526180D02*
X0183863Y0526180D01*
X0183940Y0525881D02*
X0185456Y0525881D01*
X0185475Y0525583D02*
X0183936Y0525583D01*
X0183788Y0525284D02*
X0185437Y0525284D01*
X0185190Y0524687D02*
X0181774Y0524687D01*
X0181735Y0524648D02*
X0181696Y0524609D01*
X0181696Y0524372D01*
X0181656Y0524333D01*
X0181656Y0524294D01*
X0181617Y0524254D01*
X0181617Y0524176D01*
X0180081Y0524176D01*
X0180081Y0524215D01*
X0180121Y0524294D01*
X0180121Y0524333D01*
X0180160Y0524412D01*
X0180160Y0524451D01*
X0180199Y0524530D01*
X0180199Y0524687D01*
X0180149Y0524389D02*
X0181696Y0524389D01*
X0182163Y0524389D02*
X0184889Y0524389D01*
X0184241Y0524090D02*
X0182975Y0524090D01*
X0190042Y0524389D02*
X0191577Y0524389D01*
X0191577Y0524687D02*
X0190042Y0524687D01*
X0192764Y0529165D02*
X0196885Y0529165D01*
X0196548Y0529463D02*
X0193103Y0529463D01*
X0193663Y0529762D02*
X0195988Y0529762D01*
X0168782Y0530060D02*
X0167247Y0530060D01*
X0167217Y0530359D02*
X0168764Y0530359D01*
X0168717Y0530657D02*
X0166974Y0530657D01*
X0166105Y0530956D02*
X0168614Y0530956D01*
X0168415Y0531254D02*
X0166105Y0531254D01*
X0166105Y0531553D02*
X0168137Y0531553D01*
X0167369Y0531852D02*
X0166105Y0531852D01*
X0165379Y0524687D02*
X0162217Y0524687D01*
X0162010Y0524687D02*
X0160554Y0524687D01*
X0160554Y0524389D02*
X0162010Y0524389D01*
X0162545Y0524389D02*
X0165040Y0524389D01*
X0164248Y0524090D02*
X0163271Y0524090D01*
X0159727Y0524389D02*
X0158192Y0524389D01*
X0158192Y0524687D02*
X0159727Y0524687D01*
X0159727Y0524986D02*
X0158192Y0524986D01*
X0158192Y0525284D02*
X0159727Y0525284D01*
X0159727Y0525583D02*
X0158192Y0525583D01*
X0158192Y0525881D02*
X0159727Y0525881D01*
X0159727Y0526180D02*
X0158192Y0526180D01*
X0158192Y0526478D02*
X0159727Y0526478D01*
X0159727Y0526777D02*
X0158192Y0526777D01*
X0158192Y0527075D02*
X0159727Y0527075D01*
X0159727Y0527374D02*
X0158192Y0527374D01*
X0158149Y0527672D02*
X0159727Y0527672D01*
X0159727Y0527971D02*
X0158075Y0527971D01*
X0157940Y0528269D02*
X0159727Y0528269D01*
X0157839Y0529463D02*
X0155094Y0529463D01*
X0155655Y0529762D02*
X0157259Y0529762D01*
D111*
G36*
X0292558Y0461807D02*
X0295313Y0457035D01*
X0295178Y0456957D01*
X0292423Y0461729D01*
X0292558Y0461807D01*
G37*
G36*
X0297741Y0464799D02*
X0300496Y0460027D01*
X0300361Y0459949D01*
X0297606Y0464721D01*
X0297741Y0464799D01*
G37*
D112*
G36*
X0297447Y0464993D02*
X0300517Y0459675D01*
X0300381Y0459597D01*
X0297311Y0464915D01*
X0297447Y0464993D01*
G37*
G36*
X0292537Y0462159D02*
X0295607Y0456841D01*
X0295471Y0456763D01*
X0292401Y0462081D01*
X0292537Y0462159D01*
G37*
D113*
G36*
X0292516Y0462510D02*
X0295901Y0456646D01*
X0295766Y0456568D01*
X0292381Y0462432D01*
X0292516Y0462510D01*
G37*
G36*
X0297153Y0465188D02*
X0300538Y0459324D01*
X0300403Y0459246D01*
X0297018Y0465110D01*
X0297153Y0465188D01*
G37*
D114*
G36*
X0296938Y0465245D02*
X0300480Y0459109D01*
X0300344Y0459031D01*
X0296802Y0465167D01*
X0296938Y0465245D01*
G37*
G36*
X0292574Y0462725D02*
X0296116Y0456589D01*
X0295980Y0456511D01*
X0292438Y0462647D01*
X0292574Y0462725D01*
G37*
D115*
G36*
X0292632Y0462941D02*
X0296332Y0456531D01*
X0296196Y0456453D01*
X0292496Y0462863D01*
X0292632Y0462941D01*
G37*
G36*
X0296723Y0465303D02*
X0300423Y0458893D01*
X0300287Y0458815D01*
X0296587Y0465225D01*
X0296723Y0465303D01*
G37*
G36*
X0243869Y0516785D02*
X0250279Y0513085D01*
X0250201Y0512949D01*
X0243791Y0516649D01*
X0243869Y0516785D01*
G37*
G36*
X0240719Y0511329D02*
X0247129Y0507629D01*
X0247051Y0507493D01*
X0240641Y0511193D01*
X0240719Y0511329D01*
G37*
D116*
G36*
X0292689Y0463156D02*
X0296546Y0456474D01*
X0296411Y0456396D01*
X0292554Y0463078D01*
X0292689Y0463156D01*
G37*
G36*
X0296508Y0465360D02*
X0300365Y0458678D01*
X0300230Y0458600D01*
X0296373Y0465282D01*
X0296508Y0465360D01*
G37*
G36*
X0295969Y0326587D02*
X0292112Y0319905D01*
X0291977Y0319983D01*
X0295834Y0326665D01*
X0295969Y0326587D01*
G37*
G36*
X0301425Y0323437D02*
X0297568Y0316755D01*
X0297433Y0316833D01*
X0301290Y0323515D01*
X0301425Y0323437D01*
G37*
D117*
G36*
X0250602Y0269902D02*
X0243648Y0265888D01*
X0243570Y0266024D01*
X0250524Y0270038D01*
X0250602Y0269902D01*
G37*
G36*
X0247453Y0275357D02*
X0240499Y0271343D01*
X0240421Y0271479D01*
X0247375Y0275493D01*
X0247453Y0275357D01*
G37*
G36*
X0296293Y0465418D02*
X0300307Y0458464D01*
X0300171Y0458386D01*
X0296157Y0465340D01*
X0296293Y0465418D01*
G37*
G36*
X0055711Y0456055D02*
X0059725Y0463009D01*
X0059861Y0462931D01*
X0055847Y0455977D01*
X0055711Y0456055D01*
G37*
G36*
X0050255Y0459204D02*
X0054269Y0466158D01*
X0054405Y0466080D01*
X0050391Y0459126D01*
X0050255Y0459204D01*
G37*
G36*
X0059646Y0319663D02*
X0055632Y0326617D01*
X0055768Y0326695D01*
X0059782Y0319741D01*
X0059646Y0319663D01*
G37*
G36*
X0054191Y0316513D02*
X0050177Y0323467D01*
X0050313Y0323545D01*
X0054327Y0316591D01*
X0054191Y0316513D01*
G37*
D118*
G36*
X0057204Y0315706D02*
X0054843Y0319796D01*
X0054978Y0319874D01*
X0057339Y0315784D01*
X0057204Y0315706D01*
G37*
G36*
X0051063Y0456192D02*
X0053424Y0460282D01*
X0053559Y0460204D01*
X0051198Y0456114D01*
X0051063Y0456192D01*
G37*
G36*
X0055954Y0462460D02*
X0058315Y0466550D01*
X0058450Y0466472D01*
X0056089Y0462382D01*
X0055954Y0462460D01*
G37*
G36*
X0107673Y0512933D02*
X0111763Y0515294D01*
X0111841Y0515159D01*
X0107751Y0512798D01*
X0107673Y0512933D01*
G37*
G36*
X0295102Y0465276D02*
X0297463Y0461186D01*
X0297328Y0461108D01*
X0294967Y0465198D01*
X0295102Y0465276D01*
G37*
G36*
X0300618Y0326448D02*
X0298257Y0322358D01*
X0298122Y0322436D01*
X0300483Y0326526D01*
X0300618Y0326448D01*
G37*
D119*
G36*
X0300561Y0326663D02*
X0298121Y0322437D01*
X0297985Y0322515D01*
X0300425Y0326741D01*
X0300561Y0326663D01*
G37*
G36*
X0300424Y0326742D02*
X0297984Y0322516D01*
X0297848Y0322594D01*
X0300288Y0326820D01*
X0300424Y0326742D01*
G37*
G36*
X0294750Y0465254D02*
X0297190Y0461028D01*
X0297054Y0460950D01*
X0294614Y0465176D01*
X0294750Y0465254D01*
G37*
G36*
X0294887Y0465333D02*
X0297327Y0461107D01*
X0297191Y0461029D01*
X0294751Y0465255D01*
X0294887Y0465333D01*
G37*
G36*
X0107458Y0512991D02*
X0111684Y0515431D01*
X0111762Y0515295D01*
X0107536Y0512855D01*
X0107458Y0512991D01*
G37*
G36*
X0051256Y0455899D02*
X0053696Y0460125D01*
X0053832Y0460047D01*
X0051392Y0455821D01*
X0051256Y0455899D01*
G37*
G36*
X0051120Y0455978D02*
X0053560Y0460204D01*
X0053696Y0460126D01*
X0051256Y0455900D01*
X0051120Y0455978D01*
G37*
G36*
X0057555Y0315727D02*
X0055115Y0319953D01*
X0055251Y0320031D01*
X0057691Y0315805D01*
X0057555Y0315727D01*
G37*
G36*
X0057418Y0315649D02*
X0054978Y0319875D01*
X0055114Y0319953D01*
X0057554Y0315727D01*
X0057418Y0315649D01*
G37*
G36*
X0106034Y0272906D02*
X0101808Y0275346D01*
X0101886Y0275482D01*
X0106112Y0273042D01*
X0106034Y0272906D01*
G37*
G36*
X0106250Y0272963D02*
X0102024Y0275403D01*
X0102102Y0275539D01*
X0106328Y0273099D01*
X0106250Y0272963D01*
G37*
G36*
X0105956Y0272769D02*
X0101730Y0275209D01*
X0101808Y0275345D01*
X0106034Y0272905D01*
X0105956Y0272769D01*
G37*
D120*
G36*
X0057691Y0315806D02*
X0055645Y0319350D01*
X0055781Y0319428D01*
X0057827Y0315884D01*
X0057691Y0315806D01*
G37*
G36*
X0051393Y0455820D02*
X0053439Y0459364D01*
X0053575Y0459286D01*
X0051529Y0455742D01*
X0051393Y0455820D01*
G37*
G36*
X0246438Y0510210D02*
X0249982Y0508164D01*
X0249904Y0508028D01*
X0246360Y0510074D01*
X0246438Y0510210D01*
G37*
G36*
X0246517Y0510346D02*
X0250061Y0508300D01*
X0249983Y0508164D01*
X0246439Y0510210D01*
X0246517Y0510346D01*
G37*
G36*
X0246596Y0510483D02*
X0250140Y0508437D01*
X0250062Y0508301D01*
X0246518Y0510347D01*
X0246596Y0510483D01*
G37*
G36*
X0294614Y0465175D02*
X0296660Y0461631D01*
X0296524Y0461553D01*
X0294478Y0465097D01*
X0294614Y0465175D01*
G37*
G36*
X0300288Y0326821D02*
X0298242Y0323277D01*
X0298106Y0323355D01*
X0300152Y0326899D01*
X0300288Y0326821D01*
G37*
D121*
G36*
X0295632Y0320962D02*
X0293114Y0316600D01*
X0292978Y0316678D01*
X0295496Y0321040D01*
X0295632Y0320962D01*
G37*
G36*
X0295496Y0321041D02*
X0292978Y0316679D01*
X0292842Y0316757D01*
X0295360Y0321119D01*
X0295496Y0321041D01*
G37*
G36*
X0243996Y0270634D02*
X0239634Y0268116D01*
X0239556Y0268252D01*
X0243918Y0270770D01*
X0243996Y0270634D01*
G37*
G36*
X0244075Y0270498D02*
X0239713Y0267980D01*
X0239635Y0268116D01*
X0243997Y0270634D01*
X0244075Y0270498D01*
G37*
G36*
X0295649Y0460863D02*
X0298167Y0456501D01*
X0298031Y0456423D01*
X0295513Y0460785D01*
X0295649Y0460863D01*
G37*
G36*
X0295786Y0460942D02*
X0298304Y0456580D01*
X0298168Y0456502D01*
X0295650Y0460864D01*
X0295786Y0460942D01*
G37*
G36*
X0105877Y0272633D02*
X0101515Y0275151D01*
X0101593Y0275287D01*
X0105955Y0272769D01*
X0105877Y0272633D01*
G37*
G36*
X0105798Y0272497D02*
X0101436Y0275015D01*
X0101514Y0275151D01*
X0105876Y0272633D01*
X0105798Y0272497D01*
G37*
G36*
X0105425Y0272166D02*
X0101063Y0274684D01*
X0101141Y0274820D01*
X0105503Y0272302D01*
X0105425Y0272166D01*
G37*
G36*
X0055660Y0462267D02*
X0058178Y0466629D01*
X0058314Y0466551D01*
X0055796Y0462189D01*
X0055660Y0462267D01*
G37*
D122*
G36*
X0100838Y0512806D02*
X0108064Y0516978D01*
X0108142Y0516842D01*
X0100916Y0512670D01*
X0100838Y0512806D01*
G37*
G36*
X0103987Y0507350D02*
X0111213Y0511522D01*
X0111291Y0511386D01*
X0104065Y0507214D01*
X0103987Y0507350D01*
G37*
G36*
X0240390Y0511702D02*
X0247616Y0507530D01*
X0247538Y0507394D01*
X0240312Y0511566D01*
X0240390Y0511702D01*
G37*
G36*
X0243382Y0516884D02*
X0250608Y0512712D01*
X0250530Y0512576D01*
X0243304Y0516748D01*
X0243382Y0516884D01*
G37*
G36*
X0111301Y0271320D02*
X0104075Y0275492D01*
X0104153Y0275628D01*
X0111379Y0271456D01*
X0111301Y0271320D01*
G37*
G36*
X0108152Y0265864D02*
X0100926Y0270036D01*
X0101004Y0270172D01*
X0108230Y0266000D01*
X0108152Y0265864D01*
G37*
D123*
G36*
X0059747Y0319175D02*
X0055260Y0326947D01*
X0055395Y0327025D01*
X0059882Y0319253D01*
X0059747Y0319175D01*
G37*
G36*
X0054565Y0316183D02*
X0050078Y0323955D01*
X0050213Y0324033D01*
X0054700Y0316261D01*
X0054565Y0316183D01*
G37*
G36*
X0055338Y0455724D02*
X0059825Y0463496D01*
X0059960Y0463418D01*
X0055473Y0455646D01*
X0055338Y0455724D01*
G37*
G36*
X0050156Y0458716D02*
X0054643Y0466488D01*
X0054778Y0466410D01*
X0050291Y0458638D01*
X0050156Y0458716D01*
G37*
G36*
X0240196Y0511995D02*
X0247968Y0507508D01*
X0247890Y0507373D01*
X0240118Y0511860D01*
X0240196Y0511995D01*
G37*
G36*
X0243030Y0516905D02*
X0250802Y0512418D01*
X0250724Y0512283D01*
X0242952Y0516770D01*
X0243030Y0516905D01*
G37*
G36*
X0247940Y0275457D02*
X0240168Y0270970D01*
X0240090Y0271105D01*
X0247862Y0275592D01*
X0247940Y0275457D01*
G37*
G36*
X0250933Y0270275D02*
X0243161Y0265788D01*
X0243083Y0265923D01*
X0250855Y0270410D01*
X0250933Y0270275D01*
G37*
D124*
G36*
X0251127Y0270568D02*
X0242809Y0265766D01*
X0242731Y0265902D01*
X0251049Y0270704D01*
X0251127Y0270568D01*
G37*
G36*
X0248292Y0275478D02*
X0239974Y0270676D01*
X0239896Y0270812D01*
X0248214Y0275614D01*
X0248292Y0275478D01*
G37*
G36*
X0240001Y0512289D02*
X0248319Y0507487D01*
X0248241Y0507351D01*
X0239923Y0512153D01*
X0240001Y0512289D01*
G37*
G36*
X0242678Y0516926D02*
X0250996Y0512124D01*
X0250918Y0511988D01*
X0242600Y0516790D01*
X0242678Y0516926D01*
G37*
G36*
X0055044Y0455530D02*
X0059846Y0463848D01*
X0059982Y0463770D01*
X0055180Y0455452D01*
X0055044Y0455530D01*
G37*
G36*
X0050134Y0458365D02*
X0054936Y0466683D01*
X0055072Y0466605D01*
X0050270Y0458287D01*
X0050134Y0458365D01*
G37*
G36*
X0059768Y0318823D02*
X0054966Y0327141D01*
X0055102Y0327219D01*
X0059904Y0318901D01*
X0059768Y0318823D01*
G37*
G36*
X0054858Y0315988D02*
X0050056Y0324306D01*
X0050192Y0324384D01*
X0054994Y0316066D01*
X0054858Y0315988D01*
G37*
D125*
G36*
X0108991Y0265744D02*
X0100401Y0270703D01*
X0100479Y0270838D01*
X0109069Y0265879D01*
X0108991Y0265744D01*
G37*
G36*
X0111826Y0270654D02*
X0103236Y0275613D01*
X0103314Y0275748D01*
X0111904Y0270789D01*
X0111826Y0270654D01*
G37*
G36*
X0103148Y0507229D02*
X0111738Y0512188D01*
X0111816Y0512053D01*
X0103226Y0507094D01*
X0103148Y0507229D01*
G37*
G36*
X0100313Y0512139D02*
X0108903Y0517098D01*
X0108981Y0516963D01*
X0100391Y0512004D01*
X0100313Y0512139D01*
G37*
G36*
X0239944Y0512504D02*
X0248534Y0507545D01*
X0248456Y0507410D01*
X0239866Y0512369D01*
X0239944Y0512504D01*
G37*
G36*
X0242464Y0516868D02*
X0251054Y0511909D01*
X0250976Y0511774D01*
X0242386Y0516733D01*
X0242464Y0516868D01*
G37*
G36*
X0296930Y0327304D02*
X0291971Y0318714D01*
X0291836Y0318792D01*
X0296795Y0327382D01*
X0296930Y0327304D01*
G37*
G36*
X0301567Y0324627D02*
X0296608Y0316037D01*
X0296473Y0316115D01*
X0301432Y0324705D01*
X0301567Y0324627D01*
G37*
D126*
G36*
X0301509Y0324843D02*
X0296392Y0315979D01*
X0296257Y0316057D01*
X0301374Y0324921D01*
X0301509Y0324843D01*
G37*
G36*
X0297145Y0327363D02*
X0292028Y0318499D01*
X0291893Y0318577D01*
X0297010Y0327441D01*
X0297145Y0327363D01*
G37*
G36*
X0251321Y0270863D02*
X0242457Y0265746D01*
X0242379Y0265881D01*
X0251243Y0270998D01*
X0251321Y0270863D01*
G37*
G36*
X0248644Y0275500D02*
X0239780Y0270383D01*
X0239702Y0270518D01*
X0248566Y0275635D01*
X0248644Y0275500D01*
G37*
G36*
X0239886Y0512719D02*
X0248750Y0507602D01*
X0248672Y0507467D01*
X0239808Y0512584D01*
X0239886Y0512719D01*
G37*
G36*
X0242248Y0516811D02*
X0251112Y0511694D01*
X0251034Y0511559D01*
X0242170Y0516676D01*
X0242248Y0516811D01*
G37*
G36*
X0054751Y0455336D02*
X0059868Y0464200D01*
X0060003Y0464122D01*
X0054886Y0455258D01*
X0054751Y0455336D01*
G37*
G36*
X0050114Y0458013D02*
X0055231Y0466877D01*
X0055366Y0466799D01*
X0050249Y0457935D01*
X0050114Y0458013D01*
G37*
G36*
X0059789Y0318471D02*
X0054672Y0327335D01*
X0054807Y0327413D01*
X0059924Y0318549D01*
X0059789Y0318471D01*
G37*
G36*
X0055152Y0315794D02*
X0050035Y0324658D01*
X0050170Y0324736D01*
X0055287Y0315872D01*
X0055152Y0315794D01*
G37*
D127*
G36*
X0055367Y0315737D02*
X0050093Y0324873D01*
X0050229Y0324951D01*
X0055503Y0315815D01*
X0055367Y0315737D01*
G37*
G36*
X0059731Y0318257D02*
X0054457Y0327393D01*
X0054593Y0327471D01*
X0059867Y0318335D01*
X0059731Y0318257D01*
G37*
G36*
X0109343Y0265723D02*
X0100207Y0270997D01*
X0100285Y0271133D01*
X0109421Y0265859D01*
X0109343Y0265723D01*
G37*
G36*
X0112020Y0270360D02*
X0102884Y0275634D01*
X0102962Y0275770D01*
X0112098Y0270496D01*
X0112020Y0270360D01*
G37*
G36*
X0248859Y0275441D02*
X0239723Y0270167D01*
X0239645Y0270303D01*
X0248781Y0275577D01*
X0248859Y0275441D01*
G37*
G36*
X0251378Y0271077D02*
X0242242Y0265803D01*
X0242164Y0265939D01*
X0251300Y0271213D01*
X0251378Y0271077D01*
G37*
G36*
X0297360Y0327420D02*
X0292086Y0318284D01*
X0291950Y0318362D01*
X0297224Y0327498D01*
X0297360Y0327420D01*
G37*
G36*
X0301452Y0325058D02*
X0296178Y0315922D01*
X0296042Y0316000D01*
X0301316Y0325136D01*
X0301452Y0325058D01*
G37*
G36*
X0239829Y0512935D02*
X0248965Y0507661D01*
X0248887Y0507525D01*
X0239751Y0512799D01*
X0239829Y0512935D01*
G37*
G36*
X0242033Y0516753D02*
X0251169Y0511479D01*
X0251091Y0511343D01*
X0241955Y0516617D01*
X0242033Y0516753D01*
G37*
G36*
X0102796Y0507209D02*
X0111932Y0512483D01*
X0112010Y0512347D01*
X0102874Y0507073D01*
X0102796Y0507209D01*
G37*
G36*
X0100119Y0511846D02*
X0109255Y0517120D01*
X0109333Y0516984D01*
X0100197Y0511710D01*
X0100119Y0511846D01*
G37*
G36*
X0054535Y0455279D02*
X0059809Y0464415D01*
X0059945Y0464337D01*
X0054671Y0455201D01*
X0054535Y0455279D01*
G37*
G36*
X0050171Y0457798D02*
X0055445Y0466934D01*
X0055581Y0466856D01*
X0050307Y0457720D01*
X0050171Y0457798D01*
G37*
D128*
G36*
X0245773Y0514412D02*
X0251227Y0511264D01*
X0251149Y0511128D01*
X0245695Y0514276D01*
X0245773Y0514412D01*
G37*
D129*
G36*
X0247146Y0511437D02*
X0250828Y0509312D01*
X0250750Y0509177D01*
X0247068Y0511302D01*
X0247146Y0511437D01*
G37*
G36*
X0247067Y0511300D02*
X0250749Y0509175D01*
X0250671Y0509040D01*
X0246989Y0511165D01*
X0247067Y0511300D01*
G37*
G36*
X0246989Y0511164D02*
X0250671Y0509039D01*
X0250593Y0508904D01*
X0246911Y0511029D01*
X0246989Y0511164D01*
G37*
G36*
X0246910Y0511028D02*
X0250592Y0508903D01*
X0250514Y0508768D01*
X0246832Y0510893D01*
X0246910Y0511028D01*
G37*
G36*
X0246831Y0510891D02*
X0250513Y0508766D01*
X0250435Y0508631D01*
X0246753Y0510756D01*
X0246831Y0510891D01*
G37*
G36*
X0246752Y0510755D02*
X0250434Y0508630D01*
X0250356Y0508495D01*
X0246674Y0510620D01*
X0246752Y0510755D01*
G37*
G36*
X0246674Y0510619D02*
X0250356Y0508494D01*
X0250278Y0508359D01*
X0246596Y0510484D01*
X0246674Y0510619D01*
G37*
G36*
X0108239Y0512897D02*
X0111921Y0515022D01*
X0111999Y0514887D01*
X0108317Y0512762D01*
X0108239Y0512897D01*
G37*
G36*
X0056463Y0462711D02*
X0058588Y0466393D01*
X0058723Y0466315D01*
X0056598Y0462633D01*
X0056463Y0462711D01*
G37*
D130*
G36*
X0100507Y0512433D02*
X0108551Y0517077D01*
X0108629Y0516941D01*
X0100585Y0512297D01*
X0100507Y0512433D01*
G37*
G36*
X0103499Y0507251D02*
X0111543Y0511895D01*
X0111621Y0511759D01*
X0103577Y0507115D01*
X0103499Y0507251D01*
G37*
G36*
X0111631Y0270947D02*
X0103587Y0275591D01*
X0103665Y0275727D01*
X0111709Y0271083D01*
X0111631Y0270947D01*
G37*
G36*
X0108639Y0265765D02*
X0100595Y0270409D01*
X0100673Y0270545D01*
X0108717Y0265901D01*
X0108639Y0265765D01*
G37*
G36*
X0296636Y0327110D02*
X0291992Y0319066D01*
X0291856Y0319144D01*
X0296500Y0327188D01*
X0296636Y0327110D01*
G37*
G36*
X0301546Y0324276D02*
X0296902Y0316232D01*
X0296766Y0316310D01*
X0301410Y0324354D01*
X0301546Y0324276D01*
G37*
D131*
G36*
X0301394Y0325273D02*
X0295962Y0315863D01*
X0295826Y0315941D01*
X0301258Y0325351D01*
X0301394Y0325273D01*
G37*
G36*
X0297576Y0327478D02*
X0292144Y0318068D01*
X0292008Y0318146D01*
X0297440Y0327556D01*
X0297576Y0327478D01*
G37*
G36*
X0251437Y0271292D02*
X0242027Y0265860D01*
X0241949Y0265996D01*
X0251359Y0271428D01*
X0251437Y0271292D01*
G37*
G36*
X0249074Y0275384D02*
X0239664Y0269952D01*
X0239586Y0270088D01*
X0248996Y0275520D01*
X0249074Y0275384D01*
G37*
G36*
X0112078Y0270144D02*
X0102668Y0275576D01*
X0102746Y0275712D01*
X0112156Y0270280D01*
X0112078Y0270144D01*
G37*
G36*
X0109558Y0265780D02*
X0100148Y0271212D01*
X0100226Y0271348D01*
X0109636Y0265916D01*
X0109558Y0265780D01*
G37*
G36*
X0059674Y0318041D02*
X0054242Y0327451D01*
X0054378Y0327529D01*
X0059810Y0318119D01*
X0059674Y0318041D01*
G37*
G36*
X0055582Y0315679D02*
X0050150Y0325089D01*
X0050286Y0325167D01*
X0055718Y0315757D01*
X0055582Y0315679D01*
G37*
G36*
X0054320Y0455220D02*
X0059752Y0464630D01*
X0059888Y0464552D01*
X0054456Y0455142D01*
X0054320Y0455220D01*
G37*
G36*
X0050228Y0457582D02*
X0055660Y0466992D01*
X0055796Y0466914D01*
X0050364Y0457504D01*
X0050228Y0457582D01*
G37*
G36*
X0100060Y0511630D02*
X0109470Y0517062D01*
X0109548Y0516926D01*
X0100138Y0511494D01*
X0100060Y0511630D01*
G37*
G36*
X0102580Y0507266D02*
X0111990Y0512698D01*
X0112068Y0512562D01*
X0102658Y0507130D01*
X0102580Y0507266D01*
G37*
D132*
G36*
X0102365Y0507323D02*
X0112047Y0512912D01*
X0112125Y0512777D01*
X0102443Y0507188D01*
X0102365Y0507323D01*
G37*
G36*
X0100003Y0511415D02*
X0109685Y0517004D01*
X0109763Y0516869D01*
X0100081Y0511280D01*
X0100003Y0511415D01*
G37*
G36*
X0054105Y0455163D02*
X0059694Y0464845D01*
X0059829Y0464767D01*
X0054240Y0455085D01*
X0054105Y0455163D01*
G37*
G36*
X0050287Y0457368D02*
X0055876Y0467050D01*
X0056011Y0466972D01*
X0050422Y0457290D01*
X0050287Y0457368D01*
G37*
G36*
X0059616Y0317826D02*
X0054027Y0327508D01*
X0054162Y0327586D01*
X0059751Y0317904D01*
X0059616Y0317826D01*
G37*
G36*
X0055797Y0315621D02*
X0050208Y0325303D01*
X0050343Y0325381D01*
X0055932Y0315699D01*
X0055797Y0315621D01*
G37*
G36*
X0109773Y0265838D02*
X0100091Y0271427D01*
X0100169Y0271562D01*
X0109851Y0265973D01*
X0109773Y0265838D01*
G37*
G36*
X0112135Y0269930D02*
X0102453Y0275519D01*
X0102531Y0275654D01*
X0112213Y0270065D01*
X0112135Y0269930D01*
G37*
G36*
X0249289Y0275326D02*
X0239607Y0269737D01*
X0239529Y0269872D01*
X0249211Y0275461D01*
X0249289Y0275326D01*
G37*
G36*
X0251494Y0271508D02*
X0241812Y0265919D01*
X0241734Y0266054D01*
X0251416Y0271643D01*
X0251494Y0271508D01*
G37*
G36*
X0301336Y0325488D02*
X0295747Y0315806D01*
X0295612Y0315884D01*
X0301201Y0325566D01*
X0301336Y0325488D01*
G37*
D133*
G36*
X0112193Y0269714D02*
X0102239Y0275461D01*
X0102317Y0275596D01*
X0112271Y0269849D01*
X0112193Y0269714D01*
G37*
G36*
X0109988Y0265896D02*
X0100034Y0271643D01*
X0100112Y0271778D01*
X0110066Y0266031D01*
X0109988Y0265896D01*
G37*
G36*
X0102151Y0507381D02*
X0112105Y0513128D01*
X0112183Y0512993D01*
X0102229Y0507246D01*
X0102151Y0507381D01*
G37*
G36*
X0099946Y0511199D02*
X0109900Y0516946D01*
X0109978Y0516811D01*
X0100024Y0511064D01*
X0099946Y0511199D01*
G37*
D134*
G36*
X0108025Y0512955D02*
X0111841Y0515158D01*
X0111919Y0515023D01*
X0108103Y0512820D01*
X0108025Y0512955D01*
G37*
G36*
X0054064Y0323350D02*
X0051861Y0327166D01*
X0051996Y0327244D01*
X0054199Y0323428D01*
X0054064Y0323350D01*
G37*
G36*
X0053927Y0323271D02*
X0051724Y0327087D01*
X0051859Y0327165D01*
X0054062Y0323349D01*
X0053927Y0323271D01*
G37*
G36*
X0053791Y0323192D02*
X0051588Y0327008D01*
X0051723Y0327086D01*
X0053926Y0323270D01*
X0053791Y0323192D01*
G37*
G36*
X0053654Y0323113D02*
X0051451Y0326929D01*
X0051586Y0327007D01*
X0053789Y0323191D01*
X0053654Y0323113D01*
G37*
D135*
G36*
X0056013Y0315565D02*
X0052550Y0321563D01*
X0052685Y0321641D01*
X0056148Y0315643D01*
X0056013Y0315565D01*
G37*
G36*
X0050344Y0457153D02*
X0053807Y0463151D01*
X0053942Y0463073D01*
X0050479Y0457075D01*
X0050344Y0457153D01*
G37*
G36*
X0247596Y0269439D02*
X0241598Y0265976D01*
X0241520Y0266111D01*
X0247518Y0269574D01*
X0247596Y0269439D01*
G37*
D136*
X0039133Y0391342D03*
X0032834Y0391342D03*
D137*
X0032991Y0391342D03*
X0038975Y0391342D03*
D138*
X0038818Y0391342D03*
X0033149Y0391342D03*
D139*
X0033306Y0391342D03*
X0038660Y0391342D03*
D140*
X0038503Y0391342D03*
X0033464Y0391342D03*
D141*
X0033621Y0391342D03*
X0038346Y0391342D03*
D142*
X0038188Y0391342D03*
X0033779Y0391342D03*
D143*
X0033936Y0387326D03*
X0033936Y0395358D03*
X0035353Y0395988D03*
D144*
X0033936Y0391342D03*
D145*
X0034094Y0395673D03*
X0035196Y0396145D03*
X0036613Y0396145D03*
X0038031Y0395515D03*
X0038031Y0387169D03*
X0037873Y0387011D03*
D146*
X0034094Y0391263D03*
D147*
X0034094Y0387090D03*
D148*
X0034251Y0386933D03*
X0034409Y0386775D03*
X0034566Y0386775D03*
X0034723Y0386618D03*
X0034881Y0386618D03*
X0035038Y0386618D03*
X0035196Y0386460D03*
X0035353Y0386460D03*
X0035511Y0386460D03*
X0035668Y0386460D03*
X0035826Y0386460D03*
X0035983Y0386460D03*
X0036141Y0386460D03*
X0036298Y0386460D03*
X0036456Y0386460D03*
X0036613Y0386460D03*
X0036771Y0386460D03*
X0037086Y0386618D03*
X0037243Y0386618D03*
X0037558Y0386775D03*
X0037716Y0386933D03*
X0037873Y0395752D03*
X0036771Y0396224D03*
X0035038Y0396067D03*
X0034881Y0396067D03*
X0034723Y0396067D03*
X0034409Y0395909D03*
X0034251Y0395752D03*
D149*
X0034251Y0391342D03*
D150*
X0034409Y0391342D03*
X0035196Y0393074D03*
X0035353Y0393232D03*
X0036771Y0393074D03*
X0036928Y0393074D03*
X0036771Y0389610D03*
X0036613Y0389610D03*
X0036456Y0389610D03*
X0036298Y0389610D03*
X0036141Y0389610D03*
X0035983Y0389610D03*
X0035826Y0389610D03*
X0035668Y0389610D03*
X0035511Y0389610D03*
X0035353Y0389610D03*
D151*
X0036928Y0386539D03*
X0037401Y0386696D03*
X0037716Y0395830D03*
X0037558Y0395988D03*
X0037243Y0396145D03*
X0037086Y0396145D03*
X0036928Y0396145D03*
X0034566Y0395988D03*
D152*
X0034566Y0391263D03*
X0037558Y0391263D03*
D153*
X0035983Y0391657D03*
X0035826Y0391500D03*
X0034723Y0391342D03*
X0035038Y0389610D03*
X0035196Y0389610D03*
X0036928Y0389610D03*
X0037086Y0393074D03*
X0035038Y0393074D03*
D154*
X0034881Y0392996D03*
D155*
X0035511Y0391421D03*
X0035668Y0391421D03*
X0036298Y0391421D03*
X0037243Y0391263D03*
X0037401Y0391263D03*
X0034881Y0391263D03*
D156*
X0035038Y0391342D03*
X0035196Y0391342D03*
X0035353Y0391342D03*
X0036141Y0391500D03*
X0036456Y0391342D03*
X0036613Y0391342D03*
X0036771Y0391342D03*
X0036928Y0391342D03*
X0037086Y0391342D03*
X0037086Y0389610D03*
D157*
X0036298Y0395673D03*
X0036141Y0395673D03*
X0035983Y0395673D03*
X0035826Y0395673D03*
X0035668Y0395673D03*
X0035511Y0395673D03*
D158*
X0036456Y0395358D03*
D159*
X0036613Y0393153D03*
X0037716Y0391263D03*
D160*
X0037401Y0396067D03*
D161*
X0037873Y0391263D03*
D162*
X0038031Y0391342D03*
D163*
G36*
X0054730Y0322825D02*
X0052133Y0327323D01*
X0052268Y0327401D01*
X0054865Y0322903D01*
X0054730Y0322825D01*
G37*
G36*
X0105719Y0272361D02*
X0101221Y0274958D01*
X0101299Y0275093D01*
X0105797Y0272496D01*
X0105719Y0272361D01*
G37*
G36*
X0105640Y0272224D02*
X0101142Y0274821D01*
X0101220Y0274956D01*
X0105718Y0272359D01*
X0105640Y0272224D01*
G37*
D164*
G36*
X0106248Y0268237D02*
X0099976Y0271858D01*
X0100054Y0271993D01*
X0106326Y0268372D01*
X0106248Y0268237D01*
G37*
D165*
G36*
X0296342Y0326916D02*
X0292013Y0319418D01*
X0291878Y0319496D01*
X0296207Y0326994D01*
X0296342Y0326916D01*
G37*
G36*
X0301524Y0323924D02*
X0297195Y0316426D01*
X0297060Y0316504D01*
X0301389Y0324002D01*
X0301524Y0323924D01*
G37*
M02*
