G75*
%MOIN*%
%OFA0B0*%
%FSLAX25Y25*%
%IPPOS*%
%LPD*%
%AMOC8*
5,1,8,0,0,1.08239X$1,22.5*
%
%ADD10R,0.01181X0.02362*%
%ADD11R,0.02362X0.01181*%
D10*
G36*
X0150729Y0251514D02*
X0150484Y0250361D01*
X0148175Y0250852D01*
X0148420Y0252005D01*
X0150729Y0251514D01*
G37*
G36*
X0151384Y0254595D02*
X0151139Y0253442D01*
X0148830Y0253933D01*
X0149075Y0255086D01*
X0151384Y0254595D01*
G37*
G36*
X0152038Y0257676D02*
X0151793Y0256523D01*
X0149484Y0257014D01*
X0149729Y0258167D01*
X0152038Y0257676D01*
G37*
G36*
X0159450Y0256575D02*
X0159326Y0255402D01*
X0156978Y0255649D01*
X0157102Y0256822D01*
X0159450Y0256575D01*
G37*
G36*
X0159121Y0253443D02*
X0158997Y0252270D01*
X0156649Y0252517D01*
X0156773Y0253690D01*
X0159121Y0253443D01*
G37*
G36*
X0158792Y0250310D02*
X0158668Y0249137D01*
X0156320Y0249384D01*
X0156444Y0250557D01*
X0158792Y0250310D01*
G37*
G36*
X0165448Y0249611D02*
X0165324Y0248438D01*
X0162976Y0248685D01*
X0163100Y0249858D01*
X0165448Y0249611D01*
G37*
G36*
X0165777Y0252743D02*
X0165653Y0251570D01*
X0163305Y0251817D01*
X0163429Y0252990D01*
X0165777Y0252743D01*
G37*
G36*
X0166107Y0255876D02*
X0165983Y0254703D01*
X0163635Y0254950D01*
X0163759Y0256123D01*
X0166107Y0255876D01*
G37*
G36*
X0187898Y0256133D02*
X0188022Y0254960D01*
X0185674Y0254713D01*
X0185550Y0255886D01*
X0187898Y0256133D01*
G37*
G36*
X0188227Y0253000D02*
X0188351Y0251827D01*
X0186003Y0251580D01*
X0185879Y0252753D01*
X0188227Y0253000D01*
G37*
G36*
X0188556Y0249868D02*
X0188680Y0248695D01*
X0186332Y0248448D01*
X0186208Y0249621D01*
X0188556Y0249868D01*
G37*
G36*
X0195213Y0250567D02*
X0195337Y0249394D01*
X0192989Y0249147D01*
X0192865Y0250320D01*
X0195213Y0250567D01*
G37*
G36*
X0194883Y0253700D02*
X0195007Y0252527D01*
X0192659Y0252280D01*
X0192535Y0253453D01*
X0194883Y0253700D01*
G37*
G36*
X0194554Y0256832D02*
X0194678Y0255659D01*
X0192330Y0255412D01*
X0192206Y0256585D01*
X0194554Y0256832D01*
G37*
G36*
X0201917Y0258137D02*
X0202162Y0256984D01*
X0199853Y0256493D01*
X0199608Y0257646D01*
X0201917Y0258137D01*
G37*
G36*
X0202572Y0255056D02*
X0202817Y0253903D01*
X0200508Y0253412D01*
X0200263Y0254565D01*
X0202572Y0255056D01*
G37*
G36*
X0203227Y0251975D02*
X0203472Y0250822D01*
X0201163Y0250331D01*
X0200918Y0251484D01*
X0203227Y0251975D01*
G37*
G36*
X0209773Y0253367D02*
X0210018Y0252214D01*
X0207709Y0251723D01*
X0207464Y0252876D01*
X0209773Y0253367D01*
G37*
G36*
X0209119Y0256448D02*
X0209364Y0255295D01*
X0207055Y0254804D01*
X0206810Y0255957D01*
X0209119Y0256448D01*
G37*
G36*
X0208464Y0259529D02*
X0208709Y0258376D01*
X0206400Y0257885D01*
X0206155Y0259038D01*
X0208464Y0259529D01*
G37*
G36*
X0215697Y0261637D02*
X0216062Y0260515D01*
X0213817Y0259785D01*
X0213452Y0260907D01*
X0215697Y0261637D01*
G37*
G36*
X0216671Y0258642D02*
X0217036Y0257520D01*
X0214791Y0256790D01*
X0214426Y0257912D01*
X0216671Y0258642D01*
G37*
G36*
X0217644Y0255646D02*
X0218009Y0254524D01*
X0215764Y0253794D01*
X0215399Y0254916D01*
X0217644Y0255646D01*
G37*
G36*
X0224009Y0257715D02*
X0224374Y0256593D01*
X0222129Y0255863D01*
X0221764Y0256985D01*
X0224009Y0257715D01*
G37*
G36*
X0223036Y0260710D02*
X0223401Y0259588D01*
X0221156Y0258858D01*
X0220791Y0259980D01*
X0223036Y0260710D01*
G37*
G36*
X0222063Y0263706D02*
X0222428Y0262584D01*
X0220183Y0261854D01*
X0219818Y0262976D01*
X0222063Y0263706D01*
G37*
G36*
X0229103Y0266495D02*
X0229583Y0265418D01*
X0227427Y0264457D01*
X0226947Y0265534D01*
X0229103Y0266495D01*
G37*
G36*
X0230384Y0263618D02*
X0230864Y0262541D01*
X0228708Y0261580D01*
X0228228Y0262657D01*
X0230384Y0263618D01*
G37*
G36*
X0231665Y0260741D02*
X0232145Y0259664D01*
X0229989Y0258703D01*
X0229509Y0259780D01*
X0231665Y0260741D01*
G37*
G36*
X0237780Y0263463D02*
X0238260Y0262386D01*
X0236104Y0261425D01*
X0235624Y0262502D01*
X0237780Y0263463D01*
G37*
G36*
X0236498Y0266340D02*
X0236978Y0265263D01*
X0234822Y0264302D01*
X0234342Y0265379D01*
X0236498Y0266340D01*
G37*
G36*
X0235217Y0269217D02*
X0235697Y0268140D01*
X0233541Y0267179D01*
X0233061Y0268256D01*
X0235217Y0269217D01*
G37*
G36*
X0241837Y0272755D02*
X0242427Y0271733D01*
X0240383Y0270553D01*
X0239793Y0271575D01*
X0241837Y0272755D01*
G37*
G36*
X0243412Y0270028D02*
X0244002Y0269006D01*
X0241958Y0267826D01*
X0241368Y0268848D01*
X0243412Y0270028D01*
G37*
G36*
X0244987Y0267300D02*
X0245577Y0266278D01*
X0243533Y0265098D01*
X0242943Y0266120D01*
X0244987Y0267300D01*
G37*
G36*
X0250783Y0270647D02*
X0251373Y0269625D01*
X0249329Y0268445D01*
X0248739Y0269467D01*
X0250783Y0270647D01*
G37*
G36*
X0249208Y0273374D02*
X0249798Y0272352D01*
X0247754Y0271172D01*
X0247164Y0272194D01*
X0249208Y0273374D01*
G37*
G36*
X0247634Y0276102D02*
X0248224Y0275080D01*
X0246180Y0273900D01*
X0245590Y0274922D01*
X0247634Y0276102D01*
G37*
G36*
X0253903Y0280292D02*
X0254597Y0279337D01*
X0252687Y0277950D01*
X0251993Y0278905D01*
X0253903Y0280292D01*
G37*
G36*
X0255754Y0277744D02*
X0256448Y0276789D01*
X0254538Y0275402D01*
X0253844Y0276357D01*
X0255754Y0277744D01*
G37*
G36*
X0257605Y0275196D02*
X0258299Y0274241D01*
X0256389Y0272854D01*
X0255695Y0273809D01*
X0257605Y0275196D01*
G37*
G36*
X0263020Y0279130D02*
X0263714Y0278175D01*
X0261804Y0276788D01*
X0261110Y0277743D01*
X0263020Y0279130D01*
G37*
G36*
X0261169Y0281678D02*
X0261863Y0280723D01*
X0259953Y0279336D01*
X0259259Y0280291D01*
X0261169Y0281678D01*
G37*
G36*
X0259317Y0284226D02*
X0260011Y0283271D01*
X0258101Y0281884D01*
X0257407Y0282839D01*
X0259317Y0284226D01*
G37*
G36*
X0265051Y0289079D02*
X0265841Y0288202D01*
X0264087Y0286623D01*
X0263297Y0287500D01*
X0265051Y0289079D01*
G37*
G36*
X0267158Y0286739D02*
X0267948Y0285862D01*
X0266194Y0284283D01*
X0265404Y0285160D01*
X0267158Y0286739D01*
G37*
G36*
X0269266Y0284398D02*
X0270056Y0283521D01*
X0268302Y0281942D01*
X0267512Y0282819D01*
X0269266Y0284398D01*
G37*
G36*
X0274240Y0288877D02*
X0275030Y0288000D01*
X0273276Y0286421D01*
X0272486Y0287298D01*
X0274240Y0288877D01*
G37*
G36*
X0272132Y0291217D02*
X0272922Y0290340D01*
X0271168Y0288761D01*
X0270378Y0289638D01*
X0272132Y0291217D01*
G37*
G36*
X0270025Y0293558D02*
X0270815Y0292681D01*
X0269061Y0291102D01*
X0268271Y0291979D01*
X0270025Y0293558D01*
G37*
G36*
X0275234Y0298963D02*
X0276111Y0298173D01*
X0274532Y0296419D01*
X0273655Y0297209D01*
X0275234Y0298963D01*
G37*
G36*
X0277575Y0296855D02*
X0278452Y0296065D01*
X0276873Y0294311D01*
X0275996Y0295101D01*
X0277575Y0296855D01*
G37*
G36*
X0279916Y0294748D02*
X0280793Y0293958D01*
X0279214Y0292204D01*
X0278337Y0292994D01*
X0279916Y0294748D01*
G37*
G36*
X0284394Y0299721D02*
X0285271Y0298931D01*
X0283692Y0297177D01*
X0282815Y0297967D01*
X0284394Y0299721D01*
G37*
G36*
X0282054Y0301829D02*
X0282931Y0301039D01*
X0281352Y0299285D01*
X0280475Y0300075D01*
X0282054Y0301829D01*
G37*
G36*
X0279713Y0303936D02*
X0280590Y0303146D01*
X0279011Y0301392D01*
X0278134Y0302182D01*
X0279713Y0303936D01*
G37*
G36*
X0284394Y0309856D02*
X0285349Y0309162D01*
X0283962Y0307252D01*
X0283007Y0307946D01*
X0284394Y0309856D01*
G37*
G36*
X0286942Y0308005D02*
X0287897Y0307311D01*
X0286510Y0305401D01*
X0285555Y0306095D01*
X0286942Y0308005D01*
G37*
G36*
X0289490Y0306153D02*
X0290445Y0305459D01*
X0289058Y0303549D01*
X0288103Y0304243D01*
X0289490Y0306153D01*
G37*
G36*
X0293424Y0311568D02*
X0294379Y0310874D01*
X0292992Y0308964D01*
X0292037Y0309658D01*
X0293424Y0311568D01*
G37*
G36*
X0290876Y0313419D02*
X0291831Y0312725D01*
X0290444Y0310815D01*
X0289489Y0311509D01*
X0290876Y0313419D01*
G37*
G36*
X0288328Y0315271D02*
X0289283Y0314577D01*
X0287896Y0312667D01*
X0286941Y0313361D01*
X0288328Y0315271D01*
G37*
G36*
X0292311Y0321634D02*
X0293333Y0321044D01*
X0292153Y0319000D01*
X0291131Y0319590D01*
X0292311Y0321634D01*
G37*
G36*
X0295039Y0320059D02*
X0296061Y0319469D01*
X0294881Y0317425D01*
X0293859Y0318015D01*
X0295039Y0320059D01*
G37*
G36*
X0297767Y0318484D02*
X0298789Y0317894D01*
X0297609Y0315850D01*
X0296587Y0316440D01*
X0297767Y0318484D01*
G37*
G36*
X0301113Y0324280D02*
X0302135Y0323690D01*
X0300955Y0321646D01*
X0299933Y0322236D01*
X0301113Y0324280D01*
G37*
G36*
X0298386Y0325855D02*
X0299408Y0325265D01*
X0298228Y0323221D01*
X0297206Y0323811D01*
X0298386Y0325855D01*
G37*
G36*
X0295658Y0327430D02*
X0296680Y0326840D01*
X0295500Y0324796D01*
X0294478Y0325386D01*
X0295658Y0327430D01*
G37*
G36*
X0298967Y0334212D02*
X0300044Y0333732D01*
X0299083Y0331576D01*
X0298006Y0332056D01*
X0298967Y0334212D01*
G37*
G36*
X0301844Y0332931D02*
X0302921Y0332451D01*
X0301960Y0330295D01*
X0300883Y0330775D01*
X0301844Y0332931D01*
G37*
G36*
X0304722Y0331650D02*
X0305799Y0331170D01*
X0304838Y0329014D01*
X0303761Y0329494D01*
X0304722Y0331650D01*
G37*
G36*
X0307444Y0337764D02*
X0308521Y0337284D01*
X0307560Y0335128D01*
X0306483Y0335608D01*
X0307444Y0337764D01*
G37*
G36*
X0304566Y0339045D02*
X0305643Y0338565D01*
X0304682Y0336409D01*
X0303605Y0336889D01*
X0304566Y0339045D01*
G37*
G36*
X0301689Y0340326D02*
X0302766Y0339846D01*
X0301805Y0337690D01*
X0300728Y0338170D01*
X0301689Y0340326D01*
G37*
G36*
X0304258Y0347386D02*
X0305380Y0347021D01*
X0304650Y0344776D01*
X0303528Y0345141D01*
X0304258Y0347386D01*
G37*
G36*
X0307253Y0346412D02*
X0308375Y0346047D01*
X0307645Y0343802D01*
X0306523Y0344167D01*
X0307253Y0346412D01*
G37*
G36*
X0310249Y0345439D02*
X0311371Y0345074D01*
X0310641Y0342829D01*
X0309519Y0343194D01*
X0310249Y0345439D01*
G37*
G36*
X0312317Y0351804D02*
X0313439Y0351439D01*
X0312709Y0349194D01*
X0311587Y0349559D01*
X0312317Y0351804D01*
G37*
G36*
X0309321Y0352778D02*
X0310443Y0352413D01*
X0309713Y0350168D01*
X0308591Y0350533D01*
X0309321Y0352778D01*
G37*
G36*
X0306326Y0353751D02*
X0307448Y0353386D01*
X0306718Y0351141D01*
X0305596Y0351506D01*
X0306326Y0353751D01*
G37*
G36*
X0308186Y0361069D02*
X0309339Y0360824D01*
X0308848Y0358515D01*
X0307695Y0358760D01*
X0308186Y0361069D01*
G37*
G36*
X0311267Y0360414D02*
X0312420Y0360169D01*
X0311929Y0357860D01*
X0310776Y0358105D01*
X0311267Y0360414D01*
G37*
G36*
X0314347Y0359759D02*
X0315500Y0359514D01*
X0315009Y0357205D01*
X0313856Y0357450D01*
X0314347Y0359759D01*
G37*
G36*
X0315739Y0366305D02*
X0316892Y0366060D01*
X0316401Y0363751D01*
X0315248Y0363996D01*
X0315739Y0366305D01*
G37*
G36*
X0312658Y0366960D02*
X0313811Y0366715D01*
X0313320Y0364406D01*
X0312167Y0364651D01*
X0312658Y0366960D01*
G37*
G36*
X0309577Y0367615D02*
X0310730Y0367370D01*
X0310239Y0365061D01*
X0309086Y0365306D01*
X0309577Y0367615D01*
G37*
G36*
X0310648Y0375027D02*
X0311821Y0374903D01*
X0311574Y0372555D01*
X0310401Y0372679D01*
X0310648Y0375027D01*
G37*
G36*
X0313781Y0374698D02*
X0314954Y0374574D01*
X0314707Y0372226D01*
X0313534Y0372350D01*
X0313781Y0374698D01*
G37*
G36*
X0316913Y0374369D02*
X0318086Y0374245D01*
X0317839Y0371897D01*
X0316666Y0372021D01*
X0316913Y0374369D01*
G37*
G36*
X0317612Y0381025D02*
X0318785Y0380901D01*
X0318538Y0378553D01*
X0317365Y0378677D01*
X0317612Y0381025D01*
G37*
G36*
X0314480Y0381354D02*
X0315653Y0381230D01*
X0315406Y0378882D01*
X0314233Y0379006D01*
X0314480Y0381354D01*
G37*
G36*
X0311348Y0381683D02*
X0312521Y0381559D01*
X0312274Y0379211D01*
X0311101Y0379335D01*
X0311348Y0381683D01*
G37*
X0312184Y0388054D03*
X0315333Y0388054D03*
X0318483Y0388054D03*
X0318483Y0394746D03*
X0315333Y0394746D03*
X0312184Y0394746D03*
G36*
X0311071Y0403465D02*
X0312244Y0403589D01*
X0312491Y0401241D01*
X0311318Y0401117D01*
X0311071Y0403465D01*
G37*
G36*
X0314203Y0403794D02*
X0315376Y0403918D01*
X0315623Y0401570D01*
X0314450Y0401446D01*
X0314203Y0403794D01*
G37*
G36*
X0317335Y0404123D02*
X0318508Y0404247D01*
X0318755Y0401899D01*
X0317582Y0401775D01*
X0317335Y0404123D01*
G37*
G36*
X0316636Y0410779D02*
X0317809Y0410903D01*
X0318056Y0408555D01*
X0316883Y0408431D01*
X0316636Y0410779D01*
G37*
G36*
X0313504Y0410450D02*
X0314677Y0410574D01*
X0314924Y0408226D01*
X0313751Y0408102D01*
X0313504Y0410450D01*
G37*
G36*
X0310371Y0410121D02*
X0311544Y0410245D01*
X0311791Y0407897D01*
X0310618Y0407773D01*
X0310371Y0410121D01*
G37*
G36*
X0309096Y0417504D02*
X0310249Y0417749D01*
X0310740Y0415440D01*
X0309587Y0415195D01*
X0309096Y0417504D01*
G37*
G36*
X0312177Y0418159D02*
X0313330Y0418404D01*
X0313821Y0416095D01*
X0312668Y0415850D01*
X0312177Y0418159D01*
G37*
G36*
X0315258Y0418814D02*
X0316411Y0419059D01*
X0316902Y0416750D01*
X0315749Y0416505D01*
X0315258Y0418814D01*
G37*
G36*
X0313866Y0425360D02*
X0315019Y0425605D01*
X0315510Y0423296D01*
X0314357Y0423051D01*
X0313866Y0425360D01*
G37*
G36*
X0310786Y0424705D02*
X0311939Y0424950D01*
X0312430Y0422641D01*
X0311277Y0422396D01*
X0310786Y0424705D01*
G37*
G36*
X0307705Y0424050D02*
X0308858Y0424295D01*
X0309349Y0421986D01*
X0308196Y0421741D01*
X0307705Y0424050D01*
G37*
G36*
X0305616Y0431264D02*
X0306738Y0431629D01*
X0307468Y0429384D01*
X0306346Y0429019D01*
X0305616Y0431264D01*
G37*
G36*
X0308611Y0432237D02*
X0309733Y0432602D01*
X0310463Y0430357D01*
X0309341Y0429992D01*
X0308611Y0432237D01*
G37*
G36*
X0311607Y0433211D02*
X0312729Y0433576D01*
X0313459Y0431331D01*
X0312337Y0430966D01*
X0311607Y0433211D01*
G37*
G36*
X0309539Y0439576D02*
X0310661Y0439941D01*
X0311391Y0437696D01*
X0310269Y0437331D01*
X0309539Y0439576D01*
G37*
G36*
X0306543Y0438603D02*
X0307665Y0438968D01*
X0308395Y0436723D01*
X0307273Y0436358D01*
X0306543Y0438603D01*
G37*
G36*
X0303548Y0437629D02*
X0304670Y0437994D01*
X0305400Y0435749D01*
X0304278Y0435384D01*
X0303548Y0437629D01*
G37*
G36*
X0300738Y0444640D02*
X0301815Y0445120D01*
X0302776Y0442964D01*
X0301699Y0442484D01*
X0300738Y0444640D01*
G37*
G36*
X0303615Y0445921D02*
X0304692Y0446401D01*
X0305653Y0444245D01*
X0304576Y0443765D01*
X0303615Y0445921D01*
G37*
G36*
X0306493Y0447202D02*
X0307570Y0447682D01*
X0308531Y0445526D01*
X0307454Y0445046D01*
X0306493Y0447202D01*
G37*
G36*
X0303771Y0453316D02*
X0304848Y0453796D01*
X0305809Y0451640D01*
X0304732Y0451160D01*
X0303771Y0453316D01*
G37*
G36*
X0300893Y0452035D02*
X0301970Y0452515D01*
X0302931Y0450359D01*
X0301854Y0449879D01*
X0300893Y0452035D01*
G37*
G36*
X0298016Y0450754D02*
X0299093Y0451234D01*
X0300054Y0449078D01*
X0298977Y0448598D01*
X0298016Y0450754D01*
G37*
G36*
X0294478Y0457414D02*
X0295500Y0458004D01*
X0296680Y0455960D01*
X0295658Y0455370D01*
X0294478Y0457414D01*
G37*
G36*
X0297206Y0458989D02*
X0298228Y0459579D01*
X0299408Y0457535D01*
X0298386Y0456945D01*
X0297206Y0458989D01*
G37*
G36*
X0299933Y0460564D02*
X0300955Y0461154D01*
X0302135Y0459110D01*
X0301113Y0458520D01*
X0299933Y0460564D01*
G37*
G36*
X0296587Y0466360D02*
X0297609Y0466950D01*
X0298789Y0464906D01*
X0297767Y0464316D01*
X0296587Y0466360D01*
G37*
G36*
X0293859Y0464785D02*
X0294881Y0465375D01*
X0296061Y0463331D01*
X0295039Y0462741D01*
X0293859Y0464785D01*
G37*
G36*
X0291131Y0463210D02*
X0292153Y0463800D01*
X0293333Y0461756D01*
X0292311Y0461166D01*
X0291131Y0463210D01*
G37*
G36*
X0286951Y0469429D02*
X0287906Y0470123D01*
X0289293Y0468213D01*
X0288338Y0467519D01*
X0286951Y0469429D01*
G37*
G36*
X0289499Y0471281D02*
X0290454Y0471975D01*
X0291841Y0470065D01*
X0290886Y0469371D01*
X0289499Y0471281D01*
G37*
G36*
X0292047Y0473132D02*
X0293002Y0473826D01*
X0294389Y0471916D01*
X0293434Y0471222D01*
X0292047Y0473132D01*
G37*
G36*
X0288113Y0478547D02*
X0289068Y0479241D01*
X0290455Y0477331D01*
X0289500Y0476637D01*
X0288113Y0478547D01*
G37*
G36*
X0285565Y0476695D02*
X0286520Y0477389D01*
X0287907Y0475479D01*
X0286952Y0474785D01*
X0285565Y0476695D01*
G37*
G36*
X0283017Y0474844D02*
X0283972Y0475538D01*
X0285359Y0473628D01*
X0284404Y0472934D01*
X0283017Y0474844D01*
G37*
G36*
X0278154Y0480648D02*
X0279031Y0481438D01*
X0280610Y0479684D01*
X0279733Y0478894D01*
X0278154Y0480648D01*
G37*
G36*
X0280495Y0482755D02*
X0281372Y0483545D01*
X0282951Y0481791D01*
X0282074Y0481001D01*
X0280495Y0482755D01*
G37*
G36*
X0282835Y0484863D02*
X0283712Y0485653D01*
X0285291Y0483899D01*
X0284414Y0483109D01*
X0282835Y0484863D01*
G37*
G36*
X0278357Y0489836D02*
X0279234Y0490626D01*
X0280813Y0488872D01*
X0279936Y0488082D01*
X0278357Y0489836D01*
G37*
G36*
X0276016Y0487729D02*
X0276893Y0488519D01*
X0278472Y0486765D01*
X0277595Y0485975D01*
X0276016Y0487729D01*
G37*
G36*
X0273675Y0485621D02*
X0274552Y0486411D01*
X0276131Y0484657D01*
X0275254Y0483867D01*
X0273675Y0485621D01*
G37*
G36*
X0268281Y0490811D02*
X0269071Y0491688D01*
X0270825Y0490109D01*
X0270035Y0489232D01*
X0268281Y0490811D01*
G37*
G36*
X0270388Y0493152D02*
X0271178Y0494029D01*
X0272932Y0492450D01*
X0272142Y0491573D01*
X0270388Y0493152D01*
G37*
G36*
X0272496Y0495492D02*
X0273286Y0496369D01*
X0275040Y0494790D01*
X0274250Y0493913D01*
X0272496Y0495492D01*
G37*
G36*
X0267522Y0499971D02*
X0268312Y0500848D01*
X0270066Y0499269D01*
X0269276Y0498392D01*
X0267522Y0499971D01*
G37*
G36*
X0265414Y0497630D02*
X0266204Y0498507D01*
X0267958Y0496928D01*
X0267168Y0496051D01*
X0265414Y0497630D01*
G37*
G36*
X0263307Y0495290D02*
X0264097Y0496167D01*
X0265851Y0494588D01*
X0265061Y0493711D01*
X0263307Y0495290D01*
G37*
G36*
X0257377Y0499961D02*
X0258071Y0500916D01*
X0259981Y0499529D01*
X0259287Y0498574D01*
X0257377Y0499961D01*
G37*
G36*
X0259229Y0502509D02*
X0259923Y0503464D01*
X0261833Y0502077D01*
X0261139Y0501122D01*
X0259229Y0502509D01*
G37*
G36*
X0261080Y0505057D02*
X0261774Y0506012D01*
X0263684Y0504625D01*
X0262990Y0503670D01*
X0261080Y0505057D01*
G37*
G36*
X0255665Y0508991D02*
X0256359Y0509946D01*
X0258269Y0508559D01*
X0257575Y0507604D01*
X0255665Y0508991D01*
G37*
G36*
X0253814Y0506443D02*
X0254508Y0507398D01*
X0256418Y0506011D01*
X0255724Y0505056D01*
X0253814Y0506443D01*
G37*
G36*
X0251963Y0503895D02*
X0252657Y0504850D01*
X0254567Y0503463D01*
X0253873Y0502508D01*
X0251963Y0503895D01*
G37*
G36*
X0245600Y0507858D02*
X0246190Y0508880D01*
X0248234Y0507700D01*
X0247644Y0506678D01*
X0245600Y0507858D01*
G37*
G36*
X0247174Y0510586D02*
X0247764Y0511608D01*
X0249808Y0510428D01*
X0249218Y0509406D01*
X0247174Y0510586D01*
G37*
G36*
X0248749Y0513313D02*
X0249339Y0514335D01*
X0251383Y0513155D01*
X0250793Y0512133D01*
X0248749Y0513313D01*
G37*
G36*
X0242953Y0516660D02*
X0243543Y0517682D01*
X0245587Y0516502D01*
X0244997Y0515480D01*
X0242953Y0516660D01*
G37*
G36*
X0241378Y0513932D02*
X0241968Y0514954D01*
X0244012Y0513774D01*
X0243422Y0512752D01*
X0241378Y0513932D01*
G37*
G36*
X0239803Y0511205D02*
X0240393Y0512227D01*
X0242437Y0511047D01*
X0241847Y0510025D01*
X0239803Y0511205D01*
G37*
G36*
X0233041Y0514544D02*
X0233521Y0515621D01*
X0235677Y0514660D01*
X0235197Y0513583D01*
X0233041Y0514544D01*
G37*
G36*
X0234322Y0517421D02*
X0234802Y0518498D01*
X0236958Y0517537D01*
X0236478Y0516460D01*
X0234322Y0517421D01*
G37*
G36*
X0235604Y0520298D02*
X0236084Y0521375D01*
X0238240Y0520414D01*
X0237760Y0519337D01*
X0235604Y0520298D01*
G37*
G36*
X0229489Y0523020D02*
X0229969Y0524097D01*
X0232125Y0523136D01*
X0231645Y0522059D01*
X0229489Y0523020D01*
G37*
G36*
X0228208Y0520143D02*
X0228688Y0521220D01*
X0230844Y0520259D01*
X0230364Y0519182D01*
X0228208Y0520143D01*
G37*
G36*
X0226927Y0517266D02*
X0227407Y0518343D01*
X0229563Y0517382D01*
X0229083Y0516305D01*
X0226927Y0517266D01*
G37*
G36*
X0220831Y0522830D02*
X0221196Y0523952D01*
X0223441Y0523222D01*
X0223076Y0522100D01*
X0220831Y0522830D01*
G37*
G36*
X0219858Y0519834D02*
X0220223Y0520956D01*
X0222468Y0520226D01*
X0222103Y0519104D01*
X0219858Y0519834D01*
G37*
G36*
X0213492Y0521903D02*
X0213857Y0523025D01*
X0216102Y0522295D01*
X0215737Y0521173D01*
X0213492Y0521903D01*
G37*
G36*
X0214466Y0524898D02*
X0214831Y0526020D01*
X0217076Y0525290D01*
X0216711Y0524168D01*
X0214466Y0524898D01*
G37*
G36*
X0215439Y0527894D02*
X0215804Y0529016D01*
X0218049Y0528286D01*
X0217684Y0527164D01*
X0215439Y0527894D01*
G37*
G36*
X0207494Y0529924D02*
X0207739Y0531077D01*
X0210048Y0530586D01*
X0209803Y0529433D01*
X0207494Y0529924D01*
G37*
G36*
X0206840Y0526843D02*
X0207085Y0527996D01*
X0209394Y0527505D01*
X0209149Y0526352D01*
X0206840Y0526843D01*
G37*
G36*
X0206185Y0523762D02*
X0206430Y0524915D01*
X0208739Y0524424D01*
X0208494Y0523271D01*
X0206185Y0523762D01*
G37*
G36*
X0199638Y0525154D02*
X0199883Y0526307D01*
X0202192Y0525816D01*
X0201947Y0524663D01*
X0199638Y0525154D01*
G37*
G36*
X0200293Y0528235D02*
X0200538Y0529388D01*
X0202847Y0528897D01*
X0202602Y0527744D01*
X0200293Y0528235D01*
G37*
G36*
X0200948Y0531316D02*
X0201193Y0532469D01*
X0203502Y0531978D01*
X0203257Y0530825D01*
X0200948Y0531316D01*
G37*
G36*
X0192845Y0532470D02*
X0192969Y0533643D01*
X0195317Y0533396D01*
X0195193Y0532223D01*
X0192845Y0532470D01*
G37*
G36*
X0192515Y0529337D02*
X0192639Y0530510D01*
X0194987Y0530263D01*
X0194863Y0529090D01*
X0192515Y0529337D01*
G37*
G36*
X0192186Y0526205D02*
X0192310Y0527378D01*
X0194658Y0527131D01*
X0194534Y0525958D01*
X0192186Y0526205D01*
G37*
G36*
X0185530Y0526904D02*
X0185654Y0528077D01*
X0188002Y0527830D01*
X0187878Y0526657D01*
X0185530Y0526904D01*
G37*
G36*
X0185859Y0530037D02*
X0185983Y0531210D01*
X0188331Y0530963D01*
X0188207Y0529790D01*
X0185859Y0530037D01*
G37*
G36*
X0186188Y0533169D02*
X0186312Y0534342D01*
X0188660Y0534095D01*
X0188536Y0532922D01*
X0186188Y0533169D01*
G37*
G36*
X0163459Y0529780D02*
X0163335Y0530953D01*
X0165683Y0531200D01*
X0165807Y0530027D01*
X0163459Y0529780D01*
G37*
G36*
X0163789Y0526647D02*
X0163665Y0527820D01*
X0166013Y0528067D01*
X0166137Y0526894D01*
X0163789Y0526647D01*
G37*
G36*
X0157132Y0525948D02*
X0157008Y0527121D01*
X0159356Y0527368D01*
X0159480Y0526195D01*
X0157132Y0525948D01*
G37*
G36*
X0156803Y0529080D02*
X0156679Y0530253D01*
X0159027Y0530500D01*
X0159151Y0529327D01*
X0156803Y0529080D01*
G37*
G36*
X0156474Y0532213D02*
X0156350Y0533386D01*
X0158698Y0533633D01*
X0158822Y0532460D01*
X0156474Y0532213D01*
G37*
G36*
X0149065Y0527714D02*
X0148820Y0528867D01*
X0151129Y0529358D01*
X0151374Y0528205D01*
X0149065Y0527714D01*
G37*
G36*
X0149719Y0524633D02*
X0149474Y0525786D01*
X0151783Y0526277D01*
X0152028Y0525124D01*
X0149719Y0524633D01*
G37*
G36*
X0148410Y0530795D02*
X0148165Y0531948D01*
X0150474Y0532439D01*
X0150719Y0531286D01*
X0148410Y0530795D01*
G37*
G36*
X0141863Y0529403D02*
X0141618Y0530556D01*
X0143927Y0531047D01*
X0144172Y0529894D01*
X0141863Y0529403D01*
G37*
G36*
X0142518Y0526322D02*
X0142273Y0527475D01*
X0144582Y0527966D01*
X0144827Y0526813D01*
X0142518Y0526322D01*
G37*
G36*
X0143173Y0523241D02*
X0142928Y0524394D01*
X0145237Y0524885D01*
X0145482Y0523732D01*
X0143173Y0523241D01*
G37*
G36*
X0135959Y0521163D02*
X0135594Y0522285D01*
X0137839Y0523015D01*
X0138204Y0521893D01*
X0135959Y0521163D01*
G37*
G36*
X0134986Y0524158D02*
X0134621Y0525280D01*
X0136866Y0526010D01*
X0137231Y0524888D01*
X0134986Y0524158D01*
G37*
G36*
X0134013Y0527154D02*
X0133648Y0528276D01*
X0135893Y0529006D01*
X0136258Y0527884D01*
X0134013Y0527154D01*
G37*
G36*
X0127647Y0525085D02*
X0127282Y0526207D01*
X0129527Y0526937D01*
X0129892Y0525815D01*
X0127647Y0525085D01*
G37*
G36*
X0128621Y0522090D02*
X0128256Y0523212D01*
X0130501Y0523942D01*
X0130866Y0522820D01*
X0128621Y0522090D01*
G37*
G36*
X0129594Y0519094D02*
X0129229Y0520216D01*
X0131474Y0520946D01*
X0131839Y0519824D01*
X0129594Y0519094D01*
G37*
G36*
X0122564Y0516335D02*
X0122084Y0517412D01*
X0124240Y0518373D01*
X0124720Y0517296D01*
X0122564Y0516335D01*
G37*
G36*
X0121282Y0519212D02*
X0120802Y0520289D01*
X0122958Y0521250D01*
X0123438Y0520173D01*
X0121282Y0519212D01*
G37*
G36*
X0120001Y0522089D02*
X0119521Y0523166D01*
X0121677Y0524127D01*
X0122157Y0523050D01*
X0120001Y0522089D01*
G37*
G36*
X0113887Y0519367D02*
X0113407Y0520444D01*
X0115563Y0521405D01*
X0116043Y0520328D01*
X0113887Y0519367D01*
G37*
G36*
X0115168Y0516490D02*
X0114688Y0517567D01*
X0116844Y0518528D01*
X0117324Y0517451D01*
X0115168Y0516490D01*
G37*
G36*
X0116449Y0513613D02*
X0115969Y0514690D01*
X0118125Y0515651D01*
X0118605Y0514574D01*
X0116449Y0513613D01*
G37*
G36*
X0109839Y0510045D02*
X0109249Y0511067D01*
X0111293Y0512247D01*
X0111883Y0511225D01*
X0109839Y0510045D01*
G37*
G36*
X0108264Y0512772D02*
X0107674Y0513794D01*
X0109718Y0514974D01*
X0110308Y0513952D01*
X0108264Y0512772D01*
G37*
G36*
X0106690Y0515500D02*
X0106100Y0516522D01*
X0108144Y0517702D01*
X0108734Y0516680D01*
X0106690Y0515500D01*
G37*
G36*
X0100893Y0512153D02*
X0100303Y0513175D01*
X0102347Y0514355D01*
X0102937Y0513333D01*
X0100893Y0512153D01*
G37*
G36*
X0102468Y0509426D02*
X0101878Y0510448D01*
X0103922Y0511628D01*
X0104512Y0510606D01*
X0102468Y0509426D01*
G37*
G36*
X0104043Y0506698D02*
X0103453Y0507720D01*
X0105497Y0508900D01*
X0106087Y0507878D01*
X0104043Y0506698D01*
G37*
G36*
X0097774Y0502488D02*
X0097080Y0503443D01*
X0098990Y0504830D01*
X0099684Y0503875D01*
X0097774Y0502488D01*
G37*
G36*
X0095923Y0505036D02*
X0095229Y0505991D01*
X0097139Y0507378D01*
X0097833Y0506423D01*
X0095923Y0505036D01*
G37*
G36*
X0094071Y0507584D02*
X0093377Y0508539D01*
X0095287Y0509926D01*
X0095981Y0508971D01*
X0094071Y0507584D01*
G37*
G36*
X0088657Y0503650D02*
X0087963Y0504605D01*
X0089873Y0505992D01*
X0090567Y0505037D01*
X0088657Y0503650D01*
G37*
G36*
X0090508Y0501102D02*
X0089814Y0502057D01*
X0091724Y0503444D01*
X0092418Y0502489D01*
X0090508Y0501102D01*
G37*
G36*
X0092359Y0498554D02*
X0091665Y0499509D01*
X0093575Y0500896D01*
X0094269Y0499941D01*
X0092359Y0498554D01*
G37*
G36*
X0086576Y0493741D02*
X0085786Y0494618D01*
X0087540Y0496197D01*
X0088330Y0495320D01*
X0086576Y0493741D01*
G37*
G36*
X0084468Y0496081D02*
X0083678Y0496958D01*
X0085432Y0498537D01*
X0086222Y0497660D01*
X0084468Y0496081D01*
G37*
G36*
X0082361Y0498422D02*
X0081571Y0499299D01*
X0083325Y0500878D01*
X0084115Y0500001D01*
X0082361Y0498422D01*
G37*
G36*
X0077387Y0493943D02*
X0076597Y0494820D01*
X0078351Y0496399D01*
X0079141Y0495522D01*
X0077387Y0493943D01*
G37*
G36*
X0079494Y0491603D02*
X0078704Y0492480D01*
X0080458Y0494059D01*
X0081248Y0493182D01*
X0079494Y0491603D01*
G37*
G36*
X0081602Y0489262D02*
X0080812Y0490139D01*
X0082566Y0491718D01*
X0083356Y0490841D01*
X0081602Y0489262D01*
G37*
G36*
X0076412Y0483877D02*
X0075535Y0484667D01*
X0077114Y0486421D01*
X0077991Y0485631D01*
X0076412Y0483877D01*
G37*
G36*
X0074072Y0485985D02*
X0073195Y0486775D01*
X0074774Y0488529D01*
X0075651Y0487739D01*
X0074072Y0485985D01*
G37*
G36*
X0071731Y0488092D02*
X0070854Y0488882D01*
X0072433Y0490636D01*
X0073310Y0489846D01*
X0071731Y0488092D01*
G37*
G36*
X0067252Y0483119D02*
X0066375Y0483909D01*
X0067954Y0485663D01*
X0068831Y0484873D01*
X0067252Y0483119D01*
G37*
G36*
X0069593Y0481011D02*
X0068716Y0481801D01*
X0070295Y0483555D01*
X0071172Y0482765D01*
X0069593Y0481011D01*
G37*
G36*
X0071934Y0478904D02*
X0071057Y0479694D01*
X0072636Y0481448D01*
X0073513Y0480658D01*
X0071934Y0478904D01*
G37*
G36*
X0067292Y0472934D02*
X0066337Y0473628D01*
X0067724Y0475538D01*
X0068679Y0474844D01*
X0067292Y0472934D01*
G37*
G36*
X0064744Y0474785D02*
X0063789Y0475479D01*
X0065176Y0477389D01*
X0066131Y0476695D01*
X0064744Y0474785D01*
G37*
G36*
X0062196Y0476637D02*
X0061241Y0477331D01*
X0062628Y0479241D01*
X0063583Y0478547D01*
X0062196Y0476637D01*
G37*
G36*
X0058262Y0471222D02*
X0057307Y0471916D01*
X0058694Y0473826D01*
X0059649Y0473132D01*
X0058262Y0471222D01*
G37*
G36*
X0060810Y0469371D02*
X0059855Y0470065D01*
X0061242Y0471975D01*
X0062197Y0471281D01*
X0060810Y0469371D01*
G37*
G36*
X0063358Y0467519D02*
X0062403Y0468213D01*
X0063790Y0470123D01*
X0064745Y0469429D01*
X0063358Y0467519D01*
G37*
G36*
X0059355Y0461156D02*
X0058333Y0461746D01*
X0059513Y0463790D01*
X0060535Y0463200D01*
X0059355Y0461156D01*
G37*
G36*
X0056628Y0462731D02*
X0055606Y0463321D01*
X0056786Y0465365D01*
X0057808Y0464775D01*
X0056628Y0462731D01*
G37*
G36*
X0053900Y0464306D02*
X0052878Y0464896D01*
X0054058Y0466940D01*
X0055080Y0466350D01*
X0053900Y0464306D01*
G37*
G36*
X0050553Y0458510D02*
X0049531Y0459100D01*
X0050711Y0461144D01*
X0051733Y0460554D01*
X0050553Y0458510D01*
G37*
G36*
X0053281Y0456935D02*
X0052259Y0457525D01*
X0053439Y0459569D01*
X0054461Y0458979D01*
X0053281Y0456935D01*
G37*
G36*
X0056009Y0455360D02*
X0054987Y0455950D01*
X0056167Y0457994D01*
X0057189Y0457404D01*
X0056009Y0455360D01*
G37*
G36*
X0052670Y0448588D02*
X0051593Y0449068D01*
X0052554Y0451224D01*
X0053631Y0450744D01*
X0052670Y0448588D01*
G37*
G36*
X0049792Y0449869D02*
X0048715Y0450349D01*
X0049676Y0452505D01*
X0050753Y0452025D01*
X0049792Y0449869D01*
G37*
G36*
X0046915Y0451150D02*
X0045838Y0451630D01*
X0046799Y0453786D01*
X0047876Y0453306D01*
X0046915Y0451150D01*
G37*
G36*
X0044193Y0445036D02*
X0043116Y0445516D01*
X0044077Y0447672D01*
X0045154Y0447192D01*
X0044193Y0445036D01*
G37*
G36*
X0047070Y0443755D02*
X0045993Y0444235D01*
X0046954Y0446391D01*
X0048031Y0445911D01*
X0047070Y0443755D01*
G37*
G36*
X0049948Y0442474D02*
X0048871Y0442954D01*
X0049832Y0445110D01*
X0050909Y0444630D01*
X0049948Y0442474D01*
G37*
G36*
X0047409Y0435424D02*
X0046287Y0435789D01*
X0047017Y0438034D01*
X0048139Y0437669D01*
X0047409Y0435424D01*
G37*
G36*
X0044413Y0436398D02*
X0043291Y0436763D01*
X0044021Y0439008D01*
X0045143Y0438643D01*
X0044413Y0436398D01*
G37*
G36*
X0041418Y0437371D02*
X0040296Y0437736D01*
X0041026Y0439981D01*
X0042148Y0439616D01*
X0041418Y0437371D01*
G37*
G36*
X0039350Y0431006D02*
X0038228Y0431371D01*
X0038958Y0433616D01*
X0040080Y0433251D01*
X0039350Y0431006D01*
G37*
G36*
X0042345Y0430032D02*
X0041223Y0430397D01*
X0041953Y0432642D01*
X0043075Y0432277D01*
X0042345Y0430032D01*
G37*
G36*
X0045341Y0429059D02*
X0044219Y0429424D01*
X0044949Y0431669D01*
X0046071Y0431304D01*
X0045341Y0429059D01*
G37*
G36*
X0043511Y0421761D02*
X0042358Y0422006D01*
X0042849Y0424315D01*
X0044002Y0424070D01*
X0043511Y0421761D01*
G37*
G36*
X0040430Y0422416D02*
X0039277Y0422661D01*
X0039768Y0424970D01*
X0040921Y0424725D01*
X0040430Y0422416D01*
G37*
G36*
X0037349Y0423071D02*
X0036196Y0423316D01*
X0036687Y0425625D01*
X0037840Y0425380D01*
X0037349Y0423071D01*
G37*
G36*
X0035958Y0416525D02*
X0034805Y0416770D01*
X0035296Y0419079D01*
X0036449Y0418834D01*
X0035958Y0416525D01*
G37*
G36*
X0039039Y0415870D02*
X0037886Y0416115D01*
X0038377Y0418424D01*
X0039530Y0418179D01*
X0039039Y0415870D01*
G37*
G36*
X0042119Y0415215D02*
X0040966Y0415460D01*
X0041457Y0417769D01*
X0042610Y0417524D01*
X0042119Y0415215D01*
G37*
G36*
X0041038Y0407753D02*
X0039865Y0407877D01*
X0040112Y0410225D01*
X0041285Y0410101D01*
X0041038Y0407753D01*
G37*
G36*
X0037906Y0408082D02*
X0036733Y0408206D01*
X0036980Y0410554D01*
X0038153Y0410430D01*
X0037906Y0408082D01*
G37*
G36*
X0034774Y0408411D02*
X0033601Y0408535D01*
X0033848Y0410883D01*
X0035021Y0410759D01*
X0034774Y0408411D01*
G37*
G36*
X0034074Y0401755D02*
X0032901Y0401879D01*
X0033148Y0404227D01*
X0034321Y0404103D01*
X0034074Y0401755D01*
G37*
G36*
X0037207Y0401426D02*
X0036034Y0401550D01*
X0036281Y0403898D01*
X0037454Y0403774D01*
X0037207Y0401426D01*
G37*
G36*
X0040339Y0401097D02*
X0039166Y0401221D01*
X0039413Y0403569D01*
X0040586Y0403445D01*
X0040339Y0401097D01*
G37*
X0039473Y0394746D03*
X0036323Y0394746D03*
X0033174Y0394746D03*
X0033174Y0388054D03*
X0036323Y0388054D03*
X0039473Y0388054D03*
G36*
X0040596Y0379365D02*
X0039423Y0379241D01*
X0039176Y0381589D01*
X0040349Y0381713D01*
X0040596Y0379365D01*
G37*
G36*
X0037464Y0379036D02*
X0036291Y0378912D01*
X0036044Y0381260D01*
X0037217Y0381384D01*
X0037464Y0379036D01*
G37*
G36*
X0034331Y0378707D02*
X0033158Y0378583D01*
X0032911Y0380931D01*
X0034084Y0381055D01*
X0034331Y0378707D01*
G37*
G36*
X0035031Y0372051D02*
X0033858Y0371927D01*
X0033611Y0374275D01*
X0034784Y0374399D01*
X0035031Y0372051D01*
G37*
G36*
X0038163Y0372380D02*
X0036990Y0372256D01*
X0036743Y0374604D01*
X0037916Y0374728D01*
X0038163Y0372380D01*
G37*
G36*
X0041295Y0372709D02*
X0040122Y0372585D01*
X0039875Y0374933D01*
X0041048Y0375057D01*
X0041295Y0372709D01*
G37*
G36*
X0042580Y0365296D02*
X0041427Y0365051D01*
X0040936Y0367360D01*
X0042089Y0367605D01*
X0042580Y0365296D01*
G37*
G36*
X0039500Y0364641D02*
X0038347Y0364396D01*
X0037856Y0366705D01*
X0039009Y0366950D01*
X0039500Y0364641D01*
G37*
G36*
X0036419Y0363986D02*
X0035266Y0363741D01*
X0034775Y0366050D01*
X0035928Y0366295D01*
X0036419Y0363986D01*
G37*
G36*
X0037810Y0357440D02*
X0036657Y0357195D01*
X0036166Y0359504D01*
X0037319Y0359749D01*
X0037810Y0357440D01*
G37*
G36*
X0040891Y0358095D02*
X0039738Y0357850D01*
X0039247Y0360159D01*
X0040400Y0360404D01*
X0040891Y0358095D01*
G37*
G36*
X0043972Y0358750D02*
X0042819Y0358505D01*
X0042328Y0360814D01*
X0043481Y0361059D01*
X0043972Y0358750D01*
G37*
G36*
X0046081Y0351506D02*
X0044959Y0351141D01*
X0044229Y0353386D01*
X0045351Y0353751D01*
X0046081Y0351506D01*
G37*
G36*
X0043085Y0350533D02*
X0041963Y0350168D01*
X0041233Y0352413D01*
X0042355Y0352778D01*
X0043085Y0350533D01*
G37*
G36*
X0040090Y0349559D02*
X0038968Y0349194D01*
X0038238Y0351439D01*
X0039360Y0351804D01*
X0040090Y0349559D01*
G37*
G36*
X0042158Y0343194D02*
X0041036Y0342829D01*
X0040306Y0345074D01*
X0041428Y0345439D01*
X0042158Y0343194D01*
G37*
G36*
X0045153Y0344167D02*
X0044031Y0343802D01*
X0043301Y0346047D01*
X0044423Y0346412D01*
X0045153Y0344167D01*
G37*
G36*
X0048149Y0345141D02*
X0047027Y0344776D01*
X0046297Y0347021D01*
X0047419Y0347386D01*
X0048149Y0345141D01*
G37*
G36*
X0050909Y0338140D02*
X0049832Y0337660D01*
X0048871Y0339816D01*
X0049948Y0340296D01*
X0050909Y0338140D01*
G37*
G36*
X0048031Y0336859D02*
X0046954Y0336379D01*
X0045993Y0338535D01*
X0047070Y0339015D01*
X0048031Y0336859D01*
G37*
G36*
X0045154Y0335578D02*
X0044077Y0335098D01*
X0043116Y0337254D01*
X0044193Y0337734D01*
X0045154Y0335578D01*
G37*
G36*
X0047876Y0329464D02*
X0046799Y0328984D01*
X0045838Y0331140D01*
X0046915Y0331620D01*
X0047876Y0329464D01*
G37*
G36*
X0050753Y0330745D02*
X0049676Y0330265D01*
X0048715Y0332421D01*
X0049792Y0332901D01*
X0050753Y0330745D01*
G37*
G36*
X0053631Y0332026D02*
X0052554Y0331546D01*
X0051593Y0333702D01*
X0052670Y0334182D01*
X0053631Y0332026D01*
G37*
G36*
X0057209Y0325406D02*
X0056187Y0324816D01*
X0055007Y0326860D01*
X0056029Y0327450D01*
X0057209Y0325406D01*
G37*
G36*
X0054481Y0323831D02*
X0053459Y0323241D01*
X0052279Y0325285D01*
X0053301Y0325875D01*
X0054481Y0323831D01*
G37*
G36*
X0051753Y0322256D02*
X0050731Y0321666D01*
X0049551Y0323710D01*
X0050573Y0324300D01*
X0051753Y0322256D01*
G37*
G36*
X0055100Y0316460D02*
X0054078Y0315870D01*
X0052898Y0317914D01*
X0053920Y0318504D01*
X0055100Y0316460D01*
G37*
G36*
X0057828Y0318035D02*
X0056806Y0317445D01*
X0055626Y0319489D01*
X0056648Y0320079D01*
X0057828Y0318035D01*
G37*
G36*
X0060555Y0319610D02*
X0059533Y0319020D01*
X0058353Y0321064D01*
X0059375Y0321654D01*
X0060555Y0319610D01*
G37*
G36*
X0064745Y0313351D02*
X0063790Y0312657D01*
X0062403Y0314567D01*
X0063358Y0315261D01*
X0064745Y0313351D01*
G37*
G36*
X0062197Y0311499D02*
X0061242Y0310805D01*
X0059855Y0312715D01*
X0060810Y0313409D01*
X0062197Y0311499D01*
G37*
G36*
X0059649Y0309648D02*
X0058694Y0308954D01*
X0057307Y0310864D01*
X0058262Y0311558D01*
X0059649Y0309648D01*
G37*
G36*
X0063583Y0304233D02*
X0062628Y0303539D01*
X0061241Y0305449D01*
X0062196Y0306143D01*
X0063583Y0304233D01*
G37*
G36*
X0066131Y0306085D02*
X0065176Y0305391D01*
X0063789Y0307301D01*
X0064744Y0307995D01*
X0066131Y0306085D01*
G37*
G36*
X0068679Y0307936D02*
X0067724Y0307242D01*
X0066337Y0309152D01*
X0067292Y0309846D01*
X0068679Y0307936D01*
G37*
G36*
X0073503Y0302182D02*
X0072626Y0301392D01*
X0071047Y0303146D01*
X0071924Y0303936D01*
X0073503Y0302182D01*
G37*
G36*
X0071162Y0300075D02*
X0070285Y0299285D01*
X0068706Y0301039D01*
X0069583Y0301829D01*
X0071162Y0300075D01*
G37*
G36*
X0068821Y0297967D02*
X0067944Y0297177D01*
X0066365Y0298931D01*
X0067242Y0299721D01*
X0068821Y0297967D01*
G37*
G36*
X0073300Y0292994D02*
X0072423Y0292204D01*
X0070844Y0293958D01*
X0071721Y0294748D01*
X0073300Y0292994D01*
G37*
G36*
X0075641Y0295101D02*
X0074764Y0294311D01*
X0073185Y0296065D01*
X0074062Y0296855D01*
X0075641Y0295101D01*
G37*
G36*
X0077981Y0297209D02*
X0077104Y0296419D01*
X0075525Y0298173D01*
X0076402Y0298963D01*
X0077981Y0297209D01*
G37*
G36*
X0083356Y0291989D02*
X0082566Y0291112D01*
X0080812Y0292691D01*
X0081602Y0293568D01*
X0083356Y0291989D01*
G37*
G36*
X0081248Y0289648D02*
X0080458Y0288771D01*
X0078704Y0290350D01*
X0079494Y0291227D01*
X0081248Y0289648D01*
G37*
G36*
X0079141Y0287308D02*
X0078351Y0286431D01*
X0076597Y0288010D01*
X0077387Y0288887D01*
X0079141Y0287308D01*
G37*
G36*
X0084115Y0282829D02*
X0083325Y0281952D01*
X0081571Y0283531D01*
X0082361Y0284408D01*
X0084115Y0282829D01*
G37*
G36*
X0086222Y0285170D02*
X0085432Y0284293D01*
X0083678Y0285872D01*
X0084468Y0286749D01*
X0086222Y0285170D01*
G37*
G36*
X0088330Y0287510D02*
X0087540Y0286633D01*
X0085786Y0288212D01*
X0086576Y0289089D01*
X0088330Y0287510D01*
G37*
G36*
X0094279Y0282839D02*
X0093585Y0281884D01*
X0091675Y0283271D01*
X0092369Y0284226D01*
X0094279Y0282839D01*
G37*
G36*
X0092428Y0280291D02*
X0091734Y0279336D01*
X0089824Y0280723D01*
X0090518Y0281678D01*
X0092428Y0280291D01*
G37*
G36*
X0090577Y0277743D02*
X0089883Y0276788D01*
X0087973Y0278175D01*
X0088667Y0279130D01*
X0090577Y0277743D01*
G37*
G36*
X0095991Y0273809D02*
X0095297Y0272854D01*
X0093387Y0274241D01*
X0094081Y0275196D01*
X0095991Y0273809D01*
G37*
G36*
X0097843Y0276357D02*
X0097149Y0275402D01*
X0095239Y0276789D01*
X0095933Y0277744D01*
X0097843Y0276357D01*
G37*
G36*
X0099694Y0278905D02*
X0099000Y0277950D01*
X0097090Y0279337D01*
X0097784Y0280292D01*
X0099694Y0278905D01*
G37*
G36*
X0106067Y0274902D02*
X0105477Y0273880D01*
X0103433Y0275060D01*
X0104023Y0276082D01*
X0106067Y0274902D01*
G37*
G36*
X0104492Y0272174D02*
X0103902Y0271152D01*
X0101858Y0272332D01*
X0102448Y0273354D01*
X0104492Y0272174D01*
G37*
G36*
X0102917Y0269447D02*
X0102327Y0268425D01*
X0100283Y0269605D01*
X0100873Y0270627D01*
X0102917Y0269447D01*
G37*
G36*
X0108714Y0266100D02*
X0108124Y0265078D01*
X0106080Y0266258D01*
X0106670Y0267280D01*
X0108714Y0266100D01*
G37*
G36*
X0110288Y0268828D02*
X0109698Y0267806D01*
X0107654Y0268986D01*
X0108244Y0270008D01*
X0110288Y0268828D01*
G37*
G36*
X0111863Y0271555D02*
X0111273Y0270533D01*
X0109229Y0271713D01*
X0109819Y0272735D01*
X0111863Y0271555D01*
G37*
G36*
X0118635Y0268256D02*
X0118155Y0267179D01*
X0115999Y0268140D01*
X0116479Y0269217D01*
X0118635Y0268256D01*
G37*
G36*
X0117354Y0265379D02*
X0116874Y0264302D01*
X0114718Y0265263D01*
X0115198Y0266340D01*
X0117354Y0265379D01*
G37*
G36*
X0116073Y0262502D02*
X0115593Y0261425D01*
X0113437Y0262386D01*
X0113917Y0263463D01*
X0116073Y0262502D01*
G37*
G36*
X0122187Y0259780D02*
X0121707Y0258703D01*
X0119551Y0259664D01*
X0120031Y0260741D01*
X0122187Y0259780D01*
G37*
G36*
X0123468Y0262657D02*
X0122988Y0261580D01*
X0120832Y0262541D01*
X0121312Y0263618D01*
X0123468Y0262657D01*
G37*
G36*
X0124750Y0265534D02*
X0124270Y0264457D01*
X0122114Y0265418D01*
X0122594Y0266495D01*
X0124750Y0265534D01*
G37*
G36*
X0130866Y0259970D02*
X0130501Y0258848D01*
X0128256Y0259578D01*
X0128621Y0260700D01*
X0130866Y0259970D01*
G37*
G36*
X0131839Y0262966D02*
X0131474Y0261844D01*
X0129229Y0262574D01*
X0129594Y0263696D01*
X0131839Y0262966D01*
G37*
G36*
X0138204Y0260897D02*
X0137839Y0259775D01*
X0135594Y0260505D01*
X0135959Y0261627D01*
X0138204Y0260897D01*
G37*
G36*
X0137231Y0257902D02*
X0136866Y0256780D01*
X0134621Y0257510D01*
X0134986Y0258632D01*
X0137231Y0257902D01*
G37*
G36*
X0136258Y0254906D02*
X0135893Y0253784D01*
X0133648Y0254514D01*
X0134013Y0255636D01*
X0136258Y0254906D01*
G37*
G36*
X0144182Y0252906D02*
X0143937Y0251753D01*
X0141628Y0252244D01*
X0141873Y0253397D01*
X0144182Y0252906D01*
G37*
G36*
X0144837Y0255987D02*
X0144592Y0254834D01*
X0142283Y0255325D01*
X0142528Y0256478D01*
X0144837Y0255987D01*
G37*
G36*
X0145492Y0259068D02*
X0145247Y0257915D01*
X0142938Y0258406D01*
X0143183Y0259559D01*
X0145492Y0259068D01*
G37*
G36*
X0129892Y0256975D02*
X0129527Y0255853D01*
X0127282Y0256583D01*
X0127647Y0257705D01*
X0129892Y0256975D01*
G37*
G36*
X0221804Y0525825D02*
X0222169Y0526947D01*
X0224414Y0526217D01*
X0224049Y0525095D01*
X0221804Y0525825D01*
G37*
G36*
X0163130Y0532912D02*
X0163006Y0534085D01*
X0165354Y0534332D01*
X0165478Y0533159D01*
X0163130Y0532912D01*
G37*
D11*
X0172467Y0534060D03*
X0172467Y0530910D03*
X0172467Y0527760D03*
X0179160Y0527760D03*
X0179160Y0530910D03*
X0179160Y0534060D03*
X0179180Y0255060D03*
X0179180Y0251910D03*
X0179180Y0248760D03*
X0172487Y0248760D03*
X0172487Y0251910D03*
X0172487Y0255060D03*
M02*
