G75*
%MOIN*%
%OFA0B0*%
%FSLAX25Y25*%
%IPPOS*%
%LPD*%
%AMOC8*
5,1,8,0,0,1.08239X$1,22.5*
%
%ADD10C,0.02800*%
%ADD11C,0.04800*%
%ADD12C,0.25800*%
%ADD13R,0.07099X0.07887*%
%ADD14C,0.03300*%
D10*
X0163333Y0264400D03*
X0168333Y0264400D03*
X0173333Y0264400D03*
X0178333Y0264400D03*
X0183333Y0264400D03*
X0188333Y0264400D03*
X0273545Y0275940D03*
X0277080Y0279475D03*
X0280616Y0283011D03*
X0284151Y0286546D03*
X0287687Y0290082D03*
X0291222Y0293618D03*
X0303833Y0378900D03*
X0303833Y0383900D03*
X0303833Y0388900D03*
X0303833Y0393900D03*
X0303833Y0398900D03*
X0303833Y0403900D03*
X0291293Y0489111D03*
X0287758Y0492647D03*
X0284222Y0496182D03*
X0280687Y0499718D03*
X0277151Y0503254D03*
X0273616Y0506789D03*
X0188333Y0519400D03*
X0183333Y0519400D03*
X0178333Y0519400D03*
X0173333Y0519400D03*
X0168333Y0519400D03*
X0163333Y0519400D03*
X0078122Y0506860D03*
X0074586Y0503325D03*
X0071051Y0499789D03*
X0067515Y0496254D03*
X0063980Y0492718D03*
X0060444Y0489182D03*
X0047833Y0403900D03*
X0047833Y0398900D03*
X0047833Y0393900D03*
X0047833Y0388900D03*
X0047833Y0383900D03*
X0047833Y0378900D03*
X0060373Y0293689D03*
X0063909Y0290153D03*
X0067444Y0286618D03*
X0070980Y0283082D03*
X0074515Y0279546D03*
X0078051Y0276011D03*
D11*
X0312419Y0368895D02*
X0318373Y0368165D01*
X0319348Y0376105D02*
X0313394Y0376835D01*
X0314083Y0384700D02*
X0320083Y0384700D01*
X0320083Y0392700D02*
X0314083Y0392700D01*
X0313840Y0399970D02*
X0319828Y0400346D01*
X0319326Y0408330D02*
X0313338Y0407954D01*
D12*
X0290833Y0391400D03*
X0290833Y0506400D03*
X0175833Y0506400D03*
X0060833Y0506400D03*
X0060833Y0391400D03*
X0060833Y0276400D03*
X0175833Y0276400D03*
X0290833Y0276400D03*
D13*
G36*
X0305617Y0343057D02*
X0303189Y0336388D01*
X0295779Y0339085D01*
X0298207Y0345754D01*
X0305617Y0343057D01*
G37*
G36*
X0309387Y0353415D02*
X0306959Y0346746D01*
X0299549Y0349443D01*
X0301977Y0356112D01*
X0309387Y0353415D01*
G37*
D14*
X0292833Y0491900D03*
X0058833Y0290900D03*
M02*
