G75*
%MOIN*%
%OFA0B0*%
%FSLAX25Y25*%
%IPPOS*%
%LPD*%
%AMOC8*
5,1,8,0,0,1.08239X$1,22.5*
%
%ADD10R,0.00630X0.00118*%
%ADD11R,0.00866X0.00118*%
%ADD12R,0.01024X0.00118*%
%ADD13R,0.01535X0.00118*%
%ADD14R,0.01772X0.00118*%
%ADD15R,0.00236X0.00118*%
%ADD16R,0.01890X0.00118*%
%ADD17R,0.02126X0.00118*%
%ADD18R,0.00748X0.00118*%
%ADD19R,0.02244X0.00157*%
%ADD20R,0.00866X0.00157*%
%ADD21R,0.02402X0.00157*%
%ADD22R,0.02402X0.00118*%
%ADD23R,0.02520X0.00118*%
%ADD24R,0.02638X0.00118*%
%ADD25R,0.01142X0.00118*%
%ADD26R,0.01260X0.00118*%
%ADD27R,0.00984X0.00157*%
%ADD28R,0.00276X0.00157*%
%ADD29R,0.00630X0.00157*%
%ADD30R,0.00748X0.00157*%
%ADD31R,0.01142X0.00157*%
%ADD32R,0.01654X0.00157*%
%ADD33R,0.02008X0.00118*%
%ADD34R,0.01496X0.00118*%
%ADD35R,0.00787X0.00118*%
%ADD36R,0.00984X0.00118*%
%ADD37R,0.01732X0.00118*%
%ADD38R,0.03425X0.00118*%
%ADD39R,0.02244X0.00118*%
%ADD40R,0.02047X0.00118*%
%ADD41R,0.02283X0.00118*%
%ADD42R,0.03543X0.00118*%
%ADD43R,0.02362X0.00157*%
%ADD44R,0.01772X0.00157*%
%ADD45R,0.02283X0.00157*%
%ADD46R,0.03543X0.00157*%
%ADD47R,0.00906X0.00157*%
%ADD48R,0.01890X0.00157*%
%ADD49R,0.02362X0.00118*%
%ADD50R,0.00276X0.00118*%
%ADD51R,0.00906X0.00118*%
%ADD52R,0.00394X0.00118*%
%ADD53R,0.02756X0.00118*%
%ADD54R,0.01378X0.00118*%
%ADD55R,0.02047X0.00157*%
%ADD56R,0.02008X0.00157*%
%ADD57R,0.01260X0.00157*%
%ADD58R,0.01654X0.00118*%
%ADD59R,0.00118X0.00118*%
%ADD60R,0.01024X0.00157*%
%ADD61R,0.02126X0.00157*%
%ADD62R,0.00512X0.00118*%
%ADD63R,0.00157X0.00157*%
%ADD64R,0.01496X0.00157*%
%ADD65R,0.01417X0.00118*%
%ADD66R,0.02677X0.00118*%
%ADD67R,0.02913X0.00118*%
%ADD68R,0.01102X0.00157*%
%ADD69R,0.02795X0.00118*%
%ADD70R,0.02165X0.00157*%
%ADD71R,0.00394X0.00157*%
%ADD72R,0.01102X0.00118*%
%ADD73R,0.02165X0.00118*%
%ADD74R,0.00354X0.00118*%
%ADD75R,0.00118X0.00630*%
%ADD76R,0.00118X0.01417*%
%ADD77R,0.00118X0.00748*%
%ADD78R,0.00118X0.01890*%
%ADD79R,0.00118X0.00866*%
%ADD80R,0.00157X0.02244*%
%ADD81R,0.00157X0.00866*%
%ADD82R,0.00118X0.02402*%
%ADD83R,0.00118X0.02520*%
%ADD84R,0.00118X0.01142*%
%ADD85R,0.00157X0.01024*%
%ADD86R,0.00157X0.00276*%
%ADD87R,0.00118X0.00984*%
%ADD88R,0.00157X0.00984*%
%ADD89R,0.00118X0.01024*%
%ADD90R,0.00118X0.00512*%
%ADD91R,0.00118X0.01260*%
%ADD92R,0.00118X0.02126*%
%ADD93R,0.00118X0.01772*%
%ADD94R,0.00118X0.00157*%
%ADD95R,0.00118X0.00276*%
%ADD96R,0.00118X0.02638*%
%ADD97R,0.00157X0.00748*%
%ADD98R,0.00157X0.02402*%
%ADD99R,0.00118X0.02008*%
%ADD100R,0.00157X0.00157*%
%ADD101R,0.00787X0.00157*%
%ADD102R,0.01417X0.00157*%
%ADD103R,0.00945X0.00157*%
%ADD104R,0.02520X0.00157*%
%ADD105R,0.00315X0.00157*%
%ADD106R,0.01732X0.00157*%
%ADD107R,0.02205X0.00157*%
%ADD108R,0.01575X0.00157*%
%ADD109R,0.03150X0.00157*%
%ADD110R,0.02677X0.00157*%
%ADD111R,0.03307X0.00157*%
%ADD112R,0.02835X0.00157*%
%ADD113R,0.02992X0.00157*%
%ADD114R,0.03465X0.00157*%
%ADD115R,0.03622X0.00157*%
%ADD116R,0.03780X0.00157*%
%ADD117R,0.03937X0.00157*%
%ADD118R,0.00472X0.00157*%
%ADD119R,0.01614X0.00118*%
%ADD120R,0.02638X0.00157*%
%ADD121R,0.00157X0.00118*%
%ADD122R,0.01535X0.00157*%
%ADD123R,0.02756X0.00157*%
%ADD124R,0.03031X0.00118*%
%ADD125R,0.03150X0.00118*%
%ADD126R,0.00472X0.00118*%
D10*
G36*
X0311415Y0288853D02*
X0311221Y0289451D01*
X0311333Y0289487D01*
X0311527Y0288889D01*
X0311415Y0288853D01*
G37*
G36*
X0313867Y0284754D02*
X0313673Y0285352D01*
X0313785Y0285388D01*
X0313979Y0284790D01*
X0313867Y0284754D01*
G37*
G36*
X0312812Y0281886D02*
X0312618Y0282484D01*
X0312730Y0282520D01*
X0312924Y0281922D01*
X0312812Y0281886D01*
G37*
G36*
X0313591Y0279489D02*
X0313397Y0280087D01*
X0313509Y0280123D01*
X0313703Y0279525D01*
X0313591Y0279489D01*
G37*
G36*
X0312570Y0266093D02*
X0312764Y0266691D01*
X0312876Y0266655D01*
X0312682Y0266057D01*
X0312570Y0266093D01*
G37*
G36*
X0313162Y0265114D02*
X0313356Y0265712D01*
X0313468Y0265676D01*
X0313274Y0265078D01*
X0313162Y0265114D01*
G37*
G36*
X0362609Y0264455D02*
X0362708Y0265076D01*
X0362823Y0265057D01*
X0362724Y0264436D01*
X0362609Y0264455D01*
G37*
G36*
X0363347Y0263581D02*
X0363446Y0264202D01*
X0363561Y0264183D01*
X0363462Y0263562D01*
X0363347Y0263581D01*
G37*
G36*
X0362952Y0280715D02*
X0362864Y0281338D01*
X0362980Y0281355D01*
X0363068Y0280732D01*
X0362952Y0280715D01*
G37*
G36*
X0362601Y0283210D02*
X0362513Y0283833D01*
X0362629Y0283850D01*
X0362717Y0283227D01*
X0362601Y0283210D01*
G37*
G36*
X0364139Y0285851D02*
X0364051Y0286474D01*
X0364167Y0286491D01*
X0364255Y0285868D01*
X0364139Y0285851D01*
G37*
G36*
X0362021Y0290571D02*
X0361933Y0291194D01*
X0362049Y0291211D01*
X0362137Y0290588D01*
X0362021Y0290571D01*
G37*
X0291454Y0316438D03*
X0283658Y0317816D03*
X0282554Y0318916D03*
X0280940Y0318916D03*
X0279798Y0318916D03*
X0277595Y0317816D03*
X0275113Y0318916D03*
X0274564Y0317816D03*
X0273735Y0318916D03*
X0272475Y0318916D03*
X0272674Y0317934D03*
X0270784Y0316438D03*
X0269719Y0318916D03*
X0278855Y0314666D03*
X0281257Y0314666D03*
X0282398Y0314666D03*
X0283696Y0321318D03*
X0284326Y0322184D03*
X0282554Y0322302D03*
X0258186Y0317816D03*
X0258186Y0316792D03*
X0257320Y0315296D03*
X0269719Y0368916D03*
X0272475Y0368916D03*
X0273735Y0368916D03*
X0275113Y0368916D03*
X0279798Y0368916D03*
X0280940Y0368916D03*
X0282554Y0368916D03*
X0283696Y0371318D03*
X0284326Y0372184D03*
X0282554Y0372302D03*
X0281304Y0513666D03*
X0279690Y0513666D03*
X0278548Y0513666D03*
X0281304Y0517052D03*
X0282446Y0516068D03*
X0283076Y0516934D03*
X0273863Y0513666D03*
X0272485Y0513666D03*
X0271225Y0513666D03*
X0268469Y0513666D03*
G36*
X0504831Y0291090D02*
X0504792Y0291718D01*
X0504909Y0291726D01*
X0504948Y0291098D01*
X0504831Y0291090D01*
G37*
G36*
X0506602Y0286048D02*
X0506563Y0286676D01*
X0506680Y0286684D01*
X0506719Y0286056D01*
X0506602Y0286048D01*
G37*
G36*
X0504867Y0283532D02*
X0504828Y0284160D01*
X0504945Y0284168D01*
X0504984Y0283540D01*
X0504867Y0283532D01*
G37*
G36*
X0505025Y0281018D02*
X0504986Y0281646D01*
X0505103Y0281654D01*
X0505142Y0281026D01*
X0505025Y0281018D01*
G37*
G36*
X0504802Y0262995D02*
X0504841Y0263623D01*
X0504958Y0263615D01*
X0504919Y0262987D01*
X0504802Y0262995D01*
G37*
G36*
X0505620Y0262194D02*
X0505659Y0262822D01*
X0505776Y0262814D01*
X0505737Y0262186D01*
X0505620Y0262194D01*
G37*
D11*
G36*
X0505933Y0260912D02*
X0505988Y0261775D01*
X0506105Y0261768D01*
X0506050Y0260905D01*
X0505933Y0260912D01*
G37*
G36*
X0506051Y0260905D02*
X0506106Y0261768D01*
X0506223Y0261761D01*
X0506168Y0260898D01*
X0506051Y0260905D01*
G37*
G36*
X0506679Y0260865D02*
X0506734Y0261728D01*
X0506851Y0261721D01*
X0506796Y0260858D01*
X0506679Y0260865D01*
G37*
G36*
X0506797Y0260858D02*
X0506852Y0261721D01*
X0506969Y0261714D01*
X0506914Y0260851D01*
X0506797Y0260858D01*
G37*
G36*
X0506988Y0263883D02*
X0507043Y0264746D01*
X0507160Y0264739D01*
X0507105Y0263876D01*
X0506988Y0263883D01*
G37*
G36*
X0506877Y0264009D02*
X0506932Y0264872D01*
X0507049Y0264865D01*
X0506994Y0264002D01*
X0506877Y0264009D01*
G37*
G36*
X0506759Y0264016D02*
X0506814Y0264879D01*
X0506931Y0264872D01*
X0506876Y0264009D01*
X0506759Y0264016D01*
G37*
G36*
X0506641Y0264023D02*
X0506696Y0264886D01*
X0506813Y0264879D01*
X0506758Y0264016D01*
X0506641Y0264023D01*
G37*
G36*
X0506366Y0264041D02*
X0506421Y0264904D01*
X0506538Y0264897D01*
X0506483Y0264034D01*
X0506366Y0264041D01*
G37*
G36*
X0506005Y0263945D02*
X0506060Y0264808D01*
X0506177Y0264801D01*
X0506122Y0263938D01*
X0506005Y0263945D01*
G37*
G36*
X0506248Y0264048D02*
X0506303Y0264911D01*
X0506420Y0264904D01*
X0506365Y0264041D01*
X0506248Y0264048D01*
G37*
G36*
X0505505Y0256945D02*
X0505560Y0257808D01*
X0505677Y0257801D01*
X0505622Y0256938D01*
X0505505Y0256945D01*
G37*
G36*
X0505623Y0256938D02*
X0505678Y0257801D01*
X0505795Y0257794D01*
X0505740Y0256931D01*
X0505623Y0256938D01*
G37*
G36*
X0505741Y0256930D02*
X0505796Y0257793D01*
X0505913Y0257786D01*
X0505858Y0256923D01*
X0505741Y0256930D01*
G37*
G36*
X0505859Y0256923D02*
X0505914Y0257786D01*
X0506031Y0257779D01*
X0505976Y0256916D01*
X0505859Y0256923D01*
G37*
G36*
X0506134Y0256906D02*
X0506189Y0257769D01*
X0506306Y0257762D01*
X0506251Y0256899D01*
X0506134Y0256906D01*
G37*
G36*
X0506252Y0256898D02*
X0506307Y0257761D01*
X0506424Y0257754D01*
X0506369Y0256891D01*
X0506252Y0256898D01*
G37*
G36*
X0506370Y0256891D02*
X0506425Y0257754D01*
X0506542Y0257747D01*
X0506487Y0256884D01*
X0506370Y0256891D01*
G37*
G36*
X0506488Y0256883D02*
X0506543Y0257746D01*
X0506660Y0257739D01*
X0506605Y0256876D01*
X0506488Y0256883D01*
G37*
G36*
X0506763Y0256866D02*
X0506818Y0257729D01*
X0506935Y0257722D01*
X0506880Y0256859D01*
X0506763Y0256866D01*
G37*
G36*
X0505230Y0256962D02*
X0505285Y0257825D01*
X0505402Y0257818D01*
X0505347Y0256955D01*
X0505230Y0256962D01*
G37*
G36*
X0505497Y0254934D02*
X0505552Y0255797D01*
X0505669Y0255790D01*
X0505614Y0254927D01*
X0505497Y0254934D01*
G37*
G36*
X0505425Y0253794D02*
X0505480Y0254657D01*
X0505597Y0254650D01*
X0505542Y0253787D01*
X0505425Y0253794D01*
G37*
G36*
X0505300Y0253684D02*
X0505355Y0254547D01*
X0505472Y0254540D01*
X0505417Y0253677D01*
X0505300Y0253684D01*
G37*
G36*
X0505543Y0253787D02*
X0505598Y0254650D01*
X0505715Y0254643D01*
X0505660Y0253780D01*
X0505543Y0253787D01*
G37*
G36*
X0505661Y0253780D02*
X0505716Y0254643D01*
X0505833Y0254636D01*
X0505778Y0253773D01*
X0505661Y0253780D01*
G37*
G36*
X0505936Y0253762D02*
X0505991Y0254625D01*
X0506108Y0254618D01*
X0506053Y0253755D01*
X0505936Y0253762D01*
G37*
G36*
X0506054Y0253755D02*
X0506109Y0254618D01*
X0506226Y0254611D01*
X0506171Y0253748D01*
X0506054Y0253755D01*
G37*
G36*
X0506172Y0253747D02*
X0506227Y0254610D01*
X0506344Y0254603D01*
X0506289Y0253740D01*
X0506172Y0253747D01*
G37*
G36*
X0506244Y0254887D02*
X0506299Y0255750D01*
X0506416Y0255743D01*
X0506361Y0254880D01*
X0506244Y0254887D01*
G37*
G36*
X0506362Y0254879D02*
X0506417Y0255742D01*
X0506534Y0255735D01*
X0506479Y0254872D01*
X0506362Y0254879D01*
G37*
G36*
X0506139Y0251343D02*
X0506194Y0252206D01*
X0506311Y0252199D01*
X0506256Y0251336D01*
X0506139Y0251343D01*
G37*
G36*
X0505778Y0251248D02*
X0505833Y0252111D01*
X0505950Y0252104D01*
X0505895Y0251241D01*
X0505778Y0251248D01*
G37*
G36*
X0505503Y0251265D02*
X0505558Y0252128D01*
X0505675Y0252121D01*
X0505620Y0251258D01*
X0505503Y0251265D01*
G37*
G36*
X0505393Y0251390D02*
X0505448Y0252253D01*
X0505565Y0252246D01*
X0505510Y0251383D01*
X0505393Y0251390D01*
G37*
G36*
X0505275Y0251398D02*
X0505330Y0252261D01*
X0505447Y0252254D01*
X0505392Y0251391D01*
X0505275Y0251398D01*
G37*
G36*
X0506021Y0251351D02*
X0506076Y0252214D01*
X0506193Y0252207D01*
X0506138Y0251344D01*
X0506021Y0251351D01*
G37*
G36*
X0505151Y0280908D02*
X0505096Y0281771D01*
X0505213Y0281778D01*
X0505268Y0280915D01*
X0505151Y0280908D01*
G37*
G36*
X0506030Y0281358D02*
X0505975Y0282221D01*
X0506092Y0282228D01*
X0506147Y0281365D01*
X0506030Y0281358D01*
G37*
G36*
X0506258Y0281490D02*
X0506203Y0282353D01*
X0506320Y0282360D01*
X0506375Y0281497D01*
X0506258Y0281490D01*
G37*
G36*
X0506376Y0281498D02*
X0506321Y0282361D01*
X0506438Y0282368D01*
X0506493Y0281505D01*
X0506376Y0281498D01*
G37*
G36*
X0506644Y0281633D02*
X0506589Y0282496D01*
X0506706Y0282503D01*
X0506761Y0281640D01*
X0506644Y0281633D01*
G37*
G36*
X0506564Y0282890D02*
X0506509Y0283753D01*
X0506626Y0283760D01*
X0506681Y0282897D01*
X0506564Y0282890D01*
G37*
G36*
X0506682Y0282898D02*
X0506627Y0283761D01*
X0506744Y0283768D01*
X0506799Y0282905D01*
X0506682Y0282898D01*
G37*
G36*
X0505911Y0283244D02*
X0505856Y0284107D01*
X0505973Y0284114D01*
X0506028Y0283251D01*
X0505911Y0283244D01*
G37*
G36*
X0505629Y0283344D02*
X0505574Y0284207D01*
X0505691Y0284214D01*
X0505746Y0283351D01*
X0505629Y0283344D01*
G37*
G36*
X0505511Y0283337D02*
X0505456Y0284200D01*
X0505573Y0284207D01*
X0505628Y0283344D01*
X0505511Y0283337D01*
G37*
G36*
X0505385Y0283447D02*
X0505330Y0284310D01*
X0505447Y0284317D01*
X0505502Y0283454D01*
X0505385Y0283447D01*
G37*
G36*
X0505268Y0283440D02*
X0505213Y0284303D01*
X0505330Y0284310D01*
X0505385Y0283447D01*
X0505268Y0283440D01*
G37*
G36*
X0506807Y0284681D02*
X0506752Y0285544D01*
X0506869Y0285551D01*
X0506924Y0284688D01*
X0506807Y0284681D01*
G37*
G36*
X0507082Y0284698D02*
X0507027Y0285561D01*
X0507144Y0285568D01*
X0507199Y0284705D01*
X0507082Y0284698D01*
G37*
G36*
X0506497Y0290959D02*
X0506442Y0291822D01*
X0506559Y0291829D01*
X0506614Y0290966D01*
X0506497Y0290959D01*
G37*
G36*
X0506379Y0290952D02*
X0506324Y0291815D01*
X0506441Y0291822D01*
X0506496Y0290959D01*
X0506379Y0290952D01*
G37*
G36*
X0506104Y0290934D02*
X0506049Y0291797D01*
X0506166Y0291804D01*
X0506221Y0290941D01*
X0506104Y0290934D01*
G37*
G36*
X0503935Y0291547D02*
X0503880Y0292410D01*
X0503997Y0292417D01*
X0504052Y0291554D01*
X0503935Y0291547D01*
G37*
G36*
X0505113Y0292884D02*
X0505058Y0293747D01*
X0505175Y0293754D01*
X0505230Y0292891D01*
X0505113Y0292884D01*
G37*
G36*
X0505231Y0292891D02*
X0505176Y0293754D01*
X0505293Y0293761D01*
X0505348Y0292898D01*
X0505231Y0292891D01*
G37*
G36*
X0505742Y0292923D02*
X0505687Y0293786D01*
X0505804Y0293793D01*
X0505859Y0292930D01*
X0505742Y0292923D01*
G37*
G36*
X0505860Y0292931D02*
X0505805Y0293794D01*
X0505922Y0293801D01*
X0505977Y0292938D01*
X0505860Y0292931D01*
G37*
G36*
X0505978Y0292938D02*
X0505923Y0293801D01*
X0506040Y0293808D01*
X0506095Y0292945D01*
X0505978Y0292938D01*
G37*
G36*
X0364719Y0284542D02*
X0364600Y0285398D01*
X0364717Y0285414D01*
X0364836Y0284558D01*
X0364719Y0284542D01*
G37*
G36*
X0364446Y0284504D02*
X0364327Y0285360D01*
X0364444Y0285376D01*
X0364563Y0284520D01*
X0364446Y0284504D01*
G37*
G36*
X0363663Y0283003D02*
X0363544Y0283859D01*
X0363661Y0283875D01*
X0363780Y0283019D01*
X0363663Y0283003D01*
G37*
G36*
X0363374Y0283081D02*
X0363255Y0283937D01*
X0363372Y0283953D01*
X0363491Y0283097D01*
X0363374Y0283081D01*
G37*
G36*
X0363257Y0283065D02*
X0363138Y0283921D01*
X0363255Y0283937D01*
X0363374Y0283081D01*
X0363257Y0283065D01*
G37*
G36*
X0363123Y0283165D02*
X0363004Y0284021D01*
X0363121Y0284037D01*
X0363240Y0283181D01*
X0363123Y0283165D01*
G37*
G36*
X0363006Y0283149D02*
X0362887Y0284005D01*
X0363004Y0284021D01*
X0363123Y0283165D01*
X0363006Y0283149D01*
G37*
G36*
X0364342Y0282700D02*
X0364223Y0283556D01*
X0364340Y0283572D01*
X0364459Y0282716D01*
X0364342Y0282700D01*
G37*
G36*
X0364458Y0282717D02*
X0364339Y0283573D01*
X0364456Y0283589D01*
X0364575Y0282733D01*
X0364458Y0282717D01*
G37*
G36*
X0364517Y0281453D02*
X0364398Y0282309D01*
X0364515Y0282325D01*
X0364634Y0281469D01*
X0364517Y0281453D01*
G37*
G36*
X0364260Y0281297D02*
X0364141Y0282153D01*
X0364258Y0282169D01*
X0364377Y0281313D01*
X0364260Y0281297D01*
G37*
G36*
X0363926Y0281131D02*
X0363807Y0281987D01*
X0363924Y0282003D01*
X0364043Y0281147D01*
X0363926Y0281131D01*
G37*
G36*
X0364143Y0281281D02*
X0364024Y0282137D01*
X0364141Y0282153D01*
X0364260Y0281297D01*
X0364143Y0281281D01*
G37*
G36*
X0363084Y0280615D02*
X0362965Y0281471D01*
X0363082Y0281487D01*
X0363201Y0280631D01*
X0363084Y0280615D01*
G37*
G36*
X0363300Y0290513D02*
X0363181Y0291369D01*
X0363298Y0291385D01*
X0363417Y0290529D01*
X0363300Y0290513D01*
G37*
G36*
X0363573Y0290552D02*
X0363454Y0291408D01*
X0363571Y0291424D01*
X0363690Y0290568D01*
X0363573Y0290552D01*
G37*
G36*
X0363690Y0290568D02*
X0363571Y0291424D01*
X0363688Y0291440D01*
X0363807Y0290584D01*
X0363690Y0290568D01*
G37*
G36*
X0363021Y0292502D02*
X0362902Y0293358D01*
X0363019Y0293374D01*
X0363138Y0292518D01*
X0363021Y0292502D01*
G37*
G36*
X0362904Y0292485D02*
X0362785Y0293341D01*
X0362902Y0293357D01*
X0363021Y0292501D01*
X0362904Y0292485D01*
G37*
G36*
X0362787Y0292469D02*
X0362668Y0293325D01*
X0362785Y0293341D01*
X0362904Y0292485D01*
X0362787Y0292469D01*
G37*
G36*
X0362280Y0292398D02*
X0362161Y0293254D01*
X0362278Y0293270D01*
X0362397Y0292414D01*
X0362280Y0292398D01*
G37*
G36*
X0362163Y0292381D02*
X0362044Y0293237D01*
X0362161Y0293253D01*
X0362280Y0292397D01*
X0362163Y0292381D01*
G37*
G36*
X0361091Y0290958D02*
X0360972Y0291814D01*
X0361089Y0291830D01*
X0361208Y0290974D01*
X0361091Y0290958D01*
G37*
G36*
X0364148Y0265367D02*
X0364283Y0266221D01*
X0364400Y0266203D01*
X0364265Y0265349D01*
X0364148Y0265367D01*
G37*
G36*
X0363896Y0265287D02*
X0364031Y0266141D01*
X0364148Y0266123D01*
X0364013Y0265269D01*
X0363896Y0265287D01*
G37*
G36*
X0364264Y0265348D02*
X0364399Y0266202D01*
X0364516Y0266184D01*
X0364381Y0265330D01*
X0364264Y0265348D01*
G37*
G36*
X0364537Y0265305D02*
X0364672Y0266159D01*
X0364789Y0266141D01*
X0364654Y0265287D01*
X0364537Y0265305D01*
G37*
G36*
X0364653Y0265287D02*
X0364788Y0266141D01*
X0364905Y0266123D01*
X0364770Y0265269D01*
X0364653Y0265287D01*
G37*
G36*
X0364868Y0265133D02*
X0365003Y0265987D01*
X0365120Y0265969D01*
X0364985Y0265115D01*
X0364868Y0265133D01*
G37*
G36*
X0364770Y0265268D02*
X0364905Y0266122D01*
X0365022Y0266104D01*
X0364887Y0265250D01*
X0364770Y0265268D01*
G37*
G36*
X0364277Y0262157D02*
X0364412Y0263011D01*
X0364529Y0262993D01*
X0364394Y0262139D01*
X0364277Y0262157D01*
G37*
G36*
X0364394Y0262139D02*
X0364529Y0262993D01*
X0364646Y0262975D01*
X0364511Y0262121D01*
X0364394Y0262139D01*
G37*
G36*
X0363655Y0262256D02*
X0363790Y0263110D01*
X0363907Y0263092D01*
X0363772Y0262238D01*
X0363655Y0262256D01*
G37*
G36*
X0363538Y0262274D02*
X0363673Y0263128D01*
X0363790Y0263110D01*
X0363655Y0262256D01*
X0363538Y0262274D01*
G37*
G36*
X0362763Y0257519D02*
X0362898Y0258373D01*
X0363015Y0258355D01*
X0362880Y0257501D01*
X0362763Y0257519D01*
G37*
G36*
X0362646Y0257537D02*
X0362781Y0258391D01*
X0362898Y0258373D01*
X0362763Y0257519D01*
X0362646Y0257537D01*
G37*
G36*
X0362374Y0257580D02*
X0362509Y0258434D01*
X0362626Y0258416D01*
X0362491Y0257562D01*
X0362374Y0257580D01*
G37*
G36*
X0362879Y0257500D02*
X0363014Y0258354D01*
X0363131Y0258336D01*
X0362996Y0257482D01*
X0362879Y0257500D01*
G37*
G36*
X0362996Y0257482D02*
X0363131Y0258336D01*
X0363248Y0258318D01*
X0363113Y0257464D01*
X0362996Y0257482D01*
G37*
G36*
X0363268Y0257439D02*
X0363403Y0258293D01*
X0363520Y0258275D01*
X0363385Y0257421D01*
X0363268Y0257439D01*
G37*
G36*
X0363385Y0257420D02*
X0363520Y0258274D01*
X0363637Y0258256D01*
X0363502Y0257402D01*
X0363385Y0257420D01*
G37*
G36*
X0363501Y0257402D02*
X0363636Y0258256D01*
X0363753Y0258238D01*
X0363618Y0257384D01*
X0363501Y0257402D01*
G37*
G36*
X0363618Y0257383D02*
X0363753Y0258237D01*
X0363870Y0258219D01*
X0363735Y0257365D01*
X0363618Y0257383D01*
G37*
G36*
X0363890Y0257340D02*
X0364025Y0258194D01*
X0364142Y0258176D01*
X0364007Y0257322D01*
X0363890Y0257340D01*
G37*
G36*
X0363304Y0255400D02*
X0363439Y0256254D01*
X0363556Y0256236D01*
X0363421Y0255382D01*
X0363304Y0255400D01*
G37*
G36*
X0363187Y0255418D02*
X0363322Y0256272D01*
X0363439Y0256254D01*
X0363304Y0255400D01*
X0363187Y0255418D01*
G37*
G36*
X0362892Y0254309D02*
X0363027Y0255163D01*
X0363144Y0255145D01*
X0363009Y0254291D01*
X0362892Y0254309D01*
G37*
G36*
X0362775Y0254328D02*
X0362910Y0255182D01*
X0363027Y0255164D01*
X0362892Y0254310D01*
X0362775Y0254328D01*
G37*
G36*
X0362503Y0254371D02*
X0362638Y0255225D01*
X0362755Y0255207D01*
X0362620Y0254353D01*
X0362503Y0254371D01*
G37*
G36*
X0362135Y0254310D02*
X0362270Y0255164D01*
X0362387Y0255146D01*
X0362252Y0254292D01*
X0362135Y0254310D01*
G37*
G36*
X0362270Y0254408D02*
X0362405Y0255262D01*
X0362522Y0255244D01*
X0362387Y0254390D01*
X0362270Y0254408D01*
G37*
G36*
X0362387Y0254389D02*
X0362522Y0255243D01*
X0362639Y0255225D01*
X0362504Y0254371D01*
X0362387Y0254389D01*
G37*
G36*
X0363009Y0254291D02*
X0363144Y0255145D01*
X0363261Y0255127D01*
X0363126Y0254273D01*
X0363009Y0254291D01*
G37*
G36*
X0362449Y0255535D02*
X0362584Y0256389D01*
X0362701Y0256371D01*
X0362566Y0255517D01*
X0362449Y0255535D01*
G37*
G36*
X0361894Y0252036D02*
X0362029Y0252890D01*
X0362146Y0252872D01*
X0362011Y0252018D01*
X0361894Y0252036D01*
G37*
G36*
X0362109Y0251882D02*
X0362244Y0252736D01*
X0362361Y0252718D01*
X0362226Y0251864D01*
X0362109Y0251882D01*
G37*
G36*
X0362381Y0251839D02*
X0362516Y0252693D01*
X0362633Y0252675D01*
X0362498Y0251821D01*
X0362381Y0251839D01*
G37*
G36*
X0362633Y0251919D02*
X0362768Y0252773D01*
X0362885Y0252755D01*
X0362750Y0251901D01*
X0362633Y0251919D01*
G37*
G36*
X0362750Y0251900D02*
X0362885Y0252754D01*
X0363002Y0252736D01*
X0362867Y0251882D01*
X0362750Y0251900D01*
G37*
G36*
X0362011Y0252017D02*
X0362146Y0252871D01*
X0362263Y0252853D01*
X0362128Y0251999D01*
X0362011Y0252017D01*
G37*
G36*
X0314908Y0266410D02*
X0315174Y0267233D01*
X0315286Y0267196D01*
X0315020Y0266373D01*
X0314908Y0266410D01*
G37*
G36*
X0314833Y0266559D02*
X0315099Y0267382D01*
X0315211Y0267345D01*
X0314945Y0266522D01*
X0314833Y0266559D01*
G37*
G36*
X0314720Y0266595D02*
X0314986Y0267418D01*
X0315098Y0267381D01*
X0314832Y0266558D01*
X0314720Y0266595D01*
G37*
G36*
X0314608Y0266632D02*
X0314874Y0267455D01*
X0314986Y0267418D01*
X0314720Y0266595D01*
X0314608Y0266632D01*
G37*
G36*
X0314346Y0266717D02*
X0314612Y0267540D01*
X0314724Y0267503D01*
X0314458Y0266680D01*
X0314346Y0266717D01*
G37*
G36*
X0313972Y0266714D02*
X0314238Y0267537D01*
X0314350Y0267500D01*
X0314084Y0266677D01*
X0313972Y0266714D01*
G37*
G36*
X0314234Y0266753D02*
X0314500Y0267576D01*
X0314612Y0267539D01*
X0314346Y0266716D01*
X0314234Y0266753D01*
G37*
G36*
X0313260Y0263758D02*
X0313526Y0264581D01*
X0313638Y0264544D01*
X0313372Y0263721D01*
X0313260Y0263758D01*
G37*
G36*
X0313148Y0263794D02*
X0313414Y0264617D01*
X0313526Y0264580D01*
X0313260Y0263757D01*
X0313148Y0263794D01*
G37*
G36*
X0313859Y0263563D02*
X0314125Y0264386D01*
X0314237Y0264349D01*
X0313971Y0263526D01*
X0313859Y0263563D01*
G37*
G36*
X0313972Y0263527D02*
X0314238Y0264350D01*
X0314350Y0264313D01*
X0314084Y0263490D01*
X0313972Y0263527D01*
G37*
G36*
X0312334Y0258783D02*
X0312600Y0259606D01*
X0312712Y0259569D01*
X0312446Y0258746D01*
X0312334Y0258783D01*
G37*
G36*
X0312221Y0258819D02*
X0312487Y0259642D01*
X0312599Y0259605D01*
X0312333Y0258782D01*
X0312221Y0258819D01*
G37*
G36*
X0311959Y0258905D02*
X0312225Y0259728D01*
X0312337Y0259691D01*
X0312071Y0258868D01*
X0311959Y0258905D01*
G37*
G36*
X0311847Y0258941D02*
X0312113Y0259764D01*
X0312225Y0259727D01*
X0311959Y0258904D01*
X0311847Y0258941D01*
G37*
G36*
X0311735Y0258978D02*
X0312001Y0259801D01*
X0312113Y0259764D01*
X0311847Y0258941D01*
X0311735Y0258978D01*
G37*
G36*
X0311622Y0259014D02*
X0311888Y0259837D01*
X0312000Y0259800D01*
X0311734Y0258977D01*
X0311622Y0259014D01*
G37*
G36*
X0311360Y0259099D02*
X0311626Y0259922D01*
X0311738Y0259885D01*
X0311472Y0259062D01*
X0311360Y0259099D01*
G37*
G36*
X0312446Y0258746D02*
X0312712Y0259569D01*
X0312824Y0259532D01*
X0312558Y0258709D01*
X0312446Y0258746D01*
G37*
G36*
X0312558Y0258710D02*
X0312824Y0259533D01*
X0312936Y0259496D01*
X0312670Y0258673D01*
X0312558Y0258710D01*
G37*
G36*
X0312821Y0258625D02*
X0313087Y0259448D01*
X0313199Y0259411D01*
X0312933Y0258588D01*
X0312821Y0258625D01*
G37*
G36*
X0311938Y0256800D02*
X0312204Y0257623D01*
X0312316Y0257586D01*
X0312050Y0256763D01*
X0311938Y0256800D01*
G37*
G36*
X0311826Y0256837D02*
X0312092Y0257660D01*
X0312204Y0257623D01*
X0311938Y0256800D01*
X0311826Y0256837D01*
G37*
G36*
X0311473Y0255751D02*
X0311739Y0256574D01*
X0311851Y0256537D01*
X0311585Y0255714D01*
X0311473Y0255751D01*
G37*
G36*
X0311360Y0255787D02*
X0311626Y0256610D01*
X0311738Y0256573D01*
X0311472Y0255750D01*
X0311360Y0255787D01*
G37*
G36*
X0311248Y0255824D02*
X0311514Y0256647D01*
X0311626Y0256610D01*
X0311360Y0255787D01*
X0311248Y0255824D01*
G37*
G36*
X0310986Y0255909D02*
X0311252Y0256732D01*
X0311364Y0256695D01*
X0311098Y0255872D01*
X0310986Y0255909D01*
G37*
G36*
X0310613Y0255906D02*
X0310879Y0256729D01*
X0310991Y0256692D01*
X0310725Y0255869D01*
X0310613Y0255906D01*
G37*
G36*
X0310761Y0255982D02*
X0311027Y0256805D01*
X0311139Y0256768D01*
X0310873Y0255945D01*
X0310761Y0255982D01*
G37*
G36*
X0310874Y0255946D02*
X0311140Y0256769D01*
X0311252Y0256732D01*
X0310986Y0255909D01*
X0310874Y0255946D01*
G37*
G36*
X0311114Y0257068D02*
X0311380Y0257891D01*
X0311492Y0257854D01*
X0311226Y0257031D01*
X0311114Y0257068D01*
G37*
G36*
X0310019Y0253698D02*
X0310285Y0254521D01*
X0310397Y0254484D01*
X0310131Y0253661D01*
X0310019Y0253698D01*
G37*
G36*
X0310207Y0253513D02*
X0310473Y0254336D01*
X0310585Y0254299D01*
X0310319Y0253476D01*
X0310207Y0253513D01*
G37*
G36*
X0310470Y0253428D02*
X0310736Y0254251D01*
X0310848Y0254214D01*
X0310582Y0253391D01*
X0310470Y0253428D01*
G37*
G36*
X0310731Y0253467D02*
X0310997Y0254290D01*
X0311109Y0254253D01*
X0310843Y0253430D01*
X0310731Y0253467D01*
G37*
G36*
X0310843Y0253430D02*
X0311109Y0254253D01*
X0311221Y0254216D01*
X0310955Y0253393D01*
X0310843Y0253430D01*
G37*
G36*
X0310132Y0253662D02*
X0310398Y0254485D01*
X0310510Y0254448D01*
X0310244Y0253625D01*
X0310132Y0253662D01*
G37*
G36*
X0313739Y0279413D02*
X0313473Y0280236D01*
X0313585Y0280273D01*
X0313851Y0279450D01*
X0313739Y0279413D01*
G37*
G36*
X0314479Y0280067D02*
X0314213Y0280890D01*
X0314325Y0280927D01*
X0314591Y0280104D01*
X0314479Y0280067D01*
G37*
G36*
X0314667Y0280252D02*
X0314401Y0281075D01*
X0314513Y0281112D01*
X0314779Y0280289D01*
X0314667Y0280252D01*
G37*
G36*
X0314779Y0280289D02*
X0314513Y0281112D01*
X0314625Y0281149D01*
X0314891Y0280326D01*
X0314779Y0280289D01*
G37*
G36*
X0315005Y0280486D02*
X0314739Y0281309D01*
X0314851Y0281346D01*
X0315117Y0280523D01*
X0315005Y0280486D01*
G37*
G36*
X0314615Y0281684D02*
X0314349Y0282507D01*
X0314461Y0282544D01*
X0314727Y0281721D01*
X0314615Y0281684D01*
G37*
G36*
X0314728Y0281721D02*
X0314462Y0282544D01*
X0314574Y0282581D01*
X0314840Y0281758D01*
X0314728Y0281721D01*
G37*
G36*
X0313895Y0281864D02*
X0313629Y0282687D01*
X0313741Y0282724D01*
X0314007Y0281901D01*
X0313895Y0281864D01*
G37*
G36*
X0313596Y0281891D02*
X0313330Y0282714D01*
X0313442Y0282751D01*
X0313708Y0281928D01*
X0313596Y0281891D01*
G37*
G36*
X0313484Y0281855D02*
X0313218Y0282678D01*
X0313330Y0282715D01*
X0313596Y0281892D01*
X0313484Y0281855D01*
G37*
G36*
X0313335Y0281931D02*
X0313069Y0282754D01*
X0313181Y0282791D01*
X0313447Y0281968D01*
X0313335Y0281931D01*
G37*
G36*
X0313223Y0281894D02*
X0312957Y0282717D01*
X0313069Y0282754D01*
X0313335Y0281931D01*
X0313223Y0281894D01*
G37*
G36*
X0314405Y0283479D02*
X0314139Y0284302D01*
X0314251Y0284339D01*
X0314517Y0283516D01*
X0314405Y0283479D01*
G37*
G36*
X0314667Y0283564D02*
X0314401Y0284387D01*
X0314513Y0284424D01*
X0314779Y0283601D01*
X0314667Y0283564D01*
G37*
G36*
X0312948Y0289103D02*
X0312682Y0289926D01*
X0312794Y0289963D01*
X0313060Y0289140D01*
X0312948Y0289103D01*
G37*
G36*
X0313061Y0289139D02*
X0312795Y0289962D01*
X0312907Y0289999D01*
X0313173Y0289176D01*
X0313061Y0289139D01*
G37*
G36*
X0312686Y0289017D02*
X0312420Y0289840D01*
X0312532Y0289877D01*
X0312798Y0289054D01*
X0312686Y0289017D01*
G37*
G36*
X0310433Y0289072D02*
X0310167Y0289895D01*
X0310279Y0289932D01*
X0310545Y0289109D01*
X0310433Y0289072D01*
G37*
G36*
X0311242Y0290659D02*
X0310976Y0291482D01*
X0311088Y0291519D01*
X0311354Y0290696D01*
X0311242Y0290659D01*
G37*
G36*
X0311354Y0290696D02*
X0311088Y0291519D01*
X0311200Y0291556D01*
X0311466Y0290733D01*
X0311354Y0290696D01*
G37*
G36*
X0311841Y0290854D02*
X0311575Y0291677D01*
X0311687Y0291714D01*
X0311953Y0290891D01*
X0311841Y0290854D01*
G37*
G36*
X0311953Y0290891D02*
X0311687Y0291714D01*
X0311799Y0291751D01*
X0312065Y0290928D01*
X0311953Y0290891D01*
G37*
G36*
X0312066Y0290927D02*
X0311800Y0291750D01*
X0311912Y0291787D01*
X0312178Y0290964D01*
X0312066Y0290927D01*
G37*
X0291454Y0316556D03*
X0291454Y0316674D03*
X0291454Y0316792D03*
X0288698Y0316792D03*
X0288698Y0316674D03*
X0288698Y0316556D03*
X0288698Y0316438D03*
X0288698Y0316162D03*
X0288698Y0316044D03*
X0288698Y0315926D03*
X0288698Y0315808D03*
X0288698Y0315532D03*
X0287044Y0315808D03*
X0287044Y0315926D03*
X0287044Y0316044D03*
X0287044Y0316162D03*
X0287044Y0316438D03*
X0287044Y0316556D03*
X0287044Y0316674D03*
X0287044Y0316792D03*
X0284288Y0316162D03*
X0284918Y0314902D03*
X0282398Y0314902D03*
X0281257Y0314902D03*
X0281257Y0314784D03*
X0281257Y0315178D03*
X0281257Y0315296D03*
X0281257Y0315414D03*
X0281257Y0316438D03*
X0281257Y0316556D03*
X0281257Y0316674D03*
X0281257Y0316792D03*
X0281257Y0317068D03*
X0279485Y0316792D03*
X0279485Y0316674D03*
X0279485Y0316556D03*
X0278737Y0315178D03*
X0278855Y0314902D03*
X0276965Y0316162D03*
X0276335Y0314902D03*
X0273580Y0315808D03*
X0273580Y0315926D03*
X0273580Y0316044D03*
X0273580Y0316162D03*
X0273580Y0316438D03*
X0273580Y0316556D03*
X0273580Y0316674D03*
X0271926Y0316792D03*
X0271808Y0316556D03*
X0271808Y0316438D03*
X0271808Y0316162D03*
X0271808Y0316044D03*
X0271808Y0315926D03*
X0271926Y0315532D03*
X0270666Y0317068D03*
X0269170Y0316792D03*
X0269170Y0316674D03*
X0269170Y0316556D03*
X0266769Y0316556D03*
X0266769Y0316674D03*
X0266769Y0316792D03*
X0266769Y0317068D03*
X0266769Y0317186D03*
X0266769Y0317304D03*
X0266769Y0317422D03*
X0266769Y0316438D03*
X0266769Y0316162D03*
X0266769Y0316044D03*
X0266769Y0315926D03*
X0266769Y0315808D03*
X0266769Y0315532D03*
X0266769Y0315414D03*
X0264131Y0315532D03*
X0264131Y0315808D03*
X0264131Y0316792D03*
X0264131Y0317068D03*
X0261217Y0317068D03*
X0261217Y0316792D03*
X0261217Y0316674D03*
X0261217Y0316556D03*
X0261217Y0316438D03*
X0261217Y0316162D03*
X0261217Y0316044D03*
X0261217Y0315926D03*
X0261217Y0315808D03*
X0261217Y0315532D03*
X0259209Y0315808D03*
X0259209Y0315926D03*
X0259209Y0316556D03*
X0259209Y0316674D03*
X0257202Y0316162D03*
X0262396Y0319664D03*
X0262396Y0319782D03*
X0262396Y0320058D03*
X0262396Y0320176D03*
X0262396Y0320294D03*
X0262396Y0321318D03*
X0262396Y0321436D03*
X0262396Y0321554D03*
X0262396Y0321672D03*
X0265428Y0320294D03*
X0265428Y0320176D03*
X0265428Y0320058D03*
X0265428Y0319782D03*
X0266570Y0320058D03*
X0266570Y0320176D03*
X0266570Y0320806D03*
X0266570Y0320924D03*
X0268578Y0320924D03*
X0268578Y0320806D03*
X0268578Y0320688D03*
X0268578Y0320412D03*
X0268578Y0320294D03*
X0268578Y0320176D03*
X0268578Y0320058D03*
X0268578Y0319782D03*
X0269719Y0320058D03*
X0269719Y0320176D03*
X0268578Y0321042D03*
X0268578Y0321318D03*
X0272475Y0320294D03*
X0272475Y0320176D03*
X0272475Y0320058D03*
X0272475Y0319782D03*
X0272475Y0319664D03*
X0272475Y0319546D03*
X0272475Y0319428D03*
X0273735Y0319428D03*
X0273735Y0319546D03*
X0273735Y0319664D03*
X0273735Y0319782D03*
X0273735Y0320058D03*
X0273735Y0320176D03*
X0273735Y0319152D03*
X0276255Y0319782D03*
X0276255Y0320058D03*
X0276255Y0320176D03*
X0276255Y0320294D03*
X0277908Y0320294D03*
X0277908Y0320176D03*
X0277908Y0320058D03*
X0277908Y0319782D03*
X0279798Y0319782D03*
X0279798Y0319664D03*
X0279798Y0319546D03*
X0279798Y0319428D03*
X0279798Y0319152D03*
X0279798Y0319034D03*
X0279798Y0320058D03*
X0279798Y0320176D03*
X0279798Y0320294D03*
X0281058Y0320294D03*
X0282554Y0320176D03*
X0282554Y0320058D03*
X0282554Y0319782D03*
X0282554Y0319664D03*
X0282554Y0319546D03*
X0282554Y0319428D03*
X0282554Y0319152D03*
X0282554Y0319034D03*
X0282554Y0321318D03*
X0282554Y0321436D03*
X0282554Y0321554D03*
X0282554Y0321672D03*
X0282554Y0321948D03*
X0282554Y0322066D03*
X0282554Y0322184D03*
X0285585Y0321042D03*
X0285585Y0320924D03*
X0285704Y0320806D03*
X0285704Y0320688D03*
X0285704Y0320412D03*
X0285704Y0320294D03*
X0285585Y0320058D03*
X0282554Y0369034D03*
X0282554Y0369152D03*
X0282554Y0369428D03*
X0282554Y0369546D03*
X0282554Y0369664D03*
X0282554Y0369782D03*
X0282554Y0370058D03*
X0282554Y0370176D03*
X0282554Y0371318D03*
X0282554Y0371436D03*
X0282554Y0371554D03*
X0282554Y0371672D03*
X0282554Y0371948D03*
X0282554Y0372066D03*
X0282554Y0372184D03*
X0281058Y0370294D03*
X0279798Y0370294D03*
X0279798Y0370176D03*
X0279798Y0370058D03*
X0279798Y0369782D03*
X0279798Y0369664D03*
X0279798Y0369546D03*
X0279798Y0369428D03*
X0279798Y0369152D03*
X0279798Y0369034D03*
X0277908Y0369782D03*
X0277908Y0370058D03*
X0277908Y0370176D03*
X0277908Y0370294D03*
X0276255Y0370294D03*
X0276255Y0370176D03*
X0276255Y0370058D03*
X0276255Y0369782D03*
X0273735Y0369782D03*
X0273735Y0369664D03*
X0273735Y0369546D03*
X0273735Y0369428D03*
X0273735Y0369152D03*
X0273735Y0370058D03*
X0273735Y0370176D03*
X0272475Y0370176D03*
X0272475Y0370294D03*
X0272475Y0370058D03*
X0272475Y0369782D03*
X0272475Y0369664D03*
X0272475Y0369546D03*
X0272475Y0369428D03*
X0269719Y0370058D03*
X0269719Y0370176D03*
X0268578Y0370176D03*
X0268578Y0370294D03*
X0268578Y0370412D03*
X0268578Y0370688D03*
X0268578Y0370806D03*
X0268578Y0370924D03*
X0268578Y0371042D03*
X0268578Y0371318D03*
X0268578Y0370058D03*
X0268578Y0369782D03*
X0266570Y0370058D03*
X0266570Y0370176D03*
X0266570Y0370806D03*
X0266570Y0370924D03*
X0265428Y0370294D03*
X0265428Y0370176D03*
X0265428Y0370058D03*
X0265428Y0369782D03*
X0262396Y0369782D03*
X0262396Y0369664D03*
X0262396Y0370058D03*
X0262396Y0370176D03*
X0262396Y0370294D03*
X0262396Y0371318D03*
X0262396Y0371436D03*
X0262396Y0371554D03*
X0262396Y0371672D03*
X0285585Y0371042D03*
X0285585Y0370924D03*
X0285704Y0370806D03*
X0285704Y0370688D03*
X0285704Y0370412D03*
X0285704Y0370294D03*
X0285585Y0370058D03*
X0281304Y0513784D03*
X0281304Y0513902D03*
X0281304Y0514178D03*
X0281304Y0514296D03*
X0281304Y0514414D03*
X0281304Y0514532D03*
X0281304Y0514808D03*
X0281304Y0514926D03*
X0281304Y0516068D03*
X0281304Y0516186D03*
X0281304Y0516304D03*
X0281304Y0516422D03*
X0281304Y0516698D03*
X0281304Y0516816D03*
X0281304Y0516934D03*
X0279808Y0515044D03*
X0278548Y0515044D03*
X0278548Y0514926D03*
X0278548Y0514808D03*
X0278548Y0514532D03*
X0278548Y0514414D03*
X0278548Y0514296D03*
X0278548Y0514178D03*
X0278548Y0513902D03*
X0278548Y0513784D03*
X0276658Y0514532D03*
X0276658Y0514808D03*
X0276658Y0514926D03*
X0276658Y0515044D03*
X0275005Y0515044D03*
X0275005Y0514926D03*
X0275005Y0514808D03*
X0275005Y0514532D03*
X0272485Y0514532D03*
X0272485Y0514414D03*
X0272485Y0514296D03*
X0272485Y0514178D03*
X0272485Y0513902D03*
X0272485Y0514808D03*
X0272485Y0514926D03*
X0271225Y0514926D03*
X0271225Y0515044D03*
X0271225Y0514808D03*
X0271225Y0514532D03*
X0271225Y0514414D03*
X0271225Y0514296D03*
X0271225Y0514178D03*
X0268469Y0514808D03*
X0268469Y0514926D03*
X0267328Y0514926D03*
X0267328Y0515044D03*
X0267328Y0515162D03*
X0267328Y0515438D03*
X0267328Y0515556D03*
X0267328Y0515674D03*
X0267328Y0515792D03*
X0267328Y0516068D03*
X0267328Y0514808D03*
X0267328Y0514532D03*
X0265320Y0514808D03*
X0265320Y0514926D03*
X0265320Y0515556D03*
X0265320Y0515674D03*
X0264178Y0515044D03*
X0264178Y0514926D03*
X0264178Y0514808D03*
X0264178Y0514532D03*
X0261146Y0514532D03*
X0261146Y0514414D03*
X0261146Y0514808D03*
X0261146Y0514926D03*
X0261146Y0515044D03*
X0261146Y0516068D03*
X0261146Y0516186D03*
X0261146Y0516304D03*
X0261146Y0516422D03*
X0284335Y0515792D03*
X0284335Y0515674D03*
X0284454Y0515556D03*
X0284454Y0515438D03*
X0284454Y0515162D03*
X0284454Y0515044D03*
X0284335Y0514808D03*
D12*
X0278469Y0515162D03*
X0276580Y0515162D03*
X0276461Y0514414D03*
X0275831Y0513666D03*
X0275083Y0514414D03*
X0275083Y0515162D03*
X0272564Y0515044D03*
X0270044Y0515044D03*
X0270044Y0514532D03*
X0266894Y0516934D03*
X0263981Y0514414D03*
X0263351Y0513666D03*
X0262603Y0514414D03*
X0262603Y0515162D03*
X0261225Y0515162D03*
X0268144Y0372184D03*
X0271294Y0370294D03*
X0271294Y0369782D03*
X0273814Y0370294D03*
X0276333Y0370412D03*
X0276333Y0369664D03*
X0277081Y0368916D03*
X0277711Y0369664D03*
X0277830Y0370412D03*
X0279719Y0370412D03*
X0265231Y0369664D03*
X0264601Y0368916D03*
X0263853Y0369664D03*
X0263853Y0370412D03*
X0262475Y0370412D03*
X0268144Y0322184D03*
X0271294Y0320294D03*
X0271294Y0319782D03*
X0273814Y0320294D03*
X0276333Y0320412D03*
X0276333Y0319664D03*
X0277081Y0318916D03*
X0277711Y0319664D03*
X0277830Y0320412D03*
X0279719Y0320412D03*
X0279564Y0317068D03*
X0279564Y0316438D03*
X0278304Y0316162D03*
X0277674Y0317422D03*
X0273383Y0317068D03*
X0272005Y0317068D03*
X0272005Y0315414D03*
X0273383Y0315414D03*
X0265231Y0319664D03*
X0264601Y0318916D03*
X0263853Y0319664D03*
X0263853Y0320412D03*
X0262475Y0320412D03*
X0260784Y0317934D03*
X0259406Y0315532D03*
X0256257Y0315414D03*
X0282950Y0316162D03*
X0283580Y0317422D03*
X0287123Y0315532D03*
X0289879Y0316438D03*
X0289879Y0317068D03*
G36*
X0312414Y0290750D02*
X0312098Y0291723D01*
X0312210Y0291760D01*
X0312526Y0290787D01*
X0312414Y0290750D01*
G37*
G36*
X0316009Y0281475D02*
X0315693Y0282448D01*
X0315805Y0282485D01*
X0316121Y0281512D01*
X0316009Y0281475D01*
G37*
G36*
X0314190Y0279683D02*
X0313874Y0280656D01*
X0313986Y0280693D01*
X0314302Y0279720D01*
X0314190Y0279683D01*
G37*
G36*
X0314002Y0279498D02*
X0313686Y0280471D01*
X0313798Y0280508D01*
X0314114Y0279535D01*
X0314002Y0279498D01*
G37*
G36*
X0313527Y0261270D02*
X0313843Y0262243D01*
X0313955Y0262206D01*
X0313639Y0261233D01*
X0313527Y0261270D01*
G37*
G36*
X0313229Y0261243D02*
X0313545Y0262216D01*
X0313657Y0262179D01*
X0313341Y0261206D01*
X0313229Y0261243D01*
G37*
G36*
X0310378Y0258880D02*
X0310694Y0259853D01*
X0310806Y0259816D01*
X0310490Y0258843D01*
X0310378Y0258880D01*
G37*
G36*
X0310265Y0255729D02*
X0310581Y0256702D01*
X0310693Y0256665D01*
X0310377Y0255692D01*
X0310265Y0255729D01*
G37*
G36*
X0309906Y0253734D02*
X0310222Y0254707D01*
X0310334Y0254670D01*
X0310018Y0253697D01*
X0309906Y0253734D01*
G37*
G36*
X0311141Y0253457D02*
X0311457Y0254430D01*
X0311569Y0254393D01*
X0311253Y0253420D01*
X0311141Y0253457D01*
G37*
G36*
X0311761Y0255367D02*
X0312077Y0256340D01*
X0312189Y0256303D01*
X0311873Y0255330D01*
X0311761Y0255367D01*
G37*
G36*
X0361439Y0257210D02*
X0361598Y0258220D01*
X0361715Y0258202D01*
X0361556Y0257192D01*
X0361439Y0257210D01*
G37*
G36*
X0361820Y0254080D02*
X0361979Y0255090D01*
X0362096Y0255072D01*
X0361937Y0254062D01*
X0361820Y0254080D01*
G37*
G36*
X0361778Y0252054D02*
X0361937Y0253064D01*
X0362054Y0253046D01*
X0361895Y0252036D01*
X0361778Y0252054D01*
G37*
G36*
X0363041Y0251974D02*
X0363200Y0252984D01*
X0363317Y0252966D01*
X0363158Y0251956D01*
X0363041Y0251974D01*
G37*
G36*
X0363355Y0253957D02*
X0363514Y0254967D01*
X0363631Y0254949D01*
X0363472Y0253939D01*
X0363355Y0253957D01*
G37*
G36*
X0364018Y0259767D02*
X0364177Y0260777D01*
X0364294Y0260759D01*
X0364135Y0259749D01*
X0364018Y0259767D01*
G37*
G36*
X0364309Y0259840D02*
X0364468Y0260850D01*
X0364585Y0260832D01*
X0364426Y0259822D01*
X0364309Y0259840D01*
G37*
G36*
X0363357Y0280653D02*
X0363216Y0281666D01*
X0363333Y0281683D01*
X0363474Y0280670D01*
X0363357Y0280653D01*
G37*
G36*
X0363574Y0280802D02*
X0363433Y0281815D01*
X0363550Y0281832D01*
X0363691Y0280819D01*
X0363574Y0280802D01*
G37*
G36*
X0365677Y0282251D02*
X0365536Y0283264D01*
X0365653Y0283281D01*
X0365794Y0282268D01*
X0365677Y0282251D01*
G37*
G36*
X0363332Y0292266D02*
X0363191Y0293279D01*
X0363308Y0293296D01*
X0363449Y0292283D01*
X0363332Y0292266D01*
G37*
G36*
X0505426Y0280925D02*
X0505361Y0281946D01*
X0505478Y0281953D01*
X0505543Y0280932D01*
X0505426Y0280925D01*
G37*
G36*
X0505654Y0281058D02*
X0505589Y0282079D01*
X0505706Y0282086D01*
X0505771Y0281065D01*
X0505654Y0281058D01*
G37*
G36*
X0507861Y0282340D02*
X0507796Y0283361D01*
X0507913Y0283368D01*
X0507978Y0282347D01*
X0507861Y0282340D01*
G37*
G36*
X0506270Y0292680D02*
X0506205Y0293701D01*
X0506322Y0293708D01*
X0506387Y0292687D01*
X0506270Y0292680D01*
G37*
G36*
X0506929Y0258561D02*
X0506994Y0259582D01*
X0507111Y0259575D01*
X0507046Y0258554D01*
X0506929Y0258561D01*
G37*
G36*
X0506646Y0258461D02*
X0506711Y0259482D01*
X0506828Y0259475D01*
X0506763Y0258454D01*
X0506646Y0258461D01*
G37*
G36*
X0504334Y0256506D02*
X0504399Y0257527D01*
X0504516Y0257520D01*
X0504451Y0256499D01*
X0504334Y0256506D01*
G37*
G36*
X0505008Y0253426D02*
X0505073Y0254447D01*
X0505190Y0254440D01*
X0505125Y0253419D01*
X0505008Y0253426D01*
G37*
G36*
X0505157Y0251405D02*
X0505222Y0252426D01*
X0505339Y0252419D01*
X0505274Y0251398D01*
X0505157Y0251405D01*
G37*
G36*
X0506421Y0251443D02*
X0506486Y0252464D01*
X0506603Y0252457D01*
X0506538Y0251436D01*
X0506421Y0251443D01*
G37*
G36*
X0506548Y0253447D02*
X0506613Y0254468D01*
X0506730Y0254461D01*
X0506665Y0253440D01*
X0506548Y0253447D01*
G37*
D13*
G36*
X0504070Y0291280D02*
X0503973Y0292810D01*
X0504090Y0292818D01*
X0504187Y0291288D01*
X0504070Y0291280D01*
G37*
G36*
X0361246Y0290702D02*
X0361033Y0292220D01*
X0361150Y0292236D01*
X0361363Y0290718D01*
X0361246Y0290702D01*
G37*
G36*
X0310630Y0288848D02*
X0310157Y0290306D01*
X0310270Y0290342D01*
X0310743Y0288884D01*
X0310630Y0288848D01*
G37*
X0290646Y0315808D03*
X0284385Y0322066D03*
X0275017Y0317068D03*
X0275017Y0316674D03*
X0284385Y0372066D03*
X0283135Y0516816D03*
D14*
X0283135Y0513784D03*
X0266757Y0516816D03*
X0263371Y0515674D03*
X0263371Y0513902D03*
X0268007Y0372066D03*
X0264621Y0370924D03*
X0264621Y0369152D03*
X0284385Y0369034D03*
X0268007Y0322066D03*
X0264621Y0320924D03*
X0264621Y0319152D03*
X0260646Y0317816D03*
X0256749Y0316674D03*
X0256749Y0316556D03*
X0256749Y0316438D03*
X0256749Y0314784D03*
X0277654Y0316674D03*
X0280686Y0317816D03*
X0280804Y0315532D03*
X0283599Y0316674D03*
X0284385Y0319034D03*
G36*
X0312459Y0282971D02*
X0311913Y0284655D01*
X0312025Y0284691D01*
X0312571Y0283007D01*
X0312459Y0282971D01*
G37*
G36*
X0313584Y0283585D02*
X0313038Y0285269D01*
X0313150Y0285305D01*
X0313696Y0283621D01*
X0313584Y0283585D01*
G37*
G36*
X0315269Y0280821D02*
X0314723Y0282505D01*
X0314835Y0282541D01*
X0315381Y0280857D01*
X0315269Y0280821D01*
G37*
G36*
X0315371Y0264521D02*
X0315917Y0266205D01*
X0316029Y0266169D01*
X0315483Y0264485D01*
X0315371Y0264521D01*
G37*
G36*
X0314434Y0261637D02*
X0314980Y0263321D01*
X0315092Y0263285D01*
X0314546Y0261601D01*
X0314434Y0261637D01*
G37*
G36*
X0310332Y0258356D02*
X0310878Y0260040D01*
X0310990Y0260004D01*
X0310444Y0258320D01*
X0310332Y0258356D01*
G37*
G36*
X0312048Y0253825D02*
X0312594Y0255509D01*
X0312706Y0255473D01*
X0312160Y0253789D01*
X0312048Y0253825D01*
G37*
G36*
X0361476Y0256686D02*
X0361752Y0258435D01*
X0361868Y0258416D01*
X0361592Y0256667D01*
X0361476Y0256686D01*
G37*
G36*
X0363879Y0252479D02*
X0364155Y0254228D01*
X0364271Y0254209D01*
X0363995Y0252460D01*
X0363879Y0252479D01*
G37*
G36*
X0365147Y0260346D02*
X0365423Y0262095D01*
X0365539Y0262076D01*
X0365263Y0260327D01*
X0365147Y0260346D01*
G37*
G36*
X0365621Y0263340D02*
X0365897Y0265089D01*
X0366013Y0265070D01*
X0365737Y0263321D01*
X0365621Y0263340D01*
G37*
G36*
X0364835Y0281735D02*
X0364590Y0283489D01*
X0364707Y0283505D01*
X0364952Y0281751D01*
X0364835Y0281735D01*
G37*
G36*
X0363656Y0284750D02*
X0363411Y0286504D01*
X0363528Y0286520D01*
X0363773Y0284766D01*
X0363656Y0284750D01*
G37*
G36*
X0362441Y0284341D02*
X0362196Y0286095D01*
X0362313Y0286111D01*
X0362558Y0284357D01*
X0362441Y0284341D01*
G37*
G36*
X0504795Y0284672D02*
X0504684Y0286439D01*
X0504801Y0286446D01*
X0504912Y0284679D01*
X0504795Y0284672D01*
G37*
G36*
X0506038Y0284987D02*
X0505927Y0286754D01*
X0506044Y0286761D01*
X0506155Y0284994D01*
X0506038Y0284987D01*
G37*
G36*
X0506982Y0281891D02*
X0506871Y0283658D01*
X0506988Y0283665D01*
X0507099Y0281898D01*
X0506982Y0281891D01*
G37*
G36*
X0507906Y0262169D02*
X0508017Y0263936D01*
X0508134Y0263929D01*
X0508023Y0262162D01*
X0507906Y0262169D01*
G37*
G36*
X0507715Y0259143D02*
X0507826Y0260910D01*
X0507943Y0260903D01*
X0507832Y0259136D01*
X0507715Y0259143D01*
G37*
G36*
X0504420Y0255988D02*
X0504531Y0257755D01*
X0504648Y0257748D01*
X0504537Y0255981D01*
X0504420Y0255988D01*
G37*
G36*
X0507208Y0252025D02*
X0507319Y0253792D01*
X0507436Y0253785D01*
X0507325Y0252018D01*
X0507208Y0252025D01*
G37*
D15*
G36*
X0504890Y0281286D02*
X0504875Y0281521D01*
X0504992Y0281528D01*
X0505007Y0281293D01*
X0504890Y0281286D01*
G37*
G36*
X0362796Y0280971D02*
X0362764Y0281204D01*
X0362880Y0281221D01*
X0362912Y0280988D01*
X0362796Y0280971D01*
G37*
G36*
X0313394Y0279715D02*
X0313321Y0279938D01*
X0313432Y0279975D01*
X0313505Y0279752D01*
X0313394Y0279715D01*
G37*
X0275391Y0316438D03*
X0277081Y0321318D03*
X0264601Y0321318D03*
X0262475Y0322066D03*
X0264601Y0371318D03*
X0262475Y0372066D03*
X0277081Y0371318D03*
X0275831Y0516068D03*
X0263351Y0516068D03*
X0261225Y0516816D03*
D16*
X0261028Y0515792D03*
X0261028Y0515674D03*
X0261028Y0515556D03*
X0261028Y0515438D03*
X0278036Y0515438D03*
X0278036Y0515556D03*
X0278036Y0515674D03*
X0278036Y0515792D03*
X0283194Y0516698D03*
X0284444Y0371948D03*
X0279286Y0371042D03*
X0279286Y0370924D03*
X0279286Y0370806D03*
X0279286Y0370688D03*
X0262278Y0370688D03*
X0262278Y0370806D03*
X0262278Y0370924D03*
X0262278Y0371042D03*
X0262278Y0321042D03*
X0262278Y0320924D03*
X0262278Y0320806D03*
X0262278Y0320688D03*
X0263619Y0316674D03*
X0272674Y0314902D03*
X0277595Y0316556D03*
X0279286Y0320688D03*
X0279286Y0320806D03*
X0279286Y0320924D03*
X0279286Y0321042D03*
X0284444Y0321948D03*
X0283658Y0316556D03*
X0256808Y0314902D03*
X0256690Y0315178D03*
G36*
X0311663Y0262538D02*
X0312246Y0264334D01*
X0312359Y0264298D01*
X0311776Y0262502D01*
X0311663Y0262538D01*
G37*
G36*
X0312599Y0265421D02*
X0313182Y0267217D01*
X0313295Y0267181D01*
X0312712Y0265385D01*
X0312599Y0265421D01*
G37*
G36*
X0309240Y0254613D02*
X0309823Y0256409D01*
X0309936Y0256373D01*
X0309353Y0254577D01*
X0309240Y0254613D01*
G37*
G36*
X0312945Y0283130D02*
X0312362Y0284926D01*
X0312475Y0284962D01*
X0313058Y0283166D01*
X0312945Y0283130D01*
G37*
G36*
X0313058Y0283166D02*
X0312475Y0284962D01*
X0312588Y0284998D01*
X0313171Y0283202D01*
X0313058Y0283166D01*
G37*
G36*
X0313733Y0283510D02*
X0313150Y0285306D01*
X0313263Y0285342D01*
X0313846Y0283546D01*
X0313733Y0283510D01*
G37*
G36*
X0315193Y0283984D02*
X0314610Y0285780D01*
X0314723Y0285816D01*
X0315306Y0284020D01*
X0315193Y0283984D01*
G37*
G36*
X0313586Y0289559D02*
X0313003Y0291355D01*
X0313116Y0291391D01*
X0313699Y0289595D01*
X0313586Y0289559D01*
G37*
G36*
X0360982Y0252818D02*
X0361277Y0254684D01*
X0361394Y0254666D01*
X0361099Y0252800D01*
X0360982Y0252818D01*
G37*
G36*
X0362269Y0260801D02*
X0362564Y0262667D01*
X0362681Y0262649D01*
X0362386Y0260783D01*
X0362269Y0260801D01*
G37*
G36*
X0362743Y0263795D02*
X0363038Y0265661D01*
X0363155Y0265643D01*
X0362860Y0263777D01*
X0362743Y0263795D01*
G37*
G36*
X0362949Y0284412D02*
X0362687Y0286283D01*
X0362803Y0286300D01*
X0363065Y0284429D01*
X0362949Y0284412D01*
G37*
G36*
X0363066Y0284428D02*
X0362804Y0286299D01*
X0362920Y0286316D01*
X0363182Y0284445D01*
X0363066Y0284428D01*
G37*
G36*
X0363790Y0284649D02*
X0363528Y0286520D01*
X0363644Y0286537D01*
X0363906Y0284666D01*
X0363790Y0284649D01*
G37*
G36*
X0365310Y0284863D02*
X0365048Y0286734D01*
X0365164Y0286751D01*
X0365426Y0284880D01*
X0365310Y0284863D01*
G37*
G36*
X0364282Y0290889D02*
X0364020Y0292760D01*
X0364136Y0292777D01*
X0364398Y0290906D01*
X0364282Y0290889D01*
G37*
G36*
X0505305Y0284705D02*
X0505187Y0286590D01*
X0505305Y0286597D01*
X0505423Y0284712D01*
X0505305Y0284705D01*
G37*
G36*
X0505423Y0284712D02*
X0505305Y0286597D01*
X0505423Y0286604D01*
X0505541Y0284719D01*
X0505423Y0284712D01*
G37*
G36*
X0506162Y0284877D02*
X0506044Y0286762D01*
X0506162Y0286769D01*
X0506280Y0284884D01*
X0506162Y0284877D01*
G37*
G36*
X0507695Y0284973D02*
X0507577Y0286858D01*
X0507695Y0286865D01*
X0507813Y0284980D01*
X0507695Y0284973D01*
G37*
G36*
X0507109Y0291234D02*
X0506991Y0293119D01*
X0507109Y0293126D01*
X0507227Y0291241D01*
X0507109Y0291234D01*
G37*
G36*
X0504998Y0262352D02*
X0505116Y0264237D01*
X0505234Y0264230D01*
X0505116Y0262345D01*
X0504998Y0262352D01*
G37*
G36*
X0504808Y0259326D02*
X0504926Y0261211D01*
X0505044Y0261204D01*
X0504926Y0259319D01*
X0504808Y0259326D01*
G37*
G36*
X0504293Y0252090D02*
X0504411Y0253975D01*
X0504529Y0253968D01*
X0504411Y0252083D01*
X0504293Y0252090D01*
G37*
D17*
G36*
X0507075Y0251797D02*
X0507207Y0253918D01*
X0507325Y0253911D01*
X0507193Y0251790D01*
X0507075Y0251797D01*
G37*
G36*
X0507431Y0255561D02*
X0507563Y0257682D01*
X0507681Y0257675D01*
X0507549Y0255554D01*
X0507431Y0255561D01*
G37*
G36*
X0504523Y0255744D02*
X0504655Y0257865D01*
X0504773Y0257858D01*
X0504641Y0255737D01*
X0504523Y0255744D01*
G37*
G36*
X0507781Y0262058D02*
X0507913Y0264179D01*
X0508031Y0264172D01*
X0507899Y0262051D01*
X0507781Y0262058D01*
G37*
G36*
X0506569Y0284666D02*
X0506437Y0286787D01*
X0506555Y0286794D01*
X0506687Y0284673D01*
X0506569Y0284666D01*
G37*
G36*
X0507316Y0284713D02*
X0507184Y0286834D01*
X0507302Y0286841D01*
X0507434Y0284720D01*
X0507316Y0284713D01*
G37*
G36*
X0507427Y0284838D02*
X0507295Y0286959D01*
X0507413Y0286966D01*
X0507545Y0284845D01*
X0507427Y0284838D01*
G37*
G36*
X0506999Y0291109D02*
X0506867Y0293230D01*
X0506985Y0293237D01*
X0507117Y0291116D01*
X0506999Y0291109D01*
G37*
G36*
X0365054Y0284708D02*
X0364759Y0286812D01*
X0364876Y0286828D01*
X0365171Y0284724D01*
X0365054Y0284708D01*
G37*
G36*
X0364953Y0284575D02*
X0364658Y0286679D01*
X0364775Y0286695D01*
X0365070Y0284591D01*
X0364953Y0284575D01*
G37*
G36*
X0364212Y0284471D02*
X0363917Y0286575D01*
X0364034Y0286591D01*
X0364329Y0284487D01*
X0364212Y0284471D01*
G37*
G36*
X0364181Y0290756D02*
X0363886Y0292860D01*
X0364003Y0292876D01*
X0364298Y0290772D01*
X0364181Y0290756D01*
G37*
G36*
X0365486Y0263242D02*
X0365818Y0265341D01*
X0365934Y0265322D01*
X0365602Y0263223D01*
X0365486Y0263242D01*
G37*
G36*
X0361555Y0256435D02*
X0361887Y0258534D01*
X0362003Y0258515D01*
X0361671Y0256416D01*
X0361555Y0256435D01*
G37*
G36*
X0364433Y0255979D02*
X0364765Y0258078D01*
X0364881Y0258059D01*
X0364549Y0255960D01*
X0364433Y0255979D01*
G37*
G36*
X0363725Y0252264D02*
X0364057Y0254363D01*
X0364173Y0254344D01*
X0363841Y0252245D01*
X0363725Y0252264D01*
G37*
G36*
X0315222Y0264445D02*
X0315878Y0266466D01*
X0315990Y0266429D01*
X0315334Y0264408D01*
X0315222Y0264445D01*
G37*
G36*
X0313142Y0257196D02*
X0313798Y0259217D01*
X0313910Y0259180D01*
X0313254Y0257159D01*
X0313142Y0257196D01*
G37*
G36*
X0311862Y0253637D02*
X0312518Y0255658D01*
X0312630Y0255621D01*
X0311974Y0253600D01*
X0311862Y0253637D01*
G37*
G36*
X0310372Y0258096D02*
X0311028Y0260117D01*
X0311140Y0260080D01*
X0310484Y0258059D01*
X0310372Y0258096D01*
G37*
G36*
X0314181Y0283406D02*
X0313525Y0285427D01*
X0313637Y0285464D01*
X0314293Y0283443D01*
X0314181Y0283406D01*
G37*
G36*
X0314892Y0283637D02*
X0314236Y0285658D01*
X0314348Y0285695D01*
X0315004Y0283674D01*
X0314892Y0283637D01*
G37*
G36*
X0314968Y0283786D02*
X0314312Y0285807D01*
X0314424Y0285844D01*
X0315080Y0283823D01*
X0314968Y0283786D01*
G37*
G36*
X0313511Y0289410D02*
X0312855Y0291431D01*
X0312967Y0291468D01*
X0313623Y0289447D01*
X0313511Y0289410D01*
G37*
X0290706Y0315414D03*
X0284444Y0319152D03*
X0281924Y0320924D03*
X0280627Y0317698D03*
X0280627Y0315808D03*
X0270036Y0315414D03*
X0270349Y0319152D03*
X0270349Y0320924D03*
X0267948Y0321948D03*
X0263501Y0316556D03*
X0263501Y0316438D03*
X0263501Y0316162D03*
X0263501Y0316044D03*
X0266020Y0314666D03*
X0260587Y0317698D03*
X0270349Y0369152D03*
X0270349Y0370924D03*
X0267948Y0371948D03*
X0281924Y0370924D03*
X0284444Y0369152D03*
X0283194Y0513902D03*
X0280674Y0515674D03*
X0269099Y0515674D03*
X0269099Y0513902D03*
X0266698Y0516698D03*
D18*
X0265261Y0515438D03*
X0265261Y0515162D03*
X0265261Y0515044D03*
X0269394Y0513666D03*
X0271166Y0513784D03*
X0271166Y0513902D03*
X0272544Y0513784D03*
X0279749Y0513784D03*
X0282505Y0514414D03*
X0284394Y0514926D03*
X0261206Y0516698D03*
X0262456Y0371948D03*
X0266511Y0370688D03*
X0266511Y0370412D03*
X0266511Y0370294D03*
X0270644Y0368916D03*
X0272416Y0369034D03*
X0272416Y0369152D03*
X0273794Y0369034D03*
X0280999Y0369034D03*
X0283755Y0369664D03*
X0285644Y0370176D03*
X0285644Y0320176D03*
X0283755Y0319664D03*
X0283599Y0317698D03*
X0280999Y0319034D03*
X0277654Y0317698D03*
X0276394Y0314784D03*
X0278914Y0314784D03*
X0282339Y0314784D03*
X0284859Y0314784D03*
X0290646Y0317934D03*
X0273794Y0319034D03*
X0272416Y0319034D03*
X0272416Y0319152D03*
X0270644Y0318916D03*
X0269977Y0317934D03*
X0271867Y0316674D03*
X0271867Y0315808D03*
X0273520Y0316792D03*
X0266828Y0317698D03*
X0266828Y0317816D03*
X0266511Y0320294D03*
X0266511Y0320412D03*
X0266511Y0320688D03*
X0262456Y0321948D03*
X0258127Y0317698D03*
X0258127Y0317422D03*
X0258127Y0317304D03*
X0258127Y0317186D03*
X0258127Y0317068D03*
X0259150Y0316438D03*
X0259150Y0316162D03*
X0259150Y0316044D03*
X0256119Y0315296D03*
G36*
X0311430Y0290846D02*
X0311200Y0291556D01*
X0311312Y0291592D01*
X0311542Y0290882D01*
X0311430Y0290846D01*
G37*
G36*
X0311692Y0290931D02*
X0311462Y0291641D01*
X0311574Y0291677D01*
X0311804Y0290967D01*
X0311692Y0290931D01*
G37*
G36*
X0314354Y0284912D02*
X0314124Y0285622D01*
X0314236Y0285658D01*
X0314466Y0284948D01*
X0314354Y0284912D01*
G37*
G36*
X0312818Y0284289D02*
X0312588Y0284999D01*
X0312700Y0285035D01*
X0312930Y0284325D01*
X0312818Y0284289D01*
G37*
G36*
X0312924Y0281922D02*
X0312694Y0282632D01*
X0312806Y0282668D01*
X0313036Y0281958D01*
X0312924Y0281922D01*
G37*
G36*
X0314840Y0281758D02*
X0314610Y0282468D01*
X0314722Y0282504D01*
X0314952Y0281794D01*
X0314840Y0281758D01*
G37*
G36*
X0316084Y0281624D02*
X0315854Y0282334D01*
X0315966Y0282370D01*
X0316196Y0281660D01*
X0316084Y0281624D01*
G37*
G36*
X0314735Y0264603D02*
X0314965Y0265313D01*
X0315077Y0265277D01*
X0314847Y0264567D01*
X0314735Y0264603D01*
G37*
G36*
X0313783Y0263712D02*
X0314013Y0264422D01*
X0314125Y0264386D01*
X0313895Y0263676D01*
X0313783Y0263712D01*
G37*
G36*
X0313671Y0263748D02*
X0313901Y0264458D01*
X0314013Y0264422D01*
X0313783Y0263712D01*
X0313671Y0263748D01*
G37*
G36*
X0313409Y0263834D02*
X0313639Y0264544D01*
X0313751Y0264508D01*
X0313521Y0263798D01*
X0313409Y0263834D01*
G37*
G36*
X0311597Y0263098D02*
X0311827Y0263808D01*
X0311939Y0263772D01*
X0311709Y0263062D01*
X0311597Y0263098D01*
G37*
G36*
X0311226Y0257031D02*
X0311456Y0257741D01*
X0311568Y0257705D01*
X0311338Y0256995D01*
X0311226Y0257031D01*
G37*
G36*
X0309210Y0255285D02*
X0309440Y0255995D01*
X0309552Y0255959D01*
X0309322Y0255249D01*
X0309210Y0255285D01*
G37*
G36*
X0310618Y0253503D02*
X0310848Y0254213D01*
X0310960Y0254177D01*
X0310730Y0253467D01*
X0310618Y0253503D01*
G37*
G36*
X0360848Y0253477D02*
X0360964Y0254215D01*
X0361080Y0254197D01*
X0360964Y0253459D01*
X0360848Y0253477D01*
G37*
G36*
X0362517Y0251937D02*
X0362633Y0252675D01*
X0362749Y0252657D01*
X0362633Y0251919D01*
X0362517Y0251937D01*
G37*
G36*
X0362566Y0255517D02*
X0362682Y0256255D01*
X0362798Y0256237D01*
X0362682Y0255499D01*
X0362566Y0255517D01*
G37*
G36*
X0362116Y0261343D02*
X0362232Y0262081D01*
X0362348Y0262063D01*
X0362232Y0261325D01*
X0362116Y0261343D01*
G37*
G36*
X0363791Y0262354D02*
X0363907Y0263092D01*
X0364023Y0263074D01*
X0363907Y0262336D01*
X0363791Y0262354D01*
G37*
G36*
X0364063Y0262311D02*
X0364179Y0263049D01*
X0364295Y0263031D01*
X0364179Y0262293D01*
X0364063Y0262311D01*
G37*
G36*
X0364180Y0262292D02*
X0364296Y0263030D01*
X0364412Y0263012D01*
X0364296Y0262274D01*
X0364180Y0262292D01*
G37*
G36*
X0364981Y0263321D02*
X0365097Y0264059D01*
X0365213Y0264041D01*
X0365097Y0263303D01*
X0364981Y0263321D01*
G37*
G36*
X0365779Y0282385D02*
X0365675Y0283125D01*
X0365791Y0283141D01*
X0365895Y0282401D01*
X0365779Y0282385D01*
G37*
G36*
X0364577Y0282733D02*
X0364473Y0283473D01*
X0364589Y0283489D01*
X0364693Y0282749D01*
X0364577Y0282733D01*
G37*
G36*
X0362718Y0283227D02*
X0362614Y0283967D01*
X0362730Y0283983D01*
X0362834Y0283243D01*
X0362718Y0283227D01*
G37*
G36*
X0363024Y0285576D02*
X0362920Y0286316D01*
X0363036Y0286332D01*
X0363140Y0285592D01*
X0363024Y0285576D01*
G37*
G36*
X0364645Y0285923D02*
X0364541Y0286663D01*
X0364657Y0286679D01*
X0364761Y0285939D01*
X0364645Y0285923D01*
G37*
G36*
X0362654Y0292569D02*
X0362550Y0293309D01*
X0362666Y0293325D01*
X0362770Y0292585D01*
X0362654Y0292569D01*
G37*
G36*
X0362382Y0292530D02*
X0362278Y0293270D01*
X0362394Y0293286D01*
X0362498Y0292546D01*
X0362382Y0292530D01*
G37*
G36*
X0504985Y0283541D02*
X0504938Y0284286D01*
X0505055Y0284293D01*
X0505102Y0283548D01*
X0504985Y0283541D01*
G37*
G36*
X0506800Y0282905D02*
X0506753Y0283650D01*
X0506870Y0283657D01*
X0506917Y0282912D01*
X0506800Y0282905D01*
G37*
G36*
X0507971Y0282466D02*
X0507924Y0283211D01*
X0508041Y0283218D01*
X0508088Y0282473D01*
X0507971Y0282466D01*
G37*
G36*
X0507113Y0286081D02*
X0507066Y0286826D01*
X0507183Y0286833D01*
X0507230Y0286088D01*
X0507113Y0286081D01*
G37*
G36*
X0505470Y0285859D02*
X0505423Y0286604D01*
X0505540Y0286611D01*
X0505587Y0285866D01*
X0505470Y0285859D01*
G37*
G36*
X0505341Y0293017D02*
X0505294Y0293762D01*
X0505411Y0293769D01*
X0505458Y0293024D01*
X0505341Y0293017D01*
G37*
G36*
X0505616Y0293034D02*
X0505569Y0293779D01*
X0505686Y0293786D01*
X0505733Y0293041D01*
X0505616Y0293034D01*
G37*
G36*
X0507270Y0262091D02*
X0507317Y0262836D01*
X0507434Y0262829D01*
X0507387Y0262084D01*
X0507270Y0262091D01*
G37*
G36*
X0506569Y0260991D02*
X0506616Y0261736D01*
X0506733Y0261729D01*
X0506686Y0260984D01*
X0506569Y0260991D01*
G37*
G36*
X0506451Y0260998D02*
X0506498Y0261743D01*
X0506615Y0261736D01*
X0506568Y0260991D01*
X0506451Y0260998D01*
G37*
G36*
X0506176Y0261015D02*
X0506223Y0261760D01*
X0506340Y0261753D01*
X0506293Y0261008D01*
X0506176Y0261015D01*
G37*
G36*
X0504604Y0259852D02*
X0504651Y0260597D01*
X0504768Y0260590D01*
X0504721Y0259845D01*
X0504604Y0259852D01*
G37*
G36*
X0505615Y0254926D02*
X0505662Y0255671D01*
X0505779Y0255664D01*
X0505732Y0254919D01*
X0505615Y0254926D01*
G37*
G36*
X0504097Y0252734D02*
X0504144Y0253479D01*
X0504261Y0253472D01*
X0504214Y0252727D01*
X0504097Y0252734D01*
G37*
G36*
X0505904Y0251358D02*
X0505951Y0252103D01*
X0506068Y0252096D01*
X0506021Y0251351D01*
X0505904Y0251358D01*
G37*
D19*
G36*
X0505102Y0262109D02*
X0505243Y0264347D01*
X0505398Y0264337D01*
X0505257Y0262099D01*
X0505102Y0262109D01*
G37*
G36*
X0504329Y0290941D02*
X0504188Y0293179D01*
X0504343Y0293189D01*
X0504484Y0290951D01*
X0504329Y0290941D01*
G37*
G36*
X0361530Y0290384D02*
X0361219Y0292605D01*
X0361374Y0292626D01*
X0361685Y0290405D01*
X0361530Y0290384D01*
G37*
G36*
X0362824Y0263544D02*
X0363174Y0265759D01*
X0363328Y0265734D01*
X0362978Y0263519D01*
X0362824Y0263544D01*
G37*
G36*
X0312640Y0265160D02*
X0313332Y0267293D01*
X0313480Y0267244D01*
X0312788Y0265111D01*
X0312640Y0265160D01*
G37*
G36*
X0310966Y0288583D02*
X0310274Y0290716D01*
X0310422Y0290765D01*
X0311114Y0288632D01*
X0310966Y0288583D01*
G37*
X0280568Y0317560D03*
X0284385Y0321810D03*
X0270408Y0319290D03*
X0270408Y0369290D03*
X0284385Y0371810D03*
X0269158Y0514040D03*
X0283135Y0516560D03*
D20*
X0284454Y0515300D03*
X0281304Y0515930D03*
X0281304Y0516560D03*
X0281304Y0514670D03*
X0281304Y0514040D03*
X0278548Y0514040D03*
X0278548Y0514670D03*
X0276658Y0514670D03*
X0275005Y0514670D03*
X0272485Y0514670D03*
X0272485Y0514040D03*
X0271225Y0514040D03*
X0271225Y0514670D03*
X0268469Y0514670D03*
X0267328Y0514670D03*
X0267328Y0515300D03*
X0267328Y0515930D03*
X0264178Y0514670D03*
X0261146Y0514670D03*
X0261146Y0516560D03*
X0262396Y0371810D03*
X0262396Y0369920D03*
X0265428Y0369920D03*
X0268578Y0369920D03*
X0268578Y0370550D03*
X0268578Y0371180D03*
X0269719Y0369920D03*
X0272475Y0369920D03*
X0272475Y0369290D03*
X0273735Y0369290D03*
X0273735Y0369920D03*
X0276255Y0369920D03*
X0277908Y0369920D03*
X0279798Y0369920D03*
X0279798Y0369290D03*
X0282554Y0369290D03*
X0282554Y0369920D03*
X0282554Y0371180D03*
X0282554Y0371810D03*
X0285704Y0370550D03*
X0282554Y0321810D03*
X0282554Y0321180D03*
X0282554Y0319920D03*
X0282554Y0319290D03*
X0283658Y0317560D03*
X0283028Y0316300D03*
X0282398Y0315040D03*
X0281257Y0315040D03*
X0281257Y0316930D03*
X0279485Y0316930D03*
X0278225Y0316300D03*
X0277595Y0317560D03*
X0277908Y0319920D03*
X0276255Y0319920D03*
X0273735Y0319920D03*
X0273735Y0319290D03*
X0272475Y0319290D03*
X0272475Y0319920D03*
X0269719Y0319920D03*
X0268578Y0319920D03*
X0268578Y0320550D03*
X0268578Y0321180D03*
X0265428Y0319920D03*
X0266769Y0317560D03*
X0266769Y0316930D03*
X0266769Y0316300D03*
X0266769Y0315670D03*
X0264131Y0315670D03*
X0264131Y0316930D03*
X0261217Y0316930D03*
X0261217Y0316300D03*
X0261217Y0315670D03*
X0259091Y0316300D03*
X0262396Y0319920D03*
X0262396Y0321810D03*
X0269170Y0316930D03*
X0271808Y0316300D03*
X0271926Y0315670D03*
X0271926Y0316930D03*
X0273580Y0316300D03*
X0278855Y0315040D03*
X0279798Y0319290D03*
X0279798Y0319920D03*
X0285704Y0320550D03*
X0287044Y0316930D03*
X0287044Y0316300D03*
X0287044Y0315670D03*
X0288698Y0315670D03*
X0288698Y0316300D03*
X0288698Y0316930D03*
X0291454Y0316930D03*
G36*
X0311543Y0290882D02*
X0311277Y0291704D01*
X0311425Y0291752D01*
X0311691Y0290930D01*
X0311543Y0290882D01*
G37*
G36*
X0312799Y0289055D02*
X0312533Y0289877D01*
X0312681Y0289925D01*
X0312947Y0289103D01*
X0312799Y0289055D01*
G37*
G36*
X0312931Y0284325D02*
X0312665Y0285147D01*
X0312813Y0285195D01*
X0313079Y0284373D01*
X0312931Y0284325D01*
G37*
G36*
X0314518Y0283516D02*
X0314252Y0284338D01*
X0314400Y0284386D01*
X0314666Y0283564D01*
X0314518Y0283516D01*
G37*
G36*
X0313746Y0281817D02*
X0313480Y0282639D01*
X0313628Y0282687D01*
X0313894Y0281865D01*
X0313746Y0281817D01*
G37*
G36*
X0314856Y0280439D02*
X0314590Y0281261D01*
X0314738Y0281309D01*
X0315004Y0280487D01*
X0314856Y0280439D01*
G37*
G36*
X0313852Y0279450D02*
X0313586Y0280272D01*
X0313734Y0280320D01*
X0314000Y0279498D01*
X0313852Y0279450D01*
G37*
G36*
X0314459Y0266680D02*
X0314725Y0267502D01*
X0314873Y0267454D01*
X0314607Y0266632D01*
X0314459Y0266680D01*
G37*
G36*
X0315021Y0266373D02*
X0315287Y0267195D01*
X0315435Y0267147D01*
X0315169Y0266325D01*
X0315021Y0266373D01*
G37*
G36*
X0312671Y0258673D02*
X0312937Y0259495D01*
X0313085Y0259447D01*
X0312819Y0258625D01*
X0312671Y0258673D01*
G37*
G36*
X0312072Y0258868D02*
X0312338Y0259690D01*
X0312486Y0259642D01*
X0312220Y0258820D01*
X0312072Y0258868D01*
G37*
G36*
X0311473Y0259063D02*
X0311739Y0259885D01*
X0311887Y0259837D01*
X0311621Y0259015D01*
X0311473Y0259063D01*
G37*
G36*
X0311099Y0255873D02*
X0311365Y0256695D01*
X0311513Y0256647D01*
X0311247Y0255825D01*
X0311099Y0255873D01*
G37*
G36*
X0311662Y0255566D02*
X0311928Y0256388D01*
X0312076Y0256340D01*
X0311810Y0255518D01*
X0311662Y0255566D01*
G37*
G36*
X0310320Y0253476D02*
X0310586Y0254298D01*
X0310734Y0254250D01*
X0310468Y0253428D01*
X0310320Y0253476D01*
G37*
G36*
X0362227Y0251864D02*
X0362362Y0252718D01*
X0362515Y0252694D01*
X0362380Y0251840D01*
X0362227Y0251864D01*
G37*
G36*
X0363225Y0254137D02*
X0363360Y0254991D01*
X0363513Y0254967D01*
X0363378Y0254113D01*
X0363225Y0254137D01*
G37*
G36*
X0362621Y0254352D02*
X0362756Y0255206D01*
X0362909Y0255182D01*
X0362774Y0254328D01*
X0362621Y0254352D01*
G37*
G36*
X0363114Y0257463D02*
X0363249Y0258317D01*
X0363402Y0258293D01*
X0363267Y0257439D01*
X0363114Y0257463D01*
G37*
G36*
X0362492Y0257562D02*
X0362627Y0258416D01*
X0362780Y0258392D01*
X0362645Y0257538D01*
X0362492Y0257562D01*
G37*
G36*
X0363736Y0257365D02*
X0363871Y0258219D01*
X0364024Y0258195D01*
X0363889Y0257341D01*
X0363736Y0257365D01*
G37*
G36*
X0364986Y0265115D02*
X0365121Y0265969D01*
X0365274Y0265945D01*
X0365139Y0265091D01*
X0364986Y0265115D01*
G37*
G36*
X0364383Y0265330D02*
X0364518Y0266184D01*
X0364671Y0266160D01*
X0364536Y0265306D01*
X0364383Y0265330D01*
G37*
G36*
X0363204Y0280631D02*
X0363083Y0281487D01*
X0363236Y0281509D01*
X0363357Y0280653D01*
X0363204Y0280631D01*
G37*
G36*
X0364363Y0281431D02*
X0364242Y0282287D01*
X0364395Y0282309D01*
X0364516Y0281453D01*
X0364363Y0281431D01*
G37*
G36*
X0363510Y0282980D02*
X0363389Y0283836D01*
X0363542Y0283858D01*
X0363663Y0283002D01*
X0363510Y0282980D01*
G37*
G36*
X0364565Y0284520D02*
X0364444Y0285376D01*
X0364597Y0285398D01*
X0364718Y0284542D01*
X0364565Y0284520D01*
G37*
G36*
X0363142Y0285592D02*
X0363021Y0286448D01*
X0363174Y0286470D01*
X0363295Y0285614D01*
X0363142Y0285592D01*
G37*
G36*
X0363419Y0290529D02*
X0363298Y0291385D01*
X0363451Y0291407D01*
X0363572Y0290551D01*
X0363419Y0290529D01*
G37*
G36*
X0362500Y0292547D02*
X0362379Y0293403D01*
X0362532Y0293425D01*
X0362653Y0292569D01*
X0362500Y0292547D01*
G37*
G36*
X0505460Y0293023D02*
X0505405Y0293887D01*
X0505560Y0293897D01*
X0505615Y0293033D01*
X0505460Y0293023D01*
G37*
G36*
X0506222Y0290941D02*
X0506167Y0291805D01*
X0506322Y0291815D01*
X0506377Y0290951D01*
X0506222Y0290941D01*
G37*
G36*
X0505589Y0285866D02*
X0505534Y0286730D01*
X0505689Y0286740D01*
X0505744Y0285876D01*
X0505589Y0285866D01*
G37*
G36*
X0506925Y0284687D02*
X0506870Y0285551D01*
X0507025Y0285561D01*
X0507080Y0284697D01*
X0506925Y0284687D01*
G37*
G36*
X0505755Y0283233D02*
X0505700Y0284097D01*
X0505855Y0284107D01*
X0505910Y0283243D01*
X0505755Y0283233D01*
G37*
G36*
X0506487Y0281622D02*
X0506432Y0282486D01*
X0506587Y0282496D01*
X0506642Y0281632D01*
X0506487Y0281622D01*
G37*
G36*
X0505269Y0280915D02*
X0505214Y0281779D01*
X0505369Y0281789D01*
X0505424Y0280925D01*
X0505269Y0280915D01*
G37*
G36*
X0506485Y0264033D02*
X0506540Y0264897D01*
X0506695Y0264887D01*
X0506640Y0264023D01*
X0506485Y0264033D01*
G37*
G36*
X0507106Y0263876D02*
X0507161Y0264740D01*
X0507316Y0264730D01*
X0507261Y0263866D01*
X0507106Y0263876D01*
G37*
G36*
X0505349Y0256955D02*
X0505404Y0257819D01*
X0505559Y0257809D01*
X0505504Y0256945D01*
X0505349Y0256955D01*
G37*
G36*
X0505977Y0256915D02*
X0506032Y0257779D01*
X0506187Y0257769D01*
X0506132Y0256905D01*
X0505977Y0256915D01*
G37*
G36*
X0506606Y0256876D02*
X0506661Y0257740D01*
X0506816Y0257730D01*
X0506761Y0256866D01*
X0506606Y0256876D01*
G37*
G36*
X0505780Y0253772D02*
X0505835Y0254636D01*
X0505990Y0254626D01*
X0505935Y0253762D01*
X0505780Y0253772D01*
G37*
G36*
X0506401Y0253614D02*
X0506456Y0254478D01*
X0506611Y0254468D01*
X0506556Y0253604D01*
X0506401Y0253614D01*
G37*
G36*
X0505621Y0251257D02*
X0505676Y0252121D01*
X0505831Y0252111D01*
X0505776Y0251247D01*
X0505621Y0251257D01*
G37*
D21*
G36*
X0504624Y0255462D02*
X0504775Y0257858D01*
X0504930Y0257848D01*
X0504779Y0255452D01*
X0504624Y0255462D01*
G37*
G36*
X0507139Y0255304D02*
X0507290Y0257700D01*
X0507445Y0257690D01*
X0507294Y0255294D01*
X0507139Y0255304D01*
G37*
G36*
X0507426Y0258925D02*
X0507577Y0261321D01*
X0507732Y0261311D01*
X0507581Y0258915D01*
X0507426Y0258925D01*
G37*
G36*
X0507616Y0261950D02*
X0507767Y0264346D01*
X0507922Y0264336D01*
X0507771Y0261940D01*
X0507616Y0261950D01*
G37*
G36*
X0365313Y0263149D02*
X0365687Y0265521D01*
X0365841Y0265497D01*
X0365467Y0263125D01*
X0365313Y0263149D01*
G37*
G36*
X0364839Y0260155D02*
X0365213Y0262527D01*
X0365367Y0262503D01*
X0364993Y0260131D01*
X0364839Y0260155D01*
G37*
G36*
X0364118Y0255749D02*
X0364492Y0258121D01*
X0364646Y0258097D01*
X0364272Y0255725D01*
X0364118Y0255749D01*
G37*
G36*
X0361630Y0256143D02*
X0362004Y0258515D01*
X0362158Y0258491D01*
X0361784Y0256119D01*
X0361630Y0256143D01*
G37*
G36*
X0315036Y0264381D02*
X0315777Y0266665D01*
X0315926Y0266617D01*
X0315185Y0264333D01*
X0315036Y0264381D01*
G37*
G36*
X0314099Y0261497D02*
X0314840Y0263781D01*
X0314989Y0263733D01*
X0314248Y0261449D01*
X0314099Y0261497D01*
G37*
G36*
X0312795Y0257018D02*
X0313536Y0259302D01*
X0313685Y0259254D01*
X0312944Y0256970D01*
X0312795Y0257018D01*
G37*
G36*
X0310399Y0257796D02*
X0311140Y0260080D01*
X0311289Y0260032D01*
X0310548Y0257748D01*
X0310399Y0257796D01*
G37*
X0266001Y0315040D03*
X0267810Y0319290D03*
X0267810Y0321810D03*
X0284463Y0319290D03*
X0284463Y0369290D03*
X0267810Y0369290D03*
X0267810Y0371810D03*
X0266560Y0514040D03*
X0266560Y0516560D03*
X0283213Y0514040D03*
D22*
X0283213Y0516422D03*
X0284463Y0371672D03*
X0284463Y0321672D03*
X0280489Y0317422D03*
X0280489Y0316044D03*
X0280489Y0315926D03*
X0290568Y0315296D03*
X0290568Y0314666D03*
X0266001Y0314784D03*
X0266001Y0314902D03*
X0266001Y0315178D03*
X0263363Y0315414D03*
X0263245Y0314666D03*
G36*
X0311115Y0288631D02*
X0310373Y0290914D01*
X0310485Y0290951D01*
X0311227Y0288668D01*
X0311115Y0288631D01*
G37*
G36*
X0312789Y0265112D02*
X0313531Y0267395D01*
X0313643Y0267358D01*
X0312901Y0265075D01*
X0312789Y0265112D01*
G37*
G36*
X0311852Y0262228D02*
X0312594Y0264511D01*
X0312706Y0264474D01*
X0311964Y0262191D01*
X0311852Y0262228D01*
G37*
G36*
X0362504Y0260525D02*
X0362879Y0262896D01*
X0362996Y0262877D01*
X0362621Y0260506D01*
X0362504Y0260525D01*
G37*
G36*
X0362978Y0263519D02*
X0363353Y0265890D01*
X0363470Y0265871D01*
X0363095Y0263500D01*
X0362978Y0263519D01*
G37*
G36*
X0361685Y0290405D02*
X0361352Y0292783D01*
X0361469Y0292799D01*
X0361802Y0290421D01*
X0361685Y0290405D01*
G37*
G36*
X0504484Y0290950D02*
X0504334Y0293346D01*
X0504452Y0293354D01*
X0504602Y0290958D01*
X0504484Y0290950D01*
G37*
G36*
X0505258Y0262099D02*
X0505408Y0264495D01*
X0505526Y0264487D01*
X0505376Y0262091D01*
X0505258Y0262099D01*
G37*
G36*
X0505068Y0259073D02*
X0505218Y0261469D01*
X0505336Y0261461D01*
X0505186Y0259065D01*
X0505068Y0259073D01*
G37*
D23*
G36*
X0504774Y0255335D02*
X0504931Y0257849D01*
X0505048Y0257841D01*
X0504891Y0255327D01*
X0504774Y0255335D01*
G37*
G36*
X0507013Y0255194D02*
X0507170Y0257708D01*
X0507287Y0257700D01*
X0507130Y0255186D01*
X0507013Y0255194D01*
G37*
G36*
X0507499Y0261958D02*
X0507656Y0264472D01*
X0507773Y0264464D01*
X0507616Y0261950D01*
X0507499Y0261958D01*
G37*
G36*
X0505377Y0262091D02*
X0505534Y0264605D01*
X0505651Y0264597D01*
X0505494Y0262083D01*
X0505377Y0262091D01*
G37*
G36*
X0504602Y0290957D02*
X0504445Y0293471D01*
X0504562Y0293479D01*
X0504719Y0290965D01*
X0504602Y0290957D01*
G37*
G36*
X0506732Y0290973D02*
X0506575Y0293487D01*
X0506692Y0293495D01*
X0506849Y0290981D01*
X0506732Y0290973D01*
G37*
G36*
X0363924Y0290601D02*
X0363575Y0293095D01*
X0363692Y0293111D01*
X0364041Y0290617D01*
X0363924Y0290601D01*
G37*
G36*
X0361802Y0290422D02*
X0361453Y0292916D01*
X0361570Y0292932D01*
X0361919Y0290438D01*
X0361802Y0290422D01*
G37*
G36*
X0363095Y0263500D02*
X0363488Y0265988D01*
X0363605Y0265970D01*
X0363212Y0263482D01*
X0363095Y0263500D01*
G37*
G36*
X0365195Y0263168D02*
X0365588Y0265656D01*
X0365705Y0265638D01*
X0365312Y0263150D01*
X0365195Y0263168D01*
G37*
G36*
X0363982Y0255651D02*
X0364375Y0258139D01*
X0364492Y0258121D01*
X0364099Y0255633D01*
X0363982Y0255651D01*
G37*
G36*
X0361765Y0256002D02*
X0362158Y0258490D01*
X0362275Y0258472D01*
X0361882Y0255984D01*
X0361765Y0256002D01*
G37*
G36*
X0314923Y0264417D02*
X0315701Y0266813D01*
X0315813Y0266777D01*
X0315035Y0264381D01*
X0314923Y0264417D01*
G37*
G36*
X0312901Y0265074D02*
X0313679Y0267470D01*
X0313791Y0267434D01*
X0313013Y0265038D01*
X0312901Y0265074D01*
G37*
G36*
X0310512Y0257635D02*
X0311290Y0260031D01*
X0311402Y0259995D01*
X0310624Y0257599D01*
X0310512Y0257635D01*
G37*
G36*
X0312646Y0256942D02*
X0313424Y0259338D01*
X0313536Y0259302D01*
X0312758Y0256906D01*
X0312646Y0256942D01*
G37*
G36*
X0311227Y0288668D02*
X0310449Y0291064D01*
X0310561Y0291100D01*
X0311339Y0288704D01*
X0311227Y0288668D01*
G37*
G36*
X0313286Y0289212D02*
X0312508Y0291608D01*
X0312620Y0291644D01*
X0313398Y0289248D01*
X0313286Y0289212D01*
G37*
X0290509Y0314784D03*
X0283580Y0315926D03*
X0280430Y0316162D03*
X0280430Y0317186D03*
X0280430Y0317304D03*
X0277674Y0315926D03*
X0284522Y0319428D03*
X0284522Y0319546D03*
X0284522Y0321554D03*
X0269839Y0315296D03*
X0269839Y0314784D03*
X0267751Y0319428D03*
X0267751Y0321672D03*
X0263186Y0317816D03*
X0263304Y0317186D03*
X0260391Y0317422D03*
X0260391Y0315178D03*
X0267751Y0369428D03*
X0267751Y0371672D03*
X0284522Y0371554D03*
X0284522Y0369546D03*
X0284522Y0369428D03*
X0283272Y0514178D03*
X0283272Y0514296D03*
X0283272Y0516304D03*
X0266501Y0516422D03*
X0266501Y0514178D03*
D24*
X0266442Y0514296D03*
X0266442Y0516186D03*
X0266442Y0516304D03*
X0283331Y0516186D03*
X0284581Y0371436D03*
X0267692Y0371436D03*
X0267692Y0371554D03*
X0267692Y0369546D03*
X0267692Y0321554D03*
X0267692Y0321436D03*
X0267692Y0319546D03*
X0263245Y0317698D03*
X0263245Y0317422D03*
X0263245Y0317304D03*
X0263245Y0315296D03*
X0263245Y0315178D03*
X0263245Y0314902D03*
X0263245Y0314784D03*
X0260331Y0315296D03*
X0260331Y0317186D03*
X0260331Y0317304D03*
X0277615Y0315808D03*
X0283639Y0315808D03*
X0284581Y0321436D03*
X0290568Y0315178D03*
X0290568Y0314902D03*
G36*
X0313173Y0289176D02*
X0312359Y0291684D01*
X0312471Y0291720D01*
X0313285Y0289212D01*
X0313173Y0289176D01*
G37*
G36*
X0311339Y0288704D02*
X0310525Y0291212D01*
X0310637Y0291248D01*
X0311451Y0288740D01*
X0311339Y0288704D01*
G37*
G36*
X0313014Y0265038D02*
X0313828Y0267546D01*
X0313940Y0267510D01*
X0313126Y0265002D01*
X0313014Y0265038D01*
G37*
G36*
X0311928Y0262079D02*
X0312742Y0264587D01*
X0312854Y0264551D01*
X0312040Y0262043D01*
X0311928Y0262079D01*
G37*
G36*
X0313950Y0261422D02*
X0314764Y0263930D01*
X0314876Y0263894D01*
X0314062Y0261386D01*
X0313950Y0261422D01*
G37*
G36*
X0312497Y0256866D02*
X0313311Y0259374D01*
X0313423Y0259338D01*
X0312609Y0256830D01*
X0312497Y0256866D01*
G37*
G36*
X0310588Y0257487D02*
X0311402Y0259995D01*
X0311514Y0259959D01*
X0310700Y0257451D01*
X0310588Y0257487D01*
G37*
G36*
X0314811Y0264454D02*
X0315625Y0266962D01*
X0315737Y0266926D01*
X0314923Y0264418D01*
X0314811Y0264454D01*
G37*
G36*
X0361864Y0255867D02*
X0362276Y0258471D01*
X0362392Y0258453D01*
X0361980Y0255849D01*
X0361864Y0255867D01*
G37*
G36*
X0363847Y0255553D02*
X0364259Y0258157D01*
X0364375Y0258139D01*
X0363963Y0255535D01*
X0363847Y0255553D01*
G37*
G36*
X0364702Y0260057D02*
X0365114Y0262661D01*
X0365230Y0262643D01*
X0364818Y0260039D01*
X0364702Y0260057D01*
G37*
G36*
X0362603Y0260390D02*
X0363015Y0262994D01*
X0363131Y0262976D01*
X0362719Y0260372D01*
X0362603Y0260390D01*
G37*
G36*
X0363212Y0263482D02*
X0363624Y0266086D01*
X0363740Y0266068D01*
X0363328Y0263464D01*
X0363212Y0263482D01*
G37*
G36*
X0365079Y0263186D02*
X0365491Y0265790D01*
X0365607Y0265772D01*
X0365195Y0263168D01*
X0365079Y0263186D01*
G37*
G36*
X0363808Y0290584D02*
X0363442Y0293195D01*
X0363558Y0293212D01*
X0363924Y0290601D01*
X0363808Y0290584D01*
G37*
G36*
X0361920Y0290438D02*
X0361554Y0293049D01*
X0361670Y0293066D01*
X0362036Y0290455D01*
X0361920Y0290438D01*
G37*
G36*
X0504720Y0290965D02*
X0504556Y0293597D01*
X0504674Y0293605D01*
X0504838Y0290973D01*
X0504720Y0290965D01*
G37*
G36*
X0506613Y0290965D02*
X0506449Y0293597D01*
X0506567Y0293605D01*
X0506731Y0290973D01*
X0506613Y0290965D01*
G37*
G36*
X0505494Y0262084D02*
X0505658Y0264716D01*
X0505776Y0264708D01*
X0505612Y0262076D01*
X0505494Y0262084D01*
G37*
G36*
X0505179Y0258948D02*
X0505343Y0261580D01*
X0505461Y0261572D01*
X0505297Y0258940D01*
X0505179Y0258948D01*
G37*
G36*
X0504884Y0255209D02*
X0505048Y0257841D01*
X0505166Y0257833D01*
X0505002Y0255201D01*
X0504884Y0255209D01*
G37*
G36*
X0506888Y0255083D02*
X0507052Y0257715D01*
X0507170Y0257707D01*
X0507006Y0255075D01*
X0506888Y0255083D01*
G37*
G36*
X0507300Y0258814D02*
X0507464Y0261446D01*
X0507582Y0261438D01*
X0507418Y0258806D01*
X0507300Y0258814D01*
G37*
G36*
X0507380Y0261965D02*
X0507544Y0264597D01*
X0507662Y0264589D01*
X0507498Y0261957D01*
X0507380Y0261965D01*
G37*
D25*
G36*
X0505516Y0260544D02*
X0505587Y0261683D01*
X0505704Y0261676D01*
X0505633Y0260537D01*
X0505516Y0260544D01*
G37*
G36*
X0505397Y0258658D02*
X0505468Y0259797D01*
X0505585Y0259790D01*
X0505514Y0258651D01*
X0505397Y0258658D01*
G37*
G36*
X0506651Y0253204D02*
X0506722Y0254343D01*
X0506839Y0254336D01*
X0506768Y0253197D01*
X0506651Y0253204D01*
G37*
G36*
X0504890Y0251540D02*
X0504961Y0252679D01*
X0505078Y0252672D01*
X0505007Y0251533D01*
X0504890Y0251540D01*
G37*
G36*
X0507246Y0263591D02*
X0507317Y0264730D01*
X0507434Y0264723D01*
X0507363Y0263584D01*
X0507246Y0263591D01*
G37*
G36*
X0507593Y0282205D02*
X0507522Y0283344D01*
X0507639Y0283351D01*
X0507710Y0282212D01*
X0507593Y0282205D01*
G37*
G36*
X0507906Y0285381D02*
X0507835Y0286520D01*
X0507952Y0286527D01*
X0508023Y0285388D01*
X0507906Y0285381D01*
G37*
G36*
X0505762Y0285601D02*
X0505691Y0286740D01*
X0505808Y0286747D01*
X0505879Y0285608D01*
X0505762Y0285601D01*
G37*
G36*
X0504744Y0292466D02*
X0504673Y0293605D01*
X0504790Y0293612D01*
X0504861Y0292473D01*
X0504744Y0292466D01*
G37*
G36*
X0365490Y0285286D02*
X0365332Y0286416D01*
X0365448Y0286432D01*
X0365606Y0285302D01*
X0365490Y0285286D01*
G37*
G36*
X0363335Y0285341D02*
X0363177Y0286471D01*
X0363293Y0286487D01*
X0363451Y0285357D01*
X0363335Y0285341D01*
G37*
G36*
X0365421Y0282096D02*
X0365263Y0283226D01*
X0365379Y0283242D01*
X0365537Y0282112D01*
X0365421Y0282096D01*
G37*
G36*
X0361829Y0291936D02*
X0361671Y0293066D01*
X0361787Y0293082D01*
X0361945Y0291952D01*
X0361829Y0291936D01*
G37*
G36*
X0365098Y0264818D02*
X0365276Y0265945D01*
X0365392Y0265926D01*
X0365214Y0264799D01*
X0365098Y0264818D01*
G37*
G36*
X0363089Y0261947D02*
X0363267Y0263074D01*
X0363383Y0263055D01*
X0363205Y0261928D01*
X0363089Y0261947D01*
G37*
G36*
X0362793Y0260081D02*
X0362971Y0261208D01*
X0363087Y0261189D01*
X0362909Y0260062D01*
X0362793Y0260081D01*
G37*
G36*
X0363435Y0253705D02*
X0363613Y0254832D01*
X0363729Y0254813D01*
X0363551Y0253686D01*
X0363435Y0253705D01*
G37*
G36*
X0361524Y0252214D02*
X0361702Y0253341D01*
X0361818Y0253322D01*
X0361640Y0252195D01*
X0361524Y0252214D01*
G37*
G36*
X0315085Y0266063D02*
X0315437Y0267148D01*
X0315549Y0267111D01*
X0315197Y0266026D01*
X0315085Y0266063D01*
G37*
G36*
X0312651Y0263542D02*
X0313003Y0264627D01*
X0313115Y0264590D01*
X0312763Y0263505D01*
X0312651Y0263542D01*
G37*
G36*
X0312067Y0261744D02*
X0312419Y0262829D01*
X0312531Y0262792D01*
X0312179Y0261707D01*
X0312067Y0261744D01*
G37*
G36*
X0311801Y0255106D02*
X0312153Y0256191D01*
X0312265Y0256154D01*
X0311913Y0255069D01*
X0311801Y0255106D01*
G37*
G36*
X0309681Y0253932D02*
X0310033Y0255017D01*
X0310145Y0254980D01*
X0309793Y0253895D01*
X0309681Y0253932D01*
G37*
G36*
X0315783Y0281277D02*
X0315431Y0282362D01*
X0315543Y0282399D01*
X0315895Y0281314D01*
X0315783Y0281277D01*
G37*
G36*
X0315297Y0284431D02*
X0314945Y0285516D01*
X0315057Y0285553D01*
X0315409Y0284468D01*
X0315297Y0284431D01*
G37*
G36*
X0313165Y0284111D02*
X0312813Y0285196D01*
X0312925Y0285233D01*
X0313277Y0284148D01*
X0313165Y0284111D01*
G37*
G36*
X0310990Y0290163D02*
X0310638Y0291248D01*
X0310750Y0291285D01*
X0311102Y0290200D01*
X0310990Y0290163D01*
G37*
X0283639Y0317304D03*
X0280765Y0317934D03*
X0277615Y0317304D03*
X0274820Y0317422D03*
X0272694Y0314666D03*
X0269426Y0316162D03*
X0272849Y0321042D03*
X0262022Y0319034D03*
X0285330Y0321318D03*
X0285448Y0319782D03*
X0285448Y0369782D03*
X0285330Y0371318D03*
X0272849Y0371042D03*
X0262022Y0369034D03*
X0260772Y0513784D03*
X0271599Y0515792D03*
X0284080Y0516068D03*
X0284198Y0514532D03*
D26*
X0284020Y0514414D03*
X0283154Y0513666D03*
X0265635Y0516068D03*
X0260950Y0514296D03*
X0260831Y0513902D03*
X0266885Y0371318D03*
X0262200Y0369546D03*
X0262081Y0369152D03*
X0284404Y0368916D03*
X0285270Y0369664D03*
X0285270Y0319664D03*
X0284404Y0318916D03*
X0283580Y0317186D03*
X0287871Y0317816D03*
X0290627Y0317816D03*
X0290154Y0316162D03*
X0290272Y0316044D03*
X0287871Y0314666D03*
X0277674Y0317186D03*
X0274879Y0317304D03*
X0269997Y0317816D03*
X0269603Y0316044D03*
X0266885Y0321318D03*
X0262200Y0319546D03*
X0262081Y0319152D03*
X0259524Y0317068D03*
X0256769Y0314666D03*
G36*
X0311938Y0288899D02*
X0311550Y0290096D01*
X0311662Y0290133D01*
X0312050Y0288936D01*
X0311938Y0288899D01*
G37*
G36*
X0312574Y0288981D02*
X0312186Y0290178D01*
X0312298Y0290215D01*
X0312686Y0289018D01*
X0312574Y0288981D01*
G37*
G36*
X0312598Y0290562D02*
X0312210Y0291759D01*
X0312322Y0291796D01*
X0312710Y0290599D01*
X0312598Y0290562D01*
G37*
G36*
X0312274Y0283159D02*
X0311886Y0284356D01*
X0311998Y0284393D01*
X0312386Y0283196D01*
X0312274Y0283159D01*
G37*
G36*
X0315671Y0281241D02*
X0315283Y0282438D01*
X0315395Y0282475D01*
X0315783Y0281278D01*
X0315671Y0281241D01*
G37*
G36*
X0313588Y0266425D02*
X0313976Y0267622D01*
X0314088Y0267585D01*
X0313700Y0266388D01*
X0313588Y0266425D01*
G37*
G36*
X0315125Y0265802D02*
X0315513Y0266999D01*
X0315625Y0266962D01*
X0315237Y0265765D01*
X0315125Y0265802D01*
G37*
G36*
X0315568Y0264747D02*
X0315956Y0265944D01*
X0316068Y0265907D01*
X0315680Y0264710D01*
X0315568Y0264747D01*
G37*
G36*
X0314188Y0262919D02*
X0314576Y0264116D01*
X0314688Y0264079D01*
X0314300Y0262882D01*
X0314188Y0262919D01*
G37*
G36*
X0314632Y0261864D02*
X0315020Y0263061D01*
X0315132Y0263024D01*
X0314744Y0261827D01*
X0314632Y0261864D01*
G37*
G36*
X0310776Y0257302D02*
X0311164Y0258499D01*
X0311276Y0258462D01*
X0310888Y0257265D01*
X0310776Y0257302D01*
G37*
G36*
X0311254Y0253421D02*
X0311642Y0254618D01*
X0311754Y0254581D01*
X0311366Y0253384D01*
X0311254Y0253421D01*
G37*
G36*
X0362079Y0255713D02*
X0362275Y0256957D01*
X0362391Y0256939D01*
X0362195Y0255695D01*
X0362079Y0255713D01*
G37*
G36*
X0363158Y0251955D02*
X0363354Y0253199D01*
X0363470Y0253181D01*
X0363274Y0251937D01*
X0363158Y0251955D01*
G37*
G36*
X0365307Y0260599D02*
X0365503Y0261843D01*
X0365619Y0261825D01*
X0365423Y0260581D01*
X0365307Y0260599D01*
G37*
G36*
X0364703Y0261571D02*
X0364899Y0262815D01*
X0365015Y0262797D01*
X0364819Y0261553D01*
X0364703Y0261571D01*
G37*
G36*
X0365781Y0263593D02*
X0365977Y0264837D01*
X0366093Y0264819D01*
X0365897Y0263575D01*
X0365781Y0263593D01*
G37*
G36*
X0365178Y0264565D02*
X0365374Y0265809D01*
X0365490Y0265791D01*
X0365294Y0264547D01*
X0365178Y0264565D01*
G37*
G36*
X0363563Y0264941D02*
X0363759Y0266185D01*
X0363875Y0266167D01*
X0363679Y0264923D01*
X0363563Y0264941D01*
G37*
G36*
X0365304Y0282079D02*
X0365129Y0283326D01*
X0365246Y0283343D01*
X0365421Y0282096D01*
X0365304Y0282079D01*
G37*
G36*
X0362292Y0284558D02*
X0362117Y0285805D01*
X0362234Y0285822D01*
X0362409Y0284575D01*
X0362292Y0284558D01*
G37*
G36*
X0362543Y0290525D02*
X0362368Y0291772D01*
X0362485Y0291789D01*
X0362660Y0290542D01*
X0362543Y0290525D01*
G37*
G36*
X0363184Y0290496D02*
X0363009Y0291743D01*
X0363126Y0291760D01*
X0363301Y0290513D01*
X0363184Y0290496D01*
G37*
G36*
X0363482Y0292049D02*
X0363307Y0293296D01*
X0363424Y0293313D01*
X0363599Y0292066D01*
X0363482Y0292049D01*
G37*
G36*
X0504662Y0284900D02*
X0504583Y0286157D01*
X0504700Y0286164D01*
X0504779Y0284907D01*
X0504662Y0284900D01*
G37*
G36*
X0507475Y0282198D02*
X0507396Y0283455D01*
X0507513Y0283462D01*
X0507592Y0282205D01*
X0507475Y0282198D01*
G37*
G36*
X0505986Y0290926D02*
X0505907Y0292183D01*
X0506024Y0292190D01*
X0506103Y0290933D01*
X0505986Y0290926D01*
G37*
G36*
X0505349Y0291005D02*
X0505270Y0292262D01*
X0505387Y0292269D01*
X0505466Y0291012D01*
X0505349Y0291005D01*
G37*
G36*
X0506402Y0292452D02*
X0506323Y0293709D01*
X0506440Y0293716D01*
X0506519Y0292459D01*
X0506402Y0292452D01*
G37*
G36*
X0505706Y0263569D02*
X0505785Y0264826D01*
X0505902Y0264819D01*
X0505823Y0263562D01*
X0505706Y0263569D01*
G37*
G36*
X0507349Y0263347D02*
X0507428Y0264604D01*
X0507545Y0264597D01*
X0507466Y0263340D01*
X0507349Y0263347D01*
G37*
G36*
X0508041Y0262436D02*
X0508120Y0263693D01*
X0508237Y0263686D01*
X0508158Y0262429D01*
X0508041Y0262436D01*
G37*
G36*
X0507158Y0260322D02*
X0507237Y0261579D01*
X0507354Y0261572D01*
X0507275Y0260315D01*
X0507158Y0260322D01*
G37*
G36*
X0507851Y0259410D02*
X0507930Y0260667D01*
X0508047Y0260660D01*
X0507968Y0259403D01*
X0507851Y0259410D01*
G37*
G36*
X0505112Y0255076D02*
X0505191Y0256333D01*
X0505308Y0256326D01*
X0505229Y0255069D01*
X0505112Y0255076D01*
G37*
G36*
X0506540Y0251436D02*
X0506619Y0252693D01*
X0506736Y0252686D01*
X0506657Y0251429D01*
X0506540Y0251436D01*
G37*
D27*
G36*
X0506481Y0254872D02*
X0506543Y0255853D01*
X0506697Y0255844D01*
X0506635Y0254863D01*
X0506481Y0254872D01*
G37*
G36*
X0505644Y0260693D02*
X0505706Y0261674D01*
X0505860Y0261665D01*
X0505798Y0260684D01*
X0505644Y0260693D01*
G37*
G36*
X0506909Y0260732D02*
X0506971Y0261713D01*
X0507125Y0261704D01*
X0507063Y0260723D01*
X0506909Y0260732D01*
G37*
G36*
X0505842Y0263837D02*
X0505904Y0264818D01*
X0506058Y0264809D01*
X0505996Y0263828D01*
X0505842Y0263837D01*
G37*
G36*
X0504847Y0292749D02*
X0504785Y0293730D01*
X0504939Y0293739D01*
X0505001Y0292758D01*
X0504847Y0292749D01*
G37*
G36*
X0506104Y0292828D02*
X0506042Y0293809D01*
X0506196Y0293818D01*
X0506258Y0292837D01*
X0506104Y0292828D01*
G37*
G36*
X0363156Y0292400D02*
X0363019Y0293374D01*
X0363172Y0293396D01*
X0363309Y0292422D01*
X0363156Y0292400D01*
G37*
G36*
X0361909Y0292225D02*
X0361772Y0293199D01*
X0361925Y0293221D01*
X0362062Y0292247D01*
X0361909Y0292225D01*
G37*
G36*
X0363723Y0265195D02*
X0363877Y0266166D01*
X0364031Y0266141D01*
X0363877Y0265170D01*
X0363723Y0265195D01*
G37*
G36*
X0363230Y0262084D02*
X0363384Y0263055D01*
X0363538Y0263030D01*
X0363384Y0262059D01*
X0363230Y0262084D01*
G37*
G36*
X0364493Y0262004D02*
X0364647Y0262975D01*
X0364801Y0262950D01*
X0364647Y0261979D01*
X0364493Y0262004D01*
G37*
G36*
X0363421Y0255382D02*
X0363575Y0256353D01*
X0363729Y0256328D01*
X0363575Y0255357D01*
X0363421Y0255382D01*
G37*
G36*
X0314047Y0263378D02*
X0314350Y0264313D01*
X0314499Y0264264D01*
X0314196Y0263329D01*
X0314047Y0263378D01*
G37*
G36*
X0312813Y0263655D02*
X0313116Y0264590D01*
X0313265Y0264541D01*
X0312962Y0263606D01*
X0312813Y0263655D01*
G37*
G36*
X0313786Y0266650D02*
X0314089Y0267585D01*
X0314238Y0267536D01*
X0313935Y0266601D01*
X0313786Y0266650D01*
G37*
G36*
X0312050Y0256764D02*
X0312353Y0257699D01*
X0312502Y0257650D01*
X0312199Y0256715D01*
X0312050Y0256764D01*
G37*
G36*
X0311017Y0290462D02*
X0310714Y0291397D01*
X0310863Y0291446D01*
X0311166Y0290511D01*
X0311017Y0290462D01*
G37*
G36*
X0312215Y0290851D02*
X0311912Y0291786D01*
X0312061Y0291835D01*
X0312364Y0290900D01*
X0312215Y0290851D01*
G37*
X0290017Y0316300D03*
X0285526Y0319920D03*
X0285526Y0321180D03*
X0269347Y0316300D03*
X0266629Y0319920D03*
X0266747Y0321180D03*
X0259269Y0315670D03*
X0266629Y0369920D03*
X0266747Y0371180D03*
X0285526Y0371180D03*
X0285526Y0369920D03*
X0284276Y0514670D03*
X0284276Y0515930D03*
X0265497Y0515930D03*
X0265379Y0514670D03*
D28*
X0282387Y0515930D03*
X0283637Y0371180D03*
X0283637Y0321180D03*
X0256119Y0316300D03*
D29*
X0258186Y0316930D03*
X0269719Y0321180D03*
X0270704Y0321180D03*
X0272869Y0321180D03*
X0274247Y0321180D03*
X0275113Y0321180D03*
X0279798Y0321180D03*
X0281570Y0321180D03*
X0280207Y0364003D03*
X0283200Y0364003D03*
X0284617Y0364003D03*
X0287609Y0364003D03*
X0291389Y0363845D03*
X0281570Y0371180D03*
X0279798Y0371180D03*
X0275113Y0371180D03*
X0274247Y0371180D03*
X0272869Y0371180D03*
X0270704Y0371180D03*
X0269719Y0371180D03*
X0253278Y0364790D03*
X0271221Y0506595D03*
X0275946Y0506753D03*
X0278938Y0506753D03*
X0283347Y0506753D03*
X0280320Y0515930D03*
X0278548Y0515930D03*
X0273863Y0515930D03*
X0272997Y0515930D03*
X0271619Y0515930D03*
X0269454Y0515930D03*
X0268469Y0515930D03*
X0253111Y0509430D03*
X0253111Y0509272D03*
X0253111Y0509115D03*
D30*
X0277583Y0515930D03*
X0278833Y0371180D03*
X0278833Y0321180D03*
X0258127Y0317560D03*
X0257261Y0316300D03*
G36*
X0313522Y0263797D02*
X0313752Y0264507D01*
X0313900Y0264459D01*
X0313670Y0263749D01*
X0313522Y0263797D01*
G37*
G36*
X0363908Y0262335D02*
X0364025Y0263073D01*
X0364178Y0263049D01*
X0364061Y0262311D01*
X0363908Y0262335D01*
G37*
G36*
X0506295Y0261008D02*
X0506342Y0261754D01*
X0506497Y0261744D01*
X0506450Y0260998D01*
X0506295Y0261008D01*
G37*
D31*
X0277022Y0321180D03*
X0264542Y0321180D03*
X0264542Y0371180D03*
X0277022Y0371180D03*
X0275772Y0515930D03*
X0263292Y0515930D03*
D32*
X0261028Y0515930D03*
X0262278Y0371180D03*
X0262278Y0321180D03*
X0256572Y0315670D03*
X0275076Y0316930D03*
G36*
X0315382Y0280857D02*
X0314872Y0282429D01*
X0315020Y0282477D01*
X0315530Y0280905D01*
X0315382Y0280857D01*
G37*
G36*
X0364953Y0281752D02*
X0364724Y0283389D01*
X0364879Y0283410D01*
X0365108Y0281773D01*
X0364953Y0281752D01*
G37*
G36*
X0507101Y0281898D02*
X0506997Y0283548D01*
X0507151Y0283558D01*
X0507255Y0281908D01*
X0507101Y0281898D01*
G37*
D33*
G36*
X0506445Y0284776D02*
X0506320Y0286779D01*
X0506437Y0286786D01*
X0506562Y0284783D01*
X0506445Y0284776D01*
G37*
G36*
X0505195Y0284579D02*
X0505070Y0286582D01*
X0505187Y0286589D01*
X0505312Y0284586D01*
X0505195Y0284579D01*
G37*
G36*
X0504920Y0284562D02*
X0504795Y0286565D01*
X0504912Y0286572D01*
X0505037Y0284569D01*
X0504920Y0284562D01*
G37*
G36*
X0504202Y0291051D02*
X0504077Y0293054D01*
X0504194Y0293061D01*
X0504319Y0291058D01*
X0504202Y0291051D01*
G37*
G36*
X0364079Y0284571D02*
X0363800Y0286559D01*
X0363917Y0286575D01*
X0364196Y0284587D01*
X0364079Y0284571D01*
G37*
G36*
X0362848Y0284279D02*
X0362569Y0286267D01*
X0362686Y0286283D01*
X0362965Y0284295D01*
X0362848Y0284279D01*
G37*
G36*
X0362575Y0284240D02*
X0362296Y0286228D01*
X0362413Y0286244D01*
X0362692Y0284256D01*
X0362575Y0284240D01*
G37*
G36*
X0361396Y0290484D02*
X0361117Y0292472D01*
X0361234Y0292488D01*
X0361513Y0290500D01*
X0361396Y0290484D01*
G37*
G36*
X0314032Y0283482D02*
X0313412Y0285391D01*
X0313524Y0285428D01*
X0314144Y0283519D01*
X0314032Y0283482D01*
G37*
G36*
X0312870Y0282980D02*
X0312250Y0284889D01*
X0312362Y0284926D01*
X0312982Y0283017D01*
X0312870Y0282980D01*
G37*
G36*
X0312608Y0282895D02*
X0311988Y0284804D01*
X0312100Y0284841D01*
X0312720Y0282932D01*
X0312608Y0282895D01*
G37*
G36*
X0310816Y0288658D02*
X0310196Y0290567D01*
X0310308Y0290604D01*
X0310928Y0288695D01*
X0310816Y0288658D01*
G37*
X0290646Y0317422D03*
X0281983Y0321042D03*
X0270290Y0321042D03*
X0270290Y0319034D03*
X0269977Y0317422D03*
X0268007Y0319034D03*
X0264621Y0320806D03*
X0263166Y0317934D03*
X0263560Y0315926D03*
X0266198Y0315296D03*
X0260646Y0314784D03*
X0268007Y0369034D03*
X0270290Y0369034D03*
X0270290Y0371042D03*
X0264621Y0370806D03*
X0281983Y0371042D03*
X0269040Y0513784D03*
X0269040Y0515792D03*
X0266757Y0513784D03*
X0263371Y0515556D03*
X0280733Y0515792D03*
D34*
X0275831Y0515792D03*
X0275831Y0513784D03*
X0263351Y0513784D03*
X0263351Y0515792D03*
X0264601Y0371042D03*
X0264601Y0369034D03*
X0277081Y0369034D03*
X0277081Y0371042D03*
X0277081Y0321042D03*
X0277081Y0319034D03*
X0270233Y0315532D03*
X0264601Y0319034D03*
X0264601Y0321042D03*
X0287871Y0314784D03*
G36*
X0312088Y0288823D02*
X0311626Y0290245D01*
X0311738Y0290281D01*
X0312200Y0288859D01*
X0312088Y0288823D01*
G37*
G36*
X0312350Y0288909D02*
X0311888Y0290331D01*
X0312000Y0290367D01*
X0312462Y0288945D01*
X0312350Y0288909D01*
G37*
G36*
X0313387Y0283811D02*
X0312925Y0285233D01*
X0313037Y0285269D01*
X0313499Y0283847D01*
X0313387Y0283811D01*
G37*
G36*
X0315483Y0281056D02*
X0315021Y0282478D01*
X0315133Y0282514D01*
X0315595Y0281092D01*
X0315483Y0281056D01*
G37*
G36*
X0311599Y0262724D02*
X0312061Y0264146D01*
X0312173Y0264110D01*
X0311711Y0262688D01*
X0311599Y0262724D01*
G37*
G36*
X0362177Y0260975D02*
X0362410Y0262452D01*
X0362527Y0262433D01*
X0362294Y0260956D01*
X0362177Y0260975D01*
G37*
G36*
X0365086Y0281930D02*
X0364879Y0283410D01*
X0364996Y0283426D01*
X0365203Y0281946D01*
X0365086Y0281930D01*
G37*
G36*
X0363501Y0285007D02*
X0363294Y0286487D01*
X0363411Y0286503D01*
X0363618Y0285023D01*
X0363501Y0285007D01*
G37*
G36*
X0362676Y0290426D02*
X0362469Y0291906D01*
X0362586Y0291922D01*
X0362793Y0290442D01*
X0362676Y0290426D01*
G37*
G36*
X0362949Y0290464D02*
X0362742Y0291944D01*
X0362859Y0291960D01*
X0363066Y0290480D01*
X0362949Y0290464D01*
G37*
G36*
X0505475Y0290894D02*
X0505381Y0292386D01*
X0505497Y0292394D01*
X0505591Y0290902D01*
X0505475Y0290894D01*
G37*
G36*
X0505750Y0290911D02*
X0505656Y0292403D01*
X0505772Y0292411D01*
X0505866Y0290919D01*
X0505750Y0290911D01*
G37*
G36*
X0505903Y0285254D02*
X0505809Y0286746D01*
X0505925Y0286754D01*
X0506019Y0285262D01*
X0505903Y0285254D01*
G37*
G36*
X0507248Y0282065D02*
X0507154Y0283557D01*
X0507270Y0283565D01*
X0507364Y0282073D01*
X0507248Y0282065D01*
G37*
G36*
X0504700Y0259491D02*
X0504794Y0260983D01*
X0504910Y0260975D01*
X0504816Y0259483D01*
X0504700Y0259491D01*
G37*
D35*
X0287871Y0317934D03*
X0275192Y0321042D03*
X0274643Y0317698D03*
X0274643Y0316438D03*
X0274643Y0316162D03*
X0274643Y0316044D03*
X0274643Y0315926D03*
X0274643Y0315808D03*
X0274643Y0315532D03*
X0274643Y0315414D03*
X0274643Y0315296D03*
X0274643Y0315178D03*
X0274643Y0314902D03*
X0274643Y0314784D03*
X0274643Y0314666D03*
X0261963Y0318916D03*
X0261963Y0368916D03*
X0275192Y0371042D03*
X0260713Y0513666D03*
X0273942Y0515792D03*
D36*
X0272938Y0515792D03*
X0268528Y0515044D03*
X0268528Y0514532D03*
X0265497Y0514532D03*
X0265379Y0515792D03*
X0264119Y0515162D03*
X0281245Y0515044D03*
X0274188Y0371042D03*
X0269778Y0370294D03*
X0269778Y0369782D03*
X0266747Y0369782D03*
X0266629Y0371042D03*
X0265369Y0370412D03*
X0282495Y0370294D03*
X0274188Y0321042D03*
X0269778Y0320294D03*
X0269778Y0319782D03*
X0269229Y0317068D03*
X0269229Y0316438D03*
X0266747Y0319782D03*
X0266629Y0321042D03*
X0265369Y0320412D03*
X0259269Y0316792D03*
X0276906Y0316044D03*
X0278166Y0316438D03*
X0282457Y0315178D03*
X0283087Y0316438D03*
X0284347Y0316044D03*
X0282495Y0320294D03*
X0291394Y0317068D03*
G36*
X0311166Y0290511D02*
X0310863Y0291446D01*
X0310976Y0291483D01*
X0311279Y0290548D01*
X0311166Y0290511D01*
G37*
G36*
X0314292Y0283443D02*
X0313989Y0284378D01*
X0314102Y0284415D01*
X0314405Y0283480D01*
X0314292Y0283443D01*
G37*
G36*
X0314779Y0283601D02*
X0314476Y0284536D01*
X0314589Y0284573D01*
X0314892Y0283638D01*
X0314779Y0283601D01*
G37*
G36*
X0314591Y0280104D02*
X0314288Y0281039D01*
X0314401Y0281076D01*
X0314704Y0280141D01*
X0314591Y0280104D01*
G37*
G36*
X0314084Y0266678D02*
X0314387Y0267613D01*
X0314500Y0267576D01*
X0314197Y0266641D01*
X0314084Y0266678D01*
G37*
G36*
X0312998Y0263719D02*
X0313301Y0264654D01*
X0313414Y0264617D01*
X0313111Y0263682D01*
X0312998Y0263719D01*
G37*
G36*
X0314160Y0263217D02*
X0314463Y0264152D01*
X0314576Y0264115D01*
X0314273Y0263180D01*
X0314160Y0263217D01*
G37*
G36*
X0311001Y0257105D02*
X0311304Y0258040D01*
X0311417Y0258003D01*
X0311114Y0257068D01*
X0311001Y0257105D01*
G37*
G36*
X0311548Y0255602D02*
X0311851Y0256537D01*
X0311964Y0256500D01*
X0311661Y0255565D01*
X0311548Y0255602D01*
G37*
G36*
X0312236Y0256828D02*
X0312539Y0257763D01*
X0312652Y0257726D01*
X0312349Y0256791D01*
X0312236Y0256828D01*
G37*
G36*
X0362332Y0255554D02*
X0362485Y0256525D01*
X0362602Y0256506D01*
X0362449Y0255535D01*
X0362332Y0255554D01*
G37*
G36*
X0363107Y0254156D02*
X0363260Y0255127D01*
X0363377Y0255108D01*
X0363224Y0254137D01*
X0363107Y0254156D01*
G37*
G36*
X0363595Y0255474D02*
X0363748Y0256445D01*
X0363865Y0256426D01*
X0363712Y0255455D01*
X0363595Y0255474D01*
G37*
G36*
X0364629Y0261863D02*
X0364782Y0262834D01*
X0364899Y0262815D01*
X0364746Y0261844D01*
X0364629Y0261863D01*
G37*
G36*
X0363403Y0262177D02*
X0363556Y0263148D01*
X0363673Y0263129D01*
X0363520Y0262158D01*
X0363403Y0262177D01*
G37*
G36*
X0364013Y0265269D02*
X0364166Y0266240D01*
X0364283Y0266221D01*
X0364130Y0265250D01*
X0364013Y0265269D01*
G37*
G36*
X0364044Y0281147D02*
X0363908Y0282121D01*
X0364024Y0282137D01*
X0364160Y0281163D01*
X0364044Y0281147D01*
G37*
G36*
X0364330Y0284487D02*
X0364194Y0285461D01*
X0364310Y0285477D01*
X0364446Y0284503D01*
X0364330Y0284487D01*
G37*
G36*
X0364837Y0284558D02*
X0364701Y0285532D01*
X0364817Y0285548D01*
X0364953Y0284574D01*
X0364837Y0284558D01*
G37*
G36*
X0362063Y0292247D02*
X0361927Y0293221D01*
X0362043Y0293237D01*
X0362179Y0292263D01*
X0362063Y0292247D01*
G37*
G36*
X0505003Y0292758D02*
X0504941Y0293739D01*
X0505057Y0293746D01*
X0505119Y0292765D01*
X0505003Y0292758D01*
G37*
G36*
X0506689Y0284673D02*
X0506627Y0285654D01*
X0506743Y0285661D01*
X0506805Y0284680D01*
X0506689Y0284673D01*
G37*
G36*
X0507200Y0284705D02*
X0507138Y0285686D01*
X0507254Y0285693D01*
X0507316Y0284712D01*
X0507200Y0284705D01*
G37*
G36*
X0506148Y0281365D02*
X0506086Y0282346D01*
X0506202Y0282353D01*
X0506264Y0281372D01*
X0506148Y0281365D01*
G37*
G36*
X0506124Y0263938D02*
X0506186Y0264919D01*
X0506302Y0264912D01*
X0506240Y0263931D01*
X0506124Y0263938D01*
G37*
G36*
X0505808Y0260802D02*
X0505870Y0261783D01*
X0505986Y0261776D01*
X0505924Y0260795D01*
X0505808Y0260802D01*
G37*
G36*
X0507058Y0260605D02*
X0507120Y0261586D01*
X0507236Y0261579D01*
X0507174Y0260598D01*
X0507058Y0260605D01*
G37*
G36*
X0506645Y0254980D02*
X0506707Y0255961D01*
X0506823Y0255954D01*
X0506761Y0254973D01*
X0506645Y0254980D01*
G37*
G36*
X0506283Y0253622D02*
X0506345Y0254603D01*
X0506461Y0254596D01*
X0506399Y0253615D01*
X0506283Y0253622D01*
G37*
G36*
X0505380Y0254941D02*
X0505442Y0255922D01*
X0505558Y0255915D01*
X0505496Y0254934D01*
X0505380Y0254941D01*
G37*
D37*
X0287871Y0314902D03*
X0277081Y0319152D03*
X0277081Y0320924D03*
X0277081Y0369152D03*
X0277081Y0370924D03*
X0275831Y0513902D03*
X0275831Y0515674D03*
D38*
X0272623Y0515674D03*
X0272623Y0515556D03*
X0273873Y0370924D03*
X0273873Y0370806D03*
X0273873Y0320924D03*
X0273873Y0320806D03*
D39*
X0270408Y0320806D03*
X0270408Y0320688D03*
X0270408Y0319428D03*
X0269977Y0317304D03*
X0269977Y0317186D03*
X0269859Y0314666D03*
X0267889Y0319152D03*
X0260528Y0314902D03*
X0281865Y0320688D03*
X0281865Y0320806D03*
X0290646Y0317304D03*
X0290646Y0317186D03*
X0281865Y0370688D03*
X0281865Y0370806D03*
X0270408Y0370806D03*
X0270408Y0370688D03*
X0270408Y0369428D03*
X0267889Y0369152D03*
G36*
X0312994Y0257120D02*
X0313686Y0259253D01*
X0313798Y0259216D01*
X0313106Y0257083D01*
X0312994Y0257120D01*
G37*
G36*
X0364298Y0255881D02*
X0364648Y0258096D01*
X0364764Y0258077D01*
X0364414Y0255862D01*
X0364298Y0255881D01*
G37*
G36*
X0507305Y0255451D02*
X0507445Y0257690D01*
X0507563Y0257683D01*
X0507423Y0255444D01*
X0507305Y0255451D01*
G37*
X0269158Y0514178D03*
X0269158Y0515438D03*
X0269158Y0515556D03*
X0266639Y0513902D03*
X0280615Y0515438D03*
X0280615Y0515556D03*
D40*
X0275831Y0515556D03*
X0277081Y0370806D03*
X0277081Y0320806D03*
X0272753Y0317422D03*
X0287871Y0317422D03*
D41*
X0287871Y0317186D03*
X0287871Y0315296D03*
X0277081Y0319428D03*
X0277081Y0319546D03*
X0277081Y0320688D03*
X0272753Y0317186D03*
X0264601Y0319428D03*
X0264601Y0319546D03*
X0264601Y0320688D03*
X0264601Y0369428D03*
X0264601Y0369546D03*
X0264601Y0370688D03*
X0277081Y0370688D03*
X0277081Y0369546D03*
X0277081Y0369428D03*
X0275831Y0514178D03*
X0275831Y0514296D03*
X0275831Y0515438D03*
X0263351Y0515438D03*
X0263351Y0514296D03*
X0263351Y0514178D03*
D42*
X0272564Y0515162D03*
X0272564Y0515438D03*
X0273814Y0370688D03*
X0273814Y0370412D03*
X0273814Y0320688D03*
X0273814Y0320412D03*
D43*
X0270467Y0320550D03*
X0260469Y0317560D03*
X0260469Y0315040D03*
X0281806Y0320550D03*
G36*
X0313398Y0289249D02*
X0312669Y0291495D01*
X0312818Y0291543D01*
X0313547Y0289297D01*
X0313398Y0289249D01*
G37*
G36*
X0311676Y0253573D02*
X0312405Y0255819D01*
X0312554Y0255771D01*
X0311825Y0253525D01*
X0311676Y0253573D01*
G37*
G36*
X0363552Y0252172D02*
X0363920Y0254504D01*
X0364074Y0254480D01*
X0363706Y0252148D01*
X0363552Y0252172D01*
G37*
G36*
X0364042Y0290617D02*
X0363714Y0292955D01*
X0363868Y0292977D01*
X0364196Y0290639D01*
X0364042Y0290617D01*
G37*
X0291467Y0367625D03*
X0286113Y0366365D03*
X0282491Y0365263D03*
X0282491Y0367940D03*
X0281806Y0370550D03*
X0278711Y0366365D03*
X0272412Y0367625D03*
X0269105Y0367625D03*
X0270467Y0370550D03*
X0272412Y0364318D03*
X0257452Y0367940D03*
X0252570Y0364318D03*
X0251300Y0507383D03*
X0259961Y0509272D03*
X0267835Y0510375D03*
X0269217Y0515300D03*
X0277442Y0509115D03*
X0280556Y0515300D03*
X0290198Y0510375D03*
X0290198Y0507225D03*
X0290198Y0507068D03*
X0293662Y0507068D03*
X0293662Y0507225D03*
X0293662Y0510375D03*
X0284843Y0509115D03*
G36*
X0506851Y0290981D02*
X0506702Y0293337D01*
X0506857Y0293347D01*
X0507006Y0290991D01*
X0506851Y0290981D01*
G37*
G36*
X0506911Y0251689D02*
X0507060Y0254045D01*
X0507215Y0254035D01*
X0507066Y0251679D01*
X0506911Y0251689D01*
G37*
D44*
X0279345Y0320550D03*
X0279345Y0370550D03*
X0278095Y0515300D03*
D45*
X0275831Y0515300D03*
X0263351Y0515300D03*
X0264601Y0370550D03*
X0277081Y0370550D03*
X0277081Y0320550D03*
X0264601Y0320550D03*
D46*
X0273814Y0320550D03*
X0273814Y0370550D03*
X0272564Y0515300D03*
D47*
X0273883Y0514670D03*
X0273883Y0514040D03*
X0270103Y0514670D03*
X0265182Y0515300D03*
X0262544Y0514670D03*
X0279670Y0514670D03*
X0279670Y0514040D03*
X0266432Y0370550D03*
X0263794Y0369920D03*
X0271353Y0369920D03*
X0275133Y0369920D03*
X0275133Y0369290D03*
X0280920Y0369290D03*
X0280920Y0369920D03*
X0280920Y0319920D03*
X0280920Y0319290D03*
X0284780Y0315040D03*
X0289820Y0316930D03*
X0276473Y0315040D03*
X0273442Y0315670D03*
X0273442Y0316930D03*
X0270804Y0316930D03*
X0271353Y0319920D03*
X0275133Y0319920D03*
X0275133Y0319290D03*
X0266432Y0320550D03*
X0263794Y0319920D03*
G36*
X0314430Y0281749D02*
X0314151Y0282609D01*
X0314300Y0282657D01*
X0314579Y0281797D01*
X0314430Y0281749D01*
G37*
G36*
X0312743Y0261401D02*
X0313022Y0262261D01*
X0313171Y0262213D01*
X0312892Y0261353D01*
X0312743Y0261401D01*
G37*
G36*
X0313378Y0261318D02*
X0313657Y0262178D01*
X0313806Y0262130D01*
X0313527Y0261270D01*
X0313378Y0261318D01*
G37*
G36*
X0311402Y0256808D02*
X0311681Y0257668D01*
X0311830Y0257620D01*
X0311551Y0256760D01*
X0311402Y0256808D01*
G37*
G36*
X0362775Y0255324D02*
X0362916Y0256218D01*
X0363069Y0256194D01*
X0362928Y0255300D01*
X0362775Y0255324D01*
G37*
G36*
X0363514Y0259846D02*
X0363655Y0260740D01*
X0363808Y0260716D01*
X0363667Y0259822D01*
X0363514Y0259846D01*
G37*
G36*
X0364155Y0259864D02*
X0364296Y0260758D01*
X0364449Y0260734D01*
X0364308Y0259840D01*
X0364155Y0259864D01*
G37*
G36*
X0364171Y0282795D02*
X0364045Y0283691D01*
X0364199Y0283713D01*
X0364325Y0282817D01*
X0364171Y0282795D01*
G37*
G36*
X0506400Y0282997D02*
X0506343Y0283901D01*
X0506498Y0283911D01*
X0506555Y0283007D01*
X0506400Y0282997D01*
G37*
G36*
X0506773Y0258571D02*
X0506830Y0259475D01*
X0506985Y0259465D01*
X0506928Y0258561D01*
X0506773Y0258571D01*
G37*
G36*
X0506137Y0258493D02*
X0506194Y0259397D01*
X0506349Y0259387D01*
X0506292Y0258483D01*
X0506137Y0258493D01*
G37*
G36*
X0505842Y0254754D02*
X0505899Y0255658D01*
X0506054Y0255648D01*
X0505997Y0254744D01*
X0505842Y0254754D01*
G37*
D48*
X0290706Y0317560D03*
X0272674Y0317560D03*
X0272674Y0315040D03*
X0269918Y0317560D03*
X0262278Y0320550D03*
X0272491Y0364160D03*
X0269184Y0365263D03*
X0269026Y0365420D03*
X0275326Y0366522D03*
X0275326Y0366995D03*
X0278633Y0366837D03*
X0286034Y0366837D03*
X0291389Y0364160D03*
X0262278Y0370550D03*
X0252176Y0365105D03*
X0271221Y0506910D03*
X0274056Y0509115D03*
X0274056Y0509902D03*
X0277363Y0509587D03*
X0284922Y0509587D03*
X0296576Y0509745D03*
X0296576Y0509272D03*
X0267757Y0508170D03*
X0261028Y0515300D03*
X0251536Y0508485D03*
D49*
X0269217Y0514296D03*
X0269217Y0514414D03*
X0269217Y0515162D03*
X0280556Y0515162D03*
X0281806Y0370412D03*
X0270467Y0370412D03*
X0270467Y0369664D03*
X0270467Y0369546D03*
X0270467Y0320412D03*
X0270467Y0319664D03*
X0270467Y0319546D03*
X0281806Y0320412D03*
G36*
X0309429Y0254304D02*
X0310158Y0256549D01*
X0310271Y0256512D01*
X0309542Y0254267D01*
X0309429Y0254304D01*
G37*
G36*
X0361217Y0252541D02*
X0361586Y0254873D01*
X0361703Y0254855D01*
X0361334Y0252523D01*
X0361217Y0252541D01*
G37*
G36*
X0504553Y0251838D02*
X0504701Y0254194D01*
X0504819Y0254186D01*
X0504671Y0251830D01*
X0504553Y0251838D01*
G37*
D50*
G36*
X0508189Y0262900D02*
X0508206Y0263175D01*
X0508323Y0263168D01*
X0508306Y0262893D01*
X0508189Y0262900D01*
G37*
G36*
X0506980Y0286308D02*
X0506963Y0286583D01*
X0507080Y0286590D01*
X0507097Y0286315D01*
X0506980Y0286308D01*
G37*
G36*
X0507291Y0292113D02*
X0507274Y0292388D01*
X0507391Y0292395D01*
X0507408Y0292120D01*
X0507291Y0292113D01*
G37*
G36*
X0364395Y0291780D02*
X0364357Y0292052D01*
X0364473Y0292068D01*
X0364511Y0291796D01*
X0364395Y0291780D01*
G37*
G36*
X0364495Y0286140D02*
X0364457Y0286412D01*
X0364573Y0286428D01*
X0364611Y0286156D01*
X0364495Y0286140D01*
G37*
G36*
X0365972Y0264041D02*
X0366015Y0264313D01*
X0366130Y0264295D01*
X0366087Y0264023D01*
X0365972Y0264041D01*
G37*
G36*
X0315827Y0265159D02*
X0315912Y0265421D01*
X0316023Y0265385D01*
X0315938Y0265123D01*
X0315827Y0265159D01*
G37*
G36*
X0314170Y0285099D02*
X0314085Y0285361D01*
X0314196Y0285397D01*
X0314281Y0285135D01*
X0314170Y0285099D01*
G37*
G36*
X0313545Y0290455D02*
X0313460Y0290717D01*
X0313571Y0290753D01*
X0313656Y0290491D01*
X0313545Y0290455D01*
G37*
X0284385Y0318798D03*
X0278715Y0320412D03*
X0266828Y0317934D03*
X0261707Y0320412D03*
X0257379Y0315414D03*
X0261707Y0370412D03*
X0278715Y0370412D03*
X0284385Y0368798D03*
X0283135Y0513548D03*
X0277465Y0515162D03*
X0260457Y0515162D03*
D51*
X0262544Y0515044D03*
X0262544Y0514926D03*
X0262544Y0514808D03*
X0262544Y0514532D03*
X0270103Y0514808D03*
X0270103Y0514926D03*
X0273883Y0514926D03*
X0273883Y0515044D03*
X0273883Y0514808D03*
X0273883Y0514532D03*
X0273883Y0514414D03*
X0273883Y0514296D03*
X0273883Y0514178D03*
X0273883Y0513902D03*
X0273883Y0513784D03*
X0279670Y0513902D03*
X0279670Y0514178D03*
X0279670Y0514296D03*
X0279670Y0514414D03*
X0279670Y0514532D03*
X0279670Y0514808D03*
X0279670Y0514926D03*
X0275133Y0370294D03*
X0275133Y0370176D03*
X0275133Y0370058D03*
X0275133Y0369782D03*
X0275133Y0369664D03*
X0275133Y0369546D03*
X0275133Y0369428D03*
X0275133Y0369152D03*
X0275133Y0369034D03*
X0271353Y0370058D03*
X0271353Y0370176D03*
X0263794Y0370176D03*
X0263794Y0370294D03*
X0263794Y0370058D03*
X0263794Y0369782D03*
X0280920Y0369782D03*
X0280920Y0369664D03*
X0280920Y0369546D03*
X0280920Y0369428D03*
X0280920Y0369152D03*
X0280920Y0370058D03*
X0280920Y0370176D03*
X0280920Y0320176D03*
X0280920Y0320058D03*
X0280920Y0319782D03*
X0280920Y0319664D03*
X0280920Y0319546D03*
X0280920Y0319428D03*
X0280920Y0319152D03*
X0282891Y0316044D03*
X0284150Y0316438D03*
X0284780Y0315178D03*
X0287182Y0315414D03*
X0288560Y0315414D03*
X0288560Y0317068D03*
X0289820Y0316792D03*
X0289820Y0316674D03*
X0289820Y0316556D03*
X0287182Y0317068D03*
X0278363Y0316044D03*
X0277103Y0316438D03*
X0276473Y0315178D03*
X0273442Y0315532D03*
X0270804Y0316556D03*
X0270804Y0316674D03*
X0270804Y0316792D03*
X0271353Y0320058D03*
X0271353Y0320176D03*
X0275133Y0320176D03*
X0275133Y0320294D03*
X0275133Y0320058D03*
X0275133Y0319782D03*
X0275133Y0319664D03*
X0275133Y0319546D03*
X0275133Y0319428D03*
X0275133Y0319152D03*
X0275133Y0319034D03*
X0263794Y0319782D03*
X0263794Y0320058D03*
X0263794Y0320176D03*
X0263794Y0320294D03*
G36*
X0314056Y0281751D02*
X0313777Y0282612D01*
X0313890Y0282649D01*
X0314169Y0281788D01*
X0314056Y0281751D01*
G37*
G36*
X0314317Y0281711D02*
X0314038Y0282572D01*
X0314151Y0282609D01*
X0314430Y0281748D01*
X0314317Y0281711D01*
G37*
G36*
X0314168Y0281787D02*
X0313889Y0282648D01*
X0314002Y0282685D01*
X0314281Y0281824D01*
X0314168Y0281787D01*
G37*
G36*
X0315081Y0280635D02*
X0314802Y0281496D01*
X0314915Y0281533D01*
X0315194Y0280672D01*
X0315081Y0280635D01*
G37*
G36*
X0315193Y0280671D02*
X0314914Y0281532D01*
X0315027Y0281569D01*
X0315306Y0280708D01*
X0315193Y0280671D01*
G37*
G36*
X0314265Y0279832D02*
X0313986Y0280693D01*
X0314099Y0280730D01*
X0314378Y0279869D01*
X0314265Y0279832D01*
G37*
G36*
X0314077Y0279646D02*
X0313798Y0280507D01*
X0313911Y0280544D01*
X0314190Y0279683D01*
X0314077Y0279646D01*
G37*
G36*
X0312329Y0261659D02*
X0312608Y0262520D01*
X0312721Y0262483D01*
X0312442Y0261622D01*
X0312329Y0261659D01*
G37*
G36*
X0312405Y0261510D02*
X0312684Y0262371D01*
X0312797Y0262334D01*
X0312518Y0261473D01*
X0312405Y0261510D01*
G37*
G36*
X0312517Y0261474D02*
X0312796Y0262335D01*
X0312909Y0262298D01*
X0312630Y0261437D01*
X0312517Y0261474D01*
G37*
G36*
X0312630Y0261437D02*
X0312909Y0262298D01*
X0313022Y0262261D01*
X0312743Y0261400D01*
X0312630Y0261437D01*
G37*
G36*
X0312892Y0261352D02*
X0313171Y0262213D01*
X0313284Y0262176D01*
X0313005Y0261315D01*
X0312892Y0261352D01*
G37*
G36*
X0313004Y0261315D02*
X0313283Y0262176D01*
X0313396Y0262139D01*
X0313117Y0261278D01*
X0313004Y0261315D01*
G37*
G36*
X0313116Y0261279D02*
X0313395Y0262140D01*
X0313508Y0262103D01*
X0313229Y0261242D01*
X0313116Y0261279D01*
G37*
G36*
X0311551Y0256760D02*
X0311830Y0257621D01*
X0311943Y0257584D01*
X0311664Y0256723D01*
X0311551Y0256760D01*
G37*
G36*
X0311664Y0256723D02*
X0311943Y0257584D01*
X0312056Y0257547D01*
X0311777Y0256686D01*
X0311664Y0256723D01*
G37*
G36*
X0311289Y0256845D02*
X0311568Y0257706D01*
X0311681Y0257669D01*
X0311402Y0256808D01*
X0311289Y0256845D01*
G37*
G36*
X0362657Y0255342D02*
X0362798Y0256236D01*
X0362915Y0256218D01*
X0362774Y0255324D01*
X0362657Y0255342D01*
G37*
G36*
X0362929Y0255299D02*
X0363070Y0256193D01*
X0363187Y0256175D01*
X0363046Y0255281D01*
X0362929Y0255299D01*
G37*
G36*
X0363046Y0255281D02*
X0363187Y0256175D01*
X0363304Y0256157D01*
X0363163Y0255263D01*
X0363046Y0255281D01*
G37*
G36*
X0363668Y0259822D02*
X0363809Y0260716D01*
X0363926Y0260698D01*
X0363785Y0259804D01*
X0363668Y0259822D01*
G37*
G36*
X0363785Y0259803D02*
X0363926Y0260697D01*
X0364043Y0260679D01*
X0363902Y0259785D01*
X0363785Y0259803D01*
G37*
G36*
X0363902Y0259785D02*
X0364043Y0260679D01*
X0364160Y0260661D01*
X0364019Y0259767D01*
X0363902Y0259785D01*
G37*
G36*
X0363396Y0259865D02*
X0363537Y0260759D01*
X0363654Y0260741D01*
X0363513Y0259847D01*
X0363396Y0259865D01*
G37*
G36*
X0363279Y0259883D02*
X0363420Y0260777D01*
X0363537Y0260759D01*
X0363396Y0259865D01*
X0363279Y0259883D01*
G37*
G36*
X0363163Y0259902D02*
X0363304Y0260796D01*
X0363421Y0260778D01*
X0363280Y0259884D01*
X0363163Y0259902D01*
G37*
G36*
X0363065Y0260037D02*
X0363206Y0260931D01*
X0363323Y0260913D01*
X0363182Y0260019D01*
X0363065Y0260037D01*
G37*
G36*
X0363458Y0280787D02*
X0363333Y0281683D01*
X0363450Y0281699D01*
X0363575Y0280803D01*
X0363458Y0280787D01*
G37*
G36*
X0363675Y0280936D02*
X0363550Y0281832D01*
X0363667Y0281848D01*
X0363792Y0280952D01*
X0363675Y0280936D01*
G37*
G36*
X0364618Y0281586D02*
X0364493Y0282482D01*
X0364610Y0282498D01*
X0364735Y0281602D01*
X0364618Y0281586D01*
G37*
G36*
X0364735Y0281602D02*
X0364610Y0282498D01*
X0364727Y0282514D01*
X0364852Y0281618D01*
X0364735Y0281602D01*
G37*
G36*
X0364052Y0282778D02*
X0363927Y0283674D01*
X0364044Y0283690D01*
X0364169Y0282794D01*
X0364052Y0282778D01*
G37*
G36*
X0363919Y0282879D02*
X0363794Y0283775D01*
X0363911Y0283791D01*
X0364036Y0282895D01*
X0363919Y0282879D01*
G37*
G36*
X0363802Y0282863D02*
X0363677Y0283759D01*
X0363794Y0283775D01*
X0363919Y0282879D01*
X0363802Y0282863D01*
G37*
G36*
X0505536Y0281050D02*
X0505479Y0281953D01*
X0505596Y0281960D01*
X0505653Y0281057D01*
X0505536Y0281050D01*
G37*
G36*
X0505764Y0281183D02*
X0505707Y0282086D01*
X0505824Y0282093D01*
X0505881Y0281190D01*
X0505764Y0281183D01*
G37*
G36*
X0506754Y0281758D02*
X0506697Y0282661D01*
X0506814Y0282668D01*
X0506871Y0281765D01*
X0506754Y0281758D01*
G37*
G36*
X0506872Y0281765D02*
X0506815Y0282668D01*
X0506932Y0282675D01*
X0506989Y0281772D01*
X0506872Y0281765D01*
G37*
G36*
X0506282Y0282991D02*
X0506225Y0283894D01*
X0506342Y0283901D01*
X0506399Y0282998D01*
X0506282Y0282991D01*
G37*
G36*
X0506156Y0283101D02*
X0506099Y0284004D01*
X0506216Y0284011D01*
X0506273Y0283108D01*
X0506156Y0283101D01*
G37*
G36*
X0506039Y0283094D02*
X0505982Y0283997D01*
X0506099Y0284004D01*
X0506156Y0283101D01*
X0506039Y0283094D01*
G37*
G36*
X0505672Y0258640D02*
X0505729Y0259543D01*
X0505846Y0259536D01*
X0505789Y0258633D01*
X0505672Y0258640D01*
G37*
G36*
X0505782Y0258515D02*
X0505839Y0259418D01*
X0505956Y0259411D01*
X0505899Y0258508D01*
X0505782Y0258515D01*
G37*
G36*
X0505900Y0258508D02*
X0505957Y0259411D01*
X0506074Y0259404D01*
X0506017Y0258501D01*
X0505900Y0258508D01*
G37*
G36*
X0506018Y0258500D02*
X0506075Y0259403D01*
X0506192Y0259396D01*
X0506135Y0258493D01*
X0506018Y0258500D01*
G37*
G36*
X0506293Y0258483D02*
X0506350Y0259386D01*
X0506467Y0259379D01*
X0506410Y0258476D01*
X0506293Y0258483D01*
G37*
G36*
X0506411Y0258475D02*
X0506468Y0259378D01*
X0506585Y0259371D01*
X0506528Y0258468D01*
X0506411Y0258475D01*
G37*
G36*
X0506529Y0258468D02*
X0506586Y0259371D01*
X0506703Y0259364D01*
X0506646Y0258461D01*
X0506529Y0258468D01*
G37*
G36*
X0506116Y0254737D02*
X0506173Y0255640D01*
X0506290Y0255633D01*
X0506233Y0254730D01*
X0506116Y0254737D01*
G37*
G36*
X0505998Y0254744D02*
X0506055Y0255647D01*
X0506172Y0255640D01*
X0506115Y0254737D01*
X0505998Y0254744D01*
G37*
G36*
X0505723Y0254761D02*
X0505780Y0255664D01*
X0505897Y0255657D01*
X0505840Y0254754D01*
X0505723Y0254761D01*
G37*
D52*
G36*
X0507483Y0252640D02*
X0507508Y0253032D01*
X0507625Y0253024D01*
X0507600Y0252632D01*
X0507483Y0252640D01*
G37*
G36*
X0507159Y0262216D02*
X0507184Y0262608D01*
X0507301Y0262600D01*
X0507276Y0262208D01*
X0507159Y0262216D01*
G37*
G36*
X0504742Y0283643D02*
X0504717Y0284035D01*
X0504834Y0284043D01*
X0504859Y0283651D01*
X0504742Y0283643D01*
G37*
G36*
X0364882Y0263456D02*
X0364944Y0263844D01*
X0365060Y0263826D01*
X0364998Y0263438D01*
X0364882Y0263456D01*
G37*
G36*
X0364210Y0253064D02*
X0364272Y0253452D01*
X0364388Y0253434D01*
X0364326Y0253046D01*
X0364210Y0253064D01*
G37*
G36*
X0362467Y0283311D02*
X0362413Y0283700D01*
X0362529Y0283717D01*
X0362583Y0283328D01*
X0362467Y0283311D01*
G37*
G36*
X0312663Y0281961D02*
X0312543Y0282335D01*
X0312655Y0282371D01*
X0312775Y0281997D01*
X0312663Y0281961D01*
G37*
G36*
X0314660Y0264751D02*
X0314780Y0265125D01*
X0314892Y0265089D01*
X0314772Y0264715D01*
X0314660Y0264751D01*
G37*
G36*
X0312467Y0254351D02*
X0312587Y0254725D01*
X0312699Y0254689D01*
X0312579Y0254315D01*
X0312467Y0254351D01*
G37*
X0283696Y0319782D03*
X0283696Y0369782D03*
X0282446Y0514532D03*
D53*
X0266383Y0514414D03*
X0267633Y0369664D03*
X0267633Y0319664D03*
X0260272Y0315414D03*
G36*
X0312004Y0261930D02*
X0312854Y0264550D01*
X0312966Y0264514D01*
X0312116Y0261894D01*
X0312004Y0261930D01*
G37*
G36*
X0313801Y0261346D02*
X0314651Y0263966D01*
X0314763Y0263930D01*
X0313913Y0261310D01*
X0313801Y0261346D01*
G37*
G36*
X0312349Y0256791D02*
X0313199Y0259411D01*
X0313311Y0259375D01*
X0312461Y0256755D01*
X0312349Y0256791D01*
G37*
G36*
X0310664Y0257338D02*
X0311514Y0259958D01*
X0311626Y0259922D01*
X0310776Y0257302D01*
X0310664Y0257338D01*
G37*
G36*
X0361962Y0255732D02*
X0362392Y0258453D01*
X0362508Y0258434D01*
X0362078Y0255713D01*
X0361962Y0255732D01*
G37*
G36*
X0363712Y0255455D02*
X0364142Y0258176D01*
X0364258Y0258157D01*
X0363828Y0255436D01*
X0363712Y0255455D01*
G37*
G36*
X0364568Y0259959D02*
X0364998Y0262680D01*
X0365114Y0262661D01*
X0364684Y0259940D01*
X0364568Y0259959D01*
G37*
G36*
X0362701Y0260255D02*
X0363131Y0262976D01*
X0363247Y0262957D01*
X0362817Y0260236D01*
X0362701Y0260255D01*
G37*
G36*
X0504994Y0255084D02*
X0505166Y0257833D01*
X0505284Y0257826D01*
X0505112Y0255077D01*
X0504994Y0255084D01*
G37*
G36*
X0506762Y0254973D02*
X0506934Y0257722D01*
X0507052Y0257715D01*
X0506880Y0254966D01*
X0506762Y0254973D01*
G37*
G36*
X0507175Y0258704D02*
X0507347Y0261453D01*
X0507465Y0261446D01*
X0507293Y0258697D01*
X0507175Y0258704D01*
G37*
G36*
X0505289Y0258823D02*
X0505461Y0261572D01*
X0505579Y0261565D01*
X0505407Y0258816D01*
X0505289Y0258823D01*
G37*
D54*
G36*
X0504897Y0262635D02*
X0504984Y0264009D01*
X0505101Y0264001D01*
X0505014Y0262627D01*
X0504897Y0262635D01*
G37*
G36*
X0507365Y0282072D02*
X0507278Y0283446D01*
X0507395Y0283454D01*
X0507482Y0282080D01*
X0507365Y0282072D01*
G37*
G36*
X0505868Y0290919D02*
X0505781Y0292293D01*
X0505898Y0292301D01*
X0505985Y0290927D01*
X0505868Y0290919D01*
G37*
G36*
X0365203Y0281946D02*
X0365012Y0283310D01*
X0365129Y0283326D01*
X0365320Y0281962D01*
X0365203Y0281946D01*
G37*
G36*
X0363066Y0290480D02*
X0362875Y0291844D01*
X0362992Y0291860D01*
X0363183Y0290496D01*
X0363066Y0290480D01*
G37*
G36*
X0362669Y0264086D02*
X0362884Y0265446D01*
X0363001Y0265428D01*
X0362786Y0264068D01*
X0362669Y0264086D01*
G37*
G36*
X0312572Y0265719D02*
X0312997Y0267029D01*
X0313110Y0266993D01*
X0312685Y0265683D01*
X0312572Y0265719D01*
G37*
G36*
X0315594Y0281092D02*
X0315169Y0282402D01*
X0315282Y0282438D01*
X0315707Y0281128D01*
X0315594Y0281092D01*
G37*
G36*
X0312461Y0288945D02*
X0312036Y0290255D01*
X0312149Y0290291D01*
X0312574Y0288981D01*
X0312461Y0288945D01*
G37*
X0290961Y0315532D03*
X0290450Y0315926D03*
X0283639Y0317068D03*
X0277615Y0317068D03*
X0272694Y0317816D03*
X0269780Y0315926D03*
X0262141Y0319428D03*
X0256946Y0316044D03*
X0256434Y0315532D03*
X0262141Y0369428D03*
X0260891Y0514178D03*
D55*
X0267835Y0510532D03*
X0271300Y0510532D03*
X0274135Y0509745D03*
X0274135Y0509587D03*
X0274135Y0509430D03*
X0274135Y0509272D03*
X0277442Y0509430D03*
X0275831Y0514040D03*
X0284843Y0509430D03*
X0290198Y0510532D03*
X0293662Y0510532D03*
X0296654Y0509587D03*
X0296654Y0509430D03*
X0293662Y0506910D03*
X0290198Y0506910D03*
X0256339Y0506753D03*
X0251457Y0508328D03*
X0251300Y0508170D03*
X0251143Y0508013D03*
X0251300Y0509430D03*
X0277081Y0369290D03*
X0275404Y0366837D03*
X0275404Y0366680D03*
X0272412Y0367782D03*
X0269105Y0367782D03*
X0278711Y0366680D03*
X0282648Y0365105D03*
X0286113Y0366680D03*
X0291467Y0367782D03*
X0252570Y0365578D03*
X0252412Y0365420D03*
X0252412Y0365263D03*
X0252570Y0364160D03*
X0252412Y0366680D03*
X0277081Y0319290D03*
X0287871Y0315040D03*
D56*
X0280686Y0315670D03*
X0264621Y0319290D03*
X0256749Y0315040D03*
X0264621Y0369290D03*
G36*
X0312721Y0282932D02*
X0312101Y0284840D01*
X0312249Y0284888D01*
X0312869Y0282980D01*
X0312721Y0282932D01*
G37*
G36*
X0313883Y0283434D02*
X0313263Y0285342D01*
X0313411Y0285390D01*
X0314031Y0283482D01*
X0313883Y0283434D01*
G37*
G36*
X0362692Y0284257D02*
X0362414Y0286245D01*
X0362568Y0286267D01*
X0362846Y0284279D01*
X0362692Y0284257D01*
G37*
G36*
X0363924Y0284549D02*
X0363646Y0286537D01*
X0363800Y0286559D01*
X0364078Y0284571D01*
X0363924Y0284549D01*
G37*
G36*
X0505039Y0284570D02*
X0504913Y0286573D01*
X0505067Y0286582D01*
X0505193Y0284579D01*
X0505039Y0284570D01*
G37*
G36*
X0506289Y0284767D02*
X0506163Y0286770D01*
X0506317Y0286779D01*
X0506443Y0284776D01*
X0506289Y0284767D01*
G37*
X0263371Y0514040D03*
D57*
X0260831Y0514040D03*
X0256418Y0510847D03*
X0254528Y0509430D03*
X0254528Y0508013D03*
X0254686Y0507855D03*
X0250749Y0507698D03*
X0266969Y0508957D03*
X0270276Y0507855D03*
X0273741Y0510375D03*
X0276733Y0508957D03*
X0277363Y0510217D03*
X0278150Y0508800D03*
X0278308Y0508485D03*
X0278938Y0507225D03*
X0279883Y0508957D03*
X0279883Y0509745D03*
X0283977Y0508485D03*
X0284135Y0508800D03*
X0285552Y0508957D03*
X0285709Y0508643D03*
X0284922Y0510217D03*
X0289331Y0509745D03*
X0291064Y0509745D03*
X0292796Y0509745D03*
X0294528Y0509745D03*
X0296261Y0510375D03*
X0294528Y0507698D03*
X0292796Y0507698D03*
X0291064Y0507698D03*
X0289331Y0507698D03*
X0275946Y0507225D03*
X0262081Y0369290D03*
X0268081Y0366995D03*
X0268081Y0366207D03*
X0268239Y0366050D03*
X0269971Y0366995D03*
X0271546Y0366995D03*
X0271546Y0364948D03*
X0273278Y0364948D03*
X0275011Y0367625D03*
X0278003Y0366207D03*
X0277845Y0365893D03*
X0277215Y0364633D03*
X0279578Y0365735D03*
X0279420Y0366050D03*
X0278633Y0367467D03*
X0281152Y0366995D03*
X0284617Y0364475D03*
X0285404Y0366207D03*
X0286034Y0367467D03*
X0286822Y0366050D03*
X0286979Y0365735D03*
X0287609Y0364475D03*
X0290601Y0364948D03*
X0292333Y0364948D03*
X0292333Y0366995D03*
X0255798Y0366837D03*
X0255641Y0366522D03*
X0255798Y0365263D03*
X0253121Y0365893D03*
X0262081Y0319290D03*
D58*
X0256690Y0316792D03*
X0256808Y0315926D03*
X0256690Y0315808D03*
X0268066Y0318916D03*
X0269918Y0317698D03*
X0275076Y0316792D03*
X0277595Y0316792D03*
X0283658Y0316792D03*
X0290706Y0317698D03*
G36*
X0315269Y0284133D02*
X0314759Y0285705D01*
X0314871Y0285741D01*
X0315381Y0284169D01*
X0315269Y0284133D01*
G37*
G36*
X0313364Y0257495D02*
X0313874Y0259067D01*
X0313986Y0259031D01*
X0313476Y0257459D01*
X0313364Y0257495D01*
G37*
G36*
X0364605Y0256310D02*
X0364863Y0257943D01*
X0364979Y0257924D01*
X0364721Y0256291D01*
X0364605Y0256310D01*
G37*
G36*
X0365410Y0284996D02*
X0365181Y0286633D01*
X0365298Y0286650D01*
X0365527Y0285013D01*
X0365410Y0284996D01*
G37*
X0268066Y0368916D03*
X0266816Y0513666D03*
G36*
X0507806Y0285098D02*
X0507702Y0286748D01*
X0507818Y0286756D01*
X0507922Y0285106D01*
X0507806Y0285098D01*
G37*
G36*
X0507571Y0255908D02*
X0507675Y0257558D01*
X0507791Y0257550D01*
X0507687Y0255900D01*
X0507571Y0255908D01*
G37*
D59*
X0505266Y0267724D03*
X0363016Y0268474D03*
X0313466Y0268474D03*
X0283639Y0317934D03*
X0277615Y0317934D03*
X0277022Y0318798D03*
X0274583Y0317934D03*
X0264542Y0318798D03*
X0258206Y0317934D03*
X0256828Y0314548D03*
X0264542Y0368798D03*
X0277022Y0368798D03*
X0275772Y0513548D03*
X0263292Y0513548D03*
D60*
G36*
X0309757Y0253783D02*
X0310073Y0254756D01*
X0310221Y0254707D01*
X0309905Y0253734D01*
X0309757Y0253783D01*
G37*
G36*
X0310955Y0253394D02*
X0311271Y0254367D01*
X0311419Y0254318D01*
X0311103Y0253345D01*
X0310955Y0253394D01*
G37*
G36*
X0310414Y0255805D02*
X0310730Y0256778D01*
X0310878Y0256729D01*
X0310562Y0255756D01*
X0310414Y0255805D01*
G37*
G36*
X0312180Y0261708D02*
X0312496Y0262681D01*
X0312644Y0262632D01*
X0312328Y0261659D01*
X0312180Y0261708D01*
G37*
G36*
X0314379Y0279868D02*
X0314063Y0280841D01*
X0314211Y0280890D01*
X0314527Y0279917D01*
X0314379Y0279868D01*
G37*
G36*
X0315860Y0281426D02*
X0315544Y0282399D01*
X0315692Y0282448D01*
X0316008Y0281475D01*
X0315860Y0281426D01*
G37*
G36*
X0313074Y0281846D02*
X0312758Y0282819D01*
X0312906Y0282868D01*
X0313222Y0281895D01*
X0313074Y0281846D01*
G37*
X0284209Y0316300D03*
X0277044Y0316300D03*
X0274761Y0317560D03*
X0259406Y0316930D03*
G36*
X0362853Y0283127D02*
X0362710Y0284140D01*
X0362863Y0284161D01*
X0363006Y0283148D01*
X0362853Y0283127D01*
G37*
G36*
X0363794Y0280953D02*
X0363651Y0281966D01*
X0363804Y0281987D01*
X0363947Y0280974D01*
X0363794Y0280953D01*
G37*
G36*
X0365523Y0282230D02*
X0365380Y0283243D01*
X0365533Y0283264D01*
X0365676Y0282251D01*
X0365523Y0282230D01*
G37*
G36*
X0362910Y0260062D02*
X0363070Y0261072D01*
X0363224Y0261048D01*
X0363064Y0260038D01*
X0362910Y0260062D01*
G37*
G36*
X0361955Y0254178D02*
X0362115Y0255188D01*
X0362269Y0255164D01*
X0362109Y0254154D01*
X0361955Y0254178D01*
G37*
G36*
X0361623Y0252079D02*
X0361783Y0253089D01*
X0361937Y0253065D01*
X0361777Y0252055D01*
X0361623Y0252079D01*
G37*
G36*
X0362867Y0251881D02*
X0363027Y0252891D01*
X0363181Y0252867D01*
X0363021Y0251857D01*
X0362867Y0251881D01*
G37*
G36*
X0505001Y0251414D02*
X0505065Y0252435D01*
X0505219Y0252426D01*
X0505155Y0251405D01*
X0505001Y0251414D01*
G37*
G36*
X0506259Y0251335D02*
X0506323Y0252356D01*
X0506477Y0252347D01*
X0506413Y0251326D01*
X0506259Y0251335D01*
G37*
G36*
X0505135Y0253536D02*
X0505199Y0254557D01*
X0505353Y0254548D01*
X0505289Y0253527D01*
X0505135Y0253536D01*
G37*
G36*
X0505516Y0258650D02*
X0505580Y0259671D01*
X0505734Y0259662D01*
X0505670Y0258641D01*
X0505516Y0258650D01*
G37*
G36*
X0505883Y0281190D02*
X0505819Y0282211D01*
X0505973Y0282220D01*
X0506037Y0281199D01*
X0505883Y0281190D01*
G37*
G36*
X0507705Y0282331D02*
X0507641Y0283352D01*
X0507795Y0283361D01*
X0507859Y0282340D01*
X0507705Y0282331D01*
G37*
G36*
X0505111Y0283430D02*
X0505047Y0284451D01*
X0505201Y0284460D01*
X0505265Y0283439D01*
X0505111Y0283430D01*
G37*
D61*
G36*
X0507546Y0284846D02*
X0507413Y0286967D01*
X0507568Y0286976D01*
X0507701Y0284855D01*
X0507546Y0284846D01*
G37*
G36*
X0504404Y0251965D02*
X0504537Y0254086D01*
X0504692Y0254077D01*
X0504559Y0251956D01*
X0504404Y0251965D01*
G37*
G36*
X0365171Y0284725D02*
X0364876Y0286829D01*
X0365031Y0286851D01*
X0365326Y0284747D01*
X0365171Y0284725D01*
G37*
G36*
X0361081Y0252683D02*
X0361413Y0254782D01*
X0361567Y0254757D01*
X0361235Y0252658D01*
X0361081Y0252683D01*
G37*
G36*
X0315081Y0283823D02*
X0314425Y0285844D01*
X0314573Y0285893D01*
X0315229Y0283872D01*
X0315081Y0283823D01*
G37*
G36*
X0309317Y0254465D02*
X0309973Y0256486D01*
X0310121Y0256437D01*
X0309465Y0254416D01*
X0309317Y0254465D01*
G37*
X0263501Y0316300D03*
D62*
X0258127Y0316556D03*
X0258127Y0316674D03*
X0276394Y0314666D03*
X0284859Y0314666D03*
G36*
X0315335Y0284692D02*
X0315178Y0285178D01*
X0315291Y0285214D01*
X0315448Y0284728D01*
X0315335Y0284692D01*
G37*
G36*
X0316160Y0281773D02*
X0316003Y0282259D01*
X0316116Y0282295D01*
X0316273Y0281809D01*
X0316160Y0281773D01*
G37*
G36*
X0365575Y0285537D02*
X0365503Y0286043D01*
X0365619Y0286059D01*
X0365691Y0285553D01*
X0365575Y0285537D01*
G37*
G36*
X0365879Y0282518D02*
X0365807Y0283024D01*
X0365923Y0283040D01*
X0365995Y0282534D01*
X0365879Y0282518D01*
G37*
G36*
X0508010Y0285624D02*
X0507978Y0286134D01*
X0508094Y0286142D01*
X0508126Y0285632D01*
X0508010Y0285624D01*
G37*
G36*
X0508082Y0282591D02*
X0508050Y0283101D01*
X0508166Y0283109D01*
X0508198Y0282599D01*
X0508082Y0282591D01*
G37*
D63*
G36*
X0504936Y0291335D02*
X0504926Y0291489D01*
X0505080Y0291499D01*
X0505090Y0291345D01*
X0504936Y0291335D01*
G37*
G36*
X0362105Y0290822D02*
X0362083Y0290976D01*
X0362237Y0290998D01*
X0362259Y0290844D01*
X0362105Y0290822D01*
G37*
G36*
X0311455Y0289115D02*
X0311407Y0289263D01*
X0311555Y0289311D01*
X0311603Y0289163D01*
X0311455Y0289115D01*
G37*
D64*
G36*
X0312200Y0288860D02*
X0311739Y0290282D01*
X0311888Y0290330D01*
X0312349Y0288908D01*
X0312200Y0288860D01*
G37*
X0283580Y0316930D03*
X0277674Y0316930D03*
X0270115Y0315670D03*
G36*
X0362794Y0290442D02*
X0362587Y0291922D01*
X0362742Y0291944D01*
X0362949Y0290464D01*
X0362794Y0290442D01*
G37*
G36*
X0505594Y0290902D02*
X0505500Y0292394D01*
X0505654Y0292404D01*
X0505748Y0290912D01*
X0505594Y0290902D01*
G37*
D65*
G36*
X0507213Y0291478D02*
X0507124Y0292890D01*
X0507241Y0292898D01*
X0507330Y0291486D01*
X0507213Y0291478D01*
G37*
G36*
X0504190Y0252335D02*
X0504279Y0253747D01*
X0504396Y0253739D01*
X0504307Y0252327D01*
X0504190Y0252335D01*
G37*
G36*
X0507333Y0252137D02*
X0507422Y0253549D01*
X0507539Y0253541D01*
X0507450Y0252129D01*
X0507333Y0252137D01*
G37*
G36*
X0364013Y0252577D02*
X0364234Y0253975D01*
X0364351Y0253957D01*
X0364130Y0252559D01*
X0364013Y0252577D01*
G37*
G36*
X0360902Y0253070D02*
X0361123Y0254468D01*
X0361240Y0254450D01*
X0361019Y0253052D01*
X0360902Y0253070D01*
G37*
G36*
X0364365Y0291140D02*
X0364169Y0292541D01*
X0364285Y0292558D01*
X0364481Y0291157D01*
X0364365Y0291140D01*
G37*
G36*
X0313626Y0289821D02*
X0313190Y0291167D01*
X0313302Y0291203D01*
X0313738Y0289857D01*
X0313626Y0289821D01*
G37*
G36*
X0309201Y0254875D02*
X0309637Y0256221D01*
X0309749Y0256185D01*
X0309313Y0254839D01*
X0309201Y0254875D01*
G37*
G36*
X0312197Y0253901D02*
X0312633Y0255247D01*
X0312745Y0255211D01*
X0312309Y0253865D01*
X0312197Y0253901D01*
G37*
X0274957Y0316556D03*
X0274957Y0317186D03*
X0269918Y0315808D03*
D66*
X0269918Y0315178D03*
X0269918Y0314902D03*
G36*
X0309493Y0254118D02*
X0310319Y0256662D01*
X0310431Y0256626D01*
X0309605Y0254082D01*
X0309493Y0254118D01*
G37*
G36*
X0311515Y0253461D02*
X0312341Y0256005D01*
X0312453Y0255969D01*
X0311627Y0253425D01*
X0311515Y0253461D01*
G37*
G36*
X0361310Y0252368D02*
X0361728Y0255010D01*
X0361844Y0254992D01*
X0361426Y0252350D01*
X0361310Y0252368D01*
G37*
G36*
X0363409Y0252035D02*
X0363827Y0254677D01*
X0363943Y0254659D01*
X0363525Y0252017D01*
X0363409Y0252035D01*
G37*
G36*
X0504662Y0251674D02*
X0504829Y0254344D01*
X0504946Y0254336D01*
X0504779Y0251666D01*
X0504662Y0251674D01*
G37*
G36*
X0506783Y0251540D02*
X0506950Y0254210D01*
X0507067Y0254202D01*
X0506900Y0251532D01*
X0506783Y0251540D01*
G37*
D67*
G36*
X0504772Y0251548D02*
X0504954Y0254453D01*
X0505072Y0254446D01*
X0504890Y0251541D01*
X0504772Y0251548D01*
G37*
G36*
X0361407Y0252233D02*
X0361862Y0255108D01*
X0361979Y0255089D01*
X0361524Y0252214D01*
X0361407Y0252233D01*
G37*
G36*
X0309568Y0253969D02*
X0310467Y0256737D01*
X0310580Y0256701D01*
X0309681Y0253933D01*
X0309568Y0253969D01*
G37*
X0283658Y0315532D03*
X0277595Y0315532D03*
D68*
X0256690Y0316930D03*
X0255719Y0365420D03*
X0255562Y0365578D03*
X0255562Y0365735D03*
X0255562Y0365893D03*
X0255562Y0366050D03*
X0255562Y0366207D03*
X0255562Y0366365D03*
X0255719Y0366680D03*
X0268003Y0366680D03*
X0268003Y0366837D03*
X0268003Y0366522D03*
X0268003Y0366365D03*
X0270050Y0366365D03*
X0270050Y0366522D03*
X0270050Y0366680D03*
X0270050Y0366837D03*
X0271310Y0366207D03*
X0271310Y0366050D03*
X0271310Y0365893D03*
X0271467Y0365420D03*
X0271467Y0365263D03*
X0271467Y0365105D03*
X0271467Y0366680D03*
X0271467Y0366837D03*
X0273357Y0366837D03*
X0273357Y0366995D03*
X0273515Y0366680D03*
X0273515Y0366522D03*
X0273515Y0366365D03*
X0273515Y0366207D03*
X0273515Y0366050D03*
X0273515Y0365893D03*
X0273515Y0365735D03*
X0273515Y0365578D03*
X0273515Y0365420D03*
X0273515Y0365263D03*
X0273357Y0365105D03*
X0274932Y0365105D03*
X0274932Y0364948D03*
X0274932Y0364790D03*
X0274932Y0364633D03*
X0274932Y0364475D03*
X0274932Y0364318D03*
X0274932Y0365263D03*
X0274932Y0365420D03*
X0274932Y0365578D03*
X0274932Y0365735D03*
X0274932Y0365893D03*
X0274932Y0366050D03*
X0274932Y0366207D03*
X0274932Y0367782D03*
X0277924Y0366050D03*
X0277767Y0365735D03*
X0277137Y0364475D03*
X0277137Y0364318D03*
X0279499Y0365893D03*
X0279341Y0366207D03*
X0278711Y0367625D03*
X0281074Y0366837D03*
X0281074Y0366365D03*
X0281074Y0366207D03*
X0280129Y0364633D03*
X0280129Y0364475D03*
X0280286Y0364318D03*
X0284538Y0364318D03*
X0284538Y0364160D03*
X0284696Y0364633D03*
X0285168Y0365735D03*
X0285326Y0365893D03*
X0285326Y0366050D03*
X0286743Y0366207D03*
X0286900Y0365893D03*
X0287530Y0364633D03*
X0287688Y0364318D03*
X0290365Y0365263D03*
X0290365Y0365420D03*
X0290365Y0365578D03*
X0290365Y0365735D03*
X0290365Y0365893D03*
X0290365Y0366050D03*
X0290365Y0366207D03*
X0290365Y0366365D03*
X0290365Y0366522D03*
X0290365Y0366680D03*
X0290522Y0366837D03*
X0290522Y0366995D03*
X0290522Y0365105D03*
X0292412Y0365105D03*
X0292412Y0365263D03*
X0292412Y0365420D03*
X0292570Y0366050D03*
X0292412Y0366522D03*
X0292412Y0366680D03*
X0292412Y0366837D03*
X0293830Y0366837D03*
X0293830Y0366680D03*
X0293830Y0366522D03*
X0293830Y0366365D03*
X0293830Y0366207D03*
X0293830Y0366995D03*
X0293830Y0367152D03*
X0293830Y0367310D03*
X0293830Y0367467D03*
X0293830Y0367625D03*
X0295404Y0367625D03*
X0295404Y0367782D03*
X0295404Y0367467D03*
X0295562Y0367310D03*
X0295562Y0367152D03*
X0295562Y0366995D03*
X0295562Y0366837D03*
X0295719Y0366680D03*
X0295719Y0366522D03*
X0295719Y0366365D03*
X0295719Y0366207D03*
X0293830Y0364948D03*
X0293830Y0364790D03*
X0293830Y0364633D03*
X0293830Y0364475D03*
X0293830Y0364318D03*
X0286113Y0367625D03*
G36*
X0310852Y0257153D02*
X0311192Y0258200D01*
X0311340Y0258151D01*
X0311000Y0257104D01*
X0310852Y0257153D01*
G37*
G36*
X0362177Y0255578D02*
X0362349Y0256666D01*
X0362503Y0256642D01*
X0362331Y0255554D01*
X0362177Y0255578D01*
G37*
G36*
X0505223Y0254951D02*
X0505292Y0256050D01*
X0505447Y0256041D01*
X0505378Y0254942D01*
X0505223Y0254951D01*
G37*
X0294607Y0507855D03*
X0294607Y0508013D03*
X0294765Y0508170D03*
X0294765Y0508328D03*
X0294765Y0508485D03*
X0294765Y0508643D03*
X0294765Y0508800D03*
X0294765Y0508957D03*
X0294765Y0509115D03*
X0294765Y0509272D03*
X0294607Y0509587D03*
X0292717Y0509587D03*
X0292717Y0509430D03*
X0292560Y0509115D03*
X0292560Y0508957D03*
X0292560Y0508800D03*
X0292560Y0508643D03*
X0292560Y0508485D03*
X0292560Y0508328D03*
X0292717Y0508013D03*
X0292717Y0507855D03*
X0291300Y0508170D03*
X0291300Y0508328D03*
X0291300Y0508485D03*
X0291300Y0508643D03*
X0291300Y0508800D03*
X0291300Y0508957D03*
X0291300Y0509115D03*
X0291300Y0509272D03*
X0291143Y0509587D03*
X0291143Y0508013D03*
X0291143Y0507855D03*
X0289253Y0507855D03*
X0289253Y0508013D03*
X0289095Y0508328D03*
X0289095Y0508485D03*
X0289095Y0508643D03*
X0289095Y0508800D03*
X0289095Y0508957D03*
X0289095Y0509115D03*
X0289253Y0509430D03*
X0289253Y0509587D03*
X0285788Y0508485D03*
X0285631Y0508800D03*
X0284213Y0508957D03*
X0284056Y0508643D03*
X0283426Y0507383D03*
X0283426Y0507225D03*
X0283269Y0507068D03*
X0282009Y0507068D03*
X0282009Y0507225D03*
X0282009Y0507383D03*
X0282009Y0507540D03*
X0282009Y0507698D03*
X0282009Y0506910D03*
X0282009Y0508957D03*
X0282009Y0509115D03*
X0282009Y0509272D03*
X0282009Y0509430D03*
X0282009Y0509587D03*
X0282009Y0509745D03*
X0279804Y0509587D03*
X0279804Y0509430D03*
X0279804Y0509272D03*
X0279804Y0509115D03*
X0278229Y0508643D03*
X0278072Y0508957D03*
X0276654Y0508800D03*
X0276654Y0508643D03*
X0276497Y0508485D03*
X0276024Y0507383D03*
X0275867Y0507068D03*
X0275867Y0506910D03*
X0273662Y0506910D03*
X0273662Y0507068D03*
X0273662Y0507225D03*
X0273662Y0507383D03*
X0273662Y0507540D03*
X0273662Y0507698D03*
X0273662Y0507855D03*
X0273662Y0508013D03*
X0273662Y0508170D03*
X0273662Y0508328D03*
X0273662Y0508485D03*
X0273662Y0508643D03*
X0273662Y0508800D03*
X0273662Y0508957D03*
X0272245Y0508957D03*
X0272245Y0508800D03*
X0272245Y0508643D03*
X0272245Y0508485D03*
X0272245Y0508328D03*
X0272245Y0508170D03*
X0272245Y0508013D03*
X0272245Y0507855D03*
X0272087Y0507698D03*
X0272245Y0509115D03*
X0272245Y0509272D03*
X0272245Y0509430D03*
X0272245Y0509587D03*
X0272087Y0509745D03*
X0270355Y0509745D03*
X0270198Y0509587D03*
X0270198Y0509430D03*
X0270198Y0509272D03*
X0270198Y0509115D03*
X0270198Y0508957D03*
X0270198Y0508800D03*
X0270198Y0508643D03*
X0270198Y0508485D03*
X0270198Y0508328D03*
X0270198Y0508170D03*
X0270198Y0508013D03*
X0270355Y0507698D03*
X0268780Y0509587D03*
X0268780Y0509745D03*
X0266891Y0509745D03*
X0266891Y0509587D03*
X0266891Y0509272D03*
X0266891Y0509115D03*
X0263898Y0509115D03*
X0263898Y0509272D03*
X0263898Y0509430D03*
X0263898Y0509587D03*
X0263898Y0509745D03*
X0263898Y0509902D03*
X0263898Y0510060D03*
X0263898Y0510217D03*
X0263898Y0510375D03*
X0263898Y0510532D03*
X0263898Y0508957D03*
X0263898Y0508800D03*
X0263898Y0508643D03*
X0263898Y0508485D03*
X0263898Y0508328D03*
X0263898Y0508170D03*
X0263898Y0508013D03*
X0263898Y0507855D03*
X0263898Y0507698D03*
X0260591Y0507855D03*
X0260591Y0508013D03*
X0260591Y0508170D03*
X0260591Y0509430D03*
X0260591Y0509587D03*
X0260591Y0509745D03*
X0256969Y0509745D03*
X0256969Y0509587D03*
X0256969Y0509430D03*
X0256969Y0509272D03*
X0256969Y0509115D03*
X0256969Y0508957D03*
X0256969Y0508800D03*
X0256969Y0508643D03*
X0256969Y0508485D03*
X0256969Y0508328D03*
X0256969Y0508170D03*
X0256969Y0508013D03*
X0256969Y0507855D03*
X0254450Y0508170D03*
X0254450Y0508328D03*
X0254292Y0508485D03*
X0254292Y0508643D03*
X0254292Y0508800D03*
X0254292Y0508957D03*
X0254450Y0509272D03*
X0251930Y0508643D03*
X0273662Y0510532D03*
X0277442Y0510375D03*
X0278859Y0507383D03*
X0279017Y0507068D03*
X0284843Y0510375D03*
X0286261Y0507383D03*
X0286418Y0507225D03*
X0286418Y0507068D03*
D69*
G36*
X0311403Y0253497D02*
X0312265Y0256153D01*
X0312377Y0256117D01*
X0311515Y0253461D01*
X0311403Y0253497D01*
G37*
G36*
X0363293Y0252054D02*
X0363729Y0254813D01*
X0363845Y0254794D01*
X0363409Y0252035D01*
X0363293Y0252054D01*
G37*
G36*
X0506665Y0251547D02*
X0506839Y0254334D01*
X0506957Y0254327D01*
X0506783Y0251540D01*
X0506665Y0251547D01*
G37*
D70*
G36*
X0504919Y0259202D02*
X0505055Y0261360D01*
X0505209Y0261350D01*
X0505073Y0259192D01*
X0504919Y0259202D01*
G37*
G36*
X0362368Y0260667D02*
X0362706Y0262803D01*
X0362860Y0262779D01*
X0362522Y0260643D01*
X0362368Y0260667D01*
G37*
G36*
X0311740Y0262390D02*
X0312408Y0264447D01*
X0312556Y0264398D01*
X0311888Y0262341D01*
X0311740Y0262390D01*
G37*
D71*
G36*
X0313311Y0265189D02*
X0313433Y0265563D01*
X0313581Y0265515D01*
X0313459Y0265141D01*
X0313311Y0265189D01*
G37*
G36*
X0363483Y0263678D02*
X0363544Y0264066D01*
X0363697Y0264042D01*
X0363636Y0263654D01*
X0363483Y0263678D01*
G37*
G36*
X0505745Y0262305D02*
X0505770Y0262697D01*
X0505925Y0262687D01*
X0505900Y0262295D01*
X0505745Y0262305D01*
G37*
D72*
G36*
X0507057Y0258711D02*
X0507126Y0259810D01*
X0507243Y0259803D01*
X0507174Y0258704D01*
X0507057Y0258711D01*
G37*
G36*
X0364451Y0259978D02*
X0364622Y0261065D01*
X0364739Y0261046D01*
X0364568Y0259959D01*
X0364451Y0259978D01*
G37*
G36*
X0313689Y0261384D02*
X0314029Y0262431D01*
X0314141Y0262394D01*
X0313801Y0261347D01*
X0313689Y0261384D01*
G37*
D73*
G36*
X0314285Y0261563D02*
X0314953Y0263620D01*
X0315065Y0263583D01*
X0314397Y0261526D01*
X0314285Y0261563D01*
G37*
G36*
X0365012Y0260248D02*
X0365349Y0262384D01*
X0365466Y0262366D01*
X0365129Y0260230D01*
X0365012Y0260248D01*
G37*
X0287930Y0315178D03*
X0287930Y0317304D03*
X0272694Y0317304D03*
X0272694Y0315296D03*
X0272694Y0315178D03*
G36*
X0507591Y0259033D02*
X0507726Y0261192D01*
X0507843Y0261185D01*
X0507708Y0259026D01*
X0507591Y0259033D01*
G37*
D74*
G36*
X0508001Y0259915D02*
X0508023Y0260267D01*
X0508139Y0260259D01*
X0508117Y0259907D01*
X0508001Y0259915D01*
G37*
G36*
X0365504Y0261087D02*
X0365559Y0261436D01*
X0365674Y0261417D01*
X0365619Y0261068D01*
X0365504Y0261087D01*
G37*
G36*
X0314902Y0262313D02*
X0315011Y0262649D01*
X0315122Y0262613D01*
X0315013Y0262277D01*
X0314902Y0262313D01*
G37*
X0272694Y0314548D03*
X0258206Y0316438D03*
D75*
X0316784Y0275636D03*
X0313466Y0270226D03*
X0314332Y0269596D03*
X0316734Y0268454D03*
X0363016Y0270226D03*
X0363882Y0269596D03*
X0366284Y0268454D03*
X0366184Y0276186D03*
X0505266Y0269476D03*
X0506132Y0268846D03*
X0508534Y0267704D03*
X0508434Y0275436D03*
D76*
X0505384Y0269476D03*
X0363134Y0270226D03*
X0313584Y0270226D03*
D77*
X0313584Y0268395D03*
X0315986Y0269655D03*
X0315356Y0271544D03*
X0315238Y0271544D03*
X0314962Y0271544D03*
X0313752Y0275695D03*
X0313634Y0275695D03*
X0316666Y0275695D03*
X0315918Y0278844D03*
X0315642Y0278844D03*
X0315524Y0278844D03*
X0315406Y0278844D03*
X0315288Y0278844D03*
X0315012Y0278844D03*
X0314894Y0278844D03*
X0314776Y0278844D03*
X0314658Y0278844D03*
X0314382Y0278844D03*
X0363034Y0276245D03*
X0363152Y0276245D03*
X0366066Y0276245D03*
X0365318Y0279394D03*
X0365042Y0279394D03*
X0364924Y0279394D03*
X0364806Y0279394D03*
X0364688Y0279394D03*
X0364412Y0279394D03*
X0364294Y0279394D03*
X0364176Y0279394D03*
X0364058Y0279394D03*
X0363782Y0279394D03*
X0364512Y0271544D03*
X0364788Y0271544D03*
X0364906Y0271544D03*
X0365536Y0269655D03*
X0363134Y0268395D03*
X0505384Y0267645D03*
X0507786Y0268905D03*
X0507156Y0270794D03*
X0507038Y0270794D03*
X0506762Y0270794D03*
X0505402Y0275495D03*
X0505284Y0275495D03*
X0508316Y0275495D03*
X0507568Y0278644D03*
X0507292Y0278644D03*
X0507174Y0278644D03*
X0507056Y0278644D03*
X0506938Y0278644D03*
X0506662Y0278644D03*
X0506544Y0278644D03*
X0506426Y0278644D03*
X0506308Y0278644D03*
X0506032Y0278644D03*
D78*
X0505284Y0278074D03*
X0505502Y0269476D03*
X0363252Y0270226D03*
X0363034Y0278824D03*
X0313634Y0278274D03*
X0313702Y0270226D03*
D79*
X0314726Y0271485D03*
X0314844Y0271485D03*
X0315474Y0271485D03*
X0315592Y0271485D03*
X0315592Y0268454D03*
X0315474Y0268454D03*
X0315356Y0268454D03*
X0315238Y0268454D03*
X0314962Y0268454D03*
X0314844Y0268454D03*
X0314726Y0268454D03*
X0314608Y0268454D03*
X0314332Y0268454D03*
X0314214Y0268454D03*
X0314096Y0268454D03*
X0313978Y0268454D03*
X0313702Y0268454D03*
X0315868Y0268454D03*
X0315986Y0268454D03*
X0316104Y0268454D03*
X0316222Y0268454D03*
X0316498Y0268454D03*
X0316616Y0268454D03*
X0316548Y0275636D03*
X0316272Y0275636D03*
X0316154Y0275636D03*
X0316036Y0275636D03*
X0315918Y0275636D03*
X0315642Y0275636D03*
X0315524Y0275636D03*
X0315406Y0275636D03*
X0315288Y0275636D03*
X0315012Y0275636D03*
X0314894Y0275636D03*
X0314776Y0275636D03*
X0314658Y0275636D03*
X0314382Y0275636D03*
X0314264Y0275636D03*
X0314146Y0275636D03*
X0314028Y0275636D03*
X0314658Y0276896D03*
X0314894Y0276778D03*
X0315012Y0276778D03*
X0315288Y0276778D03*
X0315406Y0276778D03*
X0315524Y0276778D03*
X0315642Y0276896D03*
X0363428Y0276186D03*
X0363546Y0276186D03*
X0363664Y0276186D03*
X0363782Y0276186D03*
X0364058Y0276186D03*
X0364176Y0276186D03*
X0364294Y0276186D03*
X0364412Y0276186D03*
X0364688Y0276186D03*
X0364806Y0276186D03*
X0364924Y0276186D03*
X0365042Y0276186D03*
X0365318Y0276186D03*
X0365436Y0276186D03*
X0365554Y0276186D03*
X0365672Y0276186D03*
X0365948Y0276186D03*
X0364924Y0277328D03*
X0364806Y0277328D03*
X0364688Y0277328D03*
X0364412Y0277328D03*
X0364294Y0277328D03*
X0364058Y0277446D03*
X0365042Y0277446D03*
X0365024Y0271485D03*
X0365142Y0271485D03*
X0364394Y0271485D03*
X0364276Y0271485D03*
X0364276Y0268454D03*
X0364394Y0268454D03*
X0364512Y0268454D03*
X0364788Y0268454D03*
X0364906Y0268454D03*
X0365024Y0268454D03*
X0365142Y0268454D03*
X0365418Y0268454D03*
X0365536Y0268454D03*
X0365654Y0268454D03*
X0365772Y0268454D03*
X0366048Y0268454D03*
X0366166Y0268454D03*
X0364158Y0268454D03*
X0363882Y0268454D03*
X0363764Y0268454D03*
X0363646Y0268454D03*
X0363528Y0268454D03*
X0363252Y0268454D03*
X0505502Y0267704D03*
X0505778Y0267704D03*
X0505896Y0267704D03*
X0506014Y0267704D03*
X0506132Y0267704D03*
X0506408Y0267704D03*
X0506526Y0267704D03*
X0506644Y0267704D03*
X0506762Y0267704D03*
X0507038Y0267704D03*
X0507156Y0267704D03*
X0507274Y0267704D03*
X0507392Y0267704D03*
X0507668Y0267704D03*
X0507786Y0267704D03*
X0507904Y0267704D03*
X0508022Y0267704D03*
X0508298Y0267704D03*
X0508416Y0267704D03*
X0507392Y0270735D03*
X0507274Y0270735D03*
X0506644Y0270735D03*
X0506526Y0270735D03*
X0506544Y0275436D03*
X0506426Y0275436D03*
X0506308Y0275436D03*
X0506032Y0275436D03*
X0505914Y0275436D03*
X0505796Y0275436D03*
X0505678Y0275436D03*
X0506662Y0275436D03*
X0506938Y0275436D03*
X0507056Y0275436D03*
X0507174Y0275436D03*
X0507292Y0275436D03*
X0507568Y0275436D03*
X0507686Y0275436D03*
X0507804Y0275436D03*
X0507922Y0275436D03*
X0508198Y0275436D03*
X0507174Y0276578D03*
X0507056Y0276578D03*
X0506938Y0276578D03*
X0506662Y0276578D03*
X0506544Y0276578D03*
X0506308Y0276696D03*
X0507292Y0276696D03*
D80*
X0505540Y0277896D03*
X0505640Y0269535D03*
X0508160Y0269535D03*
X0365910Y0270285D03*
X0363390Y0270285D03*
X0363290Y0278646D03*
X0316360Y0270285D03*
X0313840Y0270285D03*
X0313890Y0278096D03*
D81*
X0315150Y0276778D03*
X0315150Y0275636D03*
X0315780Y0275636D03*
X0316410Y0275636D03*
X0314520Y0275636D03*
X0313890Y0275636D03*
X0315100Y0271604D03*
X0315100Y0268454D03*
X0315730Y0268454D03*
X0316360Y0268454D03*
X0314470Y0268454D03*
X0313840Y0268454D03*
X0363390Y0268454D03*
X0364020Y0268454D03*
X0364650Y0268454D03*
X0365280Y0268454D03*
X0365910Y0268454D03*
X0364650Y0271604D03*
X0364550Y0276186D03*
X0365180Y0276186D03*
X0365810Y0276186D03*
X0364550Y0277328D03*
X0363920Y0276186D03*
X0363290Y0276186D03*
X0505540Y0275436D03*
X0506170Y0275436D03*
X0506800Y0275436D03*
X0507430Y0275436D03*
X0508060Y0275436D03*
X0506800Y0276578D03*
X0506900Y0270854D03*
X0506900Y0267704D03*
X0507530Y0267704D03*
X0508160Y0267704D03*
X0506270Y0267704D03*
X0505640Y0267704D03*
D82*
X0505778Y0269613D03*
X0508022Y0269613D03*
X0505678Y0277818D03*
X0365772Y0270363D03*
X0363528Y0270363D03*
X0363428Y0278568D03*
X0316222Y0270363D03*
X0313978Y0270363D03*
X0314028Y0278018D03*
D83*
X0314146Y0277959D03*
X0316154Y0277959D03*
X0316272Y0277959D03*
X0316104Y0270422D03*
X0314214Y0270422D03*
X0314096Y0270422D03*
X0363646Y0270422D03*
X0363764Y0270422D03*
X0365654Y0270422D03*
X0365672Y0278509D03*
X0365554Y0278509D03*
X0363546Y0278509D03*
X0505796Y0277759D03*
X0507804Y0277759D03*
X0507922Y0277759D03*
X0507904Y0269672D03*
X0506014Y0269672D03*
X0505896Y0269672D03*
D84*
X0506132Y0270480D03*
X0506032Y0276952D03*
X0505166Y0278211D03*
X0507568Y0276833D03*
X0365318Y0277583D03*
X0363782Y0277702D03*
X0362916Y0278961D03*
X0363882Y0271230D03*
X0315918Y0277033D03*
X0314382Y0277152D03*
X0313516Y0278411D03*
X0314332Y0271230D03*
D85*
X0314470Y0271289D03*
X0364020Y0271289D03*
X0506270Y0270539D03*
D86*
X0506270Y0268787D03*
X0364020Y0269537D03*
X0314470Y0269537D03*
D87*
X0314608Y0271426D03*
X0314776Y0276837D03*
X0364176Y0277387D03*
X0364158Y0271426D03*
X0506408Y0270676D03*
X0506426Y0276637D03*
D88*
X0506170Y0276755D03*
X0507430Y0276755D03*
X0507530Y0270676D03*
X0365280Y0271426D03*
X0365180Y0277505D03*
X0363920Y0277505D03*
X0315780Y0276955D03*
X0314520Y0276955D03*
X0315730Y0271426D03*
D89*
X0315868Y0271289D03*
X0365418Y0271289D03*
X0507668Y0270539D03*
D90*
X0507668Y0268787D03*
X0365418Y0269537D03*
X0315868Y0269537D03*
D91*
X0316734Y0270304D03*
X0315986Y0271170D03*
X0365536Y0271170D03*
X0366284Y0270304D03*
X0507786Y0270420D03*
X0508534Y0269554D03*
D92*
X0508298Y0269476D03*
X0508198Y0277956D03*
X0505402Y0277956D03*
X0365948Y0278706D03*
X0363152Y0278706D03*
X0366048Y0270226D03*
X0316498Y0270226D03*
X0316548Y0278156D03*
X0313752Y0278156D03*
D93*
X0316784Y0278333D03*
X0316616Y0270285D03*
X0366166Y0270285D03*
X0366184Y0278883D03*
X0508434Y0278133D03*
X0508416Y0269535D03*
D94*
X0508652Y0269476D03*
X0366402Y0270226D03*
X0316852Y0270226D03*
D95*
X0313516Y0275695D03*
X0362916Y0276245D03*
X0505166Y0275495D03*
D96*
X0505914Y0277700D03*
X0507686Y0277700D03*
X0365436Y0278450D03*
X0363664Y0278450D03*
X0316036Y0277900D03*
X0314264Y0277900D03*
D97*
X0314520Y0278844D03*
X0315150Y0278844D03*
X0315780Y0278844D03*
X0363920Y0279394D03*
X0364550Y0279394D03*
X0365180Y0279394D03*
X0506170Y0278644D03*
X0506800Y0278644D03*
X0507430Y0278644D03*
D98*
X0508060Y0277818D03*
X0365810Y0278568D03*
X0316410Y0278018D03*
D99*
X0316666Y0278215D03*
X0366066Y0278765D03*
X0508316Y0278015D03*
D100*
X0286113Y0368097D03*
X0278711Y0368097D03*
X0275877Y0366207D03*
X0254302Y0368097D03*
X0253357Y0364948D03*
X0252570Y0363845D03*
X0251457Y0506595D03*
X0251300Y0509745D03*
X0263898Y0510847D03*
X0273662Y0510847D03*
X0274607Y0508957D03*
X0277442Y0510847D03*
X0284843Y0510847D03*
X0296024Y0510847D03*
D101*
X0296024Y0510690D03*
X0293662Y0510847D03*
X0290198Y0510847D03*
X0284843Y0510690D03*
X0286418Y0506753D03*
X0282009Y0506753D03*
X0277442Y0510690D03*
X0273662Y0510690D03*
X0273662Y0506753D03*
X0263898Y0510690D03*
X0253032Y0509587D03*
X0252087Y0507540D03*
X0254302Y0367940D03*
X0254302Y0367782D03*
X0254302Y0367152D03*
X0254302Y0366995D03*
X0254302Y0366837D03*
X0254302Y0366680D03*
X0254302Y0366522D03*
X0270050Y0366207D03*
X0274932Y0364003D03*
X0277137Y0364003D03*
X0278711Y0367940D03*
X0286113Y0367940D03*
X0293830Y0364003D03*
X0274643Y0316300D03*
X0274643Y0315670D03*
X0274643Y0315040D03*
D102*
X0272412Y0364003D03*
X0275089Y0367467D03*
X0278711Y0367310D03*
X0282648Y0368097D03*
X0286113Y0367310D03*
X0257609Y0368097D03*
X0256034Y0366995D03*
X0255877Y0365105D03*
X0251940Y0364948D03*
X0267206Y0508643D03*
X0267048Y0508800D03*
X0273820Y0510217D03*
X0277442Y0510060D03*
X0281379Y0510847D03*
X0284843Y0510060D03*
X0290198Y0506753D03*
X0293662Y0506753D03*
X0296339Y0510217D03*
X0254607Y0509587D03*
D103*
X0254371Y0509115D03*
X0253111Y0509745D03*
X0253111Y0509902D03*
X0253111Y0510060D03*
X0253111Y0510217D03*
X0253111Y0510375D03*
X0253111Y0510532D03*
X0253111Y0510690D03*
X0252009Y0508800D03*
X0250591Y0507540D03*
X0266812Y0509430D03*
X0267914Y0510847D03*
X0268859Y0509430D03*
X0268859Y0509272D03*
X0268859Y0509115D03*
X0268859Y0508957D03*
X0271221Y0510847D03*
X0277363Y0510532D03*
X0278938Y0506910D03*
X0283347Y0506910D03*
X0286497Y0506910D03*
X0289174Y0508170D03*
X0289174Y0509272D03*
X0291221Y0509430D03*
X0292639Y0509272D03*
X0292639Y0508170D03*
X0294686Y0509430D03*
X0296103Y0508957D03*
X0296103Y0508800D03*
X0296103Y0508643D03*
X0296103Y0508485D03*
X0296103Y0508328D03*
X0296103Y0508170D03*
X0296103Y0508013D03*
X0296103Y0507855D03*
X0296103Y0507698D03*
X0296103Y0507540D03*
X0296103Y0507383D03*
X0296103Y0507225D03*
X0296103Y0507068D03*
X0296103Y0506910D03*
X0296103Y0506753D03*
X0296103Y0510532D03*
X0284922Y0510532D03*
X0291389Y0368097D03*
X0292491Y0366365D03*
X0292491Y0366207D03*
X0292491Y0365893D03*
X0292491Y0365735D03*
X0292491Y0365578D03*
X0293908Y0364160D03*
X0293908Y0367782D03*
X0293908Y0367940D03*
X0295483Y0367940D03*
X0287609Y0364160D03*
X0286034Y0367782D03*
X0283200Y0366995D03*
X0283200Y0366837D03*
X0283200Y0366680D03*
X0283200Y0366522D03*
X0283200Y0366365D03*
X0283200Y0366207D03*
X0283200Y0364948D03*
X0283200Y0364790D03*
X0283200Y0364633D03*
X0283200Y0364475D03*
X0283200Y0364318D03*
X0283200Y0364160D03*
X0280207Y0364160D03*
X0280995Y0366522D03*
X0280995Y0366680D03*
X0278633Y0367782D03*
X0274853Y0367940D03*
X0272491Y0368097D03*
X0271389Y0366522D03*
X0271389Y0366365D03*
X0271389Y0365735D03*
X0271389Y0365578D03*
X0269026Y0368097D03*
X0265089Y0367940D03*
X0265089Y0367782D03*
X0265089Y0367625D03*
X0265089Y0367467D03*
X0265089Y0367310D03*
X0265089Y0367152D03*
X0265089Y0366995D03*
X0265089Y0366837D03*
X0265089Y0366680D03*
X0265089Y0366522D03*
X0265089Y0366365D03*
X0265089Y0366207D03*
X0265089Y0366050D03*
X0265089Y0365893D03*
X0265089Y0365735D03*
X0265089Y0365578D03*
X0265089Y0365420D03*
X0265089Y0365263D03*
X0265089Y0365105D03*
X0265089Y0364948D03*
X0261782Y0365105D03*
X0261782Y0365263D03*
X0261782Y0365420D03*
X0261782Y0366680D03*
X0261782Y0366837D03*
X0261782Y0366995D03*
X0258160Y0366995D03*
X0258160Y0366837D03*
X0258160Y0366680D03*
X0258160Y0366522D03*
X0258160Y0366365D03*
X0258160Y0366207D03*
X0258160Y0366050D03*
X0258160Y0365893D03*
X0258160Y0365735D03*
X0258160Y0365578D03*
X0258160Y0365420D03*
X0258160Y0365263D03*
X0258160Y0365105D03*
X0254223Y0367310D03*
X0254223Y0367467D03*
X0254223Y0367625D03*
X0253278Y0366050D03*
X0251704Y0364790D03*
X0274853Y0364160D03*
X0277058Y0364160D03*
D104*
X0272491Y0364475D03*
X0272491Y0367467D03*
X0269026Y0367467D03*
X0264302Y0364790D03*
X0260995Y0365578D03*
X0260995Y0365735D03*
X0260995Y0366207D03*
X0260995Y0366365D03*
X0260680Y0368097D03*
X0257373Y0364160D03*
X0252491Y0364475D03*
X0252491Y0364633D03*
X0291389Y0364475D03*
X0291389Y0367467D03*
X0280430Y0316300D03*
X0271221Y0507225D03*
X0271221Y0510217D03*
X0281300Y0508013D03*
X0290276Y0510217D03*
X0293741Y0510217D03*
X0259883Y0508328D03*
X0259410Y0510847D03*
X0251379Y0507225D03*
X0251379Y0507068D03*
D105*
X0252166Y0507698D03*
X0253111Y0508957D03*
X0253111Y0510847D03*
X0250591Y0508800D03*
X0297048Y0508957D03*
X0295483Y0368097D03*
X0293908Y0368097D03*
X0274853Y0368097D03*
X0265089Y0368097D03*
X0252491Y0366995D03*
X0251861Y0366050D03*
D106*
X0252727Y0365735D03*
X0268790Y0365578D03*
X0269420Y0365105D03*
X0275247Y0366365D03*
X0275247Y0367152D03*
X0278711Y0366995D03*
X0286113Y0366995D03*
X0287871Y0317560D03*
X0268150Y0507855D03*
X0267993Y0508013D03*
X0267520Y0508328D03*
X0267363Y0508485D03*
X0267835Y0510690D03*
X0277442Y0509745D03*
X0284843Y0509745D03*
X0290198Y0510690D03*
X0293662Y0510690D03*
X0296497Y0509902D03*
X0296497Y0509115D03*
X0250985Y0507855D03*
D107*
X0251379Y0506910D03*
X0251379Y0508957D03*
X0251379Y0509115D03*
X0251221Y0509272D03*
X0256261Y0510690D03*
X0271221Y0510375D03*
X0271221Y0507068D03*
X0277363Y0509272D03*
X0281300Y0510690D03*
X0281457Y0507855D03*
X0284922Y0509272D03*
X0286034Y0366522D03*
X0291389Y0364318D03*
X0278633Y0366522D03*
X0261152Y0366522D03*
X0257530Y0364003D03*
X0252648Y0366207D03*
X0252491Y0366365D03*
X0252491Y0366522D03*
D108*
X0252491Y0366837D03*
X0252491Y0364003D03*
X0268396Y0365893D03*
X0268554Y0365735D03*
X0269026Y0367940D03*
X0272491Y0367940D03*
X0275168Y0367310D03*
X0278633Y0367152D03*
X0286034Y0367152D03*
X0291389Y0367940D03*
X0291389Y0364003D03*
X0271221Y0506753D03*
X0271221Y0510690D03*
X0273898Y0510060D03*
X0277363Y0509902D03*
X0284922Y0509902D03*
X0296418Y0510060D03*
X0254843Y0509745D03*
X0251221Y0509587D03*
X0251379Y0506753D03*
D109*
X0255946Y0507383D03*
X0255946Y0510217D03*
X0259410Y0510690D03*
X0259568Y0509902D03*
X0267757Y0507540D03*
X0267757Y0507383D03*
X0267757Y0507225D03*
X0267757Y0507068D03*
X0267757Y0506910D03*
X0280985Y0508485D03*
X0280985Y0508643D03*
X0280985Y0508800D03*
X0280985Y0509902D03*
X0280985Y0510060D03*
X0284922Y0508328D03*
X0282097Y0367152D03*
X0282097Y0366050D03*
X0278633Y0365578D03*
X0268869Y0364160D03*
X0260680Y0364160D03*
X0260680Y0364003D03*
X0260680Y0364633D03*
X0260680Y0364790D03*
X0260680Y0367152D03*
X0260680Y0367310D03*
X0260680Y0367782D03*
X0260680Y0367940D03*
X0257058Y0367310D03*
X0257058Y0364790D03*
X0257058Y0364633D03*
X0294853Y0365263D03*
X0294853Y0365420D03*
X0294853Y0365578D03*
X0294853Y0365735D03*
X0294853Y0365893D03*
X0294853Y0366050D03*
D110*
X0294617Y0365105D03*
X0291467Y0364633D03*
X0291467Y0367310D03*
X0282333Y0367782D03*
X0282333Y0365420D03*
X0272412Y0364633D03*
X0272412Y0367310D03*
X0269105Y0364948D03*
X0260916Y0365893D03*
X0260916Y0366050D03*
X0257294Y0367782D03*
X0257294Y0364318D03*
X0269918Y0315040D03*
X0271300Y0507383D03*
X0271300Y0510060D03*
X0267835Y0510060D03*
X0267835Y0510217D03*
X0267835Y0507698D03*
X0263111Y0507540D03*
X0259804Y0508485D03*
X0259804Y0508643D03*
X0259804Y0508800D03*
X0259804Y0508957D03*
X0259804Y0509115D03*
X0256182Y0510532D03*
X0256182Y0506910D03*
X0281221Y0510532D03*
X0290198Y0510060D03*
X0290198Y0507540D03*
X0290198Y0507383D03*
X0293662Y0507383D03*
X0293662Y0507540D03*
X0293662Y0510060D03*
D111*
X0284843Y0508170D03*
X0277442Y0508170D03*
X0277442Y0508013D03*
X0259489Y0507540D03*
X0259489Y0507383D03*
X0259489Y0507225D03*
X0259489Y0507068D03*
X0259489Y0506910D03*
X0259489Y0510060D03*
X0259489Y0510217D03*
X0259489Y0510375D03*
X0259489Y0510532D03*
X0255867Y0510060D03*
X0255867Y0507540D03*
X0260601Y0367625D03*
X0260601Y0367467D03*
X0260601Y0364475D03*
X0260601Y0364318D03*
X0256979Y0364948D03*
X0256979Y0367152D03*
X0268948Y0364633D03*
X0268948Y0364475D03*
X0268948Y0364318D03*
X0278711Y0365420D03*
X0286113Y0365420D03*
X0286113Y0365263D03*
D112*
X0282255Y0365578D03*
X0282255Y0367625D03*
X0291389Y0367152D03*
X0291389Y0364790D03*
X0272491Y0364790D03*
X0272491Y0367152D03*
X0269026Y0367152D03*
X0269026Y0367310D03*
X0264144Y0364633D03*
X0264144Y0364003D03*
X0260837Y0364948D03*
X0257215Y0367625D03*
X0262875Y0506753D03*
X0271221Y0507540D03*
X0271221Y0509902D03*
X0281143Y0510375D03*
X0281143Y0508170D03*
X0290276Y0509902D03*
X0293741Y0509902D03*
X0256103Y0507068D03*
D113*
X0256024Y0507225D03*
X0256024Y0510375D03*
X0259646Y0507698D03*
X0259489Y0506753D03*
X0262954Y0506910D03*
X0262954Y0507068D03*
X0262954Y0507225D03*
X0262954Y0507383D03*
X0267678Y0506753D03*
X0267835Y0509902D03*
X0277442Y0508328D03*
X0281064Y0508328D03*
X0281064Y0510217D03*
X0282176Y0367467D03*
X0282176Y0367310D03*
X0282176Y0365893D03*
X0282176Y0365735D03*
X0286113Y0365578D03*
X0268948Y0364790D03*
X0268948Y0364003D03*
X0264066Y0364160D03*
X0264066Y0364318D03*
X0264066Y0364475D03*
X0257137Y0364475D03*
X0257137Y0367467D03*
D114*
X0278633Y0365263D03*
X0284922Y0508013D03*
X0255788Y0507698D03*
X0255788Y0509902D03*
D115*
X0277442Y0507855D03*
X0277442Y0507698D03*
X0284843Y0507855D03*
X0286113Y0365105D03*
X0286113Y0364948D03*
X0278711Y0365105D03*
D116*
X0278633Y0364948D03*
X0284922Y0507698D03*
D117*
X0284843Y0507540D03*
X0277442Y0507540D03*
X0278711Y0364790D03*
X0286113Y0364790D03*
D118*
X0272412Y0363845D03*
X0254302Y0366207D03*
X0254302Y0366365D03*
X0290198Y0506595D03*
X0293662Y0506595D03*
D119*
X0287930Y0317698D03*
X0272694Y0317698D03*
X0272694Y0314784D03*
X0260725Y0314666D03*
D120*
X0263245Y0315040D03*
X0263245Y0317560D03*
X0290568Y0315040D03*
D121*
X0256690Y0317068D03*
D122*
X0290765Y0315670D03*
D123*
X0283580Y0315670D03*
X0277674Y0315670D03*
D124*
X0277654Y0315414D03*
X0283599Y0315414D03*
D125*
X0283658Y0315296D03*
X0277595Y0315296D03*
D126*
X0287871Y0314548D03*
M02*
