%
M48
M72
T01C0.0120
T02C0.0130
T03C0.0150
%
T01
X10056Y10056
X9002Y11178
X8021Y12364
X7117Y13609
X6292Y14908
X5550Y16257
X4895Y17650
X4328Y19081
X3853Y20545
X3470Y22035
X3182Y23547
X2989Y25074
X2892Y26610
X2892Y28150
X2989Y29686
X3182Y31213
X3470Y32725
X3853Y34215
X4328Y35679
X4895Y37110
X5550Y38503
X6292Y39852
X7117Y41151
X8021Y42396
X9002Y43582
X10056Y44704
X11178Y45758
X12364Y46739
X13609Y47643
X14908Y48468
X16257Y49210
X17650Y49865
X19081Y50432
X20545Y50907
X22035Y51290
X23547Y51578
X25074Y51771
X26610Y51868
X28150Y51868
X29686Y51771
X31213Y51578
X32725Y51290
X34215Y50907
X35679Y50432
X37110Y49865
X38503Y49210
X39852Y48468
X41151Y47643
X42396Y46739
X43582Y45758
X44704Y44704
X45758Y43582
X46739Y42396
X47643Y41151
X48468Y39852
X49210Y38503
X49865Y37110
X50432Y35679
X50907Y34215
X51290Y32725
X51578Y31213
X51805Y29730
X51971Y28961
X51893Y28150
X51943Y27385
X51955Y26555
X51896Y25799
X50655Y26230
X50680Y26555
X50680Y26880
X51753Y24297
X51515Y23485
X51290Y22035
X50907Y20545
X50432Y19081
X49865Y17650
X49210Y16257
X48468Y14908
X47643Y13609
X46739Y12364
X45758Y11178
X44704Y10056
X43582Y9002
X42396Y8021
X41151Y7117
X39852Y6292
X38503Y5550
X37110Y4895
X35679Y4328
X34215Y3853
X32725Y3470
X31213Y3182
X29686Y2989
X28150Y2892
X26610Y2892
X25074Y2989
X23547Y3182
X22035Y3470
X20545Y3853
X19081Y4328
X17650Y4895
X16257Y5550
X14908Y6292
X13609Y7117
X12364Y8021
X11178Y9002
X20798Y19737
X19660Y20804
X18719Y22084
X18020Y23520
X17504Y25046
X17259Y26611
X17240Y28199
X17548Y29762
X18051Y31290
X18757Y32665
X19682Y33962
X20804Y35125
X22109Y36091
X23495Y36815
X25021Y37256
X26601Y37526
X28199Y37520
X29812Y37262
X31290Y36759
X32715Y36028
X33997Y35068
X35125Y33926
X36041Y32656
X36740Y31230
X37101Y29734
X37455Y29805
X37556Y28199
X36530Y26955
X36680Y26655
X36480Y26255
X37355Y26580
X37695Y26561
X37337Y24948
X36809Y23445
X36480Y22355
X36048Y21990
X35230Y22605
X35148Y20693
X34006Y19635
X32676Y18744
X31265Y17895
X29714Y17404
X28144Y17159
X26536Y17215
X24973Y17523
X23470Y17976
X22045Y18762
X24986Y22877
X23711Y23837
X22796Y25144
X22330Y26670
X22357Y28266
X22877Y29774
X23837Y31049
X25144Y31964
X26670Y32430
X28266Y32403
X29774Y31883
X31049Y30923
X31889Y29741
X31130Y29280
X32580Y28215
X31530Y26980
X31675Y26690
X31430Y26480
X32280Y26590
X32603Y26554
X31798Y25051
X30923Y23761
X29590Y22830
X28090Y22330
X26494Y22357
T02
X28105Y23255
X28380Y22145
X50630Y29530
T03
X50235Y27605
X50235Y27385
X50235Y27155
X52425Y27170
X52425Y27400
X52425Y27620
X53100Y27610
X53100Y27390
X53100Y27160
X38070Y27160
X38070Y27390
X38070Y27610
X36140Y27610
X36140Y27390
X36140Y27160
X33065Y27160
X33065Y27390
X33065Y27610
X27600Y33075
X27370Y33075
X27150Y33075
X27155Y36140
X27375Y36140
X27605Y36140
X27605Y38080
X27375Y38080
X27155Y38080
X21680Y27605
X21680Y27385
X21680Y27155
X18615Y27155
X18615Y27385
X18615Y27605
X16680Y27610
X16680Y27390
X16680Y27160
X27155Y21690
X27375Y21690
X27605Y21690
X27600Y18620
X27370Y18620
X27150Y18620
X27155Y16685
X27375Y16685
X27605Y16685
X27595Y4520
X27365Y4520
X27145Y4520
X27155Y2335
X27375Y2335
X27605Y2335
X27605Y1680
X27375Y1680
X27155Y1680
X4480Y27130
X4480Y27360
X4480Y27580
X2375Y27610
X2375Y27390
X2375Y27160
X1665Y27150
X1665Y27380
X1665Y27600
X27155Y50235
X27375Y50235
X27605Y50235
X27605Y52425
X27375Y52425
X27155Y52425
X27150Y53110
X27370Y53110
X27600Y53110
M30
