G75*
%MOIN*%
%OFA0B0*%
%FSLAX25Y25*%
%IPPOS*%
%LPD*%
%AMOC8*
5,1,8,0,0,1.08239X$1,22.5*
%
%ADD10C,0.02300*%
%ADD11C,0.03300*%
%ADD12R,0.02375X0.03556*%
%ADD13R,0.03556X0.02375*%
%ADD14R,0.05524X0.02375*%
%ADD15R,0.02375X0.05524*%
D10*
X0016650Y0271500D03*
X0016650Y0273800D03*
X0016650Y0276000D03*
X0023750Y0276100D03*
X0023750Y0273900D03*
X0023750Y0271600D03*
X0044800Y0271300D03*
X0044800Y0273600D03*
X0044800Y0275800D03*
X0166800Y0276100D03*
X0166800Y0273900D03*
X0166800Y0271600D03*
X0186150Y0271550D03*
X0186150Y0273850D03*
X0186150Y0276050D03*
X0216800Y0276050D03*
X0216800Y0273850D03*
X0216800Y0271550D03*
X0271550Y0216900D03*
X0273750Y0216900D03*
X0276050Y0216900D03*
X0276000Y0186200D03*
X0273700Y0186200D03*
X0271500Y0186200D03*
X0271550Y0166850D03*
X0273750Y0166850D03*
X0276050Y0166850D03*
X0330650Y0271600D03*
X0330650Y0273900D03*
X0330650Y0276100D03*
X0361400Y0276100D03*
X0361400Y0273900D03*
X0361400Y0271600D03*
X0380700Y0271600D03*
X0380700Y0273900D03*
X0380700Y0276100D03*
X0276000Y0330750D03*
X0273700Y0330750D03*
X0271500Y0330750D03*
X0271550Y0361400D03*
X0273750Y0361400D03*
X0276050Y0361400D03*
X0276050Y0380800D03*
X0273750Y0380800D03*
X0271550Y0380800D03*
X0271550Y0502350D03*
X0273750Y0502350D03*
X0276050Y0502350D03*
X0276050Y0524250D03*
X0273750Y0524250D03*
X0271550Y0524250D03*
X0271500Y0531100D03*
X0273700Y0531100D03*
X0276000Y0531100D03*
X0502350Y0276050D03*
X0502350Y0273850D03*
X0502350Y0271550D03*
X0524250Y0271700D03*
X0524250Y0274000D03*
X0524250Y0276200D03*
X0531000Y0276100D03*
X0531000Y0273900D03*
X0531000Y0271600D03*
X0275950Y0045200D03*
X0273650Y0045200D03*
X0271450Y0045200D03*
X0271550Y0023350D03*
X0273750Y0023350D03*
X0276050Y0023350D03*
X0276050Y0016800D03*
X0273750Y0016800D03*
X0271550Y0016800D03*
D11*
X0536300Y0496300D03*
D12*
G36*
X0459915Y0426226D02*
X0458402Y0428055D01*
X0461141Y0430320D01*
X0462654Y0428491D01*
X0459915Y0426226D01*
G37*
G36*
X0469127Y0414242D02*
X0467731Y0416163D01*
X0470607Y0418252D01*
X0472003Y0416331D01*
X0469127Y0414242D01*
G37*
G36*
X0477551Y0401699D02*
X0476279Y0403702D01*
X0479281Y0405607D01*
X0480553Y0403604D01*
X0477551Y0401699D01*
G37*
G36*
X0485187Y0388656D02*
X0484044Y0390735D01*
X0487159Y0392448D01*
X0488302Y0390369D01*
X0485187Y0388656D01*
G37*
G36*
X0491975Y0375154D02*
X0490964Y0377301D01*
X0494181Y0378816D01*
X0495192Y0376669D01*
X0491975Y0375154D01*
G37*
G36*
X0497915Y0361254D02*
X0497041Y0363461D01*
X0500347Y0364770D01*
X0501221Y0362563D01*
X0497915Y0361254D01*
G37*
G36*
X0502959Y0347016D02*
X0502226Y0349273D01*
X0505607Y0350372D01*
X0506340Y0348115D01*
X0502959Y0347016D01*
G37*
G36*
X0507105Y0332481D02*
X0506514Y0334779D01*
X0509957Y0335663D01*
X0510548Y0333365D01*
X0507105Y0332481D01*
G37*
G36*
X0510333Y0317708D02*
X0509889Y0320039D01*
X0513381Y0320706D01*
X0513825Y0318375D01*
X0510333Y0317708D01*
G37*
G36*
X0512625Y0302769D02*
X0512328Y0305123D01*
X0515855Y0305569D01*
X0516152Y0303215D01*
X0512625Y0302769D01*
G37*
G36*
X0513971Y0287724D02*
X0513821Y0290093D01*
X0517369Y0290316D01*
X0517519Y0287947D01*
X0513971Y0287724D01*
G37*
X0512800Y0277146D03*
X0509650Y0277146D03*
X0515950Y0277146D03*
X0515950Y0270454D03*
X0512800Y0270454D03*
X0509650Y0270454D03*
G36*
X0513821Y0257507D02*
X0513971Y0259876D01*
X0517519Y0259653D01*
X0517369Y0257284D01*
X0513821Y0257507D01*
G37*
G36*
X0512328Y0242477D02*
X0512625Y0244831D01*
X0516152Y0244385D01*
X0515855Y0242031D01*
X0512328Y0242477D01*
G37*
G36*
X0509889Y0227561D02*
X0510333Y0229892D01*
X0513825Y0229225D01*
X0513381Y0226894D01*
X0509889Y0227561D01*
G37*
G36*
X0506514Y0212821D02*
X0507105Y0215119D01*
X0510548Y0214235D01*
X0509957Y0211937D01*
X0506514Y0212821D01*
G37*
G36*
X0502226Y0198327D02*
X0502959Y0200584D01*
X0506340Y0199485D01*
X0505607Y0197228D01*
X0502226Y0198327D01*
G37*
G36*
X0497041Y0184139D02*
X0497915Y0186346D01*
X0501221Y0185037D01*
X0500347Y0182830D01*
X0497041Y0184139D01*
G37*
G36*
X0490964Y0170299D02*
X0491975Y0172446D01*
X0495192Y0170931D01*
X0494181Y0168784D01*
X0490964Y0170299D01*
G37*
G36*
X0484044Y0156865D02*
X0485187Y0158944D01*
X0488302Y0157231D01*
X0487159Y0155152D01*
X0484044Y0156865D01*
G37*
G36*
X0476279Y0143898D02*
X0477551Y0145901D01*
X0480553Y0143996D01*
X0479281Y0141993D01*
X0476279Y0143898D01*
G37*
G36*
X0467731Y0131437D02*
X0469127Y0133358D01*
X0472003Y0131269D01*
X0470607Y0129348D01*
X0467731Y0131437D01*
G37*
G36*
X0458402Y0119545D02*
X0459915Y0121374D01*
X0462654Y0119109D01*
X0461141Y0117280D01*
X0458402Y0119545D01*
G37*
G36*
X0448351Y0108250D02*
X0449976Y0109981D01*
X0452567Y0107548D01*
X0450942Y0105817D01*
X0448351Y0108250D01*
G37*
G36*
X0437619Y0097624D02*
X0439350Y0099249D01*
X0441783Y0096658D01*
X0440052Y0095033D01*
X0437619Y0097624D01*
G37*
G36*
X0426226Y0087685D02*
X0428055Y0089198D01*
X0430320Y0086459D01*
X0428491Y0084946D01*
X0426226Y0087685D01*
G37*
G36*
X0414242Y0078473D02*
X0416163Y0079869D01*
X0418252Y0076993D01*
X0416331Y0075597D01*
X0414242Y0078473D01*
G37*
G36*
X0401699Y0070049D02*
X0403702Y0071321D01*
X0405607Y0068319D01*
X0403604Y0067047D01*
X0401699Y0070049D01*
G37*
G36*
X0388656Y0062413D02*
X0390735Y0063556D01*
X0392448Y0060441D01*
X0390369Y0059298D01*
X0388656Y0062413D01*
G37*
G36*
X0375154Y0055625D02*
X0377301Y0056636D01*
X0378816Y0053419D01*
X0376669Y0052408D01*
X0375154Y0055625D01*
G37*
G36*
X0361254Y0049685D02*
X0363461Y0050559D01*
X0364770Y0047253D01*
X0362563Y0046379D01*
X0361254Y0049685D01*
G37*
G36*
X0347016Y0044641D02*
X0349273Y0045374D01*
X0350372Y0041993D01*
X0348115Y0041260D01*
X0347016Y0044641D01*
G37*
G36*
X0332481Y0040495D02*
X0334779Y0041086D01*
X0335663Y0037643D01*
X0333365Y0037052D01*
X0332481Y0040495D01*
G37*
G36*
X0317708Y0037267D02*
X0320039Y0037711D01*
X0320706Y0034219D01*
X0318375Y0033775D01*
X0317708Y0037267D01*
G37*
G36*
X0302769Y0034975D02*
X0305123Y0035272D01*
X0305569Y0031745D01*
X0303215Y0031448D01*
X0302769Y0034975D01*
G37*
G36*
X0287724Y0033629D02*
X0290093Y0033779D01*
X0290316Y0030231D01*
X0287947Y0030081D01*
X0287724Y0033629D01*
G37*
X0273800Y0031454D03*
G36*
X0257507Y0033779D02*
X0259876Y0033629D01*
X0259653Y0030081D01*
X0257284Y0030231D01*
X0257507Y0033779D01*
G37*
G36*
X0242477Y0035272D02*
X0244831Y0034975D01*
X0244385Y0031448D01*
X0242031Y0031745D01*
X0242477Y0035272D01*
G37*
G36*
X0227561Y0037711D02*
X0229892Y0037267D01*
X0229225Y0033775D01*
X0226894Y0034219D01*
X0227561Y0037711D01*
G37*
G36*
X0212821Y0041086D02*
X0215119Y0040495D01*
X0214235Y0037052D01*
X0211937Y0037643D01*
X0212821Y0041086D01*
G37*
G36*
X0198327Y0045374D02*
X0200584Y0044641D01*
X0199485Y0041260D01*
X0197228Y0041993D01*
X0198327Y0045374D01*
G37*
G36*
X0184139Y0050559D02*
X0186346Y0049685D01*
X0185037Y0046379D01*
X0182830Y0047253D01*
X0184139Y0050559D01*
G37*
G36*
X0170299Y0056636D02*
X0172446Y0055625D01*
X0170931Y0052408D01*
X0168784Y0053419D01*
X0170299Y0056636D01*
G37*
G36*
X0156865Y0063556D02*
X0158944Y0062413D01*
X0157231Y0059298D01*
X0155152Y0060441D01*
X0156865Y0063556D01*
G37*
G36*
X0143898Y0071321D02*
X0145901Y0070049D01*
X0143996Y0067047D01*
X0141993Y0068319D01*
X0143898Y0071321D01*
G37*
G36*
X0131437Y0079869D02*
X0133358Y0078473D01*
X0131269Y0075597D01*
X0129348Y0076993D01*
X0131437Y0079869D01*
G37*
G36*
X0119545Y0089198D02*
X0121374Y0087685D01*
X0119109Y0084946D01*
X0117280Y0086459D01*
X0119545Y0089198D01*
G37*
G36*
X0108250Y0099249D02*
X0109981Y0097624D01*
X0107548Y0095033D01*
X0105817Y0096658D01*
X0108250Y0099249D01*
G37*
G36*
X0097624Y0109981D02*
X0099249Y0108250D01*
X0096658Y0105817D01*
X0095033Y0107548D01*
X0097624Y0109981D01*
G37*
G36*
X0087685Y0121374D02*
X0089198Y0119545D01*
X0086459Y0117280D01*
X0084946Y0119109D01*
X0087685Y0121374D01*
G37*
G36*
X0078473Y0133358D02*
X0079869Y0131437D01*
X0076993Y0129348D01*
X0075597Y0131269D01*
X0078473Y0133358D01*
G37*
G36*
X0070049Y0145901D02*
X0071321Y0143898D01*
X0068319Y0141993D01*
X0067047Y0143996D01*
X0070049Y0145901D01*
G37*
G36*
X0062413Y0158944D02*
X0063556Y0156865D01*
X0060441Y0155152D01*
X0059298Y0157231D01*
X0062413Y0158944D01*
G37*
G36*
X0055625Y0172446D02*
X0056636Y0170299D01*
X0053419Y0168784D01*
X0052408Y0170931D01*
X0055625Y0172446D01*
G37*
G36*
X0049685Y0186346D02*
X0050559Y0184139D01*
X0047253Y0182830D01*
X0046379Y0185037D01*
X0049685Y0186346D01*
G37*
G36*
X0044641Y0200584D02*
X0045374Y0198327D01*
X0041993Y0197228D01*
X0041260Y0199485D01*
X0044641Y0200584D01*
G37*
G36*
X0040495Y0215119D02*
X0041086Y0212821D01*
X0037643Y0211937D01*
X0037052Y0214235D01*
X0040495Y0215119D01*
G37*
G36*
X0037267Y0229892D02*
X0037711Y0227561D01*
X0034219Y0226894D01*
X0033775Y0229225D01*
X0037267Y0229892D01*
G37*
G36*
X0034975Y0244831D02*
X0035272Y0242477D01*
X0031745Y0242031D01*
X0031448Y0244385D01*
X0034975Y0244831D01*
G37*
G36*
X0033629Y0259876D02*
X0033779Y0257507D01*
X0030231Y0257284D01*
X0030081Y0259653D01*
X0033629Y0259876D01*
G37*
X0034800Y0270454D03*
X0037950Y0270454D03*
X0031650Y0270454D03*
X0031650Y0277146D03*
X0034800Y0277146D03*
X0037950Y0277146D03*
G36*
X0033779Y0290093D02*
X0033629Y0287724D01*
X0030081Y0287947D01*
X0030231Y0290316D01*
X0033779Y0290093D01*
G37*
G36*
X0035272Y0305123D02*
X0034975Y0302769D01*
X0031448Y0303215D01*
X0031745Y0305569D01*
X0035272Y0305123D01*
G37*
G36*
X0037711Y0320039D02*
X0037267Y0317708D01*
X0033775Y0318375D01*
X0034219Y0320706D01*
X0037711Y0320039D01*
G37*
G36*
X0041086Y0334779D02*
X0040495Y0332481D01*
X0037052Y0333365D01*
X0037643Y0335663D01*
X0041086Y0334779D01*
G37*
G36*
X0045374Y0349273D02*
X0044641Y0347016D01*
X0041260Y0348115D01*
X0041993Y0350372D01*
X0045374Y0349273D01*
G37*
G36*
X0050559Y0363461D02*
X0049685Y0361254D01*
X0046379Y0362563D01*
X0047253Y0364770D01*
X0050559Y0363461D01*
G37*
G36*
X0056636Y0377301D02*
X0055625Y0375154D01*
X0052408Y0376669D01*
X0053419Y0378816D01*
X0056636Y0377301D01*
G37*
G36*
X0063556Y0390735D02*
X0062413Y0388656D01*
X0059298Y0390369D01*
X0060441Y0392448D01*
X0063556Y0390735D01*
G37*
G36*
X0071321Y0403702D02*
X0070049Y0401699D01*
X0067047Y0403604D01*
X0068319Y0405607D01*
X0071321Y0403702D01*
G37*
G36*
X0079869Y0416163D02*
X0078473Y0414242D01*
X0075597Y0416331D01*
X0076993Y0418252D01*
X0079869Y0416163D01*
G37*
G36*
X0089198Y0428055D02*
X0087685Y0426226D01*
X0084946Y0428491D01*
X0086459Y0430320D01*
X0089198Y0428055D01*
G37*
G36*
X0099249Y0439350D02*
X0097624Y0437619D01*
X0095033Y0440052D01*
X0096658Y0441783D01*
X0099249Y0439350D01*
G37*
G36*
X0109981Y0449976D02*
X0108250Y0448351D01*
X0105817Y0450942D01*
X0107548Y0452567D01*
X0109981Y0449976D01*
G37*
G36*
X0121374Y0459915D02*
X0119545Y0458402D01*
X0117280Y0461141D01*
X0119109Y0462654D01*
X0121374Y0459915D01*
G37*
G36*
X0133358Y0469127D02*
X0131437Y0467731D01*
X0129348Y0470607D01*
X0131269Y0472003D01*
X0133358Y0469127D01*
G37*
G36*
X0145901Y0477551D02*
X0143898Y0476279D01*
X0141993Y0479281D01*
X0143996Y0480553D01*
X0145901Y0477551D01*
G37*
G36*
X0158944Y0485187D02*
X0156865Y0484044D01*
X0155152Y0487159D01*
X0157231Y0488302D01*
X0158944Y0485187D01*
G37*
G36*
X0172446Y0491975D02*
X0170299Y0490964D01*
X0168784Y0494181D01*
X0170931Y0495192D01*
X0172446Y0491975D01*
G37*
G36*
X0186346Y0497915D02*
X0184139Y0497041D01*
X0182830Y0500347D01*
X0185037Y0501221D01*
X0186346Y0497915D01*
G37*
G36*
X0200584Y0502959D02*
X0198327Y0502226D01*
X0197228Y0505607D01*
X0199485Y0506340D01*
X0200584Y0502959D01*
G37*
G36*
X0215119Y0507105D02*
X0212821Y0506514D01*
X0211937Y0509957D01*
X0214235Y0510548D01*
X0215119Y0507105D01*
G37*
G36*
X0229892Y0510333D02*
X0227561Y0509889D01*
X0226894Y0513381D01*
X0229225Y0513825D01*
X0229892Y0510333D01*
G37*
G36*
X0244831Y0512625D02*
X0242477Y0512328D01*
X0242031Y0515855D01*
X0244385Y0516152D01*
X0244831Y0512625D01*
G37*
G36*
X0259876Y0513971D02*
X0257507Y0513821D01*
X0257284Y0517369D01*
X0259653Y0517519D01*
X0259876Y0513971D01*
G37*
X0273800Y0516146D03*
G36*
X0290093Y0513821D02*
X0287724Y0513971D01*
X0287947Y0517519D01*
X0290316Y0517369D01*
X0290093Y0513821D01*
G37*
G36*
X0305123Y0512328D02*
X0302769Y0512625D01*
X0303215Y0516152D01*
X0305569Y0515855D01*
X0305123Y0512328D01*
G37*
G36*
X0320039Y0509889D02*
X0317708Y0510333D01*
X0318375Y0513825D01*
X0320706Y0513381D01*
X0320039Y0509889D01*
G37*
G36*
X0334779Y0506514D02*
X0332481Y0507105D01*
X0333365Y0510548D01*
X0335663Y0509957D01*
X0334779Y0506514D01*
G37*
G36*
X0349273Y0502226D02*
X0347016Y0502959D01*
X0348115Y0506340D01*
X0350372Y0505607D01*
X0349273Y0502226D01*
G37*
G36*
X0363461Y0497041D02*
X0361254Y0497915D01*
X0362563Y0501221D01*
X0364770Y0500347D01*
X0363461Y0497041D01*
G37*
G36*
X0377301Y0490964D02*
X0375154Y0491975D01*
X0376669Y0495192D01*
X0378816Y0494181D01*
X0377301Y0490964D01*
G37*
G36*
X0390735Y0484044D02*
X0388656Y0485187D01*
X0390369Y0488302D01*
X0392448Y0487159D01*
X0390735Y0484044D01*
G37*
G36*
X0403702Y0476279D02*
X0401699Y0477551D01*
X0403604Y0480553D01*
X0405607Y0479281D01*
X0403702Y0476279D01*
G37*
G36*
X0416163Y0467731D02*
X0414242Y0469127D01*
X0416331Y0472003D01*
X0418252Y0470607D01*
X0416163Y0467731D01*
G37*
G36*
X0428055Y0458402D02*
X0426226Y0459915D01*
X0428491Y0462654D01*
X0430320Y0461141D01*
X0428055Y0458402D01*
G37*
G36*
X0439350Y0448351D02*
X0437619Y0449976D01*
X0440052Y0452567D01*
X0441783Y0450942D01*
X0439350Y0448351D01*
G37*
G36*
X0449976Y0437619D02*
X0448351Y0439350D01*
X0450942Y0441783D01*
X0452567Y0440052D01*
X0449976Y0437619D01*
G37*
G36*
X0344649Y0342970D02*
X0342970Y0344649D01*
X0345483Y0347162D01*
X0347162Y0345483D01*
X0344649Y0342970D01*
G37*
G36*
X0354667Y0331062D02*
X0353271Y0332983D01*
X0356147Y0335072D01*
X0357543Y0333151D01*
X0354667Y0331062D01*
G37*
G36*
X0362637Y0317755D02*
X0361559Y0319869D01*
X0364727Y0321483D01*
X0365805Y0319369D01*
X0362637Y0317755D01*
G37*
G36*
X0368359Y0303256D02*
X0367626Y0305513D01*
X0371007Y0306612D01*
X0371740Y0304355D01*
X0368359Y0303256D01*
G37*
G36*
X0371835Y0288173D02*
X0371464Y0290517D01*
X0374975Y0291073D01*
X0375346Y0288729D01*
X0371835Y0288173D01*
G37*
X0371300Y0277146D03*
X0368150Y0277146D03*
X0374450Y0277146D03*
X0374450Y0270454D03*
X0371300Y0270454D03*
X0368150Y0270454D03*
G36*
X0371464Y0257082D02*
X0371835Y0259426D01*
X0375346Y0258870D01*
X0374975Y0256526D01*
X0371464Y0257082D01*
G37*
G36*
X0367626Y0242087D02*
X0368359Y0244344D01*
X0371740Y0243245D01*
X0371007Y0240988D01*
X0367626Y0242087D01*
G37*
G36*
X0361559Y0227731D02*
X0362637Y0229845D01*
X0365805Y0228231D01*
X0364727Y0226117D01*
X0361559Y0227731D01*
G37*
G36*
X0353271Y0214617D02*
X0354667Y0216538D01*
X0357543Y0214449D01*
X0356147Y0212528D01*
X0353271Y0214617D01*
G37*
G36*
X0342970Y0202951D02*
X0344649Y0204630D01*
X0347162Y0202117D01*
X0345483Y0200438D01*
X0342970Y0202951D01*
G37*
G36*
X0331062Y0192933D02*
X0332983Y0194329D01*
X0335072Y0191453D01*
X0333151Y0190057D01*
X0331062Y0192933D01*
G37*
G36*
X0317755Y0184963D02*
X0319869Y0186041D01*
X0321483Y0182873D01*
X0319369Y0181795D01*
X0317755Y0184963D01*
G37*
G36*
X0303256Y0179241D02*
X0305513Y0179974D01*
X0306612Y0176593D01*
X0304355Y0175860D01*
X0303256Y0179241D01*
G37*
G36*
X0288173Y0175765D02*
X0290517Y0176136D01*
X0291073Y0172625D01*
X0288729Y0172254D01*
X0288173Y0175765D01*
G37*
X0273800Y0172954D03*
G36*
X0257082Y0176136D02*
X0259426Y0175765D01*
X0258870Y0172254D01*
X0256526Y0172625D01*
X0257082Y0176136D01*
G37*
G36*
X0242087Y0179974D02*
X0244344Y0179241D01*
X0243245Y0175860D01*
X0240988Y0176593D01*
X0242087Y0179974D01*
G37*
G36*
X0227731Y0186041D02*
X0229845Y0184963D01*
X0228231Y0181795D01*
X0226117Y0182873D01*
X0227731Y0186041D01*
G37*
G36*
X0214617Y0194329D02*
X0216538Y0192933D01*
X0214449Y0190057D01*
X0212528Y0191453D01*
X0214617Y0194329D01*
G37*
G36*
X0202951Y0204630D02*
X0204630Y0202951D01*
X0202117Y0200438D01*
X0200438Y0202117D01*
X0202951Y0204630D01*
G37*
G36*
X0192933Y0216538D02*
X0194329Y0214617D01*
X0191453Y0212528D01*
X0190057Y0214449D01*
X0192933Y0216538D01*
G37*
G36*
X0184963Y0229845D02*
X0186041Y0227731D01*
X0182873Y0226117D01*
X0181795Y0228231D01*
X0184963Y0229845D01*
G37*
G36*
X0179241Y0244344D02*
X0179974Y0242087D01*
X0176593Y0240988D01*
X0175860Y0243245D01*
X0179241Y0244344D01*
G37*
G36*
X0175765Y0259426D02*
X0176136Y0257082D01*
X0172625Y0256526D01*
X0172254Y0258870D01*
X0175765Y0259426D01*
G37*
X0176300Y0270454D03*
X0179450Y0270454D03*
X0173150Y0270454D03*
X0173150Y0277146D03*
X0176300Y0277146D03*
X0179450Y0277146D03*
G36*
X0176136Y0290517D02*
X0175765Y0288173D01*
X0172254Y0288729D01*
X0172625Y0291073D01*
X0176136Y0290517D01*
G37*
G36*
X0179974Y0305513D02*
X0179241Y0303256D01*
X0175860Y0304355D01*
X0176593Y0306612D01*
X0179974Y0305513D01*
G37*
G36*
X0186041Y0319869D02*
X0184963Y0317755D01*
X0181795Y0319369D01*
X0182873Y0321483D01*
X0186041Y0319869D01*
G37*
G36*
X0194329Y0332983D02*
X0192933Y0331062D01*
X0190057Y0333151D01*
X0191453Y0335072D01*
X0194329Y0332983D01*
G37*
G36*
X0204630Y0344649D02*
X0202951Y0342970D01*
X0200438Y0345483D01*
X0202117Y0347162D01*
X0204630Y0344649D01*
G37*
G36*
X0216538Y0354667D02*
X0214617Y0353271D01*
X0212528Y0356147D01*
X0214449Y0357543D01*
X0216538Y0354667D01*
G37*
G36*
X0229845Y0362637D02*
X0227731Y0361559D01*
X0226117Y0364727D01*
X0228231Y0365805D01*
X0229845Y0362637D01*
G37*
G36*
X0244344Y0368359D02*
X0242087Y0367626D01*
X0240988Y0371007D01*
X0243245Y0371740D01*
X0244344Y0368359D01*
G37*
G36*
X0259426Y0371835D02*
X0257082Y0371464D01*
X0256526Y0374975D01*
X0258870Y0375346D01*
X0259426Y0371835D01*
G37*
X0273800Y0374646D03*
G36*
X0290517Y0371464D02*
X0288173Y0371835D01*
X0288729Y0375346D01*
X0291073Y0374975D01*
X0290517Y0371464D01*
G37*
G36*
X0305513Y0367626D02*
X0303256Y0368359D01*
X0304355Y0371740D01*
X0306612Y0371007D01*
X0305513Y0367626D01*
G37*
G36*
X0319869Y0361559D02*
X0317755Y0362637D01*
X0319369Y0365805D01*
X0321483Y0364727D01*
X0319869Y0361559D01*
G37*
G36*
X0332983Y0353271D02*
X0331062Y0354667D01*
X0333151Y0357543D01*
X0335072Y0356147D01*
X0332983Y0353271D01*
G37*
G36*
X0303583Y0312771D02*
X0301662Y0314167D01*
X0303751Y0317043D01*
X0305672Y0315647D01*
X0303583Y0312771D01*
G37*
G36*
X0314167Y0301662D02*
X0312771Y0303583D01*
X0315647Y0305672D01*
X0317043Y0303751D01*
X0314167Y0301662D01*
G37*
G36*
X0320859Y0287856D02*
X0320126Y0290113D01*
X0323507Y0291212D01*
X0324240Y0288955D01*
X0320859Y0287856D01*
G37*
X0321300Y0277146D03*
X0318150Y0277146D03*
X0324450Y0277146D03*
X0324450Y0270454D03*
X0321300Y0270454D03*
X0318150Y0270454D03*
G36*
X0320126Y0257487D02*
X0320859Y0259744D01*
X0324240Y0258645D01*
X0323507Y0256388D01*
X0320126Y0257487D01*
G37*
G36*
X0312771Y0244017D02*
X0314167Y0245938D01*
X0317043Y0243849D01*
X0315647Y0241928D01*
X0312771Y0244017D01*
G37*
G36*
X0301662Y0233433D02*
X0303583Y0234829D01*
X0305672Y0231953D01*
X0303751Y0230557D01*
X0301662Y0233433D01*
G37*
G36*
X0287856Y0226741D02*
X0290113Y0227474D01*
X0291212Y0224093D01*
X0288955Y0223360D01*
X0287856Y0226741D01*
G37*
X0273800Y0222954D03*
G36*
X0257487Y0227474D02*
X0259744Y0226741D01*
X0258645Y0223360D01*
X0256388Y0224093D01*
X0257487Y0227474D01*
G37*
G36*
X0244017Y0234829D02*
X0245938Y0233433D01*
X0243849Y0230557D01*
X0241928Y0231953D01*
X0244017Y0234829D01*
G37*
G36*
X0233433Y0245938D02*
X0234829Y0244017D01*
X0231953Y0241928D01*
X0230557Y0243849D01*
X0233433Y0245938D01*
G37*
G36*
X0226741Y0259744D02*
X0227474Y0257487D01*
X0224093Y0256388D01*
X0223360Y0258645D01*
X0226741Y0259744D01*
G37*
X0226300Y0270454D03*
X0229450Y0270454D03*
X0223150Y0270454D03*
X0223150Y0277146D03*
X0226300Y0277146D03*
X0229450Y0277146D03*
G36*
X0227474Y0290113D02*
X0226741Y0287856D01*
X0223360Y0288955D01*
X0224093Y0291212D01*
X0227474Y0290113D01*
G37*
G36*
X0234829Y0303583D02*
X0233433Y0301662D01*
X0230557Y0303751D01*
X0231953Y0305672D01*
X0234829Y0303583D01*
G37*
G36*
X0245938Y0314167D02*
X0244017Y0312771D01*
X0241928Y0315647D01*
X0243849Y0317043D01*
X0245938Y0314167D01*
G37*
G36*
X0259744Y0320859D02*
X0257487Y0320126D01*
X0256388Y0323507D01*
X0258645Y0324240D01*
X0259744Y0320859D01*
G37*
X0273800Y0324646D03*
G36*
X0290113Y0320126D02*
X0287856Y0320859D01*
X0288955Y0324240D01*
X0291212Y0323507D01*
X0290113Y0320126D01*
G37*
D13*
G36*
X0099224Y0107702D02*
X0101657Y0105111D01*
X0099926Y0103486D01*
X0097493Y0106077D01*
X0099224Y0107702D01*
G37*
G36*
X0101520Y0109859D02*
X0103953Y0107268D01*
X0102222Y0105643D01*
X0099789Y0108234D01*
X0101520Y0109859D01*
G37*
G36*
X0103816Y0112015D02*
X0106249Y0109424D01*
X0104518Y0107799D01*
X0102085Y0110390D01*
X0103816Y0112015D01*
G37*
G36*
X0099234Y0116894D02*
X0101667Y0114303D01*
X0099936Y0112678D01*
X0097503Y0115269D01*
X0099234Y0116894D01*
G37*
G36*
X0096938Y0114737D02*
X0099371Y0112146D01*
X0097640Y0110521D01*
X0095207Y0113112D01*
X0096938Y0114737D01*
G37*
G36*
X0094642Y0112581D02*
X0097075Y0109990D01*
X0095344Y0108365D01*
X0092911Y0110956D01*
X0094642Y0112581D01*
G37*
G36*
X0089138Y0119000D02*
X0091403Y0116261D01*
X0089574Y0114748D01*
X0087309Y0117487D01*
X0089138Y0119000D01*
G37*
G36*
X0091565Y0121008D02*
X0093830Y0118269D01*
X0092001Y0116756D01*
X0089736Y0119495D01*
X0091565Y0121008D01*
G37*
G36*
X0093992Y0123015D02*
X0096257Y0120276D01*
X0094428Y0118763D01*
X0092163Y0121502D01*
X0093992Y0123015D01*
G37*
G36*
X0089726Y0128172D02*
X0091991Y0125433D01*
X0090162Y0123920D01*
X0087897Y0126659D01*
X0089726Y0128172D01*
G37*
G36*
X0087299Y0126164D02*
X0089564Y0123425D01*
X0087735Y0121912D01*
X0085470Y0124651D01*
X0087299Y0126164D01*
G37*
G36*
X0084872Y0124157D02*
X0087137Y0121418D01*
X0085308Y0119905D01*
X0083043Y0122644D01*
X0084872Y0124157D01*
G37*
G36*
X0079775Y0130897D02*
X0081864Y0128021D01*
X0079943Y0126625D01*
X0077854Y0129501D01*
X0079775Y0130897D01*
G37*
G36*
X0082323Y0132749D02*
X0084412Y0129873D01*
X0082491Y0128477D01*
X0080402Y0131353D01*
X0082323Y0132749D01*
G37*
G36*
X0084871Y0134600D02*
X0086960Y0131724D01*
X0085039Y0130328D01*
X0082950Y0133204D01*
X0084871Y0134600D01*
G37*
G36*
X0080937Y0140015D02*
X0083026Y0137139D01*
X0081105Y0135743D01*
X0079016Y0138619D01*
X0080937Y0140015D01*
G37*
G36*
X0078389Y0138163D02*
X0080478Y0135287D01*
X0078557Y0133891D01*
X0076468Y0136767D01*
X0078389Y0138163D01*
G37*
G36*
X0075841Y0136312D02*
X0077930Y0133436D01*
X0076009Y0132040D01*
X0073920Y0134916D01*
X0075841Y0136312D01*
G37*
G36*
X0071193Y0143364D02*
X0073098Y0140362D01*
X0071095Y0139090D01*
X0069190Y0142092D01*
X0071193Y0143364D01*
G37*
G36*
X0073852Y0145051D02*
X0075757Y0142049D01*
X0073754Y0140777D01*
X0071849Y0143779D01*
X0073852Y0145051D01*
G37*
G36*
X0076511Y0146739D02*
X0078416Y0143737D01*
X0076413Y0142465D01*
X0074508Y0145467D01*
X0076511Y0146739D01*
G37*
G36*
X0072925Y0152390D02*
X0074830Y0149388D01*
X0072827Y0148116D01*
X0070922Y0151118D01*
X0072925Y0152390D01*
G37*
G36*
X0070266Y0150703D02*
X0072171Y0147701D01*
X0070168Y0146429D01*
X0068263Y0149431D01*
X0070266Y0150703D01*
G37*
G36*
X0067607Y0149015D02*
X0069512Y0146013D01*
X0067509Y0144741D01*
X0065604Y0147743D01*
X0067607Y0149015D01*
G37*
G36*
X0063395Y0156339D02*
X0065108Y0153224D01*
X0063029Y0152081D01*
X0061316Y0155196D01*
X0063395Y0156339D01*
G37*
G36*
X0066155Y0157856D02*
X0067868Y0154741D01*
X0065789Y0153598D01*
X0064076Y0156713D01*
X0066155Y0157856D01*
G37*
G36*
X0068915Y0159374D02*
X0070628Y0156259D01*
X0068549Y0155116D01*
X0066836Y0158231D01*
X0068915Y0159374D01*
G37*
G36*
X0065691Y0165239D02*
X0067404Y0162124D01*
X0065325Y0160981D01*
X0063612Y0164096D01*
X0065691Y0165239D01*
G37*
G36*
X0062931Y0163722D02*
X0064644Y0160607D01*
X0062565Y0159464D01*
X0060852Y0162579D01*
X0062931Y0163722D01*
G37*
G36*
X0060171Y0162204D02*
X0061884Y0159089D01*
X0059805Y0157946D01*
X0058092Y0161061D01*
X0060171Y0162204D01*
G37*
G36*
X0056441Y0169785D02*
X0057956Y0166568D01*
X0055809Y0165557D01*
X0054294Y0168774D01*
X0056441Y0169785D01*
G37*
G36*
X0059291Y0171126D02*
X0060806Y0167909D01*
X0058659Y0166898D01*
X0057144Y0170115D01*
X0059291Y0171126D01*
G37*
G36*
X0062141Y0172467D02*
X0063656Y0169250D01*
X0061509Y0168239D01*
X0059994Y0171456D01*
X0062141Y0172467D01*
G37*
G36*
X0059291Y0178523D02*
X0060806Y0175306D01*
X0058659Y0174295D01*
X0057144Y0177512D01*
X0059291Y0178523D01*
G37*
G36*
X0056441Y0177182D02*
X0057956Y0173965D01*
X0055809Y0172954D01*
X0054294Y0176171D01*
X0056441Y0177182D01*
G37*
G36*
X0053591Y0175841D02*
X0055106Y0172624D01*
X0052959Y0171613D01*
X0051444Y0174830D01*
X0053591Y0175841D01*
G37*
G36*
X0050332Y0183639D02*
X0051641Y0180333D01*
X0049434Y0179459D01*
X0048125Y0182765D01*
X0050332Y0183639D01*
G37*
G36*
X0053261Y0184799D02*
X0054570Y0181493D01*
X0052363Y0180619D01*
X0051054Y0183925D01*
X0053261Y0184799D01*
G37*
G36*
X0056189Y0185958D02*
X0057498Y0182652D01*
X0055291Y0181778D01*
X0053982Y0185084D01*
X0056189Y0185958D01*
G37*
G36*
X0053726Y0192181D02*
X0055035Y0188875D01*
X0052828Y0188001D01*
X0051519Y0191307D01*
X0053726Y0192181D01*
G37*
G36*
X0050797Y0191021D02*
X0052106Y0187715D01*
X0049899Y0186841D01*
X0048590Y0190147D01*
X0050797Y0191021D01*
G37*
G36*
X0047869Y0189862D02*
X0049178Y0186556D01*
X0046971Y0185682D01*
X0045662Y0188988D01*
X0047869Y0189862D01*
G37*
G36*
X0045118Y0197841D02*
X0046217Y0194460D01*
X0043960Y0193727D01*
X0042861Y0197108D01*
X0045118Y0197841D01*
G37*
G36*
X0048113Y0198814D02*
X0049212Y0195433D01*
X0046955Y0194700D01*
X0045856Y0198081D01*
X0048113Y0198814D01*
G37*
G36*
X0051109Y0199788D02*
X0052208Y0196407D01*
X0049951Y0195674D01*
X0048852Y0199055D01*
X0051109Y0199788D01*
G37*
G36*
X0049040Y0206153D02*
X0050139Y0202772D01*
X0047882Y0202039D01*
X0046783Y0205420D01*
X0049040Y0206153D01*
G37*
G36*
X0046045Y0205180D02*
X0047144Y0201799D01*
X0044887Y0201066D01*
X0043788Y0204447D01*
X0046045Y0205180D01*
G37*
G36*
X0043049Y0204206D02*
X0044148Y0200825D01*
X0041891Y0200092D01*
X0040792Y0203473D01*
X0043049Y0204206D01*
G37*
G36*
X0040799Y0212352D02*
X0041683Y0208909D01*
X0039385Y0208318D01*
X0038501Y0211761D01*
X0040799Y0212352D01*
G37*
G36*
X0043849Y0213136D02*
X0044733Y0209693D01*
X0042435Y0209102D01*
X0041551Y0212545D01*
X0043849Y0213136D01*
G37*
G36*
X0046900Y0213919D02*
X0047784Y0210476D01*
X0045486Y0209885D01*
X0044602Y0213328D01*
X0046900Y0213919D01*
G37*
G36*
X0045235Y0220402D02*
X0046119Y0216959D01*
X0043821Y0216368D01*
X0042937Y0219811D01*
X0045235Y0220402D01*
G37*
G36*
X0042185Y0219618D02*
X0043069Y0216175D01*
X0040771Y0215584D01*
X0039887Y0219027D01*
X0042185Y0219618D01*
G37*
G36*
X0039134Y0218835D02*
X0040018Y0215392D01*
X0037720Y0214801D01*
X0036836Y0218244D01*
X0039134Y0218835D01*
G37*
G36*
X0037395Y0227111D02*
X0038062Y0223619D01*
X0035731Y0223175D01*
X0035064Y0226667D01*
X0037395Y0227111D01*
G37*
G36*
X0040489Y0227701D02*
X0041156Y0224209D01*
X0038825Y0223765D01*
X0038158Y0227257D01*
X0040489Y0227701D01*
G37*
G36*
X0043583Y0228291D02*
X0044250Y0224799D01*
X0041919Y0224355D01*
X0041252Y0227847D01*
X0043583Y0228291D01*
G37*
G36*
X0042329Y0234865D02*
X0042996Y0231373D01*
X0040665Y0230929D01*
X0039998Y0234421D01*
X0042329Y0234865D01*
G37*
G36*
X0039235Y0234275D02*
X0039902Y0230783D01*
X0037571Y0230339D01*
X0036904Y0233831D01*
X0039235Y0234275D01*
G37*
G36*
X0036141Y0233685D02*
X0036808Y0230193D01*
X0034477Y0229749D01*
X0033810Y0233241D01*
X0036141Y0233685D01*
G37*
G36*
X0034929Y0242047D02*
X0035375Y0238520D01*
X0033021Y0238223D01*
X0032575Y0241750D01*
X0034929Y0242047D01*
G37*
G36*
X0038053Y0242442D02*
X0038499Y0238915D01*
X0036145Y0238618D01*
X0035699Y0242145D01*
X0038053Y0242442D01*
G37*
G36*
X0041178Y0242837D02*
X0041624Y0239310D01*
X0039270Y0239013D01*
X0038824Y0242540D01*
X0041178Y0242837D01*
G37*
G36*
X0040339Y0249477D02*
X0040785Y0245950D01*
X0038431Y0245653D01*
X0037985Y0249180D01*
X0040339Y0249477D01*
G37*
G36*
X0037215Y0249082D02*
X0037661Y0245555D01*
X0035307Y0245258D01*
X0034861Y0248785D01*
X0037215Y0249082D01*
G37*
G36*
X0034090Y0248687D02*
X0034536Y0245160D01*
X0032182Y0244863D01*
X0031736Y0248390D01*
X0034090Y0248687D01*
G37*
G36*
X0033410Y0257101D02*
X0033633Y0253553D01*
X0031264Y0253403D01*
X0031041Y0256951D01*
X0033410Y0257101D01*
G37*
G36*
X0036553Y0257299D02*
X0036776Y0253751D01*
X0034407Y0253601D01*
X0034184Y0257149D01*
X0036553Y0257299D01*
G37*
G36*
X0039697Y0257497D02*
X0039920Y0253949D01*
X0037551Y0253799D01*
X0037328Y0257347D01*
X0039697Y0257497D01*
G37*
G36*
X0039276Y0264177D02*
X0039499Y0260629D01*
X0037130Y0260479D01*
X0036907Y0264027D01*
X0039276Y0264177D01*
G37*
G36*
X0036133Y0263979D02*
X0036356Y0260431D01*
X0033987Y0260281D01*
X0033764Y0263829D01*
X0036133Y0263979D01*
G37*
G36*
X0032989Y0263781D02*
X0033212Y0260233D01*
X0030843Y0260083D01*
X0030620Y0263631D01*
X0032989Y0263781D01*
G37*
X0031454Y0273800D03*
G36*
X0033212Y0287367D02*
X0032989Y0283819D01*
X0030620Y0283969D01*
X0030843Y0287517D01*
X0033212Y0287367D01*
G37*
G36*
X0036356Y0287169D02*
X0036133Y0283621D01*
X0033764Y0283771D01*
X0033987Y0287319D01*
X0036356Y0287169D01*
G37*
G36*
X0039499Y0286971D02*
X0039276Y0283423D01*
X0036907Y0283573D01*
X0037130Y0287121D01*
X0039499Y0286971D01*
G37*
G36*
X0039920Y0293651D02*
X0039697Y0290103D01*
X0037328Y0290253D01*
X0037551Y0293801D01*
X0039920Y0293651D01*
G37*
G36*
X0036776Y0293849D02*
X0036553Y0290301D01*
X0034184Y0290451D01*
X0034407Y0293999D01*
X0036776Y0293849D01*
G37*
G36*
X0033633Y0294047D02*
X0033410Y0290499D01*
X0031041Y0290649D01*
X0031264Y0294197D01*
X0033633Y0294047D01*
G37*
G36*
X0034536Y0302440D02*
X0034090Y0298913D01*
X0031736Y0299210D01*
X0032182Y0302737D01*
X0034536Y0302440D01*
G37*
G36*
X0037661Y0302045D02*
X0037215Y0298518D01*
X0034861Y0298815D01*
X0035307Y0302342D01*
X0037661Y0302045D01*
G37*
G36*
X0040785Y0301650D02*
X0040339Y0298123D01*
X0037985Y0298420D01*
X0038431Y0301947D01*
X0040785Y0301650D01*
G37*
G36*
X0041624Y0308290D02*
X0041178Y0304763D01*
X0038824Y0305060D01*
X0039270Y0308587D01*
X0041624Y0308290D01*
G37*
G36*
X0038499Y0308685D02*
X0038053Y0305158D01*
X0035699Y0305455D01*
X0036145Y0308982D01*
X0038499Y0308685D01*
G37*
G36*
X0035375Y0309080D02*
X0034929Y0305553D01*
X0032575Y0305850D01*
X0033021Y0309377D01*
X0035375Y0309080D01*
G37*
G36*
X0036808Y0317407D02*
X0036141Y0313915D01*
X0033810Y0314359D01*
X0034477Y0317851D01*
X0036808Y0317407D01*
G37*
G36*
X0039902Y0316817D02*
X0039235Y0313325D01*
X0036904Y0313769D01*
X0037571Y0317261D01*
X0039902Y0316817D01*
G37*
G36*
X0042996Y0316227D02*
X0042329Y0312735D01*
X0039998Y0313179D01*
X0040665Y0316671D01*
X0042996Y0316227D01*
G37*
G36*
X0044250Y0322801D02*
X0043583Y0319309D01*
X0041252Y0319753D01*
X0041919Y0323245D01*
X0044250Y0322801D01*
G37*
G36*
X0041156Y0323391D02*
X0040489Y0319899D01*
X0038158Y0320343D01*
X0038825Y0323835D01*
X0041156Y0323391D01*
G37*
G36*
X0038062Y0323981D02*
X0037395Y0320489D01*
X0035064Y0320933D01*
X0035731Y0324425D01*
X0038062Y0323981D01*
G37*
G36*
X0040018Y0332208D02*
X0039134Y0328765D01*
X0036836Y0329356D01*
X0037720Y0332799D01*
X0040018Y0332208D01*
G37*
G36*
X0043069Y0331425D02*
X0042185Y0327982D01*
X0039887Y0328573D01*
X0040771Y0332016D01*
X0043069Y0331425D01*
G37*
G36*
X0046119Y0330641D02*
X0045235Y0327198D01*
X0042937Y0327789D01*
X0043821Y0331232D01*
X0046119Y0330641D01*
G37*
G36*
X0047784Y0337124D02*
X0046900Y0333681D01*
X0044602Y0334272D01*
X0045486Y0337715D01*
X0047784Y0337124D01*
G37*
G36*
X0044733Y0337907D02*
X0043849Y0334464D01*
X0041551Y0335055D01*
X0042435Y0338498D01*
X0044733Y0337907D01*
G37*
G36*
X0041683Y0338691D02*
X0040799Y0335248D01*
X0038501Y0335839D01*
X0039385Y0339282D01*
X0041683Y0338691D01*
G37*
G36*
X0047144Y0345801D02*
X0046045Y0342420D01*
X0043788Y0343153D01*
X0044887Y0346534D01*
X0047144Y0345801D01*
G37*
G36*
X0050139Y0344828D02*
X0049040Y0341447D01*
X0046783Y0342180D01*
X0047882Y0345561D01*
X0050139Y0344828D01*
G37*
G36*
X0052208Y0351193D02*
X0051109Y0347812D01*
X0048852Y0348545D01*
X0049951Y0351926D01*
X0052208Y0351193D01*
G37*
G36*
X0049212Y0352167D02*
X0048113Y0348786D01*
X0045856Y0349519D01*
X0046955Y0352900D01*
X0049212Y0352167D01*
G37*
G36*
X0046217Y0353140D02*
X0045118Y0349759D01*
X0042861Y0350492D01*
X0043960Y0353873D01*
X0046217Y0353140D01*
G37*
G36*
X0049178Y0361044D02*
X0047869Y0357738D01*
X0045662Y0358612D01*
X0046971Y0361918D01*
X0049178Y0361044D01*
G37*
G36*
X0052106Y0359885D02*
X0050797Y0356579D01*
X0048590Y0357453D01*
X0049899Y0360759D01*
X0052106Y0359885D01*
G37*
G36*
X0055035Y0358725D02*
X0053726Y0355419D01*
X0051519Y0356293D01*
X0052828Y0359599D01*
X0055035Y0358725D01*
G37*
G36*
X0057498Y0364948D02*
X0056189Y0361642D01*
X0053982Y0362516D01*
X0055291Y0365822D01*
X0057498Y0364948D01*
G37*
G36*
X0054570Y0366107D02*
X0053261Y0362801D01*
X0051054Y0363675D01*
X0052363Y0366981D01*
X0054570Y0366107D01*
G37*
G36*
X0051641Y0367267D02*
X0050332Y0363961D01*
X0048125Y0364835D01*
X0049434Y0368141D01*
X0051641Y0367267D01*
G37*
G36*
X0055106Y0374976D02*
X0053591Y0371759D01*
X0051444Y0372770D01*
X0052959Y0375987D01*
X0055106Y0374976D01*
G37*
G36*
X0057956Y0373635D02*
X0056441Y0370418D01*
X0054294Y0371429D01*
X0055809Y0374646D01*
X0057956Y0373635D01*
G37*
G36*
X0060806Y0372294D02*
X0059291Y0369077D01*
X0057144Y0370088D01*
X0058659Y0373305D01*
X0060806Y0372294D01*
G37*
G36*
X0063656Y0378350D02*
X0062141Y0375133D01*
X0059994Y0376144D01*
X0061509Y0379361D01*
X0063656Y0378350D01*
G37*
G36*
X0060806Y0379691D02*
X0059291Y0376474D01*
X0057144Y0377485D01*
X0058659Y0380702D01*
X0060806Y0379691D01*
G37*
G36*
X0057956Y0381032D02*
X0056441Y0377815D01*
X0054294Y0378826D01*
X0055809Y0382043D01*
X0057956Y0381032D01*
G37*
G36*
X0061884Y0388511D02*
X0060171Y0385396D01*
X0058092Y0386539D01*
X0059805Y0389654D01*
X0061884Y0388511D01*
G37*
G36*
X0064644Y0386993D02*
X0062931Y0383878D01*
X0060852Y0385021D01*
X0062565Y0388136D01*
X0064644Y0386993D01*
G37*
G36*
X0067404Y0385476D02*
X0065691Y0382361D01*
X0063612Y0383504D01*
X0065325Y0386619D01*
X0067404Y0385476D01*
G37*
G36*
X0070628Y0391341D02*
X0068915Y0388226D01*
X0066836Y0389369D01*
X0068549Y0392484D01*
X0070628Y0391341D01*
G37*
G36*
X0067868Y0392859D02*
X0066155Y0389744D01*
X0064076Y0390887D01*
X0065789Y0394002D01*
X0067868Y0392859D01*
G37*
G36*
X0065108Y0394376D02*
X0063395Y0391261D01*
X0061316Y0392404D01*
X0063029Y0395519D01*
X0065108Y0394376D01*
G37*
G36*
X0069512Y0401587D02*
X0067607Y0398585D01*
X0065604Y0399857D01*
X0067509Y0402859D01*
X0069512Y0401587D01*
G37*
G36*
X0072171Y0399899D02*
X0070266Y0396897D01*
X0068263Y0398169D01*
X0070168Y0401171D01*
X0072171Y0399899D01*
G37*
G36*
X0074830Y0398212D02*
X0072925Y0395210D01*
X0070922Y0396482D01*
X0072827Y0399484D01*
X0074830Y0398212D01*
G37*
G36*
X0078416Y0403863D02*
X0076511Y0400861D01*
X0074508Y0402133D01*
X0076413Y0405135D01*
X0078416Y0403863D01*
G37*
G36*
X0075757Y0405551D02*
X0073852Y0402549D01*
X0071849Y0403821D01*
X0073754Y0406823D01*
X0075757Y0405551D01*
G37*
G36*
X0073098Y0407238D02*
X0071193Y0404236D01*
X0069190Y0405508D01*
X0071095Y0408510D01*
X0073098Y0407238D01*
G37*
G36*
X0077930Y0414164D02*
X0075841Y0411288D01*
X0073920Y0412684D01*
X0076009Y0415560D01*
X0077930Y0414164D01*
G37*
G36*
X0080478Y0412313D02*
X0078389Y0409437D01*
X0076468Y0410833D01*
X0078557Y0413709D01*
X0080478Y0412313D01*
G37*
G36*
X0083026Y0410461D02*
X0080937Y0407585D01*
X0079016Y0408981D01*
X0081105Y0411857D01*
X0083026Y0410461D01*
G37*
G36*
X0086960Y0415876D02*
X0084871Y0413000D01*
X0082950Y0414396D01*
X0085039Y0417272D01*
X0086960Y0415876D01*
G37*
G36*
X0084412Y0417727D02*
X0082323Y0414851D01*
X0080402Y0416247D01*
X0082491Y0419123D01*
X0084412Y0417727D01*
G37*
G36*
X0081864Y0419579D02*
X0079775Y0416703D01*
X0077854Y0418099D01*
X0079943Y0420975D01*
X0081864Y0419579D01*
G37*
G36*
X0087137Y0426182D02*
X0084872Y0423443D01*
X0083043Y0424956D01*
X0085308Y0427695D01*
X0087137Y0426182D01*
G37*
G36*
X0089564Y0424175D02*
X0087299Y0421436D01*
X0085470Y0422949D01*
X0087735Y0425688D01*
X0089564Y0424175D01*
G37*
G36*
X0091991Y0422167D02*
X0089726Y0419428D01*
X0087897Y0420941D01*
X0090162Y0423680D01*
X0091991Y0422167D01*
G37*
G36*
X0096257Y0427324D02*
X0093992Y0424585D01*
X0092163Y0426098D01*
X0094428Y0428837D01*
X0096257Y0427324D01*
G37*
G36*
X0093830Y0429331D02*
X0091565Y0426592D01*
X0089736Y0428105D01*
X0092001Y0430844D01*
X0093830Y0429331D01*
G37*
G36*
X0091403Y0431339D02*
X0089138Y0428600D01*
X0087309Y0430113D01*
X0089574Y0432852D01*
X0091403Y0431339D01*
G37*
G36*
X0097075Y0437610D02*
X0094642Y0435019D01*
X0092911Y0436644D01*
X0095344Y0439235D01*
X0097075Y0437610D01*
G37*
G36*
X0099371Y0435454D02*
X0096938Y0432863D01*
X0095207Y0434488D01*
X0097640Y0437079D01*
X0099371Y0435454D01*
G37*
G36*
X0101667Y0433297D02*
X0099234Y0430706D01*
X0097503Y0432331D01*
X0099936Y0434922D01*
X0101667Y0433297D01*
G37*
G36*
X0106249Y0438176D02*
X0103816Y0435585D01*
X0102085Y0437210D01*
X0104518Y0439801D01*
X0106249Y0438176D01*
G37*
G36*
X0103953Y0440332D02*
X0101520Y0437741D01*
X0099789Y0439366D01*
X0102222Y0441957D01*
X0103953Y0440332D01*
G37*
G36*
X0101657Y0442489D02*
X0099224Y0439898D01*
X0097493Y0441523D01*
X0099926Y0444114D01*
X0101657Y0442489D01*
G37*
G36*
X0107702Y0448376D02*
X0105111Y0445943D01*
X0103486Y0447674D01*
X0106077Y0450107D01*
X0107702Y0448376D01*
G37*
G36*
X0109859Y0446080D02*
X0107268Y0443647D01*
X0105643Y0445378D01*
X0108234Y0447811D01*
X0109859Y0446080D01*
G37*
G36*
X0112015Y0443784D02*
X0109424Y0441351D01*
X0107799Y0443082D01*
X0110390Y0445515D01*
X0112015Y0443784D01*
G37*
G36*
X0116894Y0448366D02*
X0114303Y0445933D01*
X0112678Y0447664D01*
X0115269Y0450097D01*
X0116894Y0448366D01*
G37*
G36*
X0114737Y0450662D02*
X0112146Y0448229D01*
X0110521Y0449960D01*
X0113112Y0452393D01*
X0114737Y0450662D01*
G37*
G36*
X0112581Y0452958D02*
X0109990Y0450525D01*
X0108365Y0452256D01*
X0110956Y0454689D01*
X0112581Y0452958D01*
G37*
G36*
X0119000Y0458462D02*
X0116261Y0456197D01*
X0114748Y0458026D01*
X0117487Y0460291D01*
X0119000Y0458462D01*
G37*
G36*
X0121008Y0456035D02*
X0118269Y0453770D01*
X0116756Y0455599D01*
X0119495Y0457864D01*
X0121008Y0456035D01*
G37*
G36*
X0123015Y0453608D02*
X0120276Y0451343D01*
X0118763Y0453172D01*
X0121502Y0455437D01*
X0123015Y0453608D01*
G37*
G36*
X0128172Y0457874D02*
X0125433Y0455609D01*
X0123920Y0457438D01*
X0126659Y0459703D01*
X0128172Y0457874D01*
G37*
G36*
X0126164Y0460301D02*
X0123425Y0458036D01*
X0121912Y0459865D01*
X0124651Y0462130D01*
X0126164Y0460301D01*
G37*
G36*
X0124157Y0462728D02*
X0121418Y0460463D01*
X0119905Y0462292D01*
X0122644Y0464557D01*
X0124157Y0462728D01*
G37*
G36*
X0130897Y0467825D02*
X0128021Y0465736D01*
X0126625Y0467657D01*
X0129501Y0469746D01*
X0130897Y0467825D01*
G37*
G36*
X0132749Y0465277D02*
X0129873Y0463188D01*
X0128477Y0465109D01*
X0131353Y0467198D01*
X0132749Y0465277D01*
G37*
G36*
X0134600Y0462729D02*
X0131724Y0460640D01*
X0130328Y0462561D01*
X0133204Y0464650D01*
X0134600Y0462729D01*
G37*
G36*
X0140015Y0466663D02*
X0137139Y0464574D01*
X0135743Y0466495D01*
X0138619Y0468584D01*
X0140015Y0466663D01*
G37*
G36*
X0138163Y0469211D02*
X0135287Y0467122D01*
X0133891Y0469043D01*
X0136767Y0471132D01*
X0138163Y0469211D01*
G37*
G36*
X0136312Y0471759D02*
X0133436Y0469670D01*
X0132040Y0471591D01*
X0134916Y0473680D01*
X0136312Y0471759D01*
G37*
G36*
X0143364Y0476407D02*
X0140362Y0474502D01*
X0139090Y0476505D01*
X0142092Y0478410D01*
X0143364Y0476407D01*
G37*
G36*
X0145051Y0473748D02*
X0142049Y0471843D01*
X0140777Y0473846D01*
X0143779Y0475751D01*
X0145051Y0473748D01*
G37*
G36*
X0146739Y0471089D02*
X0143737Y0469184D01*
X0142465Y0471187D01*
X0145467Y0473092D01*
X0146739Y0471089D01*
G37*
G36*
X0152390Y0474675D02*
X0149388Y0472770D01*
X0148116Y0474773D01*
X0151118Y0476678D01*
X0152390Y0474675D01*
G37*
G36*
X0150703Y0477334D02*
X0147701Y0475429D01*
X0146429Y0477432D01*
X0149431Y0479337D01*
X0150703Y0477334D01*
G37*
G36*
X0149015Y0479993D02*
X0146013Y0478088D01*
X0144741Y0480091D01*
X0147743Y0481996D01*
X0149015Y0479993D01*
G37*
G36*
X0156339Y0484205D02*
X0153224Y0482492D01*
X0152081Y0484571D01*
X0155196Y0486284D01*
X0156339Y0484205D01*
G37*
G36*
X0157856Y0481445D02*
X0154741Y0479732D01*
X0153598Y0481811D01*
X0156713Y0483524D01*
X0157856Y0481445D01*
G37*
G36*
X0159374Y0478685D02*
X0156259Y0476972D01*
X0155116Y0479051D01*
X0158231Y0480764D01*
X0159374Y0478685D01*
G37*
G36*
X0165239Y0481909D02*
X0162124Y0480196D01*
X0160981Y0482275D01*
X0164096Y0483988D01*
X0165239Y0481909D01*
G37*
G36*
X0163722Y0484669D02*
X0160607Y0482956D01*
X0159464Y0485035D01*
X0162579Y0486748D01*
X0163722Y0484669D01*
G37*
G36*
X0162204Y0487429D02*
X0159089Y0485716D01*
X0157946Y0487795D01*
X0161061Y0489508D01*
X0162204Y0487429D01*
G37*
G36*
X0169785Y0491159D02*
X0166568Y0489644D01*
X0165557Y0491791D01*
X0168774Y0493306D01*
X0169785Y0491159D01*
G37*
G36*
X0171126Y0488309D02*
X0167909Y0486794D01*
X0166898Y0488941D01*
X0170115Y0490456D01*
X0171126Y0488309D01*
G37*
G36*
X0172467Y0485459D02*
X0169250Y0483944D01*
X0168239Y0486091D01*
X0171456Y0487606D01*
X0172467Y0485459D01*
G37*
G36*
X0178523Y0488309D02*
X0175306Y0486794D01*
X0174295Y0488941D01*
X0177512Y0490456D01*
X0178523Y0488309D01*
G37*
G36*
X0177182Y0491159D02*
X0173965Y0489644D01*
X0172954Y0491791D01*
X0176171Y0493306D01*
X0177182Y0491159D01*
G37*
G36*
X0175841Y0494009D02*
X0172624Y0492494D01*
X0171613Y0494641D01*
X0174830Y0496156D01*
X0175841Y0494009D01*
G37*
G36*
X0183639Y0497268D02*
X0180333Y0495959D01*
X0179459Y0498166D01*
X0182765Y0499475D01*
X0183639Y0497268D01*
G37*
G36*
X0184799Y0494339D02*
X0181493Y0493030D01*
X0180619Y0495237D01*
X0183925Y0496546D01*
X0184799Y0494339D01*
G37*
G36*
X0185958Y0491411D02*
X0182652Y0490102D01*
X0181778Y0492309D01*
X0185084Y0493618D01*
X0185958Y0491411D01*
G37*
G36*
X0192181Y0493874D02*
X0188875Y0492565D01*
X0188001Y0494772D01*
X0191307Y0496081D01*
X0192181Y0493874D01*
G37*
G36*
X0191021Y0496803D02*
X0187715Y0495494D01*
X0186841Y0497701D01*
X0190147Y0499010D01*
X0191021Y0496803D01*
G37*
G36*
X0189862Y0499731D02*
X0186556Y0498422D01*
X0185682Y0500629D01*
X0188988Y0501938D01*
X0189862Y0499731D01*
G37*
G36*
X0197841Y0502482D02*
X0194460Y0501383D01*
X0193727Y0503640D01*
X0197108Y0504739D01*
X0197841Y0502482D01*
G37*
G36*
X0198814Y0499487D02*
X0195433Y0498388D01*
X0194700Y0500645D01*
X0198081Y0501744D01*
X0198814Y0499487D01*
G37*
G36*
X0199788Y0496491D02*
X0196407Y0495392D01*
X0195674Y0497649D01*
X0199055Y0498748D01*
X0199788Y0496491D01*
G37*
G36*
X0206153Y0498560D02*
X0202772Y0497461D01*
X0202039Y0499718D01*
X0205420Y0500817D01*
X0206153Y0498560D01*
G37*
G36*
X0205180Y0501555D02*
X0201799Y0500456D01*
X0201066Y0502713D01*
X0204447Y0503812D01*
X0205180Y0501555D01*
G37*
G36*
X0204206Y0504551D02*
X0200825Y0503452D01*
X0200092Y0505709D01*
X0203473Y0506808D01*
X0204206Y0504551D01*
G37*
G36*
X0212352Y0506801D02*
X0208909Y0505917D01*
X0208318Y0508215D01*
X0211761Y0509099D01*
X0212352Y0506801D01*
G37*
G36*
X0213136Y0503751D02*
X0209693Y0502867D01*
X0209102Y0505165D01*
X0212545Y0506049D01*
X0213136Y0503751D01*
G37*
G36*
X0213919Y0500700D02*
X0210476Y0499816D01*
X0209885Y0502114D01*
X0213328Y0502998D01*
X0213919Y0500700D01*
G37*
G36*
X0220402Y0502365D02*
X0216959Y0501481D01*
X0216368Y0503779D01*
X0219811Y0504663D01*
X0220402Y0502365D01*
G37*
G36*
X0219618Y0505415D02*
X0216175Y0504531D01*
X0215584Y0506829D01*
X0219027Y0507713D01*
X0219618Y0505415D01*
G37*
G36*
X0218835Y0508466D02*
X0215392Y0507582D01*
X0214801Y0509880D01*
X0218244Y0510764D01*
X0218835Y0508466D01*
G37*
G36*
X0227111Y0510205D02*
X0223619Y0509538D01*
X0223175Y0511869D01*
X0226667Y0512536D01*
X0227111Y0510205D01*
G37*
G36*
X0227701Y0507111D02*
X0224209Y0506444D01*
X0223765Y0508775D01*
X0227257Y0509442D01*
X0227701Y0507111D01*
G37*
G36*
X0228291Y0504017D02*
X0224799Y0503350D01*
X0224355Y0505681D01*
X0227847Y0506348D01*
X0228291Y0504017D01*
G37*
G36*
X0234865Y0505271D02*
X0231373Y0504604D01*
X0230929Y0506935D01*
X0234421Y0507602D01*
X0234865Y0505271D01*
G37*
G36*
X0234275Y0508365D02*
X0230783Y0507698D01*
X0230339Y0510029D01*
X0233831Y0510696D01*
X0234275Y0508365D01*
G37*
G36*
X0233685Y0511459D02*
X0230193Y0510792D01*
X0229749Y0513123D01*
X0233241Y0513790D01*
X0233685Y0511459D01*
G37*
G36*
X0242047Y0512671D02*
X0238520Y0512225D01*
X0238223Y0514579D01*
X0241750Y0515025D01*
X0242047Y0512671D01*
G37*
G36*
X0242442Y0509547D02*
X0238915Y0509101D01*
X0238618Y0511455D01*
X0242145Y0511901D01*
X0242442Y0509547D01*
G37*
G36*
X0242837Y0506422D02*
X0239310Y0505976D01*
X0239013Y0508330D01*
X0242540Y0508776D01*
X0242837Y0506422D01*
G37*
G36*
X0249477Y0507261D02*
X0245950Y0506815D01*
X0245653Y0509169D01*
X0249180Y0509615D01*
X0249477Y0507261D01*
G37*
G36*
X0249082Y0510385D02*
X0245555Y0509939D01*
X0245258Y0512293D01*
X0248785Y0512739D01*
X0249082Y0510385D01*
G37*
G36*
X0248687Y0513510D02*
X0245160Y0513064D01*
X0244863Y0515418D01*
X0248390Y0515864D01*
X0248687Y0513510D01*
G37*
G36*
X0257101Y0514190D02*
X0253553Y0513967D01*
X0253403Y0516336D01*
X0256951Y0516559D01*
X0257101Y0514190D01*
G37*
G36*
X0257299Y0511047D02*
X0253751Y0510824D01*
X0253601Y0513193D01*
X0257149Y0513416D01*
X0257299Y0511047D01*
G37*
G36*
X0257497Y0507903D02*
X0253949Y0507680D01*
X0253799Y0510049D01*
X0257347Y0510272D01*
X0257497Y0507903D01*
G37*
G36*
X0264177Y0508324D02*
X0260629Y0508101D01*
X0260479Y0510470D01*
X0264027Y0510693D01*
X0264177Y0508324D01*
G37*
G36*
X0263979Y0511467D02*
X0260431Y0511244D01*
X0260281Y0513613D01*
X0263829Y0513836D01*
X0263979Y0511467D01*
G37*
G36*
X0263781Y0514611D02*
X0260233Y0514388D01*
X0260083Y0516757D01*
X0263631Y0516980D01*
X0263781Y0514611D01*
G37*
X0270454Y0515950D03*
X0270454Y0512800D03*
X0270454Y0509650D03*
X0277146Y0509650D03*
X0277146Y0512800D03*
X0277146Y0515950D03*
G36*
X0287367Y0514388D02*
X0283819Y0514611D01*
X0283969Y0516980D01*
X0287517Y0516757D01*
X0287367Y0514388D01*
G37*
G36*
X0287169Y0511244D02*
X0283621Y0511467D01*
X0283771Y0513836D01*
X0287319Y0513613D01*
X0287169Y0511244D01*
G37*
G36*
X0286971Y0508101D02*
X0283423Y0508324D01*
X0283573Y0510693D01*
X0287121Y0510470D01*
X0286971Y0508101D01*
G37*
G36*
X0293651Y0507680D02*
X0290103Y0507903D01*
X0290253Y0510272D01*
X0293801Y0510049D01*
X0293651Y0507680D01*
G37*
G36*
X0293849Y0510824D02*
X0290301Y0511047D01*
X0290451Y0513416D01*
X0293999Y0513193D01*
X0293849Y0510824D01*
G37*
G36*
X0294047Y0513967D02*
X0290499Y0514190D01*
X0290649Y0516559D01*
X0294197Y0516336D01*
X0294047Y0513967D01*
G37*
G36*
X0302440Y0513064D02*
X0298913Y0513510D01*
X0299210Y0515864D01*
X0302737Y0515418D01*
X0302440Y0513064D01*
G37*
G36*
X0302045Y0509939D02*
X0298518Y0510385D01*
X0298815Y0512739D01*
X0302342Y0512293D01*
X0302045Y0509939D01*
G37*
G36*
X0301650Y0506815D02*
X0298123Y0507261D01*
X0298420Y0509615D01*
X0301947Y0509169D01*
X0301650Y0506815D01*
G37*
G36*
X0308290Y0505976D02*
X0304763Y0506422D01*
X0305060Y0508776D01*
X0308587Y0508330D01*
X0308290Y0505976D01*
G37*
G36*
X0308685Y0509101D02*
X0305158Y0509547D01*
X0305455Y0511901D01*
X0308982Y0511455D01*
X0308685Y0509101D01*
G37*
G36*
X0309080Y0512225D02*
X0305553Y0512671D01*
X0305850Y0515025D01*
X0309377Y0514579D01*
X0309080Y0512225D01*
G37*
G36*
X0317407Y0510792D02*
X0313915Y0511459D01*
X0314359Y0513790D01*
X0317851Y0513123D01*
X0317407Y0510792D01*
G37*
G36*
X0316817Y0507698D02*
X0313325Y0508365D01*
X0313769Y0510696D01*
X0317261Y0510029D01*
X0316817Y0507698D01*
G37*
G36*
X0316227Y0504604D02*
X0312735Y0505271D01*
X0313179Y0507602D01*
X0316671Y0506935D01*
X0316227Y0504604D01*
G37*
G36*
X0322801Y0503350D02*
X0319309Y0504017D01*
X0319753Y0506348D01*
X0323245Y0505681D01*
X0322801Y0503350D01*
G37*
G36*
X0323391Y0506444D02*
X0319899Y0507111D01*
X0320343Y0509442D01*
X0323835Y0508775D01*
X0323391Y0506444D01*
G37*
G36*
X0323981Y0509538D02*
X0320489Y0510205D01*
X0320933Y0512536D01*
X0324425Y0511869D01*
X0323981Y0509538D01*
G37*
G36*
X0332208Y0507582D02*
X0328765Y0508466D01*
X0329356Y0510764D01*
X0332799Y0509880D01*
X0332208Y0507582D01*
G37*
G36*
X0331425Y0504531D02*
X0327982Y0505415D01*
X0328573Y0507713D01*
X0332016Y0506829D01*
X0331425Y0504531D01*
G37*
G36*
X0330641Y0501481D02*
X0327198Y0502365D01*
X0327789Y0504663D01*
X0331232Y0503779D01*
X0330641Y0501481D01*
G37*
G36*
X0337124Y0499816D02*
X0333681Y0500700D01*
X0334272Y0502998D01*
X0337715Y0502114D01*
X0337124Y0499816D01*
G37*
G36*
X0337907Y0502867D02*
X0334464Y0503751D01*
X0335055Y0506049D01*
X0338498Y0505165D01*
X0337907Y0502867D01*
G37*
G36*
X0338691Y0505917D02*
X0335248Y0506801D01*
X0335839Y0509099D01*
X0339282Y0508215D01*
X0338691Y0505917D01*
G37*
G36*
X0345801Y0500456D02*
X0342420Y0501555D01*
X0343153Y0503812D01*
X0346534Y0502713D01*
X0345801Y0500456D01*
G37*
G36*
X0344828Y0497461D02*
X0341447Y0498560D01*
X0342180Y0500817D01*
X0345561Y0499718D01*
X0344828Y0497461D01*
G37*
G36*
X0351193Y0495392D02*
X0347812Y0496491D01*
X0348545Y0498748D01*
X0351926Y0497649D01*
X0351193Y0495392D01*
G37*
G36*
X0352167Y0498388D02*
X0348786Y0499487D01*
X0349519Y0501744D01*
X0352900Y0500645D01*
X0352167Y0498388D01*
G37*
G36*
X0353140Y0501383D02*
X0349759Y0502482D01*
X0350492Y0504739D01*
X0353873Y0503640D01*
X0353140Y0501383D01*
G37*
G36*
X0361044Y0498422D02*
X0357738Y0499731D01*
X0358612Y0501938D01*
X0361918Y0500629D01*
X0361044Y0498422D01*
G37*
G36*
X0359885Y0495494D02*
X0356579Y0496803D01*
X0357453Y0499010D01*
X0360759Y0497701D01*
X0359885Y0495494D01*
G37*
G36*
X0358725Y0492565D02*
X0355419Y0493874D01*
X0356293Y0496081D01*
X0359599Y0494772D01*
X0358725Y0492565D01*
G37*
G36*
X0364948Y0490102D02*
X0361642Y0491411D01*
X0362516Y0493618D01*
X0365822Y0492309D01*
X0364948Y0490102D01*
G37*
G36*
X0366107Y0493030D02*
X0362801Y0494339D01*
X0363675Y0496546D01*
X0366981Y0495237D01*
X0366107Y0493030D01*
G37*
G36*
X0367267Y0495959D02*
X0363961Y0497268D01*
X0364835Y0499475D01*
X0368141Y0498166D01*
X0367267Y0495959D01*
G37*
G36*
X0374976Y0492494D02*
X0371759Y0494009D01*
X0372770Y0496156D01*
X0375987Y0494641D01*
X0374976Y0492494D01*
G37*
G36*
X0373635Y0489644D02*
X0370418Y0491159D01*
X0371429Y0493306D01*
X0374646Y0491791D01*
X0373635Y0489644D01*
G37*
G36*
X0372294Y0486794D02*
X0369077Y0488309D01*
X0370088Y0490456D01*
X0373305Y0488941D01*
X0372294Y0486794D01*
G37*
G36*
X0378350Y0483944D02*
X0375133Y0485459D01*
X0376144Y0487606D01*
X0379361Y0486091D01*
X0378350Y0483944D01*
G37*
G36*
X0379691Y0486794D02*
X0376474Y0488309D01*
X0377485Y0490456D01*
X0380702Y0488941D01*
X0379691Y0486794D01*
G37*
G36*
X0381032Y0489644D02*
X0377815Y0491159D01*
X0378826Y0493306D01*
X0382043Y0491791D01*
X0381032Y0489644D01*
G37*
G36*
X0388511Y0485716D02*
X0385396Y0487429D01*
X0386539Y0489508D01*
X0389654Y0487795D01*
X0388511Y0485716D01*
G37*
G36*
X0386993Y0482956D02*
X0383878Y0484669D01*
X0385021Y0486748D01*
X0388136Y0485035D01*
X0386993Y0482956D01*
G37*
G36*
X0385476Y0480196D02*
X0382361Y0481909D01*
X0383504Y0483988D01*
X0386619Y0482275D01*
X0385476Y0480196D01*
G37*
G36*
X0391341Y0476972D02*
X0388226Y0478685D01*
X0389369Y0480764D01*
X0392484Y0479051D01*
X0391341Y0476972D01*
G37*
G36*
X0392859Y0479732D02*
X0389744Y0481445D01*
X0390887Y0483524D01*
X0394002Y0481811D01*
X0392859Y0479732D01*
G37*
G36*
X0394376Y0482492D02*
X0391261Y0484205D01*
X0392404Y0486284D01*
X0395519Y0484571D01*
X0394376Y0482492D01*
G37*
G36*
X0401587Y0478088D02*
X0398585Y0479993D01*
X0399857Y0481996D01*
X0402859Y0480091D01*
X0401587Y0478088D01*
G37*
G36*
X0399899Y0475429D02*
X0396897Y0477334D01*
X0398169Y0479337D01*
X0401171Y0477432D01*
X0399899Y0475429D01*
G37*
G36*
X0398212Y0472770D02*
X0395210Y0474675D01*
X0396482Y0476678D01*
X0399484Y0474773D01*
X0398212Y0472770D01*
G37*
G36*
X0403863Y0469184D02*
X0400861Y0471089D01*
X0402133Y0473092D01*
X0405135Y0471187D01*
X0403863Y0469184D01*
G37*
G36*
X0405551Y0471843D02*
X0402549Y0473748D01*
X0403821Y0475751D01*
X0406823Y0473846D01*
X0405551Y0471843D01*
G37*
G36*
X0407238Y0474502D02*
X0404236Y0476407D01*
X0405508Y0478410D01*
X0408510Y0476505D01*
X0407238Y0474502D01*
G37*
G36*
X0414164Y0469670D02*
X0411288Y0471759D01*
X0412684Y0473680D01*
X0415560Y0471591D01*
X0414164Y0469670D01*
G37*
G36*
X0412313Y0467122D02*
X0409437Y0469211D01*
X0410833Y0471132D01*
X0413709Y0469043D01*
X0412313Y0467122D01*
G37*
G36*
X0410461Y0464574D02*
X0407585Y0466663D01*
X0408981Y0468584D01*
X0411857Y0466495D01*
X0410461Y0464574D01*
G37*
G36*
X0415876Y0460640D02*
X0413000Y0462729D01*
X0414396Y0464650D01*
X0417272Y0462561D01*
X0415876Y0460640D01*
G37*
G36*
X0417727Y0463188D02*
X0414851Y0465277D01*
X0416247Y0467198D01*
X0419123Y0465109D01*
X0417727Y0463188D01*
G37*
G36*
X0419579Y0465736D02*
X0416703Y0467825D01*
X0418099Y0469746D01*
X0420975Y0467657D01*
X0419579Y0465736D01*
G37*
G36*
X0426182Y0460463D02*
X0423443Y0462728D01*
X0424956Y0464557D01*
X0427695Y0462292D01*
X0426182Y0460463D01*
G37*
G36*
X0424175Y0458036D02*
X0421436Y0460301D01*
X0422949Y0462130D01*
X0425688Y0459865D01*
X0424175Y0458036D01*
G37*
G36*
X0422167Y0455609D02*
X0419428Y0457874D01*
X0420941Y0459703D01*
X0423680Y0457438D01*
X0422167Y0455609D01*
G37*
G36*
X0427324Y0451343D02*
X0424585Y0453608D01*
X0426098Y0455437D01*
X0428837Y0453172D01*
X0427324Y0451343D01*
G37*
G36*
X0429331Y0453770D02*
X0426592Y0456035D01*
X0428105Y0457864D01*
X0430844Y0455599D01*
X0429331Y0453770D01*
G37*
G36*
X0431339Y0456197D02*
X0428600Y0458462D01*
X0430113Y0460291D01*
X0432852Y0458026D01*
X0431339Y0456197D01*
G37*
G36*
X0437610Y0450525D02*
X0435019Y0452958D01*
X0436644Y0454689D01*
X0439235Y0452256D01*
X0437610Y0450525D01*
G37*
G36*
X0435454Y0448229D02*
X0432863Y0450662D01*
X0434488Y0452393D01*
X0437079Y0449960D01*
X0435454Y0448229D01*
G37*
G36*
X0433297Y0445933D02*
X0430706Y0448366D01*
X0432331Y0450097D01*
X0434922Y0447664D01*
X0433297Y0445933D01*
G37*
G36*
X0438176Y0441351D02*
X0435585Y0443784D01*
X0437210Y0445515D01*
X0439801Y0443082D01*
X0438176Y0441351D01*
G37*
G36*
X0440332Y0443647D02*
X0437741Y0446080D01*
X0439366Y0447811D01*
X0441957Y0445378D01*
X0440332Y0443647D01*
G37*
G36*
X0442489Y0445943D02*
X0439898Y0448376D01*
X0441523Y0450107D01*
X0444114Y0447674D01*
X0442489Y0445943D01*
G37*
G36*
X0448376Y0439898D02*
X0445943Y0442489D01*
X0447674Y0444114D01*
X0450107Y0441523D01*
X0448376Y0439898D01*
G37*
G36*
X0446080Y0437741D02*
X0443647Y0440332D01*
X0445378Y0441957D01*
X0447811Y0439366D01*
X0446080Y0437741D01*
G37*
G36*
X0443784Y0435585D02*
X0441351Y0438176D01*
X0443082Y0439801D01*
X0445515Y0437210D01*
X0443784Y0435585D01*
G37*
G36*
X0448366Y0430706D02*
X0445933Y0433297D01*
X0447664Y0434922D01*
X0450097Y0432331D01*
X0448366Y0430706D01*
G37*
G36*
X0450662Y0432863D02*
X0448229Y0435454D01*
X0449960Y0437079D01*
X0452393Y0434488D01*
X0450662Y0432863D01*
G37*
G36*
X0452958Y0435019D02*
X0450525Y0437610D01*
X0452256Y0439235D01*
X0454689Y0436644D01*
X0452958Y0435019D01*
G37*
G36*
X0458462Y0428600D02*
X0456197Y0431339D01*
X0458026Y0432852D01*
X0460291Y0430113D01*
X0458462Y0428600D01*
G37*
G36*
X0456035Y0426592D02*
X0453770Y0429331D01*
X0455599Y0430844D01*
X0457864Y0428105D01*
X0456035Y0426592D01*
G37*
G36*
X0453608Y0424585D02*
X0451343Y0427324D01*
X0453172Y0428837D01*
X0455437Y0426098D01*
X0453608Y0424585D01*
G37*
G36*
X0457874Y0419428D02*
X0455609Y0422167D01*
X0457438Y0423680D01*
X0459703Y0420941D01*
X0457874Y0419428D01*
G37*
G36*
X0460301Y0421436D02*
X0458036Y0424175D01*
X0459865Y0425688D01*
X0462130Y0422949D01*
X0460301Y0421436D01*
G37*
G36*
X0462728Y0423443D02*
X0460463Y0426182D01*
X0462292Y0427695D01*
X0464557Y0424956D01*
X0462728Y0423443D01*
G37*
G36*
X0467825Y0416703D02*
X0465736Y0419579D01*
X0467657Y0420975D01*
X0469746Y0418099D01*
X0467825Y0416703D01*
G37*
G36*
X0465277Y0414851D02*
X0463188Y0417727D01*
X0465109Y0419123D01*
X0467198Y0416247D01*
X0465277Y0414851D01*
G37*
G36*
X0462729Y0413000D02*
X0460640Y0415876D01*
X0462561Y0417272D01*
X0464650Y0414396D01*
X0462729Y0413000D01*
G37*
G36*
X0466663Y0407585D02*
X0464574Y0410461D01*
X0466495Y0411857D01*
X0468584Y0408981D01*
X0466663Y0407585D01*
G37*
G36*
X0469211Y0409437D02*
X0467122Y0412313D01*
X0469043Y0413709D01*
X0471132Y0410833D01*
X0469211Y0409437D01*
G37*
G36*
X0471759Y0411288D02*
X0469670Y0414164D01*
X0471591Y0415560D01*
X0473680Y0412684D01*
X0471759Y0411288D01*
G37*
G36*
X0476407Y0404236D02*
X0474502Y0407238D01*
X0476505Y0408510D01*
X0478410Y0405508D01*
X0476407Y0404236D01*
G37*
G36*
X0473748Y0402549D02*
X0471843Y0405551D01*
X0473846Y0406823D01*
X0475751Y0403821D01*
X0473748Y0402549D01*
G37*
G36*
X0471089Y0400861D02*
X0469184Y0403863D01*
X0471187Y0405135D01*
X0473092Y0402133D01*
X0471089Y0400861D01*
G37*
G36*
X0474675Y0395210D02*
X0472770Y0398212D01*
X0474773Y0399484D01*
X0476678Y0396482D01*
X0474675Y0395210D01*
G37*
G36*
X0477334Y0396897D02*
X0475429Y0399899D01*
X0477432Y0401171D01*
X0479337Y0398169D01*
X0477334Y0396897D01*
G37*
G36*
X0479993Y0398585D02*
X0478088Y0401587D01*
X0480091Y0402859D01*
X0481996Y0399857D01*
X0479993Y0398585D01*
G37*
G36*
X0484205Y0391261D02*
X0482492Y0394376D01*
X0484571Y0395519D01*
X0486284Y0392404D01*
X0484205Y0391261D01*
G37*
G36*
X0481445Y0389744D02*
X0479732Y0392859D01*
X0481811Y0394002D01*
X0483524Y0390887D01*
X0481445Y0389744D01*
G37*
G36*
X0478685Y0388226D02*
X0476972Y0391341D01*
X0479051Y0392484D01*
X0480764Y0389369D01*
X0478685Y0388226D01*
G37*
G36*
X0481909Y0382361D02*
X0480196Y0385476D01*
X0482275Y0386619D01*
X0483988Y0383504D01*
X0481909Y0382361D01*
G37*
G36*
X0484669Y0383878D02*
X0482956Y0386993D01*
X0485035Y0388136D01*
X0486748Y0385021D01*
X0484669Y0383878D01*
G37*
G36*
X0487429Y0385396D02*
X0485716Y0388511D01*
X0487795Y0389654D01*
X0489508Y0386539D01*
X0487429Y0385396D01*
G37*
G36*
X0491159Y0377815D02*
X0489644Y0381032D01*
X0491791Y0382043D01*
X0493306Y0378826D01*
X0491159Y0377815D01*
G37*
G36*
X0488309Y0376474D02*
X0486794Y0379691D01*
X0488941Y0380702D01*
X0490456Y0377485D01*
X0488309Y0376474D01*
G37*
G36*
X0485459Y0375133D02*
X0483944Y0378350D01*
X0486091Y0379361D01*
X0487606Y0376144D01*
X0485459Y0375133D01*
G37*
G36*
X0488309Y0369077D02*
X0486794Y0372294D01*
X0488941Y0373305D01*
X0490456Y0370088D01*
X0488309Y0369077D01*
G37*
G36*
X0491159Y0370418D02*
X0489644Y0373635D01*
X0491791Y0374646D01*
X0493306Y0371429D01*
X0491159Y0370418D01*
G37*
G36*
X0494009Y0371759D02*
X0492494Y0374976D01*
X0494641Y0375987D01*
X0496156Y0372770D01*
X0494009Y0371759D01*
G37*
G36*
X0497268Y0363961D02*
X0495959Y0367267D01*
X0498166Y0368141D01*
X0499475Y0364835D01*
X0497268Y0363961D01*
G37*
G36*
X0494339Y0362801D02*
X0493030Y0366107D01*
X0495237Y0366981D01*
X0496546Y0363675D01*
X0494339Y0362801D01*
G37*
G36*
X0491411Y0361642D02*
X0490102Y0364948D01*
X0492309Y0365822D01*
X0493618Y0362516D01*
X0491411Y0361642D01*
G37*
G36*
X0493874Y0355419D02*
X0492565Y0358725D01*
X0494772Y0359599D01*
X0496081Y0356293D01*
X0493874Y0355419D01*
G37*
G36*
X0496803Y0356579D02*
X0495494Y0359885D01*
X0497701Y0360759D01*
X0499010Y0357453D01*
X0496803Y0356579D01*
G37*
G36*
X0499731Y0357738D02*
X0498422Y0361044D01*
X0500629Y0361918D01*
X0501938Y0358612D01*
X0499731Y0357738D01*
G37*
G36*
X0502482Y0349759D02*
X0501383Y0353140D01*
X0503640Y0353873D01*
X0504739Y0350492D01*
X0502482Y0349759D01*
G37*
G36*
X0499487Y0348786D02*
X0498388Y0352167D01*
X0500645Y0352900D01*
X0501744Y0349519D01*
X0499487Y0348786D01*
G37*
G36*
X0496491Y0347812D02*
X0495392Y0351193D01*
X0497649Y0351926D01*
X0498748Y0348545D01*
X0496491Y0347812D01*
G37*
G36*
X0498560Y0341447D02*
X0497461Y0344828D01*
X0499718Y0345561D01*
X0500817Y0342180D01*
X0498560Y0341447D01*
G37*
G36*
X0501555Y0342420D02*
X0500456Y0345801D01*
X0502713Y0346534D01*
X0503812Y0343153D01*
X0501555Y0342420D01*
G37*
G36*
X0504551Y0343394D02*
X0503452Y0346775D01*
X0505709Y0347508D01*
X0506808Y0344127D01*
X0504551Y0343394D01*
G37*
G36*
X0506801Y0335248D02*
X0505917Y0338691D01*
X0508215Y0339282D01*
X0509099Y0335839D01*
X0506801Y0335248D01*
G37*
G36*
X0503751Y0334464D02*
X0502867Y0337907D01*
X0505165Y0338498D01*
X0506049Y0335055D01*
X0503751Y0334464D01*
G37*
G36*
X0500700Y0333681D02*
X0499816Y0337124D01*
X0502114Y0337715D01*
X0502998Y0334272D01*
X0500700Y0333681D01*
G37*
G36*
X0502365Y0327198D02*
X0501481Y0330641D01*
X0503779Y0331232D01*
X0504663Y0327789D01*
X0502365Y0327198D01*
G37*
G36*
X0505415Y0327982D02*
X0504531Y0331425D01*
X0506829Y0332016D01*
X0507713Y0328573D01*
X0505415Y0327982D01*
G37*
G36*
X0508466Y0328765D02*
X0507582Y0332208D01*
X0509880Y0332799D01*
X0510764Y0329356D01*
X0508466Y0328765D01*
G37*
G36*
X0510205Y0320489D02*
X0509538Y0323981D01*
X0511869Y0324425D01*
X0512536Y0320933D01*
X0510205Y0320489D01*
G37*
G36*
X0507111Y0319899D02*
X0506444Y0323391D01*
X0508775Y0323835D01*
X0509442Y0320343D01*
X0507111Y0319899D01*
G37*
G36*
X0504017Y0319309D02*
X0503350Y0322801D01*
X0505681Y0323245D01*
X0506348Y0319753D01*
X0504017Y0319309D01*
G37*
G36*
X0505271Y0312735D02*
X0504604Y0316227D01*
X0506935Y0316671D01*
X0507602Y0313179D01*
X0505271Y0312735D01*
G37*
G36*
X0508365Y0313325D02*
X0507698Y0316817D01*
X0510029Y0317261D01*
X0510696Y0313769D01*
X0508365Y0313325D01*
G37*
G36*
X0511459Y0313915D02*
X0510792Y0317407D01*
X0513123Y0317851D01*
X0513790Y0314359D01*
X0511459Y0313915D01*
G37*
G36*
X0512671Y0305553D02*
X0512225Y0309080D01*
X0514579Y0309377D01*
X0515025Y0305850D01*
X0512671Y0305553D01*
G37*
G36*
X0509547Y0305158D02*
X0509101Y0308685D01*
X0511455Y0308982D01*
X0511901Y0305455D01*
X0509547Y0305158D01*
G37*
G36*
X0506422Y0304763D02*
X0505976Y0308290D01*
X0508330Y0308587D01*
X0508776Y0305060D01*
X0506422Y0304763D01*
G37*
G36*
X0507261Y0298123D02*
X0506815Y0301650D01*
X0509169Y0301947D01*
X0509615Y0298420D01*
X0507261Y0298123D01*
G37*
G36*
X0510385Y0298518D02*
X0509939Y0302045D01*
X0512293Y0302342D01*
X0512739Y0298815D01*
X0510385Y0298518D01*
G37*
G36*
X0513510Y0298913D02*
X0513064Y0302440D01*
X0515418Y0302737D01*
X0515864Y0299210D01*
X0513510Y0298913D01*
G37*
G36*
X0514190Y0290499D02*
X0513967Y0294047D01*
X0516336Y0294197D01*
X0516559Y0290649D01*
X0514190Y0290499D01*
G37*
G36*
X0511047Y0290301D02*
X0510824Y0293849D01*
X0513193Y0293999D01*
X0513416Y0290451D01*
X0511047Y0290301D01*
G37*
G36*
X0507903Y0290103D02*
X0507680Y0293651D01*
X0510049Y0293801D01*
X0510272Y0290253D01*
X0507903Y0290103D01*
G37*
G36*
X0508324Y0283423D02*
X0508101Y0286971D01*
X0510470Y0287121D01*
X0510693Y0283573D01*
X0508324Y0283423D01*
G37*
G36*
X0511467Y0283621D02*
X0511244Y0287169D01*
X0513613Y0287319D01*
X0513836Y0283771D01*
X0511467Y0283621D01*
G37*
G36*
X0514611Y0283819D02*
X0514388Y0287367D01*
X0516757Y0287517D01*
X0516980Y0283969D01*
X0514611Y0283819D01*
G37*
X0516146Y0273800D03*
G36*
X0514388Y0260233D02*
X0514611Y0263781D01*
X0516980Y0263631D01*
X0516757Y0260083D01*
X0514388Y0260233D01*
G37*
G36*
X0511244Y0260431D02*
X0511467Y0263979D01*
X0513836Y0263829D01*
X0513613Y0260281D01*
X0511244Y0260431D01*
G37*
G36*
X0508101Y0260629D02*
X0508324Y0264177D01*
X0510693Y0264027D01*
X0510470Y0260479D01*
X0508101Y0260629D01*
G37*
G36*
X0507680Y0253949D02*
X0507903Y0257497D01*
X0510272Y0257347D01*
X0510049Y0253799D01*
X0507680Y0253949D01*
G37*
G36*
X0510824Y0253751D02*
X0511047Y0257299D01*
X0513416Y0257149D01*
X0513193Y0253601D01*
X0510824Y0253751D01*
G37*
G36*
X0513967Y0253553D02*
X0514190Y0257101D01*
X0516559Y0256951D01*
X0516336Y0253403D01*
X0513967Y0253553D01*
G37*
G36*
X0513064Y0245160D02*
X0513510Y0248687D01*
X0515864Y0248390D01*
X0515418Y0244863D01*
X0513064Y0245160D01*
G37*
G36*
X0509939Y0245555D02*
X0510385Y0249082D01*
X0512739Y0248785D01*
X0512293Y0245258D01*
X0509939Y0245555D01*
G37*
G36*
X0506815Y0245950D02*
X0507261Y0249477D01*
X0509615Y0249180D01*
X0509169Y0245653D01*
X0506815Y0245950D01*
G37*
G36*
X0505976Y0239310D02*
X0506422Y0242837D01*
X0508776Y0242540D01*
X0508330Y0239013D01*
X0505976Y0239310D01*
G37*
G36*
X0509101Y0238915D02*
X0509547Y0242442D01*
X0511901Y0242145D01*
X0511455Y0238618D01*
X0509101Y0238915D01*
G37*
G36*
X0512225Y0238520D02*
X0512671Y0242047D01*
X0515025Y0241750D01*
X0514579Y0238223D01*
X0512225Y0238520D01*
G37*
G36*
X0510792Y0230193D02*
X0511459Y0233685D01*
X0513790Y0233241D01*
X0513123Y0229749D01*
X0510792Y0230193D01*
G37*
G36*
X0507698Y0230783D02*
X0508365Y0234275D01*
X0510696Y0233831D01*
X0510029Y0230339D01*
X0507698Y0230783D01*
G37*
G36*
X0504604Y0231373D02*
X0505271Y0234865D01*
X0507602Y0234421D01*
X0506935Y0230929D01*
X0504604Y0231373D01*
G37*
G36*
X0503350Y0224799D02*
X0504017Y0228291D01*
X0506348Y0227847D01*
X0505681Y0224355D01*
X0503350Y0224799D01*
G37*
G36*
X0506444Y0224209D02*
X0507111Y0227701D01*
X0509442Y0227257D01*
X0508775Y0223765D01*
X0506444Y0224209D01*
G37*
G36*
X0509538Y0223619D02*
X0510205Y0227111D01*
X0512536Y0226667D01*
X0511869Y0223175D01*
X0509538Y0223619D01*
G37*
G36*
X0507582Y0215392D02*
X0508466Y0218835D01*
X0510764Y0218244D01*
X0509880Y0214801D01*
X0507582Y0215392D01*
G37*
G36*
X0504531Y0216175D02*
X0505415Y0219618D01*
X0507713Y0219027D01*
X0506829Y0215584D01*
X0504531Y0216175D01*
G37*
G36*
X0501481Y0216959D02*
X0502365Y0220402D01*
X0504663Y0219811D01*
X0503779Y0216368D01*
X0501481Y0216959D01*
G37*
G36*
X0499816Y0210476D02*
X0500700Y0213919D01*
X0502998Y0213328D01*
X0502114Y0209885D01*
X0499816Y0210476D01*
G37*
G36*
X0502867Y0209693D02*
X0503751Y0213136D01*
X0506049Y0212545D01*
X0505165Y0209102D01*
X0502867Y0209693D01*
G37*
G36*
X0505917Y0208909D02*
X0506801Y0212352D01*
X0509099Y0211761D01*
X0508215Y0208318D01*
X0505917Y0208909D01*
G37*
G36*
X0500456Y0201799D02*
X0501555Y0205180D01*
X0503812Y0204447D01*
X0502713Y0201066D01*
X0500456Y0201799D01*
G37*
G36*
X0497461Y0202772D02*
X0498560Y0206153D01*
X0500817Y0205420D01*
X0499718Y0202039D01*
X0497461Y0202772D01*
G37*
G36*
X0495392Y0196407D02*
X0496491Y0199788D01*
X0498748Y0199055D01*
X0497649Y0195674D01*
X0495392Y0196407D01*
G37*
G36*
X0498388Y0195433D02*
X0499487Y0198814D01*
X0501744Y0198081D01*
X0500645Y0194700D01*
X0498388Y0195433D01*
G37*
G36*
X0501383Y0194460D02*
X0502482Y0197841D01*
X0504739Y0197108D01*
X0503640Y0193727D01*
X0501383Y0194460D01*
G37*
G36*
X0498422Y0186556D02*
X0499731Y0189862D01*
X0501938Y0188988D01*
X0500629Y0185682D01*
X0498422Y0186556D01*
G37*
G36*
X0495494Y0187715D02*
X0496803Y0191021D01*
X0499010Y0190147D01*
X0497701Y0186841D01*
X0495494Y0187715D01*
G37*
G36*
X0492565Y0188875D02*
X0493874Y0192181D01*
X0496081Y0191307D01*
X0494772Y0188001D01*
X0492565Y0188875D01*
G37*
G36*
X0490102Y0182652D02*
X0491411Y0185958D01*
X0493618Y0185084D01*
X0492309Y0181778D01*
X0490102Y0182652D01*
G37*
G36*
X0493030Y0181493D02*
X0494339Y0184799D01*
X0496546Y0183925D01*
X0495237Y0180619D01*
X0493030Y0181493D01*
G37*
G36*
X0495959Y0180333D02*
X0497268Y0183639D01*
X0499475Y0182765D01*
X0498166Y0179459D01*
X0495959Y0180333D01*
G37*
G36*
X0492494Y0172624D02*
X0494009Y0175841D01*
X0496156Y0174830D01*
X0494641Y0171613D01*
X0492494Y0172624D01*
G37*
G36*
X0489644Y0173965D02*
X0491159Y0177182D01*
X0493306Y0176171D01*
X0491791Y0172954D01*
X0489644Y0173965D01*
G37*
G36*
X0486794Y0175306D02*
X0488309Y0178523D01*
X0490456Y0177512D01*
X0488941Y0174295D01*
X0486794Y0175306D01*
G37*
G36*
X0483944Y0169250D02*
X0485459Y0172467D01*
X0487606Y0171456D01*
X0486091Y0168239D01*
X0483944Y0169250D01*
G37*
G36*
X0486794Y0167909D02*
X0488309Y0171126D01*
X0490456Y0170115D01*
X0488941Y0166898D01*
X0486794Y0167909D01*
G37*
G36*
X0489644Y0166568D02*
X0491159Y0169785D01*
X0493306Y0168774D01*
X0491791Y0165557D01*
X0489644Y0166568D01*
G37*
G36*
X0485716Y0159089D02*
X0487429Y0162204D01*
X0489508Y0161061D01*
X0487795Y0157946D01*
X0485716Y0159089D01*
G37*
G36*
X0482956Y0160607D02*
X0484669Y0163722D01*
X0486748Y0162579D01*
X0485035Y0159464D01*
X0482956Y0160607D01*
G37*
G36*
X0480196Y0162124D02*
X0481909Y0165239D01*
X0483988Y0164096D01*
X0482275Y0160981D01*
X0480196Y0162124D01*
G37*
G36*
X0476972Y0156259D02*
X0478685Y0159374D01*
X0480764Y0158231D01*
X0479051Y0155116D01*
X0476972Y0156259D01*
G37*
G36*
X0479732Y0154741D02*
X0481445Y0157856D01*
X0483524Y0156713D01*
X0481811Y0153598D01*
X0479732Y0154741D01*
G37*
G36*
X0482492Y0153224D02*
X0484205Y0156339D01*
X0486284Y0155196D01*
X0484571Y0152081D01*
X0482492Y0153224D01*
G37*
G36*
X0478088Y0146013D02*
X0479993Y0149015D01*
X0481996Y0147743D01*
X0480091Y0144741D01*
X0478088Y0146013D01*
G37*
G36*
X0475429Y0147701D02*
X0477334Y0150703D01*
X0479337Y0149431D01*
X0477432Y0146429D01*
X0475429Y0147701D01*
G37*
G36*
X0472770Y0149388D02*
X0474675Y0152390D01*
X0476678Y0151118D01*
X0474773Y0148116D01*
X0472770Y0149388D01*
G37*
G36*
X0469184Y0143737D02*
X0471089Y0146739D01*
X0473092Y0145467D01*
X0471187Y0142465D01*
X0469184Y0143737D01*
G37*
G36*
X0471843Y0142049D02*
X0473748Y0145051D01*
X0475751Y0143779D01*
X0473846Y0140777D01*
X0471843Y0142049D01*
G37*
G36*
X0474502Y0140362D02*
X0476407Y0143364D01*
X0478410Y0142092D01*
X0476505Y0139090D01*
X0474502Y0140362D01*
G37*
G36*
X0469670Y0133436D02*
X0471759Y0136312D01*
X0473680Y0134916D01*
X0471591Y0132040D01*
X0469670Y0133436D01*
G37*
G36*
X0467122Y0135287D02*
X0469211Y0138163D01*
X0471132Y0136767D01*
X0469043Y0133891D01*
X0467122Y0135287D01*
G37*
G36*
X0464574Y0137139D02*
X0466663Y0140015D01*
X0468584Y0138619D01*
X0466495Y0135743D01*
X0464574Y0137139D01*
G37*
G36*
X0460640Y0131724D02*
X0462729Y0134600D01*
X0464650Y0133204D01*
X0462561Y0130328D01*
X0460640Y0131724D01*
G37*
G36*
X0463188Y0129873D02*
X0465277Y0132749D01*
X0467198Y0131353D01*
X0465109Y0128477D01*
X0463188Y0129873D01*
G37*
G36*
X0465736Y0128021D02*
X0467825Y0130897D01*
X0469746Y0129501D01*
X0467657Y0126625D01*
X0465736Y0128021D01*
G37*
G36*
X0460463Y0121418D02*
X0462728Y0124157D01*
X0464557Y0122644D01*
X0462292Y0119905D01*
X0460463Y0121418D01*
G37*
G36*
X0458036Y0123425D02*
X0460301Y0126164D01*
X0462130Y0124651D01*
X0459865Y0121912D01*
X0458036Y0123425D01*
G37*
G36*
X0455609Y0125433D02*
X0457874Y0128172D01*
X0459703Y0126659D01*
X0457438Y0123920D01*
X0455609Y0125433D01*
G37*
G36*
X0451343Y0120276D02*
X0453608Y0123015D01*
X0455437Y0121502D01*
X0453172Y0118763D01*
X0451343Y0120276D01*
G37*
G36*
X0453770Y0118269D02*
X0456035Y0121008D01*
X0457864Y0119495D01*
X0455599Y0116756D01*
X0453770Y0118269D01*
G37*
G36*
X0456197Y0116261D02*
X0458462Y0119000D01*
X0460291Y0117487D01*
X0458026Y0114748D01*
X0456197Y0116261D01*
G37*
G36*
X0450525Y0109990D02*
X0452958Y0112581D01*
X0454689Y0110956D01*
X0452256Y0108365D01*
X0450525Y0109990D01*
G37*
G36*
X0448229Y0112146D02*
X0450662Y0114737D01*
X0452393Y0113112D01*
X0449960Y0110521D01*
X0448229Y0112146D01*
G37*
G36*
X0445933Y0114303D02*
X0448366Y0116894D01*
X0450097Y0115269D01*
X0447664Y0112678D01*
X0445933Y0114303D01*
G37*
G36*
X0441351Y0109424D02*
X0443784Y0112015D01*
X0445515Y0110390D01*
X0443082Y0107799D01*
X0441351Y0109424D01*
G37*
G36*
X0443647Y0107268D02*
X0446080Y0109859D01*
X0447811Y0108234D01*
X0445378Y0105643D01*
X0443647Y0107268D01*
G37*
G36*
X0445943Y0105111D02*
X0448376Y0107702D01*
X0450107Y0106077D01*
X0447674Y0103486D01*
X0445943Y0105111D01*
G37*
G36*
X0439898Y0099224D02*
X0442489Y0101657D01*
X0444114Y0099926D01*
X0441523Y0097493D01*
X0439898Y0099224D01*
G37*
G36*
X0437741Y0101520D02*
X0440332Y0103953D01*
X0441957Y0102222D01*
X0439366Y0099789D01*
X0437741Y0101520D01*
G37*
G36*
X0435585Y0103816D02*
X0438176Y0106249D01*
X0439801Y0104518D01*
X0437210Y0102085D01*
X0435585Y0103816D01*
G37*
G36*
X0430706Y0099234D02*
X0433297Y0101667D01*
X0434922Y0099936D01*
X0432331Y0097503D01*
X0430706Y0099234D01*
G37*
G36*
X0432863Y0096938D02*
X0435454Y0099371D01*
X0437079Y0097640D01*
X0434488Y0095207D01*
X0432863Y0096938D01*
G37*
G36*
X0435019Y0094642D02*
X0437610Y0097075D01*
X0439235Y0095344D01*
X0436644Y0092911D01*
X0435019Y0094642D01*
G37*
G36*
X0428600Y0089138D02*
X0431339Y0091403D01*
X0432852Y0089574D01*
X0430113Y0087309D01*
X0428600Y0089138D01*
G37*
G36*
X0426592Y0091565D02*
X0429331Y0093830D01*
X0430844Y0092001D01*
X0428105Y0089736D01*
X0426592Y0091565D01*
G37*
G36*
X0424585Y0093992D02*
X0427324Y0096257D01*
X0428837Y0094428D01*
X0426098Y0092163D01*
X0424585Y0093992D01*
G37*
G36*
X0419428Y0089726D02*
X0422167Y0091991D01*
X0423680Y0090162D01*
X0420941Y0087897D01*
X0419428Y0089726D01*
G37*
G36*
X0421436Y0087299D02*
X0424175Y0089564D01*
X0425688Y0087735D01*
X0422949Y0085470D01*
X0421436Y0087299D01*
G37*
G36*
X0423443Y0084872D02*
X0426182Y0087137D01*
X0427695Y0085308D01*
X0424956Y0083043D01*
X0423443Y0084872D01*
G37*
G36*
X0416703Y0079775D02*
X0419579Y0081864D01*
X0420975Y0079943D01*
X0418099Y0077854D01*
X0416703Y0079775D01*
G37*
G36*
X0414851Y0082323D02*
X0417727Y0084412D01*
X0419123Y0082491D01*
X0416247Y0080402D01*
X0414851Y0082323D01*
G37*
G36*
X0413000Y0084871D02*
X0415876Y0086960D01*
X0417272Y0085039D01*
X0414396Y0082950D01*
X0413000Y0084871D01*
G37*
G36*
X0407585Y0080937D02*
X0410461Y0083026D01*
X0411857Y0081105D01*
X0408981Y0079016D01*
X0407585Y0080937D01*
G37*
G36*
X0409437Y0078389D02*
X0412313Y0080478D01*
X0413709Y0078557D01*
X0410833Y0076468D01*
X0409437Y0078389D01*
G37*
G36*
X0411288Y0075841D02*
X0414164Y0077930D01*
X0415560Y0076009D01*
X0412684Y0073920D01*
X0411288Y0075841D01*
G37*
G36*
X0404236Y0071193D02*
X0407238Y0073098D01*
X0408510Y0071095D01*
X0405508Y0069190D01*
X0404236Y0071193D01*
G37*
G36*
X0402549Y0073852D02*
X0405551Y0075757D01*
X0406823Y0073754D01*
X0403821Y0071849D01*
X0402549Y0073852D01*
G37*
G36*
X0400861Y0076511D02*
X0403863Y0078416D01*
X0405135Y0076413D01*
X0402133Y0074508D01*
X0400861Y0076511D01*
G37*
G36*
X0395210Y0072925D02*
X0398212Y0074830D01*
X0399484Y0072827D01*
X0396482Y0070922D01*
X0395210Y0072925D01*
G37*
G36*
X0396897Y0070266D02*
X0399899Y0072171D01*
X0401171Y0070168D01*
X0398169Y0068263D01*
X0396897Y0070266D01*
G37*
G36*
X0398585Y0067607D02*
X0401587Y0069512D01*
X0402859Y0067509D01*
X0399857Y0065604D01*
X0398585Y0067607D01*
G37*
G36*
X0391261Y0063395D02*
X0394376Y0065108D01*
X0395519Y0063029D01*
X0392404Y0061316D01*
X0391261Y0063395D01*
G37*
G36*
X0389744Y0066155D02*
X0392859Y0067868D01*
X0394002Y0065789D01*
X0390887Y0064076D01*
X0389744Y0066155D01*
G37*
G36*
X0388226Y0068915D02*
X0391341Y0070628D01*
X0392484Y0068549D01*
X0389369Y0066836D01*
X0388226Y0068915D01*
G37*
G36*
X0382361Y0065691D02*
X0385476Y0067404D01*
X0386619Y0065325D01*
X0383504Y0063612D01*
X0382361Y0065691D01*
G37*
G36*
X0383878Y0062931D02*
X0386993Y0064644D01*
X0388136Y0062565D01*
X0385021Y0060852D01*
X0383878Y0062931D01*
G37*
G36*
X0385396Y0060171D02*
X0388511Y0061884D01*
X0389654Y0059805D01*
X0386539Y0058092D01*
X0385396Y0060171D01*
G37*
G36*
X0377815Y0056441D02*
X0381032Y0057956D01*
X0382043Y0055809D01*
X0378826Y0054294D01*
X0377815Y0056441D01*
G37*
G36*
X0376474Y0059291D02*
X0379691Y0060806D01*
X0380702Y0058659D01*
X0377485Y0057144D01*
X0376474Y0059291D01*
G37*
G36*
X0375133Y0062141D02*
X0378350Y0063656D01*
X0379361Y0061509D01*
X0376144Y0059994D01*
X0375133Y0062141D01*
G37*
G36*
X0369077Y0059291D02*
X0372294Y0060806D01*
X0373305Y0058659D01*
X0370088Y0057144D01*
X0369077Y0059291D01*
G37*
G36*
X0370418Y0056441D02*
X0373635Y0057956D01*
X0374646Y0055809D01*
X0371429Y0054294D01*
X0370418Y0056441D01*
G37*
G36*
X0371759Y0053591D02*
X0374976Y0055106D01*
X0375987Y0052959D01*
X0372770Y0051444D01*
X0371759Y0053591D01*
G37*
G36*
X0363961Y0050332D02*
X0367267Y0051641D01*
X0368141Y0049434D01*
X0364835Y0048125D01*
X0363961Y0050332D01*
G37*
G36*
X0362801Y0053261D02*
X0366107Y0054570D01*
X0366981Y0052363D01*
X0363675Y0051054D01*
X0362801Y0053261D01*
G37*
G36*
X0361642Y0056189D02*
X0364948Y0057498D01*
X0365822Y0055291D01*
X0362516Y0053982D01*
X0361642Y0056189D01*
G37*
G36*
X0355419Y0053726D02*
X0358725Y0055035D01*
X0359599Y0052828D01*
X0356293Y0051519D01*
X0355419Y0053726D01*
G37*
G36*
X0356579Y0050797D02*
X0359885Y0052106D01*
X0360759Y0049899D01*
X0357453Y0048590D01*
X0356579Y0050797D01*
G37*
G36*
X0357738Y0047869D02*
X0361044Y0049178D01*
X0361918Y0046971D01*
X0358612Y0045662D01*
X0357738Y0047869D01*
G37*
G36*
X0349759Y0045118D02*
X0353140Y0046217D01*
X0353873Y0043960D01*
X0350492Y0042861D01*
X0349759Y0045118D01*
G37*
G36*
X0348786Y0048113D02*
X0352167Y0049212D01*
X0352900Y0046955D01*
X0349519Y0045856D01*
X0348786Y0048113D01*
G37*
G36*
X0347812Y0051109D02*
X0351193Y0052208D01*
X0351926Y0049951D01*
X0348545Y0048852D01*
X0347812Y0051109D01*
G37*
G36*
X0341447Y0049040D02*
X0344828Y0050139D01*
X0345561Y0047882D01*
X0342180Y0046783D01*
X0341447Y0049040D01*
G37*
G36*
X0342420Y0046045D02*
X0345801Y0047144D01*
X0346534Y0044887D01*
X0343153Y0043788D01*
X0342420Y0046045D01*
G37*
G36*
X0343394Y0043049D02*
X0346775Y0044148D01*
X0347508Y0041891D01*
X0344127Y0040792D01*
X0343394Y0043049D01*
G37*
G36*
X0335248Y0040799D02*
X0338691Y0041683D01*
X0339282Y0039385D01*
X0335839Y0038501D01*
X0335248Y0040799D01*
G37*
G36*
X0334464Y0043849D02*
X0337907Y0044733D01*
X0338498Y0042435D01*
X0335055Y0041551D01*
X0334464Y0043849D01*
G37*
G36*
X0333681Y0046900D02*
X0337124Y0047784D01*
X0337715Y0045486D01*
X0334272Y0044602D01*
X0333681Y0046900D01*
G37*
G36*
X0327198Y0045235D02*
X0330641Y0046119D01*
X0331232Y0043821D01*
X0327789Y0042937D01*
X0327198Y0045235D01*
G37*
G36*
X0327982Y0042185D02*
X0331425Y0043069D01*
X0332016Y0040771D01*
X0328573Y0039887D01*
X0327982Y0042185D01*
G37*
G36*
X0328765Y0039134D02*
X0332208Y0040018D01*
X0332799Y0037720D01*
X0329356Y0036836D01*
X0328765Y0039134D01*
G37*
G36*
X0320489Y0037395D02*
X0323981Y0038062D01*
X0324425Y0035731D01*
X0320933Y0035064D01*
X0320489Y0037395D01*
G37*
G36*
X0319899Y0040489D02*
X0323391Y0041156D01*
X0323835Y0038825D01*
X0320343Y0038158D01*
X0319899Y0040489D01*
G37*
G36*
X0319309Y0043583D02*
X0322801Y0044250D01*
X0323245Y0041919D01*
X0319753Y0041252D01*
X0319309Y0043583D01*
G37*
G36*
X0312735Y0042329D02*
X0316227Y0042996D01*
X0316671Y0040665D01*
X0313179Y0039998D01*
X0312735Y0042329D01*
G37*
G36*
X0313325Y0039235D02*
X0316817Y0039902D01*
X0317261Y0037571D01*
X0313769Y0036904D01*
X0313325Y0039235D01*
G37*
G36*
X0313915Y0036141D02*
X0317407Y0036808D01*
X0317851Y0034477D01*
X0314359Y0033810D01*
X0313915Y0036141D01*
G37*
G36*
X0305553Y0034929D02*
X0309080Y0035375D01*
X0309377Y0033021D01*
X0305850Y0032575D01*
X0305553Y0034929D01*
G37*
G36*
X0305158Y0038053D02*
X0308685Y0038499D01*
X0308982Y0036145D01*
X0305455Y0035699D01*
X0305158Y0038053D01*
G37*
G36*
X0304763Y0041178D02*
X0308290Y0041624D01*
X0308587Y0039270D01*
X0305060Y0038824D01*
X0304763Y0041178D01*
G37*
G36*
X0298123Y0040339D02*
X0301650Y0040785D01*
X0301947Y0038431D01*
X0298420Y0037985D01*
X0298123Y0040339D01*
G37*
G36*
X0298518Y0037215D02*
X0302045Y0037661D01*
X0302342Y0035307D01*
X0298815Y0034861D01*
X0298518Y0037215D01*
G37*
G36*
X0298913Y0034090D02*
X0302440Y0034536D01*
X0302737Y0032182D01*
X0299210Y0031736D01*
X0298913Y0034090D01*
G37*
G36*
X0290499Y0033410D02*
X0294047Y0033633D01*
X0294197Y0031264D01*
X0290649Y0031041D01*
X0290499Y0033410D01*
G37*
G36*
X0290301Y0036553D02*
X0293849Y0036776D01*
X0293999Y0034407D01*
X0290451Y0034184D01*
X0290301Y0036553D01*
G37*
G36*
X0290103Y0039697D02*
X0293651Y0039920D01*
X0293801Y0037551D01*
X0290253Y0037328D01*
X0290103Y0039697D01*
G37*
G36*
X0283423Y0039276D02*
X0286971Y0039499D01*
X0287121Y0037130D01*
X0283573Y0036907D01*
X0283423Y0039276D01*
G37*
G36*
X0283621Y0036133D02*
X0287169Y0036356D01*
X0287319Y0033987D01*
X0283771Y0033764D01*
X0283621Y0036133D01*
G37*
G36*
X0283819Y0032989D02*
X0287367Y0033212D01*
X0287517Y0030843D01*
X0283969Y0030620D01*
X0283819Y0032989D01*
G37*
X0277146Y0031650D03*
X0277146Y0034800D03*
X0277146Y0037950D03*
X0270454Y0037950D03*
X0270454Y0034800D03*
X0270454Y0031650D03*
G36*
X0260233Y0033212D02*
X0263781Y0032989D01*
X0263631Y0030620D01*
X0260083Y0030843D01*
X0260233Y0033212D01*
G37*
G36*
X0260431Y0036356D02*
X0263979Y0036133D01*
X0263829Y0033764D01*
X0260281Y0033987D01*
X0260431Y0036356D01*
G37*
G36*
X0260629Y0039499D02*
X0264177Y0039276D01*
X0264027Y0036907D01*
X0260479Y0037130D01*
X0260629Y0039499D01*
G37*
G36*
X0253949Y0039920D02*
X0257497Y0039697D01*
X0257347Y0037328D01*
X0253799Y0037551D01*
X0253949Y0039920D01*
G37*
G36*
X0253751Y0036776D02*
X0257299Y0036553D01*
X0257149Y0034184D01*
X0253601Y0034407D01*
X0253751Y0036776D01*
G37*
G36*
X0253553Y0033633D02*
X0257101Y0033410D01*
X0256951Y0031041D01*
X0253403Y0031264D01*
X0253553Y0033633D01*
G37*
G36*
X0245160Y0034536D02*
X0248687Y0034090D01*
X0248390Y0031736D01*
X0244863Y0032182D01*
X0245160Y0034536D01*
G37*
G36*
X0245555Y0037661D02*
X0249082Y0037215D01*
X0248785Y0034861D01*
X0245258Y0035307D01*
X0245555Y0037661D01*
G37*
G36*
X0245950Y0040785D02*
X0249477Y0040339D01*
X0249180Y0037985D01*
X0245653Y0038431D01*
X0245950Y0040785D01*
G37*
G36*
X0239310Y0041624D02*
X0242837Y0041178D01*
X0242540Y0038824D01*
X0239013Y0039270D01*
X0239310Y0041624D01*
G37*
G36*
X0238915Y0038499D02*
X0242442Y0038053D01*
X0242145Y0035699D01*
X0238618Y0036145D01*
X0238915Y0038499D01*
G37*
G36*
X0238520Y0035375D02*
X0242047Y0034929D01*
X0241750Y0032575D01*
X0238223Y0033021D01*
X0238520Y0035375D01*
G37*
G36*
X0230193Y0036808D02*
X0233685Y0036141D01*
X0233241Y0033810D01*
X0229749Y0034477D01*
X0230193Y0036808D01*
G37*
G36*
X0230783Y0039902D02*
X0234275Y0039235D01*
X0233831Y0036904D01*
X0230339Y0037571D01*
X0230783Y0039902D01*
G37*
G36*
X0231373Y0042996D02*
X0234865Y0042329D01*
X0234421Y0039998D01*
X0230929Y0040665D01*
X0231373Y0042996D01*
G37*
G36*
X0224799Y0044250D02*
X0228291Y0043583D01*
X0227847Y0041252D01*
X0224355Y0041919D01*
X0224799Y0044250D01*
G37*
G36*
X0224209Y0041156D02*
X0227701Y0040489D01*
X0227257Y0038158D01*
X0223765Y0038825D01*
X0224209Y0041156D01*
G37*
G36*
X0223619Y0038062D02*
X0227111Y0037395D01*
X0226667Y0035064D01*
X0223175Y0035731D01*
X0223619Y0038062D01*
G37*
G36*
X0215392Y0040018D02*
X0218835Y0039134D01*
X0218244Y0036836D01*
X0214801Y0037720D01*
X0215392Y0040018D01*
G37*
G36*
X0216175Y0043069D02*
X0219618Y0042185D01*
X0219027Y0039887D01*
X0215584Y0040771D01*
X0216175Y0043069D01*
G37*
G36*
X0216959Y0046119D02*
X0220402Y0045235D01*
X0219811Y0042937D01*
X0216368Y0043821D01*
X0216959Y0046119D01*
G37*
G36*
X0210476Y0047784D02*
X0213919Y0046900D01*
X0213328Y0044602D01*
X0209885Y0045486D01*
X0210476Y0047784D01*
G37*
G36*
X0209693Y0044733D02*
X0213136Y0043849D01*
X0212545Y0041551D01*
X0209102Y0042435D01*
X0209693Y0044733D01*
G37*
G36*
X0208909Y0041683D02*
X0212352Y0040799D01*
X0211761Y0038501D01*
X0208318Y0039385D01*
X0208909Y0041683D01*
G37*
G36*
X0201799Y0047144D02*
X0205180Y0046045D01*
X0204447Y0043788D01*
X0201066Y0044887D01*
X0201799Y0047144D01*
G37*
G36*
X0202772Y0050139D02*
X0206153Y0049040D01*
X0205420Y0046783D01*
X0202039Y0047882D01*
X0202772Y0050139D01*
G37*
G36*
X0196407Y0052208D02*
X0199788Y0051109D01*
X0199055Y0048852D01*
X0195674Y0049951D01*
X0196407Y0052208D01*
G37*
G36*
X0195433Y0049212D02*
X0198814Y0048113D01*
X0198081Y0045856D01*
X0194700Y0046955D01*
X0195433Y0049212D01*
G37*
G36*
X0194460Y0046217D02*
X0197841Y0045118D01*
X0197108Y0042861D01*
X0193727Y0043960D01*
X0194460Y0046217D01*
G37*
G36*
X0186556Y0049178D02*
X0189862Y0047869D01*
X0188988Y0045662D01*
X0185682Y0046971D01*
X0186556Y0049178D01*
G37*
G36*
X0187715Y0052106D02*
X0191021Y0050797D01*
X0190147Y0048590D01*
X0186841Y0049899D01*
X0187715Y0052106D01*
G37*
G36*
X0188875Y0055035D02*
X0192181Y0053726D01*
X0191307Y0051519D01*
X0188001Y0052828D01*
X0188875Y0055035D01*
G37*
G36*
X0182652Y0057498D02*
X0185958Y0056189D01*
X0185084Y0053982D01*
X0181778Y0055291D01*
X0182652Y0057498D01*
G37*
G36*
X0181493Y0054570D02*
X0184799Y0053261D01*
X0183925Y0051054D01*
X0180619Y0052363D01*
X0181493Y0054570D01*
G37*
G36*
X0180333Y0051641D02*
X0183639Y0050332D01*
X0182765Y0048125D01*
X0179459Y0049434D01*
X0180333Y0051641D01*
G37*
G36*
X0172624Y0055106D02*
X0175841Y0053591D01*
X0174830Y0051444D01*
X0171613Y0052959D01*
X0172624Y0055106D01*
G37*
G36*
X0173965Y0057956D02*
X0177182Y0056441D01*
X0176171Y0054294D01*
X0172954Y0055809D01*
X0173965Y0057956D01*
G37*
G36*
X0175306Y0060806D02*
X0178523Y0059291D01*
X0177512Y0057144D01*
X0174295Y0058659D01*
X0175306Y0060806D01*
G37*
G36*
X0169250Y0063656D02*
X0172467Y0062141D01*
X0171456Y0059994D01*
X0168239Y0061509D01*
X0169250Y0063656D01*
G37*
G36*
X0167909Y0060806D02*
X0171126Y0059291D01*
X0170115Y0057144D01*
X0166898Y0058659D01*
X0167909Y0060806D01*
G37*
G36*
X0166568Y0057956D02*
X0169785Y0056441D01*
X0168774Y0054294D01*
X0165557Y0055809D01*
X0166568Y0057956D01*
G37*
G36*
X0159089Y0061884D02*
X0162204Y0060171D01*
X0161061Y0058092D01*
X0157946Y0059805D01*
X0159089Y0061884D01*
G37*
G36*
X0160607Y0064644D02*
X0163722Y0062931D01*
X0162579Y0060852D01*
X0159464Y0062565D01*
X0160607Y0064644D01*
G37*
G36*
X0162124Y0067404D02*
X0165239Y0065691D01*
X0164096Y0063612D01*
X0160981Y0065325D01*
X0162124Y0067404D01*
G37*
G36*
X0156259Y0070628D02*
X0159374Y0068915D01*
X0158231Y0066836D01*
X0155116Y0068549D01*
X0156259Y0070628D01*
G37*
G36*
X0154741Y0067868D02*
X0157856Y0066155D01*
X0156713Y0064076D01*
X0153598Y0065789D01*
X0154741Y0067868D01*
G37*
G36*
X0153224Y0065108D02*
X0156339Y0063395D01*
X0155196Y0061316D01*
X0152081Y0063029D01*
X0153224Y0065108D01*
G37*
G36*
X0146013Y0069512D02*
X0149015Y0067607D01*
X0147743Y0065604D01*
X0144741Y0067509D01*
X0146013Y0069512D01*
G37*
G36*
X0147701Y0072171D02*
X0150703Y0070266D01*
X0149431Y0068263D01*
X0146429Y0070168D01*
X0147701Y0072171D01*
G37*
G36*
X0149388Y0074830D02*
X0152390Y0072925D01*
X0151118Y0070922D01*
X0148116Y0072827D01*
X0149388Y0074830D01*
G37*
G36*
X0143737Y0078416D02*
X0146739Y0076511D01*
X0145467Y0074508D01*
X0142465Y0076413D01*
X0143737Y0078416D01*
G37*
G36*
X0142049Y0075757D02*
X0145051Y0073852D01*
X0143779Y0071849D01*
X0140777Y0073754D01*
X0142049Y0075757D01*
G37*
G36*
X0140362Y0073098D02*
X0143364Y0071193D01*
X0142092Y0069190D01*
X0139090Y0071095D01*
X0140362Y0073098D01*
G37*
G36*
X0133436Y0077930D02*
X0136312Y0075841D01*
X0134916Y0073920D01*
X0132040Y0076009D01*
X0133436Y0077930D01*
G37*
G36*
X0135287Y0080478D02*
X0138163Y0078389D01*
X0136767Y0076468D01*
X0133891Y0078557D01*
X0135287Y0080478D01*
G37*
G36*
X0137139Y0083026D02*
X0140015Y0080937D01*
X0138619Y0079016D01*
X0135743Y0081105D01*
X0137139Y0083026D01*
G37*
G36*
X0131724Y0086960D02*
X0134600Y0084871D01*
X0133204Y0082950D01*
X0130328Y0085039D01*
X0131724Y0086960D01*
G37*
G36*
X0129873Y0084412D02*
X0132749Y0082323D01*
X0131353Y0080402D01*
X0128477Y0082491D01*
X0129873Y0084412D01*
G37*
G36*
X0128021Y0081864D02*
X0130897Y0079775D01*
X0129501Y0077854D01*
X0126625Y0079943D01*
X0128021Y0081864D01*
G37*
G36*
X0121418Y0087137D02*
X0124157Y0084872D01*
X0122644Y0083043D01*
X0119905Y0085308D01*
X0121418Y0087137D01*
G37*
G36*
X0123425Y0089564D02*
X0126164Y0087299D01*
X0124651Y0085470D01*
X0121912Y0087735D01*
X0123425Y0089564D01*
G37*
G36*
X0125433Y0091991D02*
X0128172Y0089726D01*
X0126659Y0087897D01*
X0123920Y0090162D01*
X0125433Y0091991D01*
G37*
G36*
X0120276Y0096257D02*
X0123015Y0093992D01*
X0121502Y0092163D01*
X0118763Y0094428D01*
X0120276Y0096257D01*
G37*
G36*
X0118269Y0093830D02*
X0121008Y0091565D01*
X0119495Y0089736D01*
X0116756Y0092001D01*
X0118269Y0093830D01*
G37*
G36*
X0116261Y0091403D02*
X0119000Y0089138D01*
X0117487Y0087309D01*
X0114748Y0089574D01*
X0116261Y0091403D01*
G37*
G36*
X0109990Y0097075D02*
X0112581Y0094642D01*
X0110956Y0092911D01*
X0108365Y0095344D01*
X0109990Y0097075D01*
G37*
G36*
X0112146Y0099371D02*
X0114737Y0096938D01*
X0113112Y0095207D01*
X0110521Y0097640D01*
X0112146Y0099371D01*
G37*
G36*
X0114303Y0101667D02*
X0116894Y0099234D01*
X0115269Y0097503D01*
X0112678Y0099936D01*
X0114303Y0101667D01*
G37*
G36*
X0109424Y0106249D02*
X0112015Y0103816D01*
X0110390Y0102085D01*
X0107799Y0104518D01*
X0109424Y0106249D01*
G37*
G36*
X0107268Y0103953D02*
X0109859Y0101520D01*
X0108234Y0099789D01*
X0105643Y0102222D01*
X0107268Y0103953D01*
G37*
G36*
X0105111Y0101657D02*
X0107702Y0099224D01*
X0106077Y0097493D01*
X0103486Y0099926D01*
X0105111Y0101657D01*
G37*
G36*
X0200825Y0044148D02*
X0204206Y0043049D01*
X0203473Y0040792D01*
X0200092Y0041891D01*
X0200825Y0044148D01*
G37*
G36*
X0253132Y0176363D02*
X0256643Y0175807D01*
X0256272Y0173463D01*
X0252761Y0174019D01*
X0253132Y0176363D01*
G37*
G36*
X0253625Y0179473D02*
X0257136Y0178917D01*
X0256765Y0176573D01*
X0253254Y0177129D01*
X0253625Y0179473D01*
G37*
G36*
X0254117Y0182584D02*
X0257628Y0182028D01*
X0257257Y0179684D01*
X0253746Y0180240D01*
X0254117Y0182584D01*
G37*
G36*
X0246532Y0184739D02*
X0249913Y0183640D01*
X0249180Y0181383D01*
X0245799Y0182482D01*
X0246532Y0184739D01*
G37*
G36*
X0245559Y0181744D02*
X0248940Y0180645D01*
X0248207Y0178388D01*
X0244826Y0179487D01*
X0245559Y0181744D01*
G37*
G36*
X0244585Y0178748D02*
X0247966Y0177649D01*
X0247233Y0175392D01*
X0243852Y0176491D01*
X0244585Y0178748D01*
G37*
G36*
X0238220Y0180817D02*
X0241601Y0179718D01*
X0240868Y0177461D01*
X0237487Y0178560D01*
X0238220Y0180817D01*
G37*
G36*
X0239193Y0183812D02*
X0242574Y0182713D01*
X0241841Y0180456D01*
X0238460Y0181555D01*
X0239193Y0183812D01*
G37*
G36*
X0240167Y0186808D02*
X0243548Y0185709D01*
X0242815Y0183452D01*
X0239434Y0184551D01*
X0240167Y0186808D01*
G37*
G36*
X0232867Y0190051D02*
X0236035Y0188437D01*
X0234957Y0186323D01*
X0231789Y0187937D01*
X0232867Y0190051D01*
G37*
G36*
X0231437Y0187245D02*
X0234605Y0185631D01*
X0233527Y0183517D01*
X0230359Y0185131D01*
X0231437Y0187245D01*
G37*
G36*
X0230007Y0184438D02*
X0233175Y0182824D01*
X0232097Y0180710D01*
X0228929Y0182324D01*
X0230007Y0184438D01*
G37*
G36*
X0224043Y0187477D02*
X0227211Y0185863D01*
X0226133Y0183749D01*
X0222965Y0185363D01*
X0224043Y0187477D01*
G37*
G36*
X0225473Y0190283D02*
X0228641Y0188669D01*
X0227563Y0186555D01*
X0224395Y0188169D01*
X0225473Y0190283D01*
G37*
G36*
X0226903Y0193090D02*
X0230071Y0191476D01*
X0228993Y0189362D01*
X0225825Y0190976D01*
X0226903Y0193090D01*
G37*
G36*
X0220319Y0197486D02*
X0223195Y0195397D01*
X0221799Y0193476D01*
X0218923Y0195565D01*
X0220319Y0197486D01*
G37*
G36*
X0218467Y0194938D02*
X0221343Y0192849D01*
X0219947Y0190928D01*
X0217071Y0193017D01*
X0218467Y0194938D01*
G37*
G36*
X0216616Y0192390D02*
X0219492Y0190301D01*
X0218096Y0188380D01*
X0215220Y0190469D01*
X0216616Y0192390D01*
G37*
G36*
X0211201Y0196324D02*
X0214077Y0194235D01*
X0212681Y0192314D01*
X0209805Y0194403D01*
X0211201Y0196324D01*
G37*
G36*
X0213053Y0198872D02*
X0215929Y0196783D01*
X0214533Y0194862D01*
X0211657Y0196951D01*
X0213053Y0198872D01*
G37*
G36*
X0214904Y0201420D02*
X0217780Y0199331D01*
X0216384Y0197410D01*
X0213508Y0199499D01*
X0214904Y0201420D01*
G37*
G36*
X0209076Y0206857D02*
X0211589Y0204344D01*
X0209910Y0202665D01*
X0207397Y0205178D01*
X0209076Y0206857D01*
G37*
G36*
X0206849Y0204630D02*
X0209362Y0202117D01*
X0207683Y0200438D01*
X0205170Y0202951D01*
X0206849Y0204630D01*
G37*
G36*
X0204622Y0202403D02*
X0207135Y0199890D01*
X0205456Y0198211D01*
X0202943Y0200724D01*
X0204622Y0202403D01*
G37*
G36*
X0199890Y0207135D02*
X0202403Y0204622D01*
X0200724Y0202943D01*
X0198211Y0205456D01*
X0199890Y0207135D01*
G37*
G36*
X0202117Y0209362D02*
X0204630Y0206849D01*
X0202951Y0205170D01*
X0200438Y0207683D01*
X0202117Y0209362D01*
G37*
G36*
X0204344Y0211589D02*
X0206857Y0209076D01*
X0205178Y0207397D01*
X0202665Y0209910D01*
X0204344Y0211589D01*
G37*
G36*
X0199331Y0217780D02*
X0201420Y0214904D01*
X0199499Y0213508D01*
X0197410Y0216384D01*
X0199331Y0217780D01*
G37*
G36*
X0196783Y0215929D02*
X0198872Y0213053D01*
X0196951Y0211657D01*
X0194862Y0214533D01*
X0196783Y0215929D01*
G37*
G36*
X0194235Y0214077D02*
X0196324Y0211201D01*
X0194403Y0209805D01*
X0192314Y0212681D01*
X0194235Y0214077D01*
G37*
G36*
X0190301Y0219492D02*
X0192390Y0216616D01*
X0190469Y0215220D01*
X0188380Y0218096D01*
X0190301Y0219492D01*
G37*
G36*
X0192849Y0221343D02*
X0194938Y0218467D01*
X0193017Y0217071D01*
X0190928Y0219947D01*
X0192849Y0221343D01*
G37*
G36*
X0195397Y0223195D02*
X0197486Y0220319D01*
X0195565Y0218923D01*
X0193476Y0221799D01*
X0195397Y0223195D01*
G37*
G36*
X0191476Y0230071D02*
X0193090Y0226903D01*
X0190976Y0225825D01*
X0189362Y0228993D01*
X0191476Y0230071D01*
G37*
G36*
X0188669Y0228641D02*
X0190283Y0225473D01*
X0188169Y0224395D01*
X0186555Y0227563D01*
X0188669Y0228641D01*
G37*
G36*
X0185863Y0227211D02*
X0187477Y0224043D01*
X0185363Y0222965D01*
X0183749Y0226133D01*
X0185863Y0227211D01*
G37*
G36*
X0182824Y0233175D02*
X0184438Y0230007D01*
X0182324Y0228929D01*
X0180710Y0232097D01*
X0182824Y0233175D01*
G37*
G36*
X0185631Y0234605D02*
X0187245Y0231437D01*
X0185131Y0230359D01*
X0183517Y0233527D01*
X0185631Y0234605D01*
G37*
G36*
X0188437Y0236035D02*
X0190051Y0232867D01*
X0187937Y0231789D01*
X0186323Y0234957D01*
X0188437Y0236035D01*
G37*
G36*
X0185709Y0243548D02*
X0186808Y0240167D01*
X0184551Y0239434D01*
X0183452Y0242815D01*
X0185709Y0243548D01*
G37*
G36*
X0182713Y0242574D02*
X0183812Y0239193D01*
X0181555Y0238460D01*
X0180456Y0241841D01*
X0182713Y0242574D01*
G37*
G36*
X0179718Y0241601D02*
X0180817Y0238220D01*
X0178560Y0237487D01*
X0177461Y0240868D01*
X0179718Y0241601D01*
G37*
G36*
X0177649Y0247966D02*
X0178748Y0244585D01*
X0176491Y0243852D01*
X0175392Y0247233D01*
X0177649Y0247966D01*
G37*
G36*
X0180645Y0248940D02*
X0181744Y0245559D01*
X0179487Y0244826D01*
X0178388Y0248207D01*
X0180645Y0248940D01*
G37*
G36*
X0183640Y0249913D02*
X0184739Y0246532D01*
X0182482Y0245799D01*
X0181383Y0249180D01*
X0183640Y0249913D01*
G37*
G36*
X0182028Y0257628D02*
X0182584Y0254117D01*
X0180240Y0253746D01*
X0179684Y0257257D01*
X0182028Y0257628D01*
G37*
G36*
X0178917Y0257136D02*
X0179473Y0253625D01*
X0177129Y0253254D01*
X0176573Y0256765D01*
X0178917Y0257136D01*
G37*
G36*
X0175807Y0256643D02*
X0176363Y0253132D01*
X0174019Y0252761D01*
X0173463Y0256272D01*
X0175807Y0256643D01*
G37*
G36*
X0174760Y0263254D02*
X0175316Y0259743D01*
X0172972Y0259372D01*
X0172416Y0262883D01*
X0174760Y0263254D01*
G37*
G36*
X0177870Y0263746D02*
X0178426Y0260235D01*
X0176082Y0259864D01*
X0175526Y0263375D01*
X0177870Y0263746D01*
G37*
G36*
X0180981Y0264239D02*
X0181537Y0260728D01*
X0179193Y0260357D01*
X0178637Y0263868D01*
X0180981Y0264239D01*
G37*
X0172954Y0273800D03*
G36*
X0175316Y0287857D02*
X0174760Y0284346D01*
X0172416Y0284717D01*
X0172972Y0288228D01*
X0175316Y0287857D01*
G37*
G36*
X0178426Y0287365D02*
X0177870Y0283854D01*
X0175526Y0284225D01*
X0176082Y0287736D01*
X0178426Y0287365D01*
G37*
G36*
X0181537Y0286872D02*
X0180981Y0283361D01*
X0178637Y0283732D01*
X0179193Y0287243D01*
X0181537Y0286872D01*
G37*
G36*
X0182584Y0293483D02*
X0182028Y0289972D01*
X0179684Y0290343D01*
X0180240Y0293854D01*
X0182584Y0293483D01*
G37*
G36*
X0179473Y0293975D02*
X0178917Y0290464D01*
X0176573Y0290835D01*
X0177129Y0294346D01*
X0179473Y0293975D01*
G37*
G36*
X0176363Y0294468D02*
X0175807Y0290957D01*
X0173463Y0291328D01*
X0174019Y0294839D01*
X0176363Y0294468D01*
G37*
G36*
X0181744Y0302041D02*
X0180645Y0298660D01*
X0178388Y0299393D01*
X0179487Y0302774D01*
X0181744Y0302041D01*
G37*
G36*
X0184739Y0301068D02*
X0183640Y0297687D01*
X0181383Y0298420D01*
X0182482Y0301801D01*
X0184739Y0301068D01*
G37*
G36*
X0186808Y0307433D02*
X0185709Y0304052D01*
X0183452Y0304785D01*
X0184551Y0308166D01*
X0186808Y0307433D01*
G37*
G36*
X0183812Y0308407D02*
X0182713Y0305026D01*
X0180456Y0305759D01*
X0181555Y0309140D01*
X0183812Y0308407D01*
G37*
G36*
X0180817Y0309380D02*
X0179718Y0305999D01*
X0177461Y0306732D01*
X0178560Y0310113D01*
X0180817Y0309380D01*
G37*
G36*
X0187245Y0316163D02*
X0185631Y0312995D01*
X0183517Y0314073D01*
X0185131Y0317241D01*
X0187245Y0316163D01*
G37*
G36*
X0190051Y0314733D02*
X0188437Y0311565D01*
X0186323Y0312643D01*
X0187937Y0315811D01*
X0190051Y0314733D01*
G37*
G36*
X0193090Y0320697D02*
X0191476Y0317529D01*
X0189362Y0318607D01*
X0190976Y0321775D01*
X0193090Y0320697D01*
G37*
G36*
X0190283Y0322127D02*
X0188669Y0318959D01*
X0186555Y0320037D01*
X0188169Y0323205D01*
X0190283Y0322127D01*
G37*
G36*
X0187477Y0323557D02*
X0185863Y0320389D01*
X0183749Y0321467D01*
X0185363Y0324635D01*
X0187477Y0323557D01*
G37*
G36*
X0194938Y0329133D02*
X0192849Y0326257D01*
X0190928Y0327653D01*
X0193017Y0330529D01*
X0194938Y0329133D01*
G37*
G36*
X0197486Y0327281D02*
X0195397Y0324405D01*
X0193476Y0325801D01*
X0195565Y0328677D01*
X0197486Y0327281D01*
G37*
G36*
X0201420Y0332696D02*
X0199331Y0329820D01*
X0197410Y0331216D01*
X0199499Y0334092D01*
X0201420Y0332696D01*
G37*
G36*
X0198872Y0334547D02*
X0196783Y0331671D01*
X0194862Y0333067D01*
X0196951Y0335943D01*
X0198872Y0334547D01*
G37*
G36*
X0196324Y0336399D02*
X0194235Y0333523D01*
X0192314Y0334919D01*
X0194403Y0337795D01*
X0196324Y0336399D01*
G37*
G36*
X0202403Y0342978D02*
X0199890Y0340465D01*
X0198211Y0342144D01*
X0200724Y0344657D01*
X0202403Y0342978D01*
G37*
G36*
X0204630Y0340751D02*
X0202117Y0338238D01*
X0200438Y0339917D01*
X0202951Y0342430D01*
X0204630Y0340751D01*
G37*
G36*
X0206857Y0338524D02*
X0204344Y0336011D01*
X0202665Y0337690D01*
X0205178Y0340203D01*
X0206857Y0338524D01*
G37*
G36*
X0211589Y0343256D02*
X0209076Y0340743D01*
X0207397Y0342422D01*
X0209910Y0344935D01*
X0211589Y0343256D01*
G37*
G36*
X0209362Y0345483D02*
X0206849Y0342970D01*
X0205170Y0344649D01*
X0207683Y0347162D01*
X0209362Y0345483D01*
G37*
G36*
X0207135Y0347710D02*
X0204622Y0345197D01*
X0202943Y0346876D01*
X0205456Y0349389D01*
X0207135Y0347710D01*
G37*
G36*
X0214077Y0353365D02*
X0211201Y0351276D01*
X0209805Y0353197D01*
X0212681Y0355286D01*
X0214077Y0353365D01*
G37*
G36*
X0215929Y0350817D02*
X0213053Y0348728D01*
X0211657Y0350649D01*
X0214533Y0352738D01*
X0215929Y0350817D01*
G37*
G36*
X0217780Y0348269D02*
X0214904Y0346180D01*
X0213508Y0348101D01*
X0216384Y0350190D01*
X0217780Y0348269D01*
G37*
G36*
X0223195Y0352203D02*
X0220319Y0350114D01*
X0218923Y0352035D01*
X0221799Y0354124D01*
X0223195Y0352203D01*
G37*
G36*
X0221343Y0354751D02*
X0218467Y0352662D01*
X0217071Y0354583D01*
X0219947Y0356672D01*
X0221343Y0354751D01*
G37*
G36*
X0219492Y0357299D02*
X0216616Y0355210D01*
X0215220Y0357131D01*
X0218096Y0359220D01*
X0219492Y0357299D01*
G37*
G36*
X0228641Y0358931D02*
X0225473Y0357317D01*
X0224395Y0359431D01*
X0227563Y0361045D01*
X0228641Y0358931D01*
G37*
G36*
X0230071Y0356124D02*
X0226903Y0354510D01*
X0225825Y0356624D01*
X0228993Y0358238D01*
X0230071Y0356124D01*
G37*
G36*
X0236035Y0359163D02*
X0232867Y0357549D01*
X0231789Y0359663D01*
X0234957Y0361277D01*
X0236035Y0359163D01*
G37*
G36*
X0234605Y0361969D02*
X0231437Y0360355D01*
X0230359Y0362469D01*
X0233527Y0364083D01*
X0234605Y0361969D01*
G37*
G36*
X0233175Y0364776D02*
X0230007Y0363162D01*
X0228929Y0365276D01*
X0232097Y0366890D01*
X0233175Y0364776D01*
G37*
G36*
X0241601Y0367882D02*
X0238220Y0366783D01*
X0237487Y0369040D01*
X0240868Y0370139D01*
X0241601Y0367882D01*
G37*
G36*
X0242574Y0364887D02*
X0239193Y0363788D01*
X0238460Y0366045D01*
X0241841Y0367144D01*
X0242574Y0364887D01*
G37*
G36*
X0243548Y0361891D02*
X0240167Y0360792D01*
X0239434Y0363049D01*
X0242815Y0364148D01*
X0243548Y0361891D01*
G37*
G36*
X0249913Y0363960D02*
X0246532Y0362861D01*
X0245799Y0365118D01*
X0249180Y0366217D01*
X0249913Y0363960D01*
G37*
G36*
X0248940Y0366955D02*
X0245559Y0365856D01*
X0244826Y0368113D01*
X0248207Y0369212D01*
X0248940Y0366955D01*
G37*
G36*
X0247966Y0369951D02*
X0244585Y0368852D01*
X0243852Y0371109D01*
X0247233Y0372208D01*
X0247966Y0369951D01*
G37*
G36*
X0257136Y0368682D02*
X0253625Y0368126D01*
X0253254Y0370470D01*
X0256765Y0371026D01*
X0257136Y0368682D01*
G37*
G36*
X0257628Y0365572D02*
X0254117Y0365016D01*
X0253746Y0367360D01*
X0257257Y0367916D01*
X0257628Y0365572D01*
G37*
G36*
X0264239Y0366619D02*
X0260728Y0366063D01*
X0260357Y0368407D01*
X0263868Y0368963D01*
X0264239Y0366619D01*
G37*
G36*
X0263746Y0369729D02*
X0260235Y0369173D01*
X0259864Y0371517D01*
X0263375Y0372073D01*
X0263746Y0369729D01*
G37*
G36*
X0263254Y0372840D02*
X0259743Y0372284D01*
X0259372Y0374628D01*
X0262883Y0375184D01*
X0263254Y0372840D01*
G37*
X0270454Y0371300D03*
X0270454Y0368150D03*
X0270454Y0374450D03*
X0277146Y0374450D03*
X0277146Y0371300D03*
X0277146Y0368150D03*
G36*
X0286872Y0366063D02*
X0283361Y0366619D01*
X0283732Y0368963D01*
X0287243Y0368407D01*
X0286872Y0366063D01*
G37*
G36*
X0287365Y0369173D02*
X0283854Y0369729D01*
X0284225Y0372073D01*
X0287736Y0371517D01*
X0287365Y0369173D01*
G37*
G36*
X0287857Y0372284D02*
X0284346Y0372840D01*
X0284717Y0375184D01*
X0288228Y0374628D01*
X0287857Y0372284D01*
G37*
G36*
X0294468Y0371237D02*
X0290957Y0371793D01*
X0291328Y0374137D01*
X0294839Y0373581D01*
X0294468Y0371237D01*
G37*
G36*
X0293975Y0368126D02*
X0290464Y0368682D01*
X0290835Y0371026D01*
X0294346Y0370470D01*
X0293975Y0368126D01*
G37*
G36*
X0293483Y0365016D02*
X0289972Y0365572D01*
X0290343Y0367916D01*
X0293854Y0367360D01*
X0293483Y0365016D01*
G37*
G36*
X0301068Y0362861D02*
X0297687Y0363960D01*
X0298420Y0366217D01*
X0301801Y0365118D01*
X0301068Y0362861D01*
G37*
G36*
X0302041Y0365856D02*
X0298660Y0366955D01*
X0299393Y0369212D01*
X0302774Y0368113D01*
X0302041Y0365856D01*
G37*
G36*
X0303015Y0368852D02*
X0299634Y0369951D01*
X0300367Y0372208D01*
X0303748Y0371109D01*
X0303015Y0368852D01*
G37*
G36*
X0309380Y0366783D02*
X0305999Y0367882D01*
X0306732Y0370139D01*
X0310113Y0369040D01*
X0309380Y0366783D01*
G37*
G36*
X0308407Y0363788D02*
X0305026Y0364887D01*
X0305759Y0367144D01*
X0309140Y0366045D01*
X0308407Y0363788D01*
G37*
G36*
X0307433Y0360792D02*
X0304052Y0361891D01*
X0304785Y0364148D01*
X0308166Y0363049D01*
X0307433Y0360792D01*
G37*
G36*
X0314733Y0357549D02*
X0311565Y0359163D01*
X0312643Y0361277D01*
X0315811Y0359663D01*
X0314733Y0357549D01*
G37*
G36*
X0316163Y0360355D02*
X0312995Y0361969D01*
X0314073Y0364083D01*
X0317241Y0362469D01*
X0316163Y0360355D01*
G37*
G36*
X0317593Y0363162D02*
X0314425Y0364776D01*
X0315503Y0366890D01*
X0318671Y0365276D01*
X0317593Y0363162D01*
G37*
G36*
X0323557Y0360123D02*
X0320389Y0361737D01*
X0321467Y0363851D01*
X0324635Y0362237D01*
X0323557Y0360123D01*
G37*
G36*
X0322127Y0357317D02*
X0318959Y0358931D01*
X0320037Y0361045D01*
X0323205Y0359431D01*
X0322127Y0357317D01*
G37*
G36*
X0320697Y0354510D02*
X0317529Y0356124D01*
X0318607Y0358238D01*
X0321775Y0356624D01*
X0320697Y0354510D01*
G37*
G36*
X0327281Y0350114D02*
X0324405Y0352203D01*
X0325801Y0354124D01*
X0328677Y0352035D01*
X0327281Y0350114D01*
G37*
G36*
X0329133Y0352662D02*
X0326257Y0354751D01*
X0327653Y0356672D01*
X0330529Y0354583D01*
X0329133Y0352662D01*
G37*
G36*
X0330984Y0355210D02*
X0328108Y0357299D01*
X0329504Y0359220D01*
X0332380Y0357131D01*
X0330984Y0355210D01*
G37*
G36*
X0336399Y0351276D02*
X0333523Y0353365D01*
X0334919Y0355286D01*
X0337795Y0353197D01*
X0336399Y0351276D01*
G37*
G36*
X0334547Y0348728D02*
X0331671Y0350817D01*
X0333067Y0352738D01*
X0335943Y0350649D01*
X0334547Y0348728D01*
G37*
G36*
X0332696Y0346180D02*
X0329820Y0348269D01*
X0331216Y0350190D01*
X0334092Y0348101D01*
X0332696Y0346180D01*
G37*
G36*
X0338524Y0340743D02*
X0336011Y0343256D01*
X0337690Y0344935D01*
X0340203Y0342422D01*
X0338524Y0340743D01*
G37*
G36*
X0340751Y0342970D02*
X0338238Y0345483D01*
X0339917Y0347162D01*
X0342430Y0344649D01*
X0340751Y0342970D01*
G37*
G36*
X0342978Y0345197D02*
X0340465Y0347710D01*
X0342144Y0349389D01*
X0344657Y0346876D01*
X0342978Y0345197D01*
G37*
G36*
X0347710Y0340465D02*
X0345197Y0342978D01*
X0346876Y0344657D01*
X0349389Y0342144D01*
X0347710Y0340465D01*
G37*
G36*
X0345483Y0338238D02*
X0342970Y0340751D01*
X0344649Y0342430D01*
X0347162Y0339917D01*
X0345483Y0338238D01*
G37*
G36*
X0343256Y0336011D02*
X0340743Y0338524D01*
X0342422Y0340203D01*
X0344935Y0337690D01*
X0343256Y0336011D01*
G37*
G36*
X0348269Y0329820D02*
X0346180Y0332696D01*
X0348101Y0334092D01*
X0350190Y0331216D01*
X0348269Y0329820D01*
G37*
G36*
X0350817Y0331671D02*
X0348728Y0334547D01*
X0350649Y0335943D01*
X0352738Y0333067D01*
X0350817Y0331671D01*
G37*
G36*
X0353365Y0333523D02*
X0351276Y0336399D01*
X0353197Y0337795D01*
X0355286Y0334919D01*
X0353365Y0333523D01*
G37*
G36*
X0357299Y0328108D02*
X0355210Y0330984D01*
X0357131Y0332380D01*
X0359220Y0329504D01*
X0357299Y0328108D01*
G37*
G36*
X0354751Y0326257D02*
X0352662Y0329133D01*
X0354583Y0330529D01*
X0356672Y0327653D01*
X0354751Y0326257D01*
G37*
G36*
X0352203Y0324405D02*
X0350114Y0327281D01*
X0352035Y0328677D01*
X0354124Y0325801D01*
X0352203Y0324405D01*
G37*
G36*
X0356124Y0317529D02*
X0354510Y0320697D01*
X0356624Y0321775D01*
X0358238Y0318607D01*
X0356124Y0317529D01*
G37*
G36*
X0358931Y0318959D02*
X0357317Y0322127D01*
X0359431Y0323205D01*
X0361045Y0320037D01*
X0358931Y0318959D01*
G37*
G36*
X0361737Y0320389D02*
X0360123Y0323557D01*
X0362237Y0324635D01*
X0363851Y0321467D01*
X0361737Y0320389D01*
G37*
G36*
X0364776Y0314425D02*
X0363162Y0317593D01*
X0365276Y0318671D01*
X0366890Y0315503D01*
X0364776Y0314425D01*
G37*
G36*
X0361969Y0312995D02*
X0360355Y0316163D01*
X0362469Y0317241D01*
X0364083Y0314073D01*
X0361969Y0312995D01*
G37*
G36*
X0359163Y0311565D02*
X0357549Y0314733D01*
X0359663Y0315811D01*
X0361277Y0312643D01*
X0359163Y0311565D01*
G37*
G36*
X0361891Y0304052D02*
X0360792Y0307433D01*
X0363049Y0308166D01*
X0364148Y0304785D01*
X0361891Y0304052D01*
G37*
G36*
X0364887Y0305026D02*
X0363788Y0308407D01*
X0366045Y0309140D01*
X0367144Y0305759D01*
X0364887Y0305026D01*
G37*
G36*
X0367882Y0305999D02*
X0366783Y0309380D01*
X0369040Y0310113D01*
X0370139Y0306732D01*
X0367882Y0305999D01*
G37*
G36*
X0369951Y0299634D02*
X0368852Y0303015D01*
X0371109Y0303748D01*
X0372208Y0300367D01*
X0369951Y0299634D01*
G37*
G36*
X0366955Y0298660D02*
X0365856Y0302041D01*
X0368113Y0302774D01*
X0369212Y0299393D01*
X0366955Y0298660D01*
G37*
G36*
X0363960Y0297687D02*
X0362861Y0301068D01*
X0365118Y0301801D01*
X0366217Y0298420D01*
X0363960Y0297687D01*
G37*
G36*
X0365572Y0289972D02*
X0365016Y0293483D01*
X0367360Y0293854D01*
X0367916Y0290343D01*
X0365572Y0289972D01*
G37*
G36*
X0368682Y0290464D02*
X0368126Y0293975D01*
X0370470Y0294346D01*
X0371026Y0290835D01*
X0368682Y0290464D01*
G37*
G36*
X0371793Y0290957D02*
X0371237Y0294468D01*
X0373581Y0294839D01*
X0374137Y0291328D01*
X0371793Y0290957D01*
G37*
G36*
X0372840Y0284346D02*
X0372284Y0287857D01*
X0374628Y0288228D01*
X0375184Y0284717D01*
X0372840Y0284346D01*
G37*
G36*
X0369729Y0283854D02*
X0369173Y0287365D01*
X0371517Y0287736D01*
X0372073Y0284225D01*
X0369729Y0283854D01*
G37*
G36*
X0366619Y0283361D02*
X0366063Y0286872D01*
X0368407Y0287243D01*
X0368963Y0283732D01*
X0366619Y0283361D01*
G37*
X0374646Y0273800D03*
G36*
X0372284Y0259743D02*
X0372840Y0263254D01*
X0375184Y0262883D01*
X0374628Y0259372D01*
X0372284Y0259743D01*
G37*
G36*
X0369173Y0260235D02*
X0369729Y0263746D01*
X0372073Y0263375D01*
X0371517Y0259864D01*
X0369173Y0260235D01*
G37*
G36*
X0366063Y0260728D02*
X0366619Y0264239D01*
X0368963Y0263868D01*
X0368407Y0260357D01*
X0366063Y0260728D01*
G37*
G36*
X0365016Y0254117D02*
X0365572Y0257628D01*
X0367916Y0257257D01*
X0367360Y0253746D01*
X0365016Y0254117D01*
G37*
G36*
X0368126Y0253625D02*
X0368682Y0257136D01*
X0371026Y0256765D01*
X0370470Y0253254D01*
X0368126Y0253625D01*
G37*
G36*
X0371237Y0253132D02*
X0371793Y0256643D01*
X0374137Y0256272D01*
X0373581Y0252761D01*
X0371237Y0253132D01*
G37*
G36*
X0365856Y0245559D02*
X0366955Y0248940D01*
X0369212Y0248207D01*
X0368113Y0244826D01*
X0365856Y0245559D01*
G37*
G36*
X0362861Y0246532D02*
X0363960Y0249913D01*
X0366217Y0249180D01*
X0365118Y0245799D01*
X0362861Y0246532D01*
G37*
G36*
X0360792Y0240167D02*
X0361891Y0243548D01*
X0364148Y0242815D01*
X0363049Y0239434D01*
X0360792Y0240167D01*
G37*
G36*
X0363788Y0239193D02*
X0364887Y0242574D01*
X0367144Y0241841D01*
X0366045Y0238460D01*
X0363788Y0239193D01*
G37*
G36*
X0366783Y0238220D02*
X0367882Y0241601D01*
X0370139Y0240868D01*
X0369040Y0237487D01*
X0366783Y0238220D01*
G37*
G36*
X0360355Y0231437D02*
X0361969Y0234605D01*
X0364083Y0233527D01*
X0362469Y0230359D01*
X0360355Y0231437D01*
G37*
G36*
X0357549Y0232867D02*
X0359163Y0236035D01*
X0361277Y0234957D01*
X0359663Y0231789D01*
X0357549Y0232867D01*
G37*
G36*
X0354510Y0226903D02*
X0356124Y0230071D01*
X0358238Y0228993D01*
X0356624Y0225825D01*
X0354510Y0226903D01*
G37*
G36*
X0357317Y0225473D02*
X0358931Y0228641D01*
X0361045Y0227563D01*
X0359431Y0224395D01*
X0357317Y0225473D01*
G37*
G36*
X0360123Y0224043D02*
X0361737Y0227211D01*
X0363851Y0226133D01*
X0362237Y0222965D01*
X0360123Y0224043D01*
G37*
G36*
X0352662Y0218467D02*
X0354751Y0221343D01*
X0356672Y0219947D01*
X0354583Y0217071D01*
X0352662Y0218467D01*
G37*
G36*
X0350114Y0220319D02*
X0352203Y0223195D01*
X0354124Y0221799D01*
X0352035Y0218923D01*
X0350114Y0220319D01*
G37*
G36*
X0346180Y0214904D02*
X0348269Y0217780D01*
X0350190Y0216384D01*
X0348101Y0213508D01*
X0346180Y0214904D01*
G37*
G36*
X0348728Y0213053D02*
X0350817Y0215929D01*
X0352738Y0214533D01*
X0350649Y0211657D01*
X0348728Y0213053D01*
G37*
G36*
X0351276Y0211201D02*
X0353365Y0214077D01*
X0355286Y0212681D01*
X0353197Y0209805D01*
X0351276Y0211201D01*
G37*
G36*
X0345197Y0204622D02*
X0347710Y0207135D01*
X0349389Y0205456D01*
X0346876Y0202943D01*
X0345197Y0204622D01*
G37*
G36*
X0342970Y0206849D02*
X0345483Y0209362D01*
X0347162Y0207683D01*
X0344649Y0205170D01*
X0342970Y0206849D01*
G37*
G36*
X0340743Y0209076D02*
X0343256Y0211589D01*
X0344935Y0209910D01*
X0342422Y0207397D01*
X0340743Y0209076D01*
G37*
G36*
X0336011Y0204344D02*
X0338524Y0206857D01*
X0340203Y0205178D01*
X0337690Y0202665D01*
X0336011Y0204344D01*
G37*
G36*
X0338238Y0202117D02*
X0340751Y0204630D01*
X0342430Y0202951D01*
X0339917Y0200438D01*
X0338238Y0202117D01*
G37*
G36*
X0340465Y0199890D02*
X0342978Y0202403D01*
X0344657Y0200724D01*
X0342144Y0198211D01*
X0340465Y0199890D01*
G37*
G36*
X0333523Y0194235D02*
X0336399Y0196324D01*
X0337795Y0194403D01*
X0334919Y0192314D01*
X0333523Y0194235D01*
G37*
G36*
X0331671Y0196783D02*
X0334547Y0198872D01*
X0335943Y0196951D01*
X0333067Y0194862D01*
X0331671Y0196783D01*
G37*
G36*
X0329820Y0199331D02*
X0332696Y0201420D01*
X0334092Y0199499D01*
X0331216Y0197410D01*
X0329820Y0199331D01*
G37*
G36*
X0324405Y0195397D02*
X0327281Y0197486D01*
X0328677Y0195565D01*
X0325801Y0193476D01*
X0324405Y0195397D01*
G37*
G36*
X0326257Y0192849D02*
X0329133Y0194938D01*
X0330529Y0193017D01*
X0327653Y0190928D01*
X0326257Y0192849D01*
G37*
G36*
X0328108Y0190301D02*
X0330984Y0192390D01*
X0332380Y0190469D01*
X0329504Y0188380D01*
X0328108Y0190301D01*
G37*
G36*
X0318959Y0188669D02*
X0322127Y0190283D01*
X0323205Y0188169D01*
X0320037Y0186555D01*
X0318959Y0188669D01*
G37*
G36*
X0317529Y0191476D02*
X0320697Y0193090D01*
X0321775Y0190976D01*
X0318607Y0189362D01*
X0317529Y0191476D01*
G37*
G36*
X0311565Y0188437D02*
X0314733Y0190051D01*
X0315811Y0187937D01*
X0312643Y0186323D01*
X0311565Y0188437D01*
G37*
G36*
X0312995Y0185631D02*
X0316163Y0187245D01*
X0317241Y0185131D01*
X0314073Y0183517D01*
X0312995Y0185631D01*
G37*
G36*
X0314425Y0182824D02*
X0317593Y0184438D01*
X0318671Y0182324D01*
X0315503Y0180710D01*
X0314425Y0182824D01*
G37*
G36*
X0305999Y0179718D02*
X0309380Y0180817D01*
X0310113Y0178560D01*
X0306732Y0177461D01*
X0305999Y0179718D01*
G37*
G36*
X0305026Y0182713D02*
X0308407Y0183812D01*
X0309140Y0181555D01*
X0305759Y0180456D01*
X0305026Y0182713D01*
G37*
G36*
X0304052Y0185709D02*
X0307433Y0186808D01*
X0308166Y0184551D01*
X0304785Y0183452D01*
X0304052Y0185709D01*
G37*
G36*
X0297687Y0183640D02*
X0301068Y0184739D01*
X0301801Y0182482D01*
X0298420Y0181383D01*
X0297687Y0183640D01*
G37*
G36*
X0298660Y0180645D02*
X0302041Y0181744D01*
X0302774Y0179487D01*
X0299393Y0178388D01*
X0298660Y0180645D01*
G37*
G36*
X0299634Y0177649D02*
X0303015Y0178748D01*
X0303748Y0176491D01*
X0300367Y0175392D01*
X0299634Y0177649D01*
G37*
G36*
X0290464Y0178917D02*
X0293975Y0179473D01*
X0294346Y0177129D01*
X0290835Y0176573D01*
X0290464Y0178917D01*
G37*
G36*
X0289972Y0182028D02*
X0293483Y0182584D01*
X0293854Y0180240D01*
X0290343Y0179684D01*
X0289972Y0182028D01*
G37*
G36*
X0283361Y0180981D02*
X0286872Y0181537D01*
X0287243Y0179193D01*
X0283732Y0178637D01*
X0283361Y0180981D01*
G37*
G36*
X0283854Y0177870D02*
X0287365Y0178426D01*
X0287736Y0176082D01*
X0284225Y0175526D01*
X0283854Y0177870D01*
G37*
G36*
X0284346Y0174760D02*
X0287857Y0175316D01*
X0288228Y0172972D01*
X0284717Y0172416D01*
X0284346Y0174760D01*
G37*
X0277146Y0176300D03*
X0277146Y0179450D03*
X0277146Y0173150D03*
X0270454Y0173150D03*
X0270454Y0176300D03*
X0270454Y0179450D03*
G36*
X0260728Y0181537D02*
X0264239Y0180981D01*
X0263868Y0178637D01*
X0260357Y0179193D01*
X0260728Y0181537D01*
G37*
G36*
X0260235Y0178426D02*
X0263746Y0177870D01*
X0263375Y0175526D01*
X0259864Y0176082D01*
X0260235Y0178426D01*
G37*
G36*
X0259743Y0175316D02*
X0263254Y0174760D01*
X0262883Y0172416D01*
X0259372Y0172972D01*
X0259743Y0175316D01*
G37*
G36*
X0290957Y0175807D02*
X0294468Y0176363D01*
X0294839Y0174019D01*
X0291328Y0173463D01*
X0290957Y0175807D01*
G37*
G36*
X0320389Y0185863D02*
X0323557Y0187477D01*
X0324635Y0185363D01*
X0321467Y0183749D01*
X0320389Y0185863D01*
G37*
G36*
X0355210Y0216616D02*
X0357299Y0219492D01*
X0359220Y0218096D01*
X0357131Y0215220D01*
X0355210Y0216616D01*
G37*
G36*
X0363162Y0230007D02*
X0364776Y0233175D01*
X0366890Y0232097D01*
X0365276Y0228929D01*
X0363162Y0230007D01*
G37*
G36*
X0368852Y0244585D02*
X0369951Y0247966D01*
X0372208Y0247233D01*
X0371109Y0243852D01*
X0368852Y0244585D01*
G37*
X0324646Y0273800D03*
G36*
X0319455Y0283260D02*
X0318356Y0286641D01*
X0320613Y0287374D01*
X0321712Y0283993D01*
X0319455Y0283260D01*
G37*
G36*
X0316460Y0282287D02*
X0315361Y0285668D01*
X0317618Y0286401D01*
X0318717Y0283020D01*
X0316460Y0282287D01*
G37*
G36*
X0322451Y0284234D02*
X0321352Y0287615D01*
X0323609Y0288348D01*
X0324708Y0284967D01*
X0322451Y0284234D01*
G37*
G36*
X0320382Y0290599D02*
X0319283Y0293980D01*
X0321540Y0294713D01*
X0322639Y0291332D01*
X0320382Y0290599D01*
G37*
G36*
X0317387Y0289626D02*
X0316288Y0293007D01*
X0318545Y0293740D01*
X0319644Y0290359D01*
X0317387Y0289626D01*
G37*
G36*
X0314391Y0288652D02*
X0313292Y0292033D01*
X0315549Y0292766D01*
X0316648Y0289385D01*
X0314391Y0288652D01*
G37*
G36*
X0311703Y0295005D02*
X0309614Y0297881D01*
X0311535Y0299277D01*
X0313624Y0296401D01*
X0311703Y0295005D01*
G37*
G36*
X0314251Y0296857D02*
X0312162Y0299733D01*
X0314083Y0301129D01*
X0316172Y0298253D01*
X0314251Y0296857D01*
G37*
G36*
X0316799Y0298708D02*
X0314710Y0301584D01*
X0316631Y0302980D01*
X0318720Y0300104D01*
X0316799Y0298708D01*
G37*
G36*
X0312865Y0304123D02*
X0310776Y0306999D01*
X0312697Y0308395D01*
X0314786Y0305519D01*
X0312865Y0304123D01*
G37*
G36*
X0310317Y0302271D02*
X0308228Y0305147D01*
X0310149Y0306543D01*
X0312238Y0303667D01*
X0310317Y0302271D01*
G37*
G36*
X0307769Y0300420D02*
X0305680Y0303296D01*
X0307601Y0304692D01*
X0309690Y0301816D01*
X0307769Y0300420D01*
G37*
G36*
X0303296Y0305680D02*
X0300420Y0307769D01*
X0301816Y0309690D01*
X0304692Y0307601D01*
X0303296Y0305680D01*
G37*
G36*
X0305147Y0308228D02*
X0302271Y0310317D01*
X0303667Y0312238D01*
X0306543Y0310149D01*
X0305147Y0308228D01*
G37*
G36*
X0306999Y0310776D02*
X0304123Y0312865D01*
X0305519Y0314786D01*
X0308395Y0312697D01*
X0306999Y0310776D01*
G37*
G36*
X0301584Y0314710D02*
X0298708Y0316799D01*
X0300104Y0318720D01*
X0302980Y0316631D01*
X0301584Y0314710D01*
G37*
G36*
X0299733Y0312162D02*
X0296857Y0314251D01*
X0298253Y0316172D01*
X0301129Y0314083D01*
X0299733Y0312162D01*
G37*
G36*
X0297881Y0309614D02*
X0295005Y0311703D01*
X0296401Y0313624D01*
X0299277Y0311535D01*
X0297881Y0309614D01*
G37*
G36*
X0292033Y0313292D02*
X0288652Y0314391D01*
X0289385Y0316648D01*
X0292766Y0315549D01*
X0292033Y0313292D01*
G37*
G36*
X0293007Y0316288D02*
X0289626Y0317387D01*
X0290359Y0319644D01*
X0293740Y0318545D01*
X0293007Y0316288D01*
G37*
G36*
X0293980Y0319283D02*
X0290599Y0320382D01*
X0291332Y0322639D01*
X0294713Y0321540D01*
X0293980Y0319283D01*
G37*
G36*
X0287615Y0321352D02*
X0284234Y0322451D01*
X0284967Y0324708D01*
X0288348Y0323609D01*
X0287615Y0321352D01*
G37*
G36*
X0286641Y0318356D02*
X0283260Y0319455D01*
X0283993Y0321712D01*
X0287374Y0320613D01*
X0286641Y0318356D01*
G37*
G36*
X0285668Y0315361D02*
X0282287Y0316460D01*
X0283020Y0318717D01*
X0286401Y0317618D01*
X0285668Y0315361D01*
G37*
X0277146Y0318150D03*
X0277146Y0321300D03*
X0277146Y0324450D03*
X0270454Y0324450D03*
X0270454Y0321300D03*
X0270454Y0318150D03*
G36*
X0265313Y0316460D02*
X0261932Y0315361D01*
X0261199Y0317618D01*
X0264580Y0318717D01*
X0265313Y0316460D01*
G37*
G36*
X0264340Y0319455D02*
X0260959Y0318356D01*
X0260226Y0320613D01*
X0263607Y0321712D01*
X0264340Y0319455D01*
G37*
G36*
X0263366Y0322451D02*
X0259985Y0321352D01*
X0259252Y0323609D01*
X0262633Y0324708D01*
X0263366Y0322451D01*
G37*
G36*
X0257001Y0320382D02*
X0253620Y0319283D01*
X0252887Y0321540D01*
X0256268Y0322639D01*
X0257001Y0320382D01*
G37*
G36*
X0257974Y0317387D02*
X0254593Y0316288D01*
X0253860Y0318545D01*
X0257241Y0319644D01*
X0257974Y0317387D01*
G37*
G36*
X0258948Y0314391D02*
X0255567Y0313292D01*
X0254834Y0315549D01*
X0258215Y0316648D01*
X0258948Y0314391D01*
G37*
G36*
X0252595Y0311703D02*
X0249719Y0309614D01*
X0248323Y0311535D01*
X0251199Y0313624D01*
X0252595Y0311703D01*
G37*
G36*
X0250743Y0314251D02*
X0247867Y0312162D01*
X0246471Y0314083D01*
X0249347Y0316172D01*
X0250743Y0314251D01*
G37*
G36*
X0248892Y0316799D02*
X0246016Y0314710D01*
X0244620Y0316631D01*
X0247496Y0318720D01*
X0248892Y0316799D01*
G37*
G36*
X0243477Y0312865D02*
X0240601Y0310776D01*
X0239205Y0312697D01*
X0242081Y0314786D01*
X0243477Y0312865D01*
G37*
G36*
X0245329Y0310317D02*
X0242453Y0308228D01*
X0241057Y0310149D01*
X0243933Y0312238D01*
X0245329Y0310317D01*
G37*
G36*
X0247180Y0307769D02*
X0244304Y0305680D01*
X0242908Y0307601D01*
X0245784Y0309690D01*
X0247180Y0307769D01*
G37*
G36*
X0241920Y0303296D02*
X0239831Y0300420D01*
X0237910Y0301816D01*
X0239999Y0304692D01*
X0241920Y0303296D01*
G37*
G36*
X0239372Y0305147D02*
X0237283Y0302271D01*
X0235362Y0303667D01*
X0237451Y0306543D01*
X0239372Y0305147D01*
G37*
G36*
X0236824Y0306999D02*
X0234735Y0304123D01*
X0232814Y0305519D01*
X0234903Y0308395D01*
X0236824Y0306999D01*
G37*
G36*
X0232890Y0301584D02*
X0230801Y0298708D01*
X0228880Y0300104D01*
X0230969Y0302980D01*
X0232890Y0301584D01*
G37*
G36*
X0235438Y0299733D02*
X0233349Y0296857D01*
X0231428Y0298253D01*
X0233517Y0301129D01*
X0235438Y0299733D01*
G37*
G36*
X0237986Y0297881D02*
X0235897Y0295005D01*
X0233976Y0296401D01*
X0236065Y0299277D01*
X0237986Y0297881D01*
G37*
G36*
X0234308Y0292033D02*
X0233209Y0288652D01*
X0230952Y0289385D01*
X0232051Y0292766D01*
X0234308Y0292033D01*
G37*
G36*
X0231312Y0293007D02*
X0230213Y0289626D01*
X0227956Y0290359D01*
X0229055Y0293740D01*
X0231312Y0293007D01*
G37*
G36*
X0228317Y0293980D02*
X0227218Y0290599D01*
X0224961Y0291332D01*
X0226060Y0294713D01*
X0228317Y0293980D01*
G37*
G36*
X0226248Y0287615D02*
X0225149Y0284234D01*
X0222892Y0284967D01*
X0223991Y0288348D01*
X0226248Y0287615D01*
G37*
G36*
X0229244Y0286641D02*
X0228145Y0283260D01*
X0225888Y0283993D01*
X0226987Y0287374D01*
X0229244Y0286641D01*
G37*
G36*
X0232239Y0285668D02*
X0231140Y0282287D01*
X0228883Y0283020D01*
X0229982Y0286401D01*
X0232239Y0285668D01*
G37*
X0222954Y0273800D03*
G36*
X0231140Y0265313D02*
X0232239Y0261932D01*
X0229982Y0261199D01*
X0228883Y0264580D01*
X0231140Y0265313D01*
G37*
G36*
X0228145Y0264340D02*
X0229244Y0260959D01*
X0226987Y0260226D01*
X0225888Y0263607D01*
X0228145Y0264340D01*
G37*
G36*
X0225149Y0263366D02*
X0226248Y0259985D01*
X0223991Y0259252D01*
X0222892Y0262633D01*
X0225149Y0263366D01*
G37*
G36*
X0227218Y0257001D02*
X0228317Y0253620D01*
X0226060Y0252887D01*
X0224961Y0256268D01*
X0227218Y0257001D01*
G37*
G36*
X0230213Y0257974D02*
X0231312Y0254593D01*
X0229055Y0253860D01*
X0227956Y0257241D01*
X0230213Y0257974D01*
G37*
G36*
X0233209Y0258948D02*
X0234308Y0255567D01*
X0232051Y0254834D01*
X0230952Y0258215D01*
X0233209Y0258948D01*
G37*
G36*
X0235897Y0252595D02*
X0237986Y0249719D01*
X0236065Y0248323D01*
X0233976Y0251199D01*
X0235897Y0252595D01*
G37*
G36*
X0233349Y0250743D02*
X0235438Y0247867D01*
X0233517Y0246471D01*
X0231428Y0249347D01*
X0233349Y0250743D01*
G37*
G36*
X0230801Y0248892D02*
X0232890Y0246016D01*
X0230969Y0244620D01*
X0228880Y0247496D01*
X0230801Y0248892D01*
G37*
G36*
X0234735Y0243477D02*
X0236824Y0240601D01*
X0234903Y0239205D01*
X0232814Y0242081D01*
X0234735Y0243477D01*
G37*
G36*
X0237283Y0245329D02*
X0239372Y0242453D01*
X0237451Y0241057D01*
X0235362Y0243933D01*
X0237283Y0245329D01*
G37*
G36*
X0239831Y0247180D02*
X0241920Y0244304D01*
X0239999Y0242908D01*
X0237910Y0245784D01*
X0239831Y0247180D01*
G37*
G36*
X0244304Y0241920D02*
X0247180Y0239831D01*
X0245784Y0237910D01*
X0242908Y0239999D01*
X0244304Y0241920D01*
G37*
G36*
X0242453Y0239372D02*
X0245329Y0237283D01*
X0243933Y0235362D01*
X0241057Y0237451D01*
X0242453Y0239372D01*
G37*
G36*
X0240601Y0236824D02*
X0243477Y0234735D01*
X0242081Y0232814D01*
X0239205Y0234903D01*
X0240601Y0236824D01*
G37*
G36*
X0246016Y0232890D02*
X0248892Y0230801D01*
X0247496Y0228880D01*
X0244620Y0230969D01*
X0246016Y0232890D01*
G37*
G36*
X0247867Y0235438D02*
X0250743Y0233349D01*
X0249347Y0231428D01*
X0246471Y0233517D01*
X0247867Y0235438D01*
G37*
G36*
X0249719Y0237986D02*
X0252595Y0235897D01*
X0251199Y0233976D01*
X0248323Y0236065D01*
X0249719Y0237986D01*
G37*
G36*
X0255567Y0234308D02*
X0258948Y0233209D01*
X0258215Y0230952D01*
X0254834Y0232051D01*
X0255567Y0234308D01*
G37*
G36*
X0254593Y0231312D02*
X0257974Y0230213D01*
X0257241Y0227956D01*
X0253860Y0229055D01*
X0254593Y0231312D01*
G37*
G36*
X0253620Y0228317D02*
X0257001Y0227218D01*
X0256268Y0224961D01*
X0252887Y0226060D01*
X0253620Y0228317D01*
G37*
G36*
X0259985Y0226248D02*
X0263366Y0225149D01*
X0262633Y0222892D01*
X0259252Y0223991D01*
X0259985Y0226248D01*
G37*
G36*
X0260959Y0229244D02*
X0264340Y0228145D01*
X0263607Y0225888D01*
X0260226Y0226987D01*
X0260959Y0229244D01*
G37*
G36*
X0261932Y0232239D02*
X0265313Y0231140D01*
X0264580Y0228883D01*
X0261199Y0229982D01*
X0261932Y0232239D01*
G37*
X0270454Y0229450D03*
X0270454Y0226300D03*
X0270454Y0223150D03*
X0277146Y0223150D03*
X0277146Y0226300D03*
X0277146Y0229450D03*
G36*
X0282287Y0231140D02*
X0285668Y0232239D01*
X0286401Y0229982D01*
X0283020Y0228883D01*
X0282287Y0231140D01*
G37*
G36*
X0283260Y0228145D02*
X0286641Y0229244D01*
X0287374Y0226987D01*
X0283993Y0225888D01*
X0283260Y0228145D01*
G37*
G36*
X0284234Y0225149D02*
X0287615Y0226248D01*
X0288348Y0223991D01*
X0284967Y0222892D01*
X0284234Y0225149D01*
G37*
G36*
X0290599Y0227218D02*
X0293980Y0228317D01*
X0294713Y0226060D01*
X0291332Y0224961D01*
X0290599Y0227218D01*
G37*
G36*
X0289626Y0230213D02*
X0293007Y0231312D01*
X0293740Y0229055D01*
X0290359Y0227956D01*
X0289626Y0230213D01*
G37*
G36*
X0288652Y0233209D02*
X0292033Y0234308D01*
X0292766Y0232051D01*
X0289385Y0230952D01*
X0288652Y0233209D01*
G37*
G36*
X0295005Y0235897D02*
X0297881Y0237986D01*
X0299277Y0236065D01*
X0296401Y0233976D01*
X0295005Y0235897D01*
G37*
G36*
X0296857Y0233349D02*
X0299733Y0235438D01*
X0301129Y0233517D01*
X0298253Y0231428D01*
X0296857Y0233349D01*
G37*
G36*
X0298708Y0230801D02*
X0301584Y0232890D01*
X0302980Y0230969D01*
X0300104Y0228880D01*
X0298708Y0230801D01*
G37*
G36*
X0304123Y0234735D02*
X0306999Y0236824D01*
X0308395Y0234903D01*
X0305519Y0232814D01*
X0304123Y0234735D01*
G37*
G36*
X0302271Y0237283D02*
X0305147Y0239372D01*
X0306543Y0237451D01*
X0303667Y0235362D01*
X0302271Y0237283D01*
G37*
G36*
X0300420Y0239831D02*
X0303296Y0241920D01*
X0304692Y0239999D01*
X0301816Y0237910D01*
X0300420Y0239831D01*
G37*
G36*
X0305680Y0244304D02*
X0307769Y0247180D01*
X0309690Y0245784D01*
X0307601Y0242908D01*
X0305680Y0244304D01*
G37*
G36*
X0308228Y0242453D02*
X0310317Y0245329D01*
X0312238Y0243933D01*
X0310149Y0241057D01*
X0308228Y0242453D01*
G37*
G36*
X0310776Y0240601D02*
X0312865Y0243477D01*
X0314786Y0242081D01*
X0312697Y0239205D01*
X0310776Y0240601D01*
G37*
G36*
X0314710Y0246016D02*
X0316799Y0248892D01*
X0318720Y0247496D01*
X0316631Y0244620D01*
X0314710Y0246016D01*
G37*
G36*
X0312162Y0247867D02*
X0314251Y0250743D01*
X0316172Y0249347D01*
X0314083Y0246471D01*
X0312162Y0247867D01*
G37*
G36*
X0309614Y0249719D02*
X0311703Y0252595D01*
X0313624Y0251199D01*
X0311535Y0248323D01*
X0309614Y0249719D01*
G37*
G36*
X0313292Y0255567D02*
X0314391Y0258948D01*
X0316648Y0258215D01*
X0315549Y0254834D01*
X0313292Y0255567D01*
G37*
G36*
X0316288Y0254593D02*
X0317387Y0257974D01*
X0319644Y0257241D01*
X0318545Y0253860D01*
X0316288Y0254593D01*
G37*
G36*
X0319283Y0253620D02*
X0320382Y0257001D01*
X0322639Y0256268D01*
X0321540Y0252887D01*
X0319283Y0253620D01*
G37*
G36*
X0321352Y0259985D02*
X0322451Y0263366D01*
X0324708Y0262633D01*
X0323609Y0259252D01*
X0321352Y0259985D01*
G37*
G36*
X0318356Y0260959D02*
X0319455Y0264340D01*
X0321712Y0263607D01*
X0320613Y0260226D01*
X0318356Y0260959D01*
G37*
G36*
X0315361Y0261932D02*
X0316460Y0265313D01*
X0318717Y0264580D01*
X0317618Y0261199D01*
X0315361Y0261932D01*
G37*
G36*
X0227211Y0361737D02*
X0224043Y0360123D01*
X0222965Y0362237D01*
X0226133Y0363851D01*
X0227211Y0361737D01*
G37*
G36*
X0256643Y0371793D02*
X0253132Y0371237D01*
X0252761Y0373581D01*
X0256272Y0374137D01*
X0256643Y0371793D01*
G37*
G36*
X0192390Y0330984D02*
X0190301Y0328108D01*
X0188380Y0329504D01*
X0190469Y0332380D01*
X0192390Y0330984D01*
G37*
G36*
X0184438Y0317593D02*
X0182824Y0314425D01*
X0180710Y0315503D01*
X0182324Y0318671D01*
X0184438Y0317593D01*
G37*
G36*
X0178748Y0303015D02*
X0177649Y0299634D01*
X0175392Y0300367D01*
X0176491Y0303748D01*
X0178748Y0303015D01*
G37*
G36*
X0044148Y0346775D02*
X0043049Y0343394D01*
X0040792Y0344127D01*
X0041891Y0347508D01*
X0044148Y0346775D01*
G37*
G36*
X0346775Y0503452D02*
X0343394Y0504551D01*
X0344127Y0506808D01*
X0347508Y0505709D01*
X0346775Y0503452D01*
G37*
G36*
X0503452Y0200825D02*
X0504551Y0204206D01*
X0506808Y0203473D01*
X0505709Y0200092D01*
X0503452Y0200825D01*
G37*
D14*
X0510635Y0273800D03*
X0369135Y0273800D03*
X0319135Y0273800D03*
X0228465Y0273800D03*
X0178465Y0273800D03*
X0036965Y0273800D03*
D15*
G36*
X0040262Y0289685D02*
X0040113Y0287316D01*
X0034600Y0287663D01*
X0034749Y0290032D01*
X0040262Y0289685D01*
G37*
G36*
X0041716Y0304310D02*
X0041419Y0301956D01*
X0035940Y0302648D01*
X0036237Y0305002D01*
X0041716Y0304310D01*
G37*
G36*
X0044092Y0318822D02*
X0043647Y0316491D01*
X0038222Y0317526D01*
X0038667Y0319857D01*
X0044092Y0318822D01*
G37*
G36*
X0047377Y0333163D02*
X0046787Y0330865D01*
X0041437Y0332239D01*
X0042027Y0334537D01*
X0047377Y0333163D01*
G37*
G36*
X0051552Y0347266D02*
X0050819Y0345009D01*
X0045566Y0346716D01*
X0046299Y0348973D01*
X0051552Y0347266D01*
G37*
G36*
X0056598Y0361069D02*
X0055724Y0358863D01*
X0050588Y0360897D01*
X0051462Y0363103D01*
X0056598Y0361069D01*
G37*
G36*
X0062513Y0374537D02*
X0061502Y0372388D01*
X0056505Y0374739D01*
X0057516Y0376888D01*
X0062513Y0374537D01*
G37*
G36*
X0069250Y0387607D02*
X0068106Y0385527D01*
X0063266Y0388187D01*
X0064410Y0390267D01*
X0069250Y0387607D01*
G37*
G36*
X0076806Y0400223D02*
X0075534Y0398218D01*
X0070870Y0401177D01*
X0072142Y0403182D01*
X0076806Y0400223D01*
G37*
G36*
X0085124Y0412344D02*
X0083728Y0410424D01*
X0079260Y0413670D01*
X0080656Y0415590D01*
X0085124Y0412344D01*
G37*
G36*
X0094202Y0423915D02*
X0092689Y0422085D01*
X0088434Y0425605D01*
X0089947Y0427435D01*
X0094202Y0423915D01*
G37*
G36*
X0103983Y0434903D02*
X0102358Y0433172D01*
X0098333Y0436953D01*
X0099958Y0438684D01*
X0103983Y0434903D01*
G37*
G36*
X0114428Y0445242D02*
X0112697Y0443617D01*
X0108916Y0447642D01*
X0110647Y0449267D01*
X0114428Y0445242D01*
G37*
G36*
X0125515Y0454911D02*
X0123685Y0453398D01*
X0120165Y0457653D01*
X0121995Y0459166D01*
X0125515Y0454911D01*
G37*
G36*
X0137176Y0463872D02*
X0135256Y0462476D01*
X0132010Y0466944D01*
X0133930Y0468340D01*
X0137176Y0463872D01*
G37*
G36*
X0149382Y0472066D02*
X0147377Y0470794D01*
X0144418Y0475458D01*
X0146423Y0476730D01*
X0149382Y0472066D01*
G37*
G36*
X0162073Y0479494D02*
X0159993Y0478350D01*
X0157333Y0483190D01*
X0159413Y0484334D01*
X0162073Y0479494D01*
G37*
G36*
X0175212Y0486098D02*
X0173063Y0485087D01*
X0170712Y0490084D01*
X0172861Y0491095D01*
X0175212Y0486098D01*
G37*
G36*
X0188737Y0491876D02*
X0186531Y0491002D01*
X0184497Y0496138D01*
X0186703Y0497012D01*
X0188737Y0491876D01*
G37*
G36*
X0202591Y0496781D02*
X0200334Y0496048D01*
X0198627Y0501301D01*
X0200884Y0502034D01*
X0202591Y0496781D01*
G37*
G36*
X0216734Y0500813D02*
X0214436Y0500223D01*
X0213062Y0505573D01*
X0215360Y0506163D01*
X0216734Y0500813D01*
G37*
G36*
X0231109Y0503953D02*
X0228778Y0503508D01*
X0227743Y0508933D01*
X0230074Y0509378D01*
X0231109Y0503953D01*
G37*
G36*
X0245644Y0506181D02*
X0243290Y0505884D01*
X0242598Y0511363D01*
X0244952Y0511660D01*
X0245644Y0506181D01*
G37*
G36*
X0260284Y0507487D02*
X0257915Y0507338D01*
X0257568Y0512851D01*
X0259937Y0513000D01*
X0260284Y0507487D01*
G37*
X0273800Y0510635D03*
G36*
X0289685Y0507338D02*
X0287316Y0507487D01*
X0287663Y0513000D01*
X0290032Y0512851D01*
X0289685Y0507338D01*
G37*
G36*
X0304310Y0505884D02*
X0301956Y0506181D01*
X0302648Y0511660D01*
X0305002Y0511363D01*
X0304310Y0505884D01*
G37*
G36*
X0318822Y0503508D02*
X0316491Y0503953D01*
X0317526Y0509378D01*
X0319857Y0508933D01*
X0318822Y0503508D01*
G37*
G36*
X0333163Y0500223D02*
X0330865Y0500813D01*
X0332239Y0506163D01*
X0334537Y0505573D01*
X0333163Y0500223D01*
G37*
G36*
X0347266Y0496048D02*
X0345009Y0496781D01*
X0346716Y0502034D01*
X0348973Y0501301D01*
X0347266Y0496048D01*
G37*
G36*
X0361069Y0491002D02*
X0358863Y0491876D01*
X0360897Y0497012D01*
X0363103Y0496138D01*
X0361069Y0491002D01*
G37*
G36*
X0374537Y0485087D02*
X0372388Y0486098D01*
X0374739Y0491095D01*
X0376888Y0490084D01*
X0374537Y0485087D01*
G37*
G36*
X0387607Y0478350D02*
X0385527Y0479494D01*
X0388187Y0484334D01*
X0390267Y0483190D01*
X0387607Y0478350D01*
G37*
G36*
X0400223Y0470794D02*
X0398218Y0472066D01*
X0401177Y0476730D01*
X0403182Y0475458D01*
X0400223Y0470794D01*
G37*
G36*
X0412344Y0462476D02*
X0410424Y0463872D01*
X0413670Y0468340D01*
X0415590Y0466944D01*
X0412344Y0462476D01*
G37*
G36*
X0423915Y0453398D02*
X0422085Y0454911D01*
X0425605Y0459166D01*
X0427435Y0457653D01*
X0423915Y0453398D01*
G37*
G36*
X0434903Y0443617D02*
X0433172Y0445242D01*
X0436953Y0449267D01*
X0438684Y0447642D01*
X0434903Y0443617D01*
G37*
G36*
X0445242Y0433172D02*
X0443617Y0434903D01*
X0447642Y0438684D01*
X0449267Y0436953D01*
X0445242Y0433172D01*
G37*
G36*
X0454911Y0422085D02*
X0453398Y0423915D01*
X0457653Y0427435D01*
X0459166Y0425605D01*
X0454911Y0422085D01*
G37*
G36*
X0463872Y0410424D02*
X0462476Y0412344D01*
X0466944Y0415590D01*
X0468340Y0413670D01*
X0463872Y0410424D01*
G37*
G36*
X0472066Y0398218D02*
X0470794Y0400223D01*
X0475458Y0403182D01*
X0476730Y0401177D01*
X0472066Y0398218D01*
G37*
G36*
X0479494Y0385527D02*
X0478350Y0387607D01*
X0483190Y0390267D01*
X0484334Y0388187D01*
X0479494Y0385527D01*
G37*
G36*
X0486098Y0372388D02*
X0485087Y0374537D01*
X0490084Y0376888D01*
X0491095Y0374739D01*
X0486098Y0372388D01*
G37*
G36*
X0491876Y0358863D02*
X0491002Y0361069D01*
X0496138Y0363103D01*
X0497012Y0360897D01*
X0491876Y0358863D01*
G37*
G36*
X0496781Y0345009D02*
X0496048Y0347266D01*
X0501301Y0348973D01*
X0502034Y0346716D01*
X0496781Y0345009D01*
G37*
G36*
X0500813Y0330865D02*
X0500223Y0333163D01*
X0505573Y0334537D01*
X0506163Y0332239D01*
X0500813Y0330865D01*
G37*
G36*
X0503953Y0316491D02*
X0503508Y0318822D01*
X0508933Y0319857D01*
X0509378Y0317526D01*
X0503953Y0316491D01*
G37*
G36*
X0506181Y0301956D02*
X0505884Y0304310D01*
X0511363Y0305002D01*
X0511660Y0302648D01*
X0506181Y0301956D01*
G37*
G36*
X0507487Y0287316D02*
X0507338Y0289685D01*
X0512851Y0290032D01*
X0513000Y0287663D01*
X0507487Y0287316D01*
G37*
G36*
X0507338Y0257915D02*
X0507487Y0260284D01*
X0513000Y0259937D01*
X0512851Y0257568D01*
X0507338Y0257915D01*
G37*
G36*
X0505884Y0243290D02*
X0506181Y0245644D01*
X0511660Y0244952D01*
X0511363Y0242598D01*
X0505884Y0243290D01*
G37*
G36*
X0503508Y0228778D02*
X0503953Y0231109D01*
X0509378Y0230074D01*
X0508933Y0227743D01*
X0503508Y0228778D01*
G37*
G36*
X0500223Y0214436D02*
X0500813Y0216734D01*
X0506163Y0215360D01*
X0505573Y0213062D01*
X0500223Y0214436D01*
G37*
G36*
X0496048Y0200334D02*
X0496781Y0202591D01*
X0502034Y0200884D01*
X0501301Y0198627D01*
X0496048Y0200334D01*
G37*
G36*
X0491002Y0186531D02*
X0491876Y0188737D01*
X0497012Y0186703D01*
X0496138Y0184497D01*
X0491002Y0186531D01*
G37*
G36*
X0485087Y0173063D02*
X0486098Y0175212D01*
X0491095Y0172861D01*
X0490084Y0170712D01*
X0485087Y0173063D01*
G37*
G36*
X0478350Y0159993D02*
X0479494Y0162073D01*
X0484334Y0159413D01*
X0483190Y0157333D01*
X0478350Y0159993D01*
G37*
G36*
X0470794Y0147377D02*
X0472066Y0149382D01*
X0476730Y0146423D01*
X0475458Y0144418D01*
X0470794Y0147377D01*
G37*
G36*
X0462476Y0135256D02*
X0463872Y0137176D01*
X0468340Y0133930D01*
X0466944Y0132010D01*
X0462476Y0135256D01*
G37*
G36*
X0453398Y0123685D02*
X0454911Y0125515D01*
X0459166Y0121995D01*
X0457653Y0120165D01*
X0453398Y0123685D01*
G37*
G36*
X0443617Y0112697D02*
X0445242Y0114428D01*
X0449267Y0110647D01*
X0447642Y0108916D01*
X0443617Y0112697D01*
G37*
G36*
X0433172Y0102358D02*
X0434903Y0103983D01*
X0438684Y0099958D01*
X0436953Y0098333D01*
X0433172Y0102358D01*
G37*
G36*
X0422085Y0092689D02*
X0423915Y0094202D01*
X0427435Y0089947D01*
X0425605Y0088434D01*
X0422085Y0092689D01*
G37*
G36*
X0410424Y0083728D02*
X0412344Y0085124D01*
X0415590Y0080656D01*
X0413670Y0079260D01*
X0410424Y0083728D01*
G37*
G36*
X0398218Y0075534D02*
X0400223Y0076806D01*
X0403182Y0072142D01*
X0401177Y0070870D01*
X0398218Y0075534D01*
G37*
G36*
X0385527Y0068106D02*
X0387607Y0069250D01*
X0390267Y0064410D01*
X0388187Y0063266D01*
X0385527Y0068106D01*
G37*
G36*
X0372388Y0061502D02*
X0374537Y0062513D01*
X0376888Y0057516D01*
X0374739Y0056505D01*
X0372388Y0061502D01*
G37*
G36*
X0358863Y0055724D02*
X0361069Y0056598D01*
X0363103Y0051462D01*
X0360897Y0050588D01*
X0358863Y0055724D01*
G37*
G36*
X0345009Y0050819D02*
X0347266Y0051552D01*
X0348973Y0046299D01*
X0346716Y0045566D01*
X0345009Y0050819D01*
G37*
G36*
X0330865Y0046787D02*
X0333163Y0047377D01*
X0334537Y0042027D01*
X0332239Y0041437D01*
X0330865Y0046787D01*
G37*
G36*
X0316491Y0043647D02*
X0318822Y0044092D01*
X0319857Y0038667D01*
X0317526Y0038222D01*
X0316491Y0043647D01*
G37*
G36*
X0301956Y0041419D02*
X0304310Y0041716D01*
X0305002Y0036237D01*
X0302648Y0035940D01*
X0301956Y0041419D01*
G37*
G36*
X0287316Y0040113D02*
X0289685Y0040262D01*
X0290032Y0034749D01*
X0287663Y0034600D01*
X0287316Y0040113D01*
G37*
X0273800Y0036965D03*
G36*
X0257915Y0040262D02*
X0260284Y0040113D01*
X0259937Y0034600D01*
X0257568Y0034749D01*
X0257915Y0040262D01*
G37*
G36*
X0243290Y0041716D02*
X0245644Y0041419D01*
X0244952Y0035940D01*
X0242598Y0036237D01*
X0243290Y0041716D01*
G37*
G36*
X0228778Y0044092D02*
X0231109Y0043647D01*
X0230074Y0038222D01*
X0227743Y0038667D01*
X0228778Y0044092D01*
G37*
G36*
X0214436Y0047377D02*
X0216734Y0046787D01*
X0215360Y0041437D01*
X0213062Y0042027D01*
X0214436Y0047377D01*
G37*
G36*
X0200334Y0051552D02*
X0202591Y0050819D01*
X0200884Y0045566D01*
X0198627Y0046299D01*
X0200334Y0051552D01*
G37*
G36*
X0186531Y0056598D02*
X0188737Y0055724D01*
X0186703Y0050588D01*
X0184497Y0051462D01*
X0186531Y0056598D01*
G37*
G36*
X0173063Y0062513D02*
X0175212Y0061502D01*
X0172861Y0056505D01*
X0170712Y0057516D01*
X0173063Y0062513D01*
G37*
G36*
X0159993Y0069250D02*
X0162073Y0068106D01*
X0159413Y0063266D01*
X0157333Y0064410D01*
X0159993Y0069250D01*
G37*
G36*
X0147377Y0076806D02*
X0149382Y0075534D01*
X0146423Y0070870D01*
X0144418Y0072142D01*
X0147377Y0076806D01*
G37*
G36*
X0135256Y0085124D02*
X0137176Y0083728D01*
X0133930Y0079260D01*
X0132010Y0080656D01*
X0135256Y0085124D01*
G37*
G36*
X0123685Y0094202D02*
X0125515Y0092689D01*
X0121995Y0088434D01*
X0120165Y0089947D01*
X0123685Y0094202D01*
G37*
G36*
X0112697Y0103983D02*
X0114428Y0102358D01*
X0110647Y0098333D01*
X0108916Y0099958D01*
X0112697Y0103983D01*
G37*
G36*
X0102358Y0114428D02*
X0103983Y0112697D01*
X0099958Y0108916D01*
X0098333Y0110647D01*
X0102358Y0114428D01*
G37*
G36*
X0092689Y0125515D02*
X0094202Y0123685D01*
X0089947Y0120165D01*
X0088434Y0121995D01*
X0092689Y0125515D01*
G37*
G36*
X0083728Y0137176D02*
X0085124Y0135256D01*
X0080656Y0132010D01*
X0079260Y0133930D01*
X0083728Y0137176D01*
G37*
G36*
X0075534Y0149382D02*
X0076806Y0147377D01*
X0072142Y0144418D01*
X0070870Y0146423D01*
X0075534Y0149382D01*
G37*
G36*
X0068106Y0162073D02*
X0069250Y0159993D01*
X0064410Y0157333D01*
X0063266Y0159413D01*
X0068106Y0162073D01*
G37*
G36*
X0061502Y0175212D02*
X0062513Y0173063D01*
X0057516Y0170712D01*
X0056505Y0172861D01*
X0061502Y0175212D01*
G37*
G36*
X0055724Y0188737D02*
X0056598Y0186531D01*
X0051462Y0184497D01*
X0050588Y0186703D01*
X0055724Y0188737D01*
G37*
G36*
X0050819Y0202591D02*
X0051552Y0200334D01*
X0046299Y0198627D01*
X0045566Y0200884D01*
X0050819Y0202591D01*
G37*
G36*
X0046787Y0216734D02*
X0047377Y0214436D01*
X0042027Y0213062D01*
X0041437Y0215360D01*
X0046787Y0216734D01*
G37*
G36*
X0043647Y0231109D02*
X0044092Y0228778D01*
X0038667Y0227743D01*
X0038222Y0230074D01*
X0043647Y0231109D01*
G37*
G36*
X0041419Y0245644D02*
X0041716Y0243290D01*
X0036237Y0242598D01*
X0035940Y0244952D01*
X0041419Y0245644D01*
G37*
G36*
X0040113Y0260284D02*
X0040262Y0257915D01*
X0034749Y0257568D01*
X0034600Y0259937D01*
X0040113Y0260284D01*
G37*
G36*
X0182181Y0260443D02*
X0182552Y0258099D01*
X0177097Y0257235D01*
X0176726Y0259579D01*
X0182181Y0260443D01*
G37*
G36*
X0185419Y0246351D02*
X0186152Y0244094D01*
X0180899Y0242387D01*
X0180166Y0244644D01*
X0185419Y0246351D01*
G37*
G36*
X0190751Y0232794D02*
X0191828Y0230679D01*
X0186907Y0228172D01*
X0185830Y0230287D01*
X0190751Y0232794D01*
G37*
G36*
X0198188Y0220356D02*
X0199584Y0218436D01*
X0195116Y0215190D01*
X0193720Y0217110D01*
X0198188Y0220356D01*
G37*
G36*
X0207544Y0209223D02*
X0209223Y0207544D01*
X0205318Y0203639D01*
X0203639Y0205318D01*
X0207544Y0209223D01*
G37*
G36*
X0218436Y0199584D02*
X0220356Y0198188D01*
X0217110Y0193720D01*
X0215190Y0195116D01*
X0218436Y0199584D01*
G37*
G36*
X0230679Y0191828D02*
X0232794Y0190751D01*
X0230287Y0185830D01*
X0228172Y0186907D01*
X0230679Y0191828D01*
G37*
G36*
X0244094Y0186152D02*
X0246351Y0185419D01*
X0244644Y0180166D01*
X0242387Y0180899D01*
X0244094Y0186152D01*
G37*
G36*
X0258099Y0182552D02*
X0260443Y0182181D01*
X0259579Y0176726D01*
X0257235Y0177097D01*
X0258099Y0182552D01*
G37*
X0273800Y0178465D03*
G36*
X0287157Y0182181D02*
X0289501Y0182552D01*
X0290365Y0177097D01*
X0288021Y0176726D01*
X0287157Y0182181D01*
G37*
G36*
X0301249Y0185419D02*
X0303506Y0186152D01*
X0305213Y0180899D01*
X0302956Y0180166D01*
X0301249Y0185419D01*
G37*
G36*
X0314806Y0190751D02*
X0316921Y0191828D01*
X0319428Y0186907D01*
X0317313Y0185830D01*
X0314806Y0190751D01*
G37*
G36*
X0327244Y0198188D02*
X0329164Y0199584D01*
X0332410Y0195116D01*
X0330490Y0193720D01*
X0327244Y0198188D01*
G37*
G36*
X0338377Y0207544D02*
X0340056Y0209223D01*
X0343961Y0205318D01*
X0342282Y0203639D01*
X0338377Y0207544D01*
G37*
G36*
X0348016Y0218436D02*
X0349412Y0220356D01*
X0353880Y0217110D01*
X0352484Y0215190D01*
X0348016Y0218436D01*
G37*
G36*
X0355772Y0230679D02*
X0356849Y0232794D01*
X0361770Y0230287D01*
X0360693Y0228172D01*
X0355772Y0230679D01*
G37*
G36*
X0361448Y0244094D02*
X0362181Y0246351D01*
X0367434Y0244644D01*
X0366701Y0242387D01*
X0361448Y0244094D01*
G37*
G36*
X0365048Y0258099D02*
X0365419Y0260443D01*
X0370874Y0259579D01*
X0370503Y0257235D01*
X0365048Y0258099D01*
G37*
G36*
X0365419Y0287157D02*
X0365048Y0289501D01*
X0370503Y0290365D01*
X0370874Y0288021D01*
X0365419Y0287157D01*
G37*
G36*
X0362181Y0301249D02*
X0361448Y0303506D01*
X0366701Y0305213D01*
X0367434Y0302956D01*
X0362181Y0301249D01*
G37*
G36*
X0356849Y0314806D02*
X0355772Y0316921D01*
X0360693Y0319428D01*
X0361770Y0317313D01*
X0356849Y0314806D01*
G37*
G36*
X0349412Y0327244D02*
X0348016Y0329164D01*
X0352484Y0332410D01*
X0353880Y0330490D01*
X0349412Y0327244D01*
G37*
G36*
X0340056Y0338377D02*
X0338377Y0340056D01*
X0342282Y0343961D01*
X0343961Y0342282D01*
X0340056Y0338377D01*
G37*
G36*
X0329164Y0348016D02*
X0327244Y0349412D01*
X0330490Y0353880D01*
X0332410Y0352484D01*
X0329164Y0348016D01*
G37*
G36*
X0316921Y0355772D02*
X0314806Y0356849D01*
X0317313Y0361770D01*
X0319428Y0360693D01*
X0316921Y0355772D01*
G37*
G36*
X0303506Y0361448D02*
X0301249Y0362181D01*
X0302956Y0367434D01*
X0305213Y0366701D01*
X0303506Y0361448D01*
G37*
G36*
X0289501Y0365048D02*
X0287157Y0365419D01*
X0288021Y0370874D01*
X0290365Y0370503D01*
X0289501Y0365048D01*
G37*
X0273800Y0369135D03*
G36*
X0260443Y0365419D02*
X0258099Y0365048D01*
X0257235Y0370503D01*
X0259579Y0370874D01*
X0260443Y0365419D01*
G37*
G36*
X0246351Y0362181D02*
X0244094Y0361448D01*
X0242387Y0366701D01*
X0244644Y0367434D01*
X0246351Y0362181D01*
G37*
G36*
X0232794Y0356849D02*
X0230679Y0355772D01*
X0228172Y0360693D01*
X0230287Y0361770D01*
X0232794Y0356849D01*
G37*
G36*
X0220356Y0349412D02*
X0218436Y0348016D01*
X0215190Y0352484D01*
X0217110Y0353880D01*
X0220356Y0349412D01*
G37*
G36*
X0209223Y0340056D02*
X0207544Y0338377D01*
X0203639Y0342282D01*
X0205318Y0343961D01*
X0209223Y0340056D01*
G37*
G36*
X0199584Y0329164D02*
X0198188Y0327244D01*
X0193720Y0330490D01*
X0195116Y0332410D01*
X0199584Y0329164D01*
G37*
G36*
X0191828Y0316921D02*
X0190751Y0314806D01*
X0185830Y0317313D01*
X0186907Y0319428D01*
X0191828Y0316921D01*
G37*
G36*
X0186152Y0303506D02*
X0185419Y0301249D01*
X0180166Y0302956D01*
X0180899Y0305213D01*
X0186152Y0303506D01*
G37*
G36*
X0182552Y0289501D02*
X0182181Y0287157D01*
X0176726Y0288021D01*
X0177097Y0290365D01*
X0182552Y0289501D01*
G37*
G36*
X0233652Y0288106D02*
X0232919Y0285849D01*
X0227666Y0287556D01*
X0228399Y0289813D01*
X0233652Y0288106D01*
G37*
G36*
X0240084Y0299764D02*
X0238688Y0297844D01*
X0234220Y0301090D01*
X0235616Y0303010D01*
X0240084Y0299764D01*
G37*
G36*
X0249756Y0308912D02*
X0247836Y0307516D01*
X0244590Y0311984D01*
X0246510Y0313380D01*
X0249756Y0308912D01*
G37*
G36*
X0261751Y0314681D02*
X0259494Y0313948D01*
X0257787Y0319201D01*
X0260044Y0319934D01*
X0261751Y0314681D01*
G37*
X0273800Y0319135D03*
G36*
X0288106Y0313948D02*
X0285849Y0314681D01*
X0287556Y0319934D01*
X0289813Y0319201D01*
X0288106Y0313948D01*
G37*
G36*
X0299764Y0307516D02*
X0297844Y0308912D01*
X0301090Y0313380D01*
X0303010Y0311984D01*
X0299764Y0307516D01*
G37*
G36*
X0308912Y0297844D02*
X0307516Y0299764D01*
X0311984Y0303010D01*
X0313380Y0301090D01*
X0308912Y0297844D01*
G37*
G36*
X0314681Y0285849D02*
X0313948Y0288106D01*
X0319201Y0289813D01*
X0319934Y0287556D01*
X0314681Y0285849D01*
G37*
G36*
X0313948Y0259494D02*
X0314681Y0261751D01*
X0319934Y0260044D01*
X0319201Y0257787D01*
X0313948Y0259494D01*
G37*
G36*
X0307516Y0247836D02*
X0308912Y0249756D01*
X0313380Y0246510D01*
X0311984Y0244590D01*
X0307516Y0247836D01*
G37*
G36*
X0297844Y0238688D02*
X0299764Y0240084D01*
X0303010Y0235616D01*
X0301090Y0234220D01*
X0297844Y0238688D01*
G37*
G36*
X0285849Y0232919D02*
X0288106Y0233652D01*
X0289813Y0228399D01*
X0287556Y0227666D01*
X0285849Y0232919D01*
G37*
X0273800Y0228465D03*
G36*
X0259494Y0233652D02*
X0261751Y0232919D01*
X0260044Y0227666D01*
X0257787Y0228399D01*
X0259494Y0233652D01*
G37*
G36*
X0247836Y0240084D02*
X0249756Y0238688D01*
X0246510Y0234220D01*
X0244590Y0235616D01*
X0247836Y0240084D01*
G37*
G36*
X0238688Y0249756D02*
X0240084Y0247836D01*
X0235616Y0244590D01*
X0234220Y0246510D01*
X0238688Y0249756D01*
G37*
G36*
X0232919Y0261751D02*
X0233652Y0259494D01*
X0228399Y0257787D01*
X0227666Y0260044D01*
X0232919Y0261751D01*
G37*
M02*
