G75*
%MOIN*%
%OFA0B0*%
%FSLAX25Y25*%
%IPPOS*%
%LPD*%
%AMOC8*
5,1,8,0,0,1.08239X$1,22.5*
%
%ADD10C,0.00787*%
%ADD11C,0.00500*%
D10*
X0101977Y0099461D02*
X0110587Y0091376D01*
X0117729Y0098981D01*
X0118403Y0099699D01*
X0109793Y0107784D01*
X0101977Y0099461D01*
X0099461Y0101977D02*
X0107067Y0109119D01*
X0107784Y0109793D01*
X0099699Y0118403D01*
X0091376Y0110587D01*
X0099461Y0101977D01*
X0089016Y0113271D02*
X0097055Y0119921D01*
X0097813Y0120549D01*
X0090284Y0129649D01*
X0081487Y0122371D01*
X0089016Y0113271D01*
X0079293Y0125187D02*
X0087733Y0131319D01*
X0088530Y0131898D01*
X0081587Y0141453D01*
X0072350Y0134742D01*
X0079293Y0125187D01*
X0070354Y0137695D02*
X0079163Y0143285D01*
X0079994Y0143813D01*
X0073666Y0153785D01*
X0064026Y0147667D01*
X0070354Y0137695D01*
X0062202Y0150735D02*
X0071345Y0155761D01*
X0072208Y0156235D01*
X0066518Y0166585D01*
X0056512Y0161085D01*
X0062202Y0150735D01*
X0054899Y0164266D02*
X0064339Y0168708D01*
X0065230Y0169127D01*
X0060201Y0179814D01*
X0049870Y0174953D01*
X0054899Y0164266D01*
X0048446Y0178228D02*
X0058147Y0182068D01*
X0059062Y0182431D01*
X0054714Y0193412D01*
X0044098Y0189209D01*
X0048446Y0178228D01*
X0042896Y0192559D02*
X0052818Y0195783D01*
X0053754Y0196088D01*
X0050104Y0207321D01*
X0039246Y0203792D01*
X0042896Y0192559D01*
X0038249Y0207220D02*
X0048355Y0209815D01*
X0049308Y0210060D01*
X0046371Y0221500D01*
X0035312Y0218660D01*
X0038249Y0207220D01*
X0034529Y0222149D02*
X0044777Y0224104D01*
X0045744Y0224289D01*
X0043531Y0235891D01*
X0032316Y0233751D01*
X0034529Y0222149D01*
X0031756Y0237276D02*
X0042107Y0238583D01*
X0043084Y0238707D01*
X0041603Y0250424D01*
X0030276Y0248993D01*
X0031756Y0237276D01*
X0029943Y0252538D02*
X0040356Y0253193D01*
X0041338Y0253255D01*
X0040597Y0265042D01*
X0029202Y0264325D01*
X0029943Y0252538D01*
X0029091Y0267894D02*
X0039524Y0267894D01*
X0040509Y0267894D01*
X0040509Y0279706D01*
X0029091Y0279706D01*
X0029091Y0267894D01*
X0029202Y0283275D02*
X0039614Y0282619D01*
X0040597Y0282558D01*
X0041338Y0294345D01*
X0029943Y0295062D01*
X0029202Y0283275D01*
X0030276Y0298607D02*
X0040627Y0297299D01*
X0041603Y0297176D01*
X0043084Y0308893D01*
X0031756Y0310324D01*
X0030276Y0298607D01*
X0032316Y0313849D02*
X0042564Y0311894D01*
X0043531Y0311709D01*
X0045744Y0323311D01*
X0034529Y0325451D01*
X0032316Y0313849D01*
X0035312Y0328940D02*
X0045417Y0326345D01*
X0046371Y0326100D01*
X0049308Y0337540D01*
X0038249Y0340380D01*
X0035312Y0328940D01*
X0039246Y0343808D02*
X0049168Y0340584D01*
X0050104Y0340279D01*
X0053754Y0351512D01*
X0042896Y0355041D01*
X0039246Y0343808D01*
X0044098Y0358391D02*
X0053799Y0354550D01*
X0054714Y0354188D01*
X0059062Y0365169D01*
X0048446Y0369372D01*
X0044098Y0358391D01*
X0049870Y0372647D02*
X0059310Y0368205D01*
X0060201Y0367786D01*
X0065230Y0378473D01*
X0054899Y0383334D01*
X0049870Y0372647D01*
X0056512Y0386515D02*
X0065655Y0381489D01*
X0066518Y0381015D01*
X0072208Y0391365D01*
X0062202Y0396865D01*
X0056512Y0386515D01*
X0064026Y0399933D02*
X0072835Y0394342D01*
X0073666Y0393815D01*
X0079994Y0403787D01*
X0070354Y0409905D01*
X0064026Y0399933D01*
X0072350Y0412858D02*
X0080791Y0406725D01*
X0081587Y0406147D01*
X0088530Y0415702D01*
X0079293Y0422413D01*
X0072350Y0412858D01*
X0081487Y0425229D02*
X0089526Y0418578D01*
X0090284Y0417951D01*
X0097813Y0427051D01*
X0089016Y0434329D01*
X0081487Y0425229D01*
X0091376Y0437013D02*
X0098981Y0429871D01*
X0099699Y0429197D01*
X0107784Y0437807D01*
X0099461Y0445623D01*
X0091376Y0437013D01*
X0101977Y0448139D02*
X0109119Y0440533D01*
X0109793Y0439816D01*
X0118403Y0447901D01*
X0110587Y0456224D01*
X0101977Y0448139D01*
X0113271Y0458584D02*
X0119921Y0450545D01*
X0120549Y0449787D01*
X0129649Y0457316D01*
X0122371Y0466113D01*
X0113271Y0458584D01*
X0125187Y0468307D02*
X0131319Y0459867D01*
X0131898Y0459070D01*
X0141453Y0466013D01*
X0134742Y0475250D01*
X0125187Y0468307D01*
X0137695Y0477246D02*
X0143285Y0468437D01*
X0143813Y0467606D01*
X0153785Y0473934D01*
X0147667Y0483574D01*
X0137695Y0477246D01*
X0150735Y0485398D02*
X0155761Y0476255D01*
X0156235Y0475392D01*
X0166585Y0481082D01*
X0161085Y0491088D01*
X0150735Y0485398D01*
X0164266Y0492701D02*
X0168708Y0483261D01*
X0169127Y0482370D01*
X0179814Y0487399D01*
X0174953Y0497730D01*
X0164266Y0492701D01*
X0178228Y0499154D02*
X0182068Y0489453D01*
X0182431Y0488538D01*
X0193412Y0492886D01*
X0189209Y0503502D01*
X0178228Y0499154D01*
X0192559Y0504704D02*
X0195783Y0494782D01*
X0196088Y0493846D01*
X0207321Y0497496D01*
X0203792Y0508354D01*
X0192559Y0504704D01*
X0207220Y0509351D02*
X0209815Y0499245D01*
X0210060Y0498292D01*
X0221500Y0501229D01*
X0218660Y0512288D01*
X0207220Y0509351D01*
X0222149Y0513071D02*
X0224104Y0502823D01*
X0224289Y0501856D01*
X0235891Y0504069D01*
X0233751Y0515284D01*
X0222149Y0513071D01*
X0237276Y0515843D02*
X0238583Y0505493D01*
X0238707Y0504516D01*
X0250424Y0505997D01*
X0248993Y0517324D01*
X0237276Y0515843D01*
X0252538Y0517657D02*
X0253193Y0507244D01*
X0253255Y0506262D01*
X0265042Y0507003D01*
X0264325Y0518398D01*
X0252538Y0517657D01*
X0267894Y0518509D02*
X0267894Y0508076D01*
X0267894Y0507091D01*
X0279706Y0507091D01*
X0279706Y0518509D01*
X0267894Y0518509D01*
X0283275Y0518398D02*
X0282620Y0507986D01*
X0282558Y0507003D01*
X0294345Y0506262D01*
X0295062Y0517657D01*
X0283275Y0518398D01*
X0298607Y0517324D02*
X0297299Y0506973D01*
X0297176Y0505997D01*
X0308893Y0504516D01*
X0310324Y0515843D01*
X0298607Y0517324D01*
X0313849Y0515284D02*
X0311894Y0505036D01*
X0311709Y0504069D01*
X0323311Y0501856D01*
X0325451Y0513071D01*
X0313849Y0515284D01*
X0328940Y0512288D02*
X0326345Y0502183D01*
X0326100Y0501229D01*
X0337540Y0498292D01*
X0340380Y0509351D01*
X0328940Y0512288D01*
X0343808Y0508354D02*
X0340584Y0498432D01*
X0340279Y0497496D01*
X0351512Y0493846D01*
X0355041Y0504704D01*
X0343808Y0508354D01*
X0358391Y0503502D02*
X0354550Y0493801D01*
X0354188Y0492886D01*
X0365169Y0488538D01*
X0369372Y0499154D01*
X0358391Y0503502D01*
X0372647Y0497730D02*
X0368205Y0488290D01*
X0367786Y0487399D01*
X0378473Y0482370D01*
X0383334Y0492701D01*
X0372647Y0497730D01*
X0386515Y0491088D02*
X0381489Y0481945D01*
X0381015Y0481082D01*
X0391365Y0475392D01*
X0396865Y0485398D01*
X0386515Y0491088D01*
X0399933Y0483574D02*
X0394342Y0474765D01*
X0393815Y0473934D01*
X0403787Y0467606D01*
X0409905Y0477246D01*
X0399933Y0483574D01*
X0412858Y0475250D02*
X0406725Y0466809D01*
X0406147Y0466013D01*
X0415702Y0459070D01*
X0422413Y0468307D01*
X0412858Y0475250D01*
X0425229Y0466113D02*
X0418578Y0458074D01*
X0417951Y0457316D01*
X0427051Y0449787D01*
X0434329Y0458584D01*
X0425229Y0466113D01*
X0437013Y0456224D02*
X0429871Y0448619D01*
X0429197Y0447901D01*
X0437807Y0439816D01*
X0445623Y0448139D01*
X0437013Y0456224D01*
X0448139Y0445623D02*
X0440533Y0438481D01*
X0439816Y0437807D01*
X0447901Y0429197D01*
X0456224Y0437013D01*
X0448139Y0445623D01*
X0458584Y0434329D02*
X0450545Y0427679D01*
X0449787Y0427051D01*
X0457316Y0417951D01*
X0466113Y0425229D01*
X0458584Y0434329D01*
X0468307Y0422413D02*
X0459867Y0416281D01*
X0459070Y0415702D01*
X0466013Y0406147D01*
X0475250Y0412858D01*
X0468307Y0422413D01*
X0477246Y0409905D02*
X0468437Y0404315D01*
X0467606Y0403787D01*
X0473934Y0393815D01*
X0483574Y0399933D01*
X0477246Y0409905D01*
X0485398Y0396865D02*
X0476255Y0391839D01*
X0475392Y0391365D01*
X0481082Y0381015D01*
X0491088Y0386515D01*
X0485398Y0396865D01*
X0492701Y0383334D02*
X0483261Y0378892D01*
X0482370Y0378473D01*
X0487399Y0367786D01*
X0497730Y0372647D01*
X0492701Y0383334D01*
X0499154Y0369372D02*
X0489453Y0365532D01*
X0488538Y0365169D01*
X0492886Y0354188D01*
X0503502Y0358391D01*
X0499154Y0369372D01*
X0504704Y0355041D02*
X0494782Y0351817D01*
X0493846Y0351512D01*
X0497496Y0340279D01*
X0508354Y0343808D01*
X0504704Y0355041D01*
X0509351Y0340380D02*
X0499245Y0337785D01*
X0498292Y0337540D01*
X0501229Y0326100D01*
X0512288Y0328940D01*
X0509351Y0340380D01*
X0513071Y0325451D02*
X0502823Y0323496D01*
X0501856Y0323311D01*
X0504069Y0311709D01*
X0515284Y0313849D01*
X0513071Y0325451D01*
X0515843Y0310324D02*
X0505493Y0309017D01*
X0504516Y0308893D01*
X0505997Y0297176D01*
X0517324Y0298607D01*
X0515843Y0310324D01*
X0517657Y0295062D02*
X0507244Y0294407D01*
X0506262Y0294345D01*
X0507003Y0282558D01*
X0518398Y0283275D01*
X0517657Y0295062D01*
X0518509Y0279706D02*
X0508076Y0279706D01*
X0507091Y0279706D01*
X0507091Y0267894D01*
X0518509Y0267894D01*
X0518509Y0279706D01*
X0518398Y0264325D02*
X0507986Y0264980D01*
X0507003Y0265042D01*
X0506262Y0253255D01*
X0517657Y0252538D01*
X0518398Y0264325D01*
X0517324Y0248993D02*
X0506973Y0250301D01*
X0505997Y0250424D01*
X0504516Y0238707D01*
X0515843Y0237276D01*
X0517324Y0248993D01*
X0515284Y0233751D02*
X0505036Y0235706D01*
X0504069Y0235891D01*
X0501856Y0224289D01*
X0513071Y0222149D01*
X0515284Y0233751D01*
X0512288Y0218660D02*
X0502183Y0221255D01*
X0501229Y0221500D01*
X0498292Y0210060D01*
X0509351Y0207220D01*
X0512288Y0218660D01*
X0508354Y0203792D02*
X0498432Y0207016D01*
X0497496Y0207321D01*
X0493846Y0196088D01*
X0504704Y0192559D01*
X0508354Y0203792D01*
X0503502Y0189209D02*
X0493801Y0193050D01*
X0492886Y0193412D01*
X0488538Y0182431D01*
X0499154Y0178228D01*
X0503502Y0189209D01*
X0497730Y0174953D02*
X0488290Y0179395D01*
X0487399Y0179814D01*
X0482370Y0169127D01*
X0492701Y0164266D01*
X0497730Y0174953D01*
X0491088Y0161085D02*
X0481945Y0166111D01*
X0481082Y0166585D01*
X0475392Y0156235D01*
X0485398Y0150735D01*
X0491088Y0161085D01*
X0483574Y0147667D02*
X0474765Y0153258D01*
X0473934Y0153785D01*
X0467606Y0143813D01*
X0477246Y0137695D01*
X0483574Y0147667D01*
X0475250Y0134742D02*
X0466809Y0140875D01*
X0466013Y0141453D01*
X0459070Y0131898D01*
X0468307Y0125187D01*
X0475250Y0134742D01*
X0466113Y0122371D02*
X0458074Y0129022D01*
X0457316Y0129649D01*
X0449787Y0120549D01*
X0458584Y0113271D01*
X0466113Y0122371D01*
X0456224Y0110587D02*
X0448619Y0117729D01*
X0447901Y0118403D01*
X0439816Y0109793D01*
X0448139Y0101977D01*
X0456224Y0110587D01*
X0445623Y0099461D02*
X0438481Y0107067D01*
X0437807Y0107784D01*
X0429197Y0099699D01*
X0437013Y0091376D01*
X0445623Y0099461D01*
X0434329Y0089016D02*
X0427679Y0097055D01*
X0427051Y0097813D01*
X0417951Y0090284D01*
X0425229Y0081487D01*
X0434329Y0089016D01*
X0422413Y0079293D02*
X0416281Y0087733D01*
X0415702Y0088530D01*
X0406147Y0081587D01*
X0412858Y0072350D01*
X0422413Y0079293D01*
X0409905Y0070354D02*
X0404315Y0079163D01*
X0403787Y0079994D01*
X0393815Y0073666D01*
X0399933Y0064026D01*
X0409905Y0070354D01*
X0396865Y0062202D02*
X0391839Y0071345D01*
X0391365Y0072208D01*
X0381015Y0066518D01*
X0386515Y0056512D01*
X0396865Y0062202D01*
X0383334Y0054899D02*
X0378892Y0064339D01*
X0378473Y0065230D01*
X0367786Y0060201D01*
X0372647Y0049870D01*
X0383334Y0054899D01*
X0369372Y0048446D02*
X0365532Y0058147D01*
X0365169Y0059062D01*
X0354188Y0054714D01*
X0358391Y0044098D01*
X0369372Y0048446D01*
X0355041Y0042896D02*
X0351817Y0052818D01*
X0351512Y0053754D01*
X0340279Y0050104D01*
X0343808Y0039246D01*
X0355041Y0042896D01*
X0340380Y0038249D02*
X0337785Y0048355D01*
X0337540Y0049308D01*
X0326100Y0046371D01*
X0328940Y0035312D01*
X0340380Y0038249D01*
X0325451Y0034529D02*
X0323496Y0044777D01*
X0323311Y0045744D01*
X0311709Y0043531D01*
X0313849Y0032316D01*
X0325451Y0034529D01*
X0310324Y0031756D02*
X0309017Y0042107D01*
X0308893Y0043084D01*
X0297176Y0041603D01*
X0298607Y0030276D01*
X0310324Y0031756D01*
X0295062Y0029943D02*
X0294407Y0040356D01*
X0294345Y0041338D01*
X0282558Y0040597D01*
X0283275Y0029202D01*
X0295062Y0029943D01*
X0279706Y0029091D02*
X0279706Y0039524D01*
X0279706Y0040509D01*
X0267894Y0040509D01*
X0267894Y0029091D01*
X0279706Y0029091D01*
X0264325Y0029202D02*
X0264980Y0039614D01*
X0265042Y0040597D01*
X0253255Y0041338D01*
X0252538Y0029943D01*
X0264325Y0029202D01*
X0248993Y0030276D02*
X0250301Y0040627D01*
X0250424Y0041603D01*
X0238707Y0043084D01*
X0237276Y0031756D01*
X0248993Y0030276D01*
X0233751Y0032316D02*
X0235706Y0042564D01*
X0235891Y0043531D01*
X0224289Y0045744D01*
X0222149Y0034529D01*
X0233751Y0032316D01*
X0218660Y0035312D02*
X0221255Y0045417D01*
X0221500Y0046371D01*
X0210060Y0049308D01*
X0207220Y0038249D01*
X0218660Y0035312D01*
X0203792Y0039246D02*
X0207016Y0049168D01*
X0207321Y0050104D01*
X0196088Y0053754D01*
X0192559Y0042896D01*
X0203792Y0039246D01*
X0189209Y0044098D02*
X0193050Y0053799D01*
X0193412Y0054714D01*
X0182431Y0059062D01*
X0178228Y0048446D01*
X0189209Y0044098D01*
X0174953Y0049870D02*
X0179395Y0059310D01*
X0179814Y0060201D01*
X0169127Y0065230D01*
X0164266Y0054899D01*
X0174953Y0049870D01*
X0161085Y0056512D02*
X0166111Y0065655D01*
X0166585Y0066518D01*
X0156235Y0072208D01*
X0150735Y0062202D01*
X0161085Y0056512D01*
X0147667Y0064026D02*
X0153258Y0072835D01*
X0153785Y0073666D01*
X0143813Y0079994D01*
X0137695Y0070354D01*
X0147667Y0064026D01*
X0134742Y0072350D02*
X0140875Y0080791D01*
X0141453Y0081587D01*
X0131898Y0088530D01*
X0125187Y0079293D01*
X0134742Y0072350D01*
X0122371Y0081487D02*
X0129022Y0089526D01*
X0129649Y0090284D01*
X0120549Y0097813D01*
X0113271Y0089016D01*
X0122371Y0081487D01*
X0221646Y0184495D02*
X0232170Y0179132D01*
X0236907Y0188428D01*
X0237354Y0189305D01*
X0226830Y0194667D01*
X0221646Y0184495D01*
X0217922Y0186810D02*
X0224055Y0195251D01*
X0224633Y0196047D01*
X0215078Y0202990D01*
X0208367Y0193753D01*
X0217922Y0186810D01*
X0205039Y0196688D02*
X0212416Y0204065D01*
X0213112Y0204761D01*
X0204761Y0213112D01*
X0196688Y0205039D01*
X0205039Y0196688D01*
X0193753Y0208367D02*
X0202193Y0214499D01*
X0202990Y0215078D01*
X0196047Y0224633D01*
X0186810Y0217922D01*
X0193753Y0208367D01*
X0184495Y0221646D02*
X0193791Y0226383D01*
X0194667Y0226830D01*
X0189305Y0237354D01*
X0179132Y0232170D01*
X0184495Y0221646D01*
X0177496Y0236319D02*
X0187418Y0239543D01*
X0188354Y0239848D01*
X0184704Y0251081D01*
X0173846Y0247552D01*
X0177496Y0236319D01*
X0172785Y0251774D02*
X0183090Y0253406D01*
X0184062Y0253560D01*
X0182215Y0265226D01*
X0170938Y0263440D01*
X0172785Y0251774D01*
X0170591Y0267894D02*
X0181024Y0267894D01*
X0182009Y0267894D01*
X0182009Y0279706D01*
X0170591Y0279706D01*
X0170591Y0267894D01*
X0170938Y0284160D02*
X0181242Y0282528D01*
X0182215Y0282374D01*
X0184062Y0294040D01*
X0172785Y0295826D01*
X0170938Y0284160D01*
X0173846Y0300048D02*
X0183768Y0296824D01*
X0184704Y0296519D01*
X0188354Y0307752D01*
X0177496Y0311281D01*
X0173846Y0300048D01*
X0179132Y0315430D02*
X0188428Y0310693D01*
X0189305Y0310246D01*
X0194667Y0320770D01*
X0184495Y0325954D01*
X0179132Y0315430D01*
X0186810Y0329678D02*
X0195251Y0323545D01*
X0196047Y0322967D01*
X0202990Y0332522D01*
X0193753Y0339233D01*
X0186810Y0329678D01*
X0196688Y0342561D02*
X0204065Y0335184D01*
X0204761Y0334488D01*
X0213112Y0342839D01*
X0205039Y0350912D01*
X0196688Y0342561D01*
X0208367Y0353847D02*
X0214499Y0345407D01*
X0215078Y0344610D01*
X0224633Y0351553D01*
X0217922Y0360790D01*
X0208367Y0353847D01*
X0221646Y0363105D02*
X0226383Y0353809D01*
X0226830Y0352932D01*
X0237354Y0358295D01*
X0232170Y0368467D01*
X0221646Y0363105D01*
X0236319Y0370104D02*
X0239543Y0360182D01*
X0239848Y0359246D01*
X0251081Y0362896D01*
X0247552Y0373754D01*
X0236319Y0370104D01*
X0251774Y0374815D02*
X0253406Y0364510D01*
X0253560Y0363538D01*
X0265226Y0365385D01*
X0263440Y0376662D01*
X0251774Y0374815D01*
X0267894Y0377009D02*
X0267894Y0366576D01*
X0267894Y0365591D01*
X0279706Y0365591D01*
X0279706Y0377009D01*
X0267894Y0377009D01*
X0284160Y0376662D02*
X0282528Y0366358D01*
X0282374Y0365385D01*
X0294040Y0363538D01*
X0295826Y0374815D01*
X0284160Y0376662D01*
X0300048Y0373754D02*
X0296824Y0363832D01*
X0296519Y0362896D01*
X0307752Y0359246D01*
X0311281Y0370104D01*
X0300048Y0373754D01*
X0315430Y0368467D02*
X0310693Y0359172D01*
X0310246Y0358295D01*
X0320770Y0352932D01*
X0325954Y0363105D01*
X0315430Y0368467D01*
X0329678Y0360790D02*
X0323545Y0352349D01*
X0322967Y0351553D01*
X0332522Y0344610D01*
X0339233Y0353847D01*
X0329678Y0360790D01*
X0342561Y0350912D02*
X0335184Y0343535D01*
X0334488Y0342839D01*
X0342839Y0334488D01*
X0350912Y0342561D01*
X0342561Y0350912D01*
X0353847Y0339233D02*
X0345407Y0333101D01*
X0344610Y0332522D01*
X0351553Y0322967D01*
X0360790Y0329678D01*
X0353847Y0339233D01*
X0363105Y0325954D02*
X0353809Y0321217D01*
X0352932Y0320770D01*
X0358295Y0310246D01*
X0368467Y0315430D01*
X0363105Y0325954D01*
X0370104Y0311281D02*
X0360182Y0308057D01*
X0359246Y0307752D01*
X0362896Y0296519D01*
X0373754Y0300048D01*
X0370104Y0311281D01*
X0374815Y0295826D02*
X0364510Y0294194D01*
X0363538Y0294040D01*
X0365385Y0282374D01*
X0376662Y0284160D01*
X0374815Y0295826D01*
X0377009Y0279706D02*
X0366576Y0279706D01*
X0365591Y0279706D01*
X0365591Y0267894D01*
X0377009Y0267894D01*
X0377009Y0279706D01*
X0376662Y0263440D02*
X0366358Y0265072D01*
X0365385Y0265226D01*
X0363538Y0253560D01*
X0374815Y0251774D01*
X0376662Y0263440D01*
X0373754Y0247552D02*
X0363832Y0250776D01*
X0362896Y0251081D01*
X0359246Y0239848D01*
X0370104Y0236319D01*
X0373754Y0247552D01*
X0368467Y0232170D02*
X0359172Y0236907D01*
X0358295Y0237354D01*
X0352932Y0226830D01*
X0363105Y0221646D01*
X0368467Y0232170D01*
X0360790Y0217922D02*
X0352349Y0224055D01*
X0351553Y0224633D01*
X0344610Y0215078D01*
X0353847Y0208367D01*
X0360790Y0217922D01*
X0350912Y0205039D02*
X0343535Y0212416D01*
X0342839Y0213112D01*
X0334488Y0204761D01*
X0342561Y0196688D01*
X0350912Y0205039D01*
X0339233Y0193753D02*
X0333101Y0202193D01*
X0332522Y0202990D01*
X0322967Y0196047D01*
X0329678Y0186810D01*
X0339233Y0193753D01*
X0325954Y0184495D02*
X0321217Y0193791D01*
X0320770Y0194667D01*
X0310246Y0189305D01*
X0315430Y0179132D01*
X0325954Y0184495D01*
X0311281Y0177496D02*
X0308057Y0187418D01*
X0307752Y0188354D01*
X0296519Y0184704D01*
X0300048Y0173846D01*
X0311281Y0177496D01*
X0295826Y0172785D02*
X0294194Y0183090D01*
X0294040Y0184062D01*
X0282374Y0182215D01*
X0284160Y0170938D01*
X0295826Y0172785D01*
X0279706Y0170591D02*
X0279706Y0181024D01*
X0279706Y0182009D01*
X0267894Y0182009D01*
X0267894Y0170591D01*
X0279706Y0170591D01*
X0263440Y0170938D02*
X0265072Y0181242D01*
X0265226Y0182215D01*
X0253560Y0184062D01*
X0251774Y0172785D01*
X0263440Y0170938D01*
X0247552Y0173846D02*
X0250776Y0183768D01*
X0251081Y0184704D01*
X0239848Y0188354D01*
X0236319Y0177496D01*
X0247552Y0173846D01*
X0262952Y0221346D02*
X0266176Y0231268D01*
X0266481Y0232204D01*
X0255248Y0235854D01*
X0251719Y0224996D01*
X0262952Y0221346D01*
X0267894Y0220591D02*
X0279706Y0220591D01*
X0279706Y0231024D01*
X0279706Y0232009D01*
X0267894Y0232009D01*
X0267894Y0220591D01*
X0284648Y0221346D02*
X0295881Y0224996D01*
X0292657Y0234918D01*
X0292352Y0235854D01*
X0281119Y0232204D01*
X0284648Y0221346D01*
X0300278Y0227310D02*
X0293567Y0236547D01*
X0303122Y0243490D01*
X0303701Y0242693D01*
X0309833Y0234253D01*
X0300278Y0227310D01*
X0313347Y0237767D02*
X0304110Y0244478D01*
X0311053Y0254033D01*
X0311849Y0253455D01*
X0320290Y0247322D01*
X0313347Y0237767D01*
X0322604Y0251719D02*
X0326254Y0262952D01*
X0316332Y0266176D01*
X0315396Y0266481D01*
X0311746Y0255248D01*
X0322604Y0251719D01*
X0327009Y0267894D02*
X0315591Y0267894D01*
X0315591Y0279706D01*
X0316576Y0279706D01*
X0327009Y0279706D01*
X0327009Y0267894D01*
X0326254Y0284648D02*
X0315396Y0281119D01*
X0311746Y0292352D01*
X0312682Y0292657D01*
X0322604Y0295881D01*
X0326254Y0284648D01*
X0320290Y0300278D02*
X0313347Y0309833D01*
X0304907Y0303701D01*
X0304110Y0303122D01*
X0311053Y0293567D01*
X0320290Y0300278D01*
X0309833Y0313347D02*
X0300278Y0320290D01*
X0294145Y0311849D01*
X0293567Y0311053D01*
X0303122Y0304110D01*
X0309833Y0313347D01*
X0295881Y0322604D02*
X0284648Y0326254D01*
X0281424Y0316332D01*
X0281119Y0315396D01*
X0292352Y0311746D01*
X0295881Y0322604D01*
X0279706Y0327009D02*
X0279706Y0315591D01*
X0267894Y0315591D01*
X0267894Y0316576D01*
X0267894Y0327009D01*
X0279706Y0327009D01*
X0262952Y0326254D02*
X0266481Y0315396D01*
X0255248Y0311746D01*
X0254943Y0312682D01*
X0251719Y0322604D01*
X0262952Y0326254D01*
X0247322Y0320290D02*
X0254033Y0311053D01*
X0244478Y0304110D01*
X0243899Y0304907D01*
X0237767Y0313347D01*
X0247322Y0320290D01*
X0234253Y0309833D02*
X0243490Y0303122D01*
X0236547Y0293567D01*
X0235751Y0294145D01*
X0227310Y0300278D01*
X0234253Y0309833D01*
X0224996Y0295881D02*
X0221346Y0284648D01*
X0231268Y0281424D01*
X0232204Y0281119D01*
X0235854Y0292352D01*
X0224996Y0295881D01*
X0220591Y0279706D02*
X0220591Y0267894D01*
X0231024Y0267894D01*
X0232009Y0267894D01*
X0232009Y0279706D01*
X0220591Y0279706D01*
X0221346Y0262952D02*
X0224996Y0251719D01*
X0234918Y0254943D01*
X0235854Y0255248D01*
X0232204Y0266481D01*
X0221346Y0262952D01*
X0227310Y0247322D02*
X0234253Y0237767D01*
X0242693Y0243899D01*
X0243490Y0244478D01*
X0236547Y0254033D01*
X0227310Y0247322D01*
X0237767Y0234253D02*
X0247322Y0227310D01*
X0253455Y0235751D01*
X0254033Y0236547D01*
X0244478Y0243490D01*
X0237767Y0234253D01*
D11*
X0242693Y0243899D02*
X0240379Y0247084D01*
X0240698Y0247316D01*
X0241016Y0247547D01*
X0243330Y0244362D01*
X0242693Y0243899D01*
X0242780Y0244449D02*
X0240698Y0247316D01*
X0235667Y0255187D02*
X0234918Y0254943D01*
X0233701Y0258688D01*
X0234076Y0258809D01*
X0234450Y0258931D01*
X0235667Y0255187D01*
X0235171Y0255440D02*
X0234076Y0258809D01*
X0231812Y0267894D02*
X0231024Y0267894D01*
X0231024Y0271831D01*
X0231418Y0271831D01*
X0231812Y0271831D01*
X0231812Y0267894D01*
X0231418Y0268288D02*
X0231418Y0271831D01*
X0232017Y0281180D02*
X0231268Y0281424D01*
X0232485Y0285168D01*
X0232859Y0285046D01*
X0233234Y0284925D01*
X0232017Y0281180D01*
X0231764Y0281676D02*
X0232859Y0285046D01*
X0236388Y0293683D02*
X0235751Y0294145D01*
X0238065Y0297330D01*
X0238384Y0297099D01*
X0238702Y0296868D01*
X0236388Y0293683D01*
X0236301Y0294232D02*
X0238384Y0297099D01*
X0244362Y0304270D02*
X0243899Y0304907D01*
X0247084Y0307221D01*
X0247316Y0306902D01*
X0247547Y0306584D01*
X0244362Y0304270D01*
X0244449Y0304820D02*
X0247316Y0306902D01*
X0255187Y0311933D02*
X0254943Y0312682D01*
X0258688Y0313899D01*
X0258809Y0313524D01*
X0258931Y0313150D01*
X0255187Y0311933D01*
X0255440Y0312429D02*
X0258809Y0313524D01*
X0267894Y0315788D02*
X0267894Y0316576D01*
X0271831Y0316576D01*
X0271831Y0316182D01*
X0271831Y0315788D01*
X0267894Y0315788D01*
X0268288Y0316182D02*
X0271831Y0316182D01*
X0281180Y0315583D02*
X0281424Y0316332D01*
X0285168Y0315115D01*
X0285046Y0314741D01*
X0284925Y0314366D01*
X0281180Y0315583D01*
X0281676Y0315836D02*
X0285046Y0314741D01*
X0293683Y0311212D02*
X0294145Y0311849D01*
X0297330Y0309535D01*
X0297099Y0309216D01*
X0296868Y0308898D01*
X0293683Y0311212D01*
X0294232Y0311299D02*
X0297099Y0309216D01*
X0304270Y0303238D02*
X0304907Y0303701D01*
X0307221Y0300516D01*
X0306902Y0300284D01*
X0306584Y0300053D01*
X0304270Y0303238D01*
X0304820Y0303151D02*
X0306902Y0300284D01*
X0311933Y0292413D02*
X0312682Y0292657D01*
X0313899Y0288912D01*
X0313524Y0288791D01*
X0313150Y0288669D01*
X0311933Y0292413D01*
X0312429Y0292160D02*
X0313524Y0288791D01*
X0315788Y0279706D02*
X0316576Y0279706D01*
X0316576Y0275769D01*
X0316182Y0275769D01*
X0315788Y0275769D01*
X0315788Y0279706D01*
X0316182Y0279312D02*
X0316182Y0275769D01*
X0315583Y0266420D02*
X0316332Y0266176D01*
X0315115Y0262432D01*
X0314741Y0262554D01*
X0314366Y0262675D01*
X0315583Y0266420D01*
X0315836Y0265924D02*
X0314741Y0262554D01*
X0311212Y0253917D02*
X0311849Y0253455D01*
X0309535Y0250269D01*
X0309216Y0250501D01*
X0308898Y0250732D01*
X0311212Y0253917D01*
X0311299Y0253367D02*
X0309216Y0250501D01*
X0303238Y0243330D02*
X0303701Y0242693D01*
X0300516Y0240379D01*
X0300284Y0240698D01*
X0300053Y0241016D01*
X0303238Y0243330D01*
X0303151Y0242780D02*
X0300284Y0240698D01*
X0292413Y0235667D02*
X0292657Y0234918D01*
X0288912Y0233701D01*
X0288791Y0234076D01*
X0288669Y0234450D01*
X0292413Y0235667D01*
X0292160Y0235171D02*
X0288791Y0234076D01*
X0279706Y0231812D02*
X0279706Y0231024D01*
X0275769Y0231024D01*
X0275769Y0231418D01*
X0275769Y0231812D01*
X0279706Y0231812D01*
X0279312Y0231418D02*
X0275769Y0231418D01*
X0266420Y0232017D02*
X0266176Y0231268D01*
X0262432Y0232485D01*
X0262554Y0232859D01*
X0262675Y0233234D01*
X0266420Y0232017D01*
X0265924Y0231764D02*
X0262554Y0232859D01*
X0253917Y0236388D02*
X0253455Y0235751D01*
X0250269Y0238065D01*
X0250501Y0238384D01*
X0250732Y0238702D01*
X0253917Y0236388D01*
X0253367Y0236301D02*
X0250501Y0238384D01*
X0221332Y0198202D02*
X0224517Y0195888D01*
X0224055Y0195251D01*
X0220869Y0197565D01*
X0221101Y0197884D01*
X0221332Y0198202D01*
X0221101Y0197884D02*
X0223967Y0195801D01*
X0233756Y0190917D02*
X0237264Y0189130D01*
X0236907Y0188428D01*
X0233399Y0190216D01*
X0233578Y0190567D01*
X0233756Y0190917D01*
X0233578Y0190567D02*
X0236735Y0188958D01*
X0247275Y0185734D02*
X0251020Y0184517D01*
X0250776Y0183768D01*
X0247032Y0184985D01*
X0247154Y0185359D01*
X0247275Y0185734D01*
X0247154Y0185359D02*
X0250524Y0184264D01*
X0261306Y0182636D02*
X0265195Y0182020D01*
X0265072Y0181242D01*
X0261183Y0181858D01*
X0261245Y0182247D01*
X0261306Y0182636D01*
X0261245Y0182247D02*
X0264745Y0181693D01*
X0275769Y0181812D02*
X0279706Y0181812D01*
X0279706Y0181024D01*
X0275769Y0181024D01*
X0275769Y0181418D01*
X0275769Y0181812D01*
X0275769Y0181418D02*
X0279312Y0181418D01*
X0290182Y0183252D02*
X0294071Y0183868D01*
X0294194Y0183090D01*
X0290305Y0182474D01*
X0290244Y0182863D01*
X0290182Y0183252D01*
X0290244Y0182863D02*
X0293743Y0183417D01*
X0304069Y0186950D02*
X0307813Y0188167D01*
X0308057Y0187418D01*
X0304312Y0186201D01*
X0304191Y0186576D01*
X0304069Y0186950D01*
X0304191Y0186576D02*
X0307560Y0187671D01*
X0317352Y0192705D02*
X0320860Y0194492D01*
X0321217Y0193791D01*
X0317709Y0192003D01*
X0317530Y0192354D01*
X0317352Y0192705D01*
X0317530Y0192354D02*
X0320687Y0193963D01*
X0329453Y0200516D02*
X0332638Y0202830D01*
X0333101Y0202193D01*
X0329916Y0199879D01*
X0329684Y0200198D01*
X0329453Y0200516D01*
X0329684Y0200198D02*
X0332551Y0202280D01*
X0340195Y0210189D02*
X0342978Y0212973D01*
X0343535Y0212416D01*
X0340751Y0209633D01*
X0340473Y0209911D01*
X0340195Y0210189D01*
X0340473Y0209911D02*
X0342978Y0212416D01*
X0349398Y0221332D02*
X0351712Y0224517D01*
X0352349Y0224055D01*
X0350035Y0220869D01*
X0349716Y0221101D01*
X0349398Y0221332D01*
X0349716Y0221101D02*
X0351799Y0223967D01*
X0356683Y0233756D02*
X0358470Y0237264D01*
X0359172Y0236907D01*
X0357384Y0233399D01*
X0357033Y0233578D01*
X0356683Y0233756D01*
X0357033Y0233578D02*
X0358642Y0236735D01*
X0361866Y0247275D02*
X0363083Y0251020D01*
X0363832Y0250776D01*
X0362615Y0247032D01*
X0362241Y0247154D01*
X0361866Y0247275D01*
X0362241Y0247154D02*
X0363336Y0250524D01*
X0364964Y0261306D02*
X0365580Y0265195D01*
X0366358Y0265072D01*
X0365742Y0261183D01*
X0365353Y0261245D01*
X0364964Y0261306D01*
X0365353Y0261245D02*
X0365907Y0264745D01*
X0365788Y0275769D02*
X0365788Y0279706D01*
X0366576Y0279706D01*
X0366576Y0275769D01*
X0366182Y0275769D01*
X0365788Y0275769D01*
X0366182Y0275769D02*
X0366182Y0279312D01*
X0364348Y0290182D02*
X0363732Y0294071D01*
X0364510Y0294194D01*
X0365126Y0290305D01*
X0364737Y0290244D01*
X0364348Y0290182D01*
X0364737Y0290244D02*
X0364183Y0293743D01*
X0360650Y0304069D02*
X0359433Y0307813D01*
X0360182Y0308057D01*
X0361399Y0304312D01*
X0361024Y0304191D01*
X0360650Y0304069D01*
X0361024Y0304191D02*
X0359929Y0307560D01*
X0354895Y0317352D02*
X0353108Y0320860D01*
X0353809Y0321217D01*
X0355597Y0317709D01*
X0355246Y0317530D01*
X0354895Y0317352D01*
X0355246Y0317530D02*
X0353637Y0320687D01*
X0347084Y0329453D02*
X0344770Y0332638D01*
X0345407Y0333101D01*
X0347721Y0329916D01*
X0347402Y0329684D01*
X0347084Y0329453D01*
X0347402Y0329684D02*
X0345320Y0332551D01*
X0337411Y0340195D02*
X0334627Y0342978D01*
X0335184Y0343535D01*
X0337967Y0340751D01*
X0337689Y0340473D01*
X0337411Y0340195D01*
X0337689Y0340473D02*
X0335184Y0342978D01*
X0326268Y0349398D02*
X0323083Y0351712D01*
X0323545Y0352349D01*
X0326730Y0350035D01*
X0326499Y0349716D01*
X0326268Y0349398D01*
X0326499Y0349716D02*
X0323632Y0351799D01*
X0313844Y0356683D02*
X0310336Y0358470D01*
X0310693Y0359172D01*
X0314201Y0357384D01*
X0314022Y0357033D01*
X0313844Y0356683D01*
X0314022Y0357033D02*
X0310865Y0358642D01*
X0300325Y0361866D02*
X0296580Y0363083D01*
X0296824Y0363832D01*
X0300568Y0362615D01*
X0300446Y0362241D01*
X0300325Y0361866D01*
X0300446Y0362241D02*
X0297076Y0363336D01*
X0286293Y0364964D02*
X0282405Y0365580D01*
X0282528Y0366358D01*
X0286417Y0365742D01*
X0286355Y0365353D01*
X0286293Y0364964D01*
X0286355Y0365353D02*
X0282855Y0365907D01*
X0271831Y0365788D02*
X0267894Y0365788D01*
X0267894Y0366576D01*
X0271831Y0366576D01*
X0271831Y0366182D01*
X0271831Y0365788D01*
X0271831Y0366182D02*
X0268288Y0366182D01*
X0257418Y0364348D02*
X0253529Y0363732D01*
X0253406Y0364510D01*
X0257295Y0365126D01*
X0257356Y0364737D01*
X0257418Y0364348D01*
X0257356Y0364737D02*
X0253857Y0364183D01*
X0243531Y0360650D02*
X0239787Y0359433D01*
X0239543Y0360182D01*
X0243288Y0361399D01*
X0243409Y0361024D01*
X0243531Y0360650D01*
X0243409Y0361024D02*
X0240040Y0359929D01*
X0230248Y0354895D02*
X0226740Y0353108D01*
X0226383Y0353809D01*
X0229891Y0355597D01*
X0230070Y0355246D01*
X0230248Y0354895D01*
X0230070Y0355246D02*
X0226913Y0353637D01*
X0218147Y0347084D02*
X0214962Y0344770D01*
X0214499Y0345407D01*
X0217684Y0347721D01*
X0217916Y0347402D01*
X0218147Y0347084D01*
X0217916Y0347402D02*
X0215049Y0345320D01*
X0207405Y0337411D02*
X0204622Y0334627D01*
X0204065Y0335184D01*
X0206849Y0337967D01*
X0207127Y0337689D01*
X0207405Y0337411D01*
X0207127Y0337689D02*
X0204622Y0335184D01*
X0198202Y0326268D02*
X0195888Y0323083D01*
X0195251Y0323545D01*
X0197565Y0326730D01*
X0197884Y0326499D01*
X0198202Y0326268D01*
X0197884Y0326499D02*
X0195801Y0323632D01*
X0190917Y0313844D02*
X0189130Y0310336D01*
X0188428Y0310693D01*
X0190216Y0314201D01*
X0190567Y0314022D01*
X0190917Y0313844D01*
X0190567Y0314022D02*
X0188958Y0310865D01*
X0185734Y0300325D02*
X0184517Y0296580D01*
X0183768Y0296824D01*
X0184985Y0300568D01*
X0185359Y0300446D01*
X0185734Y0300325D01*
X0185359Y0300446D02*
X0184264Y0297076D01*
X0182636Y0286293D02*
X0182020Y0282405D01*
X0181242Y0282528D01*
X0181858Y0286417D01*
X0182247Y0286355D01*
X0182636Y0286293D01*
X0182247Y0286355D02*
X0181693Y0282855D01*
X0181812Y0271831D02*
X0181812Y0267894D01*
X0181024Y0267894D01*
X0181024Y0271831D01*
X0181418Y0271831D01*
X0181812Y0271831D01*
X0181418Y0271831D02*
X0181418Y0268288D01*
X0183252Y0257418D02*
X0183868Y0253529D01*
X0183090Y0253406D01*
X0182474Y0257295D01*
X0182863Y0257356D01*
X0183252Y0257418D01*
X0182863Y0257356D02*
X0183417Y0253857D01*
X0186950Y0243531D02*
X0188167Y0239787D01*
X0187418Y0239543D01*
X0186201Y0243288D01*
X0186576Y0243409D01*
X0186950Y0243531D01*
X0186576Y0243409D02*
X0187671Y0240040D01*
X0192705Y0230248D02*
X0194492Y0226740D01*
X0193791Y0226383D01*
X0192003Y0229891D01*
X0192354Y0230070D01*
X0192705Y0230248D01*
X0192354Y0230070D02*
X0193963Y0226913D01*
X0200516Y0218147D02*
X0202830Y0214962D01*
X0202193Y0214499D01*
X0199879Y0217684D01*
X0200198Y0217916D01*
X0200516Y0218147D01*
X0200198Y0217916D02*
X0202280Y0215049D01*
X0210189Y0207405D02*
X0212973Y0204622D01*
X0212416Y0204065D01*
X0209633Y0206849D01*
X0209911Y0207127D01*
X0210189Y0207405D01*
X0209911Y0207127D02*
X0212416Y0204622D01*
X0115398Y0102250D02*
X0118268Y0099555D01*
X0117729Y0098981D01*
X0114859Y0101676D01*
X0115129Y0101963D01*
X0115398Y0102250D01*
X0115129Y0101963D02*
X0117712Y0099538D01*
X0126239Y0092339D02*
X0125988Y0092035D01*
X0129022Y0089526D01*
X0129524Y0090133D01*
X0126490Y0092642D01*
X0126239Y0092339D01*
X0128969Y0090080D01*
X0137921Y0083424D02*
X0140788Y0081341D01*
X0141337Y0081428D02*
X0140875Y0080791D01*
X0137689Y0083105D01*
X0137921Y0083424D01*
X0138152Y0083742D01*
X0141337Y0081428D01*
X0150355Y0075609D02*
X0153680Y0073499D01*
X0153258Y0072835D01*
X0149934Y0074944D01*
X0150144Y0075277D01*
X0150355Y0075609D01*
X0150144Y0075277D02*
X0153136Y0073378D01*
X0162851Y0067897D02*
X0162661Y0067552D01*
X0166111Y0065655D01*
X0166490Y0066345D01*
X0163040Y0068242D01*
X0162851Y0067897D01*
X0165956Y0066190D01*
X0176000Y0061343D02*
X0179206Y0059834D01*
X0179395Y0059310D02*
X0175833Y0060987D01*
X0176000Y0061343D01*
X0176168Y0061699D01*
X0179730Y0060023D01*
X0179395Y0059310D01*
X0189389Y0055248D02*
X0189534Y0055614D01*
X0189679Y0055980D01*
X0193340Y0054531D01*
X0193050Y0053799D01*
X0189389Y0055248D01*
X0189534Y0055614D02*
X0192829Y0054310D01*
X0203394Y0050759D02*
X0203272Y0050385D01*
X0207016Y0049168D01*
X0207260Y0049917D01*
X0203515Y0051134D01*
X0203394Y0050759D01*
X0206764Y0049664D01*
X0217539Y0046778D02*
X0217442Y0046396D01*
X0221255Y0045417D01*
X0221451Y0046180D01*
X0217637Y0047159D01*
X0217539Y0046778D01*
X0220971Y0045897D01*
X0231913Y0043689D02*
X0231839Y0043302D01*
X0235706Y0042564D01*
X0235854Y0043338D01*
X0231986Y0044075D01*
X0231913Y0043689D01*
X0235393Y0043025D01*
X0246444Y0041511D02*
X0246395Y0041120D01*
X0250301Y0040627D01*
X0250400Y0041408D01*
X0246494Y0041902D01*
X0246444Y0041511D01*
X0249960Y0041067D01*
X0261076Y0040254D02*
X0261051Y0039861D01*
X0264980Y0039614D01*
X0265030Y0040400D01*
X0261101Y0040647D01*
X0261076Y0040254D01*
X0264612Y0040032D01*
X0275769Y0039918D02*
X0275769Y0039524D01*
X0279706Y0039524D01*
X0279706Y0040312D01*
X0275769Y0040312D01*
X0275769Y0039918D01*
X0279312Y0039918D01*
X0290453Y0040502D02*
X0290478Y0040109D01*
X0294407Y0040356D01*
X0294358Y0041142D01*
X0290429Y0040895D01*
X0290453Y0040502D01*
X0293990Y0040724D01*
X0305062Y0042004D02*
X0305111Y0041614D01*
X0309017Y0042107D01*
X0308918Y0042888D01*
X0305012Y0042395D01*
X0305062Y0042004D01*
X0308577Y0042449D01*
X0319555Y0044426D02*
X0319628Y0044040D01*
X0323496Y0044777D01*
X0323348Y0045551D01*
X0319481Y0044813D01*
X0319555Y0044426D01*
X0323035Y0045090D01*
X0333874Y0047757D02*
X0333972Y0047376D01*
X0337785Y0048355D01*
X0337589Y0049117D01*
X0333776Y0048138D01*
X0333874Y0047757D01*
X0337306Y0048638D01*
X0347951Y0051976D02*
X0348072Y0051601D01*
X0351817Y0052818D01*
X0351573Y0053567D01*
X0347829Y0052350D01*
X0347951Y0051976D01*
X0351320Y0053071D01*
X0361726Y0057063D02*
X0361871Y0056697D01*
X0365532Y0058147D01*
X0365242Y0058879D01*
X0361581Y0057429D01*
X0361726Y0057063D01*
X0365021Y0058368D01*
X0375162Y0063019D02*
X0375330Y0062663D01*
X0378892Y0064339D01*
X0378557Y0065052D01*
X0374994Y0063375D01*
X0375162Y0063019D01*
X0378368Y0064528D01*
X0388199Y0069793D02*
X0388389Y0069448D01*
X0391839Y0071345D01*
X0391460Y0072035D01*
X0388010Y0070138D01*
X0388199Y0069793D01*
X0391304Y0071500D01*
X0400780Y0077386D02*
X0400991Y0077054D01*
X0404315Y0079163D01*
X0403893Y0079828D01*
X0400569Y0077719D01*
X0400780Y0077386D01*
X0403771Y0079285D01*
X0412864Y0085738D02*
X0415731Y0087820D01*
X0415818Y0088370D02*
X0416281Y0087733D01*
X0413096Y0085419D01*
X0412864Y0085738D01*
X0412633Y0086056D01*
X0415818Y0088370D01*
X0424143Y0095152D02*
X0427177Y0097661D01*
X0427679Y0097055D01*
X0424645Y0094545D01*
X0424394Y0094848D01*
X0424143Y0095152D01*
X0424394Y0094848D02*
X0427125Y0097107D01*
X0435341Y0104658D02*
X0435611Y0104371D01*
X0438481Y0107067D01*
X0437942Y0107641D01*
X0435072Y0104945D01*
X0435341Y0104658D01*
X0437924Y0107084D01*
X0445637Y0115129D02*
X0445924Y0114859D01*
X0448619Y0117729D01*
X0448045Y0118268D01*
X0445350Y0115398D01*
X0445637Y0115129D01*
X0448062Y0117712D01*
X0455261Y0126239D02*
X0455565Y0125988D01*
X0458074Y0129022D01*
X0457467Y0129524D01*
X0454958Y0126490D01*
X0455261Y0126239D01*
X0457520Y0128969D01*
X0464176Y0137921D02*
X0464495Y0137689D01*
X0466809Y0140875D01*
X0466172Y0141337D01*
X0463858Y0138152D01*
X0464176Y0137921D01*
X0466259Y0140788D01*
X0472323Y0150144D02*
X0472656Y0149934D01*
X0474765Y0153258D01*
X0474101Y0153680D01*
X0471991Y0150355D01*
X0472323Y0150144D01*
X0474222Y0153136D01*
X0479703Y0162851D02*
X0480048Y0162661D01*
X0481945Y0166111D01*
X0481255Y0166490D01*
X0479358Y0163040D01*
X0479703Y0162851D01*
X0481410Y0165956D01*
X0486257Y0176000D02*
X0486613Y0175833D01*
X0488290Y0179395D01*
X0487577Y0179730D01*
X0485901Y0176168D01*
X0486257Y0176000D01*
X0487766Y0179206D01*
X0491986Y0189534D02*
X0492352Y0189389D01*
X0493801Y0193050D01*
X0493069Y0193340D01*
X0491620Y0189679D01*
X0491986Y0189534D01*
X0493290Y0192829D01*
X0496841Y0203394D02*
X0497215Y0203272D01*
X0498432Y0207016D01*
X0497683Y0207260D01*
X0496466Y0203515D01*
X0496841Y0203394D01*
X0497936Y0206764D01*
X0500822Y0217539D02*
X0501204Y0217442D01*
X0502183Y0221255D01*
X0501420Y0221451D01*
X0500441Y0217637D01*
X0500822Y0217539D01*
X0501703Y0220971D01*
X0503911Y0231913D02*
X0503525Y0231986D01*
X0504262Y0235854D01*
X0505036Y0235706D01*
X0504298Y0231839D01*
X0503911Y0231913D01*
X0504575Y0235393D01*
X0506089Y0246444D02*
X0506480Y0246395D01*
X0506973Y0250301D01*
X0506192Y0250400D01*
X0505698Y0246494D01*
X0506089Y0246444D01*
X0506533Y0249960D01*
X0507346Y0261076D02*
X0507739Y0261051D01*
X0507986Y0264980D01*
X0507200Y0265030D01*
X0506953Y0261101D01*
X0507346Y0261076D01*
X0507568Y0264612D01*
X0507682Y0275769D02*
X0508076Y0275769D01*
X0508076Y0279706D01*
X0507288Y0279706D01*
X0507288Y0275769D01*
X0507682Y0275769D01*
X0507682Y0279312D01*
X0507098Y0290453D02*
X0507491Y0290478D01*
X0507244Y0294407D01*
X0506458Y0294358D01*
X0506705Y0290429D01*
X0507098Y0290453D01*
X0506876Y0293990D01*
X0505596Y0305062D02*
X0505986Y0305111D01*
X0505493Y0309017D01*
X0504711Y0308918D01*
X0505205Y0305012D01*
X0505596Y0305062D01*
X0505151Y0308577D01*
X0503174Y0319555D02*
X0503560Y0319628D01*
X0502823Y0323496D01*
X0502049Y0323348D01*
X0502787Y0319481D01*
X0503174Y0319555D01*
X0502510Y0323035D01*
X0499843Y0333874D02*
X0500224Y0333972D01*
X0499245Y0337785D01*
X0498483Y0337589D01*
X0499462Y0333776D01*
X0499843Y0333874D01*
X0498962Y0337306D01*
X0495624Y0347951D02*
X0495999Y0348072D01*
X0494782Y0351817D01*
X0494033Y0351573D01*
X0495250Y0347829D01*
X0495624Y0347951D01*
X0494529Y0351320D01*
X0490537Y0361726D02*
X0490903Y0361871D01*
X0489453Y0365532D01*
X0488721Y0365242D01*
X0490171Y0361581D01*
X0490537Y0361726D01*
X0489232Y0365021D01*
X0484581Y0375162D02*
X0484937Y0375330D01*
X0483261Y0378892D01*
X0482548Y0378557D01*
X0484225Y0374994D01*
X0484581Y0375162D01*
X0483072Y0378368D01*
X0477807Y0388199D02*
X0478152Y0388389D01*
X0476255Y0391839D01*
X0475565Y0391460D01*
X0477462Y0388010D01*
X0477807Y0388199D01*
X0476100Y0391304D01*
X0470214Y0400780D02*
X0470546Y0400991D01*
X0468437Y0404315D01*
X0467772Y0403893D01*
X0469881Y0400569D01*
X0470214Y0400780D01*
X0468315Y0403771D01*
X0461862Y0412864D02*
X0459780Y0415731D01*
X0459230Y0415818D02*
X0459867Y0416281D01*
X0462181Y0413096D01*
X0461862Y0412864D01*
X0461544Y0412633D01*
X0459230Y0415818D01*
X0452448Y0424143D02*
X0449939Y0427177D01*
X0450545Y0427679D01*
X0453055Y0424645D01*
X0452752Y0424394D01*
X0452448Y0424143D01*
X0452752Y0424394D02*
X0450493Y0427125D01*
X0442942Y0435341D02*
X0443229Y0435611D01*
X0440533Y0438481D01*
X0439959Y0437942D01*
X0442655Y0435072D01*
X0442942Y0435341D01*
X0440516Y0437924D01*
X0432471Y0445637D02*
X0432741Y0445924D01*
X0429871Y0448619D01*
X0429332Y0448045D01*
X0432202Y0445350D01*
X0432471Y0445637D01*
X0429888Y0448062D01*
X0421361Y0455261D02*
X0421612Y0455565D01*
X0418578Y0458074D01*
X0418076Y0457467D01*
X0421110Y0454958D01*
X0421361Y0455261D01*
X0418631Y0457520D01*
X0409679Y0464176D02*
X0406812Y0466259D01*
X0406263Y0466172D02*
X0406725Y0466809D01*
X0409910Y0464495D01*
X0409679Y0464176D01*
X0409448Y0463858D01*
X0406263Y0466172D01*
X0397245Y0471991D02*
X0393920Y0474101D01*
X0394342Y0474765D01*
X0397666Y0472656D01*
X0397456Y0472323D01*
X0397245Y0471991D01*
X0397456Y0472323D02*
X0394464Y0474222D01*
X0384749Y0479703D02*
X0384939Y0480048D01*
X0381489Y0481945D01*
X0381110Y0481255D01*
X0384560Y0479358D01*
X0384749Y0479703D01*
X0381644Y0481410D01*
X0371600Y0486257D02*
X0368394Y0487766D01*
X0368205Y0488290D02*
X0371767Y0486613D01*
X0371600Y0486257D01*
X0371432Y0485901D01*
X0367870Y0487577D01*
X0368205Y0488290D01*
X0358211Y0492352D02*
X0358066Y0491986D01*
X0357921Y0491620D01*
X0354260Y0493069D01*
X0354550Y0493801D01*
X0358211Y0492352D01*
X0358066Y0491986D02*
X0354771Y0493290D01*
X0344206Y0496841D02*
X0344328Y0497215D01*
X0340584Y0498432D01*
X0340340Y0497683D01*
X0344085Y0496466D01*
X0344206Y0496841D01*
X0340836Y0497936D01*
X0330061Y0500822D02*
X0330158Y0501204D01*
X0326345Y0502183D01*
X0326149Y0501420D01*
X0329963Y0500441D01*
X0330061Y0500822D01*
X0326629Y0501703D01*
X0315687Y0503911D02*
X0315614Y0503525D01*
X0311746Y0504262D01*
X0311894Y0505036D01*
X0315761Y0504298D01*
X0315687Y0503911D01*
X0312207Y0504575D01*
X0301156Y0506089D02*
X0301205Y0506480D01*
X0297299Y0506973D01*
X0297200Y0506192D01*
X0301106Y0505698D01*
X0301156Y0506089D01*
X0297640Y0506533D01*
X0286524Y0507346D02*
X0286549Y0507739D01*
X0282620Y0507986D01*
X0282570Y0507200D01*
X0286499Y0506953D01*
X0286524Y0507346D01*
X0282988Y0507568D01*
X0271831Y0507682D02*
X0271831Y0508076D01*
X0267894Y0508076D01*
X0267894Y0507288D01*
X0271831Y0507288D01*
X0271831Y0507682D01*
X0268288Y0507682D01*
X0257147Y0507098D02*
X0257122Y0507491D01*
X0253193Y0507244D01*
X0253242Y0506458D01*
X0257171Y0506705D01*
X0257147Y0507098D01*
X0253610Y0506876D01*
X0242538Y0505596D02*
X0242489Y0505986D01*
X0238583Y0505493D01*
X0238682Y0504711D01*
X0242588Y0505205D01*
X0242538Y0505596D01*
X0239023Y0505151D01*
X0228045Y0503174D02*
X0227972Y0503560D01*
X0224104Y0502823D01*
X0224252Y0502049D01*
X0228119Y0502787D01*
X0228045Y0503174D01*
X0224565Y0502510D01*
X0213726Y0499843D02*
X0213628Y0500224D01*
X0209815Y0499245D01*
X0210011Y0498483D01*
X0213824Y0499462D01*
X0213726Y0499843D01*
X0210294Y0498962D01*
X0199649Y0495624D02*
X0199528Y0495999D01*
X0195783Y0494782D01*
X0196027Y0494033D01*
X0199771Y0495250D01*
X0199649Y0495624D01*
X0196280Y0494529D01*
X0185874Y0490537D02*
X0185729Y0490903D01*
X0182068Y0489453D01*
X0182358Y0488721D01*
X0186019Y0490171D01*
X0185874Y0490537D01*
X0182579Y0489232D01*
X0172438Y0484581D02*
X0172270Y0484937D01*
X0168708Y0483261D01*
X0169043Y0482548D01*
X0172606Y0484225D01*
X0172438Y0484581D01*
X0169232Y0483072D01*
X0159401Y0477807D02*
X0159211Y0478152D01*
X0155761Y0476255D01*
X0156140Y0475565D01*
X0159590Y0477462D01*
X0159401Y0477807D01*
X0156296Y0476100D01*
X0146820Y0470214D02*
X0146609Y0470546D01*
X0143285Y0468437D01*
X0143707Y0467772D01*
X0147031Y0469881D01*
X0146820Y0470214D01*
X0143829Y0468315D01*
X0134736Y0461862D02*
X0131869Y0459780D01*
X0131782Y0459230D02*
X0131319Y0459867D01*
X0134504Y0462181D01*
X0134736Y0461862D01*
X0134967Y0461544D01*
X0131782Y0459230D01*
X0123457Y0452448D02*
X0120423Y0449939D01*
X0119921Y0450545D01*
X0122955Y0453055D01*
X0123206Y0452752D01*
X0123457Y0452448D01*
X0123206Y0452752D02*
X0120475Y0450493D01*
X0112259Y0442942D02*
X0111989Y0443229D01*
X0109119Y0440533D01*
X0109658Y0439959D01*
X0112528Y0442655D01*
X0112259Y0442942D01*
X0109676Y0440516D01*
X0101963Y0432471D02*
X0101676Y0432741D01*
X0098981Y0429871D01*
X0099555Y0429332D01*
X0102250Y0432202D01*
X0101963Y0432471D01*
X0099538Y0429888D01*
X0092339Y0421361D02*
X0092035Y0421612D01*
X0089526Y0418578D01*
X0090133Y0418076D01*
X0092642Y0421110D01*
X0092339Y0421361D01*
X0090080Y0418631D01*
X0083424Y0409679D02*
X0081341Y0406812D01*
X0081428Y0406263D02*
X0080791Y0406725D01*
X0083105Y0409910D01*
X0083424Y0409679D01*
X0083742Y0409448D01*
X0081428Y0406263D01*
X0075609Y0397245D02*
X0073499Y0393920D01*
X0072835Y0394342D01*
X0074944Y0397666D01*
X0075277Y0397456D01*
X0075609Y0397245D01*
X0075277Y0397456D02*
X0073378Y0394464D01*
X0067897Y0384749D02*
X0067552Y0384939D01*
X0065655Y0381489D01*
X0066345Y0381110D01*
X0068242Y0384560D01*
X0067897Y0384749D01*
X0066190Y0381644D01*
X0061343Y0371600D02*
X0059834Y0368394D01*
X0059310Y0368205D02*
X0060987Y0371767D01*
X0061343Y0371600D01*
X0061699Y0371432D01*
X0060023Y0367870D01*
X0059310Y0368205D01*
X0055248Y0358211D02*
X0055614Y0358066D01*
X0055980Y0357921D01*
X0054531Y0354260D01*
X0053799Y0354550D01*
X0055248Y0358211D01*
X0055614Y0358066D02*
X0054310Y0354771D01*
X0050759Y0344206D02*
X0050385Y0344328D01*
X0049168Y0340584D01*
X0049917Y0340340D01*
X0051134Y0344085D01*
X0050759Y0344206D01*
X0049664Y0340836D01*
X0046778Y0330061D02*
X0046396Y0330158D01*
X0045417Y0326345D01*
X0046180Y0326149D01*
X0047159Y0329963D01*
X0046778Y0330061D01*
X0045897Y0326629D01*
X0043689Y0315687D02*
X0043302Y0315761D01*
X0042564Y0311894D01*
X0043338Y0311746D01*
X0044075Y0315614D01*
X0043689Y0315687D01*
X0043025Y0312207D01*
X0041511Y0301156D02*
X0041120Y0301205D01*
X0040627Y0297299D01*
X0041408Y0297200D01*
X0041902Y0301106D01*
X0041511Y0301156D01*
X0041067Y0297640D01*
X0040254Y0286524D02*
X0039861Y0286549D01*
X0039614Y0282619D01*
X0040400Y0282570D01*
X0040647Y0286499D01*
X0040254Y0286524D01*
X0040032Y0282988D01*
X0039918Y0271831D02*
X0039524Y0271831D01*
X0039524Y0267894D01*
X0040312Y0267894D01*
X0040312Y0271831D01*
X0039918Y0271831D01*
X0039918Y0268288D01*
X0040502Y0257147D02*
X0040109Y0257122D01*
X0040356Y0253193D01*
X0041142Y0253242D01*
X0040895Y0257171D01*
X0040502Y0257147D01*
X0040724Y0253610D01*
X0042004Y0242538D02*
X0041614Y0242489D01*
X0042107Y0238583D01*
X0042888Y0238682D01*
X0042395Y0242588D01*
X0042004Y0242538D01*
X0042449Y0239023D01*
X0044426Y0228045D02*
X0044040Y0227972D01*
X0044777Y0224104D01*
X0045551Y0224252D01*
X0044813Y0228119D01*
X0044426Y0228045D01*
X0045090Y0224565D01*
X0047757Y0213726D02*
X0047376Y0213628D01*
X0048355Y0209815D01*
X0049117Y0210011D01*
X0048138Y0213824D01*
X0047757Y0213726D01*
X0048638Y0210294D01*
X0051976Y0199649D02*
X0051601Y0199528D01*
X0052818Y0195783D01*
X0053567Y0196027D01*
X0052350Y0199771D01*
X0051976Y0199649D01*
X0053071Y0196280D01*
X0057063Y0185874D02*
X0056697Y0185729D01*
X0058147Y0182068D01*
X0058879Y0182358D01*
X0057429Y0186019D01*
X0057063Y0185874D01*
X0058368Y0182579D01*
X0063019Y0172438D02*
X0062663Y0172270D01*
X0064339Y0168708D01*
X0065052Y0169043D01*
X0063375Y0172606D01*
X0063019Y0172438D01*
X0064528Y0169232D01*
X0069793Y0159401D02*
X0069448Y0159211D01*
X0071345Y0155761D01*
X0072035Y0156140D01*
X0070138Y0159590D01*
X0069793Y0159401D01*
X0071500Y0156296D01*
X0077386Y0146820D02*
X0077054Y0146609D01*
X0079163Y0143285D01*
X0079828Y0143707D01*
X0077719Y0147031D01*
X0077386Y0146820D01*
X0079285Y0143829D01*
X0085738Y0134736D02*
X0085419Y0134504D01*
X0087733Y0131319D01*
X0088370Y0131782D01*
X0086056Y0134967D01*
X0085738Y0134736D01*
X0087820Y0131869D01*
X0094848Y0123206D02*
X0094545Y0122955D01*
X0097055Y0119921D01*
X0097661Y0120423D01*
X0095152Y0123457D01*
X0094848Y0123206D01*
X0097107Y0120475D01*
X0104658Y0112259D02*
X0104371Y0111989D01*
X0107067Y0109119D01*
X0107641Y0109658D01*
X0104945Y0112528D01*
X0104658Y0112259D01*
X0107084Y0109676D01*
M02*
