G75*
%MOIN*%
%OFA0B0*%
%FSLAX25Y25*%
%IPPOS*%
%LPD*%
%AMOC8*
5,1,8,0,0,1.08239X$1,22.5*
%
%ADD10C,0.02300*%
%ADD11C,0.04800*%
D10*
X0016650Y0271500D03*
X0016650Y0273800D03*
X0016650Y0276000D03*
X0023750Y0276100D03*
X0023750Y0273900D03*
X0023750Y0271600D03*
X0044800Y0271300D03*
X0044800Y0273600D03*
X0044800Y0275800D03*
X0166800Y0276100D03*
X0166800Y0273900D03*
X0166800Y0271600D03*
X0186150Y0271550D03*
X0186150Y0273850D03*
X0186150Y0276050D03*
X0216800Y0276050D03*
X0216800Y0273850D03*
X0216800Y0271550D03*
X0271550Y0216900D03*
X0273750Y0216900D03*
X0276050Y0216900D03*
X0276000Y0186200D03*
X0273700Y0186200D03*
X0271500Y0186200D03*
X0271550Y0166850D03*
X0273750Y0166850D03*
X0276050Y0166850D03*
X0330650Y0271600D03*
X0330650Y0273900D03*
X0330650Y0276100D03*
X0361400Y0276100D03*
X0361400Y0273900D03*
X0361400Y0271600D03*
X0380700Y0271600D03*
X0380700Y0273900D03*
X0380700Y0276100D03*
X0276000Y0330750D03*
X0273700Y0330750D03*
X0271500Y0330750D03*
X0271550Y0361400D03*
X0273750Y0361400D03*
X0276050Y0361400D03*
X0276050Y0380800D03*
X0273750Y0380800D03*
X0271550Y0380800D03*
X0271550Y0502350D03*
X0273750Y0502350D03*
X0276050Y0502350D03*
X0276050Y0524250D03*
X0273750Y0524250D03*
X0271550Y0524250D03*
X0271500Y0531100D03*
X0273700Y0531100D03*
X0276000Y0531100D03*
X0502350Y0276050D03*
X0502350Y0273850D03*
X0502350Y0271550D03*
X0524250Y0271700D03*
X0524250Y0274000D03*
X0524250Y0276200D03*
X0531000Y0276100D03*
X0531000Y0273900D03*
X0531000Y0271600D03*
X0275950Y0045200D03*
X0273650Y0045200D03*
X0271450Y0045200D03*
X0271550Y0023350D03*
X0273750Y0023350D03*
X0276050Y0023350D03*
X0276050Y0016800D03*
X0273750Y0016800D03*
X0271550Y0016800D03*
D11*
X0321667Y0253469D02*
X0315961Y0255323D01*
X0318433Y0262931D02*
X0324139Y0261077D01*
X0325800Y0269850D02*
X0319800Y0269850D01*
X0319800Y0277850D02*
X0325800Y0277850D01*
X0324489Y0286123D02*
X0318783Y0284269D01*
X0316311Y0291877D02*
X0322017Y0293731D01*
X0367211Y0292532D02*
X0373137Y0293470D01*
X0374389Y0285568D02*
X0368463Y0284630D01*
X0369300Y0277850D02*
X0375300Y0277850D01*
X0375300Y0269850D02*
X0369300Y0269850D01*
X0368813Y0262220D02*
X0374739Y0261282D01*
X0373487Y0253380D02*
X0367561Y0254318D01*
X0511605Y0254316D02*
X0517593Y0253940D01*
X0518095Y0261924D02*
X0512107Y0262300D01*
X0512050Y0269600D02*
X0518050Y0269600D01*
X0518050Y0277600D02*
X0512050Y0277600D01*
X0511807Y0284870D02*
X0517795Y0285246D01*
X0517293Y0293230D02*
X0511305Y0292854D01*
M02*
